<svg xmlns="http://www.w3.org/2000/svg" xmlns:xlink="http://www.w3.org/1999/xlink" width="256px" height="256px" viewBox="0 0 23.29 22.97"><defs><style>.a{fill:none;}.b{fill:#b3408f;}.c{fill:#a93878;}.d{fill:#80d194;}.e{fill:#f8e2f2;}.f{fill:#f7fbfb;}.g{fill:#a2dda9;}.h{fill:#67b77d;}.i{fill:#933624;}.j{fill:#fdfefe;}.k{fill:#e7018f;}.l{clip-path:url(#a);}.m{fill:#e17521;}.n{clip-path:url(#b);}.o{fill:#df6022;}.p{fill:#86b73f;}.q{fill:#a0c865;}.r{fill:#85b641;}.s{fill:#a4ca6c;}.t{fill:#92b959;}.u{fill:#82aa49;}.v{fill:#8f3310;}.w{fill:#94bd5d;}.x{fill:#add279;}.y{fill:#e38121;}.z{fill:#c94b19;}.aa{fill:#b0d480;}.ab{fill:#ebb32a;}.ac{fill:#eec039;}.ad{fill:#d2491d;}.ae{fill:#dd5325;}.af{clip-path:url(#d);}.ag{fill:#cd5725;}.ah{fill:#cd7d44;}</style><clipPath id="a" transform="translate(0)"><rect class="a" y="11.79" width="11.26" height="11.26"/></clipPath><clipPath id="b" transform="translate(0)"><rect class="a" x="5.89" y="14.23" width="5.37" height="7.77"/></clipPath><clipPath id="d" transform="translate(0)"><rect class="a" x="0.37" y="19.48" width="5.1" height="3.5"/></clipPath></defs><path class="b" d="M22.58,17.58a4.77,4.77,0,0,1-1,3.14,6.27,6.27,0,0,1-3,1.12,18.73,18.73,0,0,1-3.66.25c-1.21,0-2.42-.11-3.62-.24A6.65,6.65,0,0,1,8,20.92C7,20.13,6.73,18.7,6.59,17.42a17.75,17.75,0,0,1,.09-4.37A19.77,19.77,0,0,1,7.13,11,10.69,10.69,0,0,1,7.49,9.9a12.57,12.57,0,0,0,.7-1.43L8.5,8c.17.36.39,1,.78,1s.71-.26,1.07-.58.67-.67,1.09-.67.75.41.9.8c.36,1,1.12,1.71,2.08,1.19.44-.24.53-.73.7-1.21.08-.22.34-.77.56-.82s.66.87.78,1.08a1.36,1.36,0,0,0,1.21.82c.45,0,.57-.41.79-.83s.21-1,.47-1.15c.52-.36,1.88,1,2.3,1.22l.2.12a6.54,6.54,0,0,1,.51,1.29A18.07,18.07,0,0,1,22.48,14a23.18,23.18,0,0,1,.1,3.63" transform="translate(0)"/><path class="c" d="M22.57,17.58a4.71,4.71,0,0,1-1,3.14,6.34,6.34,0,0,1-3,1.12,18.73,18.73,0,0,1-3.66.25c-1.21,0-2.42-.11-3.62-.24A6.65,6.65,0,0,1,8,20.92a4.44,4.44,0,0,1-1.42-3.26A3.56,3.56,0,0,0,7.9,20a6.52,6.52,0,0,0,3.22.94c1.21.13,2.41.22,3.62.24a18.63,18.63,0,0,0,3.66-.26,6.2,6.2,0,0,0,3-1.12c.8-.72,1.28-3.4,1.18-2.19" transform="translate(0)"/><path class="c" d="M21.43,9.82s-1.66-1.47-2.17-1.39c-.31.05-.49,1-.65,1.28s-.49.76-.94.75a1.37,1.37,0,0,1-1.21-.81c-.12-.21-.38-1.08-.74-1s-.64,1.49-1.4,1.76A1.53,1.53,0,0,1,12.2,9.37c-.14-.39-.27-.76-.76-.76s-.8.4-1.09.66-.64.64-1.17.57A1.91,1.91,0,0,1,8.05,9l.27-.95c.18.36.42.81.82.87s.71-.27,1.07-.59.67-.67,1.08-.67.76.41.9.81c.36,1,1.12,1.7,2.08,1.18.45-.23.53-.73.71-1.21.08-.22.34-.77.55-.82.36-.09.83.72,1,.93.27.48.48,1,1,1s.57-.41.8-.82.21-1,.47-1.16c.52-.36,1.9.93,2.29,1.23.82.62.35,1.05.35,1.05" transform="translate(0)"/><path class="d" d="M20.67,4.94c.62-2.64.54-3.79-1.78-4.09S8.81.06,8.62,2.16a5.08,5.08,0,0,0,.23,2.78s-2.8,2.82-2.6,3.44c.34,1,1.33.46,2.05-.26,0,0,.48,1.8,2.24.18s2,.88,2.51,1.2c.69.44,1.34.46,2.13-1.17s1.21.38,1.42.69a1,1,0,0,0,1.84-.33c.5-1.31,1-1.36,2.34-.13s2.34.21,2.13-.64-2.24-3-2.24-3" transform="translate(0)"/><path class="e" d="M14.73,18.21c-2,.13-5.61-.24-5.68-3a4.27,4.27,0,0,1,1.63-3.27,5.06,5.06,0,0,1,3.5-.86c2.13.14,5.09.74,5.54,3.36.5,3-2.89,3.64-5,3.78" transform="translate(0)"/><path class="f" d="M14.72,18.16c-1.93.13-5.52-.24-5.59-3A4.2,4.2,0,0,1,10.73,12a5,5,0,0,1,3.46-.85c2.09.14,5,.73,5.45,3.32.5,2.91-2.84,3.59-4.92,3.72" transform="translate(0)"/><path class="g" d="M19.89,1.26c0,.36-2.37.66-5.29.66s-5.29-.3-5.29-.66S11.68.59,14.6.59s5.29.3,5.29.67" transform="translate(0)"/><path class="h" d="M20.79,5.46c-4,.87-9.42,1.08-10.89.41S9.13,5,9.13,5a12.17,12.17,0,0,0,6,.78c3.2-.46,5.51-.88,5.51-.88l.12.52" transform="translate(0)"/><path class="g" d="M10.65,1.41c-1.94.51-1.3,2.85-.87,3.76,0,0-3.91,3.51-2.51,3.49,0,0-1.13.54-1-.28s2.46-3.1,2.46-3.1a11.43,11.43,0,0,1-.26-2.62c.06-1.21,1.62-1.63,2-1.77s.16.52.16.52" transform="translate(0)"/><path class="h" d="M19.72,1.24c1.07,1,.23,3.87.23,3.87s2.49,2.48,2.44,3.14c-.05.93-.76.63-.76.63s1,.35,1.31-.28S21.79,6.09,20.71,5c0,0,.71-2.06.3-3a1.23,1.23,0,0,0-1.29-.79" transform="translate(0)"/><path class="i" d="M11.75,13.11c-.24.25.39,2.83-.39,2.67-.18,0,.09-.66,0-.81-.32-.5-.64.14-.67.46,0,.49.18,1,.71,1s.9-.66,1-1.21c0-.26.05-2.79-.62-2.12" transform="translate(0)"/><path class="i" d="M11.44,12.24a.32.32,0,1,0,.63,0,.32.32,0,1,0-.63,0" transform="translate(0)"/><path class="i" d="M13.88,13.15c-.67.17-.85,1-.89,1.61,0,.33-.14,1.56.32,1.69s.31-1,.31-1.21v-.09h0a6.83,6.83,0,0,0,1.1-.11,6,6,0,0,0-.11,1.08.31.31,0,0,0,.57.09,3.34,3.34,0,0,0,0-2.25,1.15,1.15,0,0,0-1.34-.81m-.24,1.32c0-.33.16-.64.45-.69s.51.24.59.59A2.2,2.2,0,0,0,13.64,14.47Z" transform="translate(0)"/><path class="i" d="M17,13.8c-.15-.3-.45-.62-.81-.42-.55.3-.71,2.2-.3,2.67s.56-.11.51-.47a3.43,3.43,0,0,1,.05-1.46c.12.26.15.74.52.71s.39-.56.64-.73c.34.6,0,1.26.1,1.87,0,.18.09.34.3.34s.35-.41.38-.67a3.39,3.39,0,0,0-.19-1.76c-.29-.58-.83-.53-1.2-.08" transform="translate(0)"/><path class="i" d="M19.36,10.75a.32.32,0,1,0-.63,0,.32.32,0,0,0,.63,0" transform="translate(0)"/><path class="i" d="M20.78,9.91a.32.32,0,1,0-.63,0,.32.32,0,1,0,.63,0" transform="translate(0)"/><path class="i" d="M20.48,11.8a.32.32,0,1,0,.63,0,.32.32,0,1,0-.63,0" transform="translate(0)"/><path class="i" d="M12.32,10.56a4.8,4.8,0,0,0-3.82,4.7c.09,2.41,2.62,3.38,4.56,3.56s4.43-.06,6-1.29a3.55,3.55,0,0,0,.29-5.09c-1.63-1.86-4.79-2.31-7.06-1.88m2.4,7.6c-1.93.13-5.52-.24-5.59-3A4.2,4.2,0,0,1,10.73,12a5,5,0,0,1,3.46-.85c2.09.14,5,.73,5.45,3.32C20.14,17.35,16.8,18,14.72,18.16Z" transform="translate(0)"/><path class="i" d="M22,9.43a1,1,0,0,0,1.21-.95c.07-1-1.16-2.35-2.05-3.29a.3.3,0,0,0-.25-.43L21,4.63a5.47,5.47,0,0,0,.26-1.29,3.1,3.1,0,0,0,0-1.25C20.86.47,18.59.38,17.32.28a26.22,26.22,0,0,0-5.24.1C10.69.54,8.37.51,8.23,2.47a5,5,0,0,0,.11,1.27c0,.15.08.51.16.83h0c-.4.1-.24.44,0,.6l0,0C7.89,5.84,7.22,6.33,6.68,7s-1.1,1.46-.44,2.1a1,1,0,0,0,1.27,0,11.38,11.38,0,0,0-.84,2.33,17.42,17.42,0,0,0-.5,4.88c.07,1.48.2,3.36,1.22,4.49s2.63,1.35,4,1.51a31.4,31.4,0,0,0,5.13.18,10.64,10.64,0,0,0,4.63-1.09c1.25-.72,1.57-2.22,1.7-3.6A24.71,24.71,0,0,0,22.63,12,10.87,10.87,0,0,0,22,9.43m-13.12-7a1.12,1.12,0,0,1,.64-.86A7.22,7.22,0,0,1,12,1.05,27.27,27.27,0,0,1,17.45.94h-.09a7.31,7.31,0,0,1,2.53.51c.79.37.86,1,.71,1.87a10.4,10.4,0,0,0-.25,1.47L20,4.87c-.28.07-.57.16-.79.2-.55.1-1.09.2-1.65.27s-.92.1-1.38.13a5.91,5.91,0,0,0,1.92-1.3c.51-.56.76-2.13-.39-2a4,4,0,0,0-2.27,1.69,6.49,6.49,0,0,0-.64,1A9,9,0,0,0,14.45,4c-.37-.75-1-2-2-1.87s-.93,1.35-.41,2a5.68,5.68,0,0,0,1.71,1.36,23.38,23.38,0,0,1-2.69-.24l-.5-.09c-.26,0-.51-.11-.76-.18s-.42-.18-.67-.28A11.41,11.41,0,0,0,8.87,3,2.74,2.74,0,0,1,8.87,2.38ZM15.44,5a4.48,4.48,0,0,1,.43-.64c.23-.29,1.23-1.61,2-1.56.42.12-.16.86-.27,1A6.38,6.38,0,0,1,15.44,5Zm-1.28-.09A4.62,4.62,0,0,1,12.4,3.57c-.18-.28-.26-.8.23-.76C13.39,3,13.9,4.28,14.16,4.94ZM6.8,8.65c-.93-.26,1.57-2.48,1.86-2.78A3.16,3.16,0,0,0,9,5.46a8.35,8.35,0,0,0,1,.26,16.41,16.41,0,0,0,3.12.37l.95,0a4.78,4.78,0,0,1-1,1.18c-.16.15-.42.29-.32.56s.33.21.51.12a3.79,3.79,0,0,0,1.29-1.48c.05-.09.11-.2.17-.33a3.11,3.11,0,0,0,.61.76c.26.23,1.22,1,1.54.68s-.44-.51-1.08-1.13a4,4,0,0,1-.27-.37,27.62,27.62,0,0,0,4.13-.46c.18,0,.61,0,1-.12A9.24,9.24,0,0,1,22,7.12c.23.35.85,1.17.44,1.59s-.74.14-1.13-.11l-.19-.13c-.22-.16-.41-.32-.54-.42-.48-.37-1.17-1-1.81-.7s-.35,1.46-1,1.79-1-.77-1.32-1.2S15.35,7.06,15,7.81c-.28.58-.22,1.31-.89,1.61S13,9.13,12.74,8.53s-.53-1.17-1.25-1.13a1.86,1.86,0,0,0-1,.43c-.3.23-.67.78-1,.88-.56.14-.47-.74-.78-1C8.14,7.23,7.42,8.83,6.8,8.65Zm15.48,8.83a4.5,4.5,0,0,1-1,3,6,6,0,0,1-2.88,1.08,17.33,17.33,0,0,1-3.52.25c-1.17,0-2.33-.11-3.49-.23a6.42,6.42,0,0,1-3.11-.9c-1-.76-1.26-2.14-1.4-3.37A16.56,16.56,0,0,1,7,13.11c.06-.41.25-1.37.42-2,.11-.35.22-.7.35-1.05A10.37,10.37,0,0,0,8.42,8.7l0-.07a1.19,1.19,0,0,0,.8.75c.5.06.92-.39,1.26-.7S11.15,8,11.55,8s.52.47.67.86A1.58,1.58,0,0,0,14.42,10a2.07,2.07,0,0,0,.91-1.12c.07-.21.1-.8.31-.85s.63.85.75,1a1.3,1.3,0,0,0,1.16.79,1.11,1.11,0,0,0,1-.6c.16-.29.17-1.08.42-1.25.5-.34,1.6.87,2,1.12l.19.11a5.91,5.91,0,0,1,.49,1.25A18,18,0,0,1,22.2,14,21.54,21.54,0,0,1,22.28,17.48Z" transform="translate(0)"/><rect class="a" x="5.59" width="17.7" height="22.52"/><path class="j" d="M14.45,11.2a8.43,8.43,0,0,0-1,.06,7.4,7.4,0,0,0-1,.18,6.47,6.47,0,0,0-.91.3,4.84,4.84,0,0,0-.79.39,4.76,4.76,0,0,0-.65.48,3.11,3.11,0,0,0-.48.56,2.53,2.53,0,0,0-.3.59,2.23,2.23,0,0,0-.1.62,2.17,2.17,0,0,0,.1.62,2.41,2.41,0,0,0,.3.6,2.75,2.75,0,0,0,.48.55,4.09,4.09,0,0,0,.65.49,7.26,7.26,0,0,0,.79.39,6.47,6.47,0,0,0,.91.3,7.4,7.4,0,0,0,1,.18,8.62,8.62,0,0,0,2,0,7.4,7.4,0,0,0,1-.18,6.47,6.47,0,0,0,.91-.3,8.29,8.29,0,0,0,.79-.39,4.09,4.09,0,0,0,.65-.49,2.75,2.75,0,0,0,.48-.55,2.41,2.41,0,0,0,.3-.6,2.17,2.17,0,0,0,.1-.62,2.23,2.23,0,0,0-.1-.62,2.53,2.53,0,0,0-.3-.59,3.11,3.11,0,0,0-.48-.56,4.76,4.76,0,0,0-.65-.48,5.27,5.27,0,0,0-.79-.39,6.47,6.47,0,0,0-.91-.3,7.4,7.4,0,0,0-1-.18A8.47,8.47,0,0,0,14.45,11.2Z" transform="translate(0)"/><path class="k" d="M11.11,15.25s0,0,0-.05a3.57,3.57,0,0,1,1.38-1.88.66.66,0,0,1,.2-.06c.11,0,.15,0,.15.14v0a2.1,2.1,0,0,1-.53,1,2.64,2.64,0,0,1-1.15.81ZM10.6,16.7a.11.11,0,0,0,.09-.05.44.44,0,0,0,.07-.22L11,15.6a.24.24,0,0,1,0-.08.08.08,0,0,1,0-.07,1.73,1.73,0,0,1,.32.11l.18.07.18.07a.86.86,0,0,0,.32.05,1.24,1.24,0,0,0,.72-.24l.57-.44a.26.26,0,0,0,.09-.09.14.14,0,0,0,0-.07.07.07,0,0,0-.06-.06h0l-.05,0-.29.23-.3.24a1.19,1.19,0,0,1-.69.25l-.21,0a2.11,2.11,0,0,1-.47-.19,0,0,0,0,1,0,0l0,0,.05,0,0,0a3.2,3.2,0,0,0,1.38-1.37,1.75,1.75,0,0,0,.12-.32.7.7,0,0,0,0-.29.2.2,0,0,0-.2-.19c-.6,0-1.17.76-1.45,1.28a.33.33,0,0,1,0-.14.56.56,0,0,0,0-.12c.11-.45.23-.9.35-1.35a.26.26,0,0,0,0-.15.12.12,0,0,0,0-.05h0l0,0a.25.25,0,0,0,0,.11l0,.11c-.12.53-.25,1-.4,1.56-.07.24-.13.49-.19.74a4.79,4.79,0,0,1-.24.73,2.14,2.14,0,0,0-.13.62.65.65,0,0,0,0,.14A.09.09,0,0,0,10.6,16.7Z" transform="translate(0)"/><path class="k" d="M13.34,15.19h0s0,0,0,0c.06-.17.25-.45.43-.47,0,0,0,0,0,0S13.49,15.11,13.34,15.19Zm.05.67c.38,0,1-.56,1.23-.84,0,0,0,0,0-.06s0-.05,0-.08l0,0,0,0-.05,0,0,.05-.2.18-.19.19a1.48,1.48,0,0,1-.64.37c-.1,0-.17,0-.19-.13a.31.31,0,0,1,0-.19s0,0,0-.05a.9.9,0,0,0,.66-.62c0-.13-.06-.21-.17-.21h0c-.29,0-.51.43-.6.69a.53.53,0,0,0,0,.25.42.42,0,0,0,0,.19A.26.26,0,0,0,13.39,15.86Z" transform="translate(0)"/><path class="k" d="M14.74,15.87h0a1.59,1.59,0,0,0,.71-.27,8.47,8.47,0,0,0,.76-.58l0,0s0,0,0,0a.11.11,0,0,0,0-.08.05.05,0,0,0-.05,0h0l-.05,0,0,0-.28.22-.28.23a2,2,0,0,1-.73.34h-.07c-.22,0-.31-.12-.25-.36a1.31,1.31,0,0,1,.39-.65.25.25,0,0,1,.16-.08.1.1,0,0,1,.1.11.24.24,0,0,1,0,.2l0,.05a.07.07,0,0,0,0,.06l0,0h0l0,0a.51.51,0,0,0,.11-.39.25.25,0,0,0-.25-.18.28.28,0,0,0-.2.09,1.44,1.44,0,0,0-.47.78.19.19,0,0,0,0,.08A.36.36,0,0,0,14.74,15.87Z" transform="translate(0)"/><path class="k" d="M16.24,15.19h0a0,0,0,0,1,0,0c.06-.17.25-.45.43-.47,0,0,.05,0,.05,0S16.38,15.11,16.24,15.19Zm.05.67c.38,0,1-.56,1.22-.84l0-.06a.07.07,0,0,0,0-.08.05.05,0,0,0,0,0l0,0-.05,0-.06.05-.19.18-.2.19a1.42,1.42,0,0,1-.64.37c-.1,0-.16,0-.18-.13a.26.26,0,0,1,0-.19.07.07,0,0,1,0-.05.88.88,0,0,0,.66-.62c0-.13-.05-.21-.16-.21h-.05c-.29,0-.51.43-.6.69a1,1,0,0,0,0,.25.63.63,0,0,0,0,.19A.27.27,0,0,0,16.29,15.86Z" transform="translate(0)"/><path class="k" d="M17.92,14.11a.11.11,0,0,1,0-.11,5.62,5.62,0,0,1,.38-.78s0,0,.06,0h0v0h0l-.15.3c-.11.21-.21.42-.32.62Zm-.45,2.28c.11,0,.29-.19.35-.28s.23-.32.36-.49.23-.32.35-.47l.08-.14a.08.08,0,0,0,0-.07,0,0,0,0,0,0-.06h0s-.09.09-.11.12c-.24.33-.52.73-.78,1.06,0,0-.13.17-.18.17a0,0,0,0,1-.05,0,.62.62,0,0,1,0-.33,3,3,0,0,1,.29-1.24A6.54,6.54,0,0,0,18.56,13a.09.09,0,0,0,0-.11h0a.11.11,0,0,0-.07,0,5.15,5.15,0,0,0-.86,1.72,1,1,0,0,1-.15.34s0,.06,0,.09a.17.17,0,0,1,0,.18,3.5,3.5,0,0,0-.09.75v.19C17.31,16.25,17.36,16.39,17.47,16.39Z" transform="translate(0)"/><g class="l"><path class="m" d="M5.67,15a.74.74,0,0,1-.44.31,3.57,3.57,0,0,0-1.45,1.06,2.51,2.51,0,0,0-.23,2.82,4.75,4.75,0,0,0,4,2.77.33.33,0,0,0,.14,0,1,1,0,0,0,.82-.48,3.47,3.47,0,0,0,.92-2,2.45,2.45,0,0,1,0-.27A2.38,2.38,0,0,0,9,17.36a.94.94,0,0,1-.16-.42,3.07,3.07,0,0,0-.84-1,3.19,3.19,0,0,0-.87-.57h0c-.34-.08-.67-.22-1-.3a.26.26,0,0,0-.21,0c-.08,0-.14-.06-.22,0" transform="translate(0)"/></g><g class="n"><path class="o" d="M8.77,16.92a1.07,1.07,0,0,0,.24.6,2.26,2.26,0,0,1,.34,1.68,7.32,7.32,0,0,1-.19,1,4,4,0,0,1-.83,1.32,1.25,1.25,0,0,1-.68.43,3,3,0,0,0,2.65-1.15,4.4,4.4,0,0,0,1-2.59,2.8,2.8,0,0,0-.5-1.8A5,5,0,0,0,8,14.32a3.08,3.08,0,0,0-.53-.08,2.24,2.24,0,0,0-1.38.36c-.1.07-.22.13-.24.27s.17.13.28.15a3.93,3.93,0,0,1,1.21.36,4.26,4.26,0,0,1,1.24,1A4.65,4.65,0,0,1,9.72,19,4.33,4.33,0,0,0,9,17.09c-.05-.09-.09-.2-.23-.17" transform="translate(0)"/></g><g class="l"><path class="p" d="M4.11,14.06a3.49,3.49,0,0,0-3.26.19,2.94,2.94,0,0,0-.85.63s0,0,0,0l0,0a2.44,2.44,0,0,0,.8-.17,4.18,4.18,0,0,1,1.36-.14H3.26l.27,0a1,1,0,0,0,.17,0,.36.36,0,0,1,.23,0c.18,0,.36,0,.42-.16s-.1-.28-.24-.36" transform="translate(0)"/><path class="q" d="M3.31,14.56c-.42,0-.85,0-1.27,0a7.18,7.18,0,0,0-1.6.23c-.15,0-.24.18-.41.17a1.8,1.8,0,0,0,.61.13A.2.2,0,0,0,.88,15c.17-.3.46-.29.76-.31a.81.81,0,0,1-.18.33c-.07.11-.12.23.05.3a5.51,5.51,0,0,0,1.64.47,1.87,1.87,0,0,1,.58-.54l.14-.12c.1-.1.25-.19.19-.35s-.25-.16-.42-.16-.09,0-.12,0c-.1.38-.1.38-.49.44a4.94,4.94,0,0,0-.53.1,3.45,3.45,0,0,1,.81-.61" transform="translate(0)"/><path class="r" d="M7.93,11.85l-.16,0c-.17.1-.37.05-.54.13a2.08,2.08,0,0,0-1.55,1.74.71.71,0,0,1-.1.35c-.1.2,0,.36.12.52.3.08.54-.09.81-.19.09-.06,0-.11,0-.16a1.47,1.47,0,0,0-.22-.1c-.15-.07-.21-.18-.11-.33a3.35,3.35,0,0,1,.29-.44c.29-.32.57-.65.89-.94a1.88,1.88,0,0,1,.6-.39c.06,0,.12-.06.11-.13s-.08,0-.12-.08" transform="translate(0)"/><path class="s" d="M7.93,11.85c.06.05.15.12,0,.16a2.17,2.17,0,0,0-.93.68c-.22.21-.4.45-.6.67-.13.37-.07.46.32.41a.56.56,0,0,1,.48.15,4.73,4.73,0,0,0,.59-1.27,3.27,3.27,0,0,1,.3-.59c0-.06.12-.14.07-.21s-.15,0-.23,0" transform="translate(0)"/><path class="t" d="M3.54,14.63c.17,0,.42,0,.47.15s-.17.29-.32.38a3.45,3.45,0,0,0-.54.46.1.1,0,0,0,0,.14,2.07,2.07,0,0,0,1.4-.24.94.94,0,0,0,.07-.62.34.34,0,0,0-.23-.27,2.06,2.06,0,0,0-.7-.07l-.16,0s0,0,0,0h0" transform="translate(0)"/><path class="u" d="M3.69,14.56a3.11,3.11,0,0,1,.44.06c.47.07.54.37.38.77,0,.06-.12.13,0,.13a3.5,3.5,0,0,0,.78-.43l.26-.17c0-.06.06-.13-.06-.12s-.31-.21-.48-.3a4,4,0,0,0-.94-.44l0,0c.09.09.24.19.15.33a.31.31,0,0,1-.39.07.14.14,0,0,0-.21.05" transform="translate(0)"/><path class="v" d="M5.53,14.8c.06,0,.06.07.06.12s.06.07.08.12.11.15.22.12,0-.19,0-.28a.36.36,0,0,0-.15-.29l-.14-.5a1.5,1.5,0,0,1,0-1c.06-.12,0-.15-.09-.17s-.3-.05-.37.12a.54.54,0,0,0,0,.31,4.92,4.92,0,0,0,.44,1.41" transform="translate(0)"/><path class="w" d="M7.2,13.92c0-.21-.16-.28-.36-.24a1.25,1.25,0,0,0-.19,0c-.22,0-.3,0-.24-.24,0,0,0-.07,0-.11a2.06,2.06,0,0,0-.33.5c-.1.14,0,.25.1.33s.28.06.38.18a.41.41,0,0,0,.36-.15l.29-.3" transform="translate(0)"/><path class="x" d="M1.51,15.29c-.14-.15,0-.23.07-.35s.23-.22.16-.33-.22,0-.35,0a.6.6,0,0,0-.58.33c0,.08-.1.09-.17.11l.87.24" transform="translate(0)"/><path class="s" d="M7.23,12c.19,0,.38,0,.54-.13a1.13,1.13,0,0,0-.54.13" transform="translate(0)"/><path class="y" d="M8.07,17.29a2,2,0,0,0-.68-1.08,3,3,0,0,0-.87-.6c-.68-.33-1.15-.13-1.73.42a1.49,1.49,0,0,0-.26,1.61,2.54,2.54,0,0,0,1.34,1.58,3.18,3.18,0,0,0,1,.31.67.67,0,0,0,.6-.39,2.47,2.47,0,0,0,.55-1.85" transform="translate(0)"/><path class="z" d="M5.91,14.87l-.09,0a.46.46,0,0,1,.07.26c.18-.16.34,0,.5,0s.14.09.23.1a2.43,2.43,0,0,1,1.48.81,2.64,2.64,0,0,1,.67.81,1.4,1.4,0,0,1,.36.51,4.89,4.89,0,0,1,.57,1.78.53.53,0,0,0,0,.12c.07,0,.08-.06.07-.1a5.27,5.27,0,0,0-.86-2.63,3.83,3.83,0,0,0-.62-.66,3.89,3.89,0,0,0-2.3-1,.14.14,0,0,1-.11-.06" transform="translate(0)"/><path class="aa" d="M3.54,14.63a.07.07,0,0,1,0-.05l-.22,0a2.1,2.1,0,0,0-.93.58.15.15,0,0,0,0,.09.08.08,0,0,0,.11,0c.3-.11.62-.1.91-.19s.22-.26.18-.45" transform="translate(0)"/><path class="ab" d="M5.76,19.2c.14-.12.28,0,.41,0a2.67,2.67,0,0,1,.62.21c.1,0,.16.06.24.09.34.11.43.27.32.61a4.31,4.31,0,0,1-.62,1.32,2.48,2.48,0,0,1-1.66.88,4.32,4.32,0,0,1-2.76-.56,3.5,3.5,0,0,1-1-.9,1.82,1.82,0,0,1-.38-1.53,3,3,0,0,1,.49-1.14,1.18,1.18,0,0,1,.54-.4.3.3,0,0,1,.34.09c.09.09,0,.21.06.32s-.1.18-.13.28a2.55,2.55,0,0,0,.23.69c.13.23.38.29.54.45s.19.18.35.12.08,0,.09,0c0,.25.29.25.45.3s.33.16.46-.05.14,0,.2,0,.07.14.12.2.06-.23.19-.23.14.18.24.3a2.53,2.53,0,0,0,0-.46c0-.36.16-.43.51-.27a.5.5,0,0,1,.12-.41" transform="translate(0)"/><path class="ac" d="M2.29,17.9a.77.77,0,0,0-.8.29A3.17,3.17,0,0,0,1,19.51a1.62,1.62,0,0,0,.31,1.21,3.58,3.58,0,0,0,1.92,1.37,4.15,4.15,0,0,0,1.91.18,2.33,2.33,0,0,0,1.49-.77,1.89,1.89,0,0,0,.49-.9c0-.24.24-.42.23-.69s-.08-.32-.27-.34a.6.6,0,0,1-.25-.13,4.86,4.86,0,0,1,.92.27,2.42,2.42,0,0,1-.19,1.22,2.86,2.86,0,0,1-1.43,1.66h0a4.29,4.29,0,0,1-.63.23h0A4.55,4.55,0,0,1,2.3,22.4,3.17,3.17,0,0,1,.56,20.57a2.07,2.07,0,0,1-.09-1.1,2.7,2.7,0,0,1,1.18-1.76.51.51,0,0,1,.4-.08.78.78,0,0,1,.24.27" transform="translate(0)"/><path class="ad" d="M5.76,19.2a1.93,1.93,0,0,0-.07.53c-.08,0-.09,0-.12-.06s-.15-.13-.25-.09-.11.13-.12.22a2.45,2.45,0,0,1-.09.7c-.15-.11-.12-.31-.25-.43-.14.08,0,.26-.16.33s-.07,0-.1-.07,0-.29-.19-.27,0,.21-.11.29-.14-.19-.15-.18c-.22.22-.31-.06-.47-.1s-.07.1-.14.09c-.18-.42-.18-.42-.47-.19-.1-.09,0-.23-.1-.33s-.1.13-.18.07,0-.15-.06-.24c-.09.09-.2.16-.22,0s-.25-.22-.21-.39-.16-.26-.16-.44a.49.49,0,0,1,.21-.38l0,0a2.24,2.24,0,0,0,2.55,1.18,2.75,2.75,0,0,0,.84-.22" transform="translate(0)"/><path class="ae" d="M2.05,17.63a1.9,1.9,0,0,0-1.12.9,3,3,0,0,0-.4.95s-.06.12-.15.1a2.52,2.52,0,0,1,.69-1.9.65.65,0,0,1,.16-.13c.4-.27.5-.26.82.08" transform="translate(0)"/></g><g class="af"><path class="ag" d="M.38,19.58l.15-.1a2.43,2.43,0,0,0,1.1,2.44,4.86,4.86,0,0,0,3.21,1,2.18,2.18,0,0,1,.62-.06c-.06.1-.17.08-.26.09A4.49,4.49,0,0,1,1,21.46a2.34,2.34,0,0,1-.63-1.88" transform="translate(0)"/></g><g class="l"><path class="ah" d="M6.09,22.59c.1-.15.28-.2.42-.31a3.21,3.21,0,0,0,1.2-2.57.08.08,0,0,1,.07.09,3.17,3.17,0,0,1-1.61,2.78H6.09" transform="translate(0)"/><path class="ag" d="M5.46,22.82a2.08,2.08,0,0,1,.63-.23,1,1,0,0,1-.63.23" transform="translate(0)"/></g></svg>