<svg xmlns="http://www.w3.org/2000/svg" xmlns:xlink="http://www.w3.org/1999/xlink" width="256px" height="256px" viewBox="0 0 22.14 24.12"><defs><style>.a{fill:none;}.b{fill:#b3408f;}.c{fill:#a93878;}.d{fill:#80d194;}.e{fill:#fff;}.f{fill:#a2dda9;}.g{fill:#67b77d;}.h{fill:#933624;}.i{fill:#fdfefe;}.j{fill:#e7018f;}.k{clip-path:url(#a);}.l{fill:#428043;}.m{fill:#944a69;}.n{fill:#f7ead1;}.o{fill:#f5c200;}.p{fill:#385c6e;}.q{fill:#a2b7c2;}.r{fill:#e38d02;}.s{fill:#fae183;}.t{fill:#803c47;}.u{fill:#7a3953;}.v{fill:#9e5a77;}.w{fill:#911d3d;}.x{fill:#a64d65;}.y{fill:#a5567d;}.z{fill:#ad698d;}.aa{fill:#f9d600;}.ab{fill:#497994;}.ac{fill:#bfcfd8;}.ad{fill:#ecb302;}.ae{fill:#fcebaf;}.af{fill:#faf1e2;}.ag{fill:#b05e86;}.ah{fill:#b87298;}.ai{fill:#bd6da0;}.aj{fill:#c285ad;}.ak{fill:#e5b3cd;}.al{fill:#ea7d6a;}.am{fill:#5c293d;}.an{fill:#522436;}.ao{fill:#a83151;}.ap{fill:#ffd7a6;}.aq{fill:#ff9c61;}.ar{fill:#82a651;}.as{fill:#9ba651;}.at{fill:#d1cc66;}.au{fill:#632e44;}.av{fill:#ffa6d1;}.aw{fill:#ff88b8;}.ax{fill:#a4425e;}.ay{fill:#ffc2e4;}.az{fill:#ffedec;}.ba{fill:#f46991;}.bb{fill:#f2dfe7;}.bc{fill:#402424;}</style><clipPath id="a" transform="translate(-0.26)"><rect class="a" y="14.14" width="9.41" height="9.76"/></clipPath></defs><path class="b" d="M21.67,17.58a4.76,4.76,0,0,1-1,3.14,6.27,6.27,0,0,1-3,1.12,18.73,18.73,0,0,1-3.66.25c-1.21,0-2.42-.11-3.62-.24a6.65,6.65,0,0,1-3.23-.93c-1.08-.79-1.31-2.22-1.45-3.5a17.28,17.28,0,0,1,.09-4.37c.07-.43.26-1.43.44-2.06.11-.37.23-.73.37-1.09a12.57,12.57,0,0,0,.7-1.43L7.6,8c.17.36.39,1,.78,1s.71-.26,1.07-.58.67-.67,1.09-.67.75.41.9.8c.35,1,1.12,1.71,2.08,1.19.44-.24.53-.73.7-1.21.08-.22.34-.77.55-.82.37-.09.67.87.79,1.08a1.36,1.36,0,0,0,1.21.82c.45,0,.57-.41.79-.83s.21-1,.47-1.15c.52-.36,1.88,1,2.3,1.22l.2.12A7.21,7.21,0,0,1,21,10.29,18.07,18.07,0,0,1,21.58,14a22,22,0,0,1,.09,3.63" transform="translate(-0.26)"/><path class="c" d="M21.67,17.58a4.76,4.76,0,0,1-1,3.14,6.38,6.38,0,0,1-3,1.12,18.73,18.73,0,0,1-3.66.25c-1.21,0-2.42-.11-3.62-.24a6.65,6.65,0,0,1-3.23-.93,4.44,4.44,0,0,1-1.42-3.26A3.59,3.59,0,0,0,7,20a6.59,6.59,0,0,0,3.23.94c1.21.13,2.41.22,3.62.24a18.63,18.63,0,0,0,3.66-.26,6.2,6.2,0,0,0,3-1.12c.8-.72,1.28-3.4,1.18-2.19" transform="translate(-0.26)"/><path class="c" d="M20.53,9.82s-1.66-1.47-2.17-1.39c-.31.05-.49,1-.66,1.28s-.48.76-.94.75a1.38,1.38,0,0,1-1.21-.81c-.11-.21-.37-1.08-.73-1s-.64,1.49-1.4,1.76A1.53,1.53,0,0,1,11.3,9.37c-.14-.39-.27-.76-.76-.76s-.8.4-1.09.66-.64.64-1.17.57A1.91,1.91,0,0,1,7.15,9l.27-.95c.18.36.42.81.82.87S9,8.65,9.3,8.33s.68-.67,1.09-.67.76.41.9.81c.36,1,1.12,1.7,2.08,1.18.45-.23.53-.73.71-1.21.08-.22.33-.77.55-.82s.83.72.95.93c.27.48.48,1,1,1s.57-.41.8-.82.2-1,.46-1.16c.52-.36,1.91.93,2.3,1.23.82.62.35,1.05.35,1.05" transform="translate(-0.26)"/><path class="d" d="M19.77,4.94c.62-2.64.54-3.79-1.78-4.09S7.91.06,7.72,2.16A5.08,5.08,0,0,0,8,4.94s-2.8,2.82-2.6,3.44c.34,1,1.33.46,2.05-.26,0,0,.48,1.8,2.24.18s2,.88,2.51,1.2c.69.44,1.34.46,2.13-1.17s1.21.38,1.42.69a1,1,0,0,0,1.84-.33c.5-1.31,1-1.36,2.34-.13s2.34.21,2.13-.64-2.24-3-2.24-3" transform="translate(-0.26)"/><path class="e" d="M13.82,18.21c-2,.13-5.6-.24-5.67-3a4.27,4.27,0,0,1,1.63-3.27,5,5,0,0,1,3.5-.86c2.13.14,5.09.74,5.54,3.36.5,3-2.89,3.64-5,3.78" transform="translate(-0.26)"/><path class="f" d="M19,1.26c0,.36-2.37.66-5.29.66s-5.29-.3-5.29-.66S10.78.59,13.7.59,19,.89,19,1.26" transform="translate(-0.26)"/><path class="g" d="M19.89,5.46c-4,.87-9.42,1.08-10.89.41S8.22,5,8.22,5a12.23,12.23,0,0,0,6,.78c3.2-.46,5.51-.88,5.51-.88l.12.52" transform="translate(-0.26)"/><path class="f" d="M9.75,1.41c-1.94.51-1.3,2.85-.87,3.76,0,0-3.91,3.51-2.51,3.49,0,0-1.13.54-1-.28S7.8,5.28,7.8,5.28a11.72,11.72,0,0,1-.25-2.62C7.61,1.45,9.17,1,9.59.89s.16.52.16.52" transform="translate(-0.26)"/><path class="g" d="M18.82,1.24c1.07,1,.23,3.87.23,3.87s2.48,2.48,2.44,3.14c-.06.93-.76.63-.76.63s1,.35,1.31-.28S20.89,6.09,19.81,5c0,0,.71-2.06.29-3a1.21,1.21,0,0,0-1.28-.79" transform="translate(-0.26)"/><path class="h" d="M18.46,10.75a.32.32,0,1,0-.63,0,.32.32,0,0,0,.63,0" transform="translate(-0.26)"/><path class="h" d="M19.88,9.91a.32.32,0,1,0-.63,0,.32.32,0,1,0,.63,0" transform="translate(-0.26)"/><path class="h" d="M19.58,11.8a.32.32,0,1,0,.63,0,.32.32,0,1,0-.63,0" transform="translate(-0.26)"/><path class="h" d="M11.42,10.56a4.79,4.79,0,0,0-3.82,4.7c.09,2.41,2.62,3.38,4.56,3.56s4.43-.06,6-1.29a3.56,3.56,0,0,0,.29-5.09c-1.63-1.86-4.79-2.31-7.06-1.88m2.4,7.6c-1.93.13-5.52-.24-5.59-3A4.14,4.14,0,0,1,9.83,12a5,5,0,0,1,3.45-.85c2.1.14,5,.73,5.46,3.32C19.24,17.35,15.89,18,13.82,18.16Z" transform="translate(-0.26)"/><path class="h" d="M21.09,9.43a1,1,0,0,0,1.21-.95c.07-1-1.16-2.35-2.05-3.29A.3.3,0,0,0,20,4.76l.08-.13a5.47,5.47,0,0,0,.26-1.29,3.1,3.1,0,0,0,0-1.25C20,.47,17.69.38,16.41.28a26.13,26.13,0,0,0-5.23.1C9.79.54,7.47.51,7.33,2.47a5,5,0,0,0,.11,1.27c0,.15.08.51.16.83h0c-.39.1-.23.44,0,.6l0,0C7,5.84,6.32,6.33,5.78,7s-1.1,1.46-.44,2.1a1,1,0,0,0,1.26,0,12,12,0,0,0-.83,2.33,17.42,17.42,0,0,0-.5,4.88c.06,1.48.2,3.36,1.22,4.49s2.63,1.35,4,1.51a31.32,31.32,0,0,0,5.12.18,10.65,10.65,0,0,0,4.64-1.09c1.25-.72,1.57-2.22,1.7-3.6A25.27,25.27,0,0,0,21.73,12a10.87,10.87,0,0,0-.64-2.57M8,2.38a1.12,1.12,0,0,1,.64-.86,7.16,7.16,0,0,1,2.51-.47A27.3,27.3,0,0,1,16.54.94h-.08A7.31,7.31,0,0,1,19,1.45c.79.37.86,1,.71,1.87a10.4,10.4,0,0,0-.25,1.47l-.33.08c-.29.07-.57.16-.79.2-.55.1-1.1.2-1.65.27s-.92.1-1.38.13a5.91,5.91,0,0,0,1.92-1.3c.5-.56.76-2.13-.39-2a4,4,0,0,0-2.27,1.69,6.49,6.49,0,0,0-.64,1A9,9,0,0,0,13.55,4c-.37-.75-1-2-2-1.87s-.93,1.35-.42,2a5.85,5.85,0,0,0,1.72,1.36,23.38,23.38,0,0,1-2.69-.24l-.5-.09c-.26,0-.51-.11-.76-.18s-.42-.18-.67-.28A11.41,11.41,0,0,0,8,3,2.74,2.74,0,0,1,8,2.38ZM14.54,5A4.48,4.48,0,0,1,15,4.39c.23-.29,1.23-1.61,2-1.56.42.12-.16.86-.27,1A6.38,6.38,0,0,1,14.54,5Zm-1.28-.09A4.62,4.62,0,0,1,11.5,3.57c-.18-.28-.26-.8.23-.76C12.49,3,13,4.28,13.26,4.94ZM5.9,8.65C5,8.39,7.47,6.17,7.76,5.87a3.16,3.16,0,0,0,.36-.41,8.35,8.35,0,0,0,1,.26,16.32,16.32,0,0,0,3.12.37l.95,0a4.78,4.78,0,0,1-1,1.18c-.16.15-.42.29-.32.56s.33.21.51.12a3.79,3.79,0,0,0,1.29-1.48c0-.09.11-.2.16-.33a3.35,3.35,0,0,0,.62.76c.26.23,1.22,1,1.54.68S15.6,7.09,15,6.47c-.07-.08-.17-.22-.28-.37a27.6,27.6,0,0,0,4.14-.46c.17,0,.61,0,.95-.12a9.24,9.24,0,0,1,1.37,1.6c.23.35.85,1.17.44,1.59s-.74.14-1.13-.11l-.19-.13c-.22-.16-.41-.32-.54-.42-.48-.37-1.17-1-1.81-.7s-.35,1.46-1,1.79c-.77.42-1-.77-1.33-1.2s-1.16-.88-1.52-.13c-.28.58-.22,1.31-.89,1.61s-1.15-.29-1.36-.89-.53-1.17-1.25-1.13a1.86,1.86,0,0,0-1,.43c-.3.23-.67.78-1.05.88-.56.14-.47-.74-.78-1C7.24,7.23,6.52,8.83,5.9,8.65Zm15.48,8.83a4.5,4.5,0,0,1-1,3,6,6,0,0,1-2.88,1.08,17.33,17.33,0,0,1-3.52.25c-1.17,0-2.33-.11-3.49-.23a6.42,6.42,0,0,1-3.11-.9c-1-.76-1.26-2.14-1.4-3.37a16.56,16.56,0,0,1,.09-4.22c.06-.41.25-1.37.42-2,.11-.35.22-.7.35-1.05A10.37,10.37,0,0,0,7.52,8.7V8.63a1.21,1.21,0,0,0,.81.75c.5.06.92-.39,1.26-.7S10.25,8,10.65,8s.52.47.66.86A1.6,1.6,0,0,0,13.52,10a2.07,2.07,0,0,0,.91-1.12c.07-.21.1-.8.3-.85s.64.85.76,1a1.3,1.3,0,0,0,1.16.79,1.11,1.11,0,0,0,1-.6c.16-.29.17-1.08.42-1.25.5-.34,1.6.87,2,1.12l.2.11a5.91,5.91,0,0,1,.49,1.25A18,18,0,0,1,21.3,14,22.74,22.74,0,0,1,21.38,17.48Z" transform="translate(-0.26)"/><rect class="a" x="4.43" width="17.7" height="22.52"/><path class="i" d="M13.49,11.12a8.57,8.57,0,0,0-1,.07,9.59,9.59,0,0,0-1,.2,6.27,6.27,0,0,0-.89.33,5.85,5.85,0,0,0-.78.44,4.34,4.34,0,0,0-.64.54,3.44,3.44,0,0,0-.48.62,2.41,2.41,0,0,0-.29.66,2.47,2.47,0,0,0,0,1.39,2.62,2.62,0,0,0,.29.67,3.38,3.38,0,0,0,.48.61,4.34,4.34,0,0,0,.64.54,5.85,5.85,0,0,0,.78.44,6.27,6.27,0,0,0,.89.33,7.42,7.42,0,0,0,1,.2,6.86,6.86,0,0,0,1,.07,6.63,6.63,0,0,0,1-.07,7.23,7.23,0,0,0,1-.2,6.27,6.27,0,0,0,.89-.33,5.85,5.85,0,0,0,.78-.44,4.92,4.92,0,0,0,.64-.54,3.38,3.38,0,0,0,.48-.61,3,3,0,0,0,.29-.67,2.47,2.47,0,0,0,0-1.39,2.76,2.76,0,0,0-.29-.66,3.44,3.44,0,0,0-.48-.62,4.92,4.92,0,0,0-.64-.54,5.85,5.85,0,0,0-.78-.44,6.27,6.27,0,0,0-.89-.33,9.23,9.23,0,0,0-1-.2A8.26,8.26,0,0,0,13.49,11.12Z" transform="translate(-0.26)"/><path class="j" d="M10.28,15.51a0,0,0,0,1,0,0,3.56,3.56,0,0,1,1.34-1.88.76.76,0,0,1,.2-.06c.1,0,.14,0,.15.14v0a2.18,2.18,0,0,1-.52,1,2.55,2.55,0,0,1-1.12.81ZM9.79,17a.13.13,0,0,0,.09,0,1,1,0,0,0,.07-.23l.18-.83a.24.24,0,0,1,0-.08.25.25,0,0,1,0-.07,2,2,0,0,1,.32.11l.17.07.17.07a.87.87,0,0,0,.32.06,1.22,1.22,0,0,0,.7-.25l.56-.44a.18.18,0,0,0,.08-.09.11.11,0,0,0,0-.06s0-.07,0-.07h0l-.05,0-.28.24-.29.23a1.13,1.13,0,0,1-.67.25.51.51,0,0,1-.21,0,2.58,2.58,0,0,1-.46-.18s0,0,0,0,0,0,0,0,0,0,.05,0l0,0a3.11,3.11,0,0,0,1.34-1.37,1.75,1.75,0,0,0,.12-.32.7.7,0,0,0,0-.29.21.21,0,0,0-.2-.19c-.59,0-1.14.76-1.41,1.28a.17.17,0,0,1,0-.14l0-.12c.11-.45.23-.9.34-1.35a.18.18,0,0,0,0-.14s0-.05,0-.05h0s0,0,0,0a.54.54,0,0,0-.05.11l0,.11c-.12.53-.25,1-.39,1.56-.07.24-.13.49-.19.74a4.75,4.75,0,0,1-.23.73,1.85,1.85,0,0,0-.12.62.22.22,0,0,0,0,.14A.1.1,0,0,0,9.79,17Z" transform="translate(-0.26)"/><path class="j" d="M12.47,15.45h0a0,0,0,0,1,0,0c.06-.17.24-.44.42-.47,0,0,.05,0,.05,0S12.61,15.37,12.47,15.45Zm0,.68c.38,0,.94-.57,1.2-.85l0,0a.08.08,0,0,0,0-.09h-.08l-.05,0-.06.05-.19.18c-.06.06-.12.13-.19.19a1.41,1.41,0,0,1-.62.37c-.1,0-.16,0-.18-.13a.32.32,0,0,1,0-.19.06.06,0,0,1,.05-.05A.91.91,0,0,0,13,15c0-.13-.06-.21-.17-.21h0c-.28,0-.49.43-.59.69a.69.69,0,0,0,0,.25.42.42,0,0,0,0,.19A.26.26,0,0,0,12.51,16.13Z" transform="translate(-0.26)"/><path class="j" d="M13.83,16.13h0a1.49,1.49,0,0,0,.7-.26c.26-.18.5-.39.74-.59l0,0,0,0a.14.14,0,0,0,0-.09s0,0-.05,0l0,0,0,0-.05,0-.28.22-.27.23a1.91,1.91,0,0,1-.72.34h-.06c-.21,0-.3-.12-.24-.36A1.23,1.23,0,0,1,14,15a.22.22,0,0,1,.15-.08.1.1,0,0,1,.1.11.24.24,0,0,1,0,.2l0,0a.07.07,0,0,0,0,.06,0,0,0,0,0,0,0h0l.05,0a.46.46,0,0,0,.1-.39c0-.11-.14-.17-.24-.17a.29.29,0,0,0-.2.08,1.54,1.54,0,0,0-.45.78.24.24,0,0,0,0,.09A.36.36,0,0,0,13.83,16.13Z" transform="translate(-0.26)"/><path class="j" d="M15.29,15.45h0a0,0,0,0,1,0,0c.06-.17.25-.44.42-.47s.05,0,.05,0S15.43,15.37,15.29,15.45Zm.05.68c.37,0,.93-.57,1.19-.85l0,0a.08.08,0,0,0,0-.09h-.08l-.05,0-.06.05-.18.18-.2.19a1.36,1.36,0,0,1-.62.37c-.1,0-.16,0-.18-.13a.32.32,0,0,1,0-.19.08.08,0,0,1,.05-.05.89.89,0,0,0,.64-.62c0-.13-.06-.21-.16-.21h0c-.28,0-.49.43-.58.69a.53.53,0,0,0,0,.25.42.42,0,0,0,0,.19A.26.26,0,0,0,15.34,16.13Z" transform="translate(-0.26)"/><path class="j" d="M16.92,14.37a.14.14,0,0,1,0-.11,4.2,4.2,0,0,1,.37-.77s0-.05.05-.05h0l-.15.3-.31.62h0Zm-.43,2.28c.1,0,.28-.19.34-.28l.35-.49.34-.47.08-.14a.08.08,0,0,0,0-.07,0,0,0,0,0,0-.06h0s-.09.09-.1.12c-.24.33-.52.73-.77,1.06,0,0-.13.17-.18.17a0,0,0,0,1,0-.05.74.74,0,0,1,0-.33,3.27,3.27,0,0,1,.3-1.24,6.79,6.79,0,0,0,.8-1.62.09.09,0,0,0-.05-.11h0l-.08,0a5.08,5.08,0,0,0-.83,1.72,1,1,0,0,1-.15.34s0,.06,0,.09a.17.17,0,0,1,0,.18,3.52,3.52,0,0,0-.09.76v.18C16.33,16.51,16.38,16.65,16.49,16.65Z" transform="translate(-0.26)"/><g class="k"><path class="l" d="M5,15.55c-.06-.09-.13-.17-.19-.25s-.15-.24-.21-.36a6,6,0,0,1-.36-.77,0,0,0,0,0-.05,0,1,1,0,0,0-.27.19H4c.13.26.29.51.44.76-.05,0,0,.14,0,.21l.3.44h0s0,0,0,0v0a1.78,1.78,0,0,0,.54-.21A.49.49,0,0,0,5,15.51s0,0,0,0" transform="translate(-0.26)"/><path class="m" d="M9.37,19.35A4.88,4.88,0,0,0,8.94,17,3.16,3.16,0,0,0,7.4,15.55a2.69,2.69,0,0,0-2.19,0h0a1.78,1.78,0,0,1-.54.21l0,.05v0h0a0,0,0,0,0,0,0h0s0,0,0,0a1.83,1.83,0,0,0-.91,1.31s0,0,0,0a3.11,3.11,0,0,0-2.08.63,3.92,3.92,0,0,0-1.18,4,3,3,0,0,0,1.18,1.74,2.82,2.82,0,0,0,1.8.44A3,3,0,0,0,3.92,24s0,0,0,0H4a3.92,3.92,0,0,0,2-1.69,2,2,0,0,0,1.14.14A2.39,2.39,0,0,0,8.21,22a3,3,0,0,0,1.08-1.89l0,0h0a1.87,1.87,0,0,0,0-.25v0l.05,0s0,0,0,0l-.05,0a1.5,1.5,0,0,0,0-.2l0,0s0,0,0,0l0,0a1.09,1.09,0,0,0,0-.18.05.05,0,0,0,0,0,0,0,0,0,0,0,0h0" transform="translate(-0.26)"/><path class="n" d="M4.58,17.83a2.69,2.69,0,0,0-2.86.24A3.79,3.79,0,0,0,.61,21.66,2.31,2.31,0,0,0,2,23.26c2.33.43,3.53-1.69,3.84-2.58a2.55,2.55,0,0,0-1.28-2.85" transform="translate(-0.26)"/><path class="o" d="M5.15,19.17,5,18.85c-.12-.32-.57-.51-.92-.62a.86.86,0,0,0-.48-.05s-.09-.16-.52-.24c-1.06-.14-1.25.62-1.25.62v.1c-.24-.13-.64.27-.85.73s-.15.81,0,.91c-.22,0-.29.38-.29.86a1.63,1.63,0,0,0,.4,1,2.06,2.06,0,0,0,.41.49c.61.32,1.23.32,1.18.13.24.27.52.13.92-.08s.27-.43.27-.43H4c.35.38,1.09-1.18,1.25-1.37s0-.46,0-1a2.54,2.54,0,0,0-.1-.7" transform="translate(-0.26)"/><path class="p" d="M3.43,19.67a.09.09,0,0,0-.1.06.58.58,0,0,0,0,.57.09.09,0,0,0,.15,0,.08.08,0,0,0,.08-.05.37.37,0,0,0,0-.11.33.33,0,0,0,0-.43.16.16,0,0,0-.17,0" transform="translate(-0.26)"/><path class="p" d="M4.22,18.79a.2.2,0,0,0-.09-.09c-.21-.05-.25.19-.23.4,0,0,0,0,0,.06s0,.07,0,.11a.1.1,0,0,0,.08.12.07.07,0,0,0,.06,0H4a.11.11,0,0,0,0,.05s.07.09.11,0a.3.3,0,0,0,.1-.2.55.55,0,0,0,.1-.22c0-.11,0-.25-.12-.28" transform="translate(-0.26)"/><path class="p" d="M5,19.21l-.1,0,0,0H4.78a.16.16,0,0,0-.12.09h0c-.11.06-.19.15-.15.28s.43.1.46-.09v0l.08,0c.09-.05,0-.22-.06-.22" transform="translate(-0.26)"/><path class="p" d="M2.58,18.34c0-.1,0-.23-.11-.27s-.16,0-.19.15a.51.51,0,0,0,0,.4c0,.05.06.07.1.05a.56.56,0,0,0,0,.12c.05.12.23,0,.19-.09a.87.87,0,0,1,0-.36" transform="translate(-0.26)"/><path class="p" d="M1.46,19.8c-.09-.05-.2-.12-.3-.09H1.05s0,0,0,0a.09.09,0,0,0,0,.1.05.05,0,0,0,0,0H1s0,0,0,0l.06,0a.27.27,0,0,0,.15,0s0,0,.05,0l.06,0c.1,0,.17-.14.07-.19" transform="translate(-0.26)"/><path class="p" d="M2.37,19.61a.86.86,0,0,0-.13-.39.12.12,0,0,0-.16,0h0s0,0,0-.06a.1.1,0,0,0-.17-.05.39.39,0,0,0,.06.54.06.06,0,0,0,.07,0v0a.13.13,0,0,0,.15,0l0,0,.06,0a.08.08,0,0,0,.1,0,.11.11,0,0,0,0-.11v0" transform="translate(-0.26)"/><path class="p" d="M1.14,20.73A.5.5,0,0,0,1,21a.22.22,0,0,0,0,.08v.07a.08.08,0,0,0,.14,0,.15.15,0,0,0,.13-.06l0-.05s0,0,0,0V21h0v0s0-.05,0-.06h0l0-.05c.06-.11-.07-.2-.14-.13" transform="translate(-0.26)"/><path class="p" d="M1.73,20.31s0,0,0,0l-.14.06a.14.14,0,0,0,0,.19.3.3,0,0,0,.08.08.24.24,0,0,0,.11.06.44.44,0,0,0,.51-.14c.24-.32-.36-.51-.52-.28" transform="translate(-0.26)"/><path class="p" d="M2,21.45a.21.21,0,0,0-.22.06.08.08,0,0,0-.09,0,.49.49,0,0,0-.08.23h0a.13.13,0,0,0,0,.06h0v0a1.6,1.6,0,0,0,.05.21.38.38,0,0,0,.09.19A.11.11,0,0,0,2,22.18l0,0c.09-.15.32-.62.06-.7" transform="translate(-0.26)"/><path class="p" d="M1.45,21.58c0-.08-.17-.1-.19,0l-.1.3a.08.08,0,0,0,.12.09.1.1,0,0,0,.16,0c0-.07.07-.15.1-.23a.1.1,0,0,0-.09-.14" transform="translate(-0.26)"/><path class="p" d="M2.48,22s0,0,0,0a.75.75,0,0,0-.1.2c0,.1,0,.22.1.25s.22-.05.31-.11.44-.31.27-.51-.45,0-.56.13" transform="translate(-0.26)"/><path class="p" d="M3,20.8a.22.22,0,0,0-.31-.1c-.14.1-.06.32,0,.46s.09.33.26.29a.05.05,0,0,0,0,0A.11.11,0,0,0,3,21.32c0-.17.07-.36,0-.52" transform="translate(-0.26)"/><path class="p" d="M4.3,20.67c-.09,0-.24-.05-.31,0a.2.2,0,0,0,0,.13.1.1,0,0,0,0,.09H4l0,0,0,0c.1.1.21.22.36.17a.27.27,0,0,0,.13-.4.26.26,0,0,0-.23-.09" transform="translate(-0.26)"/><path class="p" d="M4.61,20l-.29.08c-.08,0-.16.06-.16.16a.1.1,0,0,0,0,.08.2.2,0,0,0,.07.06s.08,0,.08-.08h.08a.25.25,0,0,0,.32-.11A.13.13,0,0,0,4.61,20" transform="translate(-0.26)"/><path class="p" d="M3.2,18.73A.17.17,0,0,0,3,18.8c-.08,0-.15.1-.15.19a1.31,1.31,0,0,0,.15.52.09.09,0,0,0,.17,0c.08-.16.3-.67.05-.78" transform="translate(-0.26)"/><path class="p" d="M5,20.68a.14.14,0,0,0-.09-.12.09.09,0,0,0-.11.07.11.11,0,0,0,0,.1s0,.08,0,.12a.11.11,0,0,0,.1.11h0l0,0c0,.08.14.16.23.11a.19.19,0,0,0,0-.28A.48.48,0,0,0,5,20.68" transform="translate(-0.26)"/><path class="p" d="M4.72,21.16a.29.29,0,0,0-.22.32.35.35,0,0,0-.11.15c0,.07,0,.18.1.15a.75.75,0,0,0,.36-.48.11.11,0,0,0-.13-.14" transform="translate(-0.26)"/><path class="p" d="M3.92,21.7a.48.48,0,0,0-.27-.2c-.08,0-.15.09-.11.17v.09a.57.57,0,0,0,0,.18.19.19,0,0,0,.17.14.08.08,0,0,0,.09,0A.27.27,0,0,0,4,21.73a.05.05,0,0,0,0,0" transform="translate(-0.26)"/><path class="p" d="M3.36,22.26a.1.1,0,0,0-.16,0,1.09,1.09,0,0,0-.06.51c0,.07.06.14.12.11a.41.41,0,0,0,.24-.27.38.38,0,0,0,0-.36.11.11,0,0,0-.11,0" transform="translate(-0.26)"/><path class="q" d="M3.51,19.89a.07.07,0,0,0-.06,0h0a.05.05,0,0,0,0,.08v0h0a.07.07,0,0,0,.09.06.08.08,0,0,0,.05-.1.09.09,0,0,0-.05-.08" transform="translate(-0.26)"/><path class="q" d="M4.17,18.86a.08.08,0,0,0,0-.1s-.07,0-.09,0H4l0,0s0,0,0,.05A.24.24,0,0,0,4,19a.08.08,0,0,0,.1.07.09.09,0,0,0,.07-.1v0h0v0h0v0" transform="translate(-0.26)"/><path class="q" d="M3.15,18.73c-.07-.05-.18,0-.13.12s0,0,0,0a.13.13,0,0,1,0,.06.28.28,0,0,0,.06.15c0,.07.14,0,.14-.07a.29.29,0,0,0,0-.16.27.27,0,0,0-.07-.13" transform="translate(-0.26)"/><path class="q" d="M2.54,18.3a.22.22,0,0,0-.11-.05c-.07,0-.13.07-.09.14h0a.05.05,0,0,0,0,.07s0,0,0,0l.05,0s.09,0,.11-.06a.12.12,0,0,0,0-.13" transform="translate(-0.26)"/><path class="q" d="M2.14,19.26a.2.2,0,0,0-.2,0,.06.06,0,0,0,0,.12s.07,0,.09.06,0,.09.08.12a.08.08,0,0,0,.11,0c0-.09,0-.18-.09-.24" transform="translate(-0.26)"/><path class="q" d="M2,20.38v0s0,0,0,0a.13.13,0,0,0-.21.05h0a.09.09,0,0,0,.07.13H2s0,0,0-.06a.08.08,0,0,0,0-.07l0,0" transform="translate(-0.26)"/><path class="q" d="M1.28,19.77h0a.08.08,0,0,0-.08,0,.11.11,0,0,0-.07,0,.07.07,0,0,0,0,.08.05.05,0,0,0,.07,0h0s0,0,0,0H1.2a.05.05,0,0,0,.07,0h0a.08.08,0,0,0,.05-.07.08.08,0,0,0-.05-.08" transform="translate(-0.26)"/><path class="q" d="M1.07,21a.14.14,0,0,0-.08.07c0,.05,0,.11,0,.14v0a0,0,0,0,0,.07,0h0l0,0h0s0,0,0,0h0v0a.07.07,0,0,0-.1-.06" transform="translate(-0.26)"/><path class="q" d="M2.8,22.09h0" transform="translate(-0.26)"/><path class="q" d="M2.89,21.9H2.81A.16.16,0,0,0,2.7,22a.11.11,0,0,0,0,.08s0,.05.07,0h0a0,0,0,0,0,0,0h.09a.09.09,0,0,0,.06,0A.09.09,0,0,0,3,22a.09.09,0,0,0-.06-.06" transform="translate(-0.26)"/><path class="q" d="M2.08,21.87h0v0a.06.06,0,0,0,0,0v0s0,0,0-.05a.08.08,0,0,0-.1,0,.11.11,0,0,0,0,.12l0,0s0,0,0,0l0,0s.09,0,.07-.06h0" transform="translate(-0.26)"/><path class="q" d="M3.75,21.63a.11.11,0,0,0,0,.11s0,0,0,0,0,0,0,0a.06.06,0,0,0,.08,0s0,0,0,0,0,0,0,0a.11.11,0,0,0,0-.11.07.07,0,0,0-.1,0" transform="translate(-0.26)"/><path class="q" d="M3.4,22.3H3.33a.1.1,0,0,0-.08.09.08.08,0,0,0,.08.09H3.4s0,0,0,0a.06.06,0,0,0,0-.06.08.08,0,0,0,0-.05l0,0" transform="translate(-0.26)"/><path class="q" d="M4.43,20.8a.13.13,0,0,0-.12,0,.23.23,0,0,0-.07.1.08.08,0,0,0,0,.08h0a0,0,0,0,0,0,0h0s0,0,0,0,0,0,0,0h0c.1,0,.12-.16,0-.19" transform="translate(-0.26)"/><polyline class="q" points="2.7 20.95 2.7 20.95 2.7 20.95"/><path class="q" d="M3,21H3v0H3a.12.12,0,0,0-.05-.1.08.08,0,0,0-.08,0l0,0a.05.05,0,0,0,0,0,.09.09,0,0,0,0,.05l0,.08a.15.15,0,0,0,.11.08A.08.08,0,0,0,3,21,.07.07,0,0,0,3,21" transform="translate(-0.26)"/><path class="q" d="M4.62,20s0,0-.06,0h0a.11.11,0,0,0,0,.09.08.08,0,0,0,.07.09.12.12,0,0,0,.09-.05h0s0,0,0-.06a.08.08,0,0,0,0,0l0,0" transform="translate(-0.26)"/><path class="q" d="M5,19.19H5a.07.07,0,0,0-.09,0,.11.11,0,0,0,0,.11h0l0,0h0s0,0,0,0l0,0s0,0,0,0a.17.17,0,0,0,0-.07.08.08,0,0,0,0,0" transform="translate(-0.26)"/><path class="q" d="M5.09,20.73s0,0-.08,0a.07.07,0,0,0,0,.08H5a.05.05,0,0,0,.08,0,.06.06,0,0,0,0-.1h0" transform="translate(-0.26)"/><path class="q" d="M4.67,21.31a.1.1,0,0,0-.06.13.09.09,0,0,0,.12,0s.13-.1.08-.17-.11,0-.14,0" transform="translate(-0.26)"/><path class="r" d="M1.83,18.78l-.06-.05a.08.08,0,0,0-.12,0,.38.38,0,0,0-.1.34.08.08,0,0,0,.08.06l0,0a.08.08,0,0,0,.12,0,.11.11,0,0,0,0-.14s0,0,0,0l0,0c.06.07.18,0,.15-.1a.2.2,0,0,0-.13-.14" transform="translate(-0.26)"/><path class="r" d="M2.38,19.05c-.07-.1-.19-.23-.31-.22s0,0,0,0l0,0A.09.09,0,0,0,2,19a.81.81,0,0,0,.18.26l.23.29c0,.07.15,0,.13-.09a1,1,0,0,0-.18-.4" transform="translate(-0.26)"/><path class="r" d="M1.7,19.6v0a0,0,0,0,0,.06,0,.12.12,0,0,0,0-.17c0-.05-.12,0-.19,0h0a.17.17,0,0,0-.08-.13.56.56,0,0,0-.15-.1c-.08,0-.14.1-.08.17a.65.65,0,0,0,.15.12l0,.06a.17.17,0,0,0,0,.1v0a.29.29,0,0,0,0,.09c0,.09.15.11.18,0a.13.13,0,0,0,0,.06c0,.1.08.2.18.22a.08.08,0,0,0,.1-.09.43.43,0,0,0-.07-.25,0,0,0,0,0-.06,0" transform="translate(-0.26)"/><path class="r" d="M1.41,20.11a.29.29,0,0,1-.13-.05.11.11,0,0,0-.12,0,.24.24,0,0,0-.12,0,.11.11,0,0,0,0,.17.06.06,0,0,0,.08,0h.22l.05,0s.09,0,.1,0a.11.11,0,0,0,0-.08.09.09,0,0,0-.06-.07" transform="translate(-0.26)"/><path class="r" d="M2.25,20.74c-.12,0-.22.1-.32.16S1.7,21,1.59,21a.78.78,0,0,0-.22-.54c-.06-.07-.15-.16-.24-.14a.1.1,0,0,0-.09.13.08.08,0,0,0,0,.05h0s0,0,0,0h0l0,0s.07,0,.09,0a.91.91,0,0,1,.11.16c.06.11.06.29.15.37l.05,0a.08.08,0,0,0,.05.05l-.05,0a.06.06,0,0,0,0,.09c.1,0,.2,0,.31,0s.17.13.27.13a.05.05,0,0,0,0-.06c0-.16-.15-.26-.32-.28L2,21.1c.11-.06.25-.13.29-.28a.06.06,0,0,0,0-.08" transform="translate(-0.26)"/><polyline class="r" points="0.87 20.61 0.87 20.61 0.87 20.61"/><path class="r" d="M1.82,22.41l-.05,0H1.68a.13.13,0,0,0-.15.14c0,.1.09.13.15.08h.23A.11.11,0,0,0,2,22.51a.19.19,0,0,0-.17-.1" transform="translate(-0.26)"/><path class="r" d="M2.48,21.8c-.2,0-.35.29-.28.49s.16.07.15,0A.24.24,0,0,1,2.5,22c.09,0,.08-.19,0-.19" transform="translate(-0.26)"/><path class="r" d="M2.66,21.4l-.06,0a.14.14,0,0,1,0-.07V21.2s0-.08,0-.12a0,0,0,0,0,0,0,.61.61,0,0,0-.07.1s-.07,0-.08.06a.36.36,0,0,0,.18.38h0c.1.05.18-.16.08-.21" transform="translate(-0.26)"/><path class="r" d="M2.94,20.53s0,0,0,0a1.3,1.3,0,0,1,.22.46,2.17,2.17,0,0,1,0,.26.41.41,0,0,0,0,.22.06.06,0,0,0,.08,0c.15-.09.1-.42,0-.57a.67.67,0,0,0-.32-.44" transform="translate(-0.26)"/><path class="r" d="M3.78,20.58a.37.37,0,0,0-.33.21c-.06.1-.13.31,0,.38h.08a.06.06,0,0,0,0-.08v0a.28.28,0,0,1,0-.13.27.27,0,0,1,.22-.13c.1,0,.07-.21,0-.21" transform="translate(-0.26)"/><path class="r" d="M4.44,19.57h0a.09.09,0,0,0-.08-.06.22.22,0,0,0,.06-.2.07.07,0,0,0-.1-.06s-.06.07-.09.11a.49.49,0,0,1-.13.12l-.15.07a.1.1,0,0,0,0,.09l0,0a2.44,2.44,0,0,1-.07-.39.06.06,0,0,0-.1,0c-.18.23,0,.84.32.77a0,0,0,0,0,0-.05A.45.45,0,0,0,4,19.77l-.09-.12h0a.26.26,0,0,0,.31-.05v.06a.18.18,0,0,0,.09.1H4.4l0,0a.11.11,0,0,0,0-.12.1.1,0,0,0,0-.05" transform="translate(-0.26)"/><path class="r" d="M2.76,19.07s0,0,0,0-.06.23,0,.33.07.3.19.31a.05.05,0,0,0,0,0c.05-.11,0-.21-.07-.32s0-.23-.11-.28" transform="translate(-0.26)"/><path class="r" d="M3.28,18.29a.11.11,0,0,0-.08,0c-.06-.08-.14-.16-.23-.15a.08.08,0,0,0-.06.08.09.09,0,0,0-.06,0c-.05,0-.09.05-.07.1a1.48,1.48,0,0,0,.13.21c0,.07.07.15.14.18a.06.06,0,0,0,.08,0c.05.07.15.07.17,0a.33.33,0,0,0,0-.14c.1,0,.21,0,.23-.11s-.18-.09-.25-.1" transform="translate(-0.26)"/><path class="r" d="M4.29,18.49s-.12,0-.09.07a.57.57,0,0,0,.11.11.46.46,0,0,1,.08.24c0,.14,0,.32,0,.44h.06c.18-.1.09-.54,0-.7s-.12-.17-.21-.16" transform="translate(-0.26)"/><path class="r" d="M4.25,20.35a.48.48,0,0,1-.09-.11c0-.08-.13,0-.13,0a.28.28,0,0,0,.13.24c.06,0,.2.08.24,0a.08.08,0,0,0,0-.08c0-.05-.09-.05-.14-.07" transform="translate(-0.26)"/><path class="r" d="M4.42,21.26H4.36a.31.31,0,0,0-.13.08l0,0c-.09-.09-.42-.2-.37-.39s0-.07-.07,0a.19.19,0,0,0-.08.19.33.33,0,0,0,.11.22c.07.07.16.1.23.16a.43.43,0,0,1,.12.22s0,0,0,0,.11-.11.1-.2a.21.21,0,0,0,.14-.15.13.13,0,0,0,0-.06s0,0,0,0" transform="translate(-0.26)"/><path class="r" d="M2.94,22.2a.62.62,0,0,0-.22.35c0,.1.07.16.13.11s0,.1.1.11a.07.07,0,0,0,.09,0c0-.06,0-.12,0-.19a.29.29,0,0,1,0-.18c0-.09-.05-.23-.14-.16" transform="translate(-0.26)"/><path class="r" d="M1.19,21.25c-.07,0-.14.05-.19.07s0,0,0,0a.11.11,0,0,0,0,.08.47.47,0,0,0,.05.33.09.09,0,0,0,.16-.07l-.06-.17v0a.17.17,0,0,0,.17-.13.09.09,0,0,0-.07-.11" transform="translate(-0.26)"/><path class="s" d="M2,18.53a.68.68,0,0,0,0-.14c0-.06-.09-.1-.13,0a.24.24,0,0,0,0,.22h0a0,0,0,0,0,0,.07c0,.08.12.12.18.15a.1.1,0,0,0,.11-.16A.24.24,0,0,1,2,18.53" transform="translate(-0.26)"/><path class="s" d="M3.56,18.08a.2.2,0,0,0-.12.06c0-.14,0-.28-.16-.32s-.21.06-.16.17H3.07c-.15,0-.32-.06-.47-.09a.1.1,0,0,0-.12.1.17.17,0,0,0,.15.17.11.11,0,0,0,0,.07.21.21,0,0,0,.25,0s0,0,0,0a.64.64,0,0,1,.18.06.1.1,0,0,0,.15-.09A.16.16,0,0,0,3.2,18s0,0,0,0h0l0,0a.08.08,0,0,1,.08,0s0,.07.06.11a1.1,1.1,0,0,0,0,.31.1.1,0,0,0,.16,0c.06-.06.16-.12.17-.22s0-.12-.07-.12" transform="translate(-0.26)"/><path class="s" d="M4.38,18.33a.06.06,0,0,0-.06.05,1,1,0,0,0-.27-.17c-.09,0-.23,0-.28.08a0,0,0,0,0,0,.05c.08,0,.17,0,.26.08s.16.1.25.14a1,1,0,0,1,.29.21.5.5,0,0,1,.11.34c0,.08.11.15.16.08a.41.41,0,0,0,0-.47c-.1-.15-.24-.36-.42-.39" transform="translate(-0.26)"/><path class="s" d="M1.53,18.76l-.06.12A.22.22,0,0,0,1.3,19a.41.41,0,0,0-.09.26h0s0,0-.05,0L1,19.52a.88.88,0,0,0-.14.23.11.11,0,0,0,0,.1s-.05,0-.05.08,0,.09,0,.14a.53.53,0,0,0,0,.12h0a.07.07,0,0,0,0,.1l0,0a0,0,0,0,0,0,0s0,0,0,0a.17.17,0,0,0,0-.07s0,0-.05-.05a.35.35,0,0,0,0-.11.68.68,0,0,0,0-.14.06.06,0,0,0,0-.06H1a1.12,1.12,0,0,0,.17-.21,2.13,2.13,0,0,1,.16-.25.09.09,0,0,0,0-.1l0,0a.61.61,0,0,1,.07-.14c.06,0,.11-.06.15-.1a1.18,1.18,0,0,0,.11-.19c0-.1-.09-.19-.14-.08" transform="translate(-0.26)"/><path class="s" d="M.92,20.51a.08.08,0,0,0-.1,0,2.07,2.07,0,0,0-.1.43c0,.12,0,.27,0,.36a.06.06,0,0,0,.09,0A.52.52,0,0,0,.9,21c0-.12,0-.25,0-.37a.06.06,0,0,0,0-.1h0" transform="translate(-0.26)"/><path class="s" d="M1.49,22.24l-.12-.13c-.06-.06-.17-.16-.25-.08a0,0,0,0,0,0,0,.23.23,0,0,0,.08.11.71.71,0,0,1,.1.14c.06.09.14.23.26.19a.1.1,0,0,0,.05-.14c0-.06-.08-.09-.12-.13" transform="translate(-0.26)"/><path class="s" d="M2.83,22.62s-.1-.12-.16-.08h0s-.1,0-.15,0a.21.21,0,0,0-.13.05c-.11.05-.19,0-.3,0s0,0,0,.07.23.2.35.17l.11,0h.12l.09,0,.05.07c.06.07.17.15.25.09a.11.11,0,0,0,0-.13c0-.07-.12-.09-.17-.14" transform="translate(-0.26)"/><path class="s" d="M4.41,21.82c-.07,0-.1.14-.17.19A.25.25,0,0,1,4,22c-.07,0-.12,0-.12.11s0,0-.05,0-.1.06-.12.11,0,.14-.06.2-.05.05-.09.05a.08.08,0,0,0-.06.1c0,.13.19.12.27,0a.61.61,0,0,0,.11-.4v0a.08.08,0,0,0,0,.05.4.4,0,0,0,.41,0c.1-.06.25-.23.17-.37a.06.06,0,0,0-.09,0" transform="translate(-0.26)"/><path class="s" d="M5.07,19.63a.5.5,0,0,1,0,.21A.88.88,0,0,1,5,20c0,.1,0,.18.06.23s0,0,0,0a1.48,1.48,0,0,0,.08-.13.63.63,0,0,0,.1-.2.46.46,0,0,0-.07-.38c-.05-.06-.14,0-.12.08" transform="translate(-0.26)"/><path class="s" d="M5.19,20.49s-.06-.09-.11-.07a.11.11,0,0,0-.07.13.47.47,0,0,1,0,.17s0,.06,0,.09a.09.09,0,0,0,.05.08s.07,0,.1,0,0-.13,0-.2a1.05,1.05,0,0,0,0-.19" transform="translate(-0.26)"/><path class="s" d="M2.65,20.57h0a.35.35,0,0,0-.06-.14l0-.05a.26.26,0,0,0,.08-.13.06.06,0,0,0,0-.07c-.1-.05-.31.05-.27.2s.08.1.11.15a.36.36,0,0,1,0,.23c0,.13.16.18.18,0l0,0,.06-.18a1.62,1.62,0,0,0,0-.22h0a.38.38,0,0,1-.07.21" transform="translate(-0.26)"/><path class="s" d="M3,18.31a.28.28,0,0,0,0,.13s0,0,0,0,0,.05,0,.07.08.06.09,0,0,0,0-.06a.13.13,0,0,0,0-.06.29.29,0,0,0,0-.13.07.07,0,0,0-.14,0" transform="translate(-0.26)"/><path class="t" d="M5.41,17.67a1.57,1.57,0,0,0-.38-.3,2.16,2.16,0,0,0-.51-.2l-.26-.07-.13,0H4c0-.07,0-.14-.1-.08s-.11.09-.07.18a.21.21,0,0,0,.14.12c.2.07.42.1.62.17a1.83,1.83,0,0,1,.53.29,1,1,0,0,1,.19.21.69.69,0,0,0,.19.19.06.06,0,0,0,.07-.05.51.51,0,0,0-.18-.41" transform="translate(-0.26)"/><path class="u" d="M6.12,18.22c0-.17-.22-.3-.34-.4a2.77,2.77,0,0,0-.45-.31l-.14-.07a2.36,2.36,0,0,0-.38-.22,1.13,1.13,0,0,0-.48-.11c-.12,0-.27,0-.37,0s0-.1,0-.16-.05-.09-.09-.06a.3.3,0,0,0-.11.19.19.19,0,0,0,0,.07v.09a.1.1,0,0,0,.15.1.51.51,0,0,0,.25.05h.11s0,0,0,0a4.26,4.26,0,0,1,.7.19l.09.07c.14.1.27.28.43.29a.05.05,0,0,0,0,0l.09.07a2.42,2.42,0,0,0,.33.31l.09.15a1.73,1.73,0,0,0,.16.3.05.05,0,0,0,.09-.05,1,1,0,0,0-.2-.49h0" transform="translate(-0.26)"/><path class="u" d="M7.38,20.86a1,1,0,0,1-.55-.65c-.07-.28-.19-.51-.28-.8A4,4,0,0,1,6.6,21a3.24,3.24,0,0,1-.48,1.09s0,0,0,.05a.09.09,0,0,0,0,.11.91.91,0,0,0,.47.16,1.81,1.81,0,0,0,.52,0,2.84,2.84,0,0,0,1.19-.59l0,0a2.88,2.88,0,0,0,.44-.48,4.16,4.16,0,0,1,.29-.56,2.48,2.48,0,0,1-1.67.17" transform="translate(-0.26)"/><path class="v" d="M8.1,16.37A4.54,4.54,0,0,0,7.28,16a1.89,1.89,0,0,0-.84-.38,1.29,1.29,0,0,0-.93.38A.78.78,0,0,0,5.5,17c.17.2.35.34.51.51a1.86,1.86,0,0,1,.39.51c.23.41.4.86.66,1.25A1.31,1.31,0,0,0,8.14,20c.91-.06,1-1.39.85-2.16a2.45,2.45,0,0,0-.89-1.43" transform="translate(-0.26)"/><path class="w" d="M3.57,17.38a.94.94,0,0,0-.64,0,4.92,4.92,0,0,0-.65.21,2.73,2.73,0,0,0-.55.25,1.32,1.32,0,0,0-.46.39s0,.08.05.06A5.09,5.09,0,0,1,1.79,18c.17-.09.35-.16.52-.24a2.68,2.68,0,0,1,.6-.21c.22,0,.44,0,.65-.06a0,0,0,0,0,0-.06" transform="translate(-0.26)"/><path class="w" d="M6,19.74a.28.28,0,0,0,0-.13c0-.1,0-.2,0-.3a3.28,3.28,0,0,0-.18-.61,1.7,1.7,0,0,0-.7-.89h0a1.19,1.19,0,0,0-.49-.27c-.12-.05-.26-.08-.39-.12a.92.92,0,0,0-.43-.08s0,.05,0,.07a.65.65,0,0,0,.35.15l.38.13a1.4,1.4,0,0,1,.33.15,3,3,0,0,0,.3.19h0l.29.43a.84.84,0,0,0,.27.32h0a3.58,3.58,0,0,1,.16.56c0,.1,0,.2,0,.3s0,.19,0,.29,0,0,0,0c0,.22,0,.43-.07.65s-.07.42-.12.63l-.39.52c-.13.17-.26.34-.4.5l-.31.26-.38.28a2.44,2.44,0,0,0-.24.1l-.3.15a2.52,2.52,0,0,1-.61.25,2.92,2.92,0,0,1-1,0,0,0,0,0,0,0,0c-.39-.2-.83-.26-1.12-.66A3.53,3.53,0,0,1,.45,21.2a2.86,2.86,0,0,1,.16-1.45,6.29,6.29,0,0,1,.32-.7,4.07,4.07,0,0,0,.3-.63s0-.06-.05,0a2,2,0,0,0-.32.48c-.1.19-.2.38-.29.58a3.41,3.41,0,0,0-.28,1.14A2.81,2.81,0,0,0,.52,21.8a3.35,3.35,0,0,0,.55,1,1.68,1.68,0,0,0,.78.47l0,0,.23.08s0,.06,0,.06a1.77,1.77,0,0,0,.56,0,1.45,1.45,0,0,0,.55,0,.07.07,0,0,0,0-.07,4.62,4.62,0,0,0,.47-.19.2.2,0,0,0-.06.09h0c.18,0,.38-.2.53-.31a.44.44,0,0,0,.18-.12v0l.36-.28a4.12,4.12,0,0,0,1-.95s0-.05,0,0l-.18.15a2.77,2.77,0,0,0,.22-.37h0A3,3,0,0,0,6,20.61a3.93,3.93,0,0,0,0-.84,0,0,0,0,0,0,0" transform="translate(-0.26)"/><path class="x" d="M4.45,17.61a.41.41,0,0,0-.23-.11,0,0,0,0,0,0,.07.54.54,0,0,0,.21.15,1.09,1.09,0,0,0,.25.1,0,0,0,0,0,0,0,1.81,1.81,0,0,0-.21-.18" transform="translate(-0.26)"/><path class="x" d="M5.59,21.58a.44.44,0,0,0-.18.12.58.58,0,0,0-.14.17c-.07.11.09.19.11.09l0,0,.1-.09a.51.51,0,0,0,.12-.2s0-.06,0-.05" transform="translate(-0.26)"/><path class="x" d="M4.52,22.76c-.06,0-.11.09-.17.14s0,.06,0,.08a.06.06,0,0,0,.08,0c.05-.05.11-.09.13-.16s0-.06,0-.06" transform="translate(-0.26)"/><path class="y" d="M7.47,16,7.31,16h0l-.1-.06a1.19,1.19,0,0,1,.29.12" transform="translate(-0.26)"/><path class="z" d="M8.68,17.6a0,0,0,0,0,0,0,.06.06,0,0,0,0,.06h0a0,0,0,0,0,0-.06,0,0,0,0,0,0,0m0,1.07s0,0,0,0h0v0h0v0h0a0,0,0,0,0,0,0m-.29.56s0,0,0,0h.05a0,0,0,0,0,0,0m.24,0h0v0h0a.07.07,0,0,0,0,0h0m-.42.58a.87.87,0,0,1-.62-.27c-.19-.2-.11-.36-.15-.63a2.66,2.66,0,0,0-.25-.83c-.22-.48-1.46-1.81-.49-2.19A1,1,0,0,1,7,15.86a.69.69,0,0,1,.2,0l.1.06h-.1a.48.48,0,0,0-.46.33c-.17.56,1,1.14,1.15,1.64a3.22,3.22,0,0,0,.14.44.36.36,0,0,0,.29.22h0c.16,0,.24-.26.26-.45a2.27,2.27,0,0,0-.53-1.63L8,16.4H8a2.08,2.08,0,0,1,.86,1.4,3.37,3.37,0,0,1-.2,1.79.49.49,0,0,1-.44.23" transform="translate(-0.26)"/><path class="aa" d="M4.85,19.21h0l0,0v0h0v0m-.94.42,0,0a.86.86,0,0,1-.05-.27.07.07,0,0,0,.07.06h0l.05,0H4a.11.11,0,0,0,0,.05.05.05,0,0,0,0,0,.52.52,0,0,0-.13.06.1.1,0,0,0,0,.09M2.46,22v0h0v0h0m1.41.1s0,0,0,0l0,0a.13.13,0,0,0,0,.06m-.11-3a0,0,0,0,0,0,0c-.17.22,0,.78.28.78H4a0,0,0,0,0,0-.05A.45.45,0,0,0,4,19.77l-.09-.12h0a.19.19,0,0,0,.1,0,.39.39,0,0,0,.21-.08v.06a.18.18,0,0,0,.09.1H4.4l0,0a.11.11,0,0,0,0-.12.1.1,0,0,0,0-.05h0a.09.09,0,0,0-.07-.06h0a.22.22,0,0,0,.06-.2.08.08,0,0,0-.07-.07h0a.17.17,0,0,0-.06.06h0a.55.55,0,0,0,.1-.22c0-.11,0-.25-.12-.28a.2.2,0,0,0-.09-.09H4.07c-.16,0-.19.22-.17.41,0,0,0,0,0,.06s0,.07,0,.11v0s0-.05,0-.08a.08.08,0,0,0-.06,0m-.35.5a.09.09,0,0,0-.08.06.58.58,0,0,0,0,.57.08.08,0,0,0,.07.05.1.1,0,0,0,.08-.05.08.08,0,0,0,.08-.05.37.37,0,0,0,0-.11.33.33,0,0,0,0-.43.16.16,0,0,0-.11-.05H3.41m.13.69h0m.56-.16a.08.08,0,0,0-.07.08.28.28,0,0,0,.13.24.25.25,0,0,0,.13,0s.09,0,.11-.06a.08.08,0,0,0,0-.08c0-.05-.09-.05-.14-.07h0s.06,0,.06-.08h.08a.18.18,0,0,0,.1,0,.29.29,0,0,0,.22-.13A.13.13,0,0,0,4.63,20h0l-.29.08c-.08,0-.16.06-.16.16v0a.06.06,0,0,0-.06,0m0,.46a.2.2,0,0,0-.14,0,.2.2,0,0,0,0,.13.1.1,0,0,0,0,.09H4l0,0,0,0a.42.42,0,0,0,.29.18H4.4a.27.27,0,0,0,.13-.4.26.26,0,0,0-.23-.09H4.13m-.36-.08a.39.39,0,0,0-.32.21c-.06.1-.13.31,0,.38h.08a.06.06,0,0,0,0-.08v0a.28.28,0,0,1,0-.13.27.27,0,0,1,.22-.13c.1,0,.07-.21,0-.21h0m-1.16.28a1.57,1.57,0,0,0,.05.3c0,.14.08.3.21.3h0a.05.05,0,0,0,0,0A.11.11,0,0,0,3,21.32c0-.17.07-.36,0-.52a.23.23,0,0,0-.2-.13l-.11,0,0,.05a.85.85,0,0,0,.06-.17,1.62,1.62,0,0,0,0-.22h0a.38.38,0,0,1-.07.21h0a.35.35,0,0,0-.06-.14l0-.05a.26.26,0,0,0,.08-.13.06.06,0,0,0,0-.07H2.53c-.1,0-.24.09-.21.21s.08.1.11.15a.36.36,0,0,1,0,.23.1.1,0,0,0,.1.13.07.07,0,0,0,.06,0m.32-.33a0,0,0,0,0,0,0,1.3,1.3,0,0,1,.22.46,2.17,2.17,0,0,1,0,.26.41.41,0,0,0,0,.22.05.05,0,0,0,.05,0h0c.15-.09.1-.42,0-.57a.67.67,0,0,0-.32-.44h0M2.56,21.6h0a.13.13,0,0,0,.05-.22l-.06,0a.14.14,0,0,1,0-.07V21.2s0-.08,0-.12a0,0,0,0,0,0,0h0a.61.61,0,0,0-.07.1h0s-.06,0-.07.07a.36.36,0,0,0,.18.38h0m1.24-.73,0,0a.19.19,0,0,0-.08.19.33.33,0,0,0,.11.22c.07.07.16.1.23.16a.43.43,0,0,1,.12.22s0,0,0,0h0c.09,0,.11-.11.1-.2a.21.21,0,0,0,.14-.15.13.13,0,0,0,0-.06s0,0,0,0H4.36a.31.31,0,0,0-.13.08l0,0c-.09-.09-.42-.2-.37-.39a0,0,0,0,0,0-.06m-.28,1.54a.22.22,0,0,0,0-.11.09.09,0,0,0-.08,0h0a.09.09,0,0,0-.06,0,.11.11,0,0,0-.1.08l0,.08-.09,0h0A.14.14,0,0,0,3,22.18a.23.23,0,0,0,0-.32.25.25,0,0,0-.19-.08.46.46,0,0,0-.29.11.08.08,0,0,0-.08-.09h0a.25.25,0,0,0-.17.08,1.37,1.37,0,0,1-.15-.21.29.29,0,0,0,0-.17h0a.05.05,0,0,0,0-.06A.29.29,0,0,0,2,21.18s0,0,0-.06l.06,0c.11-.06.25-.13.29-.28a.06.06,0,0,0,0-.08h0c-.11,0-.21.1-.31.16h0v-.14a.43.43,0,0,0,.33-.17c.16-.21,0-.36-.26-.38L2.05,20a1.11,1.11,0,0,1,.16-.29h0l.06,0h0a.09.09,0,0,0,.06,0,.11.11,0,0,0,0-.11v-.07l.06,0h0a.05.05,0,0,0,0,0,.1.1,0,0,0,.08-.12v0h0l.12-.09s0,.05,0,.07.07.3.19.31h0s0,0,0,0,0-.21-.07-.32l0-.14,0,0a2.38,2.38,0,0,0,.12.32.08.08,0,0,0,.08.06.1.1,0,0,0,.09-.06,1.3,1.3,0,0,0,.16-.65,1.33,1.33,0,0,1,.24-.11A1.54,1.54,0,0,1,4,18.68a1.21,1.21,0,0,1,.38.06.85.85,0,0,1,0,.17c0,.14,0,.32,0,.44h.06c.13-.07.12-.31.08-.5l.1.08a1,1,0,0,1,0,.18.12.12,0,0,0,.08.1.17.17,0,0,0-.11.09h0c-.11.06-.19.15-.15.28a.16.16,0,0,0,.17.12A.3.3,0,0,0,5,19.49v0H5A2.07,2.07,0,0,1,5,20L5,20a.17.17,0,0,0,0,.22v.21a.22.22,0,0,0,0,.08s0,.08,0,.13H5a.14.14,0,0,0-.09-.12h0s-.07,0-.08.08a.11.11,0,0,0,0,.1s0,.08,0,.12a.11.11,0,0,0,.1.11h0l0,0,0,0-.08.23a.12.12,0,0,0-.1-.09h0a.29.29,0,0,0-.22.32.35.35,0,0,0-.11.15c0,.06,0,.16.07.16h0a.51.51,0,0,0,.13-.09l-.12.16a.05.05,0,0,0,0,0h0c-.07,0-.1.14-.17.19a.27.27,0,0,1-.14,0A.23.23,0,0,1,4,22H4s0,0,0,0a.26.26,0,0,0,0-.3.05.05,0,0,0,0,0,.48.48,0,0,0-.27-.2h0c-.07,0-.12.11-.08.18v.09a.57.57,0,0,0,0,.18.19.19,0,0,0,.17.14l0,0a.14.14,0,0,0-.08.1,1.33,1.33,0,0,0-.05.19H3.52" transform="translate(-0.26)"/><path class="ab" d="M3.42,20h0a.07.07,0,0,0,.07.06h0a.08.08,0,0,0,.05-.1.09.09,0,0,0-.05-.08l0,0h0a.05.05,0,0,0,0,.08v0h0m-.06.36a.08.08,0,0,1-.07-.05.58.58,0,0,1,0-.57.09.09,0,0,1,.08-.06h.08a.16.16,0,0,1,.11.05.33.33,0,0,1,0,.43.37.37,0,0,1,0,.11.08.08,0,0,1-.08.05.1.1,0,0,1-.08.05" transform="translate(-0.26)"/><path class="ab" d="M4.05,18.78H4l0,0s0,0,0,.05A.24.24,0,0,0,4,19a.09.09,0,0,0,.08.07h0a.09.09,0,0,0,.07-.1v0h0v0h0v0a.08.08,0,0,0,0-.1l-.05,0a.05.05,0,0,0,0,0h0m0,.7a.05.05,0,0,1,0,0,.11.11,0,0,1,0-.05H4l-.05,0h0a.07.07,0,0,1-.07-.06v-.06s0-.08,0-.11,0,0,0-.06c0-.19,0-.41.17-.41h.06a.2.2,0,0,1,.09.09c.11,0,.13.17.12.28a.55.55,0,0,1-.1.22h0l0,.05a.49.49,0,0,1-.13.12h0" transform="translate(-0.26)"/><path class="ab" d="M4.68,19.7a.16.16,0,0,1-.17-.12c0-.13,0-.22.15-.28h0a.17.17,0,0,1,.11-.09h.08a.1.1,0,0,0,0,.09h0l0,0H5l0,.1H5v0a.3.3,0,0,1-.29.21" transform="translate(-0.26)"/><path class="ab" d="M2.31,19.78h0l-.06,0h0l.15-.16v.07a.11.11,0,0,1,0,.11.09.09,0,0,1-.06,0" transform="translate(-0.26)"/><path class="ab" d="M1.92,20.76a1.7,1.7,0,0,1,0-.22H2s0,0,0-.06a.08.08,0,0,0,0-.07l0,0v0H2l0-.14c.21,0,.42.17.26.38a.43.43,0,0,1-.33.17" transform="translate(-0.26)"/><path class="ab" d="M2.16,21.67a.82.82,0,0,1-.09-.19l.05,0a.29.29,0,0,1,0,.17" transform="translate(-0.26)"/><path class="ab" d="M2.76,22.09h.12a.09.09,0,0,0,.06,0A.09.09,0,0,0,3,22a.09.09,0,0,0-.06-.06H2.81A.16.16,0,0,0,2.7,22a.11.11,0,0,0,0,.08.08.08,0,0,0,.06,0h0m.09.2A1.62,1.62,0,0,1,2.46,22h0v0l0,0a.08.08,0,0,0,.06-.1.46.46,0,0,1,.29-.11.25.25,0,0,1,.19.08.23.23,0,0,1,0,.32H3l-.05,0-.09.09" transform="translate(-0.26)"/><path class="ab" d="M3,21H3m0,.15h0s0,0,.06-.06A.07.07,0,0,0,3,21H3v0H3a.12.12,0,0,0-.05-.1H2.82l0,0a.05.05,0,0,0,0,0,.09.09,0,0,0,0,.05l0,.08a.15.15,0,0,0,.11.08h0m0,.36c-.13,0-.19-.16-.21-.3a1.57,1.57,0,0,1-.05-.3s0,0,0-.05l0,0h0l0-.05.11,0a.23.23,0,0,1,.2.13c.09.16,0,.35,0,.52a.11.11,0,0,1-.06.11.05.05,0,0,1,0,0h0" transform="translate(-0.26)"/><path class="ab" d="M4.39,20.79l-.08,0a.23.23,0,0,0-.07.1.08.08,0,0,0,0,.08h0l0,0h.1a.1.1,0,0,0,0-.19h0m-.06.38A.42.42,0,0,1,4,21l0,0,0,0H4a.1.1,0,0,1,0-.09.2.2,0,0,1,0-.13.2.2,0,0,1,.14,0H4.3a.26.26,0,0,1,.23.09.27.27,0,0,1-.13.4H4.33" transform="translate(-0.26)"/><path class="ab" d="M4.6,20l0,0h0a.11.11,0,0,0,0,.09.08.08,0,0,0,.07.09h0a.1.1,0,0,0,.08-.05h0s0,0,0-.06a.08.08,0,0,0,0,0l0,0s0,0,0,0m-.32.35h0a.35.35,0,0,1-.08-.1h0v0c0-.1.08-.14.16-.16L4.61,20h0a.13.13,0,0,1,.11.18.29.29,0,0,1-.22.13.18.18,0,0,1-.1,0H4.34s0,.08-.06.08" transform="translate(-0.26)"/><path class="ab" d="M3.06,19.57A.08.08,0,0,1,3,19.51a2.38,2.38,0,0,1-.12-.32L3.08,19a.2.2,0,0,0,0,.08.05.05,0,0,0,0,0,.11.11,0,0,0,.09-.1.36.36,0,0,0,0-.11l.07-.05a1.3,1.3,0,0,1-.16.65.1.1,0,0,1-.09.06" transform="translate(-0.26)"/><path class="ab" d="M4.93,21l0,0,0,0h0a.11.11,0,0,1-.1-.11s0-.08,0-.12a.11.11,0,0,1,0-.1s0-.08.08-.08h0a.14.14,0,0,1,.09.12H5v0a.09.09,0,0,0,0,.07H5c0,.08,0,.15-.05.22" transform="translate(-0.26)"/><path class="ab" d="M4.46,21.79c-.06,0-.1-.1-.07-.16a.35.35,0,0,1,.11-.15.29.29,0,0,1,.22-.32h0a.12.12,0,0,1,.1.09l0,.08h0l0,0-.09,0a.1.1,0,0,0-.06.13.1.1,0,0,0,.08,0h0l0,0a1.71,1.71,0,0,1-.13.23.51.51,0,0,1-.13.09h0" transform="translate(-0.26)"/><path class="ab" d="M3.8,21.61s0,0,0,0a.11.11,0,0,0,0,.11s0,0,0,0,0,0,0,0h.08s0,0,0,0,0,0,0,0a.11.11,0,0,0,0-.11s0,0-.05,0m0,.5H3.78l0,0a.19.19,0,0,1-.17-.14.57.57,0,0,1,0-.18v-.09c0-.07,0-.18.08-.18h0a.48.48,0,0,1,.27.2.05.05,0,0,1,0,0,.26.26,0,0,1,0,.3s0,0-.06,0l0,0" transform="translate(-0.26)"/><path class="ab" d="M3.44,22.41s0,0,0,0a.08.08,0,0,0,0-.05l0,0H3.33a.09.09,0,0,0-.08.09v0H3.17l0-.08a.11.11,0,0,1,.1-.08.09.09,0,0,1,.06,0h0a.09.09,0,0,1,.08,0,.22.22,0,0,1,0,.11H3.44" transform="translate(-0.26)"/><path class="ac" d="M3.49,20.07A.07.07,0,0,1,3.42,20h0v0a.05.05,0,0,1,0-.08h0l0,0a.09.09,0,0,1,.05.08.08.08,0,0,1-.05.1h0" transform="translate(-0.26)"/><path class="ac" d="M4.08,19.05A.09.09,0,0,1,4,19a.24.24,0,0,1,0-.12s0,0,0-.05l0,0h0a.05.05,0,0,1,0,0l.05,0a.08.08,0,0,1,0,.1v0h0v0h0v0a.09.09,0,0,1-.07.1h0" transform="translate(-0.26)"/><path class="ac" d="M3.17,19.12a.05.05,0,0,1,0,0,.2.2,0,0,1,0-.08l.16-.1a.36.36,0,0,1,0,.11.11.11,0,0,1-.09.1" transform="translate(-0.26)"/><path class="ac" d="M1.94,20.54h0a.68.68,0,0,1,0-.19H2v0l0,0a.08.08,0,0,1,0,.07s0,.05,0,.06h0" transform="translate(-0.26)"/><path class="ac" d="M2.8,22.09h0" transform="translate(-0.26)"/><path class="ac" d="M2.78,22.1h0a.08.08,0,0,1-.06,0,.11.11,0,0,1,0-.08.16.16,0,0,1,.11-.07h.08A.09.09,0,0,1,3,22a.09.09,0,0,1,0,.09.09.09,0,0,1-.06,0h-.1" transform="translate(-0.26)"/><path class="ac" d="M3.8,21.83h0s0,0,0,0,0,0,0,0a.11.11,0,0,1,0-.11s0,0,0,0,0,0,.05,0a.11.11,0,0,1,0,.11s0,0,0,0,0,0,0,0h0" transform="translate(-0.26)"/><path class="ac" d="M3.43,22.41H3.25v0a.09.09,0,0,1,.08-.09H3.4l0,0a.08.08,0,0,1,0,.05s0,0,0,0h0" transform="translate(-0.26)"/><path class="ac" d="M4.3,21l0,0h0a.08.08,0,0,1,0-.08.23.23,0,0,1,.07-.1l.08,0h0a.1.1,0,0,1,0,.19H4.3" transform="translate(-0.26)"/><polyline class="ac" points="2.7 20.95 2.7 20.95 2.7 20.95"/><path class="ac" d="M2.93,21.1h0A.15.15,0,0,1,2.8,21l0-.08a.09.09,0,0,1,0-.05.05.05,0,0,1,0,0l0,0H2.9a.12.12,0,0,1,.05.1H3v0H3A.07.07,0,0,1,3,21s0,.06-.06.06" transform="translate(-0.26)"/><path class="ac" d="M4.59,20.2h0a.08.08,0,0,1-.07-.09.11.11,0,0,1,0-.09h0l0,0s0,0,0,0l0,0a.08.08,0,0,1,0,0s0,.05,0,.06h0a.1.1,0,0,1-.08.05" transform="translate(-0.26)"/><path class="ac" d="M4.93,19.36h0l0,0h0a.1.1,0,0,1,0-.09v0h0a1.42,1.42,0,0,1,.08.18h0" transform="translate(-0.26)"/><path class="ac" d="M5,20.79H5a.09.09,0,0,1,0-.07s0,.05,0,.07" transform="translate(-0.26)"/><path class="ac" d="M4.69,21.49a.1.1,0,0,1-.08,0,.1.1,0,0,1,.06-.13l.09,0,0,0h0c0,.05-.05.09-.07.14l0,0h0" transform="translate(-0.26)"/><path class="ad" d="M2.48,19.57a.05.05,0,0,1,0,0h0l.13-.1v0a.1.1,0,0,1-.08.12" transform="translate(-0.26)"/><path class="ad" d="M2,21.12l0-.22h0c.1-.06.2-.16.31-.16h0a.06.06,0,0,1,0,.08c0,.15-.18.22-.29.28l-.06,0m.19.38h0l-.05,0a1,1,0,0,1-.1-.3.29.29,0,0,1,.22.26.05.05,0,0,1,0,.06h0" transform="translate(-0.26)"/><path class="ad" d="M2.45,22a.93.93,0,0,1-.14-.14h0a.25.25,0,0,1,.17-.08h0a.1.1,0,0,1,0,.19l0,0h0" transform="translate(-0.26)"/><path class="ad" d="M2.61,21.62H2.55a.36.36,0,0,1-.18-.38s0-.07.07-.07h0a.61.61,0,0,1,.07-.1h0a0,0,0,0,1,0,0s0,.08,0,.12v.08a.14.14,0,0,0,0,.07l.06,0a.13.13,0,0,1-.05.22" transform="translate(-0.26)"/><path class="ad" d="M3.18,21.55a.05.05,0,0,1-.05,0,.41.41,0,0,1,0-.22,2.17,2.17,0,0,0,0-.26,1.3,1.3,0,0,0-.22-.46,0,0,0,0,1,0,0h0a.67.67,0,0,1,.32.44c.05.15.1.48,0,.57h0" transform="translate(-0.26)"/><path class="ad" d="M3.48,21.18h0c-.12-.07,0-.28,0-.38a.39.39,0,0,1,.32-.21h0c.1,0,.13.19,0,.21a.27.27,0,0,0-.22.13.28.28,0,0,0,0,.13v0a.06.06,0,0,1,0,.08h0" transform="translate(-0.26)"/><path class="ad" d="M4,20c-.28,0-.45-.56-.28-.78a0,0,0,0,1,0,0,.08.08,0,0,1,.06,0s0,.05,0,.08v0a.86.86,0,0,0,.05.27l0,0a.1.1,0,0,1,0-.09.52.52,0,0,1,.13-.06h0a.49.49,0,0,0,.13-.12l0-.05a.17.17,0,0,1,.06-.06h0a.08.08,0,0,1,.07.07.22.22,0,0,1-.06.2h0a.09.09,0,0,1,.07.06h0a.1.1,0,0,1,0,.05.11.11,0,0,1,0,.12l0,0H4.33a.18.18,0,0,1-.09-.1v-.06a.39.39,0,0,1-.21.08.19.19,0,0,1-.1,0h0l.09.12a.45.45,0,0,1,.06.14A0,0,0,0,1,4,20H4" transform="translate(-0.26)"/><path class="ad" d="M2.89,19.71h0c-.12,0-.16-.19-.19-.31s0,0,0-.07l.15-.12,0,.14c0,.11.12.21.07.32s0,0,0,0" transform="translate(-0.26)"/><path class="ad" d="M4.46,19.36h0c-.08-.12,0-.3,0-.44a.85.85,0,0,0,0-.17,1.51,1.51,0,0,1,.22.11c0,.19,0,.43-.08.5h0" transform="translate(-0.26)"/><path class="ad" d="M4.29,20.56a.25.25,0,0,1-.13,0A.28.28,0,0,1,4,20.28a.08.08,0,0,1,.07-.08.06.06,0,0,1,.06,0h0a.35.35,0,0,0,.08.1h0s.1,0,.14.07a.08.08,0,0,1,0,.08c0,.05-.06.06-.11.06" transform="translate(-0.26)"/><path class="ad" d="M4.19,21.71s0,0,0,0A.43.43,0,0,0,4,21.46c-.07-.06-.16-.09-.23-.16a.33.33,0,0,1-.11-.22.19.19,0,0,1,.08-.19l0,0a0,0,0,0,1,0,.06c0,.19.28.3.37.39l0,0a.31.31,0,0,1,.13-.08h.06s0,0,0,0a.13.13,0,0,1,0,.06.21.21,0,0,1-.14.15c0,.09,0,.17-.1.2h0" transform="translate(-0.26)"/><path class="ad" d="M3.08,22.37l-.12,0-.11,0,.09-.09.05,0H3a.14.14,0,0,1,.08.18h0" transform="translate(-0.26)"/><path class="ae" d="M4.79,19.22h0a.12.12,0,0,1-.08-.1,1,1,0,0,0,0-.18.46.46,0,0,1,.07.07.66.66,0,0,1,.12.17v0l0,0h0" transform="translate(-0.26)"/><path class="af" d="M3.92,22.31l0-.07h0l.08,0-.07,0h0" transform="translate(-0.26)"/><path class="aa" d="M3.86,22.34a.71.71,0,0,0,0-.14v0a.08.08,0,0,0,0,.05h0l0,.07-.06,0" transform="translate(-0.26)"/><path class="ae" d="M3.65,22.4a1.33,1.33,0,0,1,.05-.19.14.14,0,0,1,.08-.1h.06s0,0,0,0a.13.13,0,0,1,0-.06s0,0,.06,0,0,0,0,0H4a.23.23,0,0,0,.11,0,.27.27,0,0,0,.14,0c.07-.05.1-.15.17-.19h0a.05.05,0,0,1,0,0,1.64,1.64,0,0,1-.49.42l-.08,0h0a.08.08,0,0,1,0-.05v0a.71.71,0,0,1,0,.14l-.21.06" transform="translate(-0.26)"/><path class="ae" d="M5,20.26A.17.17,0,0,1,5,20L5,20v.3" transform="translate(-0.26)"/><path class="ae" d="M5,20.55a.22.22,0,0,1,0-.08.22.22,0,0,1,0,.08" transform="translate(-0.26)"/><path class="ae" d="M2.55,20.89a.1.1,0,0,1-.1-.13.36.36,0,0,0,0-.23c0-.05-.1-.08-.11-.15s.11-.21.21-.21h.06a.06.06,0,0,1,0,.07.26.26,0,0,1-.08.13l0,.05a.35.35,0,0,1,.06.14h0a.38.38,0,0,0,.07-.21h0a1.62,1.62,0,0,1,0,.22.85.85,0,0,1-.06.17h0l0,0s0,0,0,.05a.07.07,0,0,1-.06,0" transform="translate(-0.26)"/><path class="e" d="M5.39,19.56c.08-.19-.07-.53-.14-.68a1.07,1.07,0,0,0-.52-.51c-.05,0-.11.07-.06.12a1.46,1.46,0,0,1,.42.5,1.19,1.19,0,0,1,.1.32.66.66,0,0,0,.08.29l.05,0c0,.31,0,.63,0,.94,0,.14-.07.29-.1.43a.7.7,0,0,0-.06.38,0,0,0,0,0,.07,0A2,2,0,0,0,5.32,21a3.63,3.63,0,0,0,.1-.45,3.61,3.61,0,0,0,0-.93h0" transform="translate(-0.26)"/><path class="e" d="M4.84,22a2.13,2.13,0,0,0-.45.23.36.36,0,0,1-.24.09h0a1,1,0,0,0,0-.1s0-.06,0,0a.71.71,0,0,0-.14.1H4s0,0,0,0v0l-.06.08a.86.86,0,0,0-.18.34c0,.07.05.1.09.06A1.63,1.63,0,0,0,4,22.52l0-.05a.36.36,0,0,0,.25,0,1.57,1.57,0,0,0,.58-.42,0,0,0,0,0,0-.05" transform="translate(-0.26)"/><path class="ag" d="M7.64,16.11l-.07,0L7.47,16l.17.1" transform="translate(-0.26)"/><path class="ah" d="M8,16.4l-.24-.19-.18-.13.07,0,.09.06L8,16.4" transform="translate(-0.26)"/><path class="ai" d="M7.57,16.08,7.31,16l.16.05.1.07" transform="translate(-0.26)"/><path class="aj" d="M7.59,16.79a0,0,0,0,0,0,.05,0,0,0,1,0,.08,0,0,0,0,0,0,0-.05m.86.78h0a0,0,0,0,0,0,0h0m-.15,1A.36.36,0,0,1,8,18.36a3.22,3.22,0,0,1-.14-.44c-.16-.5-1.32-1.08-1.15-1.64A.48.48,0,0,1,7.18,16h.13l.26.12.18.13L8,16.4l.09.1a2.27,2.27,0,0,1,.53,1.63c0,.19-.1.41-.26.45h0" transform="translate(-0.26)"/><path class="ak" d="M6.22,19.36c0-.2-.12-.57-.31-.65h0s0,0,0,.06a1.6,1.6,0,0,0,.13.3,2.22,2.22,0,0,1,.09.37c0,.27,0,.53,0,.8S6,20.6,6,20.77a4.6,4.6,0,0,1-.29.76,3.34,3.34,0,0,1-.4.65,3.45,3.45,0,0,1-.26.28,3.31,3.31,0,0,0-.27.26s0,.11,0,.1a1.46,1.46,0,0,0,.57-.48,3.14,3.14,0,0,0,.43-.68A4.25,4.25,0,0,0,6.25,20v0a2.88,2.88,0,0,0,0-.59" transform="translate(-0.26)"/><path class="al" d="M5.82,19.62a7.92,7.92,0,0,0-.07,1.19.07.07,0,0,0,.07.07,1.4,1.4,0,0,1-.13.34h0c-.1.12-.19.23-.28.36a1.21,1.21,0,0,0-.16.16L5,22H5l-.19.19c-.14.14-.25.28-.4.41a1.57,1.57,0,0,1-.48.25,2.77,2.77,0,0,0-.49.15.06.06,0,0,0,0,.1.72.72,0,0,0,.47-.1,3.59,3.59,0,0,0,.47-.27,2.64,2.64,0,0,0,.41-.34A.83.83,0,0,0,5,22.18L5,22.09a0,0,0,0,0,.06,0l.09-.1h0l.11-.13a1.16,1.16,0,0,0,.2-.24v0c.07-.09.13-.19.2-.29s0,0,0,0a.93.93,0,0,0,.13-.35.09.09,0,0,0,0-.06,9.29,9.29,0,0,0,0-1.18s0-.05-.06,0" transform="translate(-0.26)"/><path class="al" d="M5.76,19.29a1.67,1.67,0,0,0-.1-.4.4.4,0,0,0-.11-.27,1.47,1.47,0,0,0-.1-.13,1.53,1.53,0,0,0-.14-.21.53.53,0,0,0-.14-.12L5,18a.86.86,0,0,0-.42-.2h0l-.19-.07-.09,0a0,0,0,0,0,0,0,.08.08,0,0,0-.07-.05.09.09,0,0,0-.07,0v0l-.06,0-.29-.1-.29,0a3.12,3.12,0,0,0-1.23.26,0,0,0,0,0,0,0c.41-.06.8-.21,1.22-.24a1.13,1.13,0,0,1,.63.19c.14.08.32.23.48.22a1.27,1.27,0,0,0,.23.12l.18.07a.75.75,0,0,1,.16.15.73.73,0,0,0,.22.21c.06,0,0-.06.09.07s.07.06.07.09h0v0a1,1,0,0,0,0,.17.06.06,0,0,0,.07,0,.19.19,0,0,1,0,.07s0,.05,0,.08-.06,0-.06,0,.06.39.19.43a.06.06,0,0,0,.07-.06.48.48,0,0,0-.07-.2l0-.05" transform="translate(-0.26)"/><path class="al" d="M2.11,17.9a1.8,1.8,0,0,0-.22.06,1.88,1.88,0,0,0-.18.12,1.92,1.92,0,0,0-.34.3,1.42,1.42,0,0,0-.46.77s0,0,0,0a2.75,2.75,0,0,0,.23-.33,1.87,1.87,0,0,1,.28-.35,2.28,2.28,0,0,1,.33-.29L2,18.1c.07,0,.12-.1.18-.14s0-.07,0-.06" transform="translate(-0.26)"/><path class="al" d="M1.16,22.51a2.35,2.35,0,0,1-.24-.37,2.39,2.39,0,0,0-.13-.21c0-.06-.12-.16-.1-.24s0-.06,0-.05,0-.1-.05-.15a1.42,1.42,0,0,1,0-.2l0,.06a.05.05,0,0,0,.1,0c0-.13,0-.26,0-.38a3,3,0,0,1,0-.42c0-.05-.05-.08-.07-.05a4.26,4.26,0,0,1,.22-1s0-.07-.06,0A2.58,2.58,0,0,0,.5,20.66c0,.2,0,.41,0,.62a1,1,0,0,0,.12.45.61.61,0,0,0,.12.33c.09.16.19.32.29.47a1.63,1.63,0,0,0,.7.63s0,0,0,0c-.17-.23-.41-.38-.58-.61" transform="translate(-0.26)"/><path class="al" d="M3.3,23.19a.48.48,0,0,0-.29,0l-.36.05a.48.48,0,0,1-.33-.05.64.64,0,0,0-.2-.11s0,0,0,0,.13.15.21.21a.32.32,0,0,0,.26.07H3c.11,0,.25,0,.34-.07a.06.06,0,0,0,0-.1" transform="translate(-0.26)"/><path class="am" d="M6.51,21c-.07.06-.07.18-.09.28a2.53,2.53,0,0,1-.12.36,1.4,1.4,0,0,1-.15.3,2.09,2.09,0,0,0-.16.29.05.05,0,0,0,.08.06c.18-.09.31-.4.4-.59a3.58,3.58,0,0,0,.11-.35.5.5,0,0,0,0-.34.06.06,0,0,0-.1,0" transform="translate(-0.26)"/><path class="an" d="M6.68,20.88c0-.17,0-.35.06-.52s-.08-.06-.09,0c0,.3-.1.61-.17.91,0,.12-.06.24-.1.36a1.08,1.08,0,0,1-.11.18,1.89,1.89,0,0,0-.19.3c0,.06,0,.12.08.09l.08-.05a.25.25,0,0,0,0,.12.07.07,0,1,0,.14,0s0-.07,0-.11a.17.17,0,0,1,0-.07,1.46,1.46,0,0,0,.14-.31c0-.05,0-.11.08-.17s.23-.49.15-.69a0,0,0,0,0-.06,0" transform="translate(-0.26)"/><path class="an" d="M6.46,19.13c.06.35,0,.71.1,1.05a0,0,0,0,0,.07,0,2.59,2.59,0,0,0-.09-1.07,0,0,0,1,0-.08,0" transform="translate(-0.26)"/><path class="an" d="M3.91,17.19s-.06,0-.06,0a.24.24,0,0,0-.11.06s0,.07,0,.08a.55.55,0,0,0,.22,0h.08a.31.31,0,0,0,.18.05s0-.05,0-.08a.76.76,0,0,0-.35-.17" transform="translate(-0.26)"/><path class="ao" d="M5.16,18s-.06,0,0,.05a2.37,2.37,0,0,1,.29.34s0,0,0,0a.63.63,0,0,0-.3-.36" transform="translate(-0.26)"/><path class="ao" d="M2.43,17.6a1.3,1.3,0,0,0-.48.19,2.36,2.36,0,0,0-.45.33s0,.08,0,.05a4.15,4.15,0,0,1,.43-.3,4,4,0,0,0,.47-.22s0,0,0,0" transform="translate(-0.26)"/><path class="ao" d="M.52,21.48a1,1,0,0,1-.06-.35c0-.12,0-.25,0-.37s0-.24,0-.35,0,0,0,0a1.7,1.7,0,0,0-.07.84.84.84,0,0,0,.29.63s.06,0,.05-.05a3.31,3.31,0,0,1-.15-.33" transform="translate(-0.26)"/><path class="ao" d="M5.3,21.87a2.6,2.6,0,0,1-.3.36c-.12.12-.25.21-.37.31s0,.12,0,.1a1.22,1.22,0,0,0,.68-.74s0,0,0,0" transform="translate(-0.26)"/><path class="ao" d="M5.94,15.57a.14.14,0,0,0-.09,0s0,0,0,.06,0,0,0,0l0,0h0l0,0a.08.08,0,0,0,0,0" transform="translate(-0.26)"/><path class="ap" d="M5,16.63s0,0,0,0H5" transform="translate(-0.26)"/><path class="aq" d="M4.54,16.31h0a0,0,0,0,0,0,0s0,0,0,0h0a0,0,0,0,0,0,0h0" transform="translate(-0.26)"/><path class="aq" d="M5.58,16.53a0,0,0,0,0,0,.08s0-.08,0-.08" transform="translate(-0.26)"/><path class="aq" d="M5.79,15.93h0l.06,0H5.79" transform="translate(-0.26)"/><path class="aq" d="M5.09,16.36a.36.36,0,0,0,0,.09h0a.32.32,0,0,0,0-.09h0" transform="translate(-0.26)"/><path class="aq" d="M5.5,16.12a.83.83,0,0,0,.08.12h0l-.08-.12s0,0,0,0" transform="translate(-0.26)"/><path class="aq" d="M7.26,16.43h0s0,0,0,0h0s0,0,0,0" transform="translate(-0.26)"/><path class="aq" d="M5.31,17.15v0h0v0h0" transform="translate(-0.26)"/><path class="aq" d="M4.56,16.78s0,0,0,0,0,0,0,0" transform="translate(-0.26)"/><path class="aq" d="M4.82,16.56v0s0,0,0,0v0h0" transform="translate(-0.26)"/><path class="aq" d="M5.84,16.77s0,0,0,0l0,0,0,0s0,0,0,0,0,0,0,0l0,0" transform="translate(-0.26)"/><path class="aq" d="M6.58,15.88v0h0s0,0,0,0,0,0,0,0" transform="translate(-0.26)"/><path class="ar" d="M4.16,14.22s0,0-.06,0a.7.7,0,0,0,.1.34.57.57,0,0,0,.17.28s0,0,0,0a.71.71,0,0,0-.1-.31.89.89,0,0,0-.15-.31" transform="translate(-0.26)"/><path class="ar" d="M4.44,14.83s0,0,0,0a2.58,2.58,0,0,0,.22.44,1.94,1.94,0,0,0,.25.42s0,0,0,0a1.3,1.3,0,0,0-.22-.44,1.41,1.41,0,0,0-.27-.4" transform="translate(-0.26)"/><path class="as" d="M4.27,14.36s-.07-.13-.1-.08,0,.15,0,.2.07.17.13.2.05,0,.05,0a.25.25,0,0,0,0-.12,1.29,1.29,0,0,0-.09-.16" transform="translate(-0.26)"/><path class="as" d="M4.39,14.75s0,0,0,0a.67.67,0,0,0,.09.21.64.64,0,0,0,.11.2,0,0,0,0,0,0,0,.65.65,0,0,0-.09-.23.79.79,0,0,0-.14-.18" transform="translate(-0.26)"/><path class="at" d="M4.13,14.24a.06.06,0,0,0,0,0,.71.71,0,0,0,.08.15c0,.05,0,.12.11.13s0,0,0,0,0-.15-.09-.21-.07-.13-.13-.08" transform="translate(-0.26)"/><path class="at" d="M4.71,15.23s0,0,0,0c-.09-.21-.23-.4-.33-.6,0,0,0,0,0,0a1.77,1.77,0,0,0,.35.63h0a2,2,0,0,0,.06.23c0,.06.06.16.13.17s0,0,0,0a.31.31,0,0,0-.09-.18,1.55,1.55,0,0,1-.12-.22" transform="translate(-0.26)"/><path class="at" d="M4.53,15.19a0,0,0,0,0-.07,0s0,0,0,0a0,0,0,0,0,0,0h0a.05.05,0,0,0,.05.05h0a.05.05,0,0,0,0-.05h0a0,0,0,0,0,0,0s0,0,0,0" transform="translate(-0.26)"/><path class="au" d="M8.24,21.36,8,21.42v0a.13.13,0,0,0-.1,0l-.07,0H7.68l-.18,0a1.22,1.22,0,0,1-.81-.33c-.05-.06-.13,0-.14.06a.14.14,0,0,0,0,.09.6.6,0,0,0,.2.27.85.85,0,0,0-.22,0,.1.1,0,0,0-.09.07c0,.06,0,.11.06.13a1.31,1.31,0,0,0,.67.12l.19,0h0a.66.66,0,0,1-.28.05,1.17,1.17,0,0,1-.32,0c-.1,0-.21-.06-.3,0s0,0,0,0l0,0a.11.11,0,0,0,0,.18l0,0H6.23a.08.08,0,0,0,0,.15.9.9,0,0,0,.51.13,1.67,1.67,0,0,0,.5-.05,2.55,2.55,0,0,0,.48-.2A.94.94,0,0,0,8,21.76c.11,0,.21-.13.29-.19s0-.25-.08-.21" transform="translate(-0.26)"/><path class="au" d="M6.17,18.21a1,1,0,0,0-.3-.32s-.06,0,0,.05a2.56,2.56,0,0,0,.22.35,3.64,3.64,0,0,1,.23.39c.06.13.12.27.17.41a2.48,2.48,0,0,0,.15.41s.07,0,.07,0a1.85,1.85,0,0,0-.27-.88,2.14,2.14,0,0,0-.23-.38" transform="translate(-0.26)"/></g><g class="k"><path class="av" d="M5.9,15.86h0s0,0,0,0h0l0,0h0" transform="translate(-0.26)"/><path class="aw" d="M4.94,16.24s0,0,0,0a0,0,0,0,1,.08,0s0,0,0,0" transform="translate(-0.26)"/><path class="av" d="M6.56,15.8s0,0,0,0l0,0h0l0,0s0,0,0,0h0" transform="translate(-0.26)"/><path class="av" d="M6.45,17.35a0,0,0,0,1,0,0,.05.05,0,0,1,0,0h0s0,0,0,0h0s0,0,0,0h0" transform="translate(-0.26)"/><polyline class="aw" points="7.3 15.98 7.3 15.98 7.3 15.97 7.3 15.97 7.3 15.98"/><polyline class="aw" points="7.31 15.98 7.32 15.97 7.31 15.97 7.31 15.98 7.31 15.98"/><path class="aw" d="M7.57,16h0s0,0,0,0h0s0,0,0,0h0" transform="translate(-0.26)"/><polyline class="aw" points="5.32 17.31 5.33 17.31 5.33 17.31 5.32 17.31"/><path class="aw" d="M5.58,17.32h0s0,0,0,0a0,0,0,0,1,0,0h0s0,0,0,0a.05.05,0,0,1,0,0h0" transform="translate(-0.26)"/><path class="aw" d="M6.31,18.2h0a.05.05,0,0,1,0,0s0,0,0,0,0,0,0,0,0,0,0,0h0" transform="translate(-0.26)"/><path class="aw" d="M8,16.17a0,0,0,0,1,0-.07H8l0,0a0,0,0,0,1,0,.05H8" transform="translate(-0.26)"/><path class="av" d="M6.1,17.55s0,0,0,0,0,0,0,0" transform="translate(-0.26)"/><path class="aw" d="M4.07,16.63h0" transform="translate(-0.26)"/><path class="aw" d="M4,16.57l0,0h0l0,0" transform="translate(-0.26)"/><path class="aw" d="M4.08,16.64h0s0-.07,0-.07h0l0,0,0,0h0a0,0,0,0,1,0,0s0,.05,0,.05h0" transform="translate(-0.26)"/><path class="aw" d="M4.72,16.19s0-.05,0-.05a0,0,0,0,1,0,.05" transform="translate(-0.26)"/><path class="av" d="M6.5,17.79h0s0,0,0,0h0" transform="translate(-0.26)"/><path class="aw" d="M6.71,18.67h0s0,0,0,0l0,0" transform="translate(-0.26)"/><path class="av" d="M6.71,18.67h0l0,0h0s0,0,0,.05h0" transform="translate(-0.26)"/><path class="aw" d="M6.65,19.65v0h0v0" transform="translate(-0.26)"/><path class="ax" d="M6.64,19.66h0s0,0,0,0h0v0h0" transform="translate(-0.26)"/><path class="aw" d="M7.14,20a0,0,0,0,1,0,0h0a0,0,0,0,1,0,0h0a0,0,0,0,1,0,.05h0" transform="translate(-0.26)"/><path class="ay" d="M8.68,18.75h0v0h0s0,0,0,0a0,0,0,0,1,0,0h0v0h0" transform="translate(-0.26)"/><path class="ay" d="M8.39,19.29h0s0,0,0,0a0,0,0,0,1,0,0h0" transform="translate(-0.26)"/><polyline class="az" points="8.21 17.59 8.2 17.58 8.21 17.58 8.21 17.58 8.21 17.59"/><path class="az" d="M8.45,17.61h0a0,0,0,0,1,0,0h0" transform="translate(-0.26)"/><polyline class="az" points="8.2 17.6 8.21 17.59 8.21 17.59 8.21 17.6 8.2 17.6"/><path class="az" d="M7.59,16.88a0,0,0,0,1,0,0,0,0,0,1,1,.08,0,0,0,0,0,1,0,0" transform="translate(-0.26)"/><path class="ay" d="M8.68,17.7h0a.06.06,0,0,1,0-.06,0,0,0,0,1,.06,0,0,0,0,0,1,0,.06h0" transform="translate(-0.26)"/><path class="ay" d="M8.63,19.31h0v0h0a.07.07,0,0,1,0,0h0" transform="translate(-0.26)"/><path class="aw" d="M8.05,20.67s0,0,0,0,0-.05,0-.05h0l0,0s0,0,0,0" transform="translate(-0.26)"/><path class="ba" d="M7.09,21.12s0-.08,0-.08a0,0,0,0,1,0,.08" transform="translate(-0.26)"/><path class="aw" d="M7.33,20.15s0-.06,0-.06,0,.06,0,.06" transform="translate(-0.26)"/><path class="aw" d="M9.06,18.74H9v-.08h0s0,0,0,.05,0,0,0,0" transform="translate(-0.26)"/><path class="av" d="M9,18.73H9a0,0,0,0,1,0,0s0,0,0,0v.08" transform="translate(-0.26)"/><path class="aw" d="M5.67,17.67a.06.06,0,0,1,0-.11.06.06,0,0,1,0,.11" transform="translate(-0.26)"/><path class="bb" d="M8,16.58a.24.24,0,0,0-.21.09.23.23,0,0,0,0,.27.11.11,0,0,0,.07,0l0,0c.11.12.35.17.4-.05A.35.35,0,0,0,8,16.58" transform="translate(-0.26)"/><path class="bb" d="M8.06,17.35a.07.07,0,0,0-.06,0H8a.11.11,0,0,0-.07,0,.14.14,0,0,0,0,.11.2.2,0,0,0,0,.08.08.08,0,0,0,.11,0l0,0a.11.11,0,0,0,.09-.07.14.14,0,0,0,0-.15.08.08,0,0,0-.08-.06" transform="translate(-0.26)"/><path class="bc" d="M4.93,15.9h0" transform="translate(-0.26)"/><path class="bc" d="M3.33,19.67c-.19.15-.14.44-.06.65a0,0,0,0,0,0,0,.11.11,0,0,0,0,.08.12.12,0,0,0,.17,0,.78.78,0,0,0,.17-.31.51.51,0,0,0,0-.3.22.22,0,0,0-.35-.14m-.06.39Zm.14.28c-.07,0-.06,0-.07-.06a.27.27,0,0,0,.14,0A.08.08,0,0,1,3.41,20.34Zm.09,0-.06,0,.08,0Zm.07-.14a.25.25,0,0,1,0,.07h0s-.13,0-.17,0h0s0,0,0,0l-.06-.09v0l0,0h0s0,0,0,0h0l.08,0a.14.14,0,0,0,.11,0s0,0,0,0l0,0,.07,0s0,0,0,0H3.4l0,0h.15l0,0s0,0,0,0H3.48a.2.2,0,0,1-.09-.05s-.1-.1-.09-.16h0c0,.05,0,.12,0,.16l.06.06h0l-.08,0a.35.35,0,0,1,0-.08.26.26,0,0,1,0-.19.17.17,0,0,1,.2-.11c.08,0,.12.13.12.22A.61.61,0,0,1,3.57,20.17Z" transform="translate(-0.26)"/><path class="bc" d="M2.2,19.14c-.18-.16-.37,0-.4.21a.44.44,0,0,0,0,.3.51.51,0,0,0,.16.09l.2.12a.15.15,0,0,0,.2,0,.11.11,0,0,0,0-.12s0,0,0,0h0a.48.48,0,0,0-.06-.31.72.72,0,0,0-.2-.31m-.13.57ZM2,19.61h.08l.05.05h0Zm.12,0,.06,0,.06,0-.06,0Zm.1.17h0Zm0-.06h0l0,0h0l.09,0Zm.21-.05s0,0,0,0a0,0,0,0,1,0,.06c0,.05,0,.06-.08,0s0,0,0,0h0l0,0v0l-.08,0,.07-.05s0,0,0,0l0,0h0s0,0,0,0H2.23s0,0,0,0a0,0,0,0,0,0,0s0,0,0,0l0,0s0,0,0,0l-.05,0-.08,0h0l0,0s0,0,0,0l0,0-.06-.06h0s0,0,0,.06H2.08A.33.33,0,0,1,2,19.48H2A.22.22,0,0,0,2,19.6H2l-.07-.05h0l.14.14H2l-.06,0a.17.17,0,0,1-.12-.18.36.36,0,0,1,.08-.27c.13-.15.3.08.36.2a.92.92,0,0,1,.09.23l0,.08Z" transform="translate(-0.26)"/><path class="bc" d="M2.37,20.34a.56.56,0,0,0-.62-.08.31.31,0,0,0-.15.46c.14.2.39.13.57,0a.33.33,0,0,0,.2-.2.21.21,0,0,0,0-.19s0,0,0,0m-.52.42-.09-.07,0-.05a.35.35,0,0,0,.11,0l0,0,0,.05Zm.1,0a.6.6,0,0,0-.08-.08h0s0,.05.06.07Zm.1,0H2L2,20.68H2a.1.1,0,0,0,.07,0Zm0,0h0s0,0,0,0h0l0,0Zm0-.11h0L2,20.56h0Zm0-.07h0l0,.06h0Zm.07.15,0,0,0,0h0l0,0Zm0,0,0,0h0l0,0Zm0,0,0,0h0s0,0,0,0h0l-.05-.06h0a.05.05,0,0,0,0,0l.05.06,0,0Zm.06-.07,0,0,0-.06,0,0a.41.41,0,0,0,0,.09Zm0-.08-.05-.07,0,0s0,0,0,0l-.1.07h0s0,0,0,0h0l0,0,0,0,0,0s0,0,0,0v0H2s0,0,0,0H2l0,.07H2l-.07-.08s0,0,0,0l.06.06H1.92l-.08-.09h0l.06.09h0l-.05-.07s0,0,0,0l0,.05H1.71l-.05-.05h0a.35.35,0,0,0,.08.13s0,0,.05.05h0l-.07-.08-.07-.08c0-.21.21-.29.34-.3a.72.72,0,0,1,.35.06A.32.32,0,0,1,2.33,20.48Z" transform="translate(-0.26)"/><path class="bc" d="M2.7,21.83h0l0,0h0s0,0,0,0h0a.69.69,0,0,0-.19.19.4.4,0,0,0-.1.31c0,.24.31.15.43.05s.38-.29.32-.51-.23-.13-.37-.09m0,.53a.39.39,0,0,1-.15,0h.06l.11,0Zm-.12-.09h.08l0,0h0Zm.19,0H2.71l0,0Zm0,0h0l0,0h.05ZM3,22.14l-.06.06a.75.75,0,0,1-.25-.09s0,0,0,0l.16.08-.06,0h0s0,0,0,0h0a.21.21,0,0,1-.1-.06s0,0,0,0l.07.05h0l-.06,0h0l0,0h0s0,0,0,0h0l0,0H2.52a.34.34,0,0,1-.08-.09h0a.35.35,0,0,0,.05.08h0l.07,0a.23.23,0,0,0,.16.06l-.07,0c-.11,0-.25,0-.22-.15a.72.72,0,0,1,.27-.4c.08,0,.16,0,.25,0S3,22.05,3,22.14Z" transform="translate(-0.26)"/><path class="bc" d="M3.59,21.42a0,0,0,0,0,0,0s0,.07,0,.1v0s0,0,0,0a.93.93,0,0,0,0,.33h0v0a.51.51,0,0,0,.07.24.22.22,0,0,0,.35,0c.24-.3-.11-.71-.39-.69m0,.34,0,0a.2.2,0,0,0,.14.06l-.07,0h0l-.07-.08Zm0,.09,0,0h0Zm0,.12a.43.43,0,0,1,0,0v0h.06a.19.19,0,0,0,.13,0,.26.26,0,0,1-.17.05Zm0,.05h0l.05,0h0A.05.05,0,0,1,3.66,22Zm.26.05a.17.17,0,0,1-.2,0l0,0a.27.27,0,0,0,.12,0l.06,0h0l0,0s0,0,0,0L3.81,22H3.73A.47.47,0,0,0,4,21.85s0,0,0,0l-.1.08H3.76a.4.4,0,0,0,.15-.1s0,0,0,0l0,0h0a.2.2,0,0,1-.21,0,.26.26,0,0,1-.07-.15.56.56,0,0,0,0-.12.37.37,0,0,1,.28.16A.36.36,0,0,1,3.92,22.07Z" transform="translate(-0.26)"/><path class="bc" d="M4.54,20.64a.61.61,0,0,0-.3,0c-.14,0-.37,0-.33.26,0,0,0,0,0,0l0,0a.24.24,0,0,0,.08.06h0l.06.05a.46.46,0,0,0,.2.14c.18,0,.29-.18.29-.35s0-.2-.07-.24m-.49.28L4,20.84h.07l0,.06Zm.06.07,0,0h0l0,0Zm.06-.06,0,0h0l0,0,0,0S4.16,20.93,4.17,20.93Zm0,.05,0,0h0l0,0ZM4.15,21h0l0,0h0Zm0,0h0l0,0H4.2ZM4.54,21a.24.24,0,0,1-.14.18H4.33a.19.19,0,0,0,.12-.07s0,0,0,0a.35.35,0,0,1-.17.06h0a.19.19,0,0,0,.1,0h0a0,0,0,0,0,0,0h0a.09.09,0,0,0,.07,0s0,0,0,0H4.4l-.05,0,.07,0s0,0,0,0L4.3,21l0,0h0s0,0,0,0h0s0,0,0,0h0l.06,0s0,0,0,0l-.13,0,0,0,.08,0s0,0,0,0H4c.05-.11.22-.1.32-.1s.16,0,.2,0S4.55,20.91,4.54,21ZM4.29,21h0l0,0h0Z" transform="translate(-0.26)"/><path class="bc" d="M2.7,20.71c-.16.13-.11.32,0,.49v0c0,.09.19.48.32.35A.49.49,0,0,0,3,21.4a1.69,1.69,0,0,0,.05-.24.62.62,0,0,0,0-.33.25.25,0,0,0-.39-.12m0,.27a.43.43,0,0,0,.19.21H2.8l0,0L2.66,21Zm0,.14,0-.1a.64.64,0,0,0,.1.18h0a.47.47,0,0,1-.05-.1h0Zm.07.16,0,0h0v0Zm0-.07h0a.18.18,0,0,0,.07.05H2.8l0,0Zm0,.1a.18.18,0,0,0,.08.05h0l-.06-.05h0Zm0,.06Zm.19,0c0,.06,0,.09-.07.08h0l.07,0H2.85A.24.24,0,0,0,3,21.34a0,0,0,0,0,0,0l-.07,0h0l-.05,0,.08,0h0s0,0,0,0h0l-.06,0,.06,0h0s0,0,0,0h0s0,0,0,0h0a.4.4,0,0,1-.23-.23h0a.13.13,0,0,1,0-.06.19.19,0,0,1,.38,0A1.42,1.42,0,0,1,3,21.41Z" transform="translate(-0.26)"/><path class="bc" d="M4.17,18.62c-.06-.05-.11,0-.16,0s-.16.41-.15.65v0h0c0,.09,0,.19.09.21a.22.22,0,0,0,.21-.08.55.55,0,0,0,.17-.58.82.82,0,0,0-.16-.25m-.23.81s0,0,0,0h0s0-.05,0-.08h0l0,0H4v0l-.05,0s0,0,0,0l0,0s0,0,0,0l-.07,0s0,0,0,0h0s0,0,0,0l.13,0s0,0,0,0Zm0-.21v0l0,0a.43.43,0,0,0,0,.05Zm.07,0v0H4v0Zm0,0s0,0,0,0l0,0v0ZM4,19.2v-.05H4v.05Zm0,.27H4l.11,0Zm.21-.18a.35.35,0,0,1,0,.08h0l0,0h0s0,0,0,0,0,0,0,0,0,0,0,0h0l0,0a.24.24,0,0,0,.09-.06s0,0,0,0l-.1,0v0l0,0s0,0,0,0H4v-.05l0,0s0,0,0,0H4v0H4v0H4v0H4v0h0v0S4,19.07,4,19s0,0,0,0l0,0h0a.57.57,0,0,1,0-.13A.45.45,0,0,1,4,18.71s.07-.06.11,0a.44.44,0,0,1,.08.11A.44.44,0,0,1,4.21,19.29Z" transform="translate(-0.26)"/><polyline class="bc" points="3.66 19.39 3.66 19.39 3.66 19.39"/><path class="bc" d="M4.79,19.94a.5.5,0,0,0-.27,0A.85.85,0,0,0,4.3,20h0c-.13,0-.11.22,0,.3a.44.44,0,0,0,.51,0c.09-.08.13-.27,0-.34m-.36.11h0a.21.21,0,0,0,.06.1H4.4a.09.09,0,0,1,0-.07Zm0,.15,0,0H4.41l0,0a.25.25,0,0,1-.08-.07l.09,0Zm-.13-.1.07,0a0,0,0,0,0,0,.05l-.07,0Zm.48.1a.41.41,0,0,1-.31.11.19.19,0,0,1-.19-.09.34.34,0,0,1,0-.1h0a.12.12,0,0,0,0,.08s0,0,0,0l.1,0a.1.1,0,0,0,.09,0H4.6s0,0,0,0l-.15-.07s0,0,.07,0h0a.17.17,0,0,0,.11.06s0,0,0,0l-.09-.06h0A.44.44,0,0,1,4.45,20l.08,0a.37.37,0,0,1,.18,0C4.8,20,4.82,20.12,4.77,20.2Z" transform="translate(-0.26)"/><path class="bc" d="M2.71,19.53a1.21,1.21,0,0,1-.07-.43,0,0,0,1,0,0,0,.94.94,0,0,0,.07.5c0,.1.15.21.27.19s0,0,0,0a.48.48,0,0,1-.24-.23" transform="translate(-0.26)"/><path class="bc" d="M2.48,20.62a1.45,1.45,0,0,0-.17.18.81.81,0,0,1-.24.17,2.29,2.29,0,0,1-.51.15h0A.66.66,0,0,0,2.07,21a.86.86,0,0,0,.43-.39s0,0,0,0" transform="translate(-0.26)"/><path class="bc" d="M3,20.53a.7.7,0,0,1-.23-.44h0a.65.65,0,0,0,.05.31,1.57,1.57,0,0,0,.2.25.66.66,0,0,1,.26.7s0,0,0,0,.06-.4,0-.55A3.58,3.58,0,0,0,3,20.53" transform="translate(-0.26)"/><path class="bc" d="M3.4,21s0,0,0,0a.64.64,0,0,1,.24-.36.48.48,0,0,1,.42,0s0,0,0,0c-.26-.23-.71.05-.7.41" transform="translate(-0.26)"/><path class="bc" d="M4.1,19.9a.39.39,0,0,1-.37-.32A2.06,2.06,0,0,1,3.67,19a0,0,0,1,0,0,0,1.45,1.45,0,0,0,.1.72c.07.14.23.28.38.19a0,0,0,0,0,0,0" transform="translate(-0.26)"/><path class="bc" d="M2.34,21.83a.61.61,0,0,0-.12.15,2.76,2.76,0,0,0-.08.27s0,.05,0,0a.22.22,0,0,0,.06-.14.54.54,0,0,1,.1-.2.48.48,0,0,1,.36-.14s0,0,0,0a.37.37,0,0,0-.36.07" transform="translate(-0.26)"/><path class="bc" d="M2.06,21.27a.28.28,0,0,0-.37.13h0a.28.28,0,0,1,.39,0c.13.09.15.23.22.36s0,0,0,0a.51.51,0,0,0-.28-.43" transform="translate(-0.26)"/><path class="bc" d="M4.17,21.36a.88.88,0,0,0-.26-.12.32.32,0,0,1-.17-.41h0a.35.35,0,0,0,0,.34h0l-.17.11s0,0,0,0a.66.66,0,0,0,.17-.12h0a.27.27,0,0,0,.07.08,1.22,1.22,0,0,0,.24.1.23.23,0,0,1,.09.37s0,0,0,0a.24.24,0,0,0,0-.39" transform="translate(-0.26)"/><path class="bc" d="M3.4,18.68s-.07-.11,0-.06h0l-.06-.05h0a.42.42,0,0,0,0,.15,2,2,0,0,1,0,.24c0,.13,0,.26,0,.4a0,0,0,0,0,0,0,.9.9,0,0,0,0-.46,1.05,1.05,0,0,0-.06-.24" transform="translate(-0.26)"/><path class="bc" d="M2.87,18.76a.55.55,0,0,0,0,.42h0s0,0,0,0h0v0s0,0,0,0a.49.49,0,0,1,0,.11s0,0,0,0l0,.12s0,0,0,0,.23,0,.28-.1a.82.82,0,0,0,0-.67c-.1-.15-.28-.18-.38,0m.07.55,0-.06h0a.13.13,0,0,0,0,.06Zm0,0H3Zm0-.05a.17.17,0,0,1,0-.05l0,0s0,0,0,.05S3,19.29,3,19.3Zm0,.09v0l.06,0h0Zm.11,0,.05,0-.09,0,0,0Zm-.14,0H3l0,0,0,0Zm0,.05H3s0,0,0,0Zm0,.06H3v0H3l0,0H3S3,19.46,3,19.45Zm0,.05,0,0,.06,0A.09.09,0,0,1,3,19.5Zm.18-.07-.05.06h0l0,0,.08-.05h0Zm.06-.24a1.29,1.29,0,0,1,0,.19l-.08,0,0,0s0,0,0,0l-.06,0h0l.11-.07a0,0,0,0,0,0,0l-.13.07v0l.07-.05s0,0,0,0l-.08,0a.05.05,0,0,1,0,0l.08-.05s0,0,0,0l-.09,0H3l-.06,0v0A.29.29,0,0,0,3,19.09s0,0,0,0a.52.52,0,0,0-.13.06v0h0L3,19s0,0,0,0l-.07,0h0a.39.39,0,0,1,0-.24.15.15,0,0,1,.23-.07C3.27,18.85,3.27,19,3.26,19.19Z" transform="translate(-0.26)"/><path class="bc" d="M2.47,22.36a.24.24,0,0,1-.07-.12h0a.17.17,0,0,0,.06.14.12.12,0,0,0,.14,0s0,0,0,0a.19.19,0,0,1-.13,0" transform="translate(-0.26)"/><path class="bc" d="M4.12,23.08a2,2,0,0,1-.49.24,1.54,1.54,0,0,1-.52.09,0,0,0,1,0,0,0H2.74s0,0,0,0a2.9,2.9,0,0,0,.51,0s0,0,0,0H3.14a1.49,1.49,0,0,0,1-.35s0,0,0,0" transform="translate(-0.26)"/><path class="bc" d="M.64,22.18A1,1,0,0,1,.57,22c0-.05,0-.12-.07-.17h0a.78.78,0,0,0,.13.34.87.87,0,0,0,.23.27s0,0,0,0a1.44,1.44,0,0,1-.22-.27" transform="translate(-0.26)"/><path class="bc" d="M5.16,22.27c-.16.15-.32.31-.49.45a4,4,0,0,1-.54.37s0,0,0,0a3.52,3.52,0,0,0,1-.83s0,0,0,0" transform="translate(-0.26)"/><path class="bc" d="M2,19.89a.6.6,0,0,1-.15.09L1.69,20h0a.44.44,0,0,0,.3-.12s0,0,0,0" transform="translate(-0.26)"/><path class="bc" d="M2.05,20a2.28,2.28,0,0,0-.3.17,0,0,0,1,0,0,0,2.38,2.38,0,0,0,.3-.18s0,0,0,0" transform="translate(-0.26)"/><path class="bc" d="M2.25,19.94l-.35.19s0,0,0,0a2.43,2.43,0,0,0,.35-.2h0" transform="translate(-0.26)"/><path class="bc" d="M2.32,20c-.08,0-.15.11-.23.16s0,0,0,0L2.33,20s0,0,0,0" transform="translate(-0.26)"/><path class="bc" d="M2.49,20l-.18.11s0,0,0,0A1.88,1.88,0,0,0,2.5,20s0,0,0,0" transform="translate(-0.26)"/><path class="bc" d="M2.37,20.09s0,0,0,0l0,0s0,0,0,0l0,0" transform="translate(-0.26)"/><path class="bc" d="M1.48,21.62l-.2.16s0,0,0,0l.2-.17s0,0,0,0" transform="translate(-0.26)"/><path class="bc" d="M1.43,21.76l-.06,0s0,0,0,0l.05,0s0,0,0,0" transform="translate(-0.26)"/><path class="bc" d="M1.61,22.06a1.77,1.77,0,0,0-.17.12s0,0,0,0a1,1,0,0,0,.16-.14s0,0,0,0" transform="translate(-0.26)"/><path class="bc" d="M1.5,22.25s0,0,0,0l.07-.05.07-.06h0a.42.42,0,0,1-.14.09" transform="translate(-0.26)"/><path class="bc" d="M2.2,22.37a2,2,0,0,1-.23.18s0,0,0,0a1.1,1.1,0,0,0,.23-.2s0,0,0,0" transform="translate(-0.26)"/><path class="bc" d="M2.76,19.84,2.61,20l-.13.11h0A.67.67,0,0,0,2.63,20l.14-.12s0,0,0,0" transform="translate(-0.26)"/><path class="bc" d="M2.79,20c-.12.08-.23.18-.34.27s0,0,0,0A3.17,3.17,0,0,0,2.8,20s0,0,0,0" transform="translate(-0.26)"/><path class="bc" d="M3.62,20.87a.8.8,0,0,0-.19.18s0,0,0,0a1.62,1.62,0,0,0,.18-.19s0,0,0,0" transform="translate(-0.26)"/><path class="bc" d="M3.57,21.05l-.1.09s0,0,0,0l.1-.09A.24.24,0,0,0,3.67,21s0,0,0,0-.07,0-.09.06" transform="translate(-0.26)"/><path class="bc" d="M3.68,21.11l-.17.11h0s0,0,0,0a.4.4,0,0,0-.24.37c0,.23.12.48-.11.62,0,0,0,0,0,0s.2-.16.21-.28,0-.24,0-.36a.5.5,0,0,1,.16-.34h0a.36.36,0,0,0,.18-.14s0,0,0,0" transform="translate(-0.26)"/><path class="bc" d="M3.07,20l-.26.2a0,0,0,1,0,0,0A.66.66,0,0,0,3.08,20s0,0,0,0" transform="translate(-0.26)"/><path class="bc" d="M3.09,20.12l-.18.18s0,0,0,0a1.54,1.54,0,0,0,.17-.19h0" transform="translate(-0.26)"/><path class="bc" d="M3.08,20.25l-.06,0s0,0-.06,0,0,0,0,0a.2.2,0,0,0,.12-.08s0,0,0,0" transform="translate(-0.26)"/><path class="bc" d="M3.18,20.35a.71.71,0,0,0-.09.07.33.33,0,0,1-.1.06s0,0,0,0a.4.4,0,0,0,.19-.15s0,0,0,0" transform="translate(-0.26)"/><path class="bc" d="M3.13,20.55h0s0,0,0,0h0s0,0,0,0" transform="translate(-0.26)"/><path class="bc" d="M3.69,18.26l-.12.12-.15.1s0,0,0,0a.47.47,0,0,0,.27-.23s0,0,0,0" transform="translate(-0.26)"/><path class="bc" d="M3.68,18.48a1.77,1.77,0,0,0-.22.16s0,0,0,0a1.92,1.92,0,0,0,.22-.18s0,0,0,0" transform="translate(-0.26)"/><path class="bc" d="M3.57,18.66h0s0,.06,0,0v0s0,0,0,0" transform="translate(-0.26)"/><path class="bc" d="M2.51,18.88a.12.12,0,0,1-.1,0h0a.08.08,0,0,0,.11,0,0,0,0,0,0,0,0" transform="translate(-0.26)"/><path class="bc" d="M3.19,22.29l-.11.08-.1.11a0,0,0,0,0,0,0l.12-.1.1-.1s0,0,0,0" transform="translate(-0.26)"/><path class="bc" d="M3.1,22.45a.27.27,0,0,1-.07.08s0,0,0,0a.23.23,0,0,0,.07-.1s0,0,0,0" transform="translate(-0.26)"/><path class="bc" d="M5.77,17.65a3.45,3.45,0,0,0-.28.26s0,0,0,0,.19-.17.27-.26,0,0,0,0" transform="translate(-0.26)"/><path class="bc" d="M6.12,18a1.16,1.16,0,0,0-.29.25,0,0,0,1,0,0,0c.09-.09.2-.17.29-.25s0,0,0,0" transform="translate(-0.26)"/><path class="bc" d="M6.21,18.25a.48.48,0,0,0-.14.2s0,0,0,0a1.48,1.48,0,0,1,.13-.21s0,0,0,0" transform="translate(-0.26)"/><path class="bc" d="M8,21.77c-.22.13-.43.26-.66.38,0,0,0,0,0,0A6.21,6.21,0,0,0,8,21.79s0,0,0,0" transform="translate(-0.26)"/><path class="bc" d="M8,21.93a.6.6,0,0,1-.21.08,0,0,0,1,0,0,0A.47.47,0,0,0,8,22s0,0,0,0" transform="translate(-0.26)"/><path class="bc" d="M7.14,16.29c-.13.13-.26.26-.4.38l-.21.17a.48.48,0,0,1-.24.11h0a.74.74,0,0,0,.44-.24,2.27,2.27,0,0,0,.41-.41s0,0,0,0" transform="translate(-0.26)"/><path class="bc" d="M7,16.84a1.66,1.66,0,0,1-.42.29s0,0,0,0A1.18,1.18,0,0,0,7,16.85s0,0,0,0" transform="translate(-0.26)"/><polyline class="bc" points="6.34 17.24 6.34 17.23 6.34 17.24"/><polyline class="bc" points="6.58 17.08 6.58 17.07 6.58 17.08"/><path class="bc" d="M7.84,18.43a2.09,2.09,0,0,0-.22.2,0,0,0,1,0,0,0c.07-.07.15-.13.22-.21s0,0,0,0" transform="translate(-0.26)"/><path class="bc" d="M8.29,18.47,8,18.73a.5.5,0,0,0,0-.12.6.6,0,0,1,.08-.08h0L8,18.59a2.91,2.91,0,0,0-.12-.39l.08-.07s0,0,0,0l-.08.06a.78.78,0,0,0,0-.14L7.88,18s0,0,0,0a.39.39,0,0,0-.1.08l0-.09.11-.11h0l-.11.1a.59.59,0,0,1,0-.08l.11-.1s0,0,0,0l-.12.09,0-.08.09-.08s0,0,0,0l-.09.06-.07-.13.13-.12s0,0,0,0l-.13.1-.09-.15.1-.1s0,0,0,0l-.11.08-.11-.17.08-.07s0,0,0,0a.27.27,0,0,0-.08.07l-.06-.09v0l.1-.1a0,0,0,0,0,0,0L7.24,17a.76.76,0,0,1-.08-.11l0-.05s0,0,0,0l-.05,0L7,16.7A.46.46,0,0,0,7,16.63s0,0,0,0L7,16.68s0,0,0-.05,0,0,0,0l0,.05a2.19,2.19,0,0,1-.46.34,0,0,0,1,0,0,0A1.57,1.57,0,0,0,7,16.72a1.73,1.73,0,0,1,.17.21L7.05,17,7,16.91s0,0,0,0L7,17l-.13.11-.14.11a.86.86,0,0,1-.16.1h0l.17-.09.16-.11.13-.1.07.09a3.08,3.08,0,0,1-.41.3s0,0,0,0,.2-.13.3-.21a.86.86,0,0,0,.07.1h0l-.32.23s0,0,0,0l.35-.23.11.15-.17.13,0,0h0v0l-.13.08s0,0,0,0l.14-.08.11.15L7,18s0,0,0,0l.21-.14A.76.76,0,0,0,7.3,18L7.2,18a0,0,0,1,0,0,0,.27.27,0,0,0,.1-.06l0,.06h0l0-.05.14-.09a.59.59,0,0,0,0,.08l-.16.13s0,0,0,0L7.51,18l0,.08,0,0s0,0,0,0l0,0,0,.1h0s0,0,0,0h0l0,.13-.14.13s0,0,0,0l.14-.12,0,.13s0,0,0,0l0-.14.15-.13v0s0,0,0,0v0h0c0,.06,0,.13.07.2s0,.12,0,.18l-.29.25s0,0,0,0L8,18.63l0,.11a1.86,1.86,0,0,1-.32.23s0,0,0,0A3.62,3.62,0,0,0,8,18.78,1.74,1.74,0,0,1,8,19s0,0,0,0a1.57,1.57,0,0,0,0-.23,2,2,0,0,0,.29-.29h0M7.76,18h0a.3.3,0,0,0,0-.08l0,0Zm0-.1h0a.3.3,0,0,1,0-.08l0,0Zm0-.11,0,0a.3.3,0,0,0,0-.08l0,0A.3.3,0,0,0,7.67,17.83Zm-.06-.11,0,0a.75.75,0,0,1-.07-.12l0,0Zm-.08-.16,0,0a.71.71,0,0,0-.1-.14l0,0Zm-.06.05-.08.07a1.3,1.3,0,0,0-.1-.15l.09-.07Zm0-.23,0,0-.12-.16.05-.05Zm-.13-.2,0,.05a.86.86,0,0,1-.07-.1l.06-.05ZM7.07,17,7.14,17l.08.11-.07,0Zm.06.32L7,17.24l.12-.09a.86.86,0,0,1,.07.1Zm0,0a.39.39,0,0,0,.1-.08l.12.17-.1.07A1,1,0,0,0,7.15,17.35Zm0,.46a1.34,1.34,0,0,0-.11-.14l.18-.12.09.15Zm.1.14a.44.44,0,0,0-.08-.11l.16-.11,0,.09v0Zm.11-.24.08-.07a.75.75,0,0,1,.07.12l-.09.07Zm.08.15.09-.07,0,.07-.1.09Zm0,.11.11-.08a.59.59,0,0,0,0,.08l-.11.08S7.54,18,7.53,18Zm0,.1L7.69,18a.59.59,0,0,0,0,.08l-.12.1A1,1,0,0,1,7.57,18.07Zm.08.27a.57.57,0,0,0,0-.14l.13-.11.06.12Zm.16-.14a.61.61,0,0,1,0-.12h0a1.12,1.12,0,0,0,.05.13Z" transform="translate(-0.26)"/><path class="bc" d="M8.18,19.26a4.39,4.39,0,0,1,0,1.84h0a3.86,3.86,0,0,0,0-1.85s0,0,0,0" transform="translate(-0.26)"/><path class="bc" d="M8.15,19.52a2.67,2.67,0,0,1,0,1.09s0,0,0,0a2.32,2.32,0,0,0,0-1.11s0,0,0,0" transform="translate(-0.26)"/><path class="bc" d="M8.05,19.58a4.1,4.1,0,0,1,0,1.05s0,0,0,0a2.48,2.48,0,0,0,0-1.05s0,0,0,0" transform="translate(-0.26)"/><path class="bc" d="M8.94,17A3.16,3.16,0,0,0,7.4,15.55a2.69,2.69,0,0,0-2.19,0A.44.44,0,0,0,5,15.51s0,0,0,0-.13-.17-.19-.25-.15-.24-.21-.36a6,6,0,0,1-.36-.77,0,0,0,0,0-.05,0,1,1,0,0,0-.27.19H4c.13.26.29.51.44.76-.05,0,0,.14,0,.21l.3.44h0s0,0,0,0l0,.08v0h0a0,0,0,0,0,0,0h0s0,0,0,0a1.83,1.83,0,0,0-.91,1.31s0,0,0,0a3.11,3.11,0,0,0-2.08.63,3.92,3.92,0,0,0-1.18,4,3,3,0,0,0,1.18,1.74,2.82,2.82,0,0,0,1.8.44A3,3,0,0,0,3.92,24s0,0,0,0H4a3.92,3.92,0,0,0,2-1.69,2,2,0,0,0,1.14.14A2.39,2.39,0,0,0,8.21,22a3.17,3.17,0,0,0,1-1.42,3.82,3.82,0,0,0,.2-1.2c0-.23,0-.46,0-.7A4.26,4.26,0,0,0,8.94,17M5.05,15.6h0Zm-.42-.09-.09-.14,0-.07a.13.13,0,0,1,0-.13,0,0,0,0,0,0-.06c-.15-.26-.3-.54-.47-.79l.16-.09a6,6,0,0,0,.35.77c.07.13.15.25.23.38a3.15,3.15,0,0,0,.22.29v0H5l-.09.05h0c-.08-.15-.18-.3-.27-.46l-.12-.23a1.67,1.67,0,0,0-.12-.23h0a1.22,1.22,0,0,0,.1.24c0,.08.08.16.12.24l.09.18-.07-.11s-.06-.09-.06-.13h0a.41.41,0,0,0,0,.11,1,1,0,0,0,.08.14l.19.27h0a.06.06,0,0,0,0,0h0v0Zm.15.34,0,0h0ZM4,16.64l.13-.1a.27.27,0,0,0,0,.12l-.22.22A1.79,1.79,0,0,1,4,16.64Zm.11.51a.25.25,0,0,0,.05.13l0,0L4,17.3Zm0-.25a.59.59,0,0,0,0-.08l0,.16a.15.15,0,0,1,0-.07Zm.1.25a.09.09,0,0,0,0,.05l0,0a.57.57,0,0,1,0-.14L4.16,17Zm.15.16s0,.05,0,.07l-.06,0Zm0-.32v0h0Zm0,.36,0-.14.08-.1h0a.77.77,0,0,0,0,.15h0A.22.22,0,0,0,4.25,17.35Zm0,0-.1,0,0,0h0s0,0,0,0h0l0,0A.29.29,0,0,0,4.21,17.35Zm-.15-.25a2.43,2.43,0,0,0-.14.2h-.1L4,17a.8.8,0,0,0,0,.15Zm-.33.17A1.16,1.16,0,0,1,3.81,17L4,16.73a.91.91,0,0,0,0,.17c-.09.12-.17.25-.25.38h0ZM.54,22.11a3.92,3.92,0,0,1,.82-3.9,3.11,3.11,0,0,1,3.12-.7,3.12,3.12,0,0,1,.39.15h0l.13.07s0,0,0,0a2.77,2.77,0,0,1,1,1.75,3.47,3.47,0,0,1-.37,2.13,3.22,3.22,0,0,1-3.44,1.87A2.55,2.55,0,0,1,1.25,23a3.17,3.17,0,0,1-.69-.88Zm4.24-4.66s0,0,0,.06l-.19-.07.15-.17.09-.12a.69.69,0,0,0,0,.24Zm.06,0,.06.13h0l-.14-.05,0-.05ZM6.31,19a2.67,2.67,0,0,1,.25,1.4s0,0,0,0-.08.29-.13.43h0s0-.07,0-.1h0s0,0,0,0a1.69,1.69,0,0,0,0-.32c0-.1,0-.2,0-.31s0-.09,0-.14a.86.86,0,0,0,0-.28l0,.07c0,.05,0,.11.05.16s0,.13,0,.2,0,0,0,0v-.05c0,.11,0,.22,0,.33s0,0,0,0a1.57,1.57,0,0,0-.08-.52,2.63,2.63,0,0,0-.06-.39,2.09,2.09,0,0,0-.11-.3,2.78,2.78,0,0,0-.16-.4h0c0,.1.08.2.11.3l-.09-.17h0a2,2,0,0,1,.1.21,2,2,0,0,1,0,.24.78.78,0,0,1,0,.16l0-.09-.07-.11v-.05a3,3,0,0,0-.18-.6s0,0,0,0a3.65,3.65,0,0,1,.16.59l-.09-.11h0a.6.6,0,0,1,.09.13c0,.1,0,.2,0,.3a.25.25,0,0,1,0,.08l-.07-.11a.83.83,0,0,0,0-.22,3.28,3.28,0,0,0-.3-.83,0,0,0,0,0,0,0,3.48,3.48,0,0,1,.29.82,2.56,2.56,0,0,1,0,.47c0,.16,0,.32,0,.47s0,0,0,0a1.94,1.94,0,0,0,0-.34,1.28,1.28,0,0,1,.11.27,2.81,2.81,0,0,1,.08.31l0,.25c0,.07,0,.14-.07.2a.34.34,0,0,0,0-.1h0a2.55,2.55,0,0,0,0-.39h0a1.66,1.66,0,0,1,0,.32,3.06,3.06,0,0,0-.1-.51s0,0,0,0a3.91,3.91,0,0,1,.1.58v0a2.17,2.17,0,0,1-.07.24,2.07,2.07,0,0,0-.13-.61,3.44,3.44,0,0,0,0-.85,2.89,2.89,0,0,0-.79-1.8l.33.26h0a3.05,3.05,0,0,1,.59.74v0a0,0,0,0,0,0,0,.16.16,0,0,0,0,.07A0,0,0,0,0,6.31,19Zm.07,1.49a1.68,1.68,0,0,0-.09-.32,1.34,1.34,0,0,0-.13-.27.48.48,0,0,0,0-.12,1.85,1.85,0,0,0,0-.23.61.61,0,0,1,.07.14,1.09,1.09,0,0,0,0,.18h0a.38.38,0,0,0,0-.1c0,.1.07.21.1.31s0,.21.05.31v.23C6.39,20.61,6.39,20.57,6.38,20.53Zm0,.33V21c0,.06,0,.12-.07.17a.28.28,0,0,0,0-.09,1.18,1.18,0,0,0,.07-.2Zm-.06-1.18a2.26,2.26,0,0,1,0,.26,1.34,1.34,0,0,0-.07-.18c0-.06,0-.11,0-.17l0-.22c0,.08.08.16.12.24Zm0-.37a2.36,2.36,0,0,1,.1.46v0l0-.11,0-.24S6.32,19.33,6.32,19.31Zm-.12,2a1.54,1.54,0,0,0,.08-.19v.06s0,0,0,0a1.42,1.42,0,0,1-.08.18Zm0-.07h0A1.46,1.46,0,0,0,6.27,21v0A1.08,1.08,0,0,1,6.2,21.24Zm-.15.27,0,0v0a1.09,1.09,0,0,0-.08.15v0a2.53,2.53,0,0,0,0-.28c0-.09,0-.18,0-.26S6,20.89,6,20.8a4.75,4.75,0,0,1,.05.53v.1l0,.07S6,21.52,6.05,21.51Zm0,.08h0s0,.06,0,.1,0,.08-.07.13v-.1A.64.64,0,0,0,6.06,21.59Zm0-.79a1.89,1.89,0,0,0,.05-.23,5.67,5.67,0,0,1,.1.57v.09a.91.91,0,0,1-.07.14v0A1.55,1.55,0,0,0,6,20.8Zm.08.72.06-.12v.07s0,.09-.07.14h0A.38.38,0,0,0,6.1,21.52Zm0-.13,0,.06v0a.54.54,0,0,0,.07-.13h0A.59.59,0,0,1,6.13,21.39ZM3.48,23.56a1.29,1.29,0,0,0-.16.17l-.11,0,.14-.18a2,2,0,0,0,.33-.09l-.12.15-.18.07a.76.76,0,0,0,.11-.14S3.48,23.55,3.48,23.56Zm-.31.1L3,23.8H2.87L3,23.68a0,0,0,0,0,0,0l-.15.14H2.67l.19-.15a3.78,3.78,0,0,0,.47-.06l-.18.18-.09,0,.12-.12S3.17,23.65,3.17,23.66Zm-.67.1h0l.07-.06h0l-.09.06h0l-.09,0,.08-.08.25,0Zm.18-.11h.14a1.33,1.33,0,0,0-.19.14l-.09,0Zm-.39,0-.08,0,0,0s0,0,0,0l0,0-.1-.07h0s0,0,0,0h0l0,0,.34.08Zm-.21-.1a.2.2,0,0,0,.09.06l-.06.05,0,.05L2,23.7l0,0Zm0,.14.06-.06.08,0a.39.39,0,0,0-.1.08l-.08,0Zm.18,0,.08,0h0l-.06,0,0,0,0,0h0Zm.06.09.06,0h0l-.1.08H2.32Zm.13,0,.1,0-.09.08-.1,0Zm.14,0h.14l-.09.08-.15,0ZM1.5,23.48l.09-.08s0,0,0,0l-.1.07-.12-.1a.12.12,0,0,0,.09,0,0,0,0,0,0,0,0l-.11,0a3.08,3.08,0,0,1-.56-.71,2.53,2.53,0,0,0,1,.8l-.09.06-.09.05Zm.11.07a.62.62,0,0,0,.17-.11l.15.06.1,0,0,0L2,23.65l-.05,0-.13-.06a.28.28,0,0,0,.1-.09,0,0,0,0,0,0,0,.31.31,0,0,1-.11.09l-.06,0h0l0,0h0Zm.4.23a1.91,1.91,0,0,1-.28-.15h0l.13.07h0l.12.06Zm.11,0-.08,0h0a.2.2,0,0,0,.08,0Zm.12,0-.08,0h0l.07,0h0Zm.09,0H2.27l0,0,0,0Zm.31.08-.28-.07h0a1.27,1.27,0,0,0,.28.06Zm.15,0H2.68l0,0h.11Zm-.06-.06,0,0,.08-.07H3l-.1.09,0,0h0Zm.1.07a.46.46,0,0,1,.07-.07l.1-.09h.09L2.93,24h0l.21-.17.11,0a1,1,0,0,0-.16.2Zm.28,0,.18-.2v0a.6.6,0,0,0,.19-.06l0,0L3.26,24Zm.2,0,.18-.22.07-.09.09-.05s0,0,0,0h0a.64.64,0,0,0,.08-.14h0l.15-.06a3.54,3.54,0,0,1-.41.58Zm.18,0,.07-.09h.09L3.59,24Zm.15,0,.06-.08h.07L3.71,24ZM4,23.86l-.2.07h0l.06-.07.2-.06Zm.4-.49-.06,0a2.12,2.12,0,0,0,.11-.21l.19-.07a2.91,2.91,0,0,1-.17.3l0,0-.22.11.08-.12.1-.06S4.4,23.37,4.39,23.37ZM5,23,4.86,23l0,0,.13-.1Zm.18-.05L5,23.18a1.33,1.33,0,0,1-.19.14,1.4,1.4,0,0,0,.1-.16c0-.05.05-.09.07-.13Zm-.23.17c0,.07-.12.21-.19.31l-.19.13.13-.18h0l0-.09.06-.09Zm-.24.38s0,0,0,0h0Zm-.23,0,.12-.08-.13.15-.08.05Zm-.16.16-.19.09.07-.11.21-.1Zm.49-.57-.13.06s0,.06,0,.05l.06,0,0,0-.09.14-.13.08a1.82,1.82,0,0,0,.16-.31A.61.61,0,0,0,4.81,23Zm-.6.47,0,.05-.2.08L4,23.59l.21-.1Zm-.07.1a.41.41,0,0,1-.07.11l-.2.07a.44.44,0,0,0,.08-.11Zm.07.13L4,23.85l0-.05.17-.08Zm.71-.42a3.34,3.34,0,0,1-.65.4l.06-.08.07,0,0,0s0,0,0,0l.09-.09.17-.11h0c0,.07.1,0,.12-.07l0-.05a1.56,1.56,0,0,1,.2-.16l-.08.12ZM5,23.31a2.12,2.12,0,0,0,.27-.49l0,0a0,0,0,0,0,0,0,2,2,0,0,0,.15-.6s0,0,0,0a4.4,4.4,0,0,1-.18.62h0l-.17.12,0-.05a1,1,0,0,0,.19-.21s0,0,0,0l-.12.1.06-.21h0l-.09.26-.14.1A1.8,1.8,0,0,0,5,22.66a0,0,0,0,0,0,0l-.12.28L4.7,23s0,0,0-.05h0l0,.07a1.71,1.71,0,0,1-.23.13v0s0,0,0,0l-.17.28-.22.12a1.18,1.18,0,0,0,.11-.19s0,0,0,0L4,23.6l0,0H4l0,.08h0l0,0s0,0,0,0h0l-.06.09,0,0-.08,0,.08-.1A2.21,2.21,0,0,0,4,23.43H4c-.07.1-.12.22-.19.32l-.1.13-.1,0a1.66,1.66,0,0,0,.29-.48h0l.1-.05a3.88,3.88,0,0,0,2-2.28c0,.08,0,.17,0,.26v.27a.28.28,0,0,1,0,.09.41.41,0,0,1,0,.09,1.48,1.48,0,0,0,0-.21.61.61,0,0,0,0-.23h0c0,.08,0,.16,0,.24a2,2,0,0,1,0,.25v0L5.78,22s0,0,0,0l0-.05a.65.65,0,0,1,0,.13.14.14,0,0,1,0,.06l-.09.13a4.9,4.9,0,0,0,.11-.65,0,0,0,0,0,0,0c0,.22-.08.44-.13.66l0,.06-.12.17a2.36,2.36,0,0,0,.1-.53h0a4.18,4.18,0,0,1-.15.61h0l0,.05s0,0,0,0h0a2.44,2.44,0,0,1-.1.24l-.09.2A3,3,0,0,1,5,23.31Zm1-1.52s0,.06,0,.09h0L5.85,22a.83.83,0,0,0,0-.15Zm-.41,1L5.3,23l.07-.14a2.33,2.33,0,0,0,.11-.28v0l.14-.16a1,1,0,0,0,0,.17C5.57,22.64,5.56,22.7,5.54,22.76Zm.4-.55s0,0,0,0-.22.31-.34.46a.24.24,0,0,0,0-.08c0-.09.05-.19.08-.29l.05-.07a.06.06,0,0,0,0,0s0,0,0,0a.42.42,0,0,0,.09-.19A1,1,0,0,0,5.93,22a1.23,1.23,0,0,0,0,.19s0,0,0,0a1.09,1.09,0,0,0,0-.26H6L6,21.78a.25.25,0,0,0,0,.08s0,0,0,0a1,1,0,0,0,0-.18l0-.07a.56.56,0,0,1,0-.08.65.65,0,0,1,0,.2s0,0,0,0,.05-.15.06-.22v-.08a1.42,1.42,0,0,0,.08-.18v.19s0,0,0,0a1.31,1.31,0,0,0,0-.28L6.38,21v.15s0,0,0,0a1.06,1.06,0,0,0,0-.25c0-.15.1-.3.14-.45a3.53,3.53,0,0,1-.1.55c0,.09,0,.18-.08.26h0A4.87,4.87,0,0,1,5.94,22.21Zm.85.08-.16,0,.14-.12.12.05-.1.09Zm-.23-1.13a.76.76,0,0,1,.08.11l-.11.09,0,.05,0,0s0-.09,0-.14Zm-.06,0,0-.06,0,0Zm.07.32.16-.13a.23.23,0,0,0,.07.07h0l-.14.12Zm.17.19h0l-.07,0-.09-.07.09-.07Zm-.12-.1-.08.07-.08-.06.08-.07Zm-.08.11.08.07-.16.13-.08-.06Zm-.11.22L6.28,22,6.22,22h0l.14-.11Zm0,0,.14.1-.16.13-.13-.11h0Zm0,0,.17-.13.08.07,0,0L6.62,22Zm.32,0,.11.07-.14.11L6.65,22Zm0,0,0,0-.07-.06.05,0,0,0,.09.06,0,0Zm-.13-.27.14-.11h0l.09.08-.15.11Zm.18-.14.12-.1.12.07L7,21.52Zm0,0-.08-.07.06-.06,0,0,.1.07Zm0-.15-.06.05,0,0,.11-.09,0,0h0Zm-.08.07-.16.13,0,0,0-.05.11-.09Zm-.24.09-.06.05,0-.08Zm0,0s0,0,0,0l-.08.07-.05,0Zm-.06.13-.12.12a1,1,0,0,0,.07-.15v0h0Zm0,0,.08.07-.17.14-.07-.07h0Zm-.11.22-.12.12h0l0,0a1.19,1.19,0,0,0,.08-.16ZM6.26,22l-.08.06-.06,0,.06-.12A.39.39,0,0,0,6.26,22Zm0,0a.53.53,0,0,0,.14.12l0,0h0l-.12-.07,0,0Zm.16.14h0l.11.06,0,0a.48.48,0,0,1-.14-.05h0Zm0,0h0l.15-.12.12.06-.14.12A.31.31,0,0,1,6.47,22.17Zm.34-.07L6.94,22l.1.06-.12.1Zm.27,0,.07,0s0,0,0,0L7.1,22l.12-.1h0l.11,0L7,22.2l-.07,0Zm0,0L7,22l0,0,.08-.06.11,0Zm-.13-.08-.11-.06.1-.08.11.06Zm0-.19-.06,0-.07,0L7,21.56l.12.08ZM7,21.54l.14-.11.15.07s0,0,0,0l-.12-.08.1-.07.16.07-.31.22Zm.14-.15L7,21.32l.1-.08.12.07ZM7,21.3l-.06-.05,0,0L7,21.16l.1.06Zm-.12-.09,0,0,0,0,0,0,.05,0Zm0-.09,0,0,0,0-.07-.05L6.75,21a.52.52,0,0,0,.11.1Zm-.06.05-.1.09-.09-.1.05,0,0,0Zm-.19-.05h0l0,0,0-.05a.08.08,0,0,1,0,0l0,0h0Zm0-.12h0Zm-.07,1.34L6,22.23l.09-.16,0,.05a.39.39,0,0,0-.1.08s0,0,0,0l.11-.09a1.28,1.28,0,0,0,.21.14l.12.05Zm1.93-.66a2.35,2.35,0,0,1-1.09.62,2.27,2.27,0,0,1-.68.06l-.12,0h0a.63.63,0,0,0,.19,0s0,0,0,0l-.15,0,0,0a.51.51,0,0,0,.24,0s0,0,0,0h0l.12-.1.07,0,0,0s0,0,0,0l.77-.54s0,0,0,0L7.37,22l-.1,0,.37-.27s0,0,0,0a2.23,2.23,0,0,0-.41.27l-.11,0,.42-.32s0,0,0,0a4.63,4.63,0,0,0-.46.31l-.12,0,.15-.12.11.06s0,0,0,0l-.09-.06.3-.22,0,0s0,0,0,0l0,0,.08-.06s0,0,0,0l-.1.07-.16-.08.12-.1s0,0,0,0l-.14.09-.12-.07L7.41,21s0,0,0,0l-.31.22L7,21.14l.41-.33s0,0,0,0a4.46,4.46,0,0,0-.43.33l-.06,0c.16-.14.33-.28.48-.44s0,0,0,0c-.17.13-.33.28-.5.43L6.77,21a.46.46,0,0,0,.07-.07c.16-.16.31-.32.45-.49,0,0,0,0,0,0l-.48.5-.06.05h0s0,0,0,0h0l-.09.09,0,0,.21-.22a2.76,2.76,0,0,0,.29-.3v0l-.29.28L6.57,21v0l0-.14.08-.09.15-.15a3.06,3.06,0,0,0,.3-.32h0l-.31.31-.14.15-.06.06,0-.18c.07-.07.13-.15.19-.22s.19-.17.27-.26,0,0,0,0a2.18,2.18,0,0,0-.28.25l-.16.18c0-.05,0-.11,0-.17l.21-.21a3.22,3.22,0,0,0,.24-.28s0,0,0,0a2.83,2.83,0,0,0-.24.25l-.2.21a1.31,1.31,0,0,0,0-.28,2.65,2.65,0,0,0,.42-.4s0,0,0,0c-.15.12-.28.25-.42.37l0-.24s0,0,.06,0l.11-.1A2.61,2.61,0,0,0,7,19.39a0,0,0,0,0,0,0,1.45,1.45,0,0,0-.18.17l-.09.09s-.08.1-.12.1h0s0-.06,0-.09h0a1.94,1.94,0,0,0,.29-.21s0,0,0,0a1.94,1.94,0,0,0-.29.21l0-.12h0a4,4,0,0,0,.35-.36s0,0,0,0-.24.23-.36.34c0-.05,0-.1,0-.15l.15-.13L6.82,19s0,0,0,0a1.07,1.07,0,0,0-.16.14l-.15.15h0a1.12,1.12,0,0,0,0-.13h0l.1-.09.2-.21s0,0,0,0-.11.1-.17.15l-.07.08-.06.07L6.38,19a1.16,1.16,0,0,0,.23-.26s0,0,0,0L6.36,19a.16.16,0,0,0,0-.07c.06-.08.13-.15.19-.22s0,0,0,0a1.12,1.12,0,0,0-.18.2.61.61,0,0,1-.07-.1,3,3,0,0,0,.24-.26s0,0,0,0a1.84,1.84,0,0,0-.23.25l-.09-.13h0c.06-.07.12-.13.17-.2s0,0,0,0l-.18.19h0L6,18.36H6l.25-.24s0,0,0,0a2.83,2.83,0,0,0-.25.24h0l-.22-.22A2.5,2.5,0,0,0,6,17.89s0,0,0,0a2.73,2.73,0,0,0-.25.23A.46.46,0,0,0,5.62,18l.12-.11c0-.06.11-.1.16-.16s0,0,0,0a.91.91,0,0,0-.16.13L5.6,18a1.88,1.88,0,0,0-.24-.18l.12-.08h0l0,0a1.29,1.29,0,0,0,.17-.16s0,0,0,0-.22.18-.33.27h0l0,0,0,0a2,2,0,0,0,.26-.24s0,0,0,0-.18.17-.27.25a.8.8,0,0,0-.16-.08l.24-.23s0,0,0,0a.61.61,0,0,0-.25.23l-.12-.05s0,0,0,0h0s0,0,0,0v0l.12-.14c0-.06.12-.12.17-.19s0,0,0,0a1,1,0,0,0-.18.18.69.69,0,0,0-.11.13,1.21,1.21,0,0,1,0-.14l0,0a1.73,1.73,0,0,0,.17-.21s0,0,0,0l-.18.2h0a2,2,0,0,1,0-.24L4.87,17h0l-.06.06a.45.45,0,0,1,0-.16s0,0,0,0a.64.64,0,0,0,0,.2l-.11.13a1.39,1.39,0,0,0-.15.19l-.16,0,0-.12.07-.09s0,.08,0,.12a.17.17,0,0,0,0,.05h0l0,0s0,0,0,.06,0,0,0,0a.17.17,0,0,1,0-.07,1.71,1.71,0,0,1,.11-.14c0-.07.11-.13.16-.21s0,0,0,0a1.81,1.81,0,0,0-.18.21l0,.06a.5.5,0,0,0,0-.12A.83.83,0,0,0,4.57,17s0,0,0,0l-.11.12,0-.23a2.68,2.68,0,0,1,0-.4s0,0,0,0a1.84,1.84,0,0,0,0,.33,1.61,1.61,0,0,0,0,.31v.07l0,0-.06.07s0-.09,0-.13v0l0,0,0,0s0,0,0,0,0,0,0-.06l0-.06s0,0,0,0l0,0,0-.1s0-.07,0-.11h0a.64.64,0,0,0,0,.07.77.77,0,0,1,.08-.52h0a.84.84,0,0,0-.11.38,1,1,0,0,0,0,.24v.12l-.09.11v0a.47.47,0,0,1,0-.17l.06-.09s0,0,0,0l0,0h0s0,0,0,0,0,0,0,.06l-.09.12a.87.87,0,0,1,0-.28s0,0,0,0h0a.43.43,0,0,0,0,.07.38.38,0,0,1,0-.15,1.46,1.46,0,0,0,.16-.19h0l-.14.13s0-.07,0-.11l0,0,.23-.18s0,0,0,0l-.25.19-.1.08.1-.14s0,0,0,0a2.88,2.88,0,0,1,.27-.22s0,0,0,0a1,1,0,0,0-.27.19l.11-.12A1.66,1.66,0,0,1,4.65,16v0s0,.06,0,0l.1-.11c.09,0,.19-.06.18-.09l.21,0a0,0,0,0,0,0,0,.23.23,0,0,0-.14,0,3.09,3.09,0,0,1,1-.31l-.1.09H6a2.35,2.35,0,0,0-.35.11h0a1.78,1.78,0,0,1,.33-.09H6l-.13.13-.09,0h0l.08,0-.06.06h0l.08-.07.24-.06L6,15.7H6l.12-.08h.07l-.13.11s0,0,0,0l.16-.13h.11l-.11.07s0,0,0,0l.14-.1h.06l0,0s0,0,0,0l0,0h0l.29,0s0,0,0,0a1.28,1.28,0,0,0-.34-.07l0,0s0,0,0,0l-.06,0H6.25l.06,0s0,0,0,0l-.09.06H6.14l0,0h0l-.06.06a1.14,1.14,0,0,0-.25.06L6,15.55l.27,0a1.22,1.22,0,0,1,.33,0,2,2,0,0,1,.35.08s0,0,0,0a1.79,1.79,0,0,0-.69-.11l-.24,0,.09-.08a2.54,2.54,0,0,1,1,.1,3.07,3.07,0,0,1,1.62,1.28,4.37,4.37,0,0,1,.55,2.29H9.2a1.34,1.34,0,0,0,0-.2l0-.28c0-.1-.05-.2-.07-.3h0c0,.09,0,.19.05.29l0,.3H9.12s0,0,0,0h.05c0,.06,0,.12,0,.18l-.1,0a4.88,4.88,0,0,0-.39-2c-.07-.14-.14-.28-.22-.41a1.27,1.27,0,0,0-.13-.19L8.2,16.4h0a2.16,2.16,0,0,1,.24.35,2,2,0,0,1,.19.36,4,4,0,0,1,.28.78,4.83,4.83,0,0,1,.15,1.26H9A3.24,3.24,0,0,0,8.85,18h0A3.73,3.73,0,0,1,9,19.17H9s0,0,0,0H9c0,.09,0,.18,0,.26H9s0,0,0,0H9c0,.13,0,.26,0,.39h0s0,0,0,0h0l0,.17h0s0,0,0,0h0s0,.08,0,.12l-.07,0h.07c0,.19-.07.37-.1.55h0l.09-.41h.06l0,.18h0a5.71,5.71,0,0,1-.35.65c-.12.19-.26.42-.47.49h0c.21,0,.34-.24.45-.42a3.68,3.68,0,0,0,.37-.71,1.6,1.6,0,0,1-.05.21h0a2.88,2.88,0,0,0,.09-.4H9c0,.09-.06.19-.1.29h0c0-.1.08-.2.11-.3a.23.23,0,0,0,.12-.1A3,3,0,0,1,8.41,21.68Zm-4-4.54h0a.42.42,0,0,0,0,.1l0,0A.5.5,0,0,0,4.43,17.14ZM9,19.49a1,1,0,0,1,0,.17H9s0,0,0,0H9v0c0,.06,0,.11,0,.17H9c0-.13,0-.27,0-.4Zm0,0c0-.09,0-.18,0-.26h0v.26Zm0,.45C9,20,9,20,9,20.05l-.06,0c0-.06,0-.11,0-.16Zm0,.17a.5.5,0,0,0,0,.12l-.07,0a.59.59,0,0,0,0-.13Zm0,.16a.78.78,0,0,1,0,.14H8.87l0-.13Zm0,0,.07,0a.85.85,0,0,1,0,.17l-.06,0Zm.06-.06-.06,0a.5.5,0,0,0,0-.12l.09,0,0,.12ZM9,20s0-.09,0-.13l.1,0,0,.13Zm0-.17a1.1,1.1,0,0,1,0-.18l.1,0,0,.19Zm0-.22s0-.11,0-.17l.1,0v.06s0,.07,0,.1A.19.19,0,0,1,9.06,19.65Zm0-.21a2.09,2.09,0,0,0,0-.25l.1,0a1.93,1.93,0,0,1,0,.24Zm.09.84h0a.26.26,0,0,1-.11.07c0-.05,0-.11.05-.17l.1,0Zm0-.18-.1,0s0-.08,0-.12l.09,0S9.2,20.07,9.2,20.1Zm0-.11-.09,0a.59.59,0,0,0,0-.13l.09,0A.77.77,0,0,0,9.22,20Zm0-.18-.08,0a1.37,1.37,0,0,0,0-.19.2.2,0,0,0,.08,0A1.36,1.36,0,0,1,9.24,19.81Zm0-.22-.08,0v-.08a.28.28,0,0,0,0-.09l.07,0Zm0-.23v0l-.08,0a1,1,0,0,0,0-.24l.08,0Z" transform="translate(-0.26)"/><path class="bc" d="M8.59,21c-.07.11-.13.22-.2.32l-.22.29h0a1.59,1.59,0,0,0,.42-.6s0,0,0,0" transform="translate(-0.26)"/><path class="bc" d="M6.47,16.75s0,0,0,0,.26-.22.38-.34,0,0,0,0a4,4,0,0,0-.38.34" transform="translate(-0.26)"/><path class="bc" d="M6.73,16.36a3,3,0,0,1-.36.26s0,0,0,0a1.14,1.14,0,0,0,.35-.27s0,0,0,0" transform="translate(-0.26)"/><path class="bc" d="M6.57,16.37a1.61,1.61,0,0,0-.3.21s0,0,0,0,.2-.14.29-.22,0,0,0,0" transform="translate(-0.26)"/><path class="bc" d="M6.4,16.29a3.37,3.37,0,0,1-.35.22s0,0,0,0a1.27,1.27,0,0,0,.34-.23s0,0,0,0" transform="translate(-0.26)"/><path class="bc" d="M6.18,16.26l-.26.15s0,0,0,0l.25-.17h0" transform="translate(-0.26)"/><path class="bc" d="M2.6,18.37a.58.58,0,0,0-.06-.26c-.12-.16-.31,0-.37.13a.41.41,0,0,0,.15.52h0c.08.08.22.11.26,0a.65.65,0,0,0,0-.14c0-.07,0-.15,0-.23m-.39.1v0l0-.05h0a.17.17,0,0,0,0,.07l0,.06S2.22,18.49,2.21,18.47Zm0,.08a.05.05,0,0,0,0,0l0,0,0,.05S2.25,18.57,2.24,18.55Zm.06.1,0,0,0,0,0,.05Zm0-.19,0,0s0,0,0,0v0Zm0,.05Zm0,.1v0s0,0,0-.05h0l0,0v.05Zm0-.07,0,0v0l0,.05v0Zm0,.1h0v0l0,0Zm0-.07v0l0,0h0Zm.12.17h0l-.1-.07v0h0l0,0s0,0,0,0l0,0h0l.07,0s0,0,0,0l-.06,0h0s0,0,0,0h0l0,0h0s0,0,0,0l0,0h0a.17.17,0,0,0,0-.05s0,0,0,0,0,0,0,0l0-.05a1,1,0,0,0,0-.1h0l0,.07v0h0l0-.06h0l-.05.11,0-.06a.32.32,0,0,0,0-.09s0,0,0,0a.47.47,0,0,0,0,.1v0c0-.14.24-.34.3-.11a1.38,1.38,0,0,1,0,.35C2.55,18.65,2.54,18.72,2.49,18.74Zm-.07-.14h0Z" transform="translate(-0.26)"/><path class="bc" d="M1.47,19.79c-.1-.09-.3-.2-.42-.14a.18.18,0,0,0,0,.28.47.47,0,0,0,.2.06c.07,0,.16.05.23,0s.08-.13,0-.19a0,0,0,0,0,0,0m-.37.1c-.06,0-.13-.08,0-.16s.1,0,.15,0a.46.46,0,0,0-.07.07l0,0,0,0s0,0,0,0l0,0h0l0,0h0l0,0Zm.28.05h0l.06,0S1.4,20,1.38,19.94Zm0,0a.86.86,0,0,1-.16,0h0l-.07,0a.23.23,0,0,0,.11-.11h0a.58.58,0,0,1-.12.1h0l0,0,.06-.09.17.08S1.43,19.86,1.42,19.9Z" transform="translate(-0.26)"/><polyline class="bc" points="4.66 19.15 4.66 19.14 4.66 19.15"/><path class="bc" d="M1.15,20.71h0l0,0,0,0s0,0,0,0a.58.58,0,0,0-.15.29s0,0,0,0h0v0c0,.15.08.26.21.16a.52.52,0,0,0,.22-.44.15.15,0,0,0-.2-.12M1,21.18v0H1l0,.06S1,21.2,1,21.18Zm0,.05s0-.05,0-.08h0l0,.08ZM1.24,21l-.05.09v-.06s0,0,0,0a.19.19,0,0,1,0,.07l0,.06h0l0,0,0-.08,0,0s0,0,0,0h0l0-.08s0,0,0,0l-.06.09h0a.5.5,0,0,0,0-.12h0l-.05.12H1A.43.43,0,0,0,1,21H1a.24.24,0,0,0,0,.08.58.58,0,0,1,.1-.24l0,0c.06,0,.15-.07.16.06A.27.27,0,0,1,1.24,21Z" transform="translate(-0.26)"/><path class="bc" d="M1.48,21.44s0,0,0,0H1.37a.14.14,0,0,0-.05.08.2.2,0,0,0-.12.13l-.07.05s0,0,0,0l.05,0a.34.34,0,0,0,0,.2.17.17,0,0,0,.31.06.47.47,0,0,0,0-.46l0,0m0,.36a.16.16,0,0,1-.11.14c-.07,0-.12-.07-.13-.14v-.05l.1-.07.12-.09s0,0,0,0l-.13.1-.08.06,0-.1h0c.05,0,.05-.05.08-.1h0l0,0s.08.08.08.14A.44.44,0,0,1,1.48,21.8Z" transform="translate(-0.26)"/><path class="bc" d="M2,21.89a.34.34,0,0,1-.22,0h0a.21.21,0,0,0,.23,0H2" transform="translate(-0.26)"/><path class="bc" d="M4.6,21.57v0s0,0,0,0v.07a.13.13,0,0,0,0,.06s0,0,0,0,0,0,0,0a0,0,0,0,0,0,0s0,0,0,0,0,0,0-.07h0" transform="translate(-0.26)"/><polyline class="bc" points="1.72 22.08 1.72 22.08 1.72 22.08"/><path class="bc" d="M5.3,20v-.21a2.28,2.28,0,0,0,0-.26c0-.08,0-.15-.11-.16a1,1,0,0,0-.38-.82,1.71,1.71,0,0,0-.42-.28A1.32,1.32,0,0,0,4,18.09a.38.38,0,0,0-.18,0s-.06.06-.09.06,0,0,0-.07-.14-.18-.25-.2a1.74,1.74,0,0,0-1,0,1,1,0,0,0-.59.66.35.35,0,0,0-.43.23v0a2.3,2.3,0,0,0-.44.7c-.1.21-.24.55,0,.73a.3.3,0,0,0-.16.27,4,4,0,0,0,0,.69,1.84,1.84,0,0,0,.09.57A.47.47,0,0,0,1,22c.06.06.15.05.19.13s.06.15.11.23a1,1,0,0,0,.17.19,1.3,1.3,0,0,0,.41.24,2.3,2.3,0,0,0,.56.14.29.29,0,0,0,.27-.1c.07.23.35.16.55.08s.14,0,.19-.08a1,1,0,0,0,.37-.18.26.26,0,0,0,.1-.13A1,1,0,0,1,4,22.27a.23.23,0,0,0,.36,0A2,2,0,0,0,4.57,22c.11-.13.21-.26.31-.4a1.76,1.76,0,0,0,.41-.65c.07-.29,0-.59,0-.87,0,0,0,0,0,0M3.2,22.7v0h0a0,0,0,0,1,0,0H3.2Zm0,.11s0,0,0,0l0,0,0,0Zm.1,0h0l-.07,0,0,0,.07,0a.13.13,0,0,0,.07,0Zm-.07-.11,0,0v0h0l0,0Zm.11.07-.06,0,0,0,0,0Zm0-.07v0l0,0h0l0,0s0,0,0,0l0,0a.1.1,0,0,1,0-.05s0,0,0,0l0,0-.06,0,0,0h0a1.05,1.05,0,0,1,.06-.24h0l0,0c.07,0,.12,0,.14,0A.46.46,0,0,1,3.42,22.66Zm1.42-1.27a.53.53,0,0,1-.08.15.71.71,0,0,1-.1.14l0,.05H4.53a.29.29,0,0,1,0-.09v-.08l0-.12h0c.06-.06.1-.16.18-.2s.09,0,.12.06S4.85,21.36,4.84,21.39Zm.41-.74a.58.58,0,0,1,0,.19.36.36,0,0,0-.17-.23c-.13-.07-.23,0-.29.14s0,.05,0,0,.09-.15.19-.12a.29.29,0,0,1,.18.23c0,.07,0,.13,0,.15H5.05v0h0a0,0,0,0,0,0,0H5a.5.5,0,0,1,0-.13s0,0,0,0A.52.52,0,0,0,5,21l0,0a.5.5,0,0,1,0-.13s0,0,0,0a.19.19,0,0,0,0,.08l-.05,0s0-.06,0-.09h0v.06h0s0,0,0,0l0,0h0l0-.07h0a.42.42,0,0,0,.33.34,1.09,1.09,0,0,1-.13.17l-.08.11c0-.11,0-.23,0-.28s-.3.12-.33.26-.18.3-.08.41a.11.11,0,0,0,.13,0l-.06.07a2.88,2.88,0,0,1-.22.27c-.08.09-.24.16-.32,0s0,0,0,0-.07.16-.11.26a.44.44,0,0,1-.29.24l-.06,0a.46.46,0,0,0,0-.44c-.11-.15-.22,0-.29.13v0h0s0,0,0,0h0a.42.42,0,0,0,0,.39h0c-.14.06-.43.14-.45-.12,0,0,0-.05-.05,0-.08.21-.35.12-.49.08a1.76,1.76,0,0,1-.44-.15,1,1,0,0,1-.22-.14.44.44,0,0,0,.2,0h0c.11,0,.14.07.21.15s.07.07.12.05,0,0,0,0l0,0H2a.35.35,0,0,0,.13-.11s0,0,0,0a.6.6,0,0,1-.13.09H2l-.1-.11L2,22.41s0,0,0,0a.69.69,0,0,0-.13.11l-.06,0h0A2.11,2.11,0,0,0,2,22.28s0,0,0,0l-.12.07A.23.23,0,0,0,2,22.23c.05-.15.1-.3.14-.45a.26.26,0,0,0,0-.27.24.24,0,0,0-.41,0,.55.55,0,0,0-.07.33,1.43,1.43,0,0,1-.24.19s0,0,0,0a1,1,0,0,0,.22-.18.86.86,0,0,0,.07.25.43.43,0,0,1,0,.05s0,0,0,0h0a.15.15,0,0,0,.12.1.11.11,0,0,0,.08,0l-.14.11c-.12,0-.29.05-.33-.08s0,0,0,0a.19.19,0,0,0,0,.07l-.05-.06-.13-.18c0-.06,0-.13-.07-.18A.12.12,0,0,0,1.1,22a.28.28,0,0,1-.18-.14,1.58,1.58,0,0,1-.12-.53,4.17,4.17,0,0,1,0-.5c0-.18,0-.47.19-.51,0,0,0,0,0-.06-.28-.16,0-.64.07-.85a3.07,3.07,0,0,1,.46-.67h0l-.09.07a.3.3,0,0,1,.39-.13s0,0,0,0a.94.94,0,0,1,.74-.7,1.72,1.72,0,0,1,.64,0,.82.82,0,0,1,.27.06.12.12,0,0,1,.08.06.14.14,0,0,1,0,.11s0,0,0,0,.23,0,.28-.05a1.17,1.17,0,0,1,.55.21,1.46,1.46,0,0,1,.45.37,1.13,1.13,0,0,1,.22.47.35.35,0,0,0-.23-.06h0c-.11.06-.34.17-.34.35s.19.2.31.18a.9.9,0,0,1-.56.07h0a.61.61,0,0,0,.7-.1,0,0,0,0,0,0,0,.41.41,0,0,0,.19-.2h0c.14,0,.1.58.11.68h0A3.25,3.25,0,0,0,5.25,20.65ZM5,21H5Zm-.51.69a.09.09,0,0,1,0-.11A.41.41,0,0,0,4.49,21.72Zm-2.74.45a.3.3,0,0,0,.13,0l0,0h0A.12.12,0,0,0,2,22.08H2s0,0,0,0l-.08.05a.24.24,0,0,1-.11-.06l0,0h0c.05,0,.11,0,.15,0s0,0,0,0H1.87A.29.29,0,0,0,2,21.94s0,0,0,0l-.06,0a.33.33,0,0,1-.14,0,.49.49,0,0,1-.11-.14h0a.24.24,0,0,0,.19.21H1.81s0,0,0,0a.28.28,0,0,1-.09-.1v-.06c0-.16.12-.36.28-.31s.11.28.06.43,0,.1,0,.15H2l0,.09h0l-.12,0,0,0Zm0,.06h0Zm0-.09H1.74a.19.19,0,0,0,0-.07s0,0,0-.06A.24.24,0,0,0,1.81,22.14ZM1.7,22l0,.05h0S1.71,22,1.7,22Zm.12.31a.08.08,0,0,0,.08,0s0,0,0,0h0a.05.05,0,0,0,0,0c0,.07-.05.12-.14.06ZM4.7,19.54l0,0h.06a.2.2,0,0,0,.12.06h-.1Zm0,.05h0s-.06,0-.08,0l0,0h0l0,0Zm.07-.09h.08a.1.1,0,0,0,.07,0l0,0A.29.29,0,0,1,4.78,19.5Zm.12,0,.07,0,0,0,0,0ZM5,19.41a.23.23,0,0,1-.07-.07s0,0,0,0,0,.05.06.07l-.09,0a.18.18,0,0,0-.07-.05h0l0,.06H4.75a.1.1,0,0,1,0,0s0,0,0,0,0,0,0,0H4.65l0-.05s0,0,0,0l0,0h0a.14.14,0,0,1,0-.11.66.66,0,0,1,.24-.17c.09,0,.25,0,.21.16a.14.14,0,0,1-.05.08Z" transform="translate(-0.26)"/><polyline class="bc" points="6.3 15.47 6.3 15.46 6.3 15.47"/><path class="bc" d="M3.43,21.82s0,0,0,0a.4.4,0,0,0,.09.38s0,0,0,0a.82.82,0,0,1-.08-.35" transform="translate(-0.26)"/><path class="bc" d="M3.05,21.76h0" transform="translate(-0.26)"/><path class="bc" d="M3.23,21.55a.71.71,0,0,1-.12.18l.07-.05a.2.2,0,0,0,.06-.13s0,0,0,0" transform="translate(-0.26)"/><path class="bc" d="M3.07,21.75l0,0,0,0" transform="translate(-0.26)"/><path class="bc" d="M2.44,21.3a.45.45,0,0,1,0-.3h0a.37.37,0,0,0-.09.31.29.29,0,0,0,.14.24s0,0,0,0a.76.76,0,0,1-.11-.22" transform="translate(-0.26)"/><path class="bc" d="M1.29,19.34h0a.62.62,0,0,1,.19.23,2.13,2.13,0,0,1,.07.27s0,0,0,0a.44.44,0,0,0-.06-.3.45.45,0,0,0-.23-.2" transform="translate(-0.26)"/><path class="bc" d="M1.5,19.13h0c0,.15,0,.35.12.43s0,0,0,0a.58.58,0,0,1-.14-.4" transform="translate(-0.26)"/><path class="bc" d="M2.91,18.11s0,0,0,0a.52.52,0,0,1,.17.16,2.26,2.26,0,0,1,.11.22s0,0,0,0a.43.43,0,0,0-.3-.39" transform="translate(-0.26)"/><path class="bc" d="M4.29,18.46s0,0,0,0a.65.65,0,0,1,.2.8,0,0,0,1,0,0,0c.26-.26,0-.66-.2-.84" transform="translate(-0.26)"/><path class="bc" d="M4.52,20.45a.32.32,0,0,1-.3,0,.38.38,0,0,1-.16-.26s0,0,0,0c0,.26.3.48.51.29a0,0,0,0,0,0,0" transform="translate(-0.26)"/><path class="bc" d="M1,20.42H1a.49.49,0,0,1,.31.29,1.91,1.91,0,0,1,.11.41s0,0,0,0a.79.79,0,0,0-.13-.5c-.07-.11-.19-.26-.32-.2" transform="translate(-0.26)"/><path class="bc" d="M1.09,21.44h0A.3.3,0,0,0,1,21.7a.27.27,0,0,0,.17.23s0,0,0,0a.35.35,0,0,1-.09-.45" transform="translate(-0.26)"/><path class="bc" d="M5.49,18.35s0,0,0,0a3.22,3.22,0,0,1,.25.53c.08.19.13.39.19.58,0,0,0,0,0,0a2.3,2.3,0,0,0-.18-.58,2.73,2.73,0,0,0-.27-.54" transform="translate(-0.26)"/><path class="bc" d="M5.38,18.38A2.72,2.72,0,0,0,5,18a2.6,2.6,0,0,0-2.57-.37,2.86,2.86,0,0,0-.81.47s0,0,0,0a2.92,2.92,0,0,0-.48.51s0,0,0,0l0,0h0A3.9,3.9,0,0,0,.56,20v0c0,.14-.05.29-.07.43a.16.16,0,0,1,0,.07c0-.18,0-.35.08-.52v0h0c.08-.22.14-.44.22-.65A5.63,5.63,0,0,1,1,18.72H1a5.83,5.83,0,0,0-.28.62,5.31,5.31,0,0,0-.2.56c0-.2.09-.41.13-.61h0A7,7,0,0,0,.4,20.73h0l0-.18,0,0v.1h0a2.74,2.74,0,0,0,.45,1.8,2.11,2.11,0,0,0,.19.23s0,.05,0,.05h0a1.85,1.85,0,0,0,.48.35h0s0,0,0,0a2.14,2.14,0,0,0,.82.23,1.48,1.48,0,0,0,.42,0l0,0a2.56,2.56,0,0,0,1-.27h.05a.8.8,0,0,0-.16.08c-.07,0-.17.11-.25.08h0s.1,0,.16,0l.23-.11c.15-.08.32-.15.47-.24a0,0,0,0,0,0,0c-.13.05-.26.12-.38.18v0H4a5.51,5.51,0,0,0,.7-.49A4.69,4.69,0,0,0,5.25,22a.44.44,0,0,0,.12-.15,3.94,3.94,0,0,0,.36-.63s0,0,0,0l0-.06s0-.06,0-.05,0-.08,0-.13a2.87,2.87,0,0,0-.44-2.5h0m-.71-.53Zm-.06,0h0a0,0,0,0,0,0,0h0ZM.55,21.39h0Zm1.66,1.85a.08.08,0,0,1,.07,0Zm3.18-1.6a.18.18,0,0,1,.05-.08Zm0-3.05a.24.24,0,0,0,.06.11,0,0,0,0,0,0,0c0,.05,0,.1.07.14h0a.08.08,0,0,0,0,.07s0,0,0,.05a.11.11,0,0,0,.09.07.58.58,0,0,0,0,.14.32.32,0,0,0,0,.14s0,0,0,0h0l0,.1h0s0,0,0,.05a.14.14,0,0,0,0,.06s0,0,0,0a2.36,2.36,0,0,1,0,.28.3.3,0,0,0,0,.1s0,.08,0,.1h0v.12a4.68,4.68,0,0,0-.08.54h0a2.94,2.94,0,0,1-.28.69.33.33,0,0,1-.11.09s-.06,0-.07.09a.48.48,0,0,0,0,.12L5.13,22,5,22.06a4.57,4.57,0,0,0-.44.44l-.07.05c-.11,0-.18.12-.27.19s-.19.11-.27.18L3.87,23H3.8a.53.53,0,0,0-.17.08c-.15.08-.32.08-.47.16s0,0,0,0h0l-.29.07,0,0H2.47s0,0,0,0a.15.15,0,0,1-.09,0l-.07-.06s0,0-.07,0-.06,0-.09,0h0a1.89,1.89,0,0,1-.45-.17c0-.08-.14-.12-.2-.15s-.07,0-.09-.06,0-.06-.06-.08-.06-.05-.1,0l-.07-.07a.43.43,0,0,0,0-.07h0a.16.16,0,0,0,0-.07l-.05,0H1l-.09-.14h0a.23.23,0,0,0-.11-.17L.72,22a0,0,0,0,0,0,0,.2.2,0,0,0-.09-.2,1.33,1.33,0,0,1-.05-.19s0-.06,0-.09l0-.12h0s0-.12,0-.17a.22.22,0,0,0,0-.11s0-.09,0-.13h0s0-.07,0-.1a.38.38,0,0,0,0-.1.11.11,0,0,0,0-.08c0-.05,0-.1,0-.15a.55.55,0,0,0,.06-.18c0-.1,0-.19,0-.29a1.6,1.6,0,0,1,.05-.21,0,0,0,0,0,0,0,1,1,0,0,0,.07-.18v0a1.18,1.18,0,0,1,.07-.2h0l0,0a.11.11,0,0,0,0-.08,1.6,1.6,0,0,1,.1-.23H1A.13.13,0,0,0,1,18.93l.09-.16h0c.06,0,.13-.1.1-.17h0a1.57,1.57,0,0,1,.21-.24h0a.1.1,0,0,0,.1,0,.1.1,0,0,0,0-.09l0,0h0a.31.31,0,0,1,.16-.06,0,0,0,0,0,0,0,.38.38,0,0,0,0-.1L2,17.92h.1s.08-.05.07-.09h0l0,0,.2-.08a.23.23,0,0,0,.16,0s.08,0,.1-.08l.14,0h.07s.08,0,.09-.05H3l.29,0s0,0,0,0a.44.44,0,0,0,.16,0s.09,0,.12,0l.19,0,.08.05a.13.13,0,0,0,.12,0l.12,0v0a.1.1,0,0,0,0,0s.08,0,.1,0h0l.15.05v0a0,0,0,0,0,0,0l0,0h0l.1.05s0,0,0,.05a.09.09,0,0,0,0,.05.09.09,0,0,0,.11,0,0,0,0,0,0,0-.05h0l.2.14c0,.08.08.15.15.13l.09.09s0,.06,0,.08a.16.16,0,0,0,0,.07s0,0,.07,0l0,0,.07.09Z" transform="translate(-0.26)"/><path class="bc" d="M.39,20.62a.25.25,0,0,1,0-.08.25.25,0,0,0,0,.08" transform="translate(-0.26)"/><path class="bc" d="M.38,20.49v0h0" transform="translate(-0.26)"/><path class="bc" d="M.4,20.8c0-.06,0-.12,0-.18a1.08,1.08,0,0,0,0,.18c0,.1,0,.2,0,.31s0,.39,0,.59c0,0,0,0,0,0,0-.2,0-.4,0-.61s0-.19,0-.29" transform="translate(-0.26)"/><path class="bc" d="M7.81,17.14a0,0,0,0,0,0,0,.49.49,0,0,1,0,.12.37.37,0,0,0,0,.11h0s0-.07,0-.11,0-.08,0-.12" transform="translate(-0.26)"/></g></svg>