<svg xmlns="http://www.w3.org/2000/svg" xmlns:xlink="http://www.w3.org/1999/xlink" width="256px" height="256px" viewBox="0 0 13.61 21.96"><defs><style>.a{fill:none;}.b{clip-path:url(#a);}.c{fill:#c3e236;}.d{fill:#8f5841;}.e{fill:#9dd63a;}.f{fill:#6ec62f;}</style><clipPath id="a" transform="translate(0 0)"><rect class="a" width="13.51" height="21.77"/></clipPath></defs><g class="b"><path class="c" d="M10.13,7.7A3.15,3.15,0,0,0,7,4.55H6.62A3.15,3.15,0,0,0,3.48,7.7,4.58,4.58,0,0,1,2.06,11,6.83,6.83,0,0,0,0,15.88C0,19.65,3.05,22,6.81,22s6.8-2.31,6.8-6.08A6.83,6.83,0,0,0,11.55,11,4.58,4.58,0,0,1,10.13,7.7" transform="translate(0 0)"/><path class="d" d="M6.81,5.72h0a.47.47,0,0,1-.44-.49,7.81,7.81,0,0,0-1-3.94A.46.46,0,0,1,6.1.8,8.57,8.57,0,0,1,7.27,5.28a.46.46,0,0,1-.46.44" transform="translate(0 0)"/><path class="e" d="M8,1.23A4.86,4.86,0,0,0,6.81,3.72L10.51,0A4.87,4.87,0,0,0,8,1.23" transform="translate(0 0)"/><path class="f" d="M9.3,2.51A4.92,4.92,0,0,0,10.52,0h0L6.81,3.72h0A4.79,4.79,0,0,0,9.3,2.51" transform="translate(0 0)"/></g></svg>