<svg xmlns="http://www.w3.org/2000/svg" xmlns:xlink="http://www.w3.org/1999/xlink" width="256px" height="256px" viewBox="0 0 14.62 16.16"><defs><style>.a{fill:none;}.b{clip-path:url(#a);}.c{fill:#894e26;}.d{fill:#7b3f16;}.e{fill:#380c00;}.f{fill:#562500;}.g{fill:#9f6639;}.h{fill:#99ca20;}.i{fill:#7fa408;}.j{fill:#deda99;}.k{fill:#709500;}.l{fill:#beea35;}.m{fill:#b9b372;}</style><clipPath id="a" transform="translate(-0.15 -0.26)"><rect class="a" width="14.89" height="16.51"/></clipPath></defs><g class="b"><path class="c" d="M11.5,1.86c2,1,3.39,2.74,2.93,5L14.2,8a4.4,4.4,0,0,1-4.57,3.34c-2.1,0-4.65-.44-6.26-2a5,5,0,0,1-.92-5.77A5.26,5.26,0,0,1,7.8.91,11,11,0,0,1,11.5,1.86Z" transform="translate(-0.15 -0.26)"/><path class="d" d="M13.64,6.1A4.23,4.23,0,0,1,9.26,9.29c-2,0-4.46-.42-6-1.95A4.51,4.51,0,0,1,2.35,6,4.6,4.6,0,0,0,3.67,8.82c1.5,1.49,3.89,1.91,5.86,1.9A4.1,4.1,0,0,0,13.8,7.61L14,6.48C14.16,5.79,13.64,6.1,13.64,6.1Z" transform="translate(-0.15 -0.26)"/><path class="e" d="M13.17,9.19A4.51,4.51,0,0,1,10.4,11a9.51,9.51,0,0,1-3.83-.11,7.07,7.07,0,0,1-3.31-1.6A4.68,4.68,0,0,1,1.71,6.06a4.33,4.33,0,0,1,0-.72A5.31,5.31,0,0,0,3.2,8.28,6.66,6.66,0,0,0,6.46,10a11.91,11.91,0,0,0,3.71.4A6.52,6.52,0,0,0,11.79,10,5.06,5.06,0,0,0,13.17,9.19Z" transform="translate(-0.15 -0.26)"/><path class="e" d="M6,.47A8.18,8.18,0,0,1,11.28,1a4.72,4.72,0,0,1,3,4.1A4.79,4.79,0,0,0,13,3a6.92,6.92,0,0,0-1.95-1.32A14,14,0,0,0,8.49.8C8,.69,7.51.61,7,.54,6.68.49,6.33.5,6,.47Z" transform="translate(-0.15 -0.26)"/><path class="f" d="M13.45,7.05c.07-.56.36-1.1.78-1s.59.57.53,1.19-.4,1.09-.75,1S13.38,7.61,13.45,7.05Z" transform="translate(-0.15 -0.26)"/><path class="e" d="M13.89,7.09c0-.37.24-.72.52-.69s.39.38.35.79-.26.72-.5.7S13.85,7.47,13.89,7.09Z" transform="translate(-0.15 -0.26)"/><path class="g" d="M7.91,2a10.66,10.66,0,0,1,3.42.84,5.83,5.83,0,0,1,1.92,1.42,4.52,4.52,0,0,0-2.39-2.34,9.57,9.57,0,0,0-3.17-.77A4.56,4.56,0,0,0,3.11,3.33,7.28,7.28,0,0,1,7.91,2Z" transform="translate(-0.15 -0.26)"/><path class="e" d="M14.49,7.56a.76.76,0,0,1-.5.67c-.38.11-.71-.22-.83-.58a1.78,1.78,0,0,1,.13-1.3,1,1,0,0,1,.38-.45s.43-.14.42-.05c-.53.11-.62,1-.59,1.41,0,.26.1.61.39.68S14.35,7.73,14.49,7.56Z" transform="translate(-0.15 -0.26)"/><path class="c" d="M1.65,10.91a2.47,2.47,0,0,0-1.41.93,14.23,14.23,0,0,0,.69,1.41,5.48,5.48,0,0,0,5.36,3.13,5,5,0,0,0,4.15-4.25A8.06,8.06,0,0,0,9.76,8a13.43,13.43,0,0,0-4.85,2.43C3.93,10.85,2.76,10.64,1.65,10.91Z" transform="translate(-0.15 -0.26)"/><path class="h" d="M4.15,7.41c2.54-1,5.07-.63,5.64.9s-1,3.6-3.58,4.64S1.14,13.57.57,12,1.6,8.44,4.15,7.41Z" transform="translate(-0.15 -0.26)"/><path class="i" d="M4.15,8.45a2.79,2.79,0,0,0-.72.43c-.6.52-1.24,1.57-.64,2.32.73.91,2,.44,2.9-.07s1.72-1,1.75-2C7.51,7.37,5.49,7.85,4.15,8.45Z" transform="translate(-0.15 -0.26)"/><path class="j" d="M5.32,8.8a2.94,2.94,0,0,0-1.55.82.57.57,0,0,0,.22,1,2.65,2.65,0,0,0,1.5-.34,1.26,1.26,0,0,0,.67-.9C6.2,9,5.81,8.73,5.32,8.8Z" transform="translate(-0.15 -0.26)"/><path class="k" d="M9.1,7.06a4.28,4.28,0,0,0-3.47-.58A8.51,8.51,0,0,0,3,7.54a9.46,9.46,0,0,1,3.25-.76,4.34,4.34,0,0,1,2,.37,1.88,1.88,0,0,1,1,1,2.48,2.48,0,0,1-.54,2.15,7.12,7.12,0,0,1-2.9,2.14A6.9,6.9,0,0,1,2.2,13a2.2,2.2,0,0,1-2.05-1.9C.06,12.89,2,13.49,3.41,13.47a7.79,7.79,0,0,0,4.73-1.75A4.21,4.21,0,0,0,9.88,8.87,2.14,2.14,0,0,0,9.1,7.06Z" transform="translate(-0.15 -0.26)"/><path class="e" d="M3.44,8.56c-.13-.15-.07-.21,0-.28s.14-.13.27,0,.26.45.19.51S3.58,8.7,3.44,8.56Z" transform="translate(-0.15 -0.26)"/><path class="e" d="M2.83,9c-.13-.15-.06-.21,0-.29s.16-.12.27,0,.24.47.17.52S3,9.12,2.83,9Z" transform="translate(-0.15 -0.26)"/><path class="e" d="M2.41,9.65c-.19-.06-.15-.16-.1-.28s.12-.21.28-.09a1.36,1.36,0,0,1,.24.24c.07.08.12.15.1.18s-.09,0-.2,0A1.65,1.65,0,0,1,2.41,9.65Z" transform="translate(-0.15 -0.26)"/><path class="e" d="M2.23,10.49c-.18,0-.22-.06-.23-.19s0-.23.19-.22.5.08.51.15S2.42,10.44,2.23,10.49Z" transform="translate(-0.15 -0.26)"/><path class="e" d="M2.69,11.07c-.15.13-.22,0-.29-.06s-.1-.2.07-.29.48-.16.52-.1,0,.1-.09.19A1.83,1.83,0,0,1,2.69,11.07Z" transform="translate(-0.15 -0.26)"/><path class="e" d="M3.17,11.58c-.06.19-.16.16-.28.1s-.19-.12-.08-.29A1.64,1.64,0,0,1,3,11.14c.08-.07.14-.13.17-.11s0,.1,0,.21A1.86,1.86,0,0,1,3.17,11.58Z" transform="translate(-0.15 -0.26)"/><path class="e" d="M4.05,11.6c0,.19,0,.23-.15.25s-.21,0-.22-.17,0-.54.09-.54S4,11.4,4.05,11.6Z" transform="translate(-0.15 -0.26)"/><path class="e" d="M4.87,11.46c.07.19,0,.22-.12.25s-.19,0-.23-.14,0-.52,0-.55S4.81,11.27,4.87,11.46Z" transform="translate(-0.15 -0.26)"/><path class="e" d="M5.57,11.37c0,.2-.06.21-.17.22s-.19,0-.19-.19.06-.53.15-.53S5.55,11.17,5.57,11.37Z" transform="translate(-0.15 -0.26)"/><path class="e" d="M6.31,10.86c.1.17,0,.22-.06.27s-.16.09-.25-.08-.18-.5-.1-.55S6.21,10.69,6.31,10.86Z" transform="translate(-0.15 -0.26)"/><path class="e" d="M6.9,10.36c.18.07.15.16.11.26s-.08.18-.26.09-.42-.29-.38-.38S6.71,10.29,6.9,10.36Z" transform="translate(-0.15 -0.26)"/><path class="e" d="M7.3,9.88c.17.1.11.19,0,.28s-.14.17-.28,0-.33-.41-.28-.47S7.14,9.77,7.3,9.88Z" transform="translate(-0.15 -0.26)"/><path class="e" d="M7.72,9.1c.19,0,.21.09.19.22s0,.24-.22.19-.47-.18-.47-.25S7.53,9.12,7.72,9.1Z" transform="translate(-0.15 -0.26)"/><path class="e" d="M7.45,8.44c.18-.07.23,0,.24.15s0,.24-.15.25S7,8.82,7,8.76s.06-.1.14-.15A2.19,2.19,0,0,1,7.45,8.44Z" transform="translate(-0.15 -0.26)"/><path class="e" d="M7.08,7.75c.08-.17.18-.14.29,0s.19.17,0,.3a1.46,1.46,0,0,1-.27.2c-.09.06-.16.1-.18.08s0-.1,0-.2A1.59,1.59,0,0,1,7.08,7.75Z" transform="translate(-0.15 -0.26)"/><path class="e" d="M6.22,7.71c0-.2.13-.18.24-.15s.2.07.13.26-.25.46-.31.43S6.19,7.91,6.22,7.71Z" transform="translate(-0.15 -0.26)"/><path class="e" d="M5.51,7.57c0-.2.13-.19.23-.15s.19,0,.13.24-.22.48-.3.46S5.48,7.77,5.51,7.57Z" transform="translate(-0.15 -0.26)"/><path class="e" d="M4.82,8c-.07-.19,0-.22.11-.25s.18-.06.23.13.07.52,0,.55S4.88,8.18,4.82,8Z" transform="translate(-0.15 -0.26)"/><path class="e" d="M4.2,8.19c0-.2.06-.21.16-.23s.19,0,.21.19,0,.52-.13.53S4.23,8.39,4.2,8.19Z" transform="translate(-0.15 -0.26)"/><path class="l" d="M1.5,9.7s-.7,2.71,1.44,2.9c0,0-2.12.39-2.18-1.37A2.06,2.06,0,0,1,1.5,9.7Z" transform="translate(-0.15 -0.26)"/><path class="m" d="M3.57,9.69c-.16.37.33.56.56.55.5,0,1.8-.39,1.8-1.11v0c0-.61-.82-.45-1.19-.41.45-.27,1.08-.46,1.46.05a.94.94,0,0,1-.19,1,2.26,2.26,0,0,1-1.64.72C3.89,10.59,3.31,10.27,3.57,9.69Z" transform="translate(-0.15 -0.26)"/><path class="d" d="M5.48,15a5.21,5.21,0,0,1-3.95-1.12,4.83,4.83,0,0,0,4.43,2,4.7,4.7,0,0,0,3.92-4,5.08,5.08,0,0,0,0-.87A5.46,5.46,0,0,1,5.48,15Z" transform="translate(-0.15 -0.26)"/><path class="e" d="M10,9.17a9.87,9.87,0,0,1-.15,2.25,5.21,5.21,0,0,1-3.53,3.9,4.74,4.74,0,0,1-3.11-.15A7.84,7.84,0,0,1,.83,13.62a6,6,0,0,0,1.5,1.68,4.8,4.8,0,0,0,3.44,1,5.09,5.09,0,0,0,2.7-1.19,5.31,5.31,0,0,0,1.74-3.13A6.18,6.18,0,0,0,10,9.17Z" transform="translate(-0.15 -0.26)"/></g></svg>