<svg xmlns="http://www.w3.org/2000/svg" xmlns:xlink="http://www.w3.org/1999/xlink" width="256px" height="256px" viewBox="0 0 20.51 23.06"><defs><style>.a{fill:none;}.b{clip-path:url(#a);}.c{fill:#b3408f;}.d{fill:#a93878;}.e{fill:#80d194;}.f{fill:#f8e2f2;}.g{fill:#f7fbfb;}.h{fill:#a2dda9;}.i{fill:#67b77d;}.j{fill:#933624;}.k{fill:#fdfefe;}.l{fill:#e7018f;}.m{clip-path:url(#b);}.n{fill:#94b60e;}.n,.o,.p,.r,.t,.u,.w,.x,.y{fill-rule:evenodd;}.o{fill:#809e09;}.p{fill:#7b770a;}.q{clip-path:url(#c);}.r{fill:#85246b;}.s{clip-path:url(#d);}.t{fill:#6f0e55;}.u{fill:#fff;}.v{clip-path:url(#f);}.w{fill:#a12b67;}.x{fill:#fec401;}.y{fill:#fa9e00;}.z{fill:#d38005;}.aa{fill:#b25f00;}.ab{fill:#913e00;}</style><clipPath id="a" transform="translate(0 -0.19)"><rect class="a" x="2.9" width="17.7" height="22.52"/></clipPath><clipPath id="b" transform="translate(0 -0.19)"><rect class="a" y="14.14" width="9.61" height="9.01"/></clipPath><clipPath id="c" transform="translate(0 -0.19)"><rect class="a" y="16.41" width="5.95" height="6.74"/></clipPath><clipPath id="d" transform="translate(0 -0.19)"><rect class="a" x="2.92" y="16.41" width="3.03" height="6.74"/></clipPath><clipPath id="f" transform="translate(0 -0.19)"><rect class="a" x="4.04" y="17.13" width="5.23" height="6.02"/></clipPath></defs><g class="b"><path class="c" d="M19.88,17.58a4.76,4.76,0,0,1-1,3.14,6.27,6.27,0,0,1-3,1.12,18.73,18.73,0,0,1-3.66.25c-1.21,0-2.42-.11-3.62-.24a6.65,6.65,0,0,1-3.23-.93C4.27,20.13,4,18.7,3.9,17.42A17.28,17.28,0,0,1,4,13.05,19.46,19.46,0,0,1,4.43,11c.11-.37.23-.73.37-1.09a12.57,12.57,0,0,0,.7-1.43L5.8,8c.18.36.4,1,.79,1s.71-.26,1.07-.58.67-.67,1.09-.67.75.41.9.8c.35,1,1.12,1.71,2.07,1.19.45-.24.54-.73.71-1.21.08-.22.34-.77.55-.82s.66.87.78,1.08A1.36,1.36,0,0,0,15,9.64c.46,0,.57-.41.8-.83s.21-1,.47-1.15c.52-.36,1.88,1,2.29,1.22l.21.12a7.21,7.21,0,0,1,.51,1.29A18.8,18.8,0,0,1,19.79,14a22,22,0,0,1,.09,3.63" transform="translate(0 -0.19)"/><path class="d" d="M19.88,17.58a4.82,4.82,0,0,1-1,3.14,6.38,6.38,0,0,1-3,1.12,18.73,18.73,0,0,1-3.66.25c-1.21,0-2.42-.11-3.63-.24a6.64,6.64,0,0,1-3.22-.93,4.44,4.44,0,0,1-1.42-3.26A3.59,3.59,0,0,0,5.2,20a6.59,6.59,0,0,0,3.23.94c1.2.13,2.41.22,3.62.24a18.68,18.68,0,0,0,3.66-.26,6.2,6.2,0,0,0,3-1.12c.8-.72,1.28-3.4,1.18-2.19" transform="translate(0 -0.19)"/><path class="d" d="M18.74,9.82s-1.67-1.47-2.18-1.39c-.31.05-.48,1-.65,1.28s-.48.76-.94.75a1.37,1.37,0,0,1-1.21-.81c-.12-.21-.37-1.08-.73-1-.21.05-.64,1.49-1.4,1.76A1.53,1.53,0,0,1,9.51,9.37c-.14-.39-.27-.76-.76-.76S8,9,7.66,9.27s-.65.64-1.17.57A1.88,1.88,0,0,1,5.36,9l.27-.95c.17.36.42.81.82.87s.71-.27,1.06-.59.67-.67,1.09-.67.75.41.9.81c.36,1,1.12,1.7,2.08,1.18.44-.23.53-.73.71-1.21.08-.22.33-.77.55-.82s.83.72.95.93c.27.48.48,1,1,1s.57-.41.8-.82.2-1,.46-1.16c.52-.36,1.91.93,2.3,1.23.82.62.35,1.05.35,1.05" transform="translate(0 -0.19)"/><path class="e" d="M18,4.94c.63-2.64.55-3.79-1.77-4.09S6.11.06,5.93,2.16a5.08,5.08,0,0,0,.23,2.78s-2.8,2.82-2.6,3.44c.34,1,1.33.46,2.05-.26,0,0,.48,1.8,2.24.18s2,.88,2.51,1.2c.69.44,1.34.46,2.13-1.17s1.21.38,1.42.69a1,1,0,0,0,1.84-.33c.49-1.31,1-1.36,2.34-.13s2.34.21,2.13-.64-2.25-3-2.25-3" transform="translate(0 -0.19)"/><path class="f" d="M12,18.21c-2,.13-5.6-.24-5.67-3A4.27,4.27,0,0,1,8,11.93a5,5,0,0,1,3.5-.86c2.13.14,5.09.74,5.53,3.36.51,3-2.88,3.64-5,3.78" transform="translate(0 -0.19)"/><path class="g" d="M12,18.16c-1.93.13-5.52-.24-5.6-3A4.18,4.18,0,0,1,8,12a5,5,0,0,1,3.45-.85c2.1.14,5,.73,5.46,3.32.5,2.91-2.85,3.59-4.92,3.72" transform="translate(0 -0.19)"/><path class="h" d="M17.2,1.26c0,.36-2.37.66-5.29.66s-5.29-.3-5.29-.66S9,.59,11.91.59s5.29.3,5.29.67" transform="translate(0 -0.19)"/><path class="i" d="M18.1,5.46c-4,.87-9.42,1.08-10.89.41S6.43,5,6.43,5a12.2,12.2,0,0,0,6,.78C15.67,5.36,18,4.94,18,4.94l.13.52" transform="translate(0 -0.19)"/><path class="h" d="M8,1.41C6,1.92,6.65,4.26,7.08,5.17c0,0-3.91,3.51-2.5,3.49,0,0-1.13.54-1-.28S6,5.28,6,5.28a11.72,11.72,0,0,1-.25-2.62C5.82,1.45,7.38,1,7.8.89s.16.52.16.52" transform="translate(0 -0.19)"/><path class="i" d="M17,1.24c1.07,1,.22,3.87.22,3.87s2.49,2.48,2.45,3.14c-.06.93-.76.63-.76.63s1,.35,1.31-.28S19.1,6.09,18,5c0,0,.71-2.06.29-3A1.22,1.22,0,0,0,17,1.24" transform="translate(0 -0.19)"/><path class="j" d="M9.06,13.11c-.25.25.38,2.83-.39,2.67-.18,0,.09-.66,0-.81-.32-.5-.64.14-.67.46,0,.49.18,1,.72,1s.9-.66,1-1.21c0-.26.05-2.79-.62-2.12" transform="translate(0 -0.19)"/><path class="j" d="M8.75,12.24a.31.31,0,1,0,.62,0,.31.31,0,1,0-.62,0" transform="translate(0 -0.19)"/><path class="j" d="M11.19,13.15c-.68.17-.85,1-.89,1.61,0,.33-.14,1.56.31,1.69.61.17.32-1,.31-1.21v-.09h0A7.07,7.07,0,0,0,12.05,15a5.21,5.21,0,0,0-.11,1.08.31.31,0,0,0,.57.09,3.34,3.34,0,0,0,0-2.25,1.14,1.14,0,0,0-1.33-.81M11,14.47c0-.33.16-.64.44-.69s.52.24.6.59A2.18,2.18,0,0,0,11,14.47Z" transform="translate(0 -0.19)"/><path class="j" d="M14.29,13.8c-.15-.3-.44-.62-.8-.42-.55.3-.71,2.2-.31,2.67s.56-.11.52-.47a3.59,3.59,0,0,1,0-1.46c.13.26.16.74.53.71s.39-.56.63-.73c.35.6,0,1.26.11,1.87,0,.18.08.34.3.34s.35-.41.38-.67a3.39,3.39,0,0,0-.19-1.76c-.3-.58-.83-.53-1.21-.08" transform="translate(0 -0.19)"/><path class="j" d="M16.67,10.75a.32.32,0,1,0-.63,0,.32.32,0,0,0,.63,0" transform="translate(0 -0.19)"/><path class="j" d="M18.09,9.91a.32.32,0,1,0-.63,0,.32.32,0,1,0,.63,0" transform="translate(0 -0.19)"/><path class="j" d="M17.79,11.8a.32.32,0,1,0,.63,0,.32.32,0,0,0-.63,0" transform="translate(0 -0.19)"/><path class="j" d="M9.63,10.56a4.78,4.78,0,0,0-3.82,4.7c.08,2.41,2.61,3.38,4.55,3.56s4.44-.06,6-1.29a3.56,3.56,0,0,0,.29-5.09c-1.63-1.86-4.79-2.31-7.06-1.88m2.4,7.6c-1.93.13-5.52-.24-5.6-3A4.18,4.18,0,0,1,8,12a5,5,0,0,1,3.45-.85c2.1.14,5,.73,5.46,3.32C17.45,17.35,14.1,18,12,18.16Z" transform="translate(0 -0.19)"/><path class="j" d="M19.29,9.43a1,1,0,0,0,1.22-.95c.07-1-1.16-2.35-2.05-3.29a.31.31,0,0,0-.25-.43l.08-.13a5.47,5.47,0,0,0,.26-1.29,3.1,3.1,0,0,0,0-1.25C18.16.47,15.9.38,14.62.28a26.13,26.13,0,0,0-5.23.1C8,.54,5.68.51,5.54,2.47a5,5,0,0,0,.11,1.27c0,.15.08.51.16.83h0c-.39.1-.23.44,0,.6l0,0C5.19,5.84,4.53,6.33,4,7s-1.1,1.46-.44,2.1a1,1,0,0,0,1.26,0A12.69,12.69,0,0,0,4,11.39a17.05,17.05,0,0,0-.49,4.88c.06,1.48.19,3.36,1.22,4.49s2.62,1.35,4,1.51a31.28,31.28,0,0,0,5.12.18,10.65,10.65,0,0,0,4.64-1.09c1.24-.72,1.56-2.22,1.7-3.6A25.27,25.27,0,0,0,19.94,12a10.43,10.43,0,0,0-.65-2.57m-13.11-7a1.12,1.12,0,0,1,.64-.86,7.16,7.16,0,0,1,2.51-.47A27.28,27.28,0,0,1,14.75.94h-.08a7.31,7.31,0,0,1,2.53.51c.79.37.86,1,.71,1.87a9.14,9.14,0,0,0-.25,1.47l-.33.08c-.29.07-.57.16-.79.2-.55.1-1.1.2-1.65.27s-.92.1-1.39.13a6,6,0,0,0,1.93-1.3c.5-.56.75-2.13-.4-2a4.05,4.05,0,0,0-2.26,1.69,6.49,6.49,0,0,0-.64,1A6.76,6.76,0,0,0,11.75,4c-.36-.75-1-2-2-1.87s-.93,1.35-.42,2A5.94,5.94,0,0,0,11,5.49a23.41,23.41,0,0,1-2.68-.24l-.51-.09L7.1,5c-.18-.05-.43-.18-.67-.28A11.41,11.41,0,0,0,6.18,3,2.74,2.74,0,0,1,6.18,2.38ZM12.75,5a5.42,5.42,0,0,1,.42-.64c.23-.29,1.24-1.61,2-1.56.42.12-.16.86-.28,1A6.24,6.24,0,0,1,12.75,5Zm-1.28-.09A4.62,4.62,0,0,1,9.71,3.57c-.18-.28-.26-.8.23-.76C10.69,3,11.2,4.28,11.47,4.94ZM4.11,8.65C3.18,8.39,5.68,6.17,6,5.87a3.16,3.16,0,0,0,.36-.41,8.35,8.35,0,0,0,1,.26,16.32,16.32,0,0,0,3.12.37l.95,0a4.82,4.82,0,0,1-1,1.18c-.15.15-.41.29-.31.56s.32.21.51.12a3.79,3.79,0,0,0,1.29-1.48c0-.09.11-.2.16-.33a3.11,3.11,0,0,0,.62.76c.26.23,1.21,1,1.54.68s-.44-.51-1.08-1.13a3.87,3.87,0,0,1-.28-.37A27.75,27.75,0,0,0,17,5.64c.17,0,.61,0,.95-.12a9.24,9.24,0,0,1,1.37,1.6c.23.35.85,1.17.43,1.59s-.73.14-1.12-.11l-.19-.13c-.22-.16-.42-.32-.54-.42-.48-.37-1.18-1-1.81-.7s-.36,1.46-1,1.79c-.78.42-1-.77-1.33-1.2s-1.16-.88-1.53-.13c-.27.58-.21,1.31-.88,1.61S10.26,9.13,10,8.53,9.52,7.36,8.8,7.4a1.86,1.86,0,0,0-1,.43c-.31.23-.67.78-1,.88-.56.14-.48-.74-.78-1C5.45,7.23,4.73,8.83,4.11,8.65Zm15.48,8.83a4.6,4.6,0,0,1-1,3,6,6,0,0,1-2.88,1.08,17.33,17.33,0,0,1-3.52.25c-1.17,0-2.34-.11-3.5-.23a6.42,6.42,0,0,1-3.11-.9c-1-.76-1.26-2.14-1.39-3.37a17,17,0,0,1,.08-4.22c.07-.41.26-1.37.43-2,.1-.35.22-.7.35-1.05A11.75,11.75,0,0,0,5.73,8.7V8.63a1.19,1.19,0,0,0,.81.75c.5.06.92-.39,1.26-.7S8.46,8,8.86,8s.52.47.66.86A1.6,1.6,0,0,0,11.73,10a2,2,0,0,0,.9-1.12c.08-.21.11-.8.31-.85.35-.08.64.85.75,1a1.33,1.33,0,0,0,1.17.79,1.11,1.11,0,0,0,1-.6C16,8.94,16,8.15,16.3,8c.5-.34,1.59.87,2,1.12l.2.11A5.91,5.91,0,0,1,19,10.46,17.29,17.29,0,0,1,19.5,14,22.74,22.74,0,0,1,19.59,17.48Z" transform="translate(0 -0.19)"/></g><path class="k" d="M11.76,11.2a8.72,8.72,0,0,0-1,.06,8.05,8.05,0,0,0-1,.18,6.78,6.78,0,0,0-.9.3,4.84,4.84,0,0,0-.79.39,4.76,4.76,0,0,0-.65.48,3.11,3.11,0,0,0-.48.56,2.53,2.53,0,0,0-.3.59,1.91,1.91,0,0,0-.1.62,1.87,1.87,0,0,0,.1.62,2.41,2.41,0,0,0,.3.6,2.75,2.75,0,0,0,.48.55,4.09,4.09,0,0,0,.65.49,7.26,7.26,0,0,0,.79.39,6.78,6.78,0,0,0,.9.3,8.05,8.05,0,0,0,1,.18,8.7,8.7,0,0,0,2,0,7.71,7.71,0,0,0,1-.18,5.94,5.94,0,0,0,.9-.3,6.46,6.46,0,0,0,.79-.39,3.69,3.69,0,0,0,.65-.49,3.17,3.17,0,0,0,.49-.55,2.08,2.08,0,0,0,.29-.6,1.87,1.87,0,0,0,.1-.62,1.91,1.91,0,0,0-.1-.62,2.15,2.15,0,0,0-.29-.59,3.64,3.64,0,0,0-.49-.56,4.21,4.21,0,0,0-.65-.48,4.47,4.47,0,0,0-.79-.39,5.94,5.94,0,0,0-.9-.3,7.71,7.71,0,0,0-1-.18A8.72,8.72,0,0,0,11.76,11.2Z" transform="translate(0 -0.19)"/><path class="l" d="M8.41,15.25s-.05,0,0-.05a3.51,3.51,0,0,1,1.37-1.88.83.83,0,0,1,.21-.06c.1,0,.14,0,.15.14v0a2.19,2.19,0,0,1-.53,1,2.64,2.64,0,0,1-1.15.81Zm-.5,1.45A.11.11,0,0,0,8,16.65a.81.81,0,0,0,.07-.22l.18-.83a.24.24,0,0,0,0-.08.12.12,0,0,1,.05-.07,2,2,0,0,1,.32.11l.18.07L9,15.7a1,1,0,0,0,.33.05,1.27,1.27,0,0,0,.72-.24l.57-.44A.26.26,0,0,0,10.7,15a.14.14,0,0,0,0-.07.07.07,0,0,0-.06-.06h0l-.05,0a3.11,3.11,0,0,1-.28.23l-.31.24a1.14,1.14,0,0,1-.68.25.83.83,0,0,1-.22,0,2.32,2.32,0,0,1-.47-.19s0,0,0,0a0,0,0,0,1,0,0l0,0,.05,0a3.23,3.23,0,0,0,1.37-1.37,1.24,1.24,0,0,0,.12-.32.57.57,0,0,0,0-.29.21.21,0,0,0-.2-.19c-.61,0-1.17.76-1.45,1.28a.17.17,0,0,1,0-.14.56.56,0,0,0,0-.12c.11-.45.23-.9.35-1.35a.26.26,0,0,0,0-.15.07.07,0,0,0,0-.05h0s0,0,0,0a.54.54,0,0,0-.05.11l0,.11c-.13.53-.25,1-.4,1.56-.07.24-.14.49-.2.74a4.75,4.75,0,0,1-.23.73,2.14,2.14,0,0,0-.13.62.22.22,0,0,0,0,.14A.09.09,0,0,0,7.91,16.7Z" transform="translate(0 -0.19)"/><path class="l" d="M10.65,15.19h0s0,0,0,0c.06-.17.24-.45.43-.47,0,0,0,0,.05,0S10.79,15.11,10.65,15.19Zm0,.67c.38,0,1-.56,1.23-.84L12,15s0-.05,0-.08a.05.05,0,0,0,0,0l0,0,0,0-.05.05-.2.18-.2.19a1.44,1.44,0,0,1-.63.37c-.11,0-.17,0-.19-.13a.32.32,0,0,1,0-.19.08.08,0,0,1,.05-.05.89.89,0,0,0,.65-.62c0-.13-.05-.21-.16-.21H11c-.29,0-.5.43-.6.69a1,1,0,0,0,0,.25.65.65,0,0,0,0,.19A.26.26,0,0,0,10.7,15.86Z" transform="translate(0 -0.19)"/><path class="l" d="M12.05,15.87h0a1.58,1.58,0,0,0,.72-.27,7.13,7.13,0,0,0,.75-.58l0,0s0,0,0,0a.06.06,0,0,0,0-.08,0,0,0,0,0-.05,0h0l0,0-.05,0-.28.22-.28.23a2,2,0,0,1-.74.34h-.06c-.22,0-.31-.12-.25-.36a1.24,1.24,0,0,1,.39-.65.23.23,0,0,1,.16-.08c.06,0,.09,0,.1.11a.28.28,0,0,1,0,.2l0,.05a.13.13,0,0,0,0,.06,0,0,0,0,0,0,0h0l.05,0a.51.51,0,0,0,.11-.39.26.26,0,0,0-.25-.18.32.32,0,0,0-.21.09,1.57,1.57,0,0,0-.47.78s0,.05,0,.08A.37.37,0,0,0,12.05,15.87Z" transform="translate(0 -0.19)"/><path class="l" d="M13.54,15.19h0s0,0,0,0c.06-.17.25-.45.43-.47s0,0,.05,0S13.69,15.11,13.54,15.19Zm.05.67c.38,0,1-.56,1.23-.84,0,0,0,0,0-.06s0-.05,0-.08a.05.05,0,0,0,0,0l-.05,0,0,0-.05.05-.19.18-.2.19a1.48,1.48,0,0,1-.64.37c-.1,0-.16,0-.19-.13a.31.31,0,0,1,0-.19s0,0,0-.05a.9.9,0,0,0,.66-.62.17.17,0,0,0-.17-.21h0c-.29,0-.51.43-.6.69a.69.69,0,0,0,0,.25.42.42,0,0,0,0,.19A.26.26,0,0,0,13.59,15.86Z" transform="translate(0 -0.19)"/><path class="l" d="M15.22,14.11a.14.14,0,0,1,0-.11,4.68,4.68,0,0,1,.38-.78l.05,0h0s0,0,0,0v0h0l-.15.3-.32.62h0Zm-.44,2.28c.11,0,.28-.19.34-.28l.36-.49.36-.47c0-.05.06-.1.08-.14a.08.08,0,0,0,0-.07,0,0,0,0,0,0-.06h0s-.08.09-.1.12L15,16.05s-.14.17-.19.17,0,0-.05,0a.74.74,0,0,1,0-.33A3.23,3.23,0,0,1,15,14.6,6.9,6.9,0,0,0,15.87,13s0-.09,0-.11h0l-.08,0a5,5,0,0,0-.85,1.72.82.82,0,0,1-.16.34s0,.06,0,.09,0,.12,0,.18a4.25,4.25,0,0,0-.1.75v.08a.41.41,0,0,0,0,.11C14.62,16.25,14.67,16.39,14.78,16.39Z" transform="translate(0 -0.19)"/><g class="m"><path class="n" d="M6.28,16.07c-.68-1.53-1.66-1.75-2.92-.8.69,1.37,1.31,1.63,2.92.8" transform="translate(0 -0.19)"/><path class="o" d="M6.28,16.07l-2.92-.8c.69,1.37,1.31,1.63,2.92.8" transform="translate(0 -0.19)"/><path class="p" d="M2.6,14.17a9,9,0,0,1,.2,2.73H3c0-.36,0-1.23,0-1.62l1.73.39-1.73-.55c-.06-.53-.07-.6-.12-1l-.33,0" transform="translate(0 -0.19)"/></g><g class="q"><path class="r" d="M2.93,16.57c2-.53,3,1.35,2.9,3.31s-1.14,3.37-2.5,3.37a1.75,1.75,0,0,1-.4,0,1.75,1.75,0,0,1-.4,0C1.17,23.25.16,21.76,0,19.88S.9,16,2.93,16.57" transform="translate(0 -0.19)"/></g><g class="s"><path class="t" d="M3,23.21a3.76,3.76,0,0,0,1.8-3.29c.12-1.66-.59-3.07-1.66-3.39C5,16.14,6,18,5.83,19.88s-1.14,3.37-2.5,3.37a1.58,1.58,0,0,1-.38,0" transform="translate(0 -0.19)"/></g><g class="m"><path class="u" d="M2,16.92c.17.15.12.51-.12.81s-.56.41-.73.26-.12-.52.11-.81.56-.41.74-.26" transform="translate(0 -0.19)"/></g><g class="v"><path class="w" d="M5.9,17.54c1.53-1,2.85.22,3.24,1.87S9.08,22.52,8,22.92a1.89,1.89,0,0,1-.34.09,1.77,1.77,0,0,1-.31.15c-1.12.4-2.35-.53-2.95-2S4.09,17.7,5.9,17.54" transform="translate(0 -0.19)"/></g><g class="m"><path class="x" d="M6.06,18.07c.2-.89,2.25-1.26,2.88,1.42.34,1.42,0,2.85-1.08,3.22a1.73,1.73,0,0,1-.31.07,1.55,1.55,0,0,1-.29.14c-1,.37-2.15-.49-2.7-1.86-1-2.53.82-3.52,1.5-3" transform="translate(0 -0.19)"/><path class="y" d="M6.2,18.52C7.63,18,9.61,21.2,7.3,22s-2.54-3-1.1-3.51" transform="translate(0 -0.19)"/><path class="z" d="M6.35,19c1,.09,2,2.08.8,2.52s-1.5-1.84-.8-2.52" transform="translate(0 -0.19)"/><path class="aa" d="M6.35,19l.8,2.52c-1.24.45-1.5-1.84-.8-2.52" transform="translate(0 -0.19)"/><path class="ab" d="M6.44,19.27s.13.24.08.26-.14-.24-.08-.26" transform="translate(0 -0.19)"/><path class="ab" d="M6.59,19.76s.13.24.08.26-.13-.25-.08-.26" transform="translate(0 -0.19)"/><path class="ab" d="M6.74,20.24s.13.24.08.26-.13-.24-.08-.26" transform="translate(0 -0.19)"/><path class="ab" d="M6.89,20.73C7,20.71,7,21,7,21s-.13-.25-.08-.26" transform="translate(0 -0.19)"/><path class="ab" d="M7.05,21.21s.13.24.08.26-.14-.24-.08-.26" transform="translate(0 -0.19)"/><path class="ab" d="M7.06,19.57s.12.25.16.22-.12-.25-.16-.22m-.95.34s0,.28,0,.28S6.05,19.91,6.11,19.91Zm.48,1s.19.19.15.23S6.54,20.94,6.59,20.9Zm-.23-1.06s.06.28,0,.28S6.3,19.84,6.36,19.84Zm.07.55c.06,0,.11.26.06.28S6.38,20.4,6.43,20.39Zm-.21-1s0,.28,0,.27S6.16,19.35,6.22,19.36Zm.42,2c0-.06.26,0,.24.07S6.63,21.46,6.64,21.4Zm-.35-.35s.2.19.15.22S6.25,21.09,6.29,21.05Zm-.16-.55s.11.26,0,.27S6.07,20.51,6.13,20.5Zm1.11.17c-.06,0,0,.28,0,.28S7.29,20.67,7.24,20.67Zm-.42-1c-.05,0,.11.26.15.22S6.86,19.64,6.82,19.68Zm.25.48c-.05,0,.06.28.11.26S7.12,20.14,7.07,20.16Zm-.41-1c0,.05.15.23.19.19S6.69,19.16,6.66,19.2Zm.82,1.9s-.2.17-.16.21S7.52,21.14,7.48,21.1Zm.08-.5c-.06,0,0,.27,0,.27S7.61,20.6,7.56,20.6Zm-.18-.55s.06.28.11.25S7.43,20,7.38,20.05Z" transform="translate(0 -0.19)"/></g></svg>