<svg xmlns="http://www.w3.org/2000/svg" xmlns:xlink="http://www.w3.org/1999/xlink" width="256px" height="256px" viewBox="0 0 17.95 17.5"><defs><style>.a{fill:none;}.b{clip-path:url(#a);}.c{fill:#94b60e;}.c,.d,.e,.g,.i,.j,.l,.m,.n{fill-rule:evenodd;}.d{fill:#809e09;}.e{fill:#7b770a;}.f{clip-path:url(#b);}.g{fill:#85246b;}.h{clip-path:url(#c);}.i{fill:#6f0e55;}.j{fill:#fff;}.k{clip-path:url(#e);}.l{fill:#a12b67;}.m{fill:#fec401;}.n{fill:#fa9e00;}.o{fill:#d38005;}.p{fill:#b25f00;}.q{fill:#913e00;}</style><clipPath id="a" transform="translate(0 0)"><rect class="a" width="18.6" height="17.26"/></clipPath><clipPath id="b" transform="translate(0 0)"><rect class="a" y="4.36" width="11.52" height="12.9"/></clipPath><clipPath id="c" transform="translate(0 0)"><rect class="a" x="5.65" y="4.36" width="5.87" height="12.9"/></clipPath><clipPath id="e" transform="translate(0 0)"><rect class="a" x="7.82" y="5.74" width="10.13" height="11.52"/></clipPath></defs><g class="b"><path class="c" d="M12.17,3.72C10.84.78,9,.35,6.5,2.18,7.83,4.8,9.05,5.3,12.17,3.72" transform="translate(0 0)"/><path class="d" d="M12.17,3.72,6.5,2.18C7.83,4.8,9.05,5.3,12.17,3.72" transform="translate(0 0)"/><path class="e" d="M5,.05a16.77,16.77,0,0,1,.38,5.26l.39,0c.07-.7.09-2.37.1-3.12l3.36.76L5.9,1.86C5.79.84,5.77.72,5.67,0L5,.05" transform="translate(0 0)"/></g><g class="f"><path class="g" d="M5.67,4.67c3.93-1,5.89,2.59,5.61,6.36-.25,3.54-2.2,6.48-4.84,6.48a3.31,3.31,0,0,1-.77-.09,3.31,3.31,0,0,1-.77.09C2.26,17.51.3,14.63,0,11c-.29-3.82,1.7-7.39,5.64-6.36" transform="translate(0 0)"/></g><g class="h"><path class="i" d="M5.72,17.43C7.65,16.61,9,14.06,9.21,11.1,9.43,7.92,8.05,5.21,6,4.6c3.72-.76,5.57,2.76,5.3,6.43s-2.2,6.48-4.84,6.48a3.38,3.38,0,0,1-.72-.08" transform="translate(0 0)"/></g><g class="b"><path class="j" d="M3.88,5.34c.33.29.23,1-.22,1.56s-1.08.79-1.42.5-.23-1,.23-1.56,1.08-.79,1.41-.5" transform="translate(0 0)"/></g><g class="k"><path class="l" d="M11.42,6.54c3-2,5.52.42,6.28,3.59.72,3-.12,6-2.29,6.75a3.61,3.61,0,0,1-.65.15,3.45,3.45,0,0,1-.61.3c-2.17.77-4.54-1-5.71-3.91-1.23-3.05-.53-6.57,3-6.88" transform="translate(0 0)"/></g><g class="b"><path class="m" d="M11.74,7.55c.38-1.7,4.35-2.42,5.58,2.72.66,2.74-.11,5.48-2.1,6.19a3.26,3.26,0,0,1-.6.14,2.89,2.89,0,0,1-.56.27c-2,.71-4.17-.94-5.24-3.58-2-4.85,1.6-6.76,2.92-5.74" transform="translate(0 0)"/><path class="n" d="M12,8.42c2.78-1,6.61,5.15,2.14,6.73S9.22,9.4,12,8.42" transform="translate(0 0)"/><path class="o" d="M12.3,9.36c1.83.17,3.95,4,1.54,4.84s-2.9-3.54-1.54-4.84" transform="translate(0 0)"/><path class="p" d="M12.3,9.36l1.54,4.84c-2.4.86-2.9-3.54-1.54-4.84" transform="translate(0 0)"/><path class="q" d="M12.46,9.86c.1,0,.26.47.16.5s-.26-.47-.16-.5" transform="translate(0 0)"/><path class="q" d="M12.76,10.79c.1,0,.25.47.15.5s-.26-.47-.15-.5" transform="translate(0 0)"/><path class="q" d="M13.05,11.72c.11,0,.26.47.16.5s-.26-.46-.16-.5" transform="translate(0 0)"/><path class="q" d="M13.35,12.65c.1,0,.26.47.15.5s-.25-.46-.15-.5" transform="translate(0 0)"/><path class="q" d="M13.65,13.58c.1,0,.25.47.15.5s-.26-.46-.15-.5" transform="translate(0 0)"/><path class="q" d="M13.67,10.44c-.08.07.23.48.31.41s-.23-.48-.31-.41m-1.84.65c.1,0,.09.53,0,.53S11.72,11.09,11.83,11.09Zm.92,1.9c.09-.07.38.37.3.44S12.67,13.06,12.75,13Zm-.44-2c.11,0,.12.54,0,.54S12.21,11,12.31,11ZM12.46,12c.1,0,.21.5.11.53S12.35,12,12.46,12ZM12,10c.11,0,0,.54-.09.52S11.94,10,12,10ZM12.86,14c0-.11.49,0,.47.12S12.83,14.06,12.86,14Zm-.68-.67c.09-.07.38.35.3.42S12.1,13.35,12.18,13.28Zm-.32-1.06c.11,0,.21.49.11.52S11.76,12.25,11.86,12.22Zm2.16.32c-.11,0-.1.54,0,.54S14.12,12.54,14,12.54Zm-.82-1.91c-.09.07.21.51.3.44S13.28,10.56,13.2,10.63Zm.49.94c-.1,0,.12.54.21.49S13.79,11.52,13.69,11.57Zm-.8-1.84c-.07.08.3.44.37.35S13,9.64,12.89,9.73Zm1.59,3.64c-.08-.07-.39.33-.3.4S14.56,13.44,14.48,13.37Zm.16-1c-.11,0-.1.52,0,.52S14.74,12.41,14.64,12.41Zm-.35-1.05c-.1.05.11.53.21.48S14.38,11.31,14.29,11.36Z" transform="translate(0 0)"/></g></svg>