<svg xmlns="http://www.w3.org/2000/svg" xmlns:xlink="http://www.w3.org/1999/xlink" width="256px" height="256px" viewBox="0 0 20.64 22.52"><defs><style>.a{fill:none;}.b{fill:#b3408f;}.c{fill:#a93878;}.d{fill:#80d194;}.e{fill:#f8e2f2;}.f{fill:#f7fbfb;}.g{fill:#a2dda9;}.h{fill:#67b77d;}.i{fill:#933624;}.j{fill:#fdfefe;}.k{fill:#e7018f;}.l{clip-path:url(#a);}.m{fill:#20a211;}.n{fill:#ff0c27;}.o{fill:#ff687d;}.p{fill:#ffaebe;}.q{fill:#ffd1da;}.r{fill:#f68f9b;}.s{fill:#f60618;}.t{fill:#f63b4c;}.u{fill:#cbced0;}.v{fill:#25b314;}.w{fill:#ff0e2e;}.x{fill:#dbdddf;}.y{fill:#29be16;}.z{fill:#2fca1a;}.aa{fill:#ff0f33;}.ab{fill:#ff123c;}.ac{fill:#128409;}.ad{fill:#8f0a15;}.ae{fill:#179b0b;}.af{fill:#f90513;}.ag{fill:#f92e3f;}.ah{fill:#f0020c;}.ai{fill:#f01a26;}.aj{fill:#fa707f;}.ak{fill:#1f4708;}.al{fill:#113a05;}.am{fill:#8c040b;}.an{fill:#3d150c;}</style><clipPath id="a" transform="translate(-0.06)"><rect class="a" y="13.48" width="9.76" height="9.01"/></clipPath></defs><path class="b" d="M20,17.58a4.77,4.77,0,0,1-1,3.14,6.27,6.27,0,0,1-3,1.12,18.73,18.73,0,0,1-3.66.25c-1.21,0-2.42-.11-3.62-.24a6.65,6.65,0,0,1-3.23-.93C4.37,20.13,4.14,18.7,4,17.42a17.75,17.75,0,0,1,.09-4.37A19.77,19.77,0,0,1,4.54,11,10.69,10.69,0,0,1,4.9,9.9a12.57,12.57,0,0,0,.7-1.43L5.91,8c.17.36.39,1,.79,1s.71-.26,1.06-.58.67-.67,1.09-.67.75.41.9.8c.36,1,1.12,1.71,2.08,1.19.44-.24.53-.73.71-1.21.08-.22.33-.77.55-.82s.66.87.78,1.08a1.36,1.36,0,0,0,1.21.82c.45,0,.57-.41.79-.83s.21-1,.47-1.15c.52-.36,1.88,1,2.3,1.22l.2.12a6.54,6.54,0,0,1,.51,1.29A18.07,18.07,0,0,1,19.89,14a23.18,23.18,0,0,1,.1,3.63" transform="translate(-0.06)"/><path class="c" d="M20,17.58a4.71,4.71,0,0,1-1,3.14,6.34,6.34,0,0,1-3,1.12,18.73,18.73,0,0,1-3.66.25c-1.21,0-2.42-.11-3.62-.24a6.65,6.65,0,0,1-3.23-.93A4.44,4.44,0,0,1,4,17.66,3.56,3.56,0,0,0,5.31,20a6.52,6.52,0,0,0,3.22.94c1.21.13,2.41.22,3.62.24a18.63,18.63,0,0,0,3.66-.26,6.2,6.2,0,0,0,3-1.12c.8-.72,1.28-3.4,1.18-2.19" transform="translate(-0.06)"/><path class="c" d="M18.84,9.82s-1.66-1.47-2.17-1.39c-.31.05-.49,1-.65,1.28s-.49.76-.94.75a1.37,1.37,0,0,1-1.21-.81c-.12-.21-.38-1.08-.74-1s-.64,1.49-1.4,1.76A1.52,1.52,0,0,1,9.62,9.37c-.15-.39-.28-.76-.77-.76s-.8.4-1.09.66-.64.64-1.17.57A1.91,1.91,0,0,1,5.46,9l.27-.95c.18.36.42.81.82.87s.71-.27,1.07-.59.67-.67,1.08-.67.76.41.9.81c.36,1,1.12,1.7,2.08,1.18.45-.23.53-.73.71-1.21.08-.22.34-.77.55-.82.36-.09.83.72,1,.93.27.48.48,1,1,1s.57-.41.8-.82.21-1,.47-1.16c.52-.36,1.9.93,2.29,1.23.82.62.35,1.05.35,1.05" transform="translate(-0.06)"/><path class="d" d="M18.08,4.94c.62-2.64.54-3.79-1.77-4.09S6.22.06,6,2.16a5.08,5.08,0,0,0,.23,2.78s-2.8,2.82-2.6,3.44C4,9.4,5,8.84,5.71,8.12c0,0,.48,1.8,2.24.18s2,.88,2.52,1.2c.69.44,1.33.46,2.12-1.17S13.8,8.71,14,9a1,1,0,0,0,1.84-.33c.5-1.31,1-1.36,2.34-.13s2.34.21,2.13-.64-2.24-3-2.24-3" transform="translate(-0.06)"/><path class="e" d="M12.14,18.21c-2,.13-5.61-.24-5.68-3a4.27,4.27,0,0,1,1.63-3.27,5.06,5.06,0,0,1,3.5-.86c2.13.14,5.09.74,5.54,3.36.5,3-2.89,3.64-5,3.78" transform="translate(-0.06)"/><path class="f" d="M12.13,18.16c-1.93.13-5.52-.24-5.59-3A4.2,4.2,0,0,1,8.14,12a5,5,0,0,1,3.46-.85c2.09.14,5,.73,5.45,3.32.5,2.91-2.84,3.59-4.92,3.72" transform="translate(-0.06)"/><path class="g" d="M17.3,1.26c0,.36-2.37.66-5.29.66s-5.29-.3-5.29-.66S9.09.59,12,.59s5.29.3,5.29.67" transform="translate(-0.06)"/><path class="h" d="M18.2,5.46c-4,.87-9.42,1.08-10.89.41S6.54,5,6.54,5a12.17,12.17,0,0,0,6,.78c3.2-.46,5.51-.88,5.51-.88l.12.52" transform="translate(-0.06)"/><path class="g" d="M8.06,1.41c-1.94.51-1.3,2.85-.87,3.76,0,0-3.91,3.51-2.51,3.49,0,0-1.13.54-1-.28s2.46-3.1,2.46-3.1a11.43,11.43,0,0,1-.26-2.62C5.92,1.45,7.48,1,7.9.89s.16.52.16.52" transform="translate(-0.06)"/><path class="h" d="M17.14,1.24c1.06,1,.22,3.87.22,3.87s2.49,2.48,2.44,3.14c-.05.93-.76.63-.76.63s1,.35,1.31-.28S19.2,6.09,18.12,5c0,0,.71-2.06.3-3a1.22,1.22,0,0,0-1.28-.79" transform="translate(-0.06)"/><path class="i" d="M9.16,13.11c-.24.25.39,2.83-.39,2.67-.18,0,.09-.66,0-.81-.32-.5-.64.14-.67.46,0,.49.18,1,.71,1s.9-.66,1-1.21c0-.26.05-2.79-.62-2.12" transform="translate(-0.06)"/><path class="i" d="M8.85,12.24a.32.32,0,1,0,.63,0,.32.32,0,1,0-.63,0" transform="translate(-0.06)"/><path class="i" d="M11.29,13.15c-.67.17-.85,1-.89,1.61,0,.33-.14,1.56.32,1.69s.31-1,.31-1.21v-.09h0a6.83,6.83,0,0,0,1.1-.11,5.17,5.17,0,0,0-.1,1.08c.1.31.39.29.56.09a3.34,3.34,0,0,0,0-2.25,1.15,1.15,0,0,0-1.34-.81m-.24,1.32c0-.33.16-.64.45-.69s.51.24.59.59A2.2,2.2,0,0,0,11.05,14.47Z" transform="translate(-0.06)"/><path class="i" d="M14.4,13.8c-.15-.3-.45-.62-.81-.42-.55.3-.71,2.2-.3,2.67s.56-.11.51-.47a3.43,3.43,0,0,1,0-1.46c.12.26.15.74.52.71s.39-.56.64-.73c.34.6,0,1.26.1,1.87,0,.18.09.34.3.34s.35-.41.38-.67a3.39,3.39,0,0,0-.19-1.76c-.29-.58-.83-.53-1.2-.08" transform="translate(-0.06)"/><path class="i" d="M16.77,10.75a.32.32,0,1,0-.63,0,.32.32,0,0,0,.63,0" transform="translate(-0.06)"/><path class="i" d="M18.19,9.91a.32.32,0,1,0-.63,0,.32.32,0,1,0,.63,0" transform="translate(-0.06)"/><path class="i" d="M17.89,11.8a.32.32,0,1,0,.63,0,.32.32,0,1,0-.63,0" transform="translate(-0.06)"/><path class="i" d="M9.73,10.56a4.8,4.8,0,0,0-3.82,4.7c.09,2.41,2.62,3.38,4.56,3.56s4.43-.06,6-1.29a3.55,3.55,0,0,0,.29-5.09c-1.63-1.86-4.79-2.31-7.06-1.88m2.4,7.6c-1.93.13-5.52-.24-5.59-3A4.2,4.2,0,0,1,8.14,12a5,5,0,0,1,3.46-.85c2.09.14,5,.73,5.45,3.32C17.55,17.35,14.21,18,12.13,18.16Z" transform="translate(-0.06)"/><path class="i" d="M19.4,9.43a1,1,0,0,0,1.21-.95c.08-1-1.16-2.35-2.05-3.29a.3.3,0,0,0-.25-.43l.08-.13a5,5,0,0,0,.26-1.29,3.1,3.1,0,0,0,0-1.25C18.27.47,16,.38,14.73.28a26.22,26.22,0,0,0-5.24.1C8.1.54,5.78.51,5.64,2.47a5,5,0,0,0,.11,1.27c0,.15.08.51.16.83h0c-.4.1-.24.44,0,.6l0,0C5.3,5.84,4.63,6.33,4.09,7S3,8.43,3.65,9.07a1,1,0,0,0,1.27,0,11.38,11.38,0,0,0-.84,2.33,17.42,17.42,0,0,0-.5,4.88c.07,1.48.2,3.36,1.22,4.49s2.63,1.35,4,1.51a31.4,31.4,0,0,0,5.13.18,10.64,10.64,0,0,0,4.63-1.09c1.25-.72,1.57-2.22,1.7-3.6A24.71,24.71,0,0,0,20,12a10.87,10.87,0,0,0-.64-2.57m-13.12-7a1.12,1.12,0,0,1,.64-.86,7.22,7.22,0,0,1,2.52-.47A27.27,27.27,0,0,1,14.86.94h-.09a7.31,7.31,0,0,1,2.53.51c.79.37.86,1,.71,1.87a10.4,10.4,0,0,0-.25,1.47l-.33.08c-.28.07-.57.16-.79.2-.55.1-1.09.2-1.65.27s-.91.1-1.38.13a5.81,5.81,0,0,0,1.92-1.3c.51-.56.76-2.13-.39-2a4,4,0,0,0-2.27,1.69,6.49,6.49,0,0,0-.64,1A9,9,0,0,0,11.86,4c-.37-.75-1-2-2-1.87s-.93,1.35-.41,2a5.68,5.68,0,0,0,1.71,1.36,23.38,23.38,0,0,1-2.69-.24L8,5.16c-.26,0-.51-.11-.76-.18s-.42-.18-.67-.28A11.41,11.41,0,0,0,6.28,3,2.74,2.74,0,0,1,6.28,2.38ZM12.85,5a4.48,4.48,0,0,1,.43-.64c.23-.29,1.23-1.61,2-1.56.42.12-.16.86-.27,1A6.29,6.29,0,0,1,12.85,5Zm-1.28-.09A4.62,4.62,0,0,1,9.81,3.57c-.18-.28-.26-.8.23-.76C10.8,3,11.31,4.28,11.57,4.94ZM4.21,8.65c-.93-.26,1.57-2.48,1.86-2.78a3.16,3.16,0,0,0,.36-.41,8.35,8.35,0,0,0,1,.26,16.41,16.41,0,0,0,3.12.37l.95,0a4.56,4.56,0,0,1-1,1.18c-.16.15-.42.29-.32.56s.33.21.51.12A3.79,3.79,0,0,0,12,6.49c.05-.09.11-.2.17-.33a3.11,3.11,0,0,0,.61.76c.26.23,1.22,1,1.55.68s-.45-.51-1.09-1.13A4,4,0,0,1,13,6.1a27.9,27.9,0,0,0,4.14-.46c.17,0,.6,0,.94-.12a9.24,9.24,0,0,1,1.37,1.6c.23.35.85,1.17.44,1.59s-.74.14-1.13-.11l-.19-.13c-.22-.16-.41-.32-.54-.42-.48-.37-1.17-1-1.81-.7s-.35,1.46-1,1.79c-.77.42-1-.77-1.32-1.2s-1.17-.88-1.53-.13c-.28.58-.22,1.31-.89,1.61s-1.15-.29-1.36-.89S9.62,7.36,8.9,7.4a1.86,1.86,0,0,0-1,.43c-.3.23-.67.78-1.05.88-.56.14-.47-.74-.78-1C5.55,7.23,4.83,8.83,4.21,8.65Zm15.48,8.83a4.5,4.5,0,0,1-1,3,6,6,0,0,1-2.88,1.08,17.28,17.28,0,0,1-3.52.25c-1.17,0-2.33-.11-3.49-.23a6.42,6.42,0,0,1-3.11-.9c-1-.76-1.26-2.14-1.4-3.37a16.56,16.56,0,0,1,.09-4.22c.06-.41.25-1.37.42-2,.11-.35.22-.7.36-1.05A11.66,11.66,0,0,0,5.83,8.7l0-.07a1.19,1.19,0,0,0,.8.75c.5.06.92-.39,1.26-.7S8.56,8,9,8s.52.47.67.86A1.58,1.58,0,0,0,11.83,10a2.07,2.07,0,0,0,.91-1.12c.07-.21.1-.8.31-.85s.63.85.75,1A1.31,1.31,0,0,0,15,9.83a1.1,1.1,0,0,0,1-.6c.16-.29.17-1.08.42-1.25.5-.34,1.6.87,2,1.12l.19.11a5.91,5.91,0,0,1,.49,1.25A18,18,0,0,1,19.61,14,21.54,21.54,0,0,1,19.69,17.48Z" transform="translate(-0.06)"/><rect class="a" x="2.94" width="17.7" height="22.52"/><path class="j" d="M11.86,11.2a8.43,8.43,0,0,0-1,.06,7.4,7.4,0,0,0-1,.18,6.47,6.47,0,0,0-.91.3,5.27,5.27,0,0,0-.79.39,4.76,4.76,0,0,0-.65.48,3.11,3.11,0,0,0-.48.56,2.53,2.53,0,0,0-.3.59,2.23,2.23,0,0,0-.1.62,2.17,2.17,0,0,0,.1.62,2.41,2.41,0,0,0,.3.6,2.75,2.75,0,0,0,.48.55,4.09,4.09,0,0,0,.65.49A8.29,8.29,0,0,0,9,17a6.47,6.47,0,0,0,.91.3,7.4,7.4,0,0,0,1,.18,8.62,8.62,0,0,0,2,0,7.4,7.4,0,0,0,1-.18,6.47,6.47,0,0,0,.91-.3,8.29,8.29,0,0,0,.79-.39,4.09,4.09,0,0,0,.65-.49,2.75,2.75,0,0,0,.48-.55A2.41,2.41,0,0,0,17,15a2.17,2.17,0,0,0,.1-.62,2.23,2.23,0,0,0-.1-.62,2.53,2.53,0,0,0-.3-.59,3.11,3.11,0,0,0-.48-.56,4.76,4.76,0,0,0-.65-.48,5.27,5.27,0,0,0-.79-.39,6.47,6.47,0,0,0-.91-.3,7.4,7.4,0,0,0-1-.18A8.47,8.47,0,0,0,11.86,11.2Z" transform="translate(-0.06)"/><path class="k" d="M8.52,15.25s0,0,0-.05a3.57,3.57,0,0,1,1.38-1.88.66.66,0,0,1,.2-.06c.11,0,.15,0,.15.14v0a2.1,2.1,0,0,1-.53,1,2.64,2.64,0,0,1-1.15.81ZM8,16.7a.11.11,0,0,0,.09-.05.44.44,0,0,0,.07-.22l.19-.83a.24.24,0,0,1,0-.08.08.08,0,0,1,0-.07,1.73,1.73,0,0,1,.32.11l.18.07.18.07a.86.86,0,0,0,.32.05,1.24,1.24,0,0,0,.72-.24l.57-.44A.26.26,0,0,0,10.8,15a.14.14,0,0,0,0-.07.07.07,0,0,0-.06-.06h0l-.05,0-.29.23-.3.24a1.19,1.19,0,0,1-.69.25l-.21,0a2.11,2.11,0,0,1-.47-.19,0,0,0,0,1,0,0l0,0,0,0,0,0a3.2,3.2,0,0,0,1.38-1.37,1.75,1.75,0,0,0,.12-.32.57.57,0,0,0,0-.29.2.2,0,0,0-.2-.19c-.6,0-1.17.76-1.45,1.28a.33.33,0,0,1,0-.14.56.56,0,0,0,0-.12c.11-.45.23-.9.35-1.35a.26.26,0,0,0,0-.15.12.12,0,0,0,0-.05H9l0,0a.25.25,0,0,0,0,.11l0,.11c-.12.53-.25,1-.4,1.56-.07.24-.13.49-.19.74a4.79,4.79,0,0,1-.24.73,2.14,2.14,0,0,0-.13.62.65.65,0,0,0,0,.14A.11.11,0,0,0,8,16.7Z" transform="translate(-0.06)"/><path class="k" d="M10.75,15.19h0s0,0,0,0c.06-.17.25-.45.43-.47,0,0,0,0,0,0S10.9,15.11,10.75,15.19Zm.05.67c.38,0,1-.56,1.23-.84,0,0,0,0,0-.06s0-.05,0-.08l0,0,0,0-.05,0-.05.05-.19.18-.2.19a1.48,1.48,0,0,1-.64.37c-.1,0-.16,0-.19-.13a.31.31,0,0,1,0-.19s0,0,0-.05a.9.9,0,0,0,.66-.62c0-.13-.06-.21-.17-.21h0c-.29,0-.51.43-.6.69a.53.53,0,0,0,0,.25.42.42,0,0,0,0,.19A.26.26,0,0,0,10.8,15.86Z" transform="translate(-0.06)"/><path class="k" d="M12,15.66h0a1.58,1.58,0,0,0,.72-.27,7.13,7.13,0,0,0,.75-.58l0,0s0,0,0,0a.06.06,0,0,0,0-.08.05.05,0,0,0-.05,0h0l-.05,0,0,0L13.1,15l-.28.23a2,2,0,0,1-.74.34H12c-.22,0-.31-.12-.25-.36a1.31,1.31,0,0,1,.39-.66.26.26,0,0,1,.15-.07c.06,0,.1,0,.11.11a.24.24,0,0,1-.05.2.08.08,0,0,1,0,0,.13.13,0,0,0,0,.06,0,0,0,0,0,0,0s0,0,0,0h0l0,0a.51.51,0,0,0,.11-.39.25.25,0,0,0-.25-.18.32.32,0,0,0-.21.09,1.57,1.57,0,0,0-.47.78s0,0,0,.08A.37.37,0,0,0,12,15.66Z" transform="translate(-0.06)"/><path class="k" d="M13.65,15.19h0a0,0,0,0,1,0,0c.06-.17.25-.45.43-.47s.05,0,.05,0S13.79,15.11,13.65,15.19Zm0,.67c.38,0,1-.56,1.22-.84A.13.13,0,0,0,15,15a.07.07,0,0,0,0-.08.05.05,0,0,0,0,0l0,0,0,0-.06.05-.19.18-.2.19a1.44,1.44,0,0,1-.63.37c-.11,0-.17,0-.19-.13a.26.26,0,0,1,0-.19.06.06,0,0,1,.05-.05.89.89,0,0,0,.65-.62c0-.13-.05-.21-.16-.21H14c-.29,0-.51.43-.6.69a1,1,0,0,0,0,.25.63.63,0,0,0,0,.19A.27.27,0,0,0,13.7,15.86Z" transform="translate(-0.06)"/><path class="k" d="M15.33,14.11a.14.14,0,0,1,0-.11,5.62,5.62,0,0,1,.38-.78s0,0,.06,0h0v0h0l-.15.3c-.11.21-.21.42-.32.62Zm-.45,2.28c.11,0,.29-.19.35-.28s.23-.32.36-.49.23-.32.35-.47L16,15a.08.08,0,0,0,0-.07,0,0,0,0,0,0-.06h0s-.09.09-.11.12c-.24.33-.52.73-.78,1.06,0,0-.13.17-.18.17a0,0,0,0,1-.05,0,.62.62,0,0,1,0-.33,3,3,0,0,1,.29-1.24A6.54,6.54,0,0,0,16,13a.09.09,0,0,0-.05-.11h0a.11.11,0,0,0-.07,0A5.15,5.15,0,0,0,15,14.61a1,1,0,0,1-.15.34s0,.06,0,.09a.17.17,0,0,1,0,.18,3.5,3.5,0,0,0-.09.75v.19C14.72,16.25,14.77,16.39,14.88,16.39Z" transform="translate(-0.06)"/><g class="l"><path class="m" d="M2.44,17.32a3.71,3.71,0,0,1-.44-1,2.44,2.44,0,0,1,.37-1.44,3,3,0,0,1,.75-.59s.35-.22.52.73a7.09,7.09,0,0,0,.57,1.78l.5.71.14-1a4.36,4.36,0,0,1,2-2.35c.21-.08.49-.26.66.14a2.48,2.48,0,0,1,0,1.45,5.89,5.89,0,0,1-1.17,2.27c-.18.18-.49.54-.49.54s0-.24-.79-.53a2.17,2.17,0,0,0-1.22.09,2.67,2.67,0,0,0-1.43-.85" transform="translate(-0.06)"/><path class="n" d="M3.84,18.08a2.39,2.39,0,0,0-3-.46c-.19.06-.31,0-.49.44a1.77,1.77,0,0,1-.23.41l.13.23,0,.19,0,.31.1.06s-.12.27.28.73a2.54,2.54,0,0,0,1.7,1,1.8,1.8,0,0,0,1.45,1.35c1.1.29,2.14-1.06,2.2-1.12s.19.06.44.16a2.58,2.58,0,0,0,1.07.15,2.36,2.36,0,0,0,1.84-1.2,1.91,1.91,0,0,0-1.63-2.39,6.47,6.47,0,0,0-1.29.18l-.45.46s-.15-.11-.39-.26a2.14,2.14,0,0,0-1.69-.19" transform="translate(-0.06)"/><path class="o" d="M5.11,20.3a1,1,0,0,1-.76-1.36.78.78,0,0,1,.7-.42.83.83,0,0,1,.22,0,1,1,0,0,1,.45,1.35.68.68,0,0,1-.49.39H5.11" transform="translate(-0.06)"/><path class="o" d="M7.6,19.23a.82.82,0,0,1-.54-.2.42.42,0,0,1-.19-.35c0-.2.25-.31.44-.37a1.63,1.63,0,0,1,.44-.08h0a.49.49,0,0,1,.41.23.46.46,0,0,1,0,.49.65.65,0,0,1-.42.26l-.16,0" transform="translate(-0.06)"/><path class="o" d="M2.19,18.9a1.15,1.15,0,0,1-.77-.35.49.49,0,0,1,.15-.88,1.3,1.3,0,0,1,.51-.11.78.78,0,0,1,.4.09.7.7,0,0,1,.38.78.69.69,0,0,1-.67.47h0" transform="translate(-0.06)"/><path class="p" d="M5.48,19.14a.35.35,0,0,0-.1-.19A.34.34,0,0,0,5,18.88a.39.39,0,0,0-.26.27.43.43,0,0,0,0,.16.45.45,0,0,0,0,.23.39.39,0,0,0,.63.22.55.55,0,0,0,.09-.62" transform="translate(-0.06)"/><path class="p" d="M8,18.45a.52.52,0,0,0-.5,0,.37.37,0,0,0-.17.48.22.22,0,0,0,.14.09h0A.54.54,0,0,0,8,18.94a.29.29,0,0,0,0-.49" transform="translate(-0.06)"/><path class="p" d="M2.11,18a.33.33,0,0,0-.39.17.43.43,0,0,0,.08.47.33.33,0,0,0,.32.11.42.42,0,0,0,.15,0c.32-.17.13-.63-.16-.71" transform="translate(-0.06)"/><path class="o" d="M5.11,21.57l-.05,0a.42.42,0,0,1-.33-.4A.3.3,0,0,1,5,20.84H5l.09,0h.12v0a.16.16,0,0,1,.17-.13.18.18,0,0,1,.19.18.71.71,0,0,1,0,.21.38.38,0,0,1-.08.41l0,0h0a.51.51,0,0,0-.3.1" transform="translate(-0.06)"/><path class="q" d="M9.34,19.43a2.19,2.19,0,0,0-.4-.81.81.81,0,0,1,.13.12,1.18,1.18,0,0,1,.27.59.17.17,0,0,1,0,.1" transform="translate(-0.06)"/><path class="o" d="M9.17,19.54A.17.17,0,0,1,9,19.42a2.7,2.7,0,0,0-.18-.5c0-.09-.16-.23-.1-.33a.08.08,0,0,1,.07,0,.21.21,0,0,1,.13.07,2.19,2.19,0,0,1,.4.81.2.2,0,0,1-.11.11H9.17" transform="translate(-0.06)"/><path class="o" d="M3.18,18.29l0,0a.2.2,0,0,1-.07-.06.15.15,0,0,1,0-.16L3.11,18l.08,0h0a.22.22,0,0,1,.18.1s0,0,0,0-.17.1-.24.2" transform="translate(-0.06)"/><path class="o" d="M1.48,19.58l-.3-.29,0,0h0a.17.17,0,0,1,.07-.1.15.15,0,0,1,.09,0,.18.18,0,0,1,.16.09.33.33,0,0,1,0,.29.3.3,0,0,1,0,.08" transform="translate(-0.06)"/><path class="o" d="M.69,18.5h0l0-.06a.21.21,0,0,0-.11-.08.78.78,0,0,1,0-.4.28.28,0,0,0,0-.09h0a.18.18,0,0,1,.17-.16.12.12,0,0,1,.12.08A.4.4,0,0,1,.85,18a.76.76,0,0,1,0,.16c0,.11,0,.23,0,.32a.11.11,0,0,1-.1.06" transform="translate(-0.06)"/><path class="o" d="M4.23,20.75a.17.17,0,0,1-.12-.05L4,20.53a.21.21,0,0,0,0-.06l-.11-.16,0,0h0l0,0c-.07,0-.12-.11-.13-.17l0,0v0a.36.36,0,0,0,0-.11.17.17,0,0,1,.1-.06h.05c.12,0,.2.14.27.23a2.07,2.07,0,0,1,.28.38.18.18,0,0,1,0,.19l0,0-.07,0" transform="translate(-0.06)"/><path class="o" d="M7.88,20a.06.06,0,0,1,0,0,.48.48,0,0,1-.18-.26c0-.12,0-.18.1-.28s.32-.43.53-.48h0a.16.16,0,0,1,.14.07l.06.17a.14.14,0,0,1-.08.18l-.06,0H8.33l-.07,0,0,0a1.43,1.43,0,0,1-.13.16A1.46,1.46,0,0,1,8,19.7.34.34,0,0,1,8,20L8,20l-.08,0" transform="translate(-0.06)"/><path class="r" d="M.33,19.56a.11.11,0,0,1-.07-.1l0-.09a.54.54,0,0,0,0,.19M2,20.93H2a.16.16,0,0,1-.11-.07l.21,0a.09.09,0,0,1-.06,0" transform="translate(-0.06)"/><path class="s" d="M.78,19.15a.39.39,0,0,1-.06.18,1.59,1.59,0,0,0,.13.22,1.12,1.12,0,0,1-.07-.4M2.09,20.9l-.21,0a.69.69,0,0,1-.1-.44,1.12,1.12,0,0,1-.61-.32L1.09,20a.19.19,0,0,1-.15.11.11.11,0,0,1-.07,0,1.24,1.24,0,0,1-.38-.54.2.2,0,0,1-.11,0h0a.54.54,0,0,1,0-.19l.1-.14a.62.62,0,0,1,.18-.18A.24.24,0,0,1,.68,19h0A.06.06,0,0,1,.76,19a.29.29,0,0,1,0,.09h0A.15.15,0,0,1,.93,19a.12.12,0,0,1,.11.08.47.47,0,0,1,.05.1l0,0a.16.16,0,0,0-.13-.06.1.1,0,0,0-.11.12,1.38,1.38,0,0,0,.38.75c.1.12.37.41.58.41l.1,0c.27-.16-.16-.4-.26-.48a2.39,2.39,0,0,1-.22-.23l.07,0a2.43,2.43,0,0,0,.25.2.66.66,0,0,0,.15.09.43.43,0,0,1,.23-.23.67.67,0,0,0,.05.52l0,0a.14.14,0,0,1,0,.06s0,.07,0,.1.08.42,0,.56h0" transform="translate(-0.06)"/><path class="t" d="M1.41,19.62l-.23-.33.3.29-.07,0" transform="translate(-0.06)"/><path class="s" d="M4.08,22.21a1.26,1.26,0,0,1-.33-.05,1.59,1.59,0,0,1-.84-.65,2.07,2.07,0,0,1-.41-1.08c0-.22,0-.79.36-.8h0a0,0,0,0,1,0,0v0l.05,0c0-.08,0-.15.13-.15h0c.06,0,.08.08.11.13h0s0,0,0,0h0a.18.18,0,0,1,.16.11.12.12,0,0,1,.08,0h0a.21.21,0,0,1,.15.25.24.24,0,0,0-.07.17h0c0,.06,0,.11-.07.18a.65.65,0,0,1,0,.13.27.27,0,0,1-.1.11.09.09,0,0,1-.07,0l-.06,0a2.55,2.55,0,0,1-.08-.74A.13.13,0,0,0,3,19.69a.15.15,0,0,0-.15.1,1.7,1.7,0,0,0,.8,1.9.16.16,0,0,0,.09,0,.19.19,0,0,0,.13-.06.13.13,0,0,0,0-.15,1.16,1.16,0,0,1,.59.21.08.08,0,0,1,0,.07h0l0,0-.28.11a.16.16,0,0,0,0,.26H4.27l-.19,0" transform="translate(-0.06)"/><path class="t" d="M3.59,20.14h0A.24.24,0,0,1,3.66,20a.36.36,0,0,1,0,.11v0l0,0" transform="translate(-0.06)"/><path class="s" d="M7.72,20.65l-.26,0c-.1-.27-.47-.22-.7-.34a1.22,1.22,0,0,1-.15-.17v0A.14.14,0,0,0,6.53,20a1.24,1.24,0,0,1-.1-.2c-.06-.14-.14-.4,0-.52l.05,0h0c.12,0,.15.23.2.34A1.35,1.35,0,0,0,7,20a1.18,1.18,0,0,0,.5.22H7.9l.14,0a.17.17,0,0,1,.07.28.52.52,0,0,1-.39.13" transform="translate(-0.06)"/><path class="s" d="M7.22,21.11H7c-.25,0-.63-.08-.74-.35a.07.07,0,0,1,.05-.09l.13,0h.07a1.17,1.17,0,0,1-.37-.8.13.13,0,0,1,.14-.13.1.1,0,0,1,.1.07,2.53,2.53,0,0,1,.13.22h0a.15.15,0,0,0-.14.09.51.51,0,0,0,.34.57,1.66,1.66,0,0,0,.56.16.32.32,0,0,0,.2-.06.16.16,0,0,0,0-.07h.1a.57.57,0,0,1,.22,0,.08.08,0,0,1,0,.12h0a.19.19,0,0,1-.13.23l-.18,0H7.22" transform="translate(-0.06)"/><path class="s" d="M3,18.92a.08.08,0,0,1-.08-.07.87.87,0,0,1,.2-.45l.07-.11h.08a.16.16,0,0,0,.14-.08.2.2,0,0,0,0-.13h0s.05,0,.05,0-.07.3-.14.41a.83.83,0,0,1-.32.37H3" transform="translate(-0.06)"/><path class="t" d="M3.25,18.3H3.18c.07-.1.14-.19.24-.2a.2.2,0,0,1,0,.13.16.16,0,0,1-.14.08h0" transform="translate(-0.06)"/><path class="u" d="M6.33,18.11l0,0h0l0,0" transform="translate(-0.06)"/><path class="v" d="M6.06,18.4s0,0,0,0a5.09,5.09,0,0,1,.38-.68.39.39,0,0,0,.19-.19c-.09.19-.18.4-.28.58l0,0-.17.18.22-.48h0c-.09.17-.18.34-.26.52l-.06.07" transform="translate(-0.06)"/><path class="w" d="M6.08,18.42a0,0,0,0,1,0,0l.06-.07,0,.09m0,0a.83.83,0,0,0,.07-.13l.17-.18,0,0a1.57,1.57,0,0,1-.24.32s0,0,0,0" transform="translate(-0.06)"/><path class="v" d="M7.38,15.07h0a.12.12,0,0,0-.08,0,.34.34,0,0,0,0-.1,2.18,2.18,0,0,0,0-.57h0c0,.1.1.19.14.29a1,1,0,0,1-.12-.17h0a3.15,3.15,0,0,1,0,.44.66.66,0,0,0,0,.14m-.15.87-.11,0h0c0-.14.09-.28.12-.43l0-.13a.57.57,0,0,0,.14-.13c0,.06,0,.11,0,.16a2.46,2.46,0,0,1-.14.55m0,.42,0-.13,0,0-.06.15M6.64,17.5a.19.19,0,0,0,0-.19c.09-.26.17-.53.26-.8l-.23.07c-.22.09-.43.21-.65.31H5.93a.16.16,0,0,1-.14-.08.14.14,0,0,1,0-.11.91.91,0,0,1,.43-.53.14.14,0,0,0,.1.24h0l.55-.12.26-.07s0,.05,0,.07,0,0,0,0h0l.09-.08a1.72,1.72,0,0,1-.07.21,7.6,7.6,0,0,1-.51,1l0,.06" transform="translate(-0.06)"/><path class="v" d="M6.59,15.37l.14-.27A.3.3,0,0,1,7,14.92a.31.31,0,0,1,.13,0A.14.14,0,0,1,7.2,15a1.28,1.28,0,0,0-.41.19.92.92,0,0,0-.2.14m.07.37a.15.15,0,0,1-.14-.17s0,0,0-.06h0a.16.16,0,0,0,.12,0,.73.73,0,0,0,.24-.07.69.69,0,0,1-.16.21.12.12,0,0,1-.09,0" transform="translate(-0.06)"/><path class="v" d="M5.9,18.54h0" transform="translate(-0.06)"/><path class="w" d="M5.92,18.74a.1.1,0,0,1,0-.2h0a.11.11,0,0,1,0,.21" transform="translate(-0.06)"/><path class="x" d="M6.58,17.94s0,0,0,0,.09-.19.13-.28l.15-.22c-.08.17-.17.34-.26.51h0" transform="translate(-0.06)"/><path class="y" d="M6.91,15.49l0,0L7,15.32l0,0H7A.2.2,0,0,0,7.2,15h.08c0,.1,0,.21,0,.32l-.26.1-.07,0m-.71.69.06,0L6.79,16c.1,0,.2-.06.3-.07L7,16.08a.25.25,0,0,0-.14,0l-.19,0a2.77,2.77,0,0,0-.48.11h0m1.09,0a4.35,4.35,0,0,0,.22-.86,1.74,1.74,0,0,0,0-.51,1.21,1.21,0,0,0,0-.18.14.14,0,0,1,0,.06,1.17,1.17,0,0,1,.07.25,2.09,2.09,0,0,1,0,.5,1.48,1.48,0,0,1-.27.74M6.7,17.65a10.2,10.2,0,0,0,.48-1.19v0s0-.05,0-.08a10.48,10.48,0,0,1-.38,1.07l-.15.22" transform="translate(-0.06)"/><path class="z" d="M7.18,16.46a1.72,1.72,0,0,0,.07-.21l-.09.08h0s0,0,0,0,0-.05,0-.07l-.26.07-.55.12h0a.14.14,0,0,1-.1-.24h0a2.77,2.77,0,0,1,.48-.11l.19,0a.25.25,0,0,1,.14,0l.06-.16h0l.11,0a2.46,2.46,0,0,0,.14-.55c0-.05,0-.1,0-.16a.57.57,0,0,1-.14.13c0-.11,0-.22,0-.32a.12.12,0,0,1,.08,0h0a.66.66,0,0,1,0-.14,3.15,3.15,0,0,0,0-.44h0a1,1,0,0,0,.12.17,1.21,1.21,0,0,1,0,.18,1.74,1.74,0,0,1,0,.51,4.35,4.35,0,0,1-.22.86l0,0,0,.13s0,.05,0,.08v0" transform="translate(-0.06)"/><path class="y" d="M6.54,15.51s0-.1,0-.14a.58.58,0,0,0,0,.14" transform="translate(-0.06)"/><path class="z" d="M6.67,15.56a.16.16,0,0,1-.12,0h0a.58.58,0,0,1,0-.14.92.92,0,0,1,.2-.14A1.28,1.28,0,0,1,7.2,15,.2.2,0,0,1,7,15.3H7l0,0-.08.13,0,0a.73.73,0,0,1-.24.07" transform="translate(-0.06)"/><path class="aa" d="M6,18.52s0,0,0,0a.36.36,0,0,1,0-.09h0l0,.09H6" transform="translate(-0.06)"/><path class="z" d="M6.12,18.33c.08-.18.17-.35.26-.52h0l-.22.48,0,0" transform="translate(-0.06)"/><path class="ab" d="M6.09,18.42h0l0-.09,0,0a.83.83,0,0,1-.07.13h0" transform="translate(-0.06)"/><path class="y" d="M6.63,17.51h0m-.81.3a.18.18,0,0,1-.18-.17h0a.2.2,0,0,1,0-.17,1.64,1.64,0,0,1,.25-.21h0a.16.16,0,0,1,.07.09v0c.08,0,.15,0,.23,0h0a.4.4,0,0,0,.2-.11.11.11,0,0,1,.08,0,.17.17,0,0,1,.12.06l-.06.16a1.63,1.63,0,0,1-.11.23l-.11,0H6.24c-.11,0-.29,0-.28,0a.15.15,0,0,1-.14.09" transform="translate(-0.06)"/><path class="z" d="M6.44,17.7a1.63,1.63,0,0,0,.11-.23l.06-.16a.19.19,0,0,1,0,.19h0a.39.39,0,0,1-.19.19" transform="translate(-0.06)"/><path class="y" d="M4.58,17.63a1.46,1.46,0,0,0-.46,0H4.06c-.07-.07-.13-.15-.2-.23a5.23,5.23,0,0,1-.5-.73,1.85,1.85,0,0,1-.24-.86,4.54,4.54,0,0,1,0-.9l-.08.1a1.27,1.27,0,0,1-.3.31l0,0,0,0h0l0,0s0,0,0,0h0a.09.09,0,0,1,.07,0H2.59a.56.56,0,0,1,.07-.18.11.11,0,0,1,0-.05s0-.07,0-.11a.33.33,0,0,1,.15-.18.28.28,0,0,1,.13,0H3a1,1,0,0,1,.2-.16l.09,0a.15.15,0,0,1,.15.12.78.78,0,0,1,.05.14.16.16,0,0,1,0,.12,1,1,0,0,1,0,.3c.07.16.11.34.16.49l.24.69c.09.25.19.49.29.74,0,.09.11.2.15.31a1.35,1.35,0,0,1,.27.37" transform="translate(-0.06)"/><path class="ac" d="M4.75,18l-.24,0H4.36a3.7,3.7,0,0,1-.57-.07l-.2-.08A2.28,2.28,0,0,0,3,17.46a1.47,1.47,0,0,1-.21-.39.93.93,0,0,1-.31-.45h0a.09.09,0,0,1-.07,0c-.25-.22-.16-.79-.08-1.08a.64.64,0,0,1,.22-.38.16.16,0,0,1,.12-.05.34.34,0,0,0,0,.1.09.09,0,0,0,.1.1h.08s0,0,0,0a1.94,1.94,0,0,1,0,.54,2.61,2.61,0,0,0,.08.56,2.49,2.49,0,0,0,.2.58,1.71,1.71,0,0,1,.17.33l.23.13a1.07,1.07,0,0,0,.55.14.52.52,0,0,0,.37.18h.08a.11.11,0,0,0,.07-.13h0l.07,0c.09,0,.2.19.12.3l0,0" transform="translate(-0.06)"/><path class="ad" d="M3.59,17.82a1.57,1.57,0,0,1-.31-.18l-.1-.08H3.12a.44.44,0,0,1-.16-.1,2.28,2.28,0,0,1,.63.36" transform="translate(-0.06)"/><path class="ae" d="M2.69,15.29a.09.09,0,0,1-.1-.1.34.34,0,0,1,0-.1h.15a.09.09,0,0,0-.07,0h0s0,0,0,0l0,0h0l0,0,0,0H2.69m1.74,2.47a.52.52,0,0,1-.37-.18h.06a1.46,1.46,0,0,1,.46,0h0a.11.11,0,0,1-.07.13H4.43" transform="translate(-0.06)"/><path class="ac" d="M5.9,18.4l-.1,0c-.13-.09-.26-.2-.39-.31L5.31,18a.69.69,0,0,1-.13.11h0a.11.11,0,0,1-.08,0c-.13-.18,0-.44.11-.61l0,0a.24.24,0,0,1-.06-.11l-.05.06H5c-.13-.12-.1-.37-.08-.52a2.66,2.66,0,0,1,.17-.63,2.55,2.55,0,0,1,.31-.59,1.64,1.64,0,0,1,.21-.25.59.59,0,0,1,.23-.24l.07,0a.15.15,0,0,1,.1.25L6,15.42a0,0,0,0,1,0,.05s0,0,0,0l.09-.16h0a.52.52,0,0,1-.13.38c-.08.27-.24.52-.34.78s-.14.37-.21.55a.36.36,0,0,1,0,.11,1.43,1.43,0,0,1,.31-.24.16.16,0,0,1,.1,0,.19.19,0,0,1,.08.34l-.08,0a.15.15,0,0,0-.13.11.33.33,0,0,1,0,.13,1.37,1.37,0,0,0-.15.21v0l.13.1.39.28a.18.18,0,0,1-.08.33" transform="translate(-0.06)"/><path class="ae" d="M5.62,17.46a.33.33,0,0,0,0-.13.15.15,0,0,1,.13-.11l.08,0h0a1.64,1.64,0,0,0-.25.21" transform="translate(-0.06)"/><path class="af" d="M1.15,19.26l0,0,0-.08.06.09h0" transform="translate(-0.06)"/><path class="ag" d="M1.18,19.29l0,0h0l0,0" transform="translate(-0.06)"/><path class="ah" d="M1.79,20.35c-.21,0-.48-.29-.58-.41a1.38,1.38,0,0,1-.38-.75.1.1,0,0,1,.11-.12.16.16,0,0,1,.13.06l0,0,0,.08,0,0a.23.23,0,0,0,0,.16.22.22,0,0,0,.08.14.19.19,0,0,0,.13.07h.07a2.39,2.39,0,0,0,.22.23c.1.08.53.32.26.48l-.1,0" transform="translate(-0.06)"/><path class="ai" d="M1.34,19.63a.19.19,0,0,1-.13-.07.22.22,0,0,1-.08-.14.23.23,0,0,1,0-.16l0,0,.23.33H1.34" transform="translate(-0.06)"/><path class="af" d="M2.23,20.19h0a.93.93,0,0,0,.07-.46.12.12,0,0,0-.11-.08h0s0-.09,0-.14a.94.94,0,0,1,.15-.32A.72.72,0,0,1,2.53,19h0c0,.1,0,.21-.08.31l-.09.28a2.63,2.63,0,0,1-.1.56s0,0,0,0" transform="translate(-0.06)"/><path class="ah" d="M2.19,20.18l0,0a.67.67,0,0,1-.05-.52h0a.12.12,0,0,1,.11.08.93.93,0,0,1-.07.46h0" transform="translate(-0.06)"/><path class="af" d="M4,21.51l-.14-.05a1.35,1.35,0,0,1-.6-.56,1.26,1.26,0,0,1-.15-.38h0a.13.13,0,0,0,.08,0,.05.05,0,0,0,0,0s0,0,0,0a1.76,1.76,0,0,0,.17.37,1.69,1.69,0,0,0,.4.4.31.31,0,0,1,.13.17" transform="translate(-0.06)"/><path class="ah" d="M3.78,21.72a.16.16,0,0,1-.09,0,1.7,1.7,0,0,1-.8-1.9.15.15,0,0,1,.15-.1.13.13,0,0,1,.13.14,2.55,2.55,0,0,0,.08.74s0,0,0,0a.05.05,0,0,1,0,0,.13.13,0,0,1-.08,0h0a1.26,1.26,0,0,0,.15.38,1.35,1.35,0,0,0,.6.56l.14.05a.13.13,0,0,1,0,.15.19.19,0,0,1-.13.06" transform="translate(-0.06)"/><path class="af" d="M3.88,21,3.8,21a.29.29,0,0,1-.11-.16.25.25,0,0,1,0-.36.12.12,0,0,1,.12-.05h0l.07,0,0,.06v0a.49.49,0,0,1,0,.39.16.16,0,0,1-.13.08" transform="translate(-0.06)"/><path class="ag" d="M4,20.53l0-.06a.21.21,0,0,1,0,.06" transform="translate(-0.06)"/><path class="af" d="M8.34,19.78a.12.12,0,0,1-.1-.07.16.16,0,0,1-.09-.19s0,0,0-.06l0,0,.05-.08,0,0a.23.23,0,0,0,.11,0h.09v0h0a.17.17,0,0,1,0,.17h0v.06a.14.14,0,0,1-.12.09h0" transform="translate(-0.06)"/><path class="ag" d="M8.37,19.41a.23.23,0,0,1-.11,0l.07,0h.05l.06,0H8.37" transform="translate(-0.06)"/><path class="af" d="M7.47,20.69a1.22,1.22,0,0,1-1-.69h0a.44.44,0,0,0,.08.11.31.31,0,0,0,.15.17l.07.06a1.33,1.33,0,0,0,.63.28h0a.07.07,0,0,1,0,.05" transform="translate(-0.06)"/><path class="ah" d="M6.61,20.12A.44.44,0,0,1,6.53,20a.14.14,0,0,1,.07.08v0m.85.51h0a1.33,1.33,0,0,1-.63-.28l-.07-.06c.23.12.6.07.7.34" transform="translate(-0.06)"/><path class="ah" d="M7.23,20.82a1.66,1.66,0,0,1-.56-.16.51.51,0,0,1-.34-.57A.15.15,0,0,1,6.47,20h0a1.22,1.22,0,0,0,1,.69.16.16,0,0,1,0,.07.32.32,0,0,1-.2.06" transform="translate(-0.06)"/><path class="aj" d="M4.83,22.12a3.51,3.51,0,0,0,.63-.45.69.69,0,0,1-.38.33,1.92,1.92,0,0,1-.25.12" transform="translate(-0.06)"/><path class="af" d="M4.44,22.21a.19.19,0,0,1-.08,0,.45.45,0,0,0,.3-.24.1.1,0,0,0,0-.13l.28-.13.18-.11.1,0a.19.19,0,0,0,.16-.08h0l0,0a.09.09,0,0,1,.06.1.29.29,0,0,1,0,.1,3.51,3.51,0,0,1-.63.45,1.62,1.62,0,0,1-.38.09h0" transform="translate(-0.06)"/><path class="ag" d="M5.21,21.59l-.1,0a.51.51,0,0,1,.3-.1h0l0,0h0a.19.19,0,0,1-.16.08" transform="translate(-0.06)"/><path class="ah" d="M4.36,22.18a.16.16,0,0,1,0-.26l.28-.11a.1.1,0,0,1,0,.13.45.45,0,0,1-.3.24" transform="translate(-0.06)"/><path class="af" d="M.48,18.86a.12.12,0,0,1-.1-.05.24.24,0,0,1,0-.16s0,0,0-.06v-.08a.15.15,0,0,1,.12-.16H.51a.2.2,0,0,0,.14.14.3.3,0,0,1,0,.08.17.17,0,0,1,0,.22.18.18,0,0,1-.09,0,.11.11,0,0,1-.08,0" transform="translate(-0.06)"/><path class="ag" d="M.65,18.49a.2.2,0,0,1-.14-.14.21.21,0,0,1,.11.08l0,.06" transform="translate(-0.06)"/><path class="ak" d="M4.13,18A.94.94,0,0,1,4.37,18a.53.53,0,0,1,.12,0l-.36,0m.89,0a1.34,1.34,0,0,0-.3,0l0,0a.83.83,0,0,1,.27.07" transform="translate(-0.06)"/><path class="af" d="M5.15,18.35a5.11,5.11,0,0,1-.53-.13l-.23,0-.19,0a2.38,2.38,0,0,1-.26.05h0s0,0,0,0a.36.36,0,0,1,.22-.2l.36,0a.8.8,0,0,0,.15,0l.08,0a1.34,1.34,0,0,1,.3,0,.54.54,0,0,1,.26.17s0,.11,0,.11H5.15" transform="translate(-0.06)"/><path class="al" d="M4.72,18H4.49a.53.53,0,0,0-.12,0h.14l.24,0,0,0" transform="translate(-0.06)"/><path class="am" d="M4.64,18a.8.8,0,0,1-.15,0h.23l-.08,0" transform="translate(-0.06)"/><path class="an" d="M8,19.58s0,0,0,0a.21.21,0,0,0-.11.2.19.19,0,0,0,.16.16s0,0,0,0A.19.19,0,0,1,8,19.58" transform="translate(-0.06)"/><path class="an" d="M4.37,21.79l.06-.08.2-.13s0,0,0,0l-.08,0,.14-.16L5,21.1s0,0,0,0a2.43,2.43,0,0,0-.3.34l-.22.24-.48.3s0,.05,0,0l.38-.22s0,0,0,0" transform="translate(-0.06)"/><path class="an" d="M4.62,21.71c.19-.22.39-.44.56-.68,0,0,0,0,0,0-.2.21-.38.44-.57.67,0,0,0,0,0,0" transform="translate(-0.06)"/><path class="an" d="M4.82,21.69h0l0,0s0,0,0,0a3.73,3.73,0,0,0,.26-.3s0,0,0,0a3.47,3.47,0,0,0-.25.29h0c-.14.07-.26.17-.39.25a0,0,0,0,0,0,0L4.27,22s0,0,0,0c.18-.11.36-.21.53-.33h0" transform="translate(-0.06)"/><path class="an" d="M5.37,21.17c-.07.07-.14.16-.21.24h0c-.1.08-.19.18-.29.27a0,0,0,1,0,0,0l.2-.19a0,0,0,0,0,0,0c.09-.11.19-.22.28-.34s0,0,0,0" transform="translate(-0.06)"/><path class="an" d="M2.11,20.24l-.11,0,0,0s0,0,0,0l-.09.06-.22.06-.13-.09.27-.09-.14.14s0,0,0,0l.21-.19.09,0s0,0,0,0l0,0A.6.6,0,0,1,2.06,20s0,0,0,0l-.13.12-.32.1A2.39,2.39,0,0,0,1.82,20h.07s0,0,0,0h0l.19-.2s0,0,0,0L1.78,20,1.53,20l.28-.26h0s0,0,0,0L2,19.6s0,0,0,0l-.19.15-.21.05h0c.12-.11.24-.22.36-.35s0,0,0,0-.25.22-.37.33l-.05.05-.27.07a1.89,1.89,0,0,1,.2-.2l0,0a1.55,1.55,0,0,0,.23-.06s0,0,0,0l-.18,0,.28-.28s0,0,0,0l-.34.31-.27.06.26-.21h.12s0,0,0,0H1.49l.14-.12s0,0,0,0l-.19.14-.27,0,.37-.25s0,0,0,0l-.24.15H1.11l.25-.18s0,0,0,0l-.14.08h0l-.13,0L1.26,19s0,0,0,0L1,19.15H.92a.08.08,0,0,0-.08,0h0l.28-.23s0,0,0,0-.22.16-.33.24H.68a0,0,0,0,0,0,0l.08,0-.25.21v0L.6,19.3l.15,0v0h0l-.07,0s0,0,0-.05,0,0,0,0,0,0,0,.06l0,0a0,0,0,0,1,0-.05h0a.08.08,0,0,0,0,.06l0,0h0l0,0h0v0h0a0,0,0,1,0,0,0h0l-.06.05s0,0,0,0l.06,0,.05.1h0s0,0,0,0h0A1.88,1.88,0,0,0,1,20a1.42,1.42,0,0,0,.29.26s0,0,0,0h0l.13.08h0a0,0,0,0,0,0,0l.07,0,.14,0s0,0,0,0l-.09,0,.12,0,.2.1s0,0,0,0l-.16-.1.13,0s0,0,0,0l0,0,.17,0s0,0,0,0M1.74,20a1.89,1.89,0,0,0-.2.2l-.12-.1.05,0Zm-.34.08h0Zm.32-.3L1.46,20l-.1,0-.05,0a1.54,1.54,0,0,0,.19-.17ZM1.29,20l0,0-.08,0h0Zm0-.05-.08-.08.22-.05Zm.11-.34-.23.21-.1-.12,0,0Zm-.16-.3-.12.07,0,0-.22,0L1,19.36l0,0Zm0-.15-.15.1H.88l.07,0L1,19.18Zm-.29,0-.08.06h0a.17.17,0,0,1,.07-.13l.13,0Zm-.29.06.18-.14h0l0,.05a.15.15,0,0,0,0,.09Zm.1.11,0,0h0Zm0,.05h0a.15.15,0,0,0,.06-.09l0,0H1l-.21.14H.72Zm0,.11.06,0,.2,0-.21.15ZM1,20a1.21,1.21,0,0,1-.24-.35l.28-.17.28,0-.27.21H1l0,0s0,0,0,0l0,0-.09,0s0,0,0,0l.1,0-.11.09s0,0,0,0l.11-.09a1.47,1.47,0,0,0,.1.13l-.07,0s0,0,0,0h0L1.05,20s0,0,0,0l.11-.09h0l.09.1a.46.46,0,0,0-.07.07h0s0,0,0,0l.11,0,0,0h0s0,0,0,0h0l.11.09-.15.05A1.53,1.53,0,0,1,1,20Zm.5.36-.15-.08.14,0,.13.08Z" transform="translate(-0.06)"/><path class="an" d="M4.2,21.63l-.15.17a0,0,0,0,0,0,0l.22-.25a2.1,2.1,0,0,0,.26-.13s0,0,0,0l-.19.07a3.17,3.17,0,0,0,.3-.34s0,0,0,0a4.86,4.86,0,0,0-.38.41l-.3.13.28-.27,0,0s0,0,0,0l.18-.19s0,0,0,0l-.25.24h0a.39.39,0,0,0,.06-.11c.06-.14.11-.14.25-.17a.29.29,0,0,0,.13-.05.27.27,0,0,0,.08-.17c0-.24-.2-.33-.39-.36.06-.3-.08-.65-.42-.64s-.46.35-.24.53a0,0,0,0,0,.05,0c-.08-.21,0-.46.3-.36s.24.33.18.53c0,0,0,.07,0,.07s.58.19.17.36c-.06,0-.11,0-.17.07a.48.48,0,0,0-.08.16.35.35,0,0,1-.07.12L4,21.42a.2.2,0,0,1-.11,0H3.81l.26-.23s0,0,0,0l-.29.23a.23.23,0,0,1-.07-.07l.11-.05s0,0,0,0l-.1,0,.11-.1s0,0,0,0l-.12.09a.2.2,0,0,1,0-.11s0-.07,0-.08h0A.58.58,0,0,1,3.34,21h0s0,0,0,0H3.3l0-.07,0,0s0,0,0,0l0,0a.28.28,0,0,1,0-.09.19.19,0,0,1,0-.08h0s0,0,0,0h0a.41.41,0,0,1,.15-.14s0-.06,0-.06a.19.19,0,0,0-.25.11v0h0s0,0,0,0h0c0-.05,0-.09,0-.14l.1-.09s0,0,0,0l.13,0s0,0,0,0l-.26,0v-.06l.07-.06s0,0,0,0L3,20.16A.93.93,0,0,1,3,20h.22s0,0,0,0H3l.11-.08s0,0,0,0L3,20H3s0,0,0,0H2.76L3,19.8H3s0,0,0,0l.05,0s0,0,0,0L3,19.77H2.76L3,19.6h.1s0,0,0,0l-.23,0L3,19.48s0,0,0,0l-.13.09H2.66a0,0,0,1,0,0,0h.1l-.17.13s0,0,0,0l.21-.13H3a2.2,2.2,0,0,0-.25.17H2.6s0,0,0,0l.07,0-.14.1s0,0,0,0a1.18,1.18,0,0,0,.19-.11h0l0,.15,0,0H2.6a0,0,0,1,0,0,0h0l-.27.2s0,0,0,0A3.78,3.78,0,0,0,2.7,20h0a.71.71,0,0,0,0,.14l-.3.22s0,0,0,0l.28-.21v.11l-.12,0a0,0,0,1,0,0,0l.13,0v0l-.31.24s0,0,0,0l.3-.22a.5.5,0,0,0,0,.12l-.14,0s0,0,0,0l.15,0h0l-.33.29s0,0,0,0a3.92,3.92,0,0,0,.32-.25.56.56,0,0,1,0,.12l-.12,0s0,0,0,0l.13,0a.14.14,0,0,0,0,.06l-.26.21s0,0,0,0a2.43,2.43,0,0,1,.25-.2c0,.05.05.1.07.14l-.23.05s0,0,0,0L3,21.06l-.19.15h0A1.53,1.53,0,0,0,3,21.08a1.47,1.47,0,0,0,.1.13l-.2.15s0,0,0,0l.21-.13,0,0L3,21.35s0,0,0,0l.21-.07,0,0h0l-.14.11s0,0,0,0a3.79,3.79,0,0,0,.4-.3h0a.32.32,0,0,0,0,.14l-.28.11s0,0,0,0l.19-.06-.19.15s0,0,0,0l.27-.21a.28.28,0,0,0,.09.1l-.18.14a0,0,0,0,0,0,0l-.07,0s0,.05,0,0l.36-.13-.15.13a0,0,0,0,0,0,0l.22-.2a.39.39,0,0,0,.2-.08l0,0-.28.28-.23.11s0,0,0,0l.17-.07h0l0,0,.32-.14m-1-.65H3.11l0,0Zm-.08-.47H2.91a.53.53,0,0,0,.14-.12Zm.09-.24-.09.07v-.05Zm-.16,0H2.93L3,20.21Zm-.24-.47H3l-.2.13A.78.78,0,0,1,2.77,19.79Zm0,.23h.17l-.17.13Zm0,.17L3,20a.83.83,0,0,1,0,.15l-.14.1-.1,0S2.74,20.22,2.74,20.19Zm0,.15h0Zm0,.06.1-.08.17,0v.07l-.21.16h0Zm.05.21h0l0,0,.23,0,0,.11s0,0,0,.05h0l0,0s0,0,0,0a.18.18,0,0,0-.07.05l-.17,0S2.83,20.66,2.81,20.61Zm.06.17.09,0-.07,0Zm0,.07.12-.1.07,0s0,.06,0,.08a.28.28,0,0,0,0,.13L3.05,21H3Zm.12.21H3l.16,0a.24.24,0,0,0,.09.08l-.16.09Zm.12.17.15-.11.13.05-.25.09Zm.09.1,0,0,.19-.07-.16.12Zm.47.18.09,0-.24.09Z" transform="translate(-0.06)"/><path class="an" d="M7.78,20.66s0,0,0,0h0l0,0s0,0,0,0l-.1.1L7.19,21l.25-.3.13-.08s0,0,0,0l-.06,0s0,0,0,0l0,.05-.29.15c.11-.12.21-.24.31-.37s0,0,0,0a5.46,5.46,0,0,0-.39.45l-.44.24s0,.05,0,0l.38-.2H7l0,0a2.69,2.69,0,0,1,.29-.16l-.2.24s0,0,0,0L7,21.11s0,.05,0,0l.59-.36L7.4,21s0,0,0,0a3,3,0,0,0,.28-.34l.08,0" transform="translate(-0.06)"/><path class="an" d="M8.45,20s0,0,0,0a.36.36,0,0,0,0-.11l-.06-.13s0,0,0,0a.61.61,0,0,0,.05.12.39.39,0,0,0,.06.11" transform="translate(-0.06)"/><path class="an" d="M.73,18.44s0,0,0,0l-.06-.15s0,0,0,0l.06.15" transform="translate(-0.06)"/><path class="an" d="M4.45,17.42s0,0,0,0l-.2-.21s0,0,0,0l.21.2" transform="translate(-0.06)"/><path class="an" d="M6,18s0,0,0,0a4.86,4.86,0,0,0,.79-1,4.41,4.41,0,0,0,.54-1.14h0a5.82,5.82,0,0,1-.55,1.12A5.55,5.55,0,0,1,6,18" transform="translate(-0.06)"/><path class="an" d="M6.44,17.44c.15-.25.29-.51.42-.77,0,0,0,0,0,0-.16.25-.29.51-.43.77a0,0,0,1,0,0,0" transform="translate(-0.06)"/><path class="an" d="M7.33,15.24c0-.25,0-.5,0-.75a0,0,0,0,0,0,0c0,.25,0,.5,0,.75h0" transform="translate(-0.06)"/><path class="an" d="M2.11,15.81s0,0,0,0h0" transform="translate(-0.06)"/><path class="an" d="M2.19,16.1s0,0,0,0h0" transform="translate(-0.06)"/><path class="an" d="M2.15,15.75s0,0,0,0h0" transform="translate(-0.06)"/><path class="an" d="M2.17,16s0,0,0,0h0" transform="translate(-0.06)"/><path class="an" d="M7.61,18.28s0,0,0,0-.26,0-.39,0l.22-.13a1.78,1.78,0,0,1,.45.08,2.58,2.58,0,0,1,.46.18s0,0,0,0a1.89,1.89,0,0,0-.95-.29H7.15s0,0,0,0l0,0-.18,0-.27.08.07-.06a0,0,0,0,0,0,0l-.13.11-.13.05a0,0,0,0,0,0,0l.09,0-.15.12c-.1.09-.22.18-.32.28s0,0,0,0a3.65,3.65,0,0,0,.31-.24l.23-.19A2,2,0,0,1,7,18.1l-.18.12h0l-.31.21s0,.05,0,0l.35-.24.19,0-.21.12h0s0,0,0,0h0l.37.05s0,0,0,0l-.35,0a1.71,1.71,0,0,0,.23-.13h0a3,3,0,0,0,.42,0m-.68-.05.16-.13H7.4l-.26.14Z" transform="translate(-0.06)"/><path class="an" d="M2.92,19.13,3,19H3l.25-.1-.1.09h0l.18-.12a3.79,3.79,0,0,0,.42-.18l-.3.28-.08.06a2.75,2.75,0,0,0-.38.2,0,0,0,0,0,0,0,1.69,1.69,0,0,0,.28-.12l-.14.15a0,0,0,0,0,0,0,2.29,2.29,0,0,0,.23-.21L3.64,19s0,0,0,0L3.5,19c.11-.1.21-.2.31-.31s0,0,0,0h0s0,0,0,0-.18.06-.27.09a3.55,3.55,0,0,0,.31-.23l.23,0s0,0,0,0a3.5,3.5,0,0,0-.45.07l.22-.1h0l.6,0s0,0,0,0a5.07,5.07,0,0,0-.55,0,2.61,2.61,0,0,1,.55-.14s0,0,0,0a1.7,1.7,0,0,0-.85.24l-.08,0-.21,0s0,0,0,0l.12,0a2,2,0,0,0-.5.5s0,0,0,0m.56-.51.28-.05-.37.27L3,19A2,2,0,0,1,3.48,18.62Z" transform="translate(-0.06)"/><path class="an" d="M3.12,18l-.08,0c0-.06-.09-.11-.13-.16a1.2,1.2,0,0,1,.26.18l.1.14s0,0,0,0l0-.07,0,0s0,0,0,0a.83.83,0,0,0-.13-.14l-.09-.13a0,0,0,1,0,0,0,.43.43,0,0,0,0,.07,1,1,0,0,0-.23-.11l-.1-.13.06,0a1.62,1.62,0,0,1,.35.17c.11.07.2.16.31.24s0,0,0,0a1.59,1.59,0,0,0-.65-.42,1.86,1.86,0,0,0-.47-.09l0,0s0,0,0,0l0,0H2.08s0,0,0,0a1.4,1.4,0,0,1,.29,0l.14.14H2.34c-.14-.08-.28-.14-.42-.21h0l.36.22h0s0,0,0,0h0a1.43,1.43,0,0,0,.28.13s0,0,0,0l-.22-.13a.49.49,0,0,1,.17,0l0,0,.18.18-.19,0s0,0,0,0a5.41,5.41,0,0,0,.58.12s0,0,0,0m-.72-.44a1.65,1.65,0,0,1,.32.07v0l.08.09a1,1,0,0,0-.24,0Zm.18.16a1.05,1.05,0,0,1,.24.06h0l0,0,.11.13-.18,0A2.18,2.18,0,0,0,2.58,17.67Z" transform="translate(-0.06)"/><path class="an" d="M2,17.87s0,0,0,0l-.23-.22s0,0,0,0a1.47,1.47,0,0,0,.21.22" transform="translate(-0.06)"/><path class="an" d="M5.8,18.92A1.75,1.75,0,0,1,6,20.38s0,0,0,0a1.61,1.61,0,0,0-.2-1.47,0,0,0,0,0,0,0" transform="translate(-0.06)"/><path class="an" d="M6,19.84a.82.82,0,0,0-.2-.49h0a1,1,0,0,1,.06,1s0,0,0,0A1,1,0,0,0,6,19.84" transform="translate(-0.06)"/><path class="an" d="M.59,18.37l.06.14s0,0,0,0,0-.1-.05-.14-.05,0,0,0" transform="translate(-0.06)"/><path class="an" d="M5.16,21.55l-.41.38s0,0,0,0,.27-.26.4-.4,0,0,0,0" transform="translate(-0.06)"/><path class="an" d="M3.5,20.35a.32.32,0,0,1,0,.19c0,.06-.09.07-.14.11s0,0,0,0,.13-.07.16-.12a.22.22,0,0,0,0-.21s0,0,0,0" transform="translate(-0.06)"/><path class="an" d="M3.48,20.79s0,0,0,0l0,0a.25.25,0,0,0,0,.17l0,.06s0,0,0,0l0,0,0,.05a.34.34,0,0,0,.19.09l0,0s0,0,0,0l0-.05A.26.26,0,0,0,4,21,0,0,0,0,0,4,21H4l0-.07s0,0,0,0l-.06.07h0v-.05h0v0l0-.09a.25.25,0,0,1,0-.07.27.27,0,0,0,.2.13s0,0,0,0A.37.37,0,0,1,4,20.78l-.06-.06L4,20.61a0,0,0,1,0,0,0l-.07.09,0,0s0,0,0,0l0,.05-.05.07-.06-.12c.05-.08.09-.16.13-.24s0,0,0,0l-.13.21h0s0,0,0,0v0h0a.19.19,0,0,0,0,.08v0l0-.07s0,0,0,0a0,0,0,0,0,0-.05,1.82,1.82,0,0,0,.15-.27s0,0,0,0-.12.18-.18.28h0l0,0s0,0,0,0l0,.06,0,.08-.06.11m.19,0a1.17,1.17,0,0,0,.05.11h0a.22.22,0,0,1,0-.08Zm.21.16h-.1v0h0a.23.23,0,0,0,.1,0Zm0,0-.05,0,0,0Zm-.06-.1,0,.05,0,0a.3.3,0,0,1,0-.1l0,0A1.17,1.17,0,0,1,3.79,20.82Zm-.08-.16Zm-.06.11v0a.13.13,0,0,1,0-.06Z" transform="translate(-0.06)"/><path class="an" d="M6,18.28a.22.22,0,0,1-.14-.22s0,0,0,0a.21.21,0,0,0,.18.23s0,0,0,0" transform="translate(-0.06)"/><path class="an" d="M6,18.12H6s0,0,0,0" transform="translate(-0.06)"/><path class="an" d="M8.38,18A2.22,2.22,0,0,0,6.58,18a4.72,4.72,0,0,0,.76-1.34,4.41,4.41,0,0,0,.28-1.18,2.57,2.57,0,0,0,0-1.07c-.33-.89-1.79.51-2.09.84a3.28,3.28,0,0,0-.82,2.13h0s0,0,0,0l0,.06h0a4.82,4.82,0,0,1-.45-.69,5.08,5.08,0,0,1-.56-1.86c0-.19,0-.42-.22-.53s-.46,0-.64.11a1.94,1.94,0,0,0-.4,2.82,2.11,2.11,0,0,0-.83.05c-.21.05-.62.15-.74.36a.26.26,0,0,0-.3,0,.42.42,0,0,0-.14.42l-.16.18a0,0,0,0,0-.07,0,.35.35,0,0,0,0,.48.35.35,0,0,0-.08.41.33.33,0,0,0,.16.13A1.83,1.83,0,0,0,1,20.46a2.1,2.1,0,0,0,.59.37,1.48,1.48,0,0,0,.69.15,1.65,1.65,0,0,0,.18.41,2.22,2.22,0,0,0,1.05.91,1.59,1.59,0,0,0,1.28-.08A2.76,2.76,0,0,0,6,21.2a1.7,1.7,0,0,0,.73.27,2.9,2.9,0,0,0,.93.06,2.15,2.15,0,0,0,1.45-.8A1.83,1.83,0,0,0,8.38,18m-2-3.48c.23-.16.83-.59,1.05-.21a1.83,1.83,0,0,1,.08,1,4.48,4.48,0,0,1-.23,1.1,4.66,4.66,0,0,1-.55,1.12,5.38,5.38,0,0,1-.81.91,1.92,1.92,0,0,0-.18-.31l-.16-.27A3.23,3.23,0,0,1,6,17.64H6c-.15.06-.3.11-.44.18v0s0,0,0,0l0,0h0l-.07,0a1.34,1.34,0,0,1-.11-.14h0a.74.74,0,0,0,0-.14l0,0s0,0,0,0a.16.16,0,0,0,0-.07l.08-.26c.16-.09.28-.22.44-.31a2.41,2.41,0,0,1,.56-.22s0-.07,0-.06a1.62,1.62,0,0,0-1,.49,5.29,5.29,0,0,1,.38-.89L6,16.11a2.7,2.7,0,0,0,.5-.18l.61-.23s0,0,0,0a5,5,0,0,0-.66.2A2.54,2.54,0,0,0,6,16a5.43,5.43,0,0,1,1.05-1.23s0,0,0,0a5.74,5.74,0,0,0-.75.73.82.82,0,0,0,.07-.28c0-.13,0-.26,0-.39s0,0,0,0a5.42,5.42,0,0,1-.19.84c-.13.25-.35.46-.49.71,0-.11,0-.22,0-.32a3.85,3.85,0,0,1,.08-.58,0,0,0,0,0,0,0A2.1,2.1,0,0,0,5.6,16a1,1,0,0,0,0,.48,5.05,5.05,0,0,0-.24.53c0-.15.06-.3.08-.45h0l-.12.64a.16.16,0,0,0,0-.07,2.36,2.36,0,0,1,0-.28l.07.1s0,0,0,0l-.1-.15h0a2.36,2.36,0,0,1,0-.46s0,0,0,0a2.24,2.24,0,0,0,0,.68v0h0s0,.07,0,.1,0,.07,0,.11l0,0v-.41s0,0,0,0,0,.22,0,.34L5,17c0-.08,0-.15,0-.22s0,0,0,0a4.87,4.87,0,0,0,0,.54l-.11-.18s0,0,0,0l.15.23v.14l-.12-.18s0,0,0,0l.15.23v.12l-.24-.37h0a3.62,3.62,0,0,1,.74-1.94A4.73,4.73,0,0,1,6.39,14.56Zm-.52,4a1.48,1.48,0,0,0-.3-.26.83.83,0,0,0-.08-.12L5.39,18,5.46,18l.11.14a4.19,4.19,0,0,0,.26.33s0,0,0,0a3.43,3.43,0,0,0-.24-.33l-.11-.14h0l.06-.05.16.27a2,2,0,0,0,.19.31h0l0,0S5.86,18.52,5.87,18.54ZM4.1,17.65,4,17.71a.39.39,0,0,1-.1-.08v0l.1-.06ZM4,17.54l0,0,.11.09,0,0Zm.1.29L4,17.74l.11-.06.12.1-.1,0Zm0,0-.07,0-.1-.07.07,0Zm-.21-.16.08.05-.07,0h0Zm-.1,0h0Zm.11.14.09.07-.09,0h0v-.09Zm.12.09.06.05L4,18l-.06,0Zm0,0,.08,0,0,0h0l-.09,0Zm.14,0,0,0,0,0,.09,0a.1.1,0,0,1,0,0l-.14,0S4.2,17.89,4.19,17.89Zm.16-.05s0,0,0,0l0,0,.05,0Zm-.08-.08-.11-.1,0,0,.12.11Zm-.06-.14.09-.05.15.13-.11,0Zm0,0-.11-.1h0s0,0,0,0h0l-.13-.1a.68.68,0,0,1,0-.14l.23.21.1.1ZM4,17.49l0,0-.08-.06V17.4Zm-.06,0-.07,0s0-.07,0-.1Zm-.18.1,0,0h0l-.21-.17s0-.08,0-.11l.27.22Zm0,.1a.41.41,0,0,0,0,.11h0l0,0-.18-.25v0Zm0,.19h0l0,0h0l-.05,0h0Zm.14.09,0,0h0V18Zm0,0h0ZM4.1,18h0Zm0,0h0l.31-.12,0,0s0,0,0,0h0l.27-.12a3.51,3.51,0,0,0,.34.33H5l0,0A1.6,1.6,0,0,0,4.14,18ZM5,17.31v-.26l.07.12a2.62,2.62,0,0,0,0,.28L5,17.36Zm.14,0c0,.09,0,.18,0,.27v-.31Zm.15.48a1.71,1.71,0,0,1,.11.14L5.33,18a.18.18,0,0,0,0-.07v0l0,.05s0,0,0,0a.41.41,0,0,0,0-.09v0Zm-.18-.17v.08a0,0,0,1,0,0,0h0v0s0,.07,0,.1l0-.06Zm.14.35v0l0,.06,0,0Zm-.07-.31,0,0c0-.08,0-.16,0-.25l0,.08A1.46,1.46,0,0,0,5.2,17.63Zm0-.33h0Zm-.13.22v.14L5,17.57v-.14Zm0,.2v.11L5,17.75v-.11Zm0,.13,0,0H5Zm.1.08,0,0v-.1l0,.06S5.15,17.9,5.14,17.93Zm.17.16,0,.05s0,0,0,0l0-.06,0,0,.11.16,0,0-.17-.09,0,0Zm-.57-.71.26.4v0l-.14-.15-.13-.2Zm-2.55-2a1.85,1.85,0,0,1,.62-.84c.16-.12.44-.28.61-.1a1,1,0,0,1,.14.57,5.31,5.31,0,0,0,1.16,2.7l-.29.1,0,0,.1-.05h0s0,0,0,0h0s0,0,0,0h0l-.15-.14,0,0,.14.15s0,0,0,0a1,1,0,0,0-.13-.16h0s0,0,0,0l0,0-.06-.07-.23-.25s0,0,0,0l.21.23.06.07,0,0-.13-.11L4,17.21H4s0-.05-.05,0l0-.05s0,0,0,0l.05.05a.56.56,0,0,0,0,.12l-.14-.12s0,0,0,0l.14.12s0,0,0,.05l-.07-.05s0,0,0,0l.06.06,0,.16-.27-.21h0c0-.1,0-.21,0-.31a1.92,1.92,0,0,1,.14-.63s0,0,0,0a1.8,1.8,0,0,0-.21.93,1.7,1.7,0,0,1-.29-.92,3.86,3.86,0,0,1,.16-1s0,0,0,0a2.42,2.42,0,0,0-.18.75c0,.08,0,.17,0,.26a4.91,4.91,0,0,1-.16-1.57s0,0,0,0a3.55,3.55,0,0,0,.11,1.68,2.65,2.65,0,0,1-.53-.84h0A2.07,2.07,0,0,0,3,16.77a4.37,4.37,0,0,0,.31.71.58.58,0,0,0-.15-.11l0-.05-.23-.4s0,0,0,0l.22.39-.06,0L3,17.22l0,0-.28-.4s0,0,0,0l.24.34L2.64,17s-.06,0,0,0a1.71,1.71,0,0,0,.36.35l.07.06h0l-.15-.05-.13-.17-.33-.39h0c.1.14.2.26.3.39l.11.15-.08,0-.06-.06c-.09-.08-.17-.17-.27-.25s0,0,0,0l.25.27h0l-.16,0A1.91,1.91,0,0,1,2.19,15.38Zm-2,3.67a.28.28,0,0,1,.11-.28,0,0,0,0,0,0-.08.3.3,0,0,1-.1-.34,1.3,1.3,0,0,0,.18-.23v0h0s0-.05,0-.07l0-.07h0l0,0c0-.16.09-.38.27-.36s.13.14.12.24,0,.07,0,.11a.38.38,0,0,0,0,.36c.1.1.38.21.12.35-.09.05-.19,0-.28.08a.21.21,0,0,0-.09.1.78.78,0,0,0-.05-.14h0s0,0,0,0a.36.36,0,0,0,0-.09h0s0,0,0,0a.5.5,0,0,1-.11-.17.28.28,0,0,1,0-.18v0a2.44,2.44,0,0,1,.1.24,1.15,1.15,0,0,0,.12.25h0a.38.38,0,0,0,0-.1s0,0,0,0-.05-.15-.07-.23l0,.07s0,0,0,0a1.09,1.09,0,0,0-.08-.15s0,0,0,0a.43.43,0,0,1,0-.07s0,0,0,0l0,.05a0,0,0,0,0,0,0v0s0,0,0,0l0-.11h0a.21.21,0,0,1,.06-.1.58.58,0,0,1,.12-.1h0c-.13,0-.23.16-.25.28v.07h0s0,0,0,0l0,.07.08.2A2,2,0,0,0,.53,19h0v0C.46,19.09.3,19.35.19,19.05Zm2,1.42-.48.1s0,.05,0,0,.32-.07.47-.12a2.2,2.2,0,0,0,.06.37c-.18-.06-.38-.07-.55-.14A2.25,2.25,0,0,1,1,20.33a2.24,2.24,0,0,1-.41-.51c-.1-.17-.16-.36-.26-.54a.19.19,0,0,0,.13,0,.24.24,0,0,0,.13-.13A.94.94,0,0,1,.65,19c.06-.09.15-.07.24-.09a.28.28,0,0,0,.24-.29,0,0,0,0,0,0,0,.79.79,0,0,0,.18-.14s0,0,0,0l-.18.13A.21.21,0,0,0,1,18.41l.08-.08v0s0,0,0,0V18.3l.09-.1s0,0,0,0a.6.6,0,0,0-.08.08,1.42,1.42,0,0,0,0-.2L1.14,18s0,0,0,0L1.07,18l0-.12s0,0,0,0a.59.59,0,0,0,0,.13l0,0-.11.12s0,0,0,0L1,18.12v0a1.42,1.42,0,0,0,0,.2L1,18.39a.3.3,0,0,1-.14-.22c0-.16.09-.32,0-.47a.82.82,0,0,0,.24-.1,2.23,2.23,0,0,1,.43-.16,2.15,2.15,0,0,1,1.35,0l.07.06s0,0,0,0v0l.05,0,.06.07s0,0,0,0l0,0a2.69,2.69,0,0,1,.29.16h0a2.49,2.49,0,0,1,.43.36A2.94,2.94,0,0,0,2.6,19,2.25,2.25,0,0,0,2.14,20.47ZM5,22a1.86,1.86,0,0,1-1.21.27,2,2,0,0,1-1.2-3,2.59,2.59,0,0,1,1.89-1.21,1.56,1.56,0,0,1,1.7,1.21,2.38,2.38,0,0,1,.1.75h0s0,0,0,0v0s0,.06,0,.08l0,0s0,0,0,0h0A2.45,2.45,0,0,1,5,22Zm1.35-2.7h0l0-.08.09.07Zm0,.6.09,0-.09.08Zm0-.27.17-.06-.16.15A.28.28,0,0,0,6.32,19.62Zm0,.81.31-.14-.4.45Zm0-.24h0l0,0Zm1.58,1.15a2.43,2.43,0,0,1-1,0,1.91,1.91,0,0,1-.47-.12c-.13,0-.25-.11-.38-.14a2,2,0,0,0,.17-.36s0,0,0,0l.49-.53A2.3,2.3,0,0,0,7,20.09c-.18.17-.34.35-.51.53l-.22.15s0,.05,0,0l.1-.06-.06.07s0,.05,0,0l.18-.19L7,20.34l-.35.4-.26.14s0,.05,0,0l.17-.08s0,0,0,0l.06-.07L7,20.61a3.47,3.47,0,0,1-.25.29s0,.05,0,0,.22-.25.32-.38l.35-.2s0,0,0,0l-.27.14.08-.1s0,0,0,0l-.15.16-.32.18.35-.42.07-.05s0,0,0,0h0s0,0,0,0l-.06.06-.44.27c.14-.15.29-.3.42-.46h0s0,0,0,0l-.34.14.08-.09s0,0,0,0l-.16.16-.37.16v0s0-.05,0-.08l.13-.14a3.55,3.55,0,0,0,.44-.21s0,0,0,0a2.63,2.63,0,0,0-.35.15l.27-.28s0,0,0,0L6.5,20l0,.06-.12,0a.76.76,0,0,0,0-.15l.21-.18.34-.13s0,0,0,0l-.25.08.16-.15s0,0,0,0l-.26.21-.17.06v-.1l.24-.22.12-.05s0,0,0,0l-.07,0,0-.05s0,0,0,0l-.11.09-.24.08h0a3.47,3.47,0,0,0,.29-.25s0,0,0,0a2.09,2.09,0,0,0-.28.24c0-.07,0-.14,0-.21h0a1.54,1.54,0,0,0,.31-.05,0,0,0,0,0,0,0l-.21,0,.08-.06s0,0,0,0l-.12.06a.7.7,0,0,1-.16-.14l0-.07h0c.07.05.14.12.21.16s0,0,0,0l-.16-.13.18.06s0,0,0,0A1.11,1.11,0,0,0,6.25,19l-.1,0h0a.75.75,0,0,0-.07-.12,2.05,2.05,0,0,0,.34.07s0,0,0,0a2.33,2.33,0,0,0-.36-.08,1.88,1.88,0,0,0-.16-.23h.05a3.12,3.12,0,0,0,.57-.52h0a2.47,2.47,0,0,1,2,.22A1.79,1.79,0,0,1,9.29,20,1.84,1.84,0,0,1,7.91,21.34Z" transform="translate(-0.06)"/><path class="an" d="M8.91,19.7a.51.51,0,0,1-.08-.32.56.56,0,0,0,0-.34.36.36,0,1,0-.67.26s.07,0,.06,0a.34.34,0,0,1,.14-.34.28.28,0,0,1,.39.24c0,.16-.11.3,0,.46s.07.09.08.21,0,.14-.13.22a1.33,1.33,0,0,0-.25.41c0,.09-.15.27-.27.23h0s0,0,0,0h0A.23.23,0,0,1,8,20.46s0-.05,0-.07A.37.37,0,0,0,8,20.07a1.45,1.45,0,0,0-.18-.17c-.1-.09-.12-.11-.09-.26s0-.14.15-.16.27,0,.4-.1,0-.06,0-.05c-.21,0-.57,0-.68.21s.17.42.3.56,0,.31.07.48l-.28.33s0,0,0,0a3.88,3.88,0,0,0,.26-.31v0a.24.24,0,0,0,.06.11H8l-.49.3s0,.05,0,0l.41-.25,0,0s0,0,0,0A.76.76,0,0,0,8,20.78H8s.05,0,.08,0h.08a3.07,3.07,0,0,0-.31.17s0,.05,0,0,.26-.14.38-.22a0,0,0,0,0,0,0h0l0,0s0,0,0,0,.18-.17.26-.26,0,0,0,0l-.07.06a1.28,1.28,0,0,0,.11-.2,1,1,0,0,1,.3-.38A.29.29,0,0,0,9,19.82a.61.61,0,0,0-.05-.12" transform="translate(-0.06)"/><path class="an" d="M8.4,19.33s-.05,0,0,0a.55.55,0,0,1,0,.79L8.32,20s0,0,0,0a.61.61,0,0,0,.07.14s0,0,0,0a.58.58,0,0,0-.06-.17l0,0a.27.27,0,0,0,0-.09.34.34,0,0,0-.06-.12s0,0-.09-.05h0s0,0,0,.05a.53.53,0,0,1,0,.12s0,0,0,.06,0,0,0,0v0a.36.36,0,0,0,0,.1s0,.05,0,0h0a1.22,1.22,0,0,0,.07.17l-.08,0a0,0,0,0,0,0,0l.09,0h0s0,0,0,0h0a.51.51,0,0,0,0-.9" transform="translate(-0.06)"/><path class="an" d="M8,19.63a.33.33,0,0,0,0,.31v0l.07.16a.75.75,0,0,0,.06.13,0,0,0,0,0,0,0,.59.59,0,0,0-.06-.14l0-.1h0s0,0,0,0a.37.37,0,0,1,0-.31.34.34,0,0,1,.23-.19s0,0,0,0a.31.31,0,0,0-.33.19" transform="translate(-0.06)"/></g></svg>