<svg xmlns="http://www.w3.org/2000/svg" xmlns:xlink="http://www.w3.org/1999/xlink" width="256px" height="256px" viewBox="0 0 13.07 14.29"><defs><style>.a{fill:none;}.b{clip-path:url(#a);}.c{fill:#e43f5a;}.d{fill:#ba1e3c;}.e{fill:#f24c6c;}.f{fill:#fc5979;}.g{fill:#88040e;}.h{fill:#a60715;}.i{fill:#b80a1c;}.j{fill:#c52337;}.k{fill:#a11125;}.l{fill:#dc8e9d;}.m{fill:#da314a;}.n{fill:#aa1322;}.o{fill:#8b0917;}.p{fill:#be4f61;}.q{fill:#bc1b2d;}.r{fill:#8f040d;}.s{fill:#750208;}.t{fill:#af0c2c;}.u{fill:#930a15;}.v{fill:#78050e;}.w{fill:#a20f1c;}.x{fill:#97061b;}</style><clipPath id="a" transform="translate(-0.02 -0.22)"><rect class="a" width="12.76" height="14.26"/></clipPath></defs><g class="b"><path class="c" d="M8.83.82A.92.92,0,0,0,8.46.46,2.53,2.53,0,0,0,8.1.26a.66.66,0,0,0-.44,0,.84.84,0,0,0-.8.61A1.82,1.82,0,0,0,6.18.64a1.89,1.89,0,0,0-1.57.62c-.15.18-.16.22-.4.18a1.66,1.66,0,0,0-1.12.14,1.31,1.31,0,0,0-.67.79,1.6,1.6,0,0,0,.05.57,1.53,1.53,0,0,0-.53.35c-.25.26-.17.44-.18.76-.21.07-.43,0-.61.16a.7.7,0,0,0-.2.51c0,.23.18.86.5.84a1.19,1.19,0,0,0-.33.65,1.79,1.79,0,0,0,.34,1.06,1,1,0,0,0-.33.67A1.7,1.7,0,0,0,1.33,9a1.58,1.58,0,0,0,.45.4c.11.06.28.06.29.17S2,9.88,2,10a1,1,0,0,0,.06.39c.16.36.59.48.9.65s.1.19.06.46c-.09.57.62,1.07,1.17,1a.87.87,0,0,0,.15.82,1.8,1.8,0,0,0,.18.2l.53.23h.2l0,.08a3.28,3.28,0,0,0,2.23,0c.67-.25,1.33-.53,2-.8a1.27,1.27,0,0,0,.09-.4,2.58,2.58,0,0,0,.95-.44,1.33,1.33,0,0,0,.33-.48c.08-.16.07-.37.14-.51s.25-.15.39-.28a1.56,1.56,0,0,0,.27-.4,2.15,2.15,0,0,0,.24-1.11c.49-.06.76-.76.86-1.16a1.37,1.37,0,0,0,0-.57c0-.16-.12-.32-.08-.44s.22-.27.27-.44a1.67,1.67,0,0,0,.06-.5c0-.34-.07-.82-.48-.87a1.76,1.76,0,0,0,.11-1.5c-.13-.25-.44-.3-.58-.53s0-.45-.14-.66a1.14,1.14,0,0,0-.65-.55A1.56,1.56,0,0,0,8.83.82" transform="translate(-0.02 -0.22)"/><path class="d" d="M3,2.85a1.41,1.41,0,0,1,1.28.08,1.6,1.6,0,0,1,.76.76c.12,0,.17-.3.26-.39A1.4,1.4,0,0,1,6,3a1.09,1.09,0,0,1,.75.11,1.86,1.86,0,0,1,.55.53A1.06,1.06,0,0,1,8,3a1.08,1.08,0,0,1,.64,0,2.78,2.78,0,0,1,.52.25.64.64,0,0,1,0-.64c.09-.13.48-.45.65-.32-.26.1-.53-.27-.58-.48a1.4,1.4,0,0,1-.41.19A1,1,0,0,1,8,1.85a.67.67,0,0,1-.18-.11c-.06-.08,0-.15-.13-.14s-.18.13-.24.16a1.24,1.24,0,0,1-.33.09.78.78,0,0,1-.62-.09s-.12-.15-.18-.16-.14.09-.19.12c-.22.15-.87.56-1,.2a2,2,0,0,1-.52.37,1,1,0,0,1-.3,0H4.14L4,2.3c-.08,0-.16.15-.24.19l-.29.12A2.28,2.28,0,0,1,3,2.79l0,.06" transform="translate(-0.02 -0.22)"/><path class="c" d="M2.5,2.45C2.43,2.34,2.13,2.4,2,2.4a1.12,1.12,0,0,0-.63.22A1,1,0,0,0,1,3.71c-.42,0-.75.53-.86.87A1.64,1.64,0,0,0,0,5.34,1.39,1.39,0,0,0,.37,6a1.08,1.08,0,0,0-.28.84C.15,7.3.49,7.6.62,8c.07.24,0,.48.07.71a1.33,1.33,0,0,0,.66.72,2.21,2.21,0,0,0,.77,0c.43,0,.48-.54.52-.88a6.2,6.2,0,0,1,.08-.74A7.91,7.91,0,0,1,3,6.92a4,4,0,0,0,.14-2.19c-.07-.25-.15-.5-.2-.77a5.81,5.81,0,0,0-.11-.71,4.84,4.84,0,0,1-.35-.89l0,.09" transform="translate(-0.02 -0.22)"/><path class="c" d="M1.78,9.21a1.58,1.58,0,0,0,.85,2.17c.52.22,1.13.09,1.21-.54a1.82,1.82,0,0,0-1-1.76.91.91,0,0,0-1.11.27l.08-.14" transform="translate(-0.02 -0.22)"/><path class="d" d="M7.31,3.63c0,.73.44,1.77,1.36,1.68a1,1,0,0,0,.79-1.18.26.26,0,0,0,.07.17c.16-.44.74-.62,1.17-.69a1.42,1.42,0,0,0-.75.56,1.7,1.7,0,0,0-.12.74,1,1,0,0,0,.77,1A.47.47,0,0,1,10,6c-.14-.08-.21-.22-.33-.33s-.2-.18-.29-.29a.91.91,0,0,1-1.05.34c-.14,0-.33-.22-.48-.21s-.28.34-.3.48,0,.82-.09.84-.27-.56-.29-.65a1.2,1.2,0,0,1,.16-.66.68.68,0,0,0,0-.54,4,4,0,0,1-.06-1.3h.07" transform="translate(-0.02 -0.22)"/><path class="d" d="M9.71,5.8A2.3,2.3,0,0,1,9.92,7a1.48,1.48,0,0,1-.8.93,1.05,1.05,0,0,1-1.25,0,.61.61,0,0,0,.42.46c.17.07.62.14.77,0,.07.16-.06.32-.06.49s.2.7.45.73c0-.2-.09-.4-.09-.59a.87.87,0,0,1,.18-.42,4.76,4.76,0,0,0,.09.66,1.5,1.5,0,0,0,.84.76.94.94,0,0,0,1.16-1.06c-.18.12-.33.3-.55.32a.84.84,0,0,1-.75-.29,1.46,1.46,0,0,1-.39-.76,1.34,1.34,0,0,1,.42-.78c.21-.23.42-.37.72-.21a.59.59,0,0,1,.29.31s0,.26.07.29.48-.66,0-.74c.28.08.51.25.81.09a.48.48,0,0,0,.27-.51h-.12c.21,0,.2-.27.16-.42-.14,0-.16.19-.22.3a.38.38,0,0,1-.34.25c-.21,0-.5,0-.49-.24s.28-.31.42-.43a.86.86,0,0,0,.34-.64c-.22,0-.24.18-.38.3a1.12,1.12,0,0,1-.56.2,1.1,1.1,0,0,1-.54,0,1.82,1.82,0,0,0-.46-.11.5.5,0,0,1,.15.37c0,.17-.1.19-.26.2-.33,0-.22-.47-.54-.53v0" transform="translate(-0.02 -0.22)"/><path class="d" d="M9.29,10.15a1,1,0,0,0-.43.57,2.41,2.41,0,0,0,.07.53c0,.16,0,.35-.15.4H8.63a.45.45,0,0,0-.16,0c-.11,0-.17.15-.26.22a1.1,1.1,0,0,1-.57.15A.69.69,0,0,1,7,11.64a1,1,0,0,0,.17.3,3.58,3.58,0,0,0,.25.42c.13.15.26.12.27.34a2.56,2.56,0,0,0-.64.22c-.16.1-.44.4-.65.22.06.15-.17.38-.29.43a.58.58,0,0,1-.32,0,.54.54,0,0,0-.31,0,.76.76,0,0,0,.46.16c.15,0,.3-.09.43-.09a2.23,2.23,0,0,1,.05.36h.22l0-.19a1,1,0,0,1,.52-.66c.1,0,.28-.12.39-.07s.13.22.19.32a.57.57,0,0,0,.17.22l.27-.11a.72.72,0,0,1-.15-.11.65.65,0,0,1-.14-.57,1,1,0,0,1,.53-.73.83.83,0,0,1,.78.11.94.94,0,0,0,.86.11c.36-.09.37-.38.48-.69a.87.87,0,0,1-.83.48.81.81,0,0,1-.65-.79,1.39,1.39,0,0,1,.38-1.1,1.49,1.49,0,0,1,1-.27,1.19,1.19,0,0,0-1.21.21" transform="translate(-0.02 -0.22)"/><path class="d" d="M10.3,9.94a1.16,1.16,0,0,1,.22,1.39.9.9,0,0,1-.71.4,1.64,1.64,0,0,1-.32-.05.78.78,0,0,0-.4,0c.07.69,1,.75,1.41.35.26-.23.21-.55.38-.82s.55-.27.73-.55a1.57,1.57,0,0,0,.17-1.16c-.13,0-.11.4-.15.51a.6.6,0,0,1-.5.38.65.65,0,0,1-.5-.19c-.06-.05-.26-.29-.31-.29l0,.07" transform="translate(-0.02 -0.22)"/><path class="d" d="M5.16,3.61a2.3,2.3,0,0,0,.24,1.1,1.21,1.21,0,0,0,1.09.48c.67-.06.84-.63.77-1.2,0,.32.1.64.11,1s-.16.31-.4.35A1.86,1.86,0,0,0,5.68,6,1.47,1.47,0,0,0,5.49,7.4a1,1,0,0,0,1.12.74c.6-.14.81-1,.84-1.53a3.71,3.71,0,0,0,.33,1.18A7.57,7.57,0,0,1,7,8.31a1.73,1.73,0,0,1-1.3.14c-.8-.33-.7-1.62-.43-2.25.15-.36.14-.59-.19-.83,0,.1,0,.26-.13.34a.91.91,0,0,1-.53.18.88.88,0,0,1-.76-.2,1.73,1.73,0,0,1-.35-.31c-.06-.07-.1-.16-.16-.23a1,1,0,0,0,1.07.11,1.05,1.05,0,0,0,.48-.76,2,2,0,0,0,.09-.58c0-.06,0-.27,0-.31s.07,0,.11,0,.08,0,.13,0l.07,0" transform="translate(-0.02 -0.22)"/><path class="d" d="M11.13,2.13c-.12.06-.16.2-.3.25a2.08,2.08,0,0,1-.5.07.76.76,0,0,1-.6-.18.87.87,0,0,1,.87.63c.08.29-.09.53-.12.79a.81.81,0,0,1,1.34.51c0-.14-.06-.28.13-.25s.26.18.32.3a1.53,1.53,0,0,1,0,1.17,2.85,2.85,0,0,0,.22-.7c0-.22.17-.6,0-.82s-.12-.06-.2,0a.2.2,0,0,1-.18.06c-.19-.07-.16-.38-.24-.52s-.14.09-.21.13.32-.8,0-.71c-.09,0,0,.29-.05.37a.3.3,0,0,1-.33.2C11,3.4,11,3.07,11,2.84s.13-.46.13-.7h0" transform="translate(-0.02 -0.22)"/><path class="e" d="M2.06,2.45a1,1,0,0,1,.06-.69,1,1,0,0,1,.7-.43c.16,0,.13,0,.26-.13a1.47,1.47,0,0,1,.37-.13,1.11,1.11,0,0,1,.8.14A.78.78,0,0,1,4.61.64,1.12,1.12,0,0,1,5.48.45c.15,0,.23-.07.37-.11a1.23,1.23,0,0,1,.54,0A.73.73,0,0,1,6.88,1c0-.17-.4-.22-.54-.24a2,2,0,0,0-.74,0,1.46,1.46,0,0,0-.67.33.82.82,0,0,0-.34.59c-.19-.13-.23-.22-.49-.2a2.37,2.37,0,0,0-.6.12c-.35.13-.75.4-.74.82-.15,0-.2-.1-.38-.08L2,2.43l.08,0" transform="translate(-0.02 -0.22)"/><path class="d" d="M3,2.85c-.19,0-.45.39-.5.54a3.71,3.71,0,0,0,0,.88C2.42,4.2,2.37,4,2.3,4a.62.62,0,0,0-.42-.2,2.39,2.39,0,0,0-.75,0c.71,0,1.59.94,1.07,1.6-.26.32-.72.32-1.1.38s-.59.08-.54.41A3.34,3.34,0,0,0,1.19,6c.23,0,.45-.27.66-.29,0,.09.1.83.28.72s0-.42,0-.53a.52.52,0,0,1,.16-.3c.21.27.34.47.71.53.11,0,.91.08.89-.14s-.42-.16-.51-.21a1.36,1.36,0,0,1-.58-.56,2,2,0,0,1,.34,0c.25,0,.52,0,.63-.11C3.53,5,3,5,2.88,4.7c-.06-.12,0-.17.05-.28a1.32,1.32,0,0,0-.08-.33c-.1-.4.09-1.22.59-1.27L3,2.85" transform="translate(-0.02 -0.22)"/><path class="d" d="M3.7,5.94c-.41,0-.72.41-.83.75a2.13,2.13,0,0,0,.19,1.64,1.19,1.19,0,0,0,1.23.54,2,2,0,0,0,.81-.55c-.29.75-.17,1.87.78,2.09A1.11,1.11,0,0,0,7.3,9.49a1,1,0,0,0,.74.95c.34.11.92.23,1.14-.17a1,1,0,0,1-.82-.13C8.18,10,7.8,9.58,8,9.34c.07-.09.21,0,.31,0a.3.3,0,0,0,.31-.19A6.86,6.86,0,0,0,9,8.29a4.71,4.71,0,0,1-.53.57c-.16.14-.58.42-.81.28s-.12-.33-.1-.51,0-.53-.1-.59C7.27,8.64,6.89,10,6,9.87a.82.82,0,0,1-.72-.68c0-.12-.13-.36-.05-.48s.33-.08.47-.05c0-.21-.21-.24-.35-.31s-.11-.16-.14-.3a2.55,2.55,0,0,1-.13-.39c0-.13,0-.31-.13-.39,0,.49-.14,1-.74,1s-.8-.43-.89-.95c-.06-.36-.15-1,.36-1S5,6.19,5.12,5.46c-.1,0-.19.2-.29.27a1.17,1.17,0,0,1-.51.19,1,1,0,0,1-.46-.07c-.08,0-.11-.19-.22-.14l.06.23" transform="translate(-0.02 -0.22)"/><path class="d" d="M1.5,5.79c.2,0,.28,0,.33.22a.85.85,0,0,0,.25.44,1,1,0,0,1,.29.89c-.08.36-.47.55-.81.64a1.09,1.09,0,0,1-.81-.23c0,.4.58.45.89.44a1.3,1.3,0,0,0,.84-.39c.07.18.42.64.66.53,0-.18-.18-.34-.27-.49s-.29-.48-.23-.7A2,2,0,0,1,3,6.59a1.07,1.07,0,0,1,.25-.34c.07.15-.4.27-.52.28a.62.62,0,0,1-.47-.22A1.87,1.87,0,0,1,2,5.83c-.07-.16-.46-.15-.43.06l0-.1" transform="translate(-0.02 -0.22)"/><path class="d" d="M2.19,7.9c.19-.07.28.28.3.4s.06.32-.09.48-.62.47-.58.75c0-.19.54-.5.69-.56s.47-.06.56.18c.19-.19.55.13.28.31a.75.75,0,0,1,.31.18c.06.08,0,.18.06.27s.18.37.11.59a1.21,1.21,0,0,1-.78.78,0,0,0,0,0,0,.05,1,1,0,0,0,.89-.65c0,.18.2.32.35.37s.56.1.67,0,0-.1,0-.17a.34.34,0,0,1,.15-.14.39.39,0,0,0,.14-.45c-.19.23-.53.55-.86.47S4.05,10.18,4,10a.5.5,0,0,1,.29-.65c.19-.05.31,0,.45-.19a.89.89,0,0,0,.18-.5,1,1,0,0,1-.62.42c-.15,0-.67.16-.63-.14.1,0,.51-.05.44-.23a1.22,1.22,0,0,0-.33,0l-.24,0c0-.1,0-.21,0-.31A1.11,1.11,0,0,1,3,8.3.7.7,0,0,1,2.78,8c-.07-.18-.07-.3-.31-.25s-.25.2-.21.43L2.19,7.9" transform="translate(-0.02 -0.22)"/><path class="d" d="M3.81,10.72a.76.76,0,0,1,.58.89,2.38,2.38,0,0,1-.15.45,1.34,1.34,0,0,0-.17.31,1,1,0,0,0,.35-.25c0,.07,0,.15,0,.22s.08-.15.23-.16.24,0,.35,0,0,.1,0,.17a.29.29,0,0,0,0,.16h.12a1.25,1.25,0,0,0,.33.94.62.62,0,0,0,.58.23c.14,0,.21-.13,0-.17a.55.55,0,0,0-.18,0,.28.28,0,0,1-.28,0c-.11-.1-.13-.34-.16-.49s-.06-.63.29-.48c0-.07,0-.15,0-.22s.19.15.31.14.12-.1.12-.23,0-.24.19-.3a.93.93,0,0,1,.23,0c.15,0,.15,0,.26.09s.26-.06.29-.23c-.28,0-.52.14-.72-.13.31-.11.6-.19.66-.56,0-.19,0-.77-.25-.81a1.23,1.23,0,0,1-1,1.53c-.52.14-.93-.49-.94-.95,0,0,0,.16-.08.19s-.25,0-.34,0a3.45,3.45,0,0,1-.64-.22l-.08-.06" transform="translate(-0.02 -0.22)"/><path class="d" d="M7.36,9.9c-.26.06-.33.47-.35.69a1.49,1.49,0,0,0,.2,1c.36.56,1.31.39,1.68-.07.06.25-.33.48-.51.56a2.73,2.73,0,0,1-.75.17,1.06,1.06,0,0,1-.7-.24l-.32-.22c-.1-.06-.22,0-.31-.12a1.66,1.66,0,0,0,.54-.94c0-.16.06-.34.1-.5A.54.54,0,0,1,7,10c0-.06.14-.12.14-.19l.19.14" transform="translate(-0.02 -0.22)"/><path class="f" d="M5.51,3.22c-.38.22-.32.79-.17,1.13a1.09,1.09,0,0,0,.57.55c.63.29,1.25-.43,1.12-1-.1.08-.13.28-.21.39a.44.44,0,0,1-.4.22c0-.11,0-.24,0-.36a.9.9,0,0,0,0-.4c-.14,0-.16.18-.19.37s-.07.39-.27.36a.94.94,0,0,1,0-.55c-.11.1-.17.25-.29.34-.2-.14-.55-.93-.16-1.06v0" transform="translate(-0.02 -0.22)"/><path class="f" d="M3.16,2.79s0,0,0,0c-.39.71-.63,1.77.18,2.3a.82.82,0,0,0,1.09-.15,1.45,1.45,0,0,0,.38-1.24c-.15.28-.25.83-.69.82-.07-.16.09-.41.05-.57-.11.09-.33.71-.54.59s.11-.63,0-.82c-.06.1-.11.44-.19.49s-.26-.38-.28-.49a1.64,1.64,0,0,1,0-.54c0-.12.13-.23.18-.35H3.2l0,0" transform="translate(-0.02 -0.22)"/><path class="f" d="M1,3.75c-.42-.06-.59.42-.7.73A1,1,0,0,0,.32,5.59a.93.93,0,0,0,1.13.08c.25-.1.8-.2.9-.48s-.27-.82-.58-1c0,.19.19.39.14.58A.39.39,0,0,1,1.53,5c-.13-.32,0-.63-.12-.94C1,4,1.22,5,1.13,5.09s-.25-.2-.26-.3A2.7,2.7,0,0,1,1,4.23c-.18.09-.13.54-.31.57a1.52,1.52,0,0,1-.11-.6,2.39,2.39,0,0,1,.28-.49l.15,0" transform="translate(-0.02 -0.22)"/><path class="f" d="M1.41,5.87A1.93,1.93,0,0,0,.55,6,.79.79,0,0,0,.33,7c.09,0,.15-.31.21-.4s.2-.28.3-.27a1.12,1.12,0,0,0-.07.45c0,.08,0,.29.09.34.15-.26.08-.55.36-.74.07.22,0,.46.07.68.22,0,.18-.55.38-.62A1.6,1.6,0,0,1,2,7.23c0,.26-.22.47-.19.7.68,0,.69-.9.61-1.36A1.35,1.35,0,0,0,2,5.9c-.18-.16-.6-.19-.74,0l.19-.06" transform="translate(-0.02 -0.22)"/><path class="f" d="M3.56,6.36c-.46,0-.47.83-.25,1.1s.24,0,.22-.17a.46.46,0,0,1,.13-.46c0,.1,0,.54.25.46s.14-.37.23-.47c0,.11,0,.46.12.5S4.46,7,4.54,7a1.36,1.36,0,0,1,0,.53,1.4,1.4,0,0,0,0,.61c.53,0,.49-.79.39-1.16,0-.1-.06-.11,0-.2s.12-.12.14-.22a1.37,1.37,0,0,0,0-.57c-.16.08-.2.27-.35.38a1.45,1.45,0,0,1-.54.15.64.64,0,0,1-.41,0l-.31-.13s0,0,0,0l.13,0" transform="translate(-0.02 -0.22)"/><path class="f" d="M.91,8c-.18.08-.1.59-.06.72.1.39.4.54.7.76.09-.12-.15-.33-.21-.43a.55.55,0,0,0,.64.2c0-.2-.07-.33,0-.52a.2.2,0,0,1-.21.22.46.46,0,0,1-.39-.27c-.05-.08-.16-.29-.06-.37s.29,0,.38-.06a0,0,0,0,0,0-.06,1.56,1.56,0,0,1-.53,0C1,8.1.92,8,.78,8L.91,8" transform="translate(-0.02 -0.22)"/><path class="f" d="M2.5,9c-.42-.14-.7.44-.74.76a1.2,1.2,0,0,0,.86,1.43c-.22-.26-.68-.69-.36-1,.05.08.17.41.29.4s.06-.35.05-.44-.06-.3.1-.22.11.19.2.23A1.09,1.09,0,0,1,3,9.91c.12.11.16.41.2.56s.08.35.13.52c.17-.07.21-.51.2-.67a.74.74,0,0,0-.22-.62c0,.09,0,.36-.18.29S3,9.57,2.93,9.45a.43.43,0,0,1-.33-.18c-.05-.07-.07-.22-.19-.19L2.5,9" transform="translate(-0.02 -0.22)"/><path class="f" d="M6.22,5.62c-.24,0-.37.24-.48.45a1.58,1.58,0,0,0-.2,1,1.26,1.26,0,0,0,.16.46s.12.25.19.25.16-.33.16-.41c0,.13,0,.25.13.35a.64.64,0,0,0,.5.13c.31-.07.55-.57.54-.86a.5.5,0,0,1-.49.29c-.09-.22.15-.47.12-.69-.17.09-.22.34-.39.46a1.1,1.1,0,0,1,0-.67c-.08.13-.16.32-.31.39s-.18-.1-.19-.24A1.78,1.78,0,0,1,6,6a1.6,1.6,0,0,0,.12-.37l.06,0" transform="translate(-0.02 -0.22)"/><path class="d" d="M2.05,2.38c-.26,0-.34.3-.35.51s.14,1,.38.52S2.67,3,3,3c.11,0,.31,0,.21-.2s-.37-.13-.43-.32.05-.34.19-.27.11.14.18.19a.41.41,0,0,0,.22.07,1.24,1.24,0,0,0,.43,0,.76.76,0,0,0,.4-.22c.09-.15-.11-.23-.1-.4.35-.07-.16-.39,0-.57s.15,0,.21-.08,0-.06.08-.13A.62.62,0,0,1,4.84.76c-.28.38.38.68.68.72a1.07,1.07,0,0,0,.74-.18,1.36,1.36,0,0,0,.24-.24s.1-.2.16-.22.4.89.2,1-.28-.13-.39-.14a.51.51,0,0,0-.38.2.92.92,0,0,1-.89.27.86.86,0,0,0-.5,0c-.12.06-.18.21-.26.31a.76.76,0,0,0-.16.26c0,.06,0,.21,0,.24S4,2.82,3.88,2.81a.54.54,0,0,0-.46.09,2.46,2.46,0,0,0-.87,1.54,1,1,0,0,0-.72-.62,2,2,0,0,0-.4-.1L1,3.76A.91.91,0,0,1,1.16,3a2.12,2.12,0,0,1,.5-.49.68.68,0,0,1,.26-.12H2a.65.65,0,0,0,.14,0l-.12,0" transform="translate(-0.02 -0.22)"/><path class="f" d="M5.35,8.54a1,1,0,0,0,.58,1.35c.78.2,1.19-.65,1.19-1.3C7,8.71,7,8.89,6.87,9s-.23.29-.35.27c-.06-.17.05-.33,0-.49a.59.59,0,0,0-.17.24s-.08.19-.14.22-.09-.35-.11-.43c-.08.07-.13.26-.19.3S5.75,9.08,5.69,9s-.22-.36-.35-.52c0,0,0,0,0,0h0" transform="translate(-0.02 -0.22)"/><path class="f" d="M5.41,10.25c-.54.16-.37,1.16,0,1.41a.83.83,0,0,0,1-.06c.19-.19.57-1,.13-1.17-.14.25-.1.57-.33.78S6,10.92,6,10.8c0,.06-.13.42-.23.4s-.09-.34-.11-.4c0,.1-.1.33-.2.15s0-.53-.13-.57l.08-.13" transform="translate(-0.02 -0.22)"/><path class="f" d="M5.31,13.83s0-.05,0-.11.1-.24,0-.33a.27.27,0,0,0-.14,0,.21.21,0,0,1-.17.05.61.61,0,0,1-.34-.31c0-.15.12,0,.17-.13s-.18-.19-.17-.3a.71.71,0,0,0,.21,0,.1.1,0,0,0,0-.17c-.1-.1-.35,0-.47,0a.2.2,0,0,1,.05-.25s.08,0,.07-.12-.06-.11-.14-.12-.13.15-.24.18-.24-.17-.29-.23-.09-.13,0-.23S4,11.7,4,11.66s-.15-.09-.17-.11-.09-.14,0-.27.14-.31,0-.35l0-.09c-.43.08-.82.36-.77.83a1,1,0,0,0,1,.77,1,1,0,0,0,0,.3,1,1,0,0,0,.12.42l.16.24a5,5,0,0,0,1,.43" transform="translate(-0.02 -0.22)"/><path class="f" d="M7.82,5.41A1.91,1.91,0,0,0,7.6,6.74a1.39,1.39,0,0,0,.72,1.15,1.13,1.13,0,0,0,1.32-.47A1.46,1.46,0,0,0,9.69,6s0,.17,0,.23a1.43,1.43,0,0,1,0,.42c-.05.17-.14.47-.32.54-.05-.15,0-.31,0-.46s0-.34-.08-.42-.06.14-.07.21a2.5,2.5,0,0,1-.06.38c0,.13-.07.41-.22.44a2.24,2.24,0,0,1,0-.58,1.09,1.09,0,0,0,0-.36c-.21,0-.13.63-.33.64s-.08-.59-.11-.67-.17.36-.24.38S8,6.48,8,6.4s-.15-.35-.21-.53-.08-.26,0-.32l.08-.14" transform="translate(-0.02 -0.22)"/><path class="f" d="M7.23,9.78a1.14,1.14,0,0,0-.28,1,1.32,1.32,0,0,0,.41.94,1.21,1.21,0,0,0,1.11.06,1.22,1.22,0,0,0,.4-1.08.94.94,0,0,1-.68.6c.08-.15.3-.41.22-.58s-.22.24-.28.31a1,1,0,0,1-.33.33.81.81,0,0,1,0-.41c0-.08.09-.24.05-.32a2,2,0,0,0-.17.23.72.72,0,0,1-.12.23c-.14.1-.14-.11-.17-.21a3.51,3.51,0,0,1-.13-.66c0-.12.05-.29,0-.39V9.78" transform="translate(-0.02 -0.22)"/><path class="f" d="M11,7.24c-.32-.24-.74.15-.89.42a1.18,1.18,0,0,0,.18,1.4,1.14,1.14,0,0,0,1.61-.32c.19-.3.37-.84,0-1a1.29,1.29,0,0,1-.13.64.55.55,0,0,1-.27.25,1.47,1.47,0,0,0-.22.1c0-.1.06-.22.09-.32a1.09,1.09,0,0,0,0-.25c-.16.08-.26.47-.48.47-.09-.19.17-.4.21-.58-.18,0-.32.25-.46.35s-.17,0-.19-.13a.67.67,0,0,1,.09-.53,2.51,2.51,0,0,1,.32-.46H11" transform="translate(-0.02 -0.22)"/><path class="f" d="M8.55,3.11c0-.23-.22-.22-.41-.18a.8.8,0,0,0-.58.57,2.32,2.32,0,0,0-.1,1.08,1.05,1.05,0,0,0,.62.7A1,1,0,0,0,9,5.19a1.19,1.19,0,0,0,.38-.93c0-.07,0-.32-.09-.36s-.08.13-.09.2a.71.71,0,0,1-.47.6c-.09-.26.09-.53,0-.8-.12.07-.13.37-.17.49s-.14.34-.25.33,0-.65,0-.78c0,.08-.17.39-.27.39s-.15-.32-.14-.4a1.93,1.93,0,0,1,.26-.59c.09-.15.16-.13.3-.21l.13,0" transform="translate(-0.02 -0.22)"/><path class="g" d="M7.26,3.52a.83.83,0,0,0-.11-.15l.15.1,0,0" transform="translate(-0.02 -0.22)"/><path class="h" d="M6.85,1.87a.53.53,0,0,1-.36-.11.73.73,0,0,1-.09-.09h0a.33.33,0,0,0,.11.09c.09,0,.18,0,.27.06L7,1.87h-.1M8.28,2a.49.49,0,0,1-.16-.05.34.34,0,0,1,.17-.07h0a.17.17,0,0,1,0,.12M4.53,2.3a.49.49,0,0,1,.17-.18.47.47,0,0,1,.17,0h0a.87.87,0,0,1-.32.2h0M3,2.78s0,0,.07-.08l0,0,.08.06L3,2.78m.18,0,0,0h0l.07,0h0a.17.17,0,0,1,0,.05h0m-.13,0h0l.07,0,0,0h0m1.66.38-.16-.08a1.88,1.88,0,0,0-.94-.31H3.54a.65.65,0,0,1,.2,0l.14,0h0v0l.11,0a1,1,0,0,0,.22.08h0l.24.1a2.07,2.07,0,0,1,.25.19" transform="translate(-0.02 -0.22)"/><path class="g" d="M7.88,2.75h0c-.06-.12.07-.28,0-.39a.16.16,0,0,0-.11,0c-.18,0-.45.21-.58.25a.46.46,0,0,0,0-.2c-.19.05-.41.29-.62.29h0c0-.09,0-.19-.06-.28A3.72,3.72,0,0,0,6,2.48c0-.28-.3-.24-.51-.26l0-.06a1,1,0,0,0,.59-.29.64.64,0,0,1,.31-.2.73.73,0,0,0,.09.09.53.53,0,0,0,.36.11H7A.18.18,0,0,1,7,1.93c0,.05,0,.08.1.08h0c.18,0,.31-.28.51-.28h0c.07.18-.15.35-.12.52h0c.11,0,.24-.11.32-.16a2.7,2.7,0,0,1,.22-.18A.49.49,0,0,0,8.28,2c-.06.18-.22.43,0,.44h0a1.15,1.15,0,0,0,.55-.17c.08,0,.26-.28.37-.28h0c.12,0,.1.22.07.3A.7.7,0,0,1,9,2.58l0,0a.21.21,0,0,0,0-.13c-.37,0-.64.28-1,.28m-4.83.09a0,0,0,0,1,0-.06l.19,0,0,0-.07,0s0,0,0,0h0l0,0-.07,0m1.8,0c-.18-.09-.18-.22-.42-.23H4.3a1.43,1.43,0,0,1,.14-.2l.09-.13h0a.87.87,0,0,0,.32-.2,1.75,1.75,0,0,1,.33.05l.17,0,0,0a.46.46,0,0,0,.15,0,1,1,0,0,1-.27.36l-.11,0c-.1,0-.15-.09-.21-.2a.93.93,0,0,0,0,.44m.28.61a2,2,0,0,0-.4-.24A2.07,2.07,0,0,0,4.48,3a1.72,1.72,0,0,1,.65.43" transform="translate(-0.02 -0.22)"/><path class="g" d="M3.09,2.85h0" transform="translate(-0.02 -0.22)"/><path class="i" d="M3.21,2.86H3.1l0,0,0,0h0s0,0,0,0h0l0,0h0a.08.08,0,0,1,0,0h0" transform="translate(-0.02 -0.22)"/><path class="g" d="M3.26,2.85a.08.08,0,0,0,0,0,.17.17,0,0,0,0-.05h0l0,0-.08-.06c.25-.15.57-.11.82-.24a.43.43,0,0,1,.17-.06l.13,0h.08c.17,0,.12-.19.09-.35s-.16-.58.06-.58h0c.22,0,.35.43.41.61,0-.06.2-.29.28-.29h0c.08,0,.08.15.1.2a.14.14,0,0,0,.13.08c.22,0,.59-.44.76-.45L6,1.6a.23.23,0,0,1,.16-.06.33.33,0,0,1,.22.08l.06,0h0a.64.64,0,0,0-.31.2,1,1,0,0,1-.59.29s0,0,0-.06l-.14.06-.17,0a1.75,1.75,0,0,0-.33-.05h0a.47.47,0,0,0-.17,0,.49.49,0,0,0-.17.18l-.09.13a1.43,1.43,0,0,0-.14.2c-.15,0-.35.07-.41.18h0l-.14,0a.65.65,0,0,0-.2,0l-.28,0m1,.09A1,1,0,0,1,4,2.86l.24.07h0" transform="translate(-0.02 -0.22)"/><path class="g" d="M7.36,3.36A.66.66,0,0,1,7.67,3l-.21.18a.78.78,0,0,0-.1.15" transform="translate(-0.02 -0.22)"/><path class="h" d="M8.73,3h0" transform="translate(-0.02 -0.22)"/><path class="g" d="M8.84,3,8.73,3h0s0-.07-.09-.09a.18.18,0,0,1,.07-.08A2.12,2.12,0,0,1,8.84,3" transform="translate(-0.02 -0.22)"/><path class="f" d="M7.85,7.85c-.26,0-.4.33-.4.57s0,.4.16.52.11-.1.13-.21c.07,0,.27.2.36.14s0-.23,0-.27c.14.18.53,0,.43-.26a.45.45,0,0,0-.22,0,.33.33,0,0,1-.32,0c-.1-.06-.33-.4-.22-.51h.1" transform="translate(-0.02 -0.22)"/><path class="f" d="M9.3,13.06a1.15,1.15,0,0,0,.14-.63.64.64,0,0,1-.52.62c0-.19.24-.45.12-.66-.15.13-.25.65-.51.62-.07-.2.08-.44.1-.64-.06.08-.1.21-.19.26s.22-.67.35-.59l.13,0c-.25-.19-.6,0-.77.24a1.13,1.13,0,0,0-.24.93.47.47,0,0,0,.24.29l1.15-.47" transform="translate(-0.02 -0.22)"/><path class="f" d="M10.32,3.69c-.49.07-.58.82-.5,1.2a1.25,1.25,0,0,0,1,1,1.17,1.17,0,0,0,1.27-.58.92.92,0,0,0-.36-1.19c0,.08,0,.13.07.2a1,1,0,0,1,.09.33c0,.15-.08.43-.23.49-.09-.29.1-.78-.29-.89a4,4,0,0,1,0,.49c0,.09,0,.41-.16.41-.09-.27,0-.57-.09-.84-.15.2-.11.52-.32.69s-.24.09-.29,0a4.41,4.41,0,0,1-.2-.71c0-.2.09-.39,0-.58l0,0" transform="translate(-0.02 -0.22)"/><path class="j" d="M11.66,9.71a.52.52,0,0,0-.11-.25v0h.13a1,1,0,0,1,0,.29" transform="translate(-0.02 -0.22)"/><path class="k" d="M11.55,9.46l0-.05.05,0v0" transform="translate(-0.02 -0.22)"/><path class="l" d="M12.76,7.89q0-.1,0-.24c0-.11-.07-.22-.08-.32a.51.51,0,0,1,.09.24,1.17,1.17,0,0,1,0,.32" transform="translate(-0.02 -0.22)"/><path class="j" d="M9.43,4.66a.5.5,0,0,0-.1-.19,1.48,1.48,0,0,0,0-.21c0-.07,0-.32-.09-.36h0c-.06,0-.06.15-.07.21l0,.11A.72.72,0,0,0,9,4c-.11-.15-.86-.51-.83-.76.06-.07.13-.07.23-.13l.13,0s0,0,0-.06h.29l.28.15a.78.78,0,0,0,0-.14,1,1,0,0,1,.52.14.53.53,0,0,1,.13.13,3.08,3.08,0,0,1,.17.57.82.82,0,0,0-.35.41.37.37,0,0,1-.07-.14v0a1.39,1.39,0,0,1,0,.5m-.23.4V5c0-.09.09-.12.15-.17a.8.8,0,0,1-.15.21h0m3.57.73a1,1,0,0,1-.3-.21l0,0a.77.77,0,0,1,.23.21l0,0m-.31,2.89a1.85,1.85,0,0,0,0-.23,4.11,4.11,0,0,0,0-.7c0-.29-.12-.34-.28-.53l.26-.06.13.17c0,.1.06.21.08.32s0,.17,0,.24a1.27,1.27,0,0,1-.17.52l-.13.27" transform="translate(-0.02 -0.22)"/><path class="k" d="M9.11,3.19,8.83,3h.23a.78.78,0,0,1,0,.14" transform="translate(-0.02 -0.22)"/><path class="k" d="M9.46,4.16v0m-.26.9a.8.8,0,0,0,.15-.21.12.12,0,0,0,.06-.08.14.14,0,0,0,0-.11,1.39,1.39,0,0,0,0-.5.37.37,0,0,0,.07.14.82.82,0,0,1,.35-.41,1.09,1.09,0,0,1,0,.18,1.5,1.5,0,0,0-.09.42.41.41,0,0,1-.05.09,1.1,1.1,0,0,1-.55.48" transform="translate(-0.02 -0.22)"/><path class="m" d="M8.19,3.26a.13.13,0,0,1,.07-.11.67.67,0,0,1,.28-.1s0,0,0,.06l-.13,0c-.1.06-.17.06-.23.13M9.33,4.47l-.12-.15-.08-.11,0-.11c0-.06,0-.21.07-.21h0c.08,0,.08.29.09.36a1.48,1.48,0,0,1,0,.21" transform="translate(-0.02 -0.22)"/><path class="l" d="M12.8,4.38a1.39,1.39,0,0,0-.12-.28,1.18,1.18,0,0,0-.07-.2.86.86,0,0,0-.31-.29l.06,0a.63.63,0,0,1,.4.53,1.55,1.55,0,0,1,0,.21" transform="translate(-0.02 -0.22)"/><path class="j" d="M12.68,4.1a.7.7,0,0,0-.15-.19h0s0-.07-.08-.07h0A.9.9,0,0,0,12,3.68l0-.15a1.17,1.17,0,0,1,.36.08.86.86,0,0,1,.31.29,1.18,1.18,0,0,1,.07.2" transform="translate(-0.02 -0.22)"/><path class="k" d="M11.83,3.69a.69.69,0,0,1,.05-.17h.06l0,.15h-.14m.7.22-.1-.08h0s.05,0,.08.07h0" transform="translate(-0.02 -0.22)"/><path class="l" d="M11.77,2.52l-.06-.06.06.06" transform="translate(-0.02 -0.22)"/><path class="j" d="M9.75,2.68l0-.05c-.08-.13,0-.22.13-.28a.51.51,0,0,0,.15.07,1,1,0,0,1-.25.26m2.08,0a.52.52,0,0,0-.16-.17.24.24,0,0,0-.15,0h-.24a.15.15,0,0,1-.13,0c-.06,0,0-.12,0-.18a1.57,1.57,0,0,1,.46.09.3.3,0,0,1,.11.07l.06.06a.52.52,0,0,1,.06.2" transform="translate(-0.02 -0.22)"/><path class="k" d="M10,2.42a.51.51,0,0,1-.15-.07l.1,0h.1a.37.37,0,0,1-.05.11" transform="translate(-0.02 -0.22)"/><path class="m" d="M9.8,4.49a1.5,1.5,0,0,1,.09-.42.82.82,0,0,1-.09.42" transform="translate(-0.02 -0.22)"/><path class="j" d="M5,13.5H5a.5.5,0,0,1-.22-.14h0l0,0,.13,0H5s0,0,0,0a.92.92,0,0,0,0,.16H5" transform="translate(-0.02 -0.22)"/><path class="l" d="M1.79,10.61a.82.82,0,0,1-.24-.54c0-.17.09-.37,0-.54a.64.64,0,0,1-.4-.2.58.58,0,0,0,.19.1,1.34,1.34,0,0,0,.3.05,1.45,1.45,0,0,0,.14,1.13" transform="translate(-0.02 -0.22)"/><path class="j" d="M4.36,8.27c0-.12.07-.23.16-.28a.32.32,0,0,0,0,.14h0l0,.08a.61.61,0,0,1-.24.07m.88.52a.19.19,0,0,1,0-.07.64.64,0,0,1,0,.07m2.57.39a.23.23,0,0,1-.14,0,.25.25,0,0,1-.13-.27l.07.07.07,0c.07,0,0-.16.06-.24a.76.76,0,0,0,.31.16l0,0c.06,0,0-.23,0-.27a.2.2,0,0,0,.14.06c.15,0,.33-.13.3-.28l.23,0h0a.77.77,0,0,1,0,.15,2.27,2.27,0,0,1-.31.31,1.32,1.32,0,0,1-.67.32M6.54,9.3h0c-.06-.17.05-.33,0-.49a.59.59,0,0,0-.17.24s-.08.19-.14.22h0c-.11,0-.07-.35-.09-.43-.08.07-.13.26-.19.3H5.85c-.07,0-.11-.08-.16-.13a2.11,2.11,0,0,1-.26-.4h0a1,1,0,0,1,.27,0,.08.08,0,0,0,0-.07l.15,0,.17-.05h.1A2.16,2.16,0,0,0,7,8.31a7.57,7.57,0,0,0,.74-.52,3.61,3.61,0,0,1-.16-.42l.11-.13a1.21,1.21,0,0,0,.59.65A.84.84,0,0,0,8.58,8s.05.09.07.12H8.5a1,1,0,0,1-.63-.23.61.61,0,0,0,.42.46l.09,0-.09,0a.58.58,0,0,1-.18,0A.2.2,0,0,1,8,8.37c-.09,0-.31-.37-.23-.49l.08,0H7.75v0a.45.45,0,0,0-.21.22L7.47,8A7.13,7.13,0,0,1,7,9.17a1.69,1.69,0,0,0,.1-.58C7,8.71,7,8.89,6.87,9s-.21.27-.33.27m1.61.64C8,9.76,7.87,9.5,8,9.34a.15.15,0,0,1,.12-.05l.17,0a1.09,1.09,0,0,1,0,.36,1,1,0,0,1-.13.27m-1.22.32-.06,0L7,10.17v.09m-3.09.21a1.9,1.9,0,0,0-1-1.39A1.35,1.35,0,0,0,2.57,9V9a.39.39,0,0,1,.15,0,.33.33,0,0,1,.34.21.2.2,0,0,1,.14-.06c.18,0,.35.23.14.37a.75.75,0,0,1,.31.18c.06.08,0,.18.06.27s.17.36.12.56m.11.3h0a.24.24,0,0,0,0-.08.28.28,0,0,0,0,.09m3.49.29a1.16,1.16,0,0,1,0-.18,3.51,3.51,0,0,1-.13-.66c0-.08,0-.19,0-.28l.08,0-.13-.1h0a.94.94,0,0,0,.07-.3,1,1,0,0,0,.35.74h0l-.1,0H7.45c-.16.06,0,.31,0,.41a.6.6,0,0,1,0,.44m-1.3.2C6,11.26,6,10.9,6,10.8c0,.06-.13.4-.23.4h0c-.09,0-.09-.34-.11-.4s-.07.22-.13.22,0,0-.07-.07,0-.53-.13-.57l.08-.13-.1,0v0a1.19,1.19,0,0,1-.75.49l-.11,0c-.24-.05-.39-.54-.47-.75a.5.5,0,0,1,.29-.65c.19-.05.31,0,.45-.19a.89.89,0,0,0,.18-.5,1,1,0,0,1-.62.42,2.53,2.53,0,0,1-.38,0c-.14,0-.27,0-.25-.19l.2,0a.83.83,0,0,0,.22,0,.85.85,0,0,0,.23,0,1.46,1.46,0,0,0,.63-.38l.11,0a1.42,1.42,0,0,0,.85,1.87.9.9,0,0,0,.28,0,1.21,1.21,0,0,0,.68-.2,1.53,1.53,0,0,1,0,.3l0,.15a3,3,0,0,1-.16.45c.11-.31.14-.65-.12-.72-.14.25-.1.57-.33.78a.14.14,0,0,1-.09,0m-.8.35A1.2,1.2,0,0,1,5,11c0-.05,0-.09,0-.16a.13.13,0,0,1,.06-.07,1.11,1.11,0,0,0,.27.84m1.91,0,0,0,0,0h0m-3.13.62A.88.88,0,0,1,3.88,12c-.07-.09-.09-.13,0-.23S4,11.7,4,11.66s-.15-.09-.17-.11-.09-.14,0-.27.13-.29.05-.34a1.09,1.09,0,0,0,.08-.15l.07,0a.6.6,0,0,0,.3.23.78.78,0,0,1,.11.56,2.38,2.38,0,0,1-.15.45,1.88,1.88,0,0,1-.12.18m1.9.3c-.07,0-.17,0-.24,0h0c0-.07,0-.14,0-.21s.18.14.3.14h0c.14,0,.12-.1.12-.23s0-.24.19-.3a.93.93,0,0,1,.23,0h0c.11,0,.12.05.22.09l0,0h0l.12.09L7,12.15a2.17,2.17,0,0,1-.61.3.82.82,0,0,1-.34.09m-1.08.58-.13,0h0a.1.1,0,0,0,0,0c0-.12-.15-.18-.17-.28v0c.06,0,.16,0,.2,0a.1.1,0,0,0,0-.17.16.16,0,0,0-.14-.05l-.14,0-.07,0H4.41a.18.18,0,0,1,0-.16v0c.11-.07.08-.15.23-.16h.07l.28,0c0,.07,0,.1,0,.17a.29.29,0,0,0,0,.16h.12a1.17,1.17,0,0,0,.07.52l-.1.05a.38.38,0,0,1-.19,0m.58,0v0c0-.17.19-.3,0-.45l-.07.09c0-.14.06-.26.18-.26l.1,0h0c-.16,0,0,.3,0,.42s-.08.19-.19.21" transform="translate(-0.02 -0.22)"/><path class="j" d="M1.4,8A1,1,0,0,1,1,7.89a.16.16,0,0,1,.12,0c.1,0,.2.09.33.16H1.4M2.57,9h-.1l0,0h.07V9M1.35,9V9M2,9.12A1.72,1.72,0,0,1,2,8.8a.14.14,0,0,0,0-.11A.43.43,0,0,0,2,8.8a.21.21,0,0,1-.19.11h0a.48.48,0,0,1-.37-.27c-.05-.08-.16-.29-.06-.37s.29,0,.38-.06,0,0,0,0A1,1,0,0,0,2.22,8l0,.13c0-.05,0-.1,0-.14l.09-.07,0,0a.51.51,0,0,0,.09.18c0,.07,0,.13,0,.17,0,.2.06.32-.09.48l-.32.28L2,9.12m-.27.23h0l.06-.1h.06l-.12.11m-.05.13a1.34,1.34,0,0,1-.3-.05.58.58,0,0,1-.19-.1A1.33,1.33,0,0,1,.81,8.5a1,1,0,0,0,0,.18c.1.39.4.54.7.76.07-.11-.09-.27-.18-.38a.51.51,0,0,0,.39.18l-.06.1h0a.5.5,0,0,0-.05.13" transform="translate(-0.02 -0.22)"/><path class="j" d="M2,9.18s0,0,0-.06l.11-.06L2,9.18m-.28.16.06-.1h0l-.06.1m0,0h0m.23,1.4-.12-.12,0,0a1.45,1.45,0,0,1-.14-1.13.5.5,0,0,1,.05-.13l.12-.11.12,0a.43.43,0,0,0-.12.3h0a.27.27,0,0,1,.11-.19,1.34,1.34,0,0,0-.17.47,1.49,1.49,0,0,0,.17.95m1.16.52a2.83,2.83,0,0,1-.36-.16.09.09,0,0,0-.06.06h0l-.11,0c-.23-.27-.58-.65-.29-.95.05.08.16.4.28.4h0c.11,0,.06-.35.05-.44s0-.24,0-.24l.06,0c.09,0,.11.19.2.23A1.09,1.09,0,0,1,3,9.91c.12.11.16.41.2.56s.08.35.13.52c.17-.07.21-.51.2-.67a.74.74,0,0,0-.22-.62c0,.08,0,.3-.13.3h0C3,9.93,3,9.57,2.93,9.45a.43.43,0,0,1-.33-.18c0-.06-.07-.19-.17-.19h0L2.5,9,2.41,9l.06,0h.1a1.35,1.35,0,0,1,.24.08,1.9,1.9,0,0,1,1,1.39v0a1.12,1.12,0,0,1-.21.38.92.92,0,0,0-.53.39h0" transform="translate(-0.02 -0.22)"/><path class="k" d="M8.75,8.4l-.23,0a.06.06,0,0,0,0,0H8.38l-.09,0a.61.61,0,0,1-.42-.46,1,1,0,0,0,.63.23h.15v0a1.6,1.6,0,0,1,.11.29h0" transform="translate(-0.02 -0.22)"/><path class="k" d="M6.16,8.53h-.1A3.84,3.84,0,0,0,7.6,7.39l0,0a3.61,3.61,0,0,0,.16.42A7.57,7.57,0,0,1,7,8.31a2.16,2.16,0,0,1-.88.22" transform="translate(-0.02 -0.22)"/><path class="k" d="M5.74,8.66a1,1,0,0,0-.27,0h0l0,0h.33a.08.08,0,0,1,0,.07M4.06,8.9a.83.83,0,0,1-.22,0c.14,0,.29-.07.24-.19h0a.53.53,0,0,0,.15-.08.73.73,0,0,0,.15-.32A.61.61,0,0,0,4.6,8.2a.65.65,0,0,0,.32.29,1.46,1.46,0,0,1-.63.38.85.85,0,0,1-.23,0m2.1,1.55a.9.9,0,0,1-.28,0A1.42,1.42,0,0,1,5,8.54l.29.05a.38.38,0,0,0-.06.13.19.19,0,0,0,0,.07,1,1,0,0,0,.69,1.1l.22,0A1,1,0,0,0,7,9.17,7.13,7.13,0,0,0,7.47,8l.06.06a.72.72,0,0,0-.08.32.87.87,0,0,0,.09.45.25.25,0,0,0,.13.27.23.23,0,0,0,.14,0,1.32,1.32,0,0,0,.67-.32,2.27,2.27,0,0,0,.31-.31.33.33,0,0,1-.08.27c-.1.12-.3.09-.38.21a.39.39,0,0,0,0,.24v0l-.17,0A.15.15,0,0,0,8,9.34c-.14.16,0,.42.14.6a.74.74,0,0,1-.33.28l-.09,0H7.65a1,1,0,0,1-.35-.74.94.94,0,0,1-.07.3h0l0,0c0,.07-.1.13-.14.19a.45.45,0,0,0-.08.22l-.08.06h0v0a1.21,1.21,0,0,1-.68.2" transform="translate(-0.02 -0.22)"/><path class="k" d="M2.24,8V7.91h0l.06,0L2.24,8m-.54.19,0,0H1.52a1.45,1.45,0,0,1-.37,0A.88.88,0,0,1,.91,8,.41.41,0,0,1,1,7.89,1,1,0,0,0,1.4,8h.05l.06,0a.67.67,0,0,0,.3.08.68.68,0,0,0,.39-.19l0,.07a1,1,0,0,1-.52.18" transform="translate(-0.02 -0.22)"/><path class="k" d="M2.36,8l0,0-.06,0,.06,0,0,.09m-.1.18,0-.13,0-.07,0,0V8s0,.09,0,.14m-.44,1.4h0M4.72,11a.54.54,0,0,1-.19,0l-.39-.12A1.18,1.18,0,0,0,4,10.77a.28.28,0,0,1,0-.09.24.24,0,0,1,0,.08l-.11,0,.08.06h0a1.09,1.09,0,0,1-.08.15h0l0-.09-.16,0a1.12,1.12,0,0,0,.21-.38v0c.05-.2-.06-.36-.12-.56s0-.19-.06-.27a.75.75,0,0,0-.31-.18c.21-.14,0-.37-.14-.37a.2.2,0,0,0-.14.06.33.33,0,0,0-.34-.21.39.39,0,0,0-.15,0H2.51l0,0L2.41,9h0a.55.55,0,0,0-.45.31.27.27,0,0,0-.11.19.43.43,0,0,1,.12-.3H2v0l.1-.12.32-.28c.15-.16.13-.28.09-.48,0,0,0-.1,0-.17a1.51,1.51,0,0,0,1.08.65h0a1.42,1.42,0,0,0,.51-.11h0c0,.12-.1.16-.24.19l-.2,0c0,.15.11.19.25.19a2.53,2.53,0,0,0,.38,0,1,1,0,0,0,.62-.42.89.89,0,0,1-.18.5c-.14.17-.26.14-.45.19A.5.5,0,0,0,4,10c.08.21.23.7.47.75l.11,0a1.19,1.19,0,0,0,.75-.49v0a.54.54,0,0,0-.24.48.13.13,0,0,0-.06.07C5,10.91,5,11,5,11a1.36,1.36,0,0,1,0-.2s0,.16-.08.19a.22.22,0,0,1-.15,0m-.44,0a.6.6,0,0,1-.3-.23.44.44,0,0,0,.16.06,1.15,1.15,0,0,1,.14.17m-1.19.22h0" transform="translate(-0.02 -0.22)"/><path class="k" d="M6.87,10.55a1.53,1.53,0,0,0,0-.3v0h0l.06,0-.06.29m-2.73.33A.44.44,0,0,1,4,10.82l-.07,0h0l-.08-.06.11,0H4a1.18,1.18,0,0,1,.19.11M5.23,13a1.17,1.17,0,0,1-.07-.52H5a.29.29,0,0,1,0-.16c0-.07.06-.1,0-.17l-.28,0H4.7c-.15,0-.12.09-.23.16v0l0,0s.08,0,.07-.12-.06-.11-.14-.12h0c-.14,0-.12.16-.22.18h0a1.88,1.88,0,0,0,.12-.18,2.38,2.38,0,0,0,.15-.45.78.78,0,0,0-.11-.56,1.15,1.15,0,0,0-.14-.17l.39.12a.54.54,0,0,0,.19,0,.22.22,0,0,0,.15,0s0-.14.08-.19A1.36,1.36,0,0,0,5,11a1.2,1.2,0,0,0,.37.61l.06.05a.86.86,0,0,0,.49.15.74.74,0,0,0,.46-.14,2.67,2.67,0,0,1,.26.09A1.94,1.94,0,0,1,6.9,12l0,0c-.1,0-.11-.09-.22-.09h0a.93.93,0,0,0-.23,0c-.17.06-.19.13-.19.3s0,.22-.12.23h0c-.12,0-.19-.13-.3-.14s0,.14,0,.21h0l-.1,0c-.12,0-.17.12-.18.26a1.28,1.28,0,0,1-.23.29" transform="translate(-0.02 -0.22)"/><path class="k" d="M7.28,9.94a.22.22,0,0,0,0-.11v0l.13.1-.08,0m-.23,2.13L6.93,12h0a1.94,1.94,0,0,0-.29-.21,2.67,2.67,0,0,0-.26-.09l.08-.07a1.3,1.3,0,0,0,.25-.45,3,3,0,0,0,.16-.45l0-.15.06-.29v-.09A.45.45,0,0,1,7,10c0-.06.14-.12.14-.19l0,0a1.14,1.14,0,0,0-.26,1,1.52,1.52,0,0,0,.28.82l0,0a1.54,1.54,0,0,1-.2.45" transform="translate(-0.02 -0.22)"/><path class="m" d="M4.55,8.13a.32.32,0,0,1,0-.14h0a.59.59,0,0,0,0,.14h0" transform="translate(-0.02 -0.22)"/><path class="m" d="M2,8.8a.43.43,0,0,1,0-.11A.14.14,0,0,1,2,8.8M1.34,9V9m.21.43c-.3-.22-.6-.37-.7-.76a1,1,0,0,1,0-.18A.92.92,0,0,1,.9,8V8a.88.88,0,0,0,.24.11,1.45,1.45,0,0,0,.37,0h.16l0,0s0,0,0,0-.31,0-.38.06,0,.29.06.37a.48.48,0,0,0,.37.27h0A.21.21,0,0,0,2,8.8a1.72,1.72,0,0,0,0,.32s0,0,0,.06v0h0l-.12,0H1.76a.51.51,0,0,1-.39-.18c.09.11.25.27.18.38" transform="translate(-0.02 -0.22)"/><path class="m" d="M2.55,11.16l-.13-.06a3.36,3.36,0,0,1-.49-.35,1.49,1.49,0,0,1-.17-.95,1.34,1.34,0,0,1,.17-.47A.55.55,0,0,1,2.38,9h0L2.5,9l-.09,0h0c.1,0,.13.13.17.19a.43.43,0,0,0,.33.18c0,.12.08.48.21.54h0c.12,0,.14-.22.13-.3a.74.74,0,0,1,.22.62c0,.16,0,.6-.2.67,0-.17-.08-.35-.13-.52S3.13,10,3,9.91a1.09,1.09,0,0,0-.11.27c-.09,0-.11-.19-.2-.23l-.06,0c-.08,0-.05.16,0,.24s.06.42-.05.44h0c-.12,0-.23-.32-.28-.4-.29.3.06.68.29.95" transform="translate(-0.02 -0.22)"/><path class="j" d="M8.76,5.3A.55.55,0,0,0,9,5.19.27.27,0,0,0,9,5.12l.16-.06h0a.83.83,0,0,1-.44.24M8.55,7c-.15,0-.08-.59-.11-.67s-.17.36-.24.38h0s0,0-.08,0a1.38,1.38,0,0,0,.14-.75,2.63,2.63,0,0,0-.06-.34l.16.08a1.69,1.69,0,0,0,.33,0h.12l.06,0c.14,0,.25.06.3.21a1,1,0,0,1,0,.29,1.27,1.27,0,0,0-.31.15h0c-.21,0-.13.63-.33.64h0m.34.06c0-.1,0-.21,0-.31C9,6.87,9,7,9,7a.13.13,0,0,1-.09,0" transform="translate(-0.02 -0.22)"/><path class="k" d="M8.67,5.71a1.69,1.69,0,0,1-.33,0L8.18,5.6c0-.12,0-.21.05-.27l.22,0a1.06,1.06,0,0,0,.31,0,.83.83,0,0,0,.44-.24c0,.12.07.26-.06.34l-.08,0-.13,0-.13,0a.14.14,0,0,0-.12.06c-.06.1,0,.21.11.27H8.67" transform="translate(-0.02 -0.22)"/><path class="m" d="M6.15,9.92l-.22,0a1,1,0,0,1-.69-1.1.64.64,0,0,0,0-.07.38.38,0,0,1,.06-.13h.09l0,0a2.11,2.11,0,0,0,.26.4c0,.05.09.13.16.13H5.9c.06,0,.11-.23.19-.3,0,.08,0,.43.09.43h0c.06,0,.11-.17.14-.22a.59.59,0,0,1,.17-.24c.06.16,0,.32,0,.49h0c.12,0,.27-.19.33-.27s.13-.32.25-.44a1.69,1.69,0,0,1-.1.58,1,1,0,0,1-.87.75" transform="translate(-0.02 -0.22)"/><path class="m" d="M5.89,11.81a.86.86,0,0,1-.49-.15l-.06-.05a1.11,1.11,0,0,1-.27-.84.54.54,0,0,1,.24-.48l.1,0-.08.13c.09,0,.08.47.13.57s0,.07.07.07.11-.15.13-.22,0,.39.11.4h0c.1,0,.18-.34.23-.4,0,.1,0,.46.14.46a.14.14,0,0,0,.09,0c.23-.21.19-.53.33-.78.26.07.23.41.12.72a1.3,1.3,0,0,1-.25.45l-.08.07a.74.74,0,0,1-.46.14" transform="translate(-0.02 -0.22)"/><path class="m" d="M4.41,12.48H4.23a.54.54,0,0,1,0-.11s0,0,0,0l0,0a.16.16,0,0,1-.14.05H4.08A.32.32,0,0,1,4,12.28l0,.1H4a2,2,0,0,1-.55-.26c-.16-.1-.25-.15-.26-.34a.87.87,0,0,1,.08-.48l-.19,0h0a.92.92,0,0,1,.53-.39l.16,0,0,.09h0c.08.05,0,.28-.05.34s-.08.15,0,.27.17.09.17.11-.08.09-.11.12-.07.14,0,.23a.88.88,0,0,0,.24.23h0c.1,0,.08-.18.22-.18h0c.08,0,.13,0,.14.12s0,.08-.07.12l0,0a.18.18,0,0,0,0,.16m.26.27c0-.09.06-.18,0-.23l.14,0a.16.16,0,0,1,.14.05.1.1,0,0,1,0,.17s-.14,0-.2,0m-.45.12a.93.93,0,0,1,0-.29.36.36,0,0,1,0,.26v0m.56.22A.2.2,0,0,1,4.65,13a.27.27,0,0,1,0-.2c0,.1.22.16.17.28a.1.1,0,0,1,0,0m.3.53a.43.43,0,0,1-.3-.27.5.5,0,0,0,.22.14H5a.56.56,0,0,0,0,.12" transform="translate(-0.02 -0.22)"/><path class="m" d="M8.58,8a.84.84,0,0,1-.26-.07,1.21,1.21,0,0,1-.59-.65,2.53,2.53,0,0,0,.37-.55s.05,0,.08,0h0c.07,0,.19-.31.24-.38s0,.67.11.67h0c.2,0,.12-.64.33-.64h0a.24.24,0,0,0-.07.25.41.41,0,0,0,.08.14c0,.1,0,.21,0,.31a1.81,1.81,0,0,1-.19,0c-.11,0-.25,0-.31.15s.07.47.19.69" transform="translate(-0.02 -0.22)"/><path class="m" d="M7.25,11.62l0,0A1.52,1.52,0,0,1,7,10.78a1.14,1.14,0,0,1,.26-1h0v0a.22.22,0,0,1,0,.11c0,.09,0,.2,0,.28a3.51,3.51,0,0,0,.13.66,1.16,1.16,0,0,0,0,.18c0,.07-.05.15-.08.23s-.07.21-.11.33" transform="translate(-0.02 -0.22)"/><path class="m" d="M8.45,5.35l-.22,0a.54.54,0,0,1,.29-.1A4,4,0,0,0,9,5.12.27.27,0,0,1,9,5.19a.55.55,0,0,1-.2.11,1.06,1.06,0,0,1-.31,0" transform="translate(-0.02 -0.22)"/><path class="j" d="M10.64,11.08v0h0v0m.11.4a.19.19,0,0,0,0-.08v0l0,.05M9.39,12.83l0-.05h0l0,.06m0,.21a.07.07,0,0,0,0,0c0-.05.05-.1.08-.14l0,.11a.25.25,0,0,0,0,.07h0" transform="translate(-0.02 -0.22)"/><path class="k" d="M10.51,11.9a1.67,1.67,0,0,0,.13-.82v0l.21,0v.08a1,1,0,0,0-.21.05.36.36,0,0,1,.12.27.19.19,0,0,1,0,.08,2.33,2.33,0,0,1-.24.42" transform="translate(-0.02 -0.22)"/><path class="j" d="M12.16,9.16l-.07,0,.07-.06a1.62,1.62,0,0,0,.3-.39,1.11,1.11,0,0,1-.3.48m-.47.23,0,0h0a.08.08,0,0,1,0,0" transform="translate(-0.02 -0.22)"/><path class="l" d="M12.69,7.12a1.41,1.41,0,0,0,.23-.35,1.67,1.67,0,0,0,.06-.5A1.71,1.71,0,0,0,13,6a.72.72,0,0,1,.14.51.7.7,0,0,1-.28.59.34.34,0,0,1-.12.06" transform="translate(-0.02 -0.22)"/><path class="j" d="M12.52,7.16a.31.31,0,0,0-.18-.09h0c.38,0,.57-.48.56-.78a.72.72,0,0,0-.14-.5.44.44,0,0,1,.15.12l0,0a1.71,1.71,0,0,1,0,.31,1.67,1.67,0,0,1-.06.5,1.41,1.41,0,0,1-.23.35l-.17,0" transform="translate(-0.02 -0.22)"/><polyline class="k" points="12.32 6.84 12.32 6.84 12.32 6.84 12.32 6.84"/><path class="l" d="M12.63,5.44a.28.28,0,0,0-.13,0,1.5,1.5,0,0,0,.09-.18,1.24,1.24,0,0,0,.21-.84h0a1.2,1.2,0,0,1-.17,1.06" transform="translate(-0.02 -0.22)"/><path class="j" d="M12.51,5.55h0a1.18,1.18,0,0,1-.2-.07h0a.79.79,0,0,0,.29-.25,1.5,1.5,0,0,1-.09.18.28.28,0,0,1,.13,0,.65.65,0,0,1-.12.11" transform="translate(-0.02 -0.22)"/><polyline class="k" points="12.28 5.25 12.28 5.25 12.28 5.25 12.28 5.25"/><path class="l" d="M12,3.28A1.75,1.75,0,0,1,12,3a.74.74,0,0,1,0,.14.3.3,0,0,1,0,.19" transform="translate(-0.02 -0.22)"/><path class="j" d="M11.73,3.53c0-.08,0-.12.09-.17a.37.37,0,0,0,.06-.21,1.48,1.48,0,0,0-.05-.41v0A1,1,0,0,1,12,3a1.75,1.75,0,0,0,0,.33.58.58,0,0,1-.08.18v0h0c-.06,0-.1.06-.15.1h0" transform="translate(-0.02 -0.22)"/><path class="k" d="M11.74,3.53s.09-.1.15-.1h0v0l0,.06h-.14" transform="translate(-0.02 -0.22)"/><path class="j" d="M9.84,3.39a.19.19,0,0,1-.13-.07c0-.11-.07-.21-.09-.31a.29.29,0,0,1,.13-.33c.09.11.25.19.28.35a.45.45,0,0,1-.14.35H9.84" transform="translate(-0.02 -0.22)"/><path class="l" d="M11.15,1.61a1.67,1.67,0,0,0-.47-.67.94.94,0,0,1,.47.67" transform="translate(-0.02 -0.22)"/><path class="j" d="M10.48,2.35l-.21,0-.19,0h0c.16-.65-.37-1.12-.89-1.39,0-.14.22-.18.46-.18a3.33,3.33,0,0,1,.81.11l.25.1a1.67,1.67,0,0,1,.47.67c0,.08,0,.17,0,.27a.94.94,0,0,1,0,.29l0,.13h-.06a.59.59,0,0,0,0-.14l0,0h0a.47.47,0,0,0-.1.1A1.17,1.17,0,0,1,11.05,2a.83.83,0,0,0,0-.35.89.89,0,0,0-.26-.35.5.5,0,0,0-.15-.13h0l0,0h0a.05.05,0,0,0-.05,0h.08c0,.14.07.28.13.4a.67.67,0,0,1,.07.6.29.29,0,0,1-.3.19" transform="translate(-0.02 -0.22)"/><path class="k" d="M11.1,2.15h0l0,0M11,2.3a.09.09,0,0,1,0,0,.47.47,0,0,1,.1-.1.59.59,0,0,1,0,.14H11m-1,0h0" transform="translate(-0.02 -0.22)"/><path class="m" d="M7.82,7.85h0m-.08,0v0h.07l-.08,0M7.68,9l-.07,0-.07-.07a.87.87,0,0,1-.09-.45.72.72,0,0,1,.08-.32.45.45,0,0,1,.21-.22c-.08.12.14.44.23.49a.2.2,0,0,0,.14.05.58.58,0,0,0,.18,0l.09,0h.13a.06.06,0,0,1,0,0c0,.15-.15.28-.3.28a.2.2,0,0,1-.14-.06s.08.23,0,.27l0,0a.76.76,0,0,1-.31-.16c0,.08,0,.24-.06.24" transform="translate(-0.02 -0.22)"/><path class="m" d="M9.33,12.92l0,0,0-.05a.16.16,0,0,1,.08-.06l0,.05a.47.47,0,0,1-.06.09" transform="translate(-0.02 -0.22)"/><path class="n" d="M5.28,13.65h0c0-.09.08-.19,0-.26h0a.27.27,0,0,0-.14,0A.31.31,0,0,1,5,13.5a.92.92,0,0,1,0-.16s0,0,0,0h.13a.52.52,0,0,1,.38.25h0l0,0a.45.45,0,0,1-.24.06" transform="translate(-0.02 -0.22)"/><path class="o" d="M5.52,13.59l0,0h.06l0,0" transform="translate(-0.02 -0.22)"/><path class="n" d="M7.21,13.67a.47.47,0,0,1-.17,0,1,1,0,0,1,.21-.31.41.41,0,0,1,.24-.08.68.68,0,0,1,.27.07.09.09,0,0,0,0,.07.16.16,0,0,0,0,.07.51.51,0,0,1-.24.14,1.27,1.27,0,0,1-.38.07" transform="translate(-0.02 -0.22)"/><path class="o" d="M7.83,13.46a.16.16,0,0,1,0-.07.09.09,0,0,1,0-.07l.11.08,0,.06" transform="translate(-0.02 -0.22)"/><path class="p" d="M12.59,5.22a1.86,1.86,0,0,0,.09-1.12,1.39,1.39,0,0,1,.12.28,1.24,1.24,0,0,1-.21.84" transform="translate(-0.02 -0.22)"/><path class="n" d="M10.3,2.46a1.07,1.07,0,0,0-.22-.15l.19,0,.21,0a.29.29,0,0,0,.3-.19.67.67,0,0,0-.07-.6c-.06-.12-.17-.26-.13-.4H10.5a.05.05,0,0,1,.05,0h0l0,0h0a.5.5,0,0,1,.15.13.89.89,0,0,1,.26.35.83.83,0,0,1,0,.35,1.17,1.17,0,0,0-.05.27.45.45,0,0,1-.17.13,2.08,2.08,0,0,1-.5.07h0m1.39,1.1s.29-.72.07-.72h0c-.09,0,0,.29-.05.37a.3.3,0,0,1-.3.2h0C11,3.4,11,3.07,11,2.84a1.46,1.46,0,0,1,.11-.55h.06c0,.06-.05.13,0,.18a.15.15,0,0,0,.13,0h.24a.24.24,0,0,1,.15,0,.52.52,0,0,1,.16.17v0a1.48,1.48,0,0,1,.05.41.37.37,0,0,1-.06.21c0,.05-.1.09-.09.17h0l-.05,0m-1.81.33a3.08,3.08,0,0,0-.17-.57.19.19,0,0,0,.13.07h.05A.45.45,0,0,0,10,3c0-.16-.19-.24-.28-.35A1,1,0,0,0,10,2.42a.67.67,0,0,0,.24,0h.06a.89.89,0,0,1,.3.44c.08.28-.07.5-.12.75l-.11,0v0l0,0a.49.49,0,0,0-.21.08l-.23.12m2.3.06h0C12,3.91,12,3.8,12,3.68a.9.9,0,0,1,.46.15.24.24,0,0,0-.11.06.25.25,0,0,1-.14.06m-3,1.11h0m2,.08c-.09-.27,0-.57-.09-.84-.15.2-.11.52-.32.69a.26.26,0,0,1-.15.07c-.06,0-.11,0-.14-.12a4.41,4.41,0,0,1-.2-.71,2.32,2.32,0,0,1,.06-.46,1.66,1.66,0,0,1,.33-.16,1,1,0,0,0-.17,0A.79.79,0,0,1,11,3.49a.69.69,0,0,1,.25,0,.77.77,0,0,1,.54.65l-.1-.07c0,.08,0,.13.07.2a1,1,0,0,1,.09.33c0,.15-.08.43-.23.49-.09-.29.1-.78-.29-.89a4,4,0,0,1,0,.49c0,.09,0,.41-.16.41M11.1,6a.72.72,0,0,1-.28,0,1.82,1.82,0,0,0-.46-.11.38.38,0,0,1,.09.12,1,1,0,0,1-.62-1,1.23,1.23,0,0,0,1,1H11a1.08,1.08,0,0,0,1.06-.59.92.92,0,0,0-.26-1.12c0-.12,0-.23.09-.23h0c.14,0,.26.18.32.3a1.53,1.53,0,0,1,0,1.17,2.85,2.85,0,0,0,.22-.7c0-.21.17-.59.06-.81a.7.7,0,0,1,.15.19,1.86,1.86,0,0,1-.09,1.12.79.79,0,0,1-.29.25v0h0c-.2,0-.22.18-.36.3a1.12,1.12,0,0,1-.56.2L11.1,6m1.25,1.12h0a.46.46,0,0,0,.21-.47h-.08c.17-.06.16-.27.12-.41-.14,0-.16.19-.22.3a.38.38,0,0,1-.34.25l-.19,0c-.16,0-.31,0-.3-.26s.28-.31.42-.43a.88.88,0,0,0,.34-.6,1.18,1.18,0,0,0,.2.07h0l0,0a1,1,0,0,0,.3.21.72.72,0,0,1,.14.5c0,.3-.18.78-.56.78m-3.7,1S8.61,8,8.58,8h.1a1.23,1.23,0,0,0,1-.54A1.46,1.46,0,0,0,9.69,6s0,.17,0,.23a1.43,1.43,0,0,1,0,.42c-.05.17-.14.47-.32.54-.05-.15,0-.31,0-.46s0-.34-.08-.42-.06.14-.07.21a2.5,2.5,0,0,1-.06.38c0,.13-.07.41-.22.44a2,2,0,0,1,0-.24A.13.13,0,0,0,9,7C9,7,9,6.87,8.89,6.78v0a1.09,1.09,0,0,0,0-.36,1.27,1.27,0,0,1,.31-.15,1,1,0,0,0,0-.29c-.05-.15-.16-.17-.3-.21l-.06,0a.7.7,0,0,0,.6-.37c.09.11.2.19.29.29s.19.25.33.33a.55.55,0,0,0,.32.09.51.51,0,0,0,.17,0,.66.66,0,0,1,0,.14c0,.17-.1.19-.26.2h0c-.32,0-.22-.47-.53-.53v0h0A2.18,2.18,0,0,1,9.92,7a1.48,1.48,0,0,1-.8.93,1.22,1.22,0,0,1-.47.17m1.29.09v0a.78.78,0,0,1,0-.21,1.57,1.57,0,0,0,0,.23m-1.15.38a.77.77,0,0,0,0-.15l.17,0-.15.17m2.86.62a.54.54,0,0,0,0-.18,1.09,1.09,0,0,0,.23-.25c.19-.3.37-.84,0-1a1.29,1.29,0,0,1-.13.64.55.55,0,0,1-.27.25,1.47,1.47,0,0,0-.22.1c0-.1.06-.22.09-.32a1.09,1.09,0,0,0,0-.25c-.16.08-.26.47-.48.47-.09-.19.17-.4.21-.58-.18,0-.32.25-.46.35a.25.25,0,0,1-.11.05s-.06-.07-.08-.18a.67.67,0,0,1,.09-.53,2.51,2.51,0,0,1,.32-.46H11a.36.36,0,0,0-.22-.07.63.63,0,0,0-.31.1.56.56,0,0,1,.38-.18.5.5,0,0,1,.25.07.59.59,0,0,1,.29.31s0,.26.07.29h0c.1,0,.4-.56.11-.71a1.36,1.36,0,0,0,.46.12.52.52,0,0,0,.26-.06l.06,0a.31.31,0,0,1,.18.09l-.26.06c.16.19.27.24.28.53a4.11,4.11,0,0,1,0,.7,1.85,1.85,0,0,1,0,.23,1.62,1.62,0,0,1-.3.39l-.07.06-.12,0a1.13,1.13,0,0,0-.32.06m0,.26h0a.84.84,0,0,0,.08-.2.56.56,0,0,1,0,.12h0l0,0v0h-.08m-2.77.87a.73.73,0,0,1-.48-.16,1,1,0,0,1-.21-.2,1,1,0,0,0,.13-.27,1.09,1.09,0,0,0,0-.36h0a.3.3,0,0,0,.29-.19A6.61,6.61,0,0,0,9,8.36l.07,0c.07.16-.06.32-.06.49s.2.7.45.73c0-.2-.09-.4-.09-.59a.87.87,0,0,1,.18-.42,4.76,4.76,0,0,0,.09.66,1.44,1.44,0,0,0,.69.69h0l-.24,0a1.29,1.29,0,0,0-.79.29l-.15.13-.3,0m2.23.06a.68.68,0,0,1-.44-.2s-.14-.15-.22-.22h.06a.52.52,0,0,0,.24.05,1,1,0,0,0,.84-.53.52.52,0,0,1,.11.25,1.93,1.93,0,0,1-.18.47l0,0a.55.55,0,0,1-.33.14h-.06m-3.27,1a.81.81,0,0,1,0-.41c0-.08.09-.24.05-.32a2,2,0,0,0-.17.23.72.72,0,0,1-.12.23l-.07,0s0,0-.06-.06a.6.6,0,0,0,0-.44c0-.1-.16-.35,0-.41h.07l.1,0h0a1.12,1.12,0,0,0,.39.21,2.06,2.06,0,0,0,.59.11A.72.72,0,0,0,9,10.48a.62.62,0,0,0-.1.24v0a1,1,0,0,1-.66.54c.08-.15.3-.41.22-.58h0c-.11,0-.21.24-.26.31a1,1,0,0,1-.33.33m.92.3h-.1a1.24,1.24,0,0,0,.25-.71c0,.11.05.22.06.32a.41.41,0,0,1,0,.33.14.14,0,0,0,0-.09l-.17.17m1.06.07a1.35,1.35,0,0,1-.29-.05,1,1,0,0,0-.3,0h0a1,1,0,0,1-.08-.32,1.39,1.39,0,0,1,.38-1.1,1.3,1.3,0,0,1,.81-.27h0a1.31,1.31,0,0,1,.35,1.1h0v0a.72.72,0,0,1-.12.25.9.9,0,0,1-.71.4h0m-1.85.18a.84.84,0,0,1-.68-.29h0a.52.52,0,0,0,.11.1,1.15,1.15,0,0,0,.64.17l.19,0,0,0a.86.86,0,0,1-.23,0m1,1.12c0-.2.24-.44.12-.64-.14.13-.24.62-.49.62h0c-.07-.2.08-.44.1-.64-.06.08-.1.21-.19.26s.14-.55.3-.59h0l.13,0,0,0a.92.92,0,0,1,.36.15.5.5,0,0,0,.14.08.63.63,0,0,1-.1.28,1.92,1.92,0,0,1-.37.47m-2.73.51-.05,0c.05-.08.08-.15,0-.23s-.08-.08-.11-.08-.16.11-.21.18-.31-.08-.32-.26c.11,0,.2-.05.19-.21s-.13-.38,0-.42h0c.07,0,.17,0,.24,0a.82.82,0,0,0,.34-.09,2.17,2.17,0,0,0,.61-.3l.08-.08a1.53,1.53,0,0,0,.27.11,1.13,1.13,0,0,0,.12.18c.13.15.26.12.27.34a2.56,2.56,0,0,0-.64.22c-.12.08-.32.28-.51.28a.2.2,0,0,1-.14-.06c0,.13-.11.32-.23.4m0,.27a.34.34,0,0,1-.18-.09,1.57,1.57,0,0,1,.33-.08.36.36,0,0,1,0,.1l-.17.07" transform="translate(-0.02 -0.22)"/><path class="o" d="M10.37,3.77V3.68l.11,0v0s0,0,0,0a1,1,0,0,1,.17,0,1.66,1.66,0,0,0-.33.16m-.48.3a1.09,1.09,0,0,0,0-.18l.23-.12a.69.69,0,0,0-.22.3m.44,2A.55.55,0,0,1,10,6c-.14-.08-.21-.22-.33-.33s-.2-.18-.29-.29a.7.7,0,0,1-.6.37c-.09-.06-.17-.17-.11-.27a.14.14,0,0,1,.12-.06l.13,0,.13,0,.08,0c.13-.08.06-.22.06-.34h0a1.1,1.1,0,0,0,.55-.48.41.41,0,0,0,.05-.09,1.67,1.67,0,0,0,0,.4v0a1,1,0,0,0,.62,1A1.17,1.17,0,0,1,10.5,6a.51.51,0,0,1-.17,0" transform="translate(-0.02 -0.22)"/><path class="o" d="M9.72,5.83h0v0m1,4.16a.52.52,0,0,1-.24-.05h0l-.14,0,0,0h0a1.44,1.44,0,0,1-.69-.69,4.76,4.76,0,0,1-.09-.66.87.87,0,0,0-.18.42c0,.19.09.39.09.59C9.2,9.5,9,9,9,8.8s.13-.33.06-.49L9,8.36s0,0,0-.07l-.07.09-.17,0a1.6,1.6,0,0,0-.11-.29v0a1.22,1.22,0,0,0,.47-.17A1.48,1.48,0,0,0,9.92,7a2.18,2.18,0,0,0-.2-1.15c.31.06.21.53.53.53h0c.16,0,.26,0,.26-.2a.66.66,0,0,0,0-.14,1.17,1.17,0,0,0-.05-.11.38.38,0,0,0-.09-.12,1.82,1.82,0,0,1,.46.11.72.72,0,0,0,.28,0l.26,0a1.12,1.12,0,0,0,.56-.2c.14-.12.16-.3.36-.3h0v0h0a.88.88,0,0,1-.34.6c-.14.12-.42.22-.42.43s.14.26.3.26l.19,0a.38.38,0,0,0,.34-.25c.06-.11.08-.25.22-.3,0,.14.05.35-.12.41h.08a.46.46,0,0,1-.21.47h0l-.06,0a.52.52,0,0,1-.26.06,1.36,1.36,0,0,1-.46-.12c.29.15,0,.71-.11.71h0s0-.25-.07-.29a.59.59,0,0,0-.29-.31.5.5,0,0,0-.25-.07.56.56,0,0,0-.38.18,1.45,1.45,0,0,0-.36.39,1.17,1.17,0,0,0-.11.28.78.78,0,0,0,0,.21v0a1.07,1.07,0,0,0,.33.89.94.94,0,0,0,.61.22A1.23,1.23,0,0,0,11.65,9a.54.54,0,0,1,0,.18l0,0,0,0a.84.84,0,0,1-.08.2l-.05,0,0,.05a1,1,0,0,1-.84.53" transform="translate(-0.02 -0.22)"/><path class="o" d="M10.5,9.94h-.09l-.05,0,.14,0m-2.34,2,0,0a.62.62,0,0,0,.28-.09.5.5,0,0,0,.15-.14h.1a1.33,1.33,0,0,1-.56.23m.58.15h0m-2.33,1.7a.36.36,0,0,0,0-.1,1.57,1.57,0,0,0-.33.08l0,0h0c.11,0,.18-.1.12-.14.12-.08.28-.27.23-.4a.2.2,0,0,0,.14.06c.19,0,.39-.2.51-.28a2.56,2.56,0,0,1,.64-.22c0-.22-.14-.19-.27-.34a1.13,1.13,0,0,1-.12-.18.77.77,0,0,0,.25,0h.06a2.73,2.73,0,0,0,.75-.17c.16-.07.48-.26.51-.47a.41.41,0,0,0,0-.33c0-.1,0-.21-.06-.32V10.7a.14.14,0,0,1,0,.06v0a.62.62,0,0,1,.1-.24.49.49,0,0,0,.22-.21h0l.15-.13a1.29,1.29,0,0,1,.79-.29l.24,0,0,.06a1.3,1.3,0,0,0-.81.27,1.39,1.39,0,0,0-.38,1.1,1,1,0,0,0,.08.32h-.1a.64.64,0,0,0,.29.48.92.92,0,0,1,0,.16.5.5,0,0,1-.14-.08.92.92,0,0,0-.36-.15A.41.41,0,0,0,8.71,12a.88.88,0,0,0-.56.31A.92.92,0,0,0,8,12.6s0-.06,0-.09a.9.9,0,0,1-.72.5l-.2,0a2,2,0,0,0-.33.53,1.14,1.14,0,0,1-.33.23" transform="translate(-0.02 -0.22)"/><path class="o" d="M10.65,11a1.31,1.31,0,0,0-.35-1.1h0l0-.06h0l0,0,.05,0c.08.07.18.19.22.22a.68.68,0,0,0,.44.2h.06a.55.55,0,0,0,.33-.14c-.09.15-.19.28-.29.42s-.2.13-.39.19a.37.37,0,0,1,.08.18l-.21,0m-.57,1.13c-.33,0-.47-.23-.77-.36a2,2,0,0,1,.07.31.64.64,0,0,1-.29-.48h.1a1,1,0,0,1,.3,0,1.35,1.35,0,0,0,.29.05h0a.9.9,0,0,0,.71-.4.72.72,0,0,0,.12-.25,1.67,1.67,0,0,1-.13.82l0,.07,0,0a.53.53,0,0,1-.31.15h0" transform="translate(-0.02 -0.22)"/><path class="o" d="M10.24,2.46a.67.67,0,0,1-.24,0,.37.37,0,0,0,.05-.11h0a1.07,1.07,0,0,1,.22.15h-.06m2,3a1.53,1.53,0,0,0,0-1.17C12.21,4.13,12.09,4,12,4h0c-.13,0-.11.11-.09.23h0a.77.77,0,0,0-.54-.65.69.69,0,0,0-.25,0,.79.79,0,0,0-.49.15s0,0,0,0v0c0-.25.2-.47.12-.75a.89.89,0,0,0-.3-.44h0a2.08,2.08,0,0,0,.5-.07A.45.45,0,0,0,11,2.25a.09.09,0,0,0,0,0h.07a1.46,1.46,0,0,0-.11.55c0,.23.07.56.36.58h0a.3.3,0,0,0,.3-.2c0-.08,0-.34.05-.37h0c.22,0-.07.69-.07.72l.05,0h.14a.69.69,0,0,0-.05.17H12c0,.12.06.23.17.27h0a.25.25,0,0,0,.14-.06.24.24,0,0,1,.11-.06l.1.08c.11.22,0,.6-.06.81a2.85,2.85,0,0,1-.22.7" transform="translate(-0.02 -0.22)"/><path class="o" d="M8.34,9.31h0v0a.39.39,0,0,1,0-.24c.08-.12.28-.09.38-.21a.33.33,0,0,0,.08-.27l.15-.17L9,8.29s0,.05,0,.07a6.61,6.61,0,0,1-.36.76.3.3,0,0,1-.29.19m.29,1.24A2.06,2.06,0,0,1,8,10.44a1.12,1.12,0,0,1-.39-.21h.08l.09,0a.74.74,0,0,0,.33-.28,1,1,0,0,0,.21.2.73.73,0,0,0,.48.16l.3,0h0a.49.49,0,0,1-.22.21.72.72,0,0,1-.33.07" transform="translate(-0.02 -0.22)"/><path class="o" d="M5.78,12.51h0M6,13.69H6s.08-.1.11-.16l.05,0c.06,0,0,.11-.12.14H6" transform="translate(-0.02 -0.22)"/><path class="o" d="M7.57,12.22a.77.77,0,0,1-.25,0,1.53,1.53,0,0,1-.27-.11,1.54,1.54,0,0,0,.2-.45.84.84,0,0,0,.68.29.86.86,0,0,0,.23,0,1.33,1.33,0,0,0,.56-.23l.17-.17a.14.14,0,0,1,0,.09c0,.21-.35.4-.51.47a2.73,2.73,0,0,1-.75.17H7.57" transform="translate(-0.02 -0.22)"/><path class="q" d="M5.27,13.65a.58.58,0,0,1-.19,0,.56.56,0,0,1,0-.12.31.31,0,0,0,.13-.06.27.27,0,0,1,.14,0h0c0,.07,0,.17,0,.26" transform="translate(-0.02 -0.22)"/><path class="q" d="M8.89,6.78a.41.41,0,0,1-.08-.14.24.24,0,0,1,.07-.25,1.09,1.09,0,0,1,0,.36v0M8.68,8h-.1c-.12-.22-.3-.51-.19-.69s.2-.12.31-.15a1.81,1.81,0,0,0,.19,0,2,2,0,0,0,0,.24c.15,0,.2-.31.22-.44a2.5,2.5,0,0,0,.06-.38c0-.07,0-.18.07-.21s.08.33.08.42-.1.31,0,.46c.18-.07.27-.37.32-.54a1.43,1.43,0,0,0,0-.42c0-.06,0-.19,0-.23a1.46,1.46,0,0,1,0,1.43,1.23,1.23,0,0,1-1,.54" transform="translate(-0.02 -0.22)"/><path class="q" d="M8,11.89a1.15,1.15,0,0,1-.64-.17.52.52,0,0,1-.11-.1c0-.12.07-.23.11-.33s.06-.16.08-.23,0,.06.06.06l.07,0a.72.72,0,0,0,.12-.23,2,2,0,0,1,.17-.23c0,.08,0,.24-.05.32a.81.81,0,0,0,0,.41A1,1,0,0,0,8.13,11c0-.07.15-.31.26-.31h0c.08.17-.14.43-.22.58a1,1,0,0,0,.66-.54.14.14,0,0,0,0-.06v.23a1.24,1.24,0,0,1-.25.71.5.5,0,0,1-.15.14.62.62,0,0,1-.28.09l-.19,0" transform="translate(-0.02 -0.22)"/><path class="q" d="M10.88,9.28a.94.94,0,0,1-.61-.22,1.07,1.07,0,0,1-.33-.89,1.57,1.57,0,0,1,0-.23,1.17,1.17,0,0,1,.11-.28,1.45,1.45,0,0,1,.36-.39.63.63,0,0,1,.31-.1.36.36,0,0,1,.22.07h-.13a2.51,2.51,0,0,0-.32.46.67.67,0,0,0-.09.53c0,.11,0,.18.08.18a.25.25,0,0,0,.11-.05c.14-.1.28-.32.46-.35,0,.18-.3.39-.21.58.22,0,.32-.39.48-.47a1.09,1.09,0,0,1,0,.25c0,.1-.11.22-.09.32a1.47,1.47,0,0,1,.22-.1.55.55,0,0,0,.27-.25,1.29,1.29,0,0,0,.13-.64c.4.2.22.74,0,1a1.09,1.09,0,0,1-.23.25,1.23,1.23,0,0,1-.77.29" transform="translate(-0.02 -0.22)"/><path class="q" d="M9.31,12.89v0l0,0,0,.05m-.85.34a.58.58,0,0,1-.36-.16c-.17-.14-.14-.29-.12-.47a.92.92,0,0,1,.17-.29A.88.88,0,0,1,8.71,12a.41.41,0,0,1,.18.05l0,0-.13,0h0c-.16,0-.44.51-.3.59s.13-.18.19-.26c0,.2-.17.44-.1.64h0c.25,0,.35-.49.49-.62.12.2-.13.44-.12.64l-.15.1a.66.66,0,0,1-.31.1" transform="translate(-0.02 -0.22)"/><path class="q" d="M11,5.89H10.8a1.23,1.23,0,0,1-1-1v0a1.67,1.67,0,0,1,0-.4.82.82,0,0,0,.09-.42.69.69,0,0,1,.22-.3.49.49,0,0,1,.21-.08l0,0v.12a2.32,2.32,0,0,0-.06.46,4.41,4.41,0,0,0,.2.71c0,.08.08.12.14.12A.26.26,0,0,0,10.8,5c.21-.17.17-.49.32-.69.09.27,0,.57.09.84.11,0,.15-.32.16-.41a4,4,0,0,0,0-.49c.39.11.2.6.29.89.15-.06.24-.34.23-.49a1,1,0,0,0-.09-.33c0-.07-.07-.12-.07-.2l.1.07h0a.92.92,0,0,1,.26,1.12A1.08,1.08,0,0,1,11,5.89" transform="translate(-0.02 -0.22)"/><path class="m" d="M5.26,3.83a.47.47,0,0,1,0-.16.41.41,0,0,1,0,.16" transform="translate(-0.02 -0.22)"/><path class="j" d="M5.23,3.64a.36.36,0,0,0,0-.09v0a.08.08,0,0,1,0,0s0-.06,0-.09a.61.61,0,0,1,.1-.18A1.4,1.4,0,0,1,6,3a.93.93,0,0,1,.23,0,1.08,1.08,0,0,1,.52.13l.11.06a1.34,1.34,0,0,0-.49-.1h-.1a1.36,1.36,0,0,0-.92.33.07.07,0,0,1,0-.05.52.52,0,0,1,.17-.16v0a.24.24,0,0,0-.16.19.6.6,0,0,0-.11.26" transform="translate(-0.02 -0.22)"/><path class="k" d="M5.23,3.48a.2.2,0,0,1,0-.11.44.44,0,0,1,.16-.17A1.68,1.68,0,0,1,6.23,3H6.3a1.06,1.06,0,0,1,.85.42,1.92,1.92,0,0,0-.31-.18l-.11-.06A1.08,1.08,0,0,0,6.21,3,.93.93,0,0,0,6,3a1.4,1.4,0,0,0-.65.28.61.61,0,0,0-.1.18m0,.07a.24.24,0,0,0-.06-.09.46.46,0,0,1,.07.07v0" transform="translate(-0.02 -0.22)"/><path class="m" d="M5.34,3.38a.24.24,0,0,1,.16-.19v0a.52.52,0,0,0-.17.16m-.1.29v0a.6.6,0,0,1,.11-.26.07.07,0,0,0,0,.05.46.46,0,0,0-.09.24" transform="translate(-0.02 -0.22)"/><path class="j" d="M7.36,3.52h0v0s0,0,0,0" transform="translate(-0.02 -0.22)"/><path class="k" d="M7.34,3.51l0,0,.06-.11a.57.57,0,0,0,0,.13v0" transform="translate(-0.02 -0.22)"/><path class="j" d="M8.68,3a.79.79,0,0,1-.2,0h0a.33.33,0,0,0-.15,0h.14L8.71,3h0" transform="translate(-0.02 -0.22)"/><path class="k" d="M8.73,2.81l0-.05c0-.1.1-.13.19-.16s-.1.14-.17.21M7.67,3a1.06,1.06,0,0,1,.21-.11.72.72,0,0,1,.28,0,1.45,1.45,0,0,1,.29,0H8.26A3.25,3.25,0,0,0,7.81,3L7.67,3" transform="translate(-0.02 -0.22)"/><path class="m" d="M8.46,2.94l-.15,0h0a.33.33,0,0,1,.15,0" transform="translate(-0.02 -0.22)"/><path class="r" d="M4,2.86l-.11,0v0l.11,0M8.71,3l-.26-.08a.32.32,0,0,1,.14,0l.13,0h0M4.48,3l-.24-.1h0s0,0,0,0l0,0,.17.1m.76.54a.08.08,0,0,0,0,0l0,0s0,.06,0,.09" transform="translate(-0.02 -0.22)"/><path class="s" d="M5.2,3.53a.46.46,0,0,0-.07-.07A1.72,1.72,0,0,0,4.48,3l-.17-.1,0,0a1.48,1.48,0,0,0,0-.21s0,0,0-.06h.13c.24,0,.24.14.42.23a.93.93,0,0,1,0-.44c.06.11.11.2.21.2l.11,0a1,1,0,0,0,.27-.36c.21,0,.51,0,.51.26a3.72,3.72,0,0,1,.48-.11c0,.09,0,.19.06.28h0c.21,0,.43-.24.62-.29a.46.46,0,0,1,0,.2c.13,0,.4-.25.58-.25a.16.16,0,0,1,.11,0c.08.11,0,.27,0,.39h0c.36,0,.63-.28,1-.28a.21.21,0,0,1,0,.13c-.09,0-.2.06-.19.16l0,.05a.18.18,0,0,0-.07.08c.05,0,.06.06.09.09h0l-.13,0a.32.32,0,0,0-.14,0,1.45,1.45,0,0,0-.29,0,.72.72,0,0,0-.28,0A1.06,1.06,0,0,0,7.67,3a.66.66,0,0,0-.31.33l-.06.11-.15-.1A1.06,1.06,0,0,0,6.3,3H6.23a1.68,1.68,0,0,0-.84.25.44.44,0,0,0-.16.17.2.2,0,0,0,0,.11l0,0" transform="translate(-0.02 -0.22)"/><path class="s" d="M4.24,2.93,4,2.86l-.11,0c.06-.11.26-.16.41-.18,0,0,0,0,0,.06a1.48,1.48,0,0,1,0,.21s0,0,0,0h0" transform="translate(-0.02 -0.22)"/><path class="s" d="M5.47,2.22a.46.46,0,0,1-.15,0l0,0H5.5l0,.06" transform="translate(-0.02 -0.22)"/><path class="s" d="M5.43,2.16H5.37l.14-.06s0,0,0,.06H5.43" transform="translate(-0.02 -0.22)"/><path class="t" d="M2.62,11.25c-.46.81.69.82.8,1.43a.9.9,0,0,0,.59.8,1.48,1.48,0,0,1,.7.37,1.68,1.68,0,0,0,.74.55c.38.13.63-.06,1-.12a.78.78,0,0,1,.43.09,1,1,0,0,0,.41.09c.35,0,.49-.35.77-.5s.62-.13.89-.37a3,3,0,0,0,.51-.77,1.67,1.67,0,0,0,1.11-.4,4.48,4.48,0,0,0,.32-.44c.12-.14.25-.14.41-.22a1.65,1.65,0,0,0,.67-1c0-.19-.09-.34-.08-.52s.21-.32.3-.48.16-.42,0-.55-.39,0-.56,0c.19.24,0,.76-.13,1s-.21.3-.31.45-.2.13-.39.19c.25.3-.14.9-.32,1.15a1,1,0,0,1-.48.42.72.72,0,0,1-.31,0h-.2c.08.36-.29.66-.59.79a.85.85,0,0,1-.66.08C8,13.23,8.05,13.15,8,13c0,.31,0,.53-.37.63s-.67.16-.75-.22c-.23.37-1.1.77-1.23.1-.12.34-1.05.15-.8-.38-.21,0-.39.1-.53-.12a.59.59,0,0,1,0-.65c-.13.23-.69-.1-.84-.2s-.25-.15-.26-.34a.87.87,0,0,1,.08-.48,1.59,1.59,0,0,1-.55-.2.09.09,0,0,0-.06.06l0,.08" transform="translate(-0.02 -0.22)"/><path class="l" d="M7.45,14.41a1.08,1.08,0,0,0,.3-.21l0,0a.51.51,0,0,1-.35.18m-.39,0-.12,0a.35.35,0,0,1-.12-.07l0,0,.19.06m-1.29.09a.33.33,0,0,1-.25-.09h0l.19,0a2.43,2.43,0,0,0,.62-.15.42.42,0,0,1-.15.12,1,1,0,0,1-.41.1" transform="translate(-0.02 -0.22)"/><path class="n" d="M5.51,13.13a.78.78,0,0,1,0-.14,1,1,0,0,1,0-.25l.07-.09c.18.15,0,.28,0,.45v0h0m-.73.21a.35.35,0,0,1,0-.24l.13,0a.38.38,0,0,0,.19,0l.1-.05.06.12c-.11,0-.22,0-.25.15H5l-.13,0,0,0" transform="translate(-0.02 -0.22)"/><path class="o" d="M5.29,13.15,5.23,13a1.28,1.28,0,0,0,.23-.29,1,1,0,0,0,0,.25.78.78,0,0,0,0,.14H5.29" transform="translate(-0.02 -0.22)"/><path class="u" d="M5.8,13.54a.24.24,0,0,1-.15-.06.7.7,0,0,1-.14-.35h0c0,.18.14.19.32.26s.13-.18.21-.18.07,0,.11.08,0,.15,0,.23H6.06l-.13,0-.13,0m-.25,0a.52.52,0,0,0-.38-.25H5c0-.11.14-.14.25-.15a1,1,0,0,0,.2.3l.09.09h0m.47.28a.37.37,0,0,1-.33-.16.81.81,0,0,0,.27.05h.1a.34.34,0,0,0,.18.09.83.83,0,0,1-.22,0" transform="translate(-0.02 -0.22)"/><path class="v" d="M5.56,13.56h0m.4.17a.81.81,0,0,1-.27-.05.31.31,0,0,1-.05-.1A.55.55,0,0,0,6,13.7H6l0,0H6" transform="translate(-0.02 -0.22)"/><path class="v" d="M6,13.7a.55.55,0,0,1-.33-.12l0-.1,0,.06-.09-.09a1,1,0,0,1-.2-.3h.22a.7.7,0,0,0,.14.35.24.24,0,0,0,.15.06l.13,0,.13,0h.08c0,.06-.08.11-.11.16H6" transform="translate(-0.02 -0.22)"/><path class="l" d="M8.69,13.32,9,13.19l-.1.05-.19.08" transform="translate(-0.02 -0.22)"/><path class="j" d="M9.44,12.75s0-.06,0-.08a.2.2,0,0,0,0-.07h0a.83.83,0,0,1,0,.15m-.76.57L9,13.19H9l-.29.13h0" transform="translate(-0.02 -0.22)"/><path class="m" d="M9.43,12.67V12.6h0a.2.2,0,0,1,0,.07" transform="translate(-0.02 -0.22)"/><path class="n" d="M9.7,12.44h0l.25,0a.91.91,0,0,1-.23,0m-.26.16a.48.48,0,0,0,0-.17.3.3,0,0,1,0,.1v-.12a.84.84,0,0,0,.18,0H9.47a.76.76,0,0,1,0,.15h0" transform="translate(-0.02 -0.22)"/><path class="q" d="M9.43,12.6v-.07a.3.3,0,0,0,0-.1.48.48,0,0,1,0,.17h0" transform="translate(-0.02 -0.22)"/><path class="n" d="M9.34,12.74l0-.12h0a.75.75,0,0,1-.06.13m.07,0a.52.52,0,0,0,0-.11s0,.05,0,.08v0h0m-.73.54L9,13.19H9l-.31.13h0" transform="translate(-0.02 -0.22)"/><path class="q" d="M9.33,12.84v-.1a.75.75,0,0,0,.06-.13h0v.07a.52.52,0,0,1,0,.11.16.16,0,0,0-.08.06m0,.11v-.06l0,0,0,0" transform="translate(-0.02 -0.22)"/><path class="u" d="M7,13.64a.28.28,0,0,1-.18-.2.79.79,0,0,1,.35-.3.94.94,0,0,1,.31-.09l.08,0c.1,0,.12.15.16.25a.68.68,0,0,0-.27-.07.41.41,0,0,0-.24.08,1,1,0,0,0-.21.31" transform="translate(-0.02 -0.22)"/><path class="v" d="M6.74,13.51A2,2,0,0,1,7.07,13l.2,0a.9.9,0,0,0,.72-.5s0,.06,0,.09a1,1,0,0,0-.07.64v0a.5.5,0,0,1,0,.13l-.11-.08c0-.1-.06-.21-.16-.25l-.08,0a.94.94,0,0,0-.31.09.79.79,0,0,0-.35.3.14.14,0,0,1,0-.06,1.13,1.13,0,0,1-.1.13" transform="translate(-0.02 -0.22)"/><path class="u" d="M8.92,13.05v0a1.92,1.92,0,0,0,.37-.47.63.63,0,0,0,.1-.28.81.81,0,0,0,.37.09,1.17,1.17,0,0,0,.35-.06h0l-.16.09-.05,0-.25,0H9.6a.84.84,0,0,1-.18,0v.12a.24.24,0,0,1,0,.08h0l0,.12a.52.52,0,0,1-.42.31m-.26.27L9,13.18H9l-.31.13h0" transform="translate(-0.02 -0.22)"/><path class="v" d="M9.76,12.37a.81.81,0,0,1-.37-.09.92.92,0,0,0,0-.16.83.83,0,0,0,.44.12,1.14,1.14,0,0,0,.57-.16,1,1,0,0,1-.25.22h0a1.17,1.17,0,0,1-.35.06" transform="translate(-0.02 -0.22)"/><path class="v" d="M9.82,12.24a.83.83,0,0,1-.44-.12,2,2,0,0,0-.07-.31c.3.13.44.36.77.36h0a.53.53,0,0,0,.31-.15.21.21,0,0,0,0,.06,1.14,1.14,0,0,1-.57.16" transform="translate(-0.02 -0.22)"/><path class="w" d="M9.4,12.61a.24.24,0,0,0,0-.08v.07h0m-1,.74a.83.83,0,0,1-.22,0C8,13.23,8.05,13.15,8,13a1.21,1.21,0,0,1,0,.3v0A1,1,0,0,1,8,12.6c0,.18-.05.33.12.47a.58.58,0,0,0,.36.16.66.66,0,0,0,.31-.1l.15-.1v0a.52.52,0,0,0,.42-.31v.1l0,0V13a1.14,1.14,0,0,1-.3.23l-.34.14a.83.83,0,0,1-.22,0" transform="translate(-0.02 -0.22)"/><path class="l" d="M9.22,13.3h0a2.55,2.55,0,0,0,.14-.24h0c0,.12,0,.26-.14.26m-4.87.31-.12,0,.12,0" transform="translate(-0.02 -0.22)"/><path class="j" d="M9.32,13.05h0" transform="translate(-0.02 -0.22)"/><path class="n" d="M4.43,12.55a.25.25,0,0,1,0-.07h.14l.07,0-.19,0m.23.22v0h0v0m4.66.28,0-.06a.07.07,0,0,1,0,0h0m-4.66.07s.07,0,.12,0h0l-.15,0" transform="translate(-0.02 -0.22)"/><path class="q" d="M4.54,13.13A.27.27,0,0,1,4.28,13a.39.39,0,0,1-.06-.11v0a.36.36,0,0,0,0-.26l0-.11h.18a.25.25,0,0,0,0,.07l.19,0c.11.05.08.14,0,.23h0v0a.27.27,0,0,0,0,.2.2.2,0,0,0,.13.12s-.11,0-.12,0H4.54" transform="translate(-0.02 -0.22)"/><path class="l" d="M10.06,12.71l.07,0-.07,0" transform="translate(-0.02 -0.22)"/><path class="q" d="M4.08,12.41l-.07,0H4l0-.1a.32.32,0,0,0,.07.13" transform="translate(-0.02 -0.22)"/><path class="x" d="M4.2,12.58A.57.57,0,0,0,4,12.39l.07,0a.34.34,0,0,0,.15.06l0,.11m5.23.19v0a.83.83,0,0,0,0-.15.76.76,0,0,0,0-.15H9.7a.91.91,0,0,0,.23,0l.05,0,.16-.09a1,1,0,0,0,.25-.22.21.21,0,0,1,0-.06,2.7,2.7,0,0,0,.35-.51c.23.37-.15.91-.47,1.1l-.18.08-.07,0a.75.75,0,0,1-.26,0H9.58a.39.39,0,0,0-.15,0m-5,.84h0l-.12,0c-.1-.06-.19-.17-.31-.26a.65.65,0,0,0,.3-.43.39.39,0,0,0,.06.11.27.27,0,0,0,.26.15h.12l.15,0h0a.35.35,0,0,0,0,.24c-.08.06-.12.16-.21.21a.38.38,0,0,1-.18.06M8,13.88a.6.6,0,0,0-.16-.48h0a.5.5,0,0,0,0-.13A1.21,1.21,0,0,0,8,13c.09.18,0,.26.26.35a.82.82,0,0,0,.44,0h0l.19-.08.1-.05H9A1.14,1.14,0,0,0,9.3,13l0,0a.14.14,0,0,1,0,.07l0,.06h0a2.55,2.55,0,0,1-.14.24l-.08,0a.37.37,0,0,1-.34.2h0c-.07,0-.13,0-.19,0l-.09,0c-.06,0-.11.17-.16.22s0-.36-.21-.39c.05.21.16.41-.05.6m-2.32.57-.19,0a.83.83,0,0,0,0-.87h0l0-.06,0,.1a.31.31,0,0,0,.05.1.37.37,0,0,0,.33.16.83.83,0,0,0,.22,0h.07a.43.43,0,0,0,.38-.2.47.47,0,0,1,0-.1,1.13,1.13,0,0,0,.1-.13.14.14,0,0,0,0,.06.28.28,0,0,0,.18.2A.41.41,0,0,0,7,14c.09.15.25.16.42.16h.05a.8.8,0,0,1,.27,0,1.08,1.08,0,0,1-.3.21l-.27,0H7.06l-.19-.06,0,0c-.16-.1-.29-.26-.44-.35-.14.09,0,.15,0,.25l0,.06a2.43,2.43,0,0,1-.62.15" transform="translate(-0.02 -0.22)"/></g></svg>