<svg xmlns="http://www.w3.org/2000/svg" xmlns:xlink="http://www.w3.org/1999/xlink" width="256px" height="256px" viewBox="0 0 19.85 22.52"><defs><style>.a{fill:none;}.b{fill:#b3408f;}.c{fill:#a93878;}.d{fill:#80d194;}.e{fill:#f8e2f2;}.f{fill:#f7fbfb;}.g{fill:#a2dda9;}.h{fill:#67b77d;}.i{fill:#933624;}.j{fill:#fdfefe;}.k{fill:#e7018f;}.l{clip-path:url(#a);}.m{fill:#58b835;}.n{fill:#e62138;}.o{fill:#4fa036;}.p{fill:#dd2529;}.q{fill:#f4d1b1;}</style><clipPath id="a" transform="translate(-0.48)"><rect class="a" y="13.64" width="8.26" height="8.66"/></clipPath></defs><path class="b" d="M19.61,17.58a4.82,4.82,0,0,1-1,3.14,6.31,6.31,0,0,1-3,1.12,18.62,18.62,0,0,1-3.66.25c-1.2,0-2.42-.11-3.62-.24a6.68,6.68,0,0,1-3.23-.93c-1.08-.79-1.3-2.22-1.44-3.5a16.82,16.82,0,0,1,.09-4.37A19.46,19.46,0,0,1,4.16,11c.11-.37.22-.73.36-1.09a11.18,11.18,0,0,0,.71-1.43L5.53,8c.18.36.39,1,.79,1S7,8.77,7.39,8.45s.67-.67,1.08-.67.76.41.9.8c.36,1,1.12,1.71,2.08,1.19.45-.24.53-.73.71-1.21.08-.22.34-.77.55-.82s.66.87.78,1.08a1.36,1.36,0,0,0,1.21.82c.45,0,.57-.41.8-.83s.2-1,.47-1.15c.51-.36,1.88,1,2.29,1.22l.21.12a6.5,6.5,0,0,1,.5,1.29A18.08,18.08,0,0,1,19.52,14a24.46,24.46,0,0,1,.09,3.63" transform="translate(-0.48)"/><path class="c" d="M19.61,17.58a4.82,4.82,0,0,1-1,3.14,6.41,6.41,0,0,1-3,1.12,18.62,18.62,0,0,1-3.66.25c-1.21,0-2.41-.11-3.62-.24a6.61,6.61,0,0,1-3.22-.93,4.45,4.45,0,0,1-1.43-3.26A3.6,3.6,0,0,0,4.93,20a6.55,6.55,0,0,0,3.22.94c1.21.13,2.42.22,3.63.24a18.74,18.74,0,0,0,3.66-.26,6.24,6.24,0,0,0,3-1.12c.8-.72,1.27-3.4,1.18-2.19" transform="translate(-0.48)"/><path class="c" d="M18.47,9.82S16.8,8.35,16.29,8.43c-.31.05-.49,1-.65,1.28s-.49.76-.94.75a1.37,1.37,0,0,1-1.21-.81c-.12-.21-.37-1.08-.73-1s-.64,1.49-1.4,1.76A1.53,1.53,0,0,1,9.24,9.37C9.09,9,9,8.61,8.47,8.61s-.79.4-1.08.66-.65.64-1.17.57A1.86,1.86,0,0,1,5.09,9l.27-.95c.17.36.42.81.81.87s.72-.27,1.07-.59.67-.67,1.09-.67.75.41.9.81c.36,1,1.12,1.7,2.08,1.18.44-.23.53-.73.71-1.21.07-.22.33-.77.55-.82s.83.72.94.93c.28.48.48,1,1.05,1s.56-.41.79-.82.21-1,.47-1.16c.52-.36,1.91.93,2.3,1.23.81.62.35,1.05.35,1.05" transform="translate(-0.48)"/><path class="d" d="M17.7,4.94c.62-2.64.54-3.79-1.77-4.09S5.84.06,5.65,2.16a5.12,5.12,0,0,0,.24,2.78s-2.8,2.82-2.6,3.44c.34,1,1.33.46,2-.26,0,0,.49,1.8,2.25.18s2,.88,2.51,1.2c.69.44,1.34.46,2.13-1.17s1.2.38,1.42.69a1,1,0,0,0,1.84-.33c.49-1.31,1-1.36,2.34-.13s2.34.21,2.13-.64-2.25-3-2.25-3" transform="translate(-0.48)"/><path class="e" d="M11.76,18.21c-2,.13-5.6-.24-5.68-3a4.27,4.27,0,0,1,1.63-3.27,5.08,5.08,0,0,1,3.51-.86c2.12.14,5.08.74,5.53,3.36.51,3-2.89,3.64-5,3.78" transform="translate(-0.48)"/><path class="f" d="M11.76,18.16c-1.94.13-5.53-.24-5.6-3A4.18,4.18,0,0,1,7.77,12a5,5,0,0,1,3.45-.85c2.1.14,5,.73,5.46,3.32.5,2.91-2.85,3.59-4.92,3.72" transform="translate(-0.48)"/><path class="g" d="M16.92,1.26c0,.36-2.36.66-5.29.66s-5.28-.3-5.28-.66S8.71.59,11.63.59s5.29.3,5.29.67" transform="translate(-0.48)"/><path class="h" d="M17.83,5.46c-4,.87-9.42,1.08-10.9.41S6.16,5,6.16,5a12.2,12.2,0,0,0,6,.78c3.2-.46,5.51-.88,5.51-.88l.13.52" transform="translate(-0.48)"/><path class="g" d="M7.69,1.41c-1.95.51-1.31,2.85-.88,3.76,0,0-3.91,3.51-2.5,3.49,0,0-1.13.54-1-.28s2.45-3.1,2.45-3.1a11.43,11.43,0,0,1-.26-2.62C5.54,1.45,7.11,1,7.53.89s.16.52.16.52" transform="translate(-0.48)"/><path class="h" d="M16.76,1.24c1.07,1,.22,3.87.22,3.87s2.49,2.48,2.45,3.14c-.06.93-.77.63-.77.63s1,.35,1.31-.28S18.83,6.09,17.74,5c0,0,.72-2.06.3-3a1.22,1.22,0,0,0-1.28-.79" transform="translate(-0.48)"/><path class="i" d="M8.78,13.11c-.24.25.39,2.83-.39,2.67-.18,0,.1-.66,0-.81-.32-.5-.64.14-.67.46,0,.49.18,1,.72,1s.9-.66,1-1.21c0-.26,0-2.79-.63-2.12" transform="translate(-0.48)"/><path class="i" d="M8.47,12.24a.32.32,0,0,0,.63,0,.32.32,0,1,0-.63,0" transform="translate(-0.48)"/><path class="i" d="M10.91,13.15c-.67.17-.84,1-.89,1.61,0,.33-.13,1.56.32,1.69.6.17.32-1,.31-1.21v-.09h0A7.07,7.07,0,0,0,11.78,15a4.61,4.61,0,0,0-.11,1.08c.1.31.39.29.56.09a3.34,3.34,0,0,0,0-2.25,1.15,1.15,0,0,0-1.34-.81m-.24,1.32c.05-.33.17-.64.45-.69s.51.24.6.59A2.23,2.23,0,0,0,10.67,14.47Z" transform="translate(-0.48)"/><path class="i" d="M14,13.8c-.15-.3-.44-.62-.8-.42-.55.3-.71,2.2-.31,2.67s.56-.11.51-.47a3.6,3.6,0,0,1,.05-1.46c.13.26.16.74.52.71s.39-.56.64-.73c.35.6,0,1.26.11,1.87,0,.18.08.34.3.34s.35-.41.37-.67a3.39,3.39,0,0,0-.18-1.76c-.3-.58-.83-.53-1.21-.08" transform="translate(-0.48)"/><path class="i" d="M16.4,10.75a.32.32,0,1,0-.63,0,.32.32,0,0,0,.63,0" transform="translate(-0.48)"/><path class="i" d="M17.82,9.91a.32.32,0,0,0-.63,0,.32.32,0,1,0,.63,0" transform="translate(-0.48)"/><path class="i" d="M9.35,10.56a4.8,4.8,0,0,0-3.82,4.7c.09,2.41,2.62,3.38,4.56,3.56s4.43-.06,6-1.29a3.56,3.56,0,0,0,.29-5.09c-1.64-1.86-4.79-2.31-7.07-1.88m2.41,7.6c-1.94.13-5.53-.24-5.6-3A4.18,4.18,0,0,1,7.77,12a5,5,0,0,1,3.45-.85c2.1.14,5,.73,5.46,3.32C17.18,17.35,13.83,18,11.76,18.16Z" transform="translate(-0.48)"/><path class="i" d="M19,9.43a1,1,0,0,0,1.21-.95c.08-1-1.15-2.35-2-3.29a.31.31,0,0,0-.25-.43L18,4.63a5,5,0,0,0,.25-1.29,3.1,3.1,0,0,0,0-1.25C17.89.47,15.62.38,14.35.28a26.12,26.12,0,0,0-5.23.1C7.72.54,5.41.51,5.27,2.47a5.44,5.44,0,0,0,.1,1.27c0,.15.08.51.17.83h0c-.39.1-.24.44,0,.6l0,0C4.92,5.84,4.25,6.33,3.71,7s-1.09,1.46-.44,2.1a1,1,0,0,0,1.27,0,12,12,0,0,0-.84,2.33,17.05,17.05,0,0,0-.49,4.88c.06,1.48.19,3.36,1.21,4.49s2.63,1.35,4,1.51a31.4,31.4,0,0,0,5.13.18,10.68,10.68,0,0,0,4.64-1.09c1.24-.72,1.56-2.22,1.7-3.6A25.27,25.27,0,0,0,19.66,12,10.41,10.41,0,0,0,19,9.43m-13.11-7a1.1,1.1,0,0,1,.64-.86,7.12,7.12,0,0,1,2.51-.47A27.27,27.27,0,0,1,14.48.94h-.09a7.22,7.22,0,0,1,2.53.51c.79.37.87,1,.72,1.87a10.31,10.31,0,0,0-.26,1.47l-.33.08c-.28.07-.56.16-.79.2-.55.1-1.09.2-1.64.27s-.92.1-1.39.13a6,6,0,0,0,1.93-1.3c.5-.56.75-2.13-.4-2A4,4,0,0,0,12.5,3.87a7.2,7.2,0,0,0-.65,1A5.69,5.69,0,0,0,11.48,4c-.37-.75-1-2-2-1.87s-.93,1.35-.42,2a5.81,5.81,0,0,0,1.71,1.36,23.59,23.59,0,0,1-2.69-.24l-.5-.09c-.25,0-.51-.11-.76-.18S6.4,4.8,6.15,4.7A10.12,10.12,0,0,0,5.9,3,2.74,2.74,0,0,1,5.91,2.38ZM12.47,5a7.14,7.14,0,0,1,.43-.64c.23-.29,1.23-1.61,2-1.56.42.12-.17.86-.28,1A6.29,6.29,0,0,1,12.47,5ZM11.2,4.94A4.73,4.73,0,0,1,9.43,3.57c-.17-.28-.25-.8.24-.76C10.42,3,10.93,4.28,11.2,4.94ZM3.83,8.65C2.9,8.39,5.41,6.17,5.69,5.87a2.56,2.56,0,0,0,.36-.41,9.42,9.42,0,0,0,1,.26,16.51,16.51,0,0,0,3.12.37l1,0a4.56,4.56,0,0,1-1,1.18c-.16.15-.42.29-.32.56s.33.21.52.12a3.84,3.84,0,0,0,1.28-1.48c0-.09.11-.2.17-.33a3.11,3.11,0,0,0,.61.76c.26.23,1.22,1,1.55.68s-.45-.51-1.09-1.13c-.07-.08-.16-.22-.27-.37a27.9,27.9,0,0,0,4.14-.46c.17,0,.61,0,.95-.12a9.26,9.26,0,0,1,1.36,1.6c.23.35.85,1.17.44,1.59s-.73.14-1.13-.11l-.18-.13-.55-.42c-.47-.37-1.17-1-1.81-.7s-.35,1.46-1,1.79-1-.77-1.32-1.2S12.39,7.06,12,7.81c-.28.58-.22,1.31-.88,1.61S10,9.13,9.77,8.53,9.24,7.36,8.53,7.4a1.79,1.79,0,0,0-1,.43c-.31.23-.67.78-1.06.88C6,8.85,6,8,5.73,7.71,5.17,7.23,4.45,8.83,3.83,8.65Zm15.49,8.83a4.6,4.6,0,0,1-1,3,6,6,0,0,1-2.88,1.08,17.38,17.38,0,0,1-3.53.25c-1.16,0-2.33-.11-3.49-.23a6.42,6.42,0,0,1-3.11-.9c-1-.76-1.26-2.14-1.4-3.37A17,17,0,0,1,4,13.11a18.18,18.18,0,0,1,.43-2c.1-.35.22-.7.35-1.05A11.75,11.75,0,0,0,5.46,8.7V8.63a1.19,1.19,0,0,0,.8.75c.51.06.92-.39,1.27-.7S8.18,8,8.59,8s.52.47.66.86A1.59,1.59,0,0,0,11.46,10a2.09,2.09,0,0,0,.9-1.12c.08-.21.1-.8.31-.85s.64.85.75,1a1.32,1.32,0,0,0,1.17.79,1.12,1.12,0,0,0,1-.6c.16-.29.16-1.08.41-1.25.5-.34,1.6.87,2,1.12l.2.11a7.22,7.22,0,0,1,.49,1.25A17.29,17.29,0,0,1,19.23,14,22.74,22.74,0,0,1,19.32,17.48Z" transform="translate(-0.48)"/><rect class="a" x="2.15" width="17.7" height="22.52"/><path class="j" d="M11.49,11.2a8.72,8.72,0,0,0-1,.06,7.71,7.71,0,0,0-1,.18,5.94,5.94,0,0,0-.9.3,4.47,4.47,0,0,0-.79.39,4.21,4.21,0,0,0-.65.48,3.64,3.64,0,0,0-.49.56,2.15,2.15,0,0,0-.29.59,1.91,1.91,0,0,0-.1.62,1.87,1.87,0,0,0,.1.62,2.08,2.08,0,0,0,.29.6,3.17,3.17,0,0,0,.49.55,3.69,3.69,0,0,0,.65.49,6.46,6.46,0,0,0,.79.39,5.94,5.94,0,0,0,.9.3,7.71,7.71,0,0,0,1,.18,8.7,8.7,0,0,0,2,0,8.05,8.05,0,0,0,1-.18,6.78,6.78,0,0,0,.9-.3,7.26,7.26,0,0,0,.79-.39,4.09,4.09,0,0,0,.65-.49,2.75,2.75,0,0,0,.48-.55,2.41,2.41,0,0,0,.3-.6,1.87,1.87,0,0,0,.1-.62,1.91,1.91,0,0,0-.1-.62,2.53,2.53,0,0,0-.3-.59,3.11,3.11,0,0,0-.48-.56,4.76,4.76,0,0,0-.65-.48,4.84,4.84,0,0,0-.79-.39,6.78,6.78,0,0,0-.9-.3,8.05,8.05,0,0,0-1-.18A8.72,8.72,0,0,0,11.49,11.2Z" transform="translate(-0.48)"/><path class="k" d="M8.14,15.25s-.05,0,0-.05a3.51,3.51,0,0,1,1.37-1.88.73.73,0,0,1,.21-.06c.1,0,.14,0,.14.14v0a2,2,0,0,1-.53,1,2.55,2.55,0,0,1-1.14.81Zm-.5,1.45a.08.08,0,0,0,.08-.05.58.58,0,0,0,.08-.22L8,15.6s0,0,0-.08a.12.12,0,0,1,.05-.07,2,2,0,0,1,.32.11l.17.07.18.07a.88.88,0,0,0,.33.05,1.24,1.24,0,0,0,.71-.24l.58-.44a.26.26,0,0,0,.09-.09.15.15,0,0,0,0-.07s0-.06,0-.06h0l0,0-.29.23-.3.24a1.16,1.16,0,0,1-.68.25.78.78,0,0,1-.22,0,2.11,2.11,0,0,1-.47-.19,0,0,0,0,1,0,0l0,0,.05,0,0,0a3.2,3.2,0,0,0,1.38-1.37A1.75,1.75,0,0,0,10,13.6a.7.7,0,0,0,0-.29.22.22,0,0,0-.21-.19c-.6,0-1.17.76-1.44,1.28a.17.17,0,0,1,0-.14l0-.12c.12-.45.24-.9.35-1.35a.2.2,0,0,0,0-.15.08.08,0,0,0-.05-.05h0s0,0-.05,0a.49.49,0,0,0,0,.11l0,.11c-.13.53-.26,1-.41,1.56-.07.24-.13.49-.19.74a6.18,6.18,0,0,1-.23.73,1.86,1.86,0,0,0-.13.62.22.22,0,0,0,0,.14A.09.09,0,0,0,7.64,16.7Z" transform="translate(-0.48)"/><path class="k" d="M10.38,15.19h0a0,0,0,0,1,0,0c.06-.17.25-.45.43-.47,0,0,.05,0,.05,0S10.52,15.11,10.38,15.19Zm0,.67c.38,0,1-.56,1.22-.84l0-.06a.07.07,0,0,0,0-.08.05.05,0,0,0,0,0l0,0,0,0-.06.05-.19.18-.2.19a1.42,1.42,0,0,1-.64.37c-.1,0-.16,0-.18-.13a.26.26,0,0,1,0-.19.07.07,0,0,1,0-.05.88.88,0,0,0,.66-.62c0-.13-.05-.21-.16-.21h-.05c-.29,0-.51.43-.6.69a1,1,0,0,0,0,.25.63.63,0,0,0,0,.19A.27.27,0,0,0,10.43,15.86Z" transform="translate(-0.48)"/><path class="k" d="M11.77,15.87h0a1.5,1.5,0,0,0,.71-.27,7.25,7.25,0,0,0,.76-.58l0,0,0,0a.06.06,0,0,0,0-.08.05.05,0,0,0-.05,0h0l-.05,0,0,0-.28.22-.29.23a2,2,0,0,1-.73.34h-.07c-.21,0-.31-.12-.24-.36a1.18,1.18,0,0,1,.39-.65.22.22,0,0,1,.15-.08c.06,0,.1,0,.11.11a.29.29,0,0,1,0,.2.08.08,0,0,1,0,.05.07.07,0,0,0,0,.06,0,0,0,0,0,0,0h0l0,0a.44.44,0,0,0,.11-.39.24.24,0,0,0-.24-.18.3.3,0,0,0-.21.09,1.5,1.5,0,0,0-.47.78s0,.05,0,.08A.36.36,0,0,0,11.77,15.87Z" transform="translate(-0.48)"/><path class="k" d="M13.27,15.19h0s0,0,0,0c.06-.17.24-.45.43-.47,0,0,0,0,.05,0S13.41,15.11,13.27,15.19Zm.05.67c.38,0,1-.56,1.23-.84,0,0,0,0,0-.06s0-.05,0-.08l0,0,0,0-.05,0,0,.05-.2.18-.2.19a1.44,1.44,0,0,1-.63.37c-.11,0-.17,0-.19-.13a.32.32,0,0,1,0-.19.08.08,0,0,1,0-.05.92.92,0,0,0,.66-.62c0-.13-.06-.21-.17-.21h0c-.3,0-.51.43-.61.69a.69.69,0,0,0,0,.25.42.42,0,0,0,0,.19A.26.26,0,0,0,13.32,15.86Z" transform="translate(-0.48)"/><path class="k" d="M15,14.11A.11.11,0,0,1,15,14a4.68,4.68,0,0,1,.38-.78s0,0,.05,0h0v0h0l-.14.3-.32.62h0Zm-.45,2.28c.11,0,.29-.19.35-.28l.36-.49.35-.47.09-.14a.14.14,0,0,0,0-.07s0,0,0-.06h0s-.09.09-.1.12c-.25.33-.53.73-.79,1.06,0,0-.13.17-.18.17s0,0,0,0a.62.62,0,0,1,0-.33,3.06,3.06,0,0,1,.3-1.24A6.9,6.9,0,0,0,15.6,13s0-.09,0-.11h0l-.08,0a5.15,5.15,0,0,0-.86,1.72.81.81,0,0,1-.15.34s0,.06,0,.09a.17.17,0,0,1,0,.18,4.28,4.28,0,0,0-.09.75v.08a.41.41,0,0,0,0,.11C14.34,16.25,14.4,16.39,14.5,16.39Z" transform="translate(-0.48)"/><g class="l"><path class="m" d="M4.32,15.33A1.48,1.48,0,0,0,4,13.88l.71-.24a3,3,0,0,1-.15,1.7H4.32" transform="translate(-0.48)"/><path class="n" d="M4.21,15.24s-2.57-.21-3.39,1,0,2.91.92,4.08a4.3,4.3,0,0,0,2.7,1.84c.91.1,1.81-.61,2.74-2.17s1.4-2.92.76-3.82-2.14-1-3.73-1" transform="translate(-0.48)"/><path class="o" d="M4,15.05a3.08,3.08,0,0,0-1.88-.45l-.32,0a3.56,3.56,0,0,0,2.2.47" transform="translate(-0.48)"/><path class="o" d="M4.61,15.22a1.64,1.64,0,0,0-1.16-.8l-.22-.08s.59.91,1.38.88" transform="translate(-0.48)"/><path class="o" d="M5.12,15A3.28,3.28,0,0,1,7,14.84l.6.18a5.69,5.69,0,0,1-2.45,0" transform="translate(-0.48)"/><path class="o" d="M4.45,15.14a2.07,2.07,0,0,1,1.34-.62l.54,0a3.57,3.57,0,0,1-1.88.6" transform="translate(-0.48)"/><path class="m" d="M3.08,15.62a1.46,1.46,0,0,0-.85.79c-.21.57,0,.66,0,.66a9.54,9.54,0,0,1,1.38-.87,4.14,4.14,0,0,0,.74-.37,9.8,9.8,0,0,1,1,.52c.43.27,1.07.54,1.14.72s.24-.3,0-.72a2.82,2.82,0,0,0-.68-.73,4.42,4.42,0,0,1,1.63.58,1,1,0,0,0,.72.32s-.26-1-.93-1.29A3,3,0,0,0,5.12,15a2.38,2.38,0,0,1-1.12,0,3.78,3.78,0,0,0-1.63-.13,2.66,2.66,0,0,0-1.49.64,5.44,5.44,0,0,1,2.2.06" transform="translate(-0.48)"/><path class="p" d="M7.18,20a6.58,6.58,0,0,0,1-2.67c-.05,0,0,.13-.11.27A14.38,14.38,0,0,1,7,19.51a2.9,2.9,0,0,1-2.36,1,3.51,3.51,0,0,1-2.81-1A6.62,6.62,0,0,1,.49,17.62a5.13,5.13,0,0,0,1.25,2.73,4.3,4.3,0,0,0,2.7,1.84c.91.1,1.81-.61,2.74-2.17" transform="translate(-0.48)"/><path class="p" d="M5.69,18.44c0,.15-.06.27-.15.27s-.15-.12-.15-.27.07-.26.15-.26.15.12.15.26" transform="translate(-0.48)"/><path class="q" d="M5.63,18.38c0,.09,0,.17-.09.17s-.09-.08-.09-.17,0-.17.09-.17.09.07.09.17" transform="translate(-0.48)"/><path class="p" d="M6.64,18c0,.15,0,.28-.07.29s-.18-.09-.22-.23,0-.27.08-.29.18.09.21.23" transform="translate(-0.48)"/><path class="q" d="M6.57,17.91c0,.09,0,.17-.05.18s-.1-.06-.13-.15,0-.17.05-.18.1.06.13.15" transform="translate(-0.48)"/><path class="p" d="M4.34,18.13c0,.14-.09.26-.17.25S4,18.25,4,18.11s.09-.27.18-.26.14.13.12.28" transform="translate(-0.48)"/><path class="q" d="M4.28,18.05c0,.09,0,.17-.08.17s-.09-.07-.1-.17,0-.17.08-.17.09.07.1.17" transform="translate(-0.48)"/><path class="p" d="M3.26,18c0,.15-.15.25-.23.23S2.92,18.1,3,18s.14-.25.22-.23.11.15.07.29" transform="translate(-0.48)"/><path class="q" d="M3.21,17.93c0,.1-.06.17-.11.16S3,18,3,17.92s.07-.17.12-.16.07.08.06.17" transform="translate(-0.48)"/><path class="p" d="M2.28,17.7c0,.14-.15.24-.23.22s-.11-.14-.07-.29.15-.24.23-.22.11.14.07.29" transform="translate(-0.48)"/><path class="q" d="M2.23,17.61c0,.09-.07.16-.11.16s-.08-.09-.07-.18.07-.17.11-.16.08.09.07.18" transform="translate(-0.48)"/><path class="p" d="M1.54,16.85c-.07.13-.18.22-.26.2s-.09-.16,0-.3.17-.23.25-.2.09.16,0,.3" transform="translate(-0.48)"/><path class="q" d="M1.5,16.75c0,.09-.09.16-.13.15s-.07-.09,0-.18.09-.16.13-.15.07.09,0,.18" transform="translate(-0.48)"/><path class="p" d="M1,17.91c0,.15-.11.26-.19.25S.66,18,.69,17.88s.11-.26.19-.25.13.14.11.28" transform="translate(-0.48)"/><path class="q" d="M.93,17.83c0,.09,0,.17-.09.17s-.09-.08-.09-.17,0-.17.09-.17.09.07.09.17" transform="translate(-0.48)"/><path class="p" d="M1.66,18.49c0,.15-.11.26-.19.25s-.13-.14-.11-.29.11-.25.19-.24.14.13.11.28" transform="translate(-0.48)"/><path class="q" d="M1.6,18.41c0,.09,0,.17-.09.17s-.09-.08-.09-.17,0-.18.09-.18.09.08.09.18" transform="translate(-0.48)"/><path class="p" d="M2.65,19.09c0,.14-.11.25-.19.24s-.13-.13-.11-.28.11-.26.19-.25.14.14.11.29" transform="translate(-0.48)"/><path class="q" d="M2.59,19c0,.1,0,.17-.09.17s-.09-.07-.09-.17,0-.17.09-.17.09.08.09.17" transform="translate(-0.48)"/><path class="p" d="M3.93,17c0,.15-.11.26-.19.25s-.13-.14-.11-.29.11-.25.2-.24.13.13.1.28" transform="translate(-0.48)"/><path class="q" d="M3.87,16.89c0,.09,0,.17-.09.17S3.7,17,3.7,16.89s0-.17.09-.17.08.07.08.17" transform="translate(-0.48)"/><path class="p" d="M5.39,17.12c0,.14-.08.26-.16.26s-.15-.12-.15-.27.08-.27.16-.26.15.12.15.27" transform="translate(-0.48)"/><path class="q" d="M5.31,17c0,.09,0,.17-.06.18s-.1-.07-.11-.16,0-.18.06-.18.1.06.11.16" transform="translate(-0.48)"/><path class="p" d="M7.15,16.71c0,.14,0,.27-.08.29s-.18-.09-.22-.24,0-.27.09-.29.18.09.21.24" transform="translate(-0.48)"/><path class="q" d="M7.06,16.65c0,.09,0,.17,0,.18s-.11,0-.15-.13,0-.17,0-.19.11,0,.15.14" transform="translate(-0.48)"/><path class="p" d="M7.71,18.1c0,.14-.09.26-.18.25s-.13-.13-.12-.27.1-.27.18-.26.14.13.12.28" transform="translate(-0.48)"/><path class="q" d="M7.65,18c0,.09,0,.17-.08.17s-.1-.07-.1-.17,0-.17.08-.17.09.07.1.17" transform="translate(-0.48)"/><path class="p" d="M7.23,19c0,.15-.1.26-.18.25s-.14-.13-.12-.27.09-.27.17-.26.14.13.13.28" transform="translate(-0.48)"/><path class="q" d="M7.16,18.91c0,.09,0,.17-.08.17S7,19,7,18.91s0-.17.08-.17.1.07.1.17" transform="translate(-0.48)"/><path class="p" d="M4.91,19.13c0,.15-.1.26-.18.26s-.14-.13-.12-.28.09-.26.17-.26.14.13.13.28" transform="translate(-0.48)"/><path class="q" d="M4.84,19.05c0,.1,0,.17-.08.18s-.09-.08-.09-.17,0-.17.07-.18.1.08.1.17" transform="translate(-0.48)"/><path class="p" d="M3.75,19.43c0,.15-.1.26-.18.26s-.14-.13-.12-.28.09-.26.17-.26.14.13.13.28" transform="translate(-0.48)"/><path class="q" d="M3.68,19.35c0,.1,0,.17-.08.18s-.09-.08-.09-.17,0-.17.07-.18.1.08.1.17" transform="translate(-0.48)"/><path class="p" d="M3,20.14c0,.15,0,.27-.1.28s-.17-.09-.2-.24,0-.27.1-.28.17.09.2.24" transform="translate(-0.48)"/><path class="q" d="M2.94,20.08c0,.09,0,.17,0,.18s-.11-.05-.14-.14,0-.17,0-.19.11.06.14.15" transform="translate(-0.48)"/><path class="p" d="M2,19.57c0,.14,0,.27-.1.28s-.17-.1-.2-.24,0-.28.1-.29.17.1.2.25" transform="translate(-0.48)"/><path class="q" d="M1.91,19.5c0,.09,0,.17,0,.19s-.11-.05-.14-.14,0-.18,0-.19.11.05.14.14" transform="translate(-0.48)"/><path class="p" d="M4.55,20.3c0,.15,0,.28-.1.29s-.17-.1-.2-.24,0-.28.1-.29.17.1.2.24" transform="translate(-0.48)"/><path class="q" d="M4.46,20.24c0,.09,0,.17,0,.18s-.11-.05-.14-.14,0-.17,0-.18.11,0,.14.14" transform="translate(-0.48)"/><path class="p" d="M6.21,19.9c0,.15-.08.27-.16.26s-.15-.12-.14-.27.08-.26.16-.26.15.12.14.27" transform="translate(-0.48)"/><path class="q" d="M6.14,19.82c0,.1,0,.18-.07.18S6,19.93,6,19.84s0-.18.07-.18.09.07.1.16" transform="translate(-0.48)"/><path class="p" d="M5.54,21.13c0,.14-.08.26-.16.26s-.15-.13-.14-.27.08-.27.16-.27.15.13.14.28" transform="translate(-0.48)"/><path class="q" d="M5.47,21.05c0,.09,0,.17-.07.18s-.09-.07-.1-.17,0-.17.07-.17.09.07.1.16" transform="translate(-0.48)"/><path class="p" d="M4,21.22c0,.15,0,.28-.13.28s-.16-.11-.18-.25.05-.27.13-.28.16.11.18.25" transform="translate(-0.48)"/><path class="q" d="M3.92,21.15c0,.1,0,.18,0,.19s-.1-.06-.13-.15,0-.18,0-.19.1.06.13.15" transform="translate(-0.48)"/><path class="o" d="M5.23,16.14c-.17-.2-.49-.58-.87-.48l-1.3.84h0a2.87,2.87,0,0,1,.55-.3,4.14,4.14,0,0,0,.74-.37,9.8,9.8,0,0,1,1,.52l.57.32h0a5,5,0,0,1-.64-.53" transform="translate(-0.48)"/><path class="o" d="M5.76,15.62l.5.48a2.72,2.72,0,0,0-.5-.48" transform="translate(-0.48)"/><path class="o" d="M8.11,16.52h0a1.43,1.43,0,0,1-.62-.32,1.79,1.79,0,0,0-.83-.49,2.25,2.25,0,0,0-.9-.09,4.42,4.42,0,0,1,1.63.58,1,1,0,0,0,.72.32" transform="translate(-0.48)"/><path class="o" d="M3.08,15.62a2.76,2.76,0,0,0-2.2-.06,5.44,5.44,0,0,1,2.2.06" transform="translate(-0.48)"/></g></svg>