<svg xmlns="http://www.w3.org/2000/svg" xmlns:xlink="http://www.w3.org/1999/xlink" width="256px" height="256px" viewBox="0 0 23.92 17.97"><defs><style>.a{fill:none;}.b{clip-path:url(#a);}.c{fill:#f6f79e;}.d{fill:#eaf5ba;}.e{fill:#e4f078;}.f{fill:#d6ea5f;}.g{fill:#f4d056;}.h{fill:#e8f289;}.i{fill:#f8e283;}.j{fill:#fefadd;}.k{fill:#a9a5c9;}.l{fill:#cfe759;}.m{fill:#f3bf4e;}.n{fill:#f7d77b;}.o{fill:#e5f081;}.p{fill:#7473aa;}.q{fill:#c5e452;}.r{fill:#f3ab49;}.s{fill:#f7ca73;}.t{fill:#e0ee77;}.u{fill:#a99bac;}.v{fill:#faee77;}.w{fill:#fcd15e;}.x{fill:#faec6e;}.y{fill:#fcf9be;}.z{fill:#fafbcb;}.aa{fill:#fbf6b5;}.ab{fill:#f1f7b5;}.ac{fill:#e8f295;}.ad{fill:#f8e98b;}.ae{fill:#fbf0bc;}</style><clipPath id="a" transform="translate(-0.01 0)"><rect class="a" width="25.22" height="20.26"/></clipPath></defs><g class="b"><path class="c" d="M16.71,2.13a8.32,8.32,0,0,1,.1,1.11A7.28,7.28,0,0,1,12,10a5.76,5.76,0,0,1-4.22.14A6.3,6.3,0,0,1,5.18,7.61L0,10.08C2.85,16.2,8,17.3,8,17.3L13.36,17l8.45-5.32.82-6.75L21.18,0,16.71,2.13" transform="translate(-0.01 0)"/><polyline class="d" points="19.06 1.01 21.18 0 19.06 1.01"/><path class="e" d="M5.58,12.77a.1.1,0,0,0-.08.1,1.06,1.06,0,0,0,1.07.94.91.91,0,0,0,.48-.13.1.1,0,0,0,0-.17c-.46-.31-1.11-.17-1.44-.71a.05.05,0,0,0,0,0m2.57.72c-.06,0-.11.06-.08.11s0,.16.08.23a.92.92,0,0,0,.22.22.67.67,0,0,0,.33.1.43.43,0,0,0,.22-.06A.12.12,0,0,0,9,14a.64.64,0,0,0-.35-.37.77.77,0,0,0-.35-.12H8.15m1.64,2.72a2.79,2.79,0,0,1-2.2-1.09,1.6,1.6,0,0,0-.49-.51.94.94,0,0,0-.37-.07l-.31,0H6.31a2.92,2.92,0,0,1-2-.87A6.2,6.2,0,0,0,3.11,12.5c-.48-.28-1.09-.28-1.51-.64s-.47-1.57-.91-2.1L0,10.08l2.08-1a12.41,12.41,0,0,0,.82.95,10.09,10.09,0,0,0,1.72,1.55,2.24,2.24,0,0,0,1.28.29h.71c1.67.14,2.81,2.19,4.48,2.19h0a3.45,3.45,0,0,0,2.3-1.25,9.84,9.84,0,0,1,2-1.85c1-.6,2.43-.74,2.93-1.83s-.16-2.28.3-3.3A6.3,6.3,0,0,1,19.15,5a3.71,3.71,0,0,0-.09-4l2.12-1L20.07.53a5.71,5.71,0,0,1,.8,1.82A10.09,10.09,0,0,1,21,5.86a5.68,5.68,0,0,1-.83,2.73c-.26.36-.58.67-.82,1.05-.54.87-.55,2.09-1.3,2.78-.57.52-1.41.58-2.06,1-1,.64-1.6,2.13-2.8,2.2h-.09a3.27,3.27,0,0,1-.44,0,3.27,3.27,0,0,0-.44,0h-.06a6.08,6.08,0,0,0-1.62.55,2.59,2.59,0,0,1-.78.12" transform="translate(-0.01 0)"/><path class="f" d="M20.85,8.52a.12.12,0,0,0-.09.05c-.25.33-.44.72-.66,1.07a4.22,4.22,0,0,1-.8,1.06.05.05,0,0,0,0,.09h0c.23-.13.47-.19.69-.34a2.53,2.53,0,0,0,.49-.49A1.92,1.92,0,0,0,21,8.62a.11.11,0,0,0-.12-.1m-11,8.4a9.23,9.23,0,0,1-4-.92h0l-.06,0a11,11,0,0,1-2.13-1.39A14.37,14.37,0,0,1,0,10.08H0l.68-.32c.44.53.36,1.61.91,2.1s1,.36,1.51.64a6.2,6.2,0,0,1,1.15,1.19,2.92,2.92,0,0,0,2.05.87h.11l.31,0a.94.94,0,0,1,.37.07,1.6,1.6,0,0,1,.49.51,2.79,2.79,0,0,0,2.2,1.09,2.59,2.59,0,0,0,.78-.12,6.08,6.08,0,0,1,1.62-.55h.06a3.27,3.27,0,0,1,.44,0,3.27,3.27,0,0,0,.44,0h.09c1.2-.07,1.78-1.56,2.8-2.2.65-.41,1.49-.47,2.06-1,.75-.69.76-1.91,1.3-2.78.24-.38.56-.69.82-1.05A5.67,5.67,0,0,0,21,5.87a10.14,10.14,0,0,0-.16-3.52,5.71,5.71,0,0,0-.8-1.82L21.18,0l.11.37a14.94,14.94,0,0,1,.33,1.52c0,.14.05.28.07.43,0,.3.07.62.1,1h0a.49.49,0,0,1,0,.12h0c0,.24,0,.48,0,.73h0c0,.18,0,.36,0,.54h0a14.16,14.16,0,0,1-.07,1.44h0c0,.14,0,.29-.05.43h0a12.55,12.55,0,0,1-.38,1.84h0c0,.16-.09.32-.15.49h0c-.07.23-.16.46-.25.69h0a8.79,8.79,0,0,1-.43.94h0c-.1.19-.21.39-.33.59h0c-.13.22-.28.45-.44.67h0l-.27.37h0c-.18.23-.37.45-.58.68h0l-.37.38h0a11.67,11.67,0,0,1-1.28,1.1h0a14,14,0,0,1-2.13,1.28h0l-.25.12h0l-.25.11h0c-.33.15-.66.28-1,.4h0c-.21.08-.41.15-.62.21h0l-.59.16h0l-.31.08h0l-.5.1h0l-.56.08h0l-.16,0c-.24,0-.47,0-.7.05H9.81" transform="translate(-0.01 0)"/><path class="g" d="M0,10.08s4.81,10.3,14.84,5.62S21.18,0,21.18,0s4,4.44,2.33,10.2c-1.54,5.22-10.23,10-17.22,6.69C1,14.4,0,10.08,0,10.08" transform="translate(-0.01 0)"/><path class="h" d="M21.69,2.32c0-.15-.05-.29-.07-.43,0,.14.05.28.07.43M21.8,3.4h0a.49.49,0,0,0,0-.12h0V3.4" transform="translate(-0.01 0)"/><path class="i" d="M22,3.48a.18.18,0,0,1-.15-.08.49.49,0,0,0,0-.12h0A1,1,0,0,1,22.06,3l.17-.16a.43.43,0,0,0,0-.07.13.13,0,0,1,.11-.07h0l0-.13a2.83,2.83,0,0,1-.52-.13,1.45,1.45,0,0,1-.22-.09c0-.15-.05-.29-.07-.43a3.27,3.27,0,0,0,.47.16,2.28,2.28,0,0,0,.51.09c.12.22.23.46.34.71l0,.17L23,3l.15.37a1.76,1.76,0,0,1-.5.09h0a.15.15,0,0,1-.15-.1.22.22,0,0,1-.1-.09.78.78,0,0,1-.44.21h0" transform="translate(-0.01 0)"/><path class="i" d="M23.16,4.47A2.27,2.27,0,0,0,23,4c.1,0,.18-.07.28-.1h.07c0,.14.09.27.13.41a.49.49,0,0,1-.18.14l-.14,0" transform="translate(-0.01 0)"/><path class="i" d="M21.86,1.72a.11.11,0,0,1-.11-.09,1.57,1.57,0,0,1,.06-.53,1.94,1.94,0,0,1,.05-.2c.1.14.2.29.3.46a.65.65,0,0,1-.23.34l-.07,0" transform="translate(-0.01 0)"/><path class="h" d="M21.85,4.67c0-.18,0-.36,0-.54,0,.18,0,.36,0,.54h0" transform="translate(-0.01 0)"/><path class="i" d="M22.12,5.59a.27.27,0,0,1-.26-.35c.05-.18.1-.36.16-.54a.14.14,0,0,0,0-.06.58.58,0,0,1-.19,0c0-.18,0-.36,0-.54l.27,0h.12a.22.22,0,0,1,.17.13.11.11,0,0,1,.09.07,1.86,1.86,0,0,1-.15,1.11.22.22,0,0,1-.22.17" transform="translate(-0.01 0)"/><path class="h" d="M21.2,8.87h0c.06-.17.11-.33.15-.49h0c0,.16-.09.32-.15.49" transform="translate(-0.01 0)"/><path class="i" d="M21.66,8.94a1.83,1.83,0,0,1-.46-.07c.06-.17.11-.33.15-.49h.09l.17,0a.22.22,0,0,1,.12-.27A.68.68,0,0,0,22,7.83c.08-.09.16-.23.28-.27h0l-.06.31c-.08.35-.17.69-.27,1a1.15,1.15,0,0,1-.33,0" transform="translate(-0.01 0)"/><path class="i" d="M23.75,9.23V9.14h0v.09M22.3,10.41a.31.31,0,0,1-.22-.09l.14-.23a9.12,9.12,0,0,0,.45-.95.4.4,0,0,1,.24-.07h0a.13.13,0,0,1,.12.09.44.44,0,0,1,0,.28h.1a6.62,6.62,0,0,1-.3.66h-.17l-.15.2a.27.27,0,0,1-.23.12" transform="translate(-0.01 0)"/><path class="i" d="M19.61,13.69l-.09,0a.22.22,0,0,1,.07-.41h.07a3.39,3.39,0,0,0,.41.15,4.34,4.34,0,0,1-.46.28" transform="translate(-0.01 0)"/><path class="h" d="M20.94,9.57h0" transform="translate(-0.01 0)"/><path class="i" d="M21.39,9.9a.58.58,0,0,1-.26-.06A.54.54,0,0,1,21,9.75s0-.08-.05-.11a.08.08,0,0,1,0-.07h0a.05.05,0,0,1,.06,0h0l.16,0,.2,0a2.71,2.71,0,0,1,.37,0h0a.07.07,0,0,1,.06,0c0,.12-.08.25-.13.37a.47.47,0,0,1-.25.11h-.06" transform="translate(-0.01 0)"/><path class="h" d="M11.6,16.76h0l.5-.1h0l-.5.1m-.72.1.16,0h0l-.16,0m-.92.06h0" transform="translate(-0.01 0)"/><path class="h" d="M14.86,15.7l.25-.12h0l-.22.11h0m-.26.11h0l.25-.11h0l0,0-.21.09m-1.6.61h0c.21-.06.41-.13.62-.21h0c-.21.08-.41.15-.62.21" transform="translate(-0.01 0)"/><path class="i" d="M18.55,14.16l.09,0-.09,0m-3.67,1.53h0m0,0h0m0,0h0m0,0h0m0,0h0m0,0,0,0,0,0" transform="translate(-0.01 0)"/><path class="i" d="M23.47,8.48a1.59,1.59,0,0,1-.39-.1.18.18,0,0,1-.11-.1A1.33,1.33,0,0,1,23,8.09L23,8a.17.17,0,0,1,.1,0l.08,0a1,1,0,0,0,.24,0,.43.43,0,0,1,0-.17,2.38,2.38,0,0,1,.12-.59.81.81,0,0,1-.22-.07.47.47,0,0,1-.17.25q.07-.34.12-.69h.25a.71.71,0,0,0,.21,0h.06c0,.18,0,.36-.07.54a9.71,9.71,0,0,1-.26,1.19" transform="translate(-0.01 0)"/><path class="h" d="M21.73,6.54h0c0-.14,0-.29.05-.43h0c0,.14,0,.29-.05.43" transform="translate(-0.01 0)"/><path class="i" d="M23.34,5.72A4.4,4.4,0,0,0,23.28,5h.14l.23-.08.09.45-.28.07a1.69,1.69,0,0,1-.12.28M22,6.55h-.22c0-.14,0-.29.05-.43a2.54,2.54,0,0,0,.74-.23c0,.19,0,.39-.05.58a1.5,1.5,0,0,1-.52.09" transform="translate(-0.01 0)"/><path class="j" d="M6.28,16.89h0m0,0h0" transform="translate(-0.01 0)"/><path class="h" d="M5.78,16l-.06,0,.06,0" transform="translate(-0.01 0)"/><path class="h" d="M20.18,11.1h0c.12-.2.23-.4.33-.59h0c-.1.19-.21.39-.33.59" transform="translate(-0.01 0)"/><path class="i" d="M21.54,11.19l.12-.18.33-.52.68-.08h0c-.1.19-.2.36-.31.54a2.69,2.69,0,0,1-.85.24m-.46,0a5.4,5.4,0,0,1-.9-.11c.12-.2.23-.4.33-.59a4.18,4.18,0,0,0,.61.05h.28l-.1.21a3.11,3.11,0,0,0-.2.41.08.08,0,0,0,0,0" transform="translate(-0.01 0)"/><path class="h" d="M19.47,12.14h0l.27-.37h0l-.27.37" transform="translate(-0.01 0)"/><path class="i" d="M20.92,12.36a3.92,3.92,0,0,1-.59,0h0a8.52,8.52,0,0,1-.85-.17l.27-.37a6.89,6.89,0,0,0,1.43.16,3.85,3.85,0,0,0,.48,0l.11-.07c-.14.17-.28.33-.43.49a2.73,2.73,0,0,1-.41,0" transform="translate(-0.01 0)"/><path class="i" d="M18.86,13.9a.28.28,0,0,1-.24-.13.3.3,0,0,1,.12-.42,1.25,1.25,0,0,1,.5-.18h0a.17.17,0,0,1,.14.26,1.56,1.56,0,0,1-.36.41.32.32,0,0,1-.18.06" transform="translate(-0.01 0)"/><path class="i" d="M21,12.71a.18.18,0,0,1,0-.14.16.16,0,0,1,.11-.05h0l-.19.18" transform="translate(-0.01 0)"/><path class="h" d="M18.52,13.2h0l.37-.38h0l-.37.38" transform="translate(-0.01 0)"/><path class="i" d="M18.72,13.22a.68.68,0,0,1-.2,0l.37-.38.13-.05h.05a.14.14,0,0,1,.11.22.51.51,0,0,1-.46.24" transform="translate(-0.01 0)"/><path class="i" d="M19.8,13h-.09a.18.18,0,0,1-.12-.27.92.92,0,0,1,.35-.3.63.63,0,0,1,.32-.1h.07l.07,0a.22.22,0,0,1,.12.26.61.61,0,0,1-.36.31.91.91,0,0,1-.36.09" transform="translate(-0.01 0)"/><path class="k" d="M23.52,10.15h0m0,0h0m0,0h0m0,0h0m0,0h0m0,0h0m0,0h0m0,0h0m0,0h0m0,0h0m0,0h0m0,0h0m0,0v0M6.53,17l-.24-.11.21.1h0m4.75,1c5.61,0,11-3.74,12.22-7.74-1.2,4-6.61,7.72-12.22,7.74m0,0h0" transform="translate(-0.01 0)"/><path class="l" d="M15.11,15.58h0a14,14,0,0,0,2.13-1.28h0l-.09.06-.36.26h0a14.8,14.8,0,0,1-1.68,1m-1.49.63h0c.32-.12.65-.25,1-.4-.33.15-.66.28-1,.4m-1.21.37h0l.59-.16-.59.16" transform="translate(-0.01 0)"/><path class="m" d="M23.25,9.44h-.1c.12-.31.23-.64.32-1h.16l.23,0a10.35,10.35,0,0,0,.05-1.75l-.11,0c0-.23,0-.46.05-.69a10.07,10.07,0,0,1-.09,3.08,2.5,2.5,0,0,1-.22.24l0,0-.26,0m-4.47,5.35a5,5,0,0,1-1.63-.43l.09-.06.34,0a3.12,3.12,0,0,0,1-.16.28.28,0,0,0,0,.45c.09.06.18.13.27.18M16,15.93a8.93,8.93,0,0,1-.85-.35,14.8,14.8,0,0,0,1.68-1l.22.12a2.38,2.38,0,0,1-.4.31.29.29,0,0,0,0,.47.06.06,0,0,1,0,0,.67.67,0,0,1-.06.12.22.22,0,0,1-.11.09l0,0a.41.41,0,0,0,.05-.09.06.06,0,0,0-.06-.08s0,0,0,0a2.12,2.12,0,0,0-.38.29h0m.44.14L16.2,16a.86.86,0,0,0,.14-.13.2.2,0,0,0,0,.13l0,.06m-2.34.37-.24-.12-.2-.11c.32-.12.65-.25,1-.4l.27.15a1.22,1.22,0,0,0-.37.2l-.44.28m-.74.82c-.31-.21-.61-.44-.91-.68l.59-.16c.35.21.7.4,1.06.58H14a.16.16,0,0,0-.15.14h-.08a1,1,0,0,0-.4.11m10-7.1a.12.12,0,0,0-.1.05,1.2,1.2,0,0,0-.19.27,1.58,1.58,0,0,1-.13.26.26.26,0,0,0,.06.36.24.24,0,0,0,.14.05h0a6.18,6.18,0,0,0,.33-.87s0,0,0,0a.13.13,0,0,0-.12-.07m-1.16,2.55h0a.69.69,0,0,0-.2.25s-.05.11-.08.16a4.78,4.78,0,0,0,.34-.42h0M11.24,18h0a11.61,11.61,0,0,1-4.7-1h0a11.61,11.61,0,0,0,4.74,1h.44l.71,0h0l.68-.08h.08c.27,0,.55-.09.82-.15l-.22-.13a.71.71,0,0,0,.19-.23,2,2,0,0,0,.34,0h.14a.16.16,0,0,0,.13.07h0l.25-.09.24.08.64-.2L15.29,17a.54.54,0,0,0,.19-.61.12.12,0,0,0-.12-.07h0c-.16,0-.29.16-.4.28l-.25.13-.18-.09c.33-.07.62-.22.64-.56l.32.15a.08.08,0,0,0,.07.05h0a6.71,6.71,0,0,0,1.44.4c.25-.11.48-.23.72-.35a7.6,7.6,0,0,1-1.23-.23l.05,0a.54.54,0,0,0,.22-.25s0-.05,0-.07a1.3,1.3,0,0,0,.66.19h0c.06,0,.07-.09,0-.12a3.71,3.71,0,0,1-.32-.23l-.22-.2a1.32,1.32,0,0,0,.47-.47l.36.12a1.6,1.6,0,0,0-.44.29.07.07,0,0,0,0,.13h0c.24,0,.6-.11.72-.36a2,2,0,0,0,.43,0h.23l0,0c-.09.09-.16.19-.24.28a.25.25,0,0,0,.06.35s0,0,0,0l.45-.29a1,1,0,0,0,.19-.35.19.19,0,0,0,0-.13l.06,0,.36.09.58-.45a2.59,2.59,0,0,1-1.49-.5.19.19,0,0,0-.14,0h0a6.23,6.23,0,0,0,.82-.36l.15-.09a4.37,4.37,0,0,0,.89.27l-.16.07a.27.27,0,0,0-.12.34.24.24,0,0,0,.23.14h.05c.16-.14.31-.27.45-.41h0a.1.1,0,0,0,0-.09H21q.24-.22.45-.45h-.61a3.13,3.13,0,0,1-.81-.14,6.59,6.59,0,0,0,.88-.7.15.15,0,0,0,0,.07.73.73,0,0,0,.49.25.37.37,0,0,0,.24-.08c.18-.12-.09-.26-.2-.29a1.21,1.21,0,0,1-.32-.11l-.05,0,.19-.2h0a.25.25,0,0,0,.21.15h.05a1.33,1.33,0,0,0,.46-.23.33.33,0,0,0,.11-.15,2.24,2.24,0,0,0,.4-.22.09.09,0,0,0,0-.17h0l-.29.09a.13.13,0,0,0-.13-.1.7.7,0,0,0-.32.13,7.94,7.94,0,0,0,.63-.89,2.11,2.11,0,0,0,.4-.26.16.16,0,0,0-.09-.28l.15-.31h0a.79.79,0,0,0,.68-.33l.07,0c.05-.2.09-.39.13-.58-.06.3-.14.61-.23.92h0v0h0c-1.2,4-6.61,7.72-12.22,7.74h0" transform="translate(-0.01 0)"/><path class="n" d="M22.87,10.1h0a6.62,6.62,0,0,0,.3-.66h.1l.26,0,0,0a2.5,2.5,0,0,0,.22-.24v.09c0,.19-.08.38-.13.58l-.07,0a.79.79,0,0,1-.68.33" transform="translate(-0.01 0)"/><path class="n" d="M20.45,14.51a.24.24,0,0,1-.23-.14.27.27,0,0,1,.12-.34L20.5,14a4.37,4.37,0,0,1-.89-.27,4.34,4.34,0,0,0,.46-.28,3.13,3.13,0,0,0,.81.14h.61q-.21.22-.45.45h-.1a.1.1,0,0,1,0,.09h0c-.14.14-.3.27-.45.41h-.05" transform="translate(-0.01 0)"/><path class="n" d="M11.68,18h0l.71,0h0l-.71,0" transform="translate(-0.01 0)"/><path class="o" d="M16.79,14.62h0l.36-.26-.36.26m-1.91,1.07.23-.11h0l-.23.11m0,0h0m0,0h0m0,0h0m0,0h0m0,0h0m-.24.11.21-.09-.21.09m-1.6.61h0c.21-.06.41-.13.62-.21h0c-.21.08-.41.15-.62.21" transform="translate(-0.01 0)"/><path class="n" d="M16.34,15.88a.86.86,0,0,1-.14.13l.2.06,0-.06a.2.2,0,0,1,0-.13m-2.59,1.67-.43-.29a1,1,0,0,1,.4-.11h.07A.18.18,0,0,1,14,17h.11c-.36-.18-.71-.37-1.06-.58.21-.06.41-.13.62-.21l.2.11.24.12.44-.28a1.22,1.22,0,0,1,.37-.2l-.27-.15.21-.09,0,0h0l.23-.11a8.93,8.93,0,0,0,.85.35h0a2.12,2.12,0,0,1,.38-.29s0,0,0,0a.06.06,0,0,1,.06.08.41.41,0,0,1-.05.09l0,0a.22.22,0,0,0,.11-.09.67.67,0,0,0,.06-.12.06.06,0,0,0,0,0,.29.29,0,0,1,0-.47,2.38,2.38,0,0,0,.4-.31l-.22-.12.36-.26a5,5,0,0,0,1.63.43c-.09,0-.18-.12-.27-.18a.28.28,0,0,1,0-.45l.09,0h0a.19.19,0,0,1,.14,0,2.59,2.59,0,0,0,1.49.5l-.58.45-.36-.09-.06,0a.19.19,0,0,1,0,.13,1,1,0,0,1-.19.35l-.45.29s0,0,0,0a.25.25,0,0,1-.06-.35c.08-.09.15-.19.24-.28l0,0h-.23a2,2,0,0,1-.43,0c-.12.25-.48.32-.72.36h0a.07.07,0,0,1,0-.13,1.6,1.6,0,0,1,.44-.29l-.36-.12a1.32,1.32,0,0,1-.47.47l.22.2a3.71,3.71,0,0,0,.32.23s0,.12,0,.12h0a1.3,1.3,0,0,1-.66-.19s0,.05,0,.07a.54.54,0,0,1-.22.25l-.05,0a7.6,7.6,0,0,0,1.23.23c-.24.12-.47.24-.72.35a6.71,6.71,0,0,1-1.44-.4h0a.08.08,0,0,1-.07-.05l-.32-.15c0,.34-.31.49-.64.56l.18.09.25-.13c.11-.12.24-.27.4-.28h0a.12.12,0,0,1,.12.07.54.54,0,0,1-.19.61l.42.19-.64.2-.24-.08-.25.09h0a.16.16,0,0,1-.13-.07h-.14a2,2,0,0,1-.34,0,.71.71,0,0,1-.19.23m-.68.29h0" transform="translate(-0.01 0)"/><path class="n" d="M23.63,8.49h-.16a9.71,9.71,0,0,0,.26-1.19c0-.18.05-.36.07-.54l.11,0a10.35,10.35,0,0,1-.05,1.75l-.23,0" transform="translate(-0.01 0)"/><path class="n" d="M23.12,11.15A.24.24,0,0,1,23,11.1a.26.26,0,0,1-.06-.36,1.58,1.58,0,0,0,.13-.26,1.2,1.2,0,0,1,.19-.27.12.12,0,0,1,.1-.05.13.13,0,0,1,.12.07s0,0,0,0a7.72,7.72,0,0,1-.33.87h0" transform="translate(-0.01 0)"/><path class="n" d="M21.86,13.13c0-.05.05-.11.08-.16a.69.69,0,0,1,.2-.25h.06a4.78,4.78,0,0,1-.34.42" transform="translate(-0.01 0)"/><path class="n" d="M22.39,11c.11-.18.21-.35.31-.54a.16.16,0,0,1,.09.28,2.11,2.11,0,0,1-.4.26" transform="translate(-0.01 0)"/><path class="n" d="M21.55,12.48a.25.25,0,0,1-.21-.15h0c.15-.16.29-.32.43-.49a.7.7,0,0,1,.32-.13.13.13,0,0,1,.13.1l.29-.09h0a.09.09,0,0,1,0,.17,2.24,2.24,0,0,1-.4.22.33.33,0,0,1-.11.15,1.33,1.33,0,0,1-.46.23h-.05" transform="translate(-0.01 0)"/><path class="n" d="M21.47,13a.73.73,0,0,1-.49-.25.15.15,0,0,1,0-.07l.19-.18.05,0a1.21,1.21,0,0,0,.32.11c.11,0,.38.17.2.29a.37.37,0,0,1-.24.08" transform="translate(-0.01 0)"/><path class="l" d="M5.72,16l-.14-.07h0a10.92,10.92,0,0,1-2-1.32A11,11,0,0,0,5.72,16m6.38.69h0l.31-.08h0l-.31.08M11,16.84h0l.56-.08h0l-.56.08m-.86.07h0c.23,0,.46,0,.7-.05l-.16,0h0a4.89,4.89,0,0,1-.54,0m-.37,0H9.72A9.15,9.15,0,0,1,5.78,16h0a9.23,9.23,0,0,0,4,.92h0" transform="translate(-0.01 0)"/><path class="m" d="M5.58,15.9a11.21,11.21,0,0,1-2.37-1.65h0a.39.39,0,0,1-.1-.08h0a14.44,14.44,0,0,1-1.67-1.83h0L1.16,12h0A12.31,12.31,0,0,1,0,10.08a14.19,14.19,0,0,0,3.58,4.5,10.92,10.92,0,0,0,2,1.32h0m4.14,1A9.15,9.15,0,0,1,5.78,16h0a9.15,9.15,0,0,0,3.94.92" transform="translate(-0.01 0)"/><path class="o" d="M11.6,16.76h0l.5-.1h0l-.5.1m-.88.12h0l.16,0,.16,0h0l-.32,0m-.91,0h0" transform="translate(-0.01 0)"/><path class="n" d="M9.81,16.92h0" transform="translate(-0.01 0)"/><path class="n" d="M1.44,12.34,1.16,12h0l.28.37h0" transform="translate(-0.01 0)"/><path class="n" d="M3.21,14.25a.39.39,0,0,1-.1-.08h0a.39.39,0,0,0,.1.08h0" transform="translate(-0.01 0)"/><path class="o" d="M5.78,16l-.2-.1h0l.14.07.06,0h0" transform="translate(-0.01 0)"/><path class="n" d="M5.78,16l-.2-.1h0l.2.1h0" transform="translate(-0.01 0)"/><path class="p" d="M6.28,16.89C1,14.39,0,10.08,0,10.08s.94,4.3,6.24,6.79l0,0m0,0h0m.21.1-.21-.1,0,0h0L6.5,17" transform="translate(-0.01 0)"/><path class="q" d="M0,10.08H0M12.1,16.66h0l.31-.08h0l-.31.08M11,16.84h0l.56-.08h0l-.56.08m-.86.07a4.89,4.89,0,0,0,.54,0,4.89,4.89,0,0,1-.54,0" transform="translate(-0.01 0)"/><path class="r" d="M6.25,16.87C1,14.38,0,10.09,0,10.08A12.31,12.31,0,0,0,1.16,12a.88.88,0,0,0,0,.17l0,.35.28.43c0-.2,0-.39.05-.58a14.44,14.44,0,0,0,1.67,1.83.11.11,0,0,0-.09.08,2.66,2.66,0,0,0,0,.49l.45.39c-.08-.29-.16-.59-.25-.88A11.21,11.21,0,0,0,5.58,15.9a1.3,1.3,0,0,0,.12.65H5.6c.21.11.42.22.65.32m.07,0h0m5.06.32a3.17,3.17,0,0,1-.34-.39l.56-.08.5.39a3.27,3.27,0,0,0-.42.06l-.3,0m-1,0-.2-.36a4.89,4.89,0,0,0,.54,0c.07.12.15.24.23.35H10.8l-.42,0m2.77.56h0a1.88,1.88,0,0,0,.59-.27l.22.13c-.27.06-.55.11-.82.15m-.76.09a4.86,4.86,0,0,1-.81-.52h.36a.51.51,0,0,0,.35-.11h0a4.57,4.57,0,0,0,.47.29h0a.11.11,0,0,0,.07-.18,6,6,0,0,0-.77-.74l.31-.08c.3.24.6.47.91.68l-.33.2a.2.2,0,0,0,.08.38l-.68.08m-4.83-.87a.17.17,0,0,0-.07.32h0l.42,0a.83.83,0,0,1,.08.12l.57.14-.28-.27.15,0c.1,0,.07-.17,0-.21a1.28,1.28,0,0,0-.61-.11h-.3m3.68.92A11.61,11.61,0,0,1,6.5,17l-.18-.08.3.13a.14.14,0,0,0,0-.06,1.38,1.38,0,0,0-.43-.31A3.17,3.17,0,0,1,5.78,16a9.16,9.16,0,0,0,4,.92,3.84,3.84,0,0,0,.22.39l-.6,0c-.1,0-.07.16,0,.16h0c.23,0,.46,0,.69,0a2.59,2.59,0,0,0,.41.46l.31,0c-.09-.17-.19-.33-.29-.49l.5,0h.12a4,4,0,0,0,.56.53h-.44" transform="translate(-0.01 0)"/><path class="s" d="M8.6,17.68,8,17.54A.83.83,0,0,0,8,17.42l-.42,0h0a.17.17,0,0,1,.07-.32h.3a1.28,1.28,0,0,1,.61.11c.07,0,.1.17,0,.21l-.15,0,.28.27" transform="translate(-0.01 0)"/><path class="t" d="M11.6,16.76h0l.5-.1h0l-.5.1m-.88.12.32,0h0l-.32,0m-.91,0h0" transform="translate(-0.01 0)"/><path class="s" d="M11.68,18a4,4,0,0,1-.56-.53H11l-.5,0c.1.16.2.32.29.49l-.31,0a2.59,2.59,0,0,1-.41-.46c-.23,0-.46,0-.69,0h0c-.09,0-.12-.16,0-.16l.6,0c-.08-.13-.16-.26-.23-.39h.46l.2.36.42,0H11c-.08-.11-.16-.23-.23-.35l.32,0a3.17,3.17,0,0,0,.34.39l.3,0a3.27,3.27,0,0,1,.42-.06l-.5-.39.5-.1a6,6,0,0,1,.77.74.11.11,0,0,1-.07.18h0a4.57,4.57,0,0,1-.47-.29h0a.51.51,0,0,1-.35.11h-.36a4.86,4.86,0,0,0,.81.52l-.71,0" transform="translate(-0.01 0)"/><path class="s" d="M13.07,17.84a.2.2,0,0,1-.08-.38l.33-.2.43.29a1.88,1.88,0,0,1-.59.27h-.09" transform="translate(-0.01 0)"/><path class="s" d="M1.39,12.92l-.28-.43,0-.35a.88.88,0,0,1,0-.17l.28.37c0,.19,0,.38-.05.58" transform="translate(-0.01 0)"/><path class="s" d="M3.46,15.13,3,14.74a2.66,2.66,0,0,1,0-.49.11.11,0,0,1,.09-.08.39.39,0,0,0,.1.08c.09.29.17.59.25.88" transform="translate(-0.01 0)"/><path class="u" d="M6.32,16.91l0,0h0l0,0,0,0,0,0m0,0h0" transform="translate(-0.01 0)"/><path class="s" d="M6.62,17l-.3-.13h0l0,0,0,0c-.23-.1-.44-.21-.65-.32h.1a1.3,1.3,0,0,1-.12-.65l.2.1a3.17,3.17,0,0,0,.39.67A1.38,1.38,0,0,1,6.6,17a.14.14,0,0,1,0,.06" transform="translate(-0.01 0)"/><path class="v" d="M17.16,7.49c.11,0,.17-.13.1-.21a3.71,3.71,0,0,0-1.09-.83l-.11-.07c-.07.14-.15.28-.23.41l.19.13a3.59,3.59,0,0,0,1.14.57" transform="translate(-0.01 0)"/><path class="v" d="M14,10.67c.07.1.2,0,.19-.09a4,4,0,0,0-.5-1.47l-.41.27c.23.44.45.87.72,1.29" transform="translate(-0.01 0)"/><path class="v" d="M14.1,8.89a7.48,7.48,0,0,0,1.09,1.41.09.09,0,0,0,.15-.1,7.6,7.6,0,0,0-.85-1.56l-.09-.13-.35.3,0,.08" transform="translate(-0.01 0)"/><path class="v" d="M15.38,8.27a5,5,0,0,0,1.26,1,.11.11,0,0,0,.14-.16A4.86,4.86,0,0,0,15.7,7.91l-.39-.37c-.1.13-.2.25-.31.37l.38.36" transform="translate(-0.01 0)"/><path class="v" d="M5.82,9.12a1.92,1.92,0,0,0,.32-.26l-.22-.25L5.71,9c0,.06,0,.18.11.13" transform="translate(-0.01 0)"/><path class="v" d="M12.78,11.6a1.66,1.66,0,0,0-.14-.82q-.15-.46-.33-.93h0L12,10,11.9,10c.12.32.25.64.39.95a1.54,1.54,0,0,0,.42.68,0,0,0,0,0,.07,0" transform="translate(-0.01 0)"/><path class="v" d="M16.39,5.64l.09.05A3.06,3.06,0,0,0,17.53,6a.11.11,0,0,0,.09-.18,2.27,2.27,0,0,0-.95-.52l-.15-.06c0,.13-.09.26-.13.38" transform="translate(-0.01 0)"/><path class="v" d="M6.4,9.9a.09.09,0,0,0,.09,0c.19,0,.31-.21.41-.4-.15-.11-.28-.23-.42-.35a.78.78,0,0,0-.08.7" transform="translate(-0.01 0)"/><path class="v" d="M10.74,10.32l-.43.07v.07a6.35,6.35,0,0,0,.54,1.88c0,.06.15.06.15,0a14.6,14.6,0,0,0-.26-1.86s0-.09,0-.13" transform="translate(-0.01 0)"/><path class="v" d="M11.62,11.56a8.69,8.69,0,0,0-.08-1.44c-.14.05-.28.08-.42.12.13.45.27.89.41,1.33,0,0,.09,0,.09,0" transform="translate(-0.01 0)"/><path class="v" d="M17.23,4.45a2.77,2.77,0,0,1-.5-.1,2.93,2.93,0,0,1-.05.29,1.6,1.6,0,0,0,1.33.1c.06,0,.07-.15,0-.17a4.11,4.11,0,0,0-.77-.12" transform="translate(-0.01 0)"/><path class="v" d="M7.42,10.86a3.49,3.49,0,0,0,.34-.79l-.35-.18a3.61,3.61,0,0,0-.15.91c0,.08.11.14.16.06" transform="translate(-0.01 0)"/><path class="v" d="M9.13,12.05a2.94,2.94,0,0,0,.08-1.22c0-.13,0-.27,0-.41a4,4,0,0,1-.5-.06,5.07,5.07,0,0,0,0,.55A2.17,2.17,0,0,0,9,12.07a.08.08,0,0,0,.14,0" transform="translate(-0.01 0)"/><path class="w" d="M6.4,9.41a3,3,0,0,1,1.09.72c.13.18.32.31.44.5a1.5,1.5,0,0,0,1.2.54,2.7,2.7,0,0,0,2.2-.38,1,1,0,0,1,.32-.27c.3-.13.65.14,1,0s.41-.52.65-.76c.49-.47,1.48-.11,1.83-.7a4.75,4.75,0,0,0,.21-.67c.23-.57,1-.82,1.06-1.42,0-.21,0-.43,0-.64a1.75,1.75,0,0,1,.27-.59,3.34,3.34,0,0,0,.18-2.94,13.22,13.22,0,0,0-.48,2.09A3.64,3.64,0,0,1,14.71,7c-.63.37-1.4.55-1.85,1.15-.23.31-.35.71-.67.92-.74.48-1.74-.48-2.53-.1-.3.15-.51.48-.84.56a1.16,1.16,0,0,1-.58-.07A11.92,11.92,0,0,1,5.57,8.16c-.25.4.46,1,.83,1.25" transform="translate(-0.01 0)"/><path class="x" d="M9.06,8.9a2,2,0,0,0-.23,1.74.25.25,0,0,0,.46,0,2.11,2.11,0,0,0,0-.83,4.25,4.25,0,0,0-.13-.87.06.06,0,0,0-.12,0" transform="translate(-0.01 0)"/><path class="x" d="M9.8,9.35a1.59,1.59,0,0,0,.27,1.6.14.14,0,0,0,.23,0,1.38,1.38,0,0,0,0-.83,1.75,1.75,0,0,0-.28-.77.16.16,0,0,0-.27,0" transform="translate(-0.01 0)"/><path class="x" d="M10.73,8.92a1.48,1.48,0,0,0,0,.78,1.26,1.26,0,0,0,.34.69.14.14,0,0,0,.2,0,1.3,1.3,0,0,0-.45-1.51.1.1,0,0,0-.12.07" transform="translate(-0.01 0)"/><path class="x" d="M12,9c.13.33.21,1,.62,1a.13.13,0,0,0,.13-.06c.22-.36-.21-.85-.36-1.17A.22.22,0,0,0,12,9" transform="translate(-0.01 0)"/><path class="x" d="M12.67,8.07c.24.45.5,1.12,1.1,1a.11.11,0,0,0,.1-.11c0-.55-.51-.81-.82-1.19-.16-.21-.52,0-.38.25" transform="translate(-0.01 0)"/><path class="x" d="M14.58,7.65l-.11-.06h0a.18.18,0,0,0-.28-.09c-.16.19-.06.38.08.54s.45.51.73.51c.13,0,.29-.11.25-.27a.81.81,0,0,0-.39-.46,2.26,2.26,0,0,0-.26-.16" transform="translate(-0.01 0)"/><path class="x" d="M15.67,6.72a.81.81,0,0,0-.6-.14.19.19,0,0,0-.11.3,1.76,1.76,0,0,0,.4.37,1.64,1.64,0,0,0,.22.14,1.37,1.37,0,0,0,.29.07c.15,0,.22-.15.18-.27,0,.08,0-.11,0-.11a1.29,1.29,0,0,0-.09-.16.9.9,0,0,0-.27-.2" transform="translate(-0.01 0)"/><path class="x" d="M15.59,5.63a.16.16,0,0,0-.07.31,2,2,0,0,0,.69.26.26.26,0,0,0,.23-.11.41.41,0,0,0,0-.19.28.28,0,0,0-.16-.19,1.81,1.81,0,0,0-.73-.08" transform="translate(-0.01 0)"/><path class="x" d="M16.65,4.79a.62.62,0,0,0-.48.08.14.14,0,0,0,0,.18.57.57,0,0,0,.41.26c.14,0,.4,0,.44-.18s-.19-.32-.33-.34" transform="translate(-0.01 0)"/><path class="x" d="M8.27,9A.18.18,0,0,0,8,8.9H8a.6.6,0,0,0-.26.24,1.14,1.14,0,0,0-.18.46.33.33,0,0,0,.17.31.3.3,0,0,0,.35,0,1.3,1.3,0,0,0,.22-.44.57.57,0,0,0,0-.26,1.13,1.13,0,0,0,0-.18" transform="translate(-0.01 0)"/><path class="x" d="M7.43,8.57a.13.13,0,0,0-.15-.11c-.29.08-.5.46-.61.74s.14.29.28.2.54-.52.48-.83" transform="translate(-0.01 0)"/><path class="y" d="M8.53,9.7a1.12,1.12,0,0,0-.2.56c0,.12,0,.35.16.39s.28-.16.32-.27a1.24,1.24,0,0,0,.06-.6.19.19,0,0,0-.34-.08" transform="translate(-0.01 0)"/><path class="y" d="M10.18,9.14a.86.86,0,0,0-.61-.08.14.14,0,0,0-.06.18c.06.2.29.32.45.41s.42.2.6.09a.15.15,0,0,0,.08-.16c0-.23-.27-.37-.46-.44" transform="translate(-0.01 0)"/><path class="y" d="M12.31,10.05a3.8,3.8,0,0,0-.81-.68.08.08,0,0,0-.12.06.83.83,0,0,0,.13.65.81.81,0,0,0,.59.38.25.25,0,0,0,.21-.41" transform="translate(-0.01 0)"/><path class="y" d="M13.92,9.26a1.62,1.62,0,0,0-1,0,.13.13,0,0,0-.05.24c.28.24.89.35,1.1-.05,0-.05,0-.13,0-.16" transform="translate(-0.01 0)"/><path class="y" d="M14.29,7.09c-.23.08-.35.33-.47.53a3.33,3.33,0,0,0-.38.66c0,.14.1.32.24.24a2,2,0,0,0,.56-.6.94.94,0,0,0,.23-.73.13.13,0,0,0-.18-.1" transform="translate(-0.01 0)"/><path class="y" d="M16,7.32l-.11-.05c-.18-.12-.45,0-.65,0s-.21.34,0,.42a.88.88,0,0,0,.42.09.44.44,0,0,0,.34-.17A.26.26,0,0,0,16,7.48a.16.16,0,0,0,0-.16" transform="translate(-0.01 0)"/><path class="y" d="M16.68,3.86a.18.18,0,0,0-.31,0,1.1,1.1,0,0,0-.16.46.77.77,0,0,0,0,.43.48.48,0,0,0,.09.19.15.15,0,0,0,.18,0,.66.66,0,0,0,.28-.49,1,1,0,0,0-.1-.61" transform="translate(-0.01 0)"/><path class="y" d="M6.76,8.59a1.19,1.19,0,0,0-.57-.23.15.15,0,0,0-.14.21A1.24,1.24,0,0,0,6.48,9a1,1,0,0,0,.57.21A.14.14,0,0,0,7.19,9a1,1,0,0,0-.43-.45" transform="translate(-0.01 0)"/><path class="y" d="M12.71,7.9a.84.84,0,0,0-.4.45,1.2,1.2,0,0,0-.15.59.12.12,0,0,0,.16.08,1.12,1.12,0,0,0,.41-.45A.85.85,0,0,0,12.88,8a.12.12,0,0,0-.17-.09" transform="translate(-0.01 0)"/><path class="z" d="M11.38,13.78l-.33,0a3.14,3.14,0,0,1-.93-.29,5.27,5.27,0,0,1-.79-.64,0,0,0,0,1,0-.05h0a3.52,3.52,0,0,0,1,.27,2.74,2.74,0,0,0,.7.09h.07a9.1,9.1,0,0,0,1.62-.32h0c.09,0,.13.11.09.19a1.56,1.56,0,0,1-1.44.76" transform="translate(-0.01 0)"/><path class="z" d="M13.59,12.07h-.14a.15.15,0,0,1,0-.27,1.53,1.53,0,0,1,.74-.32h0c.05,0,.11.06.1.12a.64.64,0,0,1-.7.47" transform="translate(-0.01 0)"/><path class="z" d="M16.53,10a.7.7,0,0,1-.31-.07c-.13-.07-.3-.22-.26-.4s.47-.07.56-.1a.54.54,0,0,0,.21-.15.13.13,0,0,0,.06-.1A3,3,0,0,0,17,8.78s0,0,.07,0h0c.47.24.22.94-.14,1.16a.81.81,0,0,1-.41.11" transform="translate(-0.01 0)"/><path class="aa" d="M16.73,9.29l.06-.1a.13.13,0,0,1-.06.1" transform="translate(-0.01 0)"/><path class="z" d="M17.16,8.37h-.05c-.17,0-.25-.13-.35-.26a.05.05,0,0,1,0-.08h0a.77.77,0,0,0,.48-.33c.13-.2.13-.49.34-.63h0l.07,0c.35.22.12.86-.12,1.08a.74.74,0,0,1-.47.2" transform="translate(-0.01 0)"/><path class="z" d="M18.41,4a.17.17,0,0,1-.15-.14c0-.25,0-.51,0-.77a1.29,1.29,0,0,0-.48-.74.06.06,0,0,1,0-.1l.21,0a.92.92,0,0,1,.83.63c.16.4.06,1-.4,1.14h0" transform="translate(-0.01 0)"/><path class="ab" d="M6.57,13.81a1.06,1.06,0,0,1-1.07-.94.1.1,0,0,1,.08-.1.05.05,0,0,1,0,0c.33.54,1,.4,1.44.71a.1.1,0,0,1,0,.17.91.91,0,0,1-.48.13" transform="translate(-0.01 0)"/><path class="ab" d="M8.7,14.15a.67.67,0,0,1-.33-.1.92.92,0,0,1-.22-.22c-.05-.07,0-.16-.08-.23s0-.11.08-.11h.11a.77.77,0,0,1,.35.12A.64.64,0,0,1,9,14a.12.12,0,0,1,0,.11.43.43,0,0,1-.22.06" transform="translate(-0.01 0)"/><path class="ac" d="M19.33,10.79a.05.05,0,0,1,0-.09,4.22,4.22,0,0,0,.8-1.06c.22-.35.41-.74.66-1.07a.12.12,0,0,1,.09-.05.11.11,0,0,1,.12.1A1.92,1.92,0,0,1,20.53,10a2.53,2.53,0,0,1-.49.49c-.22.15-.46.21-.69.34h0" transform="translate(-0.01 0)"/><path class="ad" d="M22.52,5.88v0c0-.35.05-.69.1-1a7.19,7.19,0,0,1,.14-.93.08.08,0,0,1,.08-.06.12.12,0,0,1,.09.05S23,4,23,4h-.13a.19.19,0,0,0-.09.34.69.69,0,0,0,.35.11h0a4.19,4.19,0,0,1,.1.42.44.44,0,0,1,0,.1L23.2,5h-.13a.22.22,0,0,0-.13.39c0,.08-.07.16-.1.23a.13.13,0,0,0,0,.06l-.31.16M21.4,10.55c.11-.24.21-.49.3-.74v0a.43.43,0,0,0,.17-.28.08.08,0,0,0,0-.09c.06-.17.11-.35.16-.52a.82.82,0,0,0,.66-.7A.16.16,0,0,0,22.49,8h0a.41.41,0,0,0,0-.44.11.11,0,0,0-.09,0h0c.06-.36.11-.72.15-1.09A1.09,1.09,0,0,0,23,6h0a.26.26,0,0,0,.23-.16.61.61,0,0,0,.05-.12,2.26,2.26,0,0,1,0,.26,7.18,7.18,0,0,1-.06.79l-.18,0h0a.12.12,0,0,0-.09.16.64.64,0,0,0,.1.13l-.26.11a1.82,1.82,0,0,1-.39.14.08.08,0,0,0,0,.12.46.46,0,0,0,.39.2.63.63,0,0,0,.19,0,.81.81,0,0,0,.18-.1c0,.18-.08.36-.12.54a.23.23,0,0,0-.07.28c-.09.29-.19.58-.3.86a.79.79,0,0,0-.2.17h-.08a.33.33,0,0,0-.27.52L22,9.94a.3.3,0,0,0,0,.38l-.09.17c-.2,0-.39,0-.59.06M21,11.72s0,0,0,0a3.37,3.37,0,0,0,.15-.48h.07l.39,0c-.05.06-.1.13-.16.19s-.29.2-.41.34h0" transform="translate(-0.01 0)"/><path class="ae" d="M23.13,4.47a.69.69,0,0,1-.35-.11A.19.19,0,0,1,22.87,4H23a2.27,2.27,0,0,1,.16.46h0" transform="translate(-0.01 0)"/><path class="ae" d="M22,8.9c.1-.35.19-.69.26-1,0-.11.05-.21.07-.31h0a.11.11,0,0,1,.09,0,.41.41,0,0,1,0,.44h0a.16.16,0,0,1,.16.18.82.82,0,0,1-.66.7" transform="translate(-0.01 0)"/><path class="ae" d="M22.08,10.32a.3.3,0,0,1,0-.38l.08-.12a.33.33,0,0,1,.27-.52h.08a.79.79,0,0,1,.2-.17,9.12,9.12,0,0,1-.45.95l-.14.23" transform="translate(-0.01 0)"/><path class="ae" d="M21.7,9.79c.05-.12.09-.25.13-.37a.08.08,0,0,1,0,.09.43.43,0,0,1-.17.28" transform="translate(-0.01 0)"/><path class="ae" d="M22.79,7.59a.46.46,0,0,1-.39-.2.08.08,0,0,1,0-.12,1.82,1.82,0,0,0,.39-.14L23.09,7a.64.64,0,0,1-.1-.13.12.12,0,0,1,.09-.16h0l.18,0q0,.35-.12.69a.64.64,0,0,1-.18.1.63.63,0,0,1-.19,0m.18.69A.23.23,0,0,1,23,8l0,.09a1.33,1.33,0,0,0-.05.19" transform="translate(-0.01 0)"/><path class="ae" d="M22.47,6.46c0-.19,0-.39.05-.58l.31-.16a.13.13,0,0,1,0-.06c0-.07.06-.15.1-.23A.22.22,0,0,1,23.07,5h.13l.08,0a4.4,4.4,0,0,1,.06.73.61.61,0,0,1-.05.12.26.26,0,0,1-.23.16h0a1.09,1.09,0,0,1-.55.47" transform="translate(-0.01 0)"/><path class="ae" d="M21.15,11.21h-.07a.08.08,0,0,1,0,0,3.11,3.11,0,0,1,.2-.41l.1-.21c.2,0,.39,0,.59-.06l-.33.52-.12.18-.39,0" transform="translate(-0.01 0)"/></g></svg>