<svg xmlns="http://www.w3.org/2000/svg" xmlns:xlink="http://www.w3.org/1999/xlink" width="256px" height="256px" viewBox="0 0 18.99 19.21"><defs><style>.a{fill:none;}.b{clip-path:url(#a);}.c{fill:#455200;}.d{fill:#96b608;}.e{fill:#293b00;}.f{fill:#588200;}.g{fill:#182a00;}.h{fill:#374600;}.i{fill:#203200;}.j{fill:#132400;}.k{fill:#2b3c00;}.l{fill:#192b00;}.m{fill:#cada83;}.n{fill:#779c04;}.o{fill:#0e1e00;}.p{fill:#0f1f00;}.q{fill:#0b1a00;}.r{fill:#b4040a;}.s{fill:#e19a9d;}.t{fill:#9f0206;}.u{fill:#8c0104;}.v{fill:#cb3e43;}.w{fill:#bc3d40;}.x{fill:#af3c3f;}.y{fill:#7c0102;}.z{fill:#6e0101;}.aa{fill:#db676b;}.ab{fill:#d06669;}.ac{fill:#c76568;}.ad{fill:#610101;}.ae{fill:#b32629;}.af{fill:#a62528;}.ag{fill:#9b2427;}.ah{fill:#de8385;}.ai{fill:#d88285;}.aj{fill:#9e1719;}.ak{fill:#921719;}.al{fill:#550101;}.am{fill:#4b0101;}.an{fill:#8c0e0f;}.ao{fill:#810e0f;}.ap{fill:#790d0f;}.aq{fill:#a65f0d;}.ar{fill:#345d00;}.as{fill:#466f00;}.at{fill:#294f00;}.au{fill:#5e8502;}.av{fill:#375f00;}.aw{fill:#1f4200;}.ax{fill:#204400;}.ay{fill:#183800;}</style><clipPath id="a" transform="translate(0 -0.12)"><rect class="a" width="19.42" height="19.4"/></clipPath></defs><g class="b"><path class="c" d="M12.42,2.28c0,1.48-1.77,1.49-2.76,1.94A4.15,4.15,0,0,0,7.73,5.66,6.36,6.36,0,0,0,7,7.88a23.13,23.13,0,0,0-.28,2.49,4.52,4.52,0,0,1,.8-.38c.46-.18.91-.36,1.36-.57a5,5,0,0,0,1.24-.77,8.49,8.49,0,0,0,.88-1,4.42,4.42,0,0,0,.68-1.07A6.35,6.35,0,0,0,12,5.28c.12-.62.16-1.25.28-1.87a2.9,2.9,0,0,0,.14-1.09l0,0" transform="translate(0 -0.12)"/><path class="d" d="M12.35,2.71V2.62l0,0,0,0a.75.75,0,0,1,0,.16" transform="translate(0 -0.12)"/><path class="e" d="M12.35,2.72h0a.75.75,0,0,0,0-.16l0,0s0,.06,0,.09l-.05.11M6.72,10.28l.13-.07L7,10.15l-.28.13" transform="translate(0 -0.12)"/><path class="d" d="M12.31,2.84l0,0s0,0,0,0m-.19.29a1.88,1.88,0,0,1,.16-.23,1.32,1.32,0,0,1-.12.2l0,0m0,1.82.12-.88a7.58,7.58,0,0,0,.13-.81c0-.09.05-.18.07-.27a10.75,10.75,0,0,1-.23,1.58L12.08,5M6.66,10.29l0-.06v0h0" transform="translate(0 -0.12)"/><path class="e" d="M12.33,3.26a3.4,3.4,0,0,0,0-.45c0-.07,0-.13,0-.2v0c0,.14,0,.27,0,.4s-.05.18-.07.27m-.61.92A.69.69,0,0,1,11.79,4V4c0-.09.09-.19.14-.3s.11-.11.11-.17v0a1.61,1.61,0,0,0,.17-.43.1.1,0,0,0-.05,0,1.32,1.32,0,0,0,.12-.2h0l0-.05s0,0,0,0l0-.07s0,.06,0,.09a4.3,4.3,0,0,1-.64,1.37m-.94,1.05a.49.49,0,0,1,0-.12c.15-.12.31-.23.45-.36a1.87,1.87,0,0,0,.26-.3v0l0,0c-.23.25-.46.49-.7.73m-1.1,1a6.45,6.45,0,0,1,.75-.82.61.61,0,0,0,.15-.13.76.76,0,0,1,0,.15l-.07.07c-.26.26-.56.48-.82.73M7,10.15c.51-.25,1-.52,1.51-.78A7.93,7.93,0,0,0,10.33,8.1,5.79,5.79,0,0,0,11.24,7a4,4,0,0,0,.45-1.11c.16-.57.34-1.14.48-1.73l0-.13L12.08,5a15.39,15.39,0,0,1-.5,1.54,4.78,4.78,0,0,1-1.14,1.75A5.22,5.22,0,0,1,8.72,9.38L7,10.15m-.3.13v0a2.42,2.42,0,0,1,.42-.36,4.67,4.67,0,0,0,.45-.44l.08-.09.08-.08c.16-.16.29-.34.44-.52l.05-.06a2.09,2.09,0,0,1-.19.4,4.46,4.46,0,0,1-.35.5,1.83,1.83,0,0,1-.5.42,2.66,2.66,0,0,1-.33.21l-.15.07" transform="translate(0 -0.12)"/><path class="f" d="M12.2,4.07c0-.22.06-.44.1-.66l0-.15a7.58,7.58,0,0,1-.13.81" transform="translate(0 -0.12)"/><path class="g" d="M12.36,2.81s0-.06,0-.09l.05-.11c0,.07,0,.13,0,.2m-5.51,7.4A2.66,2.66,0,0,0,7.18,10a1.83,1.83,0,0,0,.5-.42A4.46,4.46,0,0,0,8,9.08a2.09,2.09,0,0,0,.19-.4c.45-.58.67-1.32,1.08-1.93a1.13,1.13,0,0,1,0,.18c0,.24,0,.48,0,.72a2,2,0,0,1-.27,1A.21.21,0,0,1,9,8.7l-.14.18A.51.51,0,0,0,9,8.7a.21.21,0,0,0,0-.06l0,0a2.5,2.5,0,0,0,.21-.35,2,2,0,0,0,.17-.85,3.53,3.53,0,0,0,0-.65c0-.06,0-.11,0-.17l.27-.37c.26-.25.56-.47.82-.73l.07-.07c0,.11,0,.22,0,.33,0,.27,0,.54,0,.81a2.75,2.75,0,0,1-.26.93c-.05.1-.1.22-.16.33A1,1,0,0,1,10,8l-.09.06A.24.24,0,0,0,10,8a.78.78,0,0,0,.14-.2,1.51,1.51,0,0,0,.09-.14,3.11,3.11,0,0,0,.22-.53,5.16,5.16,0,0,0,.2-1c0-.12,0-.25.06-.38s0-.26,0-.38a1.24,1.24,0,0,0,0-.16v0c.24-.24.47-.48.7-.73l0,0v.1a4.34,4.34,0,0,1,0,.51c0,.18,0,.36,0,.54s0,.25,0,.34a4.78,4.78,0,0,0,.23-.76,3.74,3.74,0,0,0,0-.67,1.34,1.34,0,0,1,.05-.35,4.3,4.3,0,0,0,.64-1.37,3.4,3.4,0,0,1,0,.45l0,.15c0,.22-.08.44-.1.66l0,.13c-.14.59-.32,1.16-.48,1.73A4,4,0,0,1,11.24,7a5.79,5.79,0,0,1-.91,1.06A7.93,7.93,0,0,1,8.51,9.37c-.5.26-1,.53-1.51.78l-.15.06" transform="translate(0 -0.12)"/><path class="h" d="M9.27,6.51c.09-.14.2-.27.3-.41a5.51,5.51,0,0,1,.67-.61l.09,0a14.73,14.73,0,0,0-1.05,1h0M6.82,10c-.05-.09,0-.35,0-.46s0-.35.07-.53,0-.55,0-.82a4.4,4.4,0,0,1,0-.51l.2-.08.09,0v0A.86.86,0,0,0,7,8.19a2.1,2.1,0,0,1,.52-.69L8,7.27l0,.06c-.11.14-.08.24-.06.41s-.12.3-.2.45a.85.85,0,0,0-.1.74.61.61,0,0,0,.32-.16,1.75,1.75,0,0,0,.21-.46A5.39,5.39,0,0,1,7.92,9a2.48,2.48,0,0,1-.27.39l-.28.24a2.4,2.4,0,0,1-.55.46" transform="translate(0 -0.12)"/><path class="i" d="M9.41,6.54s0-.07,0-.11h0l-.12.06a14.73,14.73,0,0,1,1.05-1l.1,0a6.45,6.45,0,0,0-.75.82l-.07.07-.2.24M7.65,9.34A2.48,2.48,0,0,0,7.92,9a5.39,5.39,0,0,0,.22-.64s0-.05,0-.08a9.54,9.54,0,0,1,.66-1.11l.33-.48h0a.12.12,0,0,1,.11.06l0,.07a3.92,3.92,0,0,0-.39.52,5.12,5.12,0,0,0-.25.53c-.07.16-.16.31-.22.47l-.15.39-.05.06c-.15.18-.28.36-.44.52l-.08.08" transform="translate(0 -0.12)"/><path class="j" d="M9.41,6.6h0V6.54l.2-.24.07-.07-.27.37M8.22,8.68l.15-.39c.06-.16.15-.31.22-.47a5.12,5.12,0,0,1,.25-.53,3.92,3.92,0,0,1,.39-.52l0-.07s0,0,0,0c-.41.61-.63,1.35-1.08,1.93" transform="translate(0 -0.12)"/><path class="k" d="M9,6.57a8.94,8.94,0,0,0,1-1l.19,0a5.51,5.51,0,0,0-.67.61c-.1.14-.21.27-.3.41L9,6.57M7.61,8.93a.85.85,0,0,1,.1-.74c.08-.15.21-.26.2-.45s0-.27.06-.41l0-.06a5.92,5.92,0,0,0,.68-.42l.07,0a1,1,0,0,1,.39-.17,6.29,6.29,0,0,0-1,1.53l0,.14a1.75,1.75,0,0,1-.21.46.61.61,0,0,1-.32.16" transform="translate(0 -0.12)"/><path class="l" d="M8.14,8.31l0-.14a6.29,6.29,0,0,1,1-1.53h0l-.33.48a9.54,9.54,0,0,0-.66,1.11s0,0,0,.08" transform="translate(0 -0.12)"/><path class="i" d="M10.79,5.11v0a.59.59,0,0,1,.13-.19l.1-.09h0a4,4,0,0,0,.42-.5h0s0,.09,0,.14a1.87,1.87,0,0,1-.26.3c-.14.13-.3.24-.45.36" transform="translate(0 -0.12)"/><path class="k" d="M10.18,5.38l.26-.33c.13-.14.25-.27.37-.42l.11-.12h0a1.8,1.8,0,0,0,.38-.16c-.17.22-.35.43-.53.64l0,0a2.88,2.88,0,0,1-.47.3l-.09,0" transform="translate(0 -0.12)"/><path class="l" d="M10.93,4.9,11,4.84l0,0-.1.09M10.74,5l0,0c.18-.21.36-.42.53-.64l.13-.06v0h0a4,4,0,0,1-.42.5h0l0,0c-.07,0-.12.12-.18.16l-.06,0" transform="translate(0 -0.12)"/><path class="m" d="M11.94,3.32l.18-.19,0,.05a.93.93,0,0,1-.14.14" transform="translate(0 -0.12)"/><path class="h" d="M11.54,3.74l.12-.17.24-.2,0-.05a.93.93,0,0,0,.14-.14c0,.08-.09.15-.13.22a2.64,2.64,0,0,1-.41.34" transform="translate(0 -0.12)"/><path class="n" d="M12.08,3.18l0-.05,0,0-.08.08" transform="translate(0 -0.12)"/><path class="i" d="M12,3.49V3.44h0a.84.84,0,0,0,.05-.17l.05-.06-.05,0h0L12,3.4c0-.07.09-.14.13-.22l.08-.08a.1.1,0,0,1,.05,0,1.61,1.61,0,0,1-.17.43" transform="translate(0 -0.12)"/><path class="k" d="M11.17,4.22l.37-.48A2.64,2.64,0,0,0,12,3.4l-.23.37L11.55,4a1.89,1.89,0,0,1-.38.27" transform="translate(0 -0.12)"/><path class="l" d="M12.08,3.26h0l.05,0-.05.06m-.36.51L12,3.4l.13-.14a.84.84,0,0,1-.05.17s0,0,0,0-.14.17-.22.26l-.09.1" transform="translate(0 -0.12)"/><path class="i" d="M11.8,4c0-.09.08-.17.12-.27l0,0c0,.11-.09.21-.14.3" transform="translate(0 -0.12)"/><path class="g" d="M11.5,4.47v0a3.62,3.62,0,0,0,.22-.32L11.8,4V4a.69.69,0,0,0-.07.15,3.15,3.15,0,0,1-.22.29" transform="translate(0 -0.12)"/><path class="o" d="M11.43,6c0-.09,0-.24,0-.34s0-.36,0-.54a4.34,4.34,0,0,0,0-.51v-.1a3.15,3.15,0,0,0,.22-.29,1.34,1.34,0,0,0-.05.35,3.74,3.74,0,0,1,0,.67,4.78,4.78,0,0,1-.23.76" transform="translate(0 -0.12)"/><path class="g" d="M11.94,3.7,12,3.52l0,0v0c0,.06-.07.12-.11.17" transform="translate(0 -0.12)"/><path class="j" d="M11.5,4.45s0-.11,0-.14.23-.36.35-.53A3.56,3.56,0,0,0,12,3.43h0v.05l0,0-.08.18,0,0c0,.1-.08.18-.12.27l-.08.13a3.62,3.62,0,0,1-.22.32" transform="translate(0 -0.12)"/><path class="l" d="M10.92,4.51l.25-.29A1.89,1.89,0,0,0,11.55,4l.17-.18c-.05.09-.11.17-.16.25l-.24.33a1.8,1.8,0,0,1-.38.16h0" transform="translate(0 -0.12)"/><path class="p" d="M11.32,4.35,11.56,4c0-.08.11-.16.16-.25l.09-.1c.08-.09.11-.21.22-.26s0,0,0,0a3.56,3.56,0,0,1-.22.35c-.12.17-.23.35-.35.53v0l-.13.06" transform="translate(0 -0.12)"/><path class="o" d="M10,8a1,1,0,0,0,.14-.2A.78.78,0,0,1,10,8m-.09.06L10,8a.24.24,0,0,1-.09.06" transform="translate(0 -0.12)"/><path class="g" d="M10.57,5.43a.76.76,0,0,0,0-.15.61.61,0,0,1-.15.13l.24-.21.12-.09a.49.49,0,0,0,0,.12l-.21.2" transform="translate(0 -0.12)"/><path class="o" d="M10.14,7.83c.06-.11.11-.23.16-.33a2.75,2.75,0,0,0,.26-.93c0-.27,0-.54,0-.81,0-.11,0-.22,0-.33l.21-.2v0a1.24,1.24,0,0,1,0,.16c0,.12,0,.26,0,.38s-.05.26-.06.38a5.16,5.16,0,0,1-.2,1,3.11,3.11,0,0,1-.22.53,1.51,1.51,0,0,1-.09.14" transform="translate(0 -0.12)"/><path class="i" d="M10.24,5.49l.09-.07.27-.23-.27.27-.09,0" transform="translate(0 -0.12)"/><path class="j" d="M10.33,5.46l.27-.27.33-.29a.59.59,0,0,0-.13.19v0l-.12.09-.24.21-.1,0" transform="translate(0 -0.12)"/><path class="l" d="M10.05,5.54l.1-.12,0,0,.09,0a2.88,2.88,0,0,0,.47-.3l-.14.15-.27.23-.09.07-.19,0" transform="translate(0 -0.12)"/><path class="p" d="M10.6,5.19,10.74,5l.06,0c.06,0,.11-.11.18-.16l-.05.06-.33.29" transform="translate(0 -0.12)"/><path class="j" d="M11,4.81h0" transform="translate(0 -0.12)"/><path class="p" d="M11,4.84l0,0h0l0,0" transform="translate(0 -0.12)"/><path class="o" d="M9.07,8.64a2,2,0,0,0,.27-1c0-.24,0-.48,0-.72a1.13,1.13,0,0,0,0-.18h0l.11-.15c0,.06,0,.11,0,.17a3.53,3.53,0,0,1,0,.65,2,2,0,0,1-.17.85,2.5,2.5,0,0,1-.21.35l0,0M9,8.7a.21.21,0,0,0,0-.06A.21.21,0,0,1,9,8.7m-.14.18L9,8.7a.51.51,0,0,1-.14.18" transform="translate(0 -0.12)"/><path class="i" d="M9.22,6.56l0,0h0l0,0h0M7,8.19a.86.86,0,0,1,.29-.58v0l.22-.09A2.1,2.1,0,0,0,7,8.19" transform="translate(0 -0.12)"/><path class="j" d="M9.28,6.7a.12.12,0,0,0-.11-.06h0l.05-.08h0l0,0,.12-.06h0s0,.07,0,.11l-.13.16" transform="translate(0 -0.12)"/><path class="q" d="M9.3,6.75s0,0,0,0l.13-.16V6.6h0l-.11.15h0" transform="translate(0 -0.12)"/><path class="l" d="M8.7,6.85l.11-.09L9,6.57l.23-.06,0,0-.06.08a1,1,0,0,0-.39.17l-.07,0" transform="translate(0 -0.12)"/><path class="p" d="M9.16,6.64l.06-.08-.05.08h0" transform="translate(0 -0.12)"/><path class="r" d="M3.1,11.91A3.55,3.55,0,0,0,4.27,18c2.29.69,5.19.12,5.84-2.37a2.59,2.59,0,0,0-1.85-3.44,3.8,3.8,0,0,1-1-.11c-.18-.1-.32-.51-.56-.66A1.65,1.65,0,0,0,5.4,11,3.41,3.41,0,0,0,3,12.05l.14-.14" transform="translate(0 -0.12)"/><path class="s" d="M2.84,12.17a1.7,1.7,0,0,1,1-.8h0A2.45,2.45,0,0,0,3,12l-.14.15" transform="translate(0 -0.12)"/><path class="t" d="M7.4,12.22h0m-5,.95a3.55,3.55,0,0,1,.32-.78,1.55,1.55,0,0,1,.12-.22L3,12a2.45,2.45,0,0,1,.86-.65h.07a.62.62,0,0,1,.26.06l-.37.2a5,5,0,0,0-1,1,5.13,5.13,0,0,0-.41.59m7.31.15A2.22,2.22,0,0,0,9.33,13l-.22-.14A1.43,1.43,0,0,0,8,12.31a1.66,1.66,0,0,0-.32,0h0a.34.34,0,0,0-.19-.07H7.39s.06,0,.17,0a3.77,3.77,0,0,1,.62.06,2.52,2.52,0,0,1,1.09.53,2.42,2.42,0,0,1,.44.55M8.34,17.48l.14-.09.07,0-.21.13m-2.23.57H5.94a4.2,4.2,0,0,1-1.6-.37A1.71,1.71,0,0,1,4,17.51l.11,0a6.38,6.38,0,0,0,1.44.24c.44,0,.9.08,1.35.08h.4a1.53,1.53,0,0,0,.36-.07,4.56,4.56,0,0,1-1.56.26" transform="translate(0 -0.12)"/><path class="t" d="M6.91,11.68l0,0,0,0h0m-1,0a1,1,0,0,0-.23-.18A1.65,1.65,0,0,0,5,11.32H4.94l-.05-.05a.06.06,0,0,0,0,.06h.05l0,0h0a1.3,1.3,0,0,0-.57.18.4.4,0,0,0-.18-.1,3.12,3.12,0,0,1,1-.28l.37,0a1.78,1.78,0,0,1,.63.11,2,2,0,0,1,.37.18H6.42l0,0a.08.08,0,0,1,0,0,.18.18,0,0,1,.13.09l0,0-.14,0a.17.17,0,0,0-.18.15,1.29,1.29,0,0,0-.26.08m.37,5.09a3.4,3.4,0,0,1-2.19-2,2.74,2.74,0,0,1-.28-1.2,2,2,0,0,1,.43-.5A.94.94,0,0,1,4.46,13a.42.42,0,0,1,0,.1,1.81,1.81,0,0,0,.15,1.37A1.69,1.69,0,0,0,6,15a2.39,2.39,0,0,0,1.39-.42,1.35,1.35,0,0,0,.48-1.32.84.84,0,0,0,.33-.16v0a4.26,4.26,0,0,1,.15,1.7A2,2,0,0,1,7,16.59a3.73,3.73,0,0,1-.67.21M4,17.51a3.07,3.07,0,0,1-2.08-2.63,3.22,3.22,0,0,1,.47-1.71,4.06,4.06,0,0,0,.36,3A3.55,3.55,0,0,0,4,17.51m3.66.28a3.39,3.39,0,0,0,.67-.31,2.26,2.26,0,0,1-.67.31" transform="translate(0 -0.12)"/><path class="u" d="M9.11,12.81a2.63,2.63,0,0,0-.76-.26l0-.06A.61.61,0,0,0,8,12.31a1.43,1.43,0,0,1,1.12.5M2.69,14.29a1.1,1.1,0,0,0,.64,1.76.75.75,0,0,0,.52-.25.93.93,0,0,0-.1-1.35,1.35,1.35,0,0,0-.73-.2.56.56,0,0,0-.33.08v0m4.22,3.58c-.45,0-.91-.05-1.35-.08a6.38,6.38,0,0,1-1.44-.24l-.11,0a3.55,3.55,0,0,1-1.25-1.38,4.06,4.06,0,0,1-.36-3,5.13,5.13,0,0,1,.41-.59,5,5,0,0,1,1-1l.37-.2a.4.4,0,0,1,.18.1,2.26,2.26,0,0,0-.44.31c-.41.41-1,1.13-.71,1.75a.44.44,0,0,0,.35.29.29.29,0,0,0,.16-.06,1,1,0,0,0,.13-.2v0a2.74,2.74,0,0,0,.28,1.2,3.4,3.4,0,0,0,2.19,2A6.76,6.76,0,0,1,4.7,17a11.12,11.12,0,0,1-1.16-.06,8.28,8.28,0,0,0,3.19.86h0a4.27,4.27,0,0,0,1.72-.38l-.14.09a3.39,3.39,0,0,1-.67.31,1.53,1.53,0,0,1-.36.07h-.4" transform="translate(0 -0.12)"/><path class="v" d="M4.46,13a2.21,2.21,0,0,1,.84-.85h.07c.14,0,.33,0,.33-.21v0A1.65,1.65,0,0,1,6,11.71c.27.27.39.69,0,.93s-1,.08-1.45.32" transform="translate(0 -0.12)"/><path class="w" d="M4.75,11.44h0m.94.41c-.05-.21-.41-.35-.7-.38l-.23,0h.11a.32.32,0,0,0-.14,0,.63.63,0,0,0-.36.13h0a1.3,1.3,0,0,1,.57-.18H5l0,0H5a1.65,1.65,0,0,1,.69.21,1,1,0,0,1,.23.18,1.65,1.65,0,0,0-.26.14M3.85,13.58A2.44,2.44,0,0,1,4,13a2.62,2.62,0,0,1,.29-.58l.2-.08a1.92,1.92,0,0,1,.86-.24,2.21,2.21,0,0,0-.84.85.94.94,0,0,0-.18.12,2,2,0,0,0-.43.5" transform="translate(0 -0.12)"/><path class="x" d="M3.55,13.87a.44.44,0,0,1-.35-.29c-.29-.62.3-1.34.71-1.75a2.26,2.26,0,0,1,.44-.31h0a.54.54,0,0,0-.18.19,1.07,1.07,0,0,0-.14.16c-.06.1-.17.38-.08.5a.21.21,0,0,0,.16.07l.11,0A2.62,2.62,0,0,0,4,13a2.44,2.44,0,0,0-.1.57v0a1,1,0,0,1-.13.2.29.29,0,0,1-.16.06" transform="translate(0 -0.12)"/><path class="w" d="M4.89,11.34a.06.06,0,0,1,0-.06l.05.05H4.89" transform="translate(0 -0.12)"/><path class="t" d="M7.51,12.31l-.06,0h.2l0,0H7.51m.1,1A1.28,1.28,0,0,1,7,13.12c-.49-.29-.53-.7-.72-1.17a.63.63,0,0,1,0-.32l.19,0h.21a3,3,0,0,1,.13.55.91.91,0,0,0,.46.56.72.72,0,0,0,.32.07h.12l.09.13a1.64,1.64,0,0,1,.1.38l-.22,0" transform="translate(0 -0.12)"/><path class="u" d="M8,12.31H7.68l0,0h0a1.66,1.66,0,0,1,.32,0" transform="translate(0 -0.12)"/><path class="u" d="M6.21,11.63a.17.17,0,0,1,.18-.15l.14,0,0,0a.22.22,0,0,1,.05.08H6.4l-.19,0m1.54.73H7.69l-.18,0h.17l.07.06m.08.92a1.64,1.64,0,0,0-.1-.38l-.09-.13A.45.45,0,0,0,8,12.61a2.28,2.28,0,0,1,.21.51.84.84,0,0,1-.33.16" transform="translate(0 -0.12)"/><path class="y" d="M8.35,12.55c-.12,0-.25,0-.37-.06s-.12-.11-.23-.13l-.07-.06H8a.61.61,0,0,1,.32.18l0,.06" transform="translate(0 -0.12)"/><path class="t" d="M7.41,12.27a1,1,0,0,1-.2-.13l.18.08h0l.07,0-.06,0" transform="translate(0 -0.12)"/><polyline class="u" points="7.4 12.1 7.38 12.1 7.39 12.1 7.4 12.1 7.4 12.1"/><path class="t" d="M6.89,11.64l-.13,0a.92.92,0,0,0-.23-.2.64.64,0,0,1,.36.23m.32.5a.83.83,0,0,1-.29-.25,2,2,0,0,0-.22-.29h.06a.3.3,0,0,1,0,.1l.11,0a2.22,2.22,0,0,1,.15.23,1.14,1.14,0,0,0,.15.23m.1.15.1,0,0,0H7.31" transform="translate(0 -0.12)"/><path class="u" d="M6.44,11.47l0,0h0a.08.08,0,0,0,0,0m.32.14H6.7l-.14-.08a.18.18,0,0,0-.13-.09h.1a.92.92,0,0,1,.23.2m0,.1a.3.3,0,0,0,0-.1l.13,0,0,0-.11,0" transform="translate(0 -0.12)"/><path class="u" d="M7.52,12.78a.72.72,0,0,1-.32-.07.91.91,0,0,1-.46-.56,3,3,0,0,0-.13-.55H6.7a2,2,0,0,1,.22.29.83.83,0,0,0,.29.25,1,1,0,0,0,.2.13l-.1,0h.14l.06,0a.11.11,0,0,0-.09.09c0,.1.12.25.22.37H7.52" transform="translate(0 -0.12)"/><path class="y" d="M6.7,11.6H6.61a.22.22,0,0,0-.05-.08l.14.08m.94,1.17c-.1-.12-.24-.27-.22-.37a.11.11,0,0,1,.09-.09l.18,0h.06l.1.11h0l-.08-.09-.16.07.24,0,.11.14a.45.45,0,0,1-.31.16" transform="translate(0 -0.12)"/><path class="z" d="M8,12.49l-.13,0-.1-.11c.11,0,.23,0,.23.13" transform="translate(0 -0.12)"/><path class="v" d="M8.72,17.26a3.12,3.12,0,0,0,.74-.57,2.23,2.23,0,0,0,.19-.24,2.1,2.1,0,0,1-.66.7.59.59,0,0,1-.27.11" transform="translate(0 -0.12)"/><path class="aa" d="M5.3,12.11l.09-.06a2.61,2.61,0,0,1,.3-.2v0c0,.18-.19.2-.33.21H5.3" transform="translate(0 -0.12)"/><path class="ab" d="M4.24,12.43a.64.64,0,0,0,.08-.14A2,2,0,0,0,4.47,12l.28-.05c.15,0,.67,0,.52-.25A.39.39,0,0,0,5,11.47c.29,0,.65.17.7.38a2.61,2.61,0,0,0-.3.2l-.09.06a1.92,1.92,0,0,0-.86.24l-.2.08" transform="translate(0 -0.12)"/><path class="ac" d="M4.13,12.45A.21.21,0,0,1,4,12.38c-.09-.12,0-.4.08-.5a1.07,1.07,0,0,1,.14-.16.25.25,0,0,0,0,.07c0,.15,0,.19.17.19l.15,0a2,2,0,0,1-.15.33.64.64,0,0,1-.08.14l-.11,0" transform="translate(0 -0.12)"/><polyline class="ab" points="4.76 11.31 4.75 11.31 4.75 11.31 4.76 11.31 4.76 11.31"/><path class="x" d="M3.33,16.05a1.1,1.1,0,0,1-.64-1.76v0A.56.56,0,0,1,3,14.25a1.35,1.35,0,0,1,.73.2.93.93,0,0,1,.1,1.35.75.75,0,0,1-.52.25" transform="translate(0 -0.12)"/><path class="t" d="M9.65,16.45a2,2,0,0,0,.13-.25,1.9,1.9,0,0,0,.14-.48,3.48,3.48,0,0,0,.16-1.2,2.71,2.71,0,0,0-.37-1.2,2.63,2.63,0,0,1-.06,3.13m-1.1.9.13-.08h0l-.17.09" transform="translate(0 -0.12)"/><path class="u" d="M9.92,15.72a3.21,3.21,0,0,0,0-1,2.1,2.1,0,0,0-.15-.5s0-.07,0-.11a2.41,2.41,0,0,0-.64-1.32h0l.22.14a2.22,2.22,0,0,1,.38.37,2.71,2.71,0,0,1,.37,1.2,3.48,3.48,0,0,1-.16,1.2M8.48,17.39l.15-.13h0l-.13.08-.07,0" transform="translate(0 -0.12)"/><path class="u" d="M6.75,16.85a2,2,0,0,1-.43-.05A3.73,3.73,0,0,0,7,16.59a2,2,0,0,0,1.33-1.74,4.26,4.26,0,0,0-.15-1.7v0a.18.18,0,0,0,.07,0l0,0a2.79,2.79,0,0,1,.35,1,2.81,2.81,0,0,1-.24,1.83,1.92,1.92,0,0,1-1.2.9,2,2,0,0,1-.42,0" transform="translate(0 -0.12)"/><path class="y" d="M6.73,17.77a8.28,8.28,0,0,1-3.19-.86A11.12,11.12,0,0,0,4.7,17a6.76,6.76,0,0,0,1.62-.17,2,2,0,0,0,.43.05,2,2,0,0,0,.42,0,1.92,1.92,0,0,0,1.2-.9,2.81,2.81,0,0,0,.24-1.83,2.79,2.79,0,0,0-.35-1,.37.37,0,0,0,.09-.49,2.63,2.63,0,0,1,.76.26h0a2.41,2.41,0,0,1,.64,1.32s0,.08,0,.11a.85.85,0,0,0-.31-.38l0,0H9.37l.08,0a1.8,1.8,0,0,1,.11,1.21,4.22,4.22,0,0,1-.75,1.57c-.08.11-.29.32-.28.47a.14.14,0,0,0,.1.15l-.15.13a4.27,4.27,0,0,1-1.72.38h0" transform="translate(0 -0.12)"/><path class="y" d="M8.16,13.12A2.28,2.28,0,0,0,8,12.61H8l0,.05a2.7,2.7,0,0,1,.27.39l0,0a.18.18,0,0,1-.07,0" transform="translate(0 -0.12)"/><path class="z" d="M8.26,13A2.7,2.7,0,0,0,8,12.65l0-.05v0a.18.18,0,0,0,0-.09c.12,0,.25,0,.37.06a.37.37,0,0,1-.09.49" transform="translate(0 -0.12)"/><path class="z" d="M8,12.61l-.11-.14h0a1.47,1.47,0,0,0,.1.13H8" transform="translate(0 -0.12)"/><path class="ad" d="M8,12.6a1.47,1.47,0,0,1-.1-.13l.13,0a.18.18,0,0,1,0,.09v0" transform="translate(0 -0.12)"/><path class="ae" d="M8.68,17.27h0L9,17.05a2.89,2.89,0,0,0,.94-1.24l0-.09a1.9,1.9,0,0,1-.14.48,2,2,0,0,1-.13.25,2.23,2.23,0,0,1-.19.24,3.12,3.12,0,0,1-.74.57h0" transform="translate(0 -0.12)"/><path class="af" d="M8.68,17.27h0a3,3,0,0,0,.93-1.43,5,5,0,0,0,.2-1.59,2.1,2.1,0,0,1,.15.5,3.21,3.21,0,0,1,0,1l0,.09A2.89,2.89,0,0,1,9,17.05l-.27.22" transform="translate(0 -0.12)"/><path class="ag" d="M9.45,13.86l-.08,0h.06l0,0m-.82,3.4a.14.14,0,0,1-.1-.15c0-.15.2-.36.28-.47a4.22,4.22,0,0,0,.75-1.57,1.8,1.8,0,0,0-.11-1.21.85.85,0,0,1,.31.38,5,5,0,0,1-.2,1.59,3,3,0,0,1-.93,1.43" transform="translate(0 -0.12)"/><path class="z" d="M7.84,12.47l-.24,0,.16-.07.08.09" transform="translate(0 -0.12)"/><path class="ab" d="M4.41,11.56l0,0a.63.63,0,0,1,.36-.13.32.32,0,0,1,.14,0H4.75a1,1,0,0,0-.34.12" transform="translate(0 -0.12)"/><path class="ac" d="M4.19,11.72a.54.54,0,0,1,.18-.19l0,0a1.25,1.25,0,0,0-.22.16" transform="translate(0 -0.12)"/><path class="ab" d="M4.67,11.48l.09,0,.23,0H4.84a.42.42,0,0,0-.17,0" transform="translate(0 -0.12)"/><path class="ah" d="M4.47,12a.4.4,0,0,0,0-.24.35.35,0,0,0-.08-.16,1,1,0,0,1,.34-.12h0l-.09,0a.42.42,0,0,1,.17,0H5a.39.39,0,0,1,.28.19c.15.28-.37.23-.52.25L4.47,12" transform="translate(0 -0.12)"/><path class="ai" d="M4.32,12c-.12,0-.21,0-.17-.19a.25.25,0,0,1,0-.07,1.25,1.25,0,0,1,.22-.16.35.35,0,0,1,.08.16.4.4,0,0,1,0,.24l-.15,0" transform="translate(0 -0.12)"/><path class="ah" d="M4.76,11.43h0" transform="translate(0 -0.12)"/><path class="r" d="M10.94,14.24a3.61,3.61,0,0,0,3.43,5.09c3.61.06,5.05-2.39,4.51-4.91a2.59,2.59,0,0,0-3.2-2.24c-.28.07-.64.34-.92.33s-.52-.31-.8-.34a1.68,1.68,0,0,0-1.37.23,3.38,3.38,0,0,0-1.71,2l.06-.19" transform="translate(0 -0.12)"/><path class="t" d="M14.92,12.6c-.08-.06.61-.32.71-.34a4.29,4.29,0,0,1,.7-.08,1.79,1.79,0,0,1,.51.07,3.07,3.07,0,0,1,.64.29l-.34-.12a1.71,1.71,0,0,0-.51-.09,1.22,1.22,0,0,0-.45-.08,1.77,1.77,0,0,0-.69.16,2,2,0,0,0-.31.13H15.1a.24.24,0,0,0-.18.07" transform="translate(0 -0.12)"/><path class="s" d="M10.83,14.58a1.68,1.68,0,0,1,.51-1.13l0,0a2.46,2.46,0,0,0-.47,1l-.06.19" transform="translate(0 -0.12)"/><path class="t" d="M14.92,12.6h0m-4,3.09a3.45,3.45,0,0,1-.08-.85c0-.08,0-.17,0-.26l.06-.19a2.46,2.46,0,0,1,.47-1,.64.64,0,0,1,.32-.11l-.24.36A5.27,5.27,0,0,0,11,15a3.92,3.92,0,0,0-.1.71" transform="translate(0 -0.12)"/><path class="t" d="M14.24,12.33l0,0h0m-2.35,1h-.21a3.09,3.09,0,0,1,.76-.68,1.89,1.89,0,0,1,.93-.37h.42l-.09,0v0h0l0,0v0h0l.1,0h0c-.21,0-.25.14-.22.25a1.8,1.8,0,0,0-.2.19,1.4,1.4,0,0,0-.28-.06H13a1.47,1.47,0,0,0-.72.17l-.06,0a.05.05,0,0,0,0,0l0,0h0a1.21,1.21,0,0,0-.46.42m3,3.86a4.33,4.33,0,0,1-1.69-.84,2.8,2.8,0,0,1-.79-.94,1.86,1.86,0,0,1,.15-.65l.11-.19s0,.07,0,.11a1.74,1.74,0,0,0,.74,1.15A1.31,1.31,0,0,0,14,16a2.27,2.27,0,0,0,1.37-.54,1.73,1.73,0,0,1-.25,1.5,1.27,1.27,0,0,1-.27.25m-2.38,1.36a2.8,2.8,0,0,1-1.23-1.13,3.25,3.25,0,0,1-.35-1.73,4,4,0,0,0,.89,1.8l0,.06c-.16-.15-.31-.31-.45-.46l.5.72a1.85,1.85,0,0,0,.52.6l.15.14" transform="translate(0 -0.12)"/><path class="u" d="M15.92,12.47l-.06,0a.54.54,0,0,0-.21,0l-.16,0a1.77,1.77,0,0,1,.69-.16,1.22,1.22,0,0,1,.45.08h-.05a1.69,1.69,0,0,0-.63.13h0m-2.47,5.1h-.17a.84.84,0,0,0,.08-.19.94.94,0,0,0-.69-1.16h-.11a1.23,1.23,0,0,0-.9.38v0a1,1,0,0,0,.21.89l-.08,0a4,4,0,0,1-.89-1.8A3.92,3.92,0,0,1,11,15a5.27,5.27,0,0,1,.45-1.3l.24-.36h.21a1.8,1.8,0,0,0-.26.49c-.18.54-.38,1.45.15,1.87a.55.55,0,0,0,.32.13.25.25,0,0,0,.24-.15.85.85,0,0,0,0-.23v0a2.8,2.8,0,0,0,.79.94,4.33,4.33,0,0,0,1.69.84,2.38,2.38,0,0,1-1.3.38h-.1" transform="translate(0 -0.12)"/><path class="v" d="M12.63,14.57A2.27,2.27,0,0,1,13,13.43l.06,0c.12-.07.28-.17.2-.33l0,0a1.46,1.46,0,0,1,.17-.24c.37.12.66.44.38.85s-.84.52-1.15.93" transform="translate(0 -0.12)"/><path class="w" d="M12.17,13.1l0,0h0l0,0m-.26.24h0a1.21,1.21,0,0,1,.46-.42h0a1.47,1.47,0,0,1,.72-.17h.08a1.4,1.4,0,0,1,.28.06,1.46,1.46,0,0,0-.17.24.45.45,0,0,0-.34-.11,1.44,1.44,0,0,0-.46.08l-.22.08h0l.1-.05h0a.49.49,0,0,0-.38.31m.46,2.07a2,2,0,0,1-.17-.56,2.36,2.36,0,0,1,0-.65l.14-.16a2.25,2.25,0,0,1,.66-.61,2.27,2.27,0,0,0-.37,1.14l-.11.19a1.86,1.86,0,0,0-.15.65" transform="translate(0 -0.12)"/><path class="x" d="M12.1,15.82a.55.55,0,0,1-.32-.13c-.53-.42-.33-1.33-.15-1.87a1.8,1.8,0,0,1,.26-.49h0a.49.49,0,0,0-.08.25.65.65,0,0,0-.05.2c0,.12,0,.42.15.48a.15.15,0,0,0,.09,0,.28.28,0,0,0,.18-.09,2.36,2.36,0,0,0,0,.65,2,2,0,0,0,.17.56v0a.85.85,0,0,1,0,.23.25.25,0,0,1-.24.15" transform="translate(0 -0.12)"/><path class="w" d="M12.29,12.93a.05.05,0,0,1,0,0l.06,0,0,0" transform="translate(0 -0.12)"/><path class="t" d="M15,12.64l.18-.1h0a.54.54,0,0,0-.15.09H15m-.12.94c-.51-.06-.73-.4-1.1-.72a.56.56,0,0,1-.18-.26l.16-.11.18-.09a4.12,4.12,0,0,1,.37.43.91.91,0,0,0,.66.3h0a1,1,0,0,0-.14.45" transform="translate(0 -0.12)"/><path class="u" d="M15.21,12.54h0a2,2,0,0,1,.31-.13l-.15.08-.13,0" transform="translate(0 -0.12)"/><path class="u" d="M13.6,12.6c0-.11,0-.21.22-.25h0a.24.24,0,0,1,.08.06l-.18.09-.16.11m1.46,0a.54.54,0,0,1,.15-.09l.09,0-.06,0-.18,0" transform="translate(0 -0.12)"/><path class="y" d="M15.57,12.58h0a.12.12,0,0,0-.09,0,.59.59,0,0,0-.17,0l-.09,0,.13,0,.15-.08.16,0a.54.54,0,0,1,.21,0l.06,0-.35.11" transform="translate(0 -0.12)"/><path class="t" d="M14.93,12.64a.71.71,0,0,1-.21,0H15l-.05,0h0" transform="translate(0 -0.12)"/><polyline class="u" points="14.91 12.48 14.92 12.48 14.92 12.48 14.92 12.48 14.91 12.48"/><path class="t" d="M14.07,12.34a.72.72,0,0,0-.28-.07.28.28,0,0,1,.13,0,.73.73,0,0,1,.29.07l-.14,0m.63.27a.7.7,0,0,1-.35-.09,1.26,1.26,0,0,0-.33-.16l.05,0s.07,0,.08.07l.09-.08a1.7,1.7,0,0,1,.24.14,1,1,0,0,0,.24.14h0m.18.09.07-.06H15l-.12.06" transform="translate(0 -0.12)"/><path class="u" d="M13.72,12.36l0,0h0v0m.3,0-.13,0h0l-.1,0h0v0l.09,0a.72.72,0,0,1,.28.07l-.05,0m.13.05s0-.05-.08-.07l.14,0,0,0-.09.08" transform="translate(0 -0.12)"/><path class="u" d="M15,13.13h0a.91.91,0,0,1-.66-.3,4.12,4.12,0,0,0-.37-.43l.08,0a1.26,1.26,0,0,1,.33.16.7.7,0,0,0,.35.09h0a.71.71,0,0,0,.21,0h0l-.07.06.12-.06h.06a.1.1,0,0,0,0,.12.41.41,0,0,0,.18.15,1,1,0,0,0-.18.23h0" transform="translate(0 -0.12)"/><path class="y" d="M13.94,12.4a.24.24,0,0,0-.08-.06h0l.13,0-.08,0m1.5.23h0m0,.06h-.14l.16,0h0l-.05,0m-.22.21a.41.41,0,0,1-.18-.15.1.1,0,0,1,0-.12l.18,0,.06,0,.11,0h0l-.09,0-.07.09h0l0,0,.07,0h.13a1.39,1.39,0,0,0-.21.21" transform="translate(0 -0.12)"/><path class="z" d="M15.54,12.59l0,0h0m-.13,0-.11,0a.59.59,0,0,1,.17,0,.12.12,0,0,1,.09,0l-.15,0m0,0h0l.12,0-.1,0" transform="translate(0 -0.12)"/><path class="aa" d="M13,13.43l.05-.09.18-.31,0,0c.08.16-.08.26-.2.33l-.06,0" transform="translate(0 -0.12)"/><path class="ab" d="M12.2,14.2a.86.86,0,0,1,0-.16,2.3,2.3,0,0,0,0-.36l.23-.17c.12-.08.61-.28.35-.46a.42.42,0,0,0-.21-.06h-.13a1.44,1.44,0,0,1,.46-.08.45.45,0,0,1,.34.11l-.18.31-.05.09a2.25,2.25,0,0,0-.66.61l-.14.16" transform="translate(0 -0.12)"/><path class="ac" d="M12,14.29a.15.15,0,0,1-.09,0c-.13-.06-.16-.36-.15-.48a.65.65,0,0,1,.05-.2v.08c0,.09.06.12.12.12a.47.47,0,0,0,.24-.11,2.3,2.3,0,0,1,0,.36.86.86,0,0,0,0,.16.28.28,0,0,1-.18.09" transform="translate(0 -0.12)"/><polyline class="ab" points="12.21 12.96 12.21 12.96 12.21 12.96 12.21 12.96 12.21 12.96"/><path class="x" d="M13.28,17.57c-.39,0-.77-.1-1.16-.14H12a.38.38,0,0,0-.16,0,1,1,0,0,1-.21-.89v0a1.23,1.23,0,0,1,.9-.38h.11a.94.94,0,0,1,.69,1.16.84.84,0,0,1-.08.19" transform="translate(0 -0.12)"/><path class="t" d="M18.82,14.31a2.93,2.93,0,0,0-.92-1.43h0a2.72,2.72,0,0,0-.42-.34,2.51,2.51,0,0,1,1.34,1.77" transform="translate(0 -0.12)"/><path class="u" d="M17.9,12.88a2.45,2.45,0,0,0-.76-.46l.34.12a2.72,2.72,0,0,1,.42.34" transform="translate(0 -0.12)"/><path class="z" d="M15.47,12.64h0l0,0h0m-.22,0,.07-.09.09,0-.15.05h0m0,0,0,0h0l.16,0h0l-.16,0h0l-.07,0" transform="translate(0 -0.12)"/><path class="ad" d="M15.47,12.64l0,0,.1,0h0l-.07.05" transform="translate(0 -0.12)"/><path class="y" d="M15.92,12.47h0" transform="translate(0 -0.12)"/><path class="z" d="M15.57,12.58h0l.35-.11h0l-.18.08-.17,0" transform="translate(0 -0.12)"/><path class="ad" d="M15.54,12.59h0" transform="translate(0 -0.12)"/><path class="ab" d="M12,13.35h0a.49.49,0,0,1,.38-.31h0l-.1.05h0l0,0,0,0a1.66,1.66,0,0,0-.26.27" transform="translate(0 -0.12)"/><path class="ac" d="M11.83,13.59a.49.49,0,0,1,.08-.25h0a.9.9,0,0,0-.12.24" transform="translate(0 -0.12)"/><path class="ab" d="M12.15,13.16l.06-.08.22-.08a1,1,0,0,0-.28.16" transform="translate(0 -0.12)"/><path class="ah" d="M12.19,13.68a.43.43,0,0,0-.09-.23.27.27,0,0,0-.15-.1,1.66,1.66,0,0,1,.26-.27h0l-.06.08a1,1,0,0,1,.28-.16h.13a.42.42,0,0,1,.21.06c.26.18-.23.38-.35.46l-.23.17" transform="translate(0 -0.12)"/><path class="ai" d="M12,13.79c-.06,0-.1,0-.12-.12v-.08a.9.9,0,0,1,.12-.24.27.27,0,0,1,.15.1.43.43,0,0,1,.09.23.47.47,0,0,1-.24.11" transform="translate(0 -0.12)"/><polyline class="ah" points="12.21 12.96 12.22 12.95 12.21 12.96 12.21 12.96"/><path class="t" d="M14.6,19.3a4.68,4.68,0,0,1-.76-.06,2.75,2.75,0,0,1-1.37-.69l.11.05a3.08,3.08,0,0,0,1.31.5,4.49,4.49,0,0,0,.64,0,8.22,8.22,0,0,0,1.92-.26,2.54,2.54,0,0,0,.47-.14,5.09,5.09,0,0,1-2.32.56" transform="translate(0 -0.12)"/><path class="u" d="M11.8,17.81l-.5-.72c.14.15.29.31.45.46a.27.27,0,0,0,0,.17l0,.09m.78.79-.11-.05-.15-.14.23.17,0,0" transform="translate(0 -0.12)"/><path class="t" d="M18.71,16.61a3.66,3.66,0,0,0,.12-1.14.38.38,0,0,0,0-.1,2.91,2.91,0,0,0,0-1.06,3.85,3.85,0,0,1-.11,2.3" transform="translate(0 -0.12)"/><path class="u" d="M17.14,12.42l-.16,0-.26,0-.09,0a1.71,1.71,0,0,1,.51.09" transform="translate(0 -0.12)"/><path class="y" d="M16,12.46a1.69,1.69,0,0,1,.63-.13h.05l.09,0h-.08a2.74,2.74,0,0,0-.69.1" transform="translate(0 -0.12)"/><path class="ae" d="M18.83,15.47v-.1a.38.38,0,0,1,0,.1" transform="translate(0 -0.12)"/><path class="u" d="M18.84,15.37a2.62,2.62,0,0,0,0-.28,2.13,2.13,0,0,0-.1-.49,3.35,3.35,0,0,0-.4-1.15,2.69,2.69,0,0,0-.45-.57h0a2.93,2.93,0,0,1,.92,1.43,2.91,2.91,0,0,1,0,1.06" transform="translate(0 -0.12)"/><path class="y" d="M18.75,14.6a3,3,0,0,0-.45-.87.47.47,0,0,0-.09-.12,2.57,2.57,0,0,0-.34-.39,2.46,2.46,0,0,0-1.15-.86h0l.26,0,.16,0a2.45,2.45,0,0,1,.76.46,2.69,2.69,0,0,1,.45.57,3.35,3.35,0,0,1,.4,1.15" transform="translate(0 -0.12)"/><path class="z" d="M17.87,13.22a2.55,2.55,0,0,0-1.76-.69H16l-.08-.06h0a2.74,2.74,0,0,1,.69-.1h.08a2.46,2.46,0,0,1,1.15.86" transform="translate(0 -0.12)"/><path class="ad" d="M15.74,12.55l.18-.08.08.06-.26,0" transform="translate(0 -0.12)"/><path class="aj" d="M18.83,15.43a3,3,0,0,0,0-.42,1.67,1.67,0,0,0,0-.31.31.31,0,0,0,0-.1,2.13,2.13,0,0,1,.1.49,2.62,2.62,0,0,1,0,.28v.06" transform="translate(0 -0.12)"/><path class="ak" d="M18.78,15a4,4,0,0,0-.32-1,2.91,2.91,0,0,0-.25-.42.47.47,0,0,1,.09.12,3,3,0,0,1,.45.87.31.31,0,0,1,0,.1,1.67,1.67,0,0,1,0,.31" transform="translate(0 -0.12)"/><path class="z" d="M15.29,12.68h0m.12,0h0" transform="translate(0 -0.12)"/><path class="ad" d="M15.28,12.68h0" transform="translate(0 -0.12)"/><path class="t" d="M16.92,18.74l.18-.1a3.92,3.92,0,0,0,1.61-2,4,4,0,0,1-.5,1.1,2.6,2.6,0,0,1-1.29,1" transform="translate(0 -0.12)"/><path class="y" d="M14.14,18.54l-.48,0a15.32,15.32,0,0,0,1.91-.23,4.43,4.43,0,0,1-.44.14,4.41,4.41,0,0,1-1,.11" transform="translate(0 -0.12)"/><path class="t" d="M15.37,15.44l0-.16a6.56,6.56,0,0,1-.45-1.67v0h.17a1.19,1.19,0,0,0,.74-.24A1.34,1.34,0,0,1,16,14.74a2,2,0,0,1-.58.7" transform="translate(0 -0.12)"/><path class="u" d="M15.44,17.25a3,3,0,0,1-.59-.06,1.27,1.27,0,0,0,.27-.25,1.73,1.73,0,0,0,.25-1.5,2,2,0,0,0,.58-.7,1.34,1.34,0,0,0-.16-1.39,1,1,0,0,0,.23-.29v0a4.54,4.54,0,0,1,.91,1.46,2,2,0,0,1-.41,2.15,5.9,5.9,0,0,1-.51.49,2.3,2.3,0,0,1-.58.07m-2.94.89a4.63,4.63,0,0,1-.75-.59l0-.06a4,4,0,0,0,.72.65" transform="translate(0 -0.12)"/><path class="y" d="M13.61,18.51a3.41,3.41,0,0,1-.59-.13,2.71,2.71,0,0,1-.52-.24,4,4,0,0,1-.72-.65l.08,0a1.18,1.18,0,0,0,.86.46.61.61,0,0,0,.56-.34h.27a2.38,2.38,0,0,0,1.3-.38,3,3,0,0,0,.59.06,2.3,2.3,0,0,0,.58-.07,8.36,8.36,0,0,1-2.41,1.33" transform="translate(0 -0.12)"/><path class="u" d="M15.05,13.59h-.17a1,1,0,0,1,.14-.45.92.92,0,0,0,.36-.15l.14.08a1.86,1.86,0,0,1,.27.29,1.19,1.19,0,0,1-.74.24" transform="translate(0 -0.12)"/><path class="y" d="M15.79,13.35a1.86,1.86,0,0,0-.27-.29L15.38,13a.41.41,0,0,0,.2-.25l.11,0c.12.09.22.19.33.29a1,1,0,0,1-.23.29" transform="translate(0 -0.12)"/><path class="y" d="M15,13.13a1,1,0,0,1,.18-.23l.18.08a.92.92,0,0,1-.36.15" transform="translate(0 -0.12)"/><path class="z" d="M15.38,13l-.18-.08a1.39,1.39,0,0,1,.21-.21h0a.09.09,0,0,1,0,.06l-.05,0,.05,0,.08-.05.12,0a.41.41,0,0,1-.2.25" transform="translate(0 -0.12)"/><path class="ag" d="M12.72,17.91a1.18,1.18,0,0,1-.86-.46.38.38,0,0,1,.16,0h.1c.39,0,.77.12,1.16.14a.61.61,0,0,1-.56.34" transform="translate(0 -0.12)"/><path class="y" d="M16,17.18a5.9,5.9,0,0,0,.51-.49,2,2,0,0,0,.41-2.15A4.54,4.54,0,0,0,16,13.08v0l0-.08h0l.11.08a3.63,3.63,0,0,1,1.07,1.44,3,3,0,0,1,.19,1.22,1.83,1.83,0,0,1-.64,1.08,2,2,0,0,1-.76.38" transform="translate(0 -0.12)"/><path class="z" d="M13.66,18.52h-.05A8.36,8.36,0,0,0,16,17.18a2,2,0,0,0,.76-.38,1.83,1.83,0,0,0,.64-1.08,3,3,0,0,1-.38,1.4,3.12,3.12,0,0,1-1.47,1.17,15.32,15.32,0,0,1-1.91.23" transform="translate(0 -0.12)"/><path class="z" d="M16,13.06c-.11-.1-.21-.2-.33-.29a1.62,1.62,0,0,1,.36.21h0l0,.08" transform="translate(0 -0.12)"/><path class="u" d="M12.32,18.41a1.85,1.85,0,0,1-.52-.6,7.73,7.73,0,0,0,.52.6" transform="translate(0 -0.12)"/><path class="z" d="M15.46,12.7h0l.05,0,0,0-.06,0" transform="translate(0 -0.12)"/><path class="ad" d="M15.59,12.63l0-.05.17,0-.15.08" transform="translate(0 -0.12)"/><path class="ad" d="M15.52,12.67l0,0h0l.06,0h0" transform="translate(0 -0.12)"/><path class="al" d="M15.53,12.67l-.06,0,.07-.05h0l0,.05-.06,0" transform="translate(0 -0.12)"/><path class="u" d="M14.53,19.14a4.49,4.49,0,0,1-.64,0,3.08,3.08,0,0,1-1.31-.5,3.27,3.27,0,0,0,1.31.27l.39,0h.37a4.18,4.18,0,0,0,1.59-.39,4.66,4.66,0,0,0,1.43-1,2.44,2.44,0,0,0,.47-.58l.12-.21.11-.15a.85.85,0,0,0,.2-.23,2.19,2.19,0,0,0,.26-.82,3.66,3.66,0,0,1-.12,1.14,3.92,3.92,0,0,1-1.61,2l-.18.1a2.54,2.54,0,0,1-.47.14,8.22,8.22,0,0,1-1.92.26" transform="translate(0 -0.12)"/><path class="y" d="M18.14,16.88c0-.05.05-.1.07-.14l.05-.07-.12.21m-3.64,2h-.22l.11,0a6.3,6.3,0,0,0,1.4-.43,11.43,11.43,0,0,0,1.59-.73,1.94,1.94,0,0,0,.29-.21,4.66,4.66,0,0,1-1.43,1,4.18,4.18,0,0,1-1.59.39H14.5" transform="translate(0 -0.12)"/><path class="y" d="M17.67,17.46a4.41,4.41,0,0,0,.47-.58,2.44,2.44,0,0,1-.47.58m-3.78,1.41a3.27,3.27,0,0,1-1.31-.27l0,0-.23-.17a7.73,7.73,0,0,1-.52-.6l0-.09a.27.27,0,0,1,0-.17,4.63,4.63,0,0,0,.75.59l0,0a3.63,3.63,0,0,0,1.74.69l-.39,0" transform="translate(0 -0.12)"/><path class="z" d="M14.28,18.85a3.63,3.63,0,0,1-1.74-.69l0,0a2.71,2.71,0,0,0,.52.24,3.41,3.41,0,0,0,.59.13h.05l.48,0a4.41,4.41,0,0,0,1-.11,4.43,4.43,0,0,0,.44-.14,5.42,5.42,0,0,0,1.28-.45,4.15,4.15,0,0,0,1.36-1.1s-.05.09-.07.14a4.41,4.41,0,0,1-.47.58,1.94,1.94,0,0,1-.29.21,11.43,11.43,0,0,1-1.59.73,6.3,6.3,0,0,1-1.4.43l-.11,0" transform="translate(0 -0.12)"/><path class="z" d="M15.69,12.77l-.11,0v0l.1.07" transform="translate(0 -0.12)"/><path class="ad" d="M15.58,12.73l-.12,0,.06,0,.07,0v0" transform="translate(0 -0.12)"/><path class="aj" d="M18.37,16.52a3.31,3.31,0,0,0,.4-.85,1.05,1.05,0,0,0,.06-.24v0a2.19,2.19,0,0,1-.26.82.85.85,0,0,1-.2.23" transform="translate(0 -0.12)"/><path class="ad" d="M13.59,18.52h0" transform="translate(0 -0.12)"/><path class="y" d="M18.26,16.67l.08-.14h0l-.11.15" transform="translate(0 -0.12)"/><path class="z" d="M18.21,13.61a2.25,2.25,0,0,0-.27-.26l-.05-.1,0,0a2.57,2.57,0,0,1,.34.39m0,3.13.09-.19,0,0-.08.14-.05.07" transform="translate(0 -0.12)"/><path class="z" d="M17.42,15.72a3,3,0,0,0-.19-1.22,3.63,3.63,0,0,0-1.07-1.44L16.05,13v0a2.89,2.89,0,0,1,.78.78,2.87,2.87,0,0,1,.62,1.74c0,.08,0,.17,0,.26" transform="translate(0 -0.12)"/><path class="ad" d="M15.57,18.29A3.12,3.12,0,0,0,17,17.12a3,3,0,0,0,.38-1.4c0-.09,0-.18,0-.26a2.87,2.87,0,0,0-.62-1.74,2.89,2.89,0,0,0-.78-.78.37.37,0,0,0-.06-.41h.11a2.55,2.55,0,0,1,1.76.69l0,0,.05.1a.81.81,0,0,0-.44-.21h0l-.05,0h.09c.3.14.56.75.64,1a4.13,4.13,0,0,1,0,1.75c0,.13-.11.42,0,.54a.13.13,0,0,0,.12.09h0l-.09.19a4.15,4.15,0,0,1-1.36,1.1,5.42,5.42,0,0,1-1.28.45" transform="translate(0 -0.12)"/><path class="ad" d="M16.05,13a1.62,1.62,0,0,0-.36-.21l-.1-.07h0l.05,0a2.1,2.1,0,0,1,.42.22v0" transform="translate(0 -0.12)"/><path class="al" d="M16.06,12.94a2.1,2.1,0,0,0-.42-.22l-.05,0v-.06l.15-.08.26,0a.37.37,0,0,1,.06.41" transform="translate(0 -0.12)"/><path class="al" d="M15.59,12.7l-.07,0h0l.06,0h0" transform="translate(0 -0.12)"/><path class="am" d="M15.59,12.69l-.06,0,.06,0v.06" transform="translate(0 -0.12)"/><path class="an" d="M18.34,16.53c.05-.1.1-.21.14-.31a3.27,3.27,0,0,0,.3-1.21,3,3,0,0,1,0,.42,1.05,1.05,0,0,1-.06.24,3.31,3.31,0,0,1-.4.85h0" transform="translate(0 -0.12)"/><path class="ao" d="M18.3,16.55a3,3,0,0,0,.18-1.69,5,5,0,0,0-.54-1.51,2.25,2.25,0,0,1,.27.26,2.91,2.91,0,0,1,.25.42,4,4,0,0,1,.32,1,3.27,3.27,0,0,1-.3,1.21c0,.1-.09.21-.14.31l0,0" transform="translate(0 -0.12)"/><path class="ap" d="M17.41,13.15l.05,0h-.05m.85,3.4a.13.13,0,0,1-.12-.09c-.08-.12,0-.41,0-.54a4.13,4.13,0,0,0,0-1.75c-.08-.28-.34-.89-.64-1a.81.81,0,0,1,.44.21,5,5,0,0,1,.54,1.51,3,3,0,0,1-.18,1.69h0" transform="translate(0 -0.12)"/><path class="ad" d="M15.41,12.69h0m0,.06a.09.09,0,0,0,0-.06h.05l-.08.05m-.05,0,.05,0-.05,0" transform="translate(0 -0.12)"/><path class="z" d="M15.19,12.68h0" transform="translate(0 -0.12)"/><path class="ad" d="M15.25,12.67h0" transform="translate(0 -0.12)"/><path class="z" d="M15.56,12.57h0" transform="translate(0 -0.12)"/><polyline class="z" points="15.42 12.5 15.41 12.49 15.41 12.49 15.42 12.49 15.42 12.5"/><path class="ad" d="M15.42,12.62h0l.15,0h0l0,0h0l-.12,0" transform="translate(0 -0.12)"/><path class="ad" d="M15.26,12.66l.15-.05h0l-.16,0" transform="translate(0 -0.12)"/><polyline class="al" points="15.54 12.47 15.54 12.47 15.54 12.47 15.54 12.47"/><path class="aq" d="M7,12a13.47,13.47,0,0,0,3-3.09,16.92,16.92,0,0,0,2.32-4.8,4.83,4.83,0,0,0,.13-2.84c-.09-.28-.38-.76-.18-1s.49-.1.64.08a2,2,0,0,1,.28,1.21A41.33,41.33,0,0,0,14,8.09a20.6,20.6,0,0,0,.76,3c.16.45.35.89.52,1.33-.14,0-.35.09-.48,0s-.31.16-.33,0c0-.32-.84-3.57-.89-3.88S13.05,3.67,12.87,3a3,3,0,0,0-.15.94c0,.34-.08.67-.15,1a7.3,7.3,0,0,1-.73,2c-.48.9-1.14,1.68-1.7,2.52a8.68,8.68,0,0,1-1.6,1.82c-.28.23-.54.47-.84.68s-.56.48-.79.14H7" transform="translate(0 -0.12)"/><path class="aq" d="M7.52,11.61c-.15,0-.27.05-.42,0s-.28-.1-.36.09.17.65.41.78a.46.46,0,0,0,.69-.2c.06-.17,0-.21-.12-.35a.34.34,0,0,1,0-.34c-.09-.08-.19,0-.28,0h.07" transform="translate(0 -0.12)"/><path class="aq" d="M14.4,11.93c0,.16-.1.2-.24.26s-.21.13-.16.28c.1.31.53.32.79.32s.64,0,.78-.25-.33-.26-.47-.34-.16-.17-.29-.2a.73.73,0,0,0-.41.05v-.12" transform="translate(0 -0.12)"/><path class="d" d="M12.66,2c-1,1.81-3.24.69-4.79.61a6,6,0,0,0-3.41.51A9.33,9.33,0,0,0,2,5.35,32,32,0,0,0,0,8.22a6,6,0,0,1,1.27,0c.69.08,1.39.15,2.09.18a7.42,7.42,0,0,0,2.1-.15,13.17,13.17,0,0,0,1.78-.66,6.73,6.73,0,0,0,1.57-.88,8.94,8.94,0,0,0,1.34-1.34c.56-.69,1-1.44,1.6-2.12a4,4,0,0,0,.91-1.25V2" transform="translate(0 -0.12)"/><path class="f" d="M.55,8.15l-.45,0H.31l.24,0" transform="translate(0 -0.12)"/><path class="d" d="M12.44,2.31h0l0,0m-.16.17.06-.11.08-.06v0a1.85,1.85,0,0,1-.14.14" transform="translate(0 -0.12)"/><path class="e" d="M12.42,2.34v0h0l0,0" transform="translate(0 -0.12)"/><path class="f" d="M12.28,2.5v0a1.85,1.85,0,0,0,.14-.14l0,0,0,0,.07,0-.11.14-.14.12" transform="translate(0 -0.12)"/><path class="d" d="M11.59,3.55l.3-.41c.09-.1.18-.19.26-.29-.13.21-.26.41-.41.61l-.15.09" transform="translate(0 -0.12)"/><path class="e" d="M11.41,3.77l.18-.22.15-.09a.44.44,0,0,1-.08.11l-.16.13-.09.07" transform="translate(0 -0.12)"/><path class="l" d="M10.44,5.05l.38-.52.1,0-.11.12c-.12.15-.24.28-.37.42" transform="translate(0 -0.12)"/><path class="i" d="M11.35,3.85l.06-.08.09-.07.16-.13-.12.17-.14.08-.05,0" transform="translate(0 -0.12)"/><path class="l" d="M11,4.29,11.18,4l.17-.19.05,0,.14-.08-.37.48L11,4.29" transform="translate(0 -0.12)"/><path class="p" d="M10.82,4.53,11,4.29l.17-.07-.25.29-.1,0" transform="translate(0 -0.12)"/><path class="f" d="M11.89,3.14a5.84,5.84,0,0,0,.33-.53l.2-.23h0c-.09.16-.18.32-.28.48s-.17.19-.26.29m-8,5.21-.69,0c-.89-.07-1.79-.11-2.68-.17H3.11a11.35,11.35,0,0,0,3-.38A8.21,8.21,0,0,0,8,7.07,5.63,5.63,0,0,0,9.29,6c.59-.6,1.2-1.18,1.76-1.81L11.18,4,11,4.29l-.18.24-.38.52A22.6,22.6,0,0,1,8.77,6.62,7,7,0,0,1,6.16,8a7.78,7.78,0,0,1-2.24.32" transform="translate(0 -0.12)"/><path class="d" d="M.07,8.11H0l.1,0,0,0" transform="translate(0 -0.12)"/><path class="f" d="M8.61,4.55a.45.45,0,0,1,.1-.14,7.67,7.67,0,0,0,.81-.15,3.28,3.28,0,0,0,.52-.2v0l0,0c-.45.17-.91.31-1.37.45m-2.06.52A9.73,9.73,0,0,1,8,4.55a1,1,0,0,0,.29-.07l-.12.18-.14,0c-.5.15-1,.23-1.52.37M.31,8.13l-.24,0,0,0a2.81,2.81,0,0,1,.76-.18,6.22,6.22,0,0,0,.87-.25l.15,0,.16,0c.31-.1.61-.23.91-.35l.11,0a4.87,4.87,0,0,1-.52.37,5.56,5.56,0,0,1-.77.39,2.84,2.84,0,0,1-.91.19l-.56.05" transform="translate(0 -0.12)"/><path class="d" d="M12.14,2.61l0,0s0,0,0,0m-.43.23.36-.18-.29.17h-.07" transform="translate(0 -0.12)"/><path class="f" d="M10.51,3.88a.93.93,0,0,1,.18-.16l0,0,.38-.27c.08-.05.21-.07.26-.15v0a1.79,1.79,0,0,0,.49-.42l-.08,0,.29-.17h0l.05,0s0,0,0,0l.09-.06-.06.11a6.3,6.3,0,0,1-1.71,1.27" transform="translate(0 -0.12)"/><path class="f" d="M11.52,3.58l.23-.28.14-.16-.3.41-.07,0" transform="translate(0 -0.12)"/><path class="g" d="M11.35,3.8a1.84,1.84,0,0,0,.17-.22l.07,0-.18.22-.06,0" transform="translate(0 -0.12)"/><path class="j" d="M11.31,3.86l0-.06.06,0-.06.08h0" transform="translate(0 -0.12)"/><path class="p" d="M11.18,4l.13-.18h0L11.18,4" transform="translate(0 -0.12)"/><path class="ar" d="M12.22,2.61l.06-.11.14-.12-.2.23M3.11,8.16H.55l-.24,0,.56-.05a2.84,2.84,0,0,0,.91-.19,5.56,5.56,0,0,0,.77-.39,4.87,4.87,0,0,0,.52-.37C4,6.71,4.8,5.94,5.73,5.47a2,2,0,0,1-.09.22,9.59,9.59,0,0,1-.47.9,2.78,2.78,0,0,1-1,1l-.1,0a1.48,1.48,0,0,1-.29.12.67.67,0,0,0,.29-.12l.1,0,0,0a2.43,2.43,0,0,0,.49-.29,2.88,2.88,0,0,0,.78-.92,4.4,4.4,0,0,0,.41-.81c0-.09,0-.16.07-.24l.59-.28c.5-.14,1-.22,1.52-.37l.14,0c-.08.13-.17.26-.25.4-.19.32-.32.67-.52,1a3.73,3.73,0,0,1-1,1,4.85,4.85,0,0,1-.41.3,1.82,1.82,0,0,1-.32.15H5.63l.12,0a1.15,1.15,0,0,0,.32-.15l.2-.12a3.67,3.67,0,0,0,.62-.5,6.67,6.67,0,0,0,.92-1.07c.1-.15.23-.28.32-.44s.19-.31.29-.44.12-.11.16-.18l0,0c.46-.14.92-.28,1.37-.45l0,0a1.39,1.39,0,0,0-.06.13,6.61,6.61,0,0,1-.35.63c-.14.21-.28.41-.4.63a3.12,3.12,0,0,0-.27.4,7.37,7.37,0,0,0,.79-.79,4.59,4.59,0,0,0,.46-.81,1.66,1.66,0,0,1,.31-.39,6.3,6.3,0,0,0,1.71-1.27,5.84,5.84,0,0,1-.33.53l-.14.16-.23.28a1.84,1.84,0,0,1-.17.22l0,.06L11.18,4l-.13.15C10.49,4.82,9.88,5.4,9.29,6A5.63,5.63,0,0,1,8,7.07a8.21,8.21,0,0,1-1.86.71,11.35,11.35,0,0,1-3,.38" transform="translate(0 -0.12)"/><path class="n" d="M8.4,3,8,2.94l0-.06L8.4,3m1.24.21a1.2,1.2,0,0,1-.2,0l.2,0M6.82,4l-.44-.19a2.76,2.76,0,0,0-.66-.14c.13-.14.11-.31-.1-.35H5.45l-.29,0-.28,0H4.76c0-.31.47-.48.73-.53a4.49,4.49,0,0,1,1-.09h0a7.84,7.84,0,0,1,1.37.12l.14,0-.07.07H8l-.1.14A4.08,4.08,0,0,0,7,3H7a2.23,2.23,0,0,1,.46.13,1.25,1.25,0,0,1,.27.1.12.12,0,0,1,0,0A3.19,3.19,0,0,1,7,3.89L6.82,4m-1.91.42a3.55,3.55,0,0,1-.46,0,1,1,0,0,1,.23-.12c.2-.07.38-.06.54-.21a4.12,4.12,0,0,1,.41-.32h0a2.06,2.06,0,0,1,.91.2l.17.1-.52.19a2.53,2.53,0,0,1-.66.15c-.21,0-.42,0-.64,0" transform="translate(0 -0.12)"/><path class="n" d="M5.86,5.14h0l.66-.3a6.18,6.18,0,0,1,1.25-.31h.14c-.68.19-1.37.35-2,.6M.46,7.9H.38c0-.15.29-.4.38-.54s.29-.4.44-.6.39-.66.61-1a6.31,6.31,0,0,1,.73-1,5.5,5.5,0,0,1,.53-.45,3.68,3.68,0,0,1,.38-.31,2.21,2.21,0,0,0,1,.34.43.43,0,0,0-.21.33,1,1,0,0,1,0,.25L3.69,5a4.86,4.86,0,0,0-1,.25c-.25.08-.65.25-.76.52A3.05,3.05,0,0,1,3.35,5.2c.23,0,.47,0,.7,0-.12.07-.27.08-.39.14s-.27.25-.36.46-.35.3-.56.44a1.21,1.21,0,0,0-.62.84c.11,0,.22,0,.32,0a.48.48,0,0,0,.2,0,2.79,2.79,0,0,0,.57-.42,6,6,0,0,1-.7.63,2.6,2.6,0,0,1-.62.32l-.51.1a3.63,3.63,0,0,1-.92.22" transform="translate(0 -0.12)"/><path class="as" d="M8.71,4.41v0A1.17,1.17,0,0,1,9,4.25l.19,0h0a5.41,5.41,0,0,0,.87-.34h0a.53.53,0,0,1-.05.2,3.28,3.28,0,0,1-.52.2,7.67,7.67,0,0,1-.81.15M6,5.27l.09-.12H5.86c.66-.25,1.35-.41,2-.6H8a9.73,9.73,0,0,0-1.49.52l-.14,0L6,5.27M1.89,7.58a2.6,2.6,0,0,0,.62-.32,6,6,0,0,0,.7-.63l.11-.08a13.78,13.78,0,0,1,1.57-.93l.74-.38h0a.17.17,0,0,1,.1.15l-.11.05a7.13,7.13,0,0,0-.85.38c-.23.15-.44.33-.66.5s-.41.28-.6.43l-.44.38L3,7.18c-.3.12-.6.25-.91.35l-.16,0" transform="translate(0 -0.12)"/><path class="at" d="M6,5.35H6a.2.2,0,0,1,0-.08l.41-.16.14,0L6,5.35M3.07,7.13l.44-.38c.19-.15.4-.28.6-.43s.43-.35.66-.5a7.13,7.13,0,0,1,.85-.38l.11-.05v.08C4.8,5.94,4,6.71,3.07,7.13" transform="translate(0 -0.12)"/><path class="au" d="M8,4.36H7.89A2.52,2.52,0,0,1,6.82,4L7,3.89a3.19,3.19,0,0,0,.66-.61.12.12,0,0,0,0,0l.11,0c.25.09.51.16.74.26s.47.17.7.24a2.32,2.32,0,0,0,.59,0c-.36.16-.74.31-1.1.44l-.1,0a5.36,5.36,0,0,1-.7.06m-2.14.78C5.57,5.1,5.3,5,5,5L4.31,5H4.23a1,1,0,0,0,0-.25.43.43,0,0,1,.21-.33,3.55,3.55,0,0,0,.46,0c.22,0,.43,0,.64,0a2.53,2.53,0,0,0,.66-.15L6.73,4a2.69,2.69,0,0,0,.72.41l.3.08a6.18,6.18,0,0,0-1.25.31l-.66.3m-3.4,2c-.1,0-.21,0-.32,0a1.21,1.21,0,0,1,.62-.84c.21-.14.45-.19.56-.44s.12-.35.36-.46.27-.07.39-.14H5.31a.7.7,0,0,1,.3,0A8.94,8.94,0,0,0,3.37,6.49l-.16.14a2.79,2.79,0,0,1-.57.42.48.48,0,0,1-.2,0" transform="translate(0 -0.12)"/><path class="av" d="M9,4.25l.1,0h.09L9,4.25m-.34,0,.1,0c.36-.13.74-.28,1.1-.44h.2v0h0a5.41,5.41,0,0,1-.87.34l-.05,0-.05,0c-.11,0-.23.07-.33.08l-.11,0M3.21,6.63l.16-.14A8.94,8.94,0,0,1,5.61,5.24h0l-.74.38a13.78,13.78,0,0,0-1.57.93l-.11.08" transform="translate(0 -0.12)"/><path class="as" d="M10.72,3.7l.33-.24,0,0-.38.27" transform="translate(0 -0.12)"/><path class="m" d="M11.36,3c.12,0,.23-.09.35-.12l-.08.05L11.36,3" transform="translate(0 -0.12)"/><path class="n" d="M9.44,3.14l-.39-.05C8.83,3.06,8.61,3,8.4,3c.31,0,.62.1.94.17h.1m.9.08a5.49,5.49,0,0,1-.7-.05l.34,0a3.15,3.15,0,0,0,.56,0c.24,0,.49-.09.73-.15l.09,0,.27-.07a2,2,0,0,0-.32.18,3.44,3.44,0,0,1-1,.15h0" transform="translate(0 -0.12)"/><path class="n" d="M11.63,2.89l.08-.05h.07l-.15.06" transform="translate(0 -0.12)"/><path class="as" d="M11.37,3.23l0-.07h0A.62.62,0,0,0,11.57,3l.1,0-.09,0h0l-.26.1a2,2,0,0,1,.32-.18l.15-.06.08,0a1.79,1.79,0,0,1-.49.42" transform="translate(0 -0.12)"/><path class="au" d="M9.79,3.56a2.46,2.46,0,0,1-.53-.06,11.21,11.21,0,0,1-1.08-.34l-.31-.08L8,2.94,8.4,3c.21,0,.43.1.65.13l.39.05a1.2,1.2,0,0,0,.2,0,5.49,5.49,0,0,0,.7.05h0a3.44,3.44,0,0,0,1-.15l-.54.3a2.07,2.07,0,0,1-.33.1,2.48,2.48,0,0,1-.65.09" transform="translate(0 -0.12)"/><path class="av" d="M11.57,3h0l.09,0-.1,0m-.8.4.54-.3.26-.1a.62.62,0,0,1-.18.18l0,0h0c-.17,0-.28.13-.43.18l-.19.07" transform="translate(0 -0.12)"/><path class="n" d="M8,2.88H8l0-.06a.25.25,0,0,1,0,.07" transform="translate(0 -0.12)"/><path class="au" d="M8,2.94H7.9L8,2.87H8l0,.06" transform="translate(0 -0.12)"/><path class="ar" d="M10,4.08v0l.49-.25a1.18,1.18,0,0,0,.19-.11l0,0a.93.93,0,0,0-.18.16l-.48.2" transform="translate(0 -0.12)"/><path class="aw" d="M9,5.87a3.12,3.12,0,0,1,.27-.4c.12-.22.26-.42.4-.63A6.61,6.61,0,0,0,10,4.21,1.39,1.39,0,0,1,10,4.08l.48-.2a1.66,1.66,0,0,0-.31.39,4.59,4.59,0,0,1-.46.81A7.37,7.37,0,0,1,9,5.87" transform="translate(0 -0.12)"/><path class="ar" d="M11.1,3.43l.22-.17,0,0v0c0,.08-.18.1-.26.15" transform="translate(0 -0.12)"/><path class="as" d="M6.93,3h0m.81.23a1.25,1.25,0,0,0-.27-.1A2.23,2.23,0,0,0,7,3H7a4.08,4.08,0,0,1,.85.08l-.13.15" transform="translate(0 -0.12)"/><path class="at" d="M10,4.06a.53.53,0,0,0,.05-.2l.79-.43a2.89,2.89,0,0,0,.51-.28h0l0,.07,0,0-.22.17,0,0-.33.24a1.18,1.18,0,0,1-.19.11L10,4.06" transform="translate(0 -0.12)"/><path class="av" d="M9.88,3.82a2.32,2.32,0,0,1-.59,0c-.23-.07-.47-.15-.7-.24s-.49-.17-.74-.26l-.11,0,.13-.15.31.08a11.21,11.21,0,0,0,1.08.34,2.46,2.46,0,0,0,.53.06,2.48,2.48,0,0,0,.65-.09,2.07,2.07,0,0,0,.33-.1c-.12.07-.24.14-.37.2l-.52.25" transform="translate(0 -0.12)"/><path class="ax" d="M10.09,3.86v0h-.2l.52-.25c.13-.06.25-.13.37-.2L11,3.3c.15,0,.26-.18.43-.18h0l0,0a2.89,2.89,0,0,1-.51.28l-.79.43" transform="translate(0 -0.12)"/><path class="aw" d="M5.75,7.48a1.82,1.82,0,0,0,.32-.15,1.15,1.15,0,0,1-.32.15m-.12,0h.12l-.12,0" transform="translate(0 -0.12)"/><path class="f" d="M4.09,4.32a2.12,2.12,0,0,1,.81-.59,2.12,2.12,0,0,1,.57-.08l.25,0,0,0-.06.05a1.86,1.86,0,0,0-.42,0,2.76,2.76,0,0,0-1.12.53" transform="translate(0 -0.12)"/><path class="ar" d="M8.21,4.66l.12-.18A1,1,0,0,1,8,4.55a3.63,3.63,0,0,1,.45-.1l.22,0a.45.45,0,0,0-.1.14l-.4.11" transform="translate(0 -0.12)"/><path class="aw" d="M6.07,7.33A4.85,4.85,0,0,0,6.48,7a3.73,3.73,0,0,0,1-1c.2-.32.33-.67.52-1,.08-.14.17-.27.25-.4l.4-.11,0,0c0,.07-.11.11-.16.18s-.19.3-.29.44-.22.29-.32.44a6.67,6.67,0,0,1-.92,1.07,3.67,3.67,0,0,1-.62.5l-.2.12" transform="translate(0 -0.12)"/><path class="as" d="M6.73,4l-.17-.1a2.06,2.06,0,0,0-.91-.2h0l.06-.05,0,0a2.76,2.76,0,0,1,.66.14L6.82,4,6.73,4" transform="translate(0 -0.12)"/><path class="as" d="M7.89,4.54H7.75l.16,0,.5-.1-.52.15" transform="translate(0 -0.12)"/><path class="at" d="M8,4.55H7.89l.52-.15L9,4.25a1.17,1.17,0,0,0-.3.14v0l-.22,0a3.63,3.63,0,0,0-.45.1H8" transform="translate(0 -0.12)"/><path class="av" d="M7.75,4.53l-.3-.08A2.69,2.69,0,0,1,6.73,4l.09,0a2.52,2.52,0,0,0,1.07.36H8a5.36,5.36,0,0,0,.7-.06l-.27.09-.5.1-.16,0" transform="translate(0 -0.12)"/><path class="ax" d="M8.41,4.39l.27-.09.11,0c.1,0,.22-.06.33-.08l-.1,0-.61.14" transform="translate(0 -0.12)"/><path class="at" d="M9.23,4.2h0" transform="translate(0 -0.12)"/><path class="ax" d="M9.12,4.2l.05,0,.05,0h-.1" transform="translate(0 -0.12)"/><path class="aw" d="M4.17,7.63a2.78,2.78,0,0,0,1-1,9.59,9.59,0,0,0,.47-.9,2,2,0,0,0,.09-.22h0L6,5.35c0,.08,0,.15-.07.24a4.4,4.4,0,0,1-.41.81,2.88,2.88,0,0,1-.78.92,2.43,2.43,0,0,1-.49.29l0,0m-.1,0,.1,0-.1,0m-.29.12a1.48,1.48,0,0,0,.29-.12.67.67,0,0,1-.29.12" transform="translate(0 -0.12)"/><path class="as" d="M5.75,5.18l.09,0h0l-.09,0h0m-3.87.58c.11-.27.51-.44.76-.52a4.86,4.86,0,0,1,1-.25l.54,0a.29.29,0,0,1-.08.14l-.1.06c-.23,0-.47,0-.7,0a3.05,3.05,0,0,0-1.47.56" transform="translate(0 -0.12)"/><path class="at" d="M5.73,5.39a.17.17,0,0,0-.1-.15h0l.12-.06h0l.09,0h.23L6,5.27l-.27.12" transform="translate(0 -0.12)"/><path class="ay" d="M5.73,5.47V5.39L6,5.27a.2.2,0,0,0,0,.08H6l-.23.12h0" transform="translate(0 -0.12)"/><path class="av" d="M5.61,5.24a.7.7,0,0,0-.3,0H4.05l.1-.06A.29.29,0,0,0,4.23,5h.08L5,5c.27,0,.54.11.81.15l-.09,0-.14.06" transform="translate(0 -0.12)"/><path class="ax" d="M5.63,5.24h0l.14-.06-.12.06" transform="translate(0 -0.12)"/></g></svg>