<svg xmlns="http://www.w3.org/2000/svg" xmlns:xlink="http://www.w3.org/1999/xlink" width="256px" height="256px" viewBox="0 0 23.36 19.06"><defs><style>.a{fill:none;}.b{clip-path:url(#a);}.c{fill:#74d45d;}.d{fill:#2c611f;}.e{fill:#418f2f;}.f{fill:#2e6f28;}.g{fill:#4e9e4b;}.h{fill:#1e4819;}.i{fill:#2c6b26;}.j{fill:#1f5320;}.k{fill:#4d9846;}.l{fill:#3b7b40;}.m{fill:#78b06b;}.n{fill:#225b24;}.o{fill:#17441d;}.p{fill:#285c34;}.q{fill:#347139;}.r{fill:#508357;}.s{fill:#39773e;}.t{fill:#3a5d9e;}.u{fill:#939598;}.v{fill:#426cb1;}.w{fill:#1a4820;}.x{fill:#133b1d;}.y{fill:#418a4b;}.z{fill:#255d26;}.aa{fill:#30519e;}.ab{fill:#375eb1;}.ac{fill:#24408a;}.ad{fill:#2b498a;}.ae{fill:#1b4921;}.af{fill:#264179;}.ag{fill:#1f3879;}.ah{fill:#182c6a;}.ai{fill:#d5deff;}.aj{fill:#28479e;}.ak{fill:#9db5e3;}.al{fill:#1d3a8d;}.am{fill:#1d3572;}.an{fill:#182e72;}.ao{fill:#122666;}.ap{fill:#142872;}.aq{fill:#213873;}.ar{fill:#27467d;}.as{fill:#2d4a92;}.at{fill:#1e3873;}.au{fill:#244582;}.av{fill:#33549e;}.aw{fill:#1e407d;}.ax{fill:#613360;}.ay{fill:#2f518f;}.az{fill:#182f73;}.ba{fill:#26448f;}.bb{fill:#23428d;}.bc{fill:#0f2165;}.bd{fill:#0b1b5b;}.be{fill:#2e4e9e;}.bf{fill:#26449e;}.bg{fill:#355bb1;}.bh{fill:#1c388d;}.bi{fill:#3f73cf;}.bj{fill:#1c3173;}.bk{fill:#213d7d;}.bl{fill:#3a62b1;}.bm{fill:#203f82;}.bn{fill:#1a3a7d;}.bo{fill:#b5b8bc;}.bp{fill:#568fcd;}.bq{fill:#487ccd;}.br{fill:#264189;}.bs{fill:#2b4fb1;}.bt{fill:#2041a3;}.bu{fill:#12276c;}.bv{fill:#4c7ec0;}.bw{fill:#3d6ac0;}.bx{fill:#3f6dc0;}.by{fill:#466aa9;}.bz{fill:#3b5da9;}.ca{fill:#5789c7;}.cb{fill:#4e78ba;}.cc{fill:#2c508b;}.cd{fill:#4062a9;}.ce{fill:#466fba;}.cf{fill:#284a8b;}.cg{fill:#35558b;}.ch{fill:#2c4882;}.ci{fill:#6b4471;}.cj{fill:#3c5f9b;}.ck{fill:#593c71;}.cl{fill:#34539b;}.cm{fill:#4269ba;}.cn{fill:#385dba;}.co{fill:#325490;}.cp{fill:#3d5fa9;}.cq{fill:#446bba;}.cr{fill:#b4c9e5;}.cs{fill:#b9cde8;}.ct{fill:#acbbd6;}.cu{fill:#b0c1de;}.cv{fill:#7996c7;}.cw{fill:#80a3d2;}.cx{fill:#90a8d1;}.cy{fill:#a1abc4;}.cz{fill:#bda9bc;}.da{fill:#a6b2cb;}.db{fill:#c1b1c3;}.dc{fill:#a4b1c8;}.dd{fill:#a1afc8;}.de{fill:#9facc8;}.df{fill:#a6b6ce;}.dg{fill:#a5b3ce;}.dh{fill:#b1c0db;}.di{fill:#afbddb;}.dj{fill:#a3b1cb;}.dk{fill:#aec4eb;}.dl{fill:#a2abc4;}.dm{fill:#a2aec8;}.dn{fill:#aec0e5;}.do{fill:#aabade;}.dp{fill:#abbbde;}</style><clipPath id="a" transform="translate(-0.04 0)"><rect class="a" width="23.27" height="19.4"/></clipPath></defs><g class="b"><path class="c" d="M23.4,12.42h0v0l0,.07c-.25.51-1.69,3.05-5.77,2.54l-.17,0h0a11.7,11.7,0,0,1-1.79-.42,2.85,2.85,0,0,1-1.36-2.06h0c-.06-1.72,2.44-3,3.17-2.75.06,0,.48.05,1.07.18a8,8,0,0,1,3.32,1.55c1.37.79,1.59.9,1.59.9" transform="translate(-0.04 0)"/><path class="d" d="M23.4,12.53h0a.2.2,0,0,1,0,.08.59.59,0,0,0,0,.08c-.35.68-1.84,3-5.73,2.58l-.17,0h0a11.5,11.5,0,0,1-1.79-.4,2.69,2.69,0,0,1-1.36-2.19h0a1.88,1.88,0,0,1,.16-.66,3.54,3.54,0,0,1,3-1.94c.07,0,.48,0,1.1.15a7.65,7.65,0,0,1,3.29,1.57c1.37.79,1.59.74,1.59.74" transform="translate(-0.04 0)"/><path class="e" d="M23.4,12.42h0v0l0,.07a.59.59,0,0,0,0,.08c-.35.64-1.84,2.89-5.73,2.46l-.17,0h0a11.4,11.4,0,0,1-1.79-.39c-1-.73-1.39-1.45-1.36-2.09h0a1.72,1.72,0,0,1,.16-.62,3.54,3.54,0,0,1,3-1.85c.07,0,.48,0,1.1.15a7.67,7.67,0,0,1,3.29,1.48c1.37.76,1.59.72,1.59.72" transform="translate(-0.04 0)"/><path class="f" d="M20.77,12.83c-.35,0-.7,0-1,0l0-.06,1.22.09h-.21" transform="translate(-0.04 0)"/><path class="f" d="M18,12.54l-.37-.07.38,0v0m1.57.24h-.15c-.45,0-.88-.12-1.31-.2l0,0,1.47.18,0,0a0,0,0,0,0,0,0m2.29,0a17,17,0,0,1-2-.16,5.24,5.24,0,0,1,1-1.21h0a3.94,3.94,0,0,0-1.17,1.2l-1.45-.22a6.27,6.27,0,0,1,.29-.58,3.69,3.69,0,0,1,.65-.77h0a4.63,4.63,0,0,0-.7.7,3,3,0,0,0-.39.63l-.56-.1a15.85,15.85,0,0,0,.9-1.4,1.74,1.74,0,0,0,.13-.64,7.67,7.67,0,0,1,3.29,1.48,5.42,5.42,0,0,0,1.58.72h0v0l0,.07a.59.59,0,0,0,0,.08,14.82,14.82,0,0,1-1.47.2" transform="translate(-0.04 0)"/><path class="g" d="M18.52,10.22l-.25-.05a2.14,2.14,0,0,1,.1-.22l.12,0a1,1,0,0,1,0,.25" transform="translate(-0.04 0)"/><path class="h" d="M17.59,15.05l-.17,0h0a12.75,12.75,0,0,1-1.32-.26A12.75,12.75,0,0,0,17.4,15h0l.17,0h0" transform="translate(-0.04 0)"/><path class="i" d="M17.59,15.05l-.17,0h0a12.75,12.75,0,0,1-1.32-.26,4.46,4.46,0,0,0,.07-.51A5,5,0,0,0,16,12.64l-.12-.39h0l.56,0,.93.14h0a2.68,2.68,0,0,0,.2,2.61" transform="translate(-0.04 0)"/><path class="j" d="M17.49,12.26,16.36,12a4.08,4.08,0,0,0,.57-.34l.25-.18a3.54,3.54,0,0,0,.49-.45,3.19,3.19,0,0,0,.38-.48l0-.06.13-.23.06-.13.25.05a1.74,1.74,0,0,1-.13.64,15.85,15.85,0,0,1-.9,1.4m-1,0-.56,0,.08,0,.48.08" transform="translate(-0.04 0)"/><path class="k" d="M19.14,14.74a6.46,6.46,0,0,1-1.2-2.12s0,0,0,0h0a10.56,10.56,0,0,0,1.16,2.14h0" transform="translate(-0.04 0)"/><path class="k" d="M20.61,14.31c-.17-.24-.35-.48-.51-.74a8.17,8.17,0,0,1-.49-.71.1.1,0,0,1-.05-.08l.17,0h0c.16.21.26.46.4.68s.33.54.5.82h0" transform="translate(-0.04 0)"/><path class="l" d="M19.82,12.63l-.17,0a3.94,3.94,0,0,1,1.17-1.2h0a5.24,5.24,0,0,0-1,1.21m-.09.17-.17,0a0,0,0,0,1,0,0l0,0,.17,0,0,.06" transform="translate(-0.04 0)"/><path class="k" d="M18,12.65a.06.06,0,0,1-.05-.06.09.09,0,0,0,0-.05l.11,0,0,0a.05.05,0,0,1,0,0" transform="translate(-0.04 0)"/><path class="l" d="M18.2,12.39l-.15,0a3,3,0,0,1,.39-.63,4.63,4.63,0,0,1,.7-.7h0a3.69,3.69,0,0,0-.65.77,6.27,6.27,0,0,0-.29.58m-.1.18-.11,0v0l.12,0,0,0" transform="translate(-0.04 0)"/><path class="m" d="M15.5,11.85a33.34,33.34,0,0,0,7,.92c-1.42.36-7.1-.67-7.1-.67l.15-.25" transform="translate(-0.04 0)"/><path class="c" d="M15.35,6.21c-.45.62-4.28,1.73-4.78-.07a3.27,3.27,0,0,1-.05-.35,1.62,1.62,0,0,1,0-.21,7.47,7.47,0,0,1,1.06-3.25A5.14,5.14,0,0,1,14.73,0c.81.17,1.44,5.05.62,6.17" transform="translate(-0.04 0)"/><path class="e" d="M15.18,6.21c-.44.62-4.13,1.73-4.61-.07a1.84,1.84,0,0,1-.05-.35,1.62,1.62,0,0,1,0-.21,7.74,7.74,0,0,1,1-3.25,5,5,0,0,1,3-2.29l.12,0c1.08,1.85,1,5.54.48,6.21" transform="translate(-0.04 0)"/><path class="f" d="M13.65,1h0a1.38,1.38,0,0,0,.23.65h0a0,0,0,0,0,0,0A1.46,1.46,0,0,0,13.65,1m-.32.67a.11.11,0,1,0,0,.22.11.11,0,0,0,0-.22m-1.9,2c0-.43.06-.85.12-1.28A7.28,7.28,0,0,0,11,3.54a7.28,7.28,0,0,1,.57-1.21,5,5,0,0,1,3-2.29.17.17,0,0,0,0,.07c-.06.33-.13.66-.22,1L13.58,3a4.92,4.92,0,0,0-.24-.45,4.38,4.38,0,0,0-.45-.7h0s0,0,0,0a5,5,0,0,0,.28.73,3.81,3.81,0,0,0,.29.57,5.87,5.87,0,0,0-2,.46" transform="translate(-0.04 0)"/><path class="n" d="M11.16,3.74l-.07-.08L11,3.54a7.28,7.28,0,0,1,.57-1.21c-.06.43-.1.85-.12,1.28h0l-.25.12" transform="translate(-0.04 0)"/><path class="l" d="M13.45,3.15a3.81,3.81,0,0,1-.29-.57,5,5,0,0,1-.28-.73s0,0,0,0h0a4.38,4.38,0,0,1,.45.7,4.92,4.92,0,0,1,.24.45l-.06.15h-.07" transform="translate(-0.04 0)"/><path class="l" d="M13.91,1.63h0A1.38,1.38,0,0,1,13.65,1h0a1.46,1.46,0,0,1,.29.63,0,0,0,0,1,0,0" transform="translate(-0.04 0)"/><path class="k" d="M13.77,3.14,13.82,3A2.4,2.4,0,0,1,15,2.27h0s0,0,0,0c-.21.13-.43.25-.63.39s-.37.31-.58.44h0" transform="translate(-0.04 0)"/><polyline class="m" points="14.36 0.96 13.37 4.36 13.02 4.26 14.36 0.96"/><path class="c" d="M12.39,8.18H12.2L11,8.12,7.66,8,7,7.92a8.89,8.89,0,0,1-.85-1.28,20.26,20.26,0,0,1-1-2.09A6.55,6.55,0,0,1,4.4.72c.06-.33,3-.21,5.52,1.84a9.5,9.5,0,0,1,1,.93l.16.17a8.48,8.48,0,0,1,.7.87h.09L12,5.7l.2,1.39.13.92,0,.17" transform="translate(-0.04 0)"/><path class="e" d="M12.42,8.18h-.19L11,8.12C9.93,8.08,8.5,8,7.68,8L7,7.93a8.63,8.63,0,0,1-.85-1.26,16.63,16.63,0,0,1-1.06-2A6.71,6.71,0,0,1,4.4.75a.14.14,0,0,1,0-.07,9.26,9.26,0,0,1,5.52,2,12.41,12.41,0,0,1,1,.91l.16.17a7.35,7.35,0,0,1,.7.85h.09l.16,1.14.2,1.36L12.4,8l0,.17" transform="translate(-0.04 0)"/><path class="f" d="M5.71,4.28s0,0,0,0a11.61,11.61,0,0,0,2.58.77h0s.07,0,0-.07a11.77,11.77,0,0,0-2.61-.73h0m2.23,1A3.81,3.81,0,0,1,6.72,5a7.23,7.23,0,0,0-1.59-.39q.06.15.12.27-.06-.12-.12-.27a8.4,8.4,0,0,1-.81-3.14A3,3,0,0,1,4.4.75,26.9,26.9,0,0,1,7,3.4a7.44,7.44,0,0,0-1.34-.49h0c.25.14.5.27.77.39a2.89,2.89,0,0,0,.71.27h0l0,0c.42.51.88,1.06,1.31,1.56a3.29,3.29,0,0,1-.54.05" transform="translate(-0.04 0)"/><path class="i" d="M15.39,3.57l-.17,0a4.2,4.2,0,0,0-1-.22h-.46l0-.14h.08a5.53,5.53,0,0,1,.84.06,1.07,1.07,0,0,1,.7.37" transform="translate(-0.04 0)"/><path class="j" d="M11.43,4v-.4a5.87,5.87,0,0,1,2-.46l.05.05-.05.12a2.9,2.9,0,0,0-.57.12,1.31,1.31,0,0,0-.28.09,6.48,6.48,0,0,0-.87.37.91.91,0,0,0-.3.11" transform="translate(-0.04 0)"/><path class="o" d="M11.4,4l-.24-.28.25-.12h0V4h0" transform="translate(-0.04 0)"/><path class="p" d="M13.5,3.2l-.05-.05h.07l0,.06" transform="translate(-0.04 0)"/><path class="q" d="M13.78,3.15h0" transform="translate(-0.04 0)"/><path class="r" d="M13.45,3.32l.05-.12,0-.06h.25l0,.14-.27,0" transform="translate(-0.04 0)"/><path class="g" d="M11.36,4a2.91,2.91,0,0,0-.24-.27l0,0L11.4,4l0,0" transform="translate(-0.04 0)"/><path class="i" d="M9.52,5.91l-.73-.8a2,2,0,0,0,.46-.18c.21-.11.41-.23.61-.36-.07.25-.12.51-.19.76s-.11.39-.15.58m.18.2,0,0a3.59,3.59,0,0,0,.12-.73c0-.27.09-.54.13-.82.31-.2.61-.42.93-.61l.27-.15a2.91,2.91,0,0,1,.24.27A4.48,4.48,0,0,0,10.29,5h0l-.08.09h0l-.09.12h0v0l0,.08L10,5.38v0h0l-.05.08,0,.11-.06.13,0,0,0,.08a.93.93,0,0,0,0,.13.56.56,0,0,0,0,.12" transform="translate(-0.04 0)"/><path class="j" d="M9.59,6.83a6.67,6.67,0,0,0-1.08-.92,5.53,5.53,0,0,0-3.14-1H5.25q-.06-.12-.12-.27A7.23,7.23,0,0,1,6.72,5a3.81,3.81,0,0,0,1.22.21,3.29,3.29,0,0,0,.54-.05L9.63,6.52v0s0,.09,0,.13a.49.49,0,0,0,0,.12v0h0" transform="translate(-0.04 0)"/><path class="k" d="M7.51,3.72l-.28-.31A3.37,3.37,0,0,1,7,1.53H7a17.44,17.44,0,0,0,.53,2.13.07.07,0,0,1,0,.06" transform="translate(-0.04 0)"/><path class="k" d="M8.78,5.1l-.16-.18a14.17,14.17,0,0,1,0-2.06h0A12.94,12.94,0,0,1,8.78,5.1" transform="translate(-0.04 0)"/><path class="k" d="M7.14,3.58,7,3.4l0,0,.13.16h0" transform="translate(-0.04 0)"/><path class="l" d="M7.13,3.58h0a2.89,2.89,0,0,1-.71-.27c-.27-.12-.52-.25-.77-.39h0A7.44,7.44,0,0,1,7,3.4l.16.18h0" transform="translate(-0.04 0)"/><path class="l" d="M8.29,5.08h0A11.61,11.61,0,0,1,5.7,4.31s0,0,0,0h0A11.77,11.77,0,0,1,8.32,5s0,.07,0,.07" transform="translate(-0.04 0)"/><path class="k" d="M9.86,4.57a2.76,2.76,0,0,1,.08-.27h0a1.64,1.64,0,0,1,0,.23l-.06,0" transform="translate(-0.04 0)"/><path class="s" d="M9.67,6.08l-.15-.17c0-.19.1-.39.15-.58s.12-.51.19-.76l.06,0c0,.28-.09.55-.13.82a3.59,3.59,0,0,1-.12.73" transform="translate(-0.04 0)"/><path class="m" d="M5.9,2c0-.06,4.59,5,4.59,5s-.31.14-.37.1S6.61,3.07,5.9,2" transform="translate(-0.04 0)"/><path class="t" d="M18.89,7.82a3.38,3.38,0,0,1-.14,1A1.21,1.21,0,0,1,18.7,9c0,.1-.06.2-.1.31a2.41,2.41,0,0,1-.08.25c-.09.26-.2.51-.31.75l-.13.23,0,.06a3.19,3.19,0,0,1-.38.48,3.54,3.54,0,0,1-.49.45l-.25.18a4.86,4.86,0,0,1-1.27.63l-.16,0a3.32,3.32,0,0,1-.68.11h-.28l-.23,0-.12,0-.61-.11-.12,0L13,12.16l-.16-.05-.14,0a4.15,4.15,0,0,1-1.83-1.14l-.11-.13,0,0,0,0-.07-.09-.09-.12-.07-.1a2.68,2.68,0,0,1-.18-.28s-.05-.08-.07-.13h0a.91.91,0,0,1-.07-.14L10,9.74a.54.54,0,0,1,0-.11l0-.06,0-.1s0,0,0-.06a1.21,1.21,0,0,1-.05-.14.75.75,0,0,1-.05-.16.83.83,0,0,1,0-.15s0-.08,0-.13,0-.05,0-.07l0-.12v0s0,0,0-.06,0-.09,0-.13v0a1,1,0,0,1,0-.17c0-.07,0-.15,0-.22s0-.36,0-.54a3.68,3.68,0,0,1,0-.47,1.21,1.21,0,0,1,0-.19v0a.49.49,0,0,1,0-.12s0-.09,0-.13a2.33,2.33,0,0,1,.05-.28l0-.13a.83.83,0,0,1,0-.15.93.93,0,0,1,0-.13s0-.09.05-.13l.06-.13,0-.11L10,5.41h0v0l.05-.07.06-.1L10.25,5l0,0h0l.07-.08.06-.06.07-.07A4,4,0,0,1,11,4.33l.12-.09,0,0,.12-.08.12-.07,0,0,0,0h0l.19-.1a6.48,6.48,0,0,1,.87-.37,1.31,1.31,0,0,1,.28-.09,3.59,3.59,0,0,1,1.3-.14,4.2,4.2,0,0,1,1,.22,6.5,6.5,0,0,1,3,2.22,3.71,3.71,0,0,1,.46,1,3.41,3.41,0,0,1,.19,1" transform="translate(-0.04 0)"/><path class="u" d="M18.62,9.23l.06-.17-.06.17" transform="translate(-0.04 0)"/><path class="v" d="M17,6.46a1.85,1.85,0,0,0,0-.23.49.49,0,0,0,0,.11l0,.12m.66-.13h-.08a.09.09,0,0,0,0,.18h.08c.06,0,.09,0,.09-.11a.1.1,0,0,0-.09-.11m-.18,1.11a.14.14,0,0,0-.12.06l0,0c-.1.15,0,.22.14.22s.24-.07.14-.22l0,0a.16.16,0,0,0-.12-.06m.06.76a.13.13,0,0,0,0,.26.13.13,0,0,0,0-.26m-.38-.13a.2.2,0,1,0,0,.39h0a.2.2,0,0,0,.19-.25.22.22,0,0,0-.17-.14h0m.2.9a2.19,2.19,0,0,1-.86-1.53h0a.88.88,0,0,0,.27.06.34.34,0,0,0,.14,0,.72.72,0,0,0,.38-.57.24.24,0,0,0,0-.09s0,0,0,0-.2-.67-.26-1c0,0,0-.14-.07-.14h0c-.05,0-.1.06-.13.08s-.12.09-.12.16a1.17,1.17,0,0,0-.09-.52c0-.09,0-.25-.1-.32A.22.22,0,0,0,16.38,5h0s0,0,0,0h0l-.13.07-.24.1a1.34,1.34,0,0,0-.36.22l-.16,0c-.09-.14-.24-.22-.34-.38a1,1,0,0,1-.19.25A1.32,1.32,0,0,1,14,4.52a1.23,1.23,0,0,1,.21-1.22,4.72,4.72,0,0,1,1,.19l.06,0a6.5,6.5,0,0,1,3,2.22,3.71,3.71,0,0,1,.46,1,3.71,3.71,0,0,0-.46-1,6.5,6.5,0,0,0-3-2.22l-.06,0a1.19,1.19,0,0,0-.22.33.54.54,0,0,0,.08.61.69.69,0,0,0,.49.15H16a1.87,1.87,0,0,1,1.09.73,1.92,1.92,0,0,1,.62,1c0,.34-.12.66-.12,1a1.21,1.21,0,0,0,.32.81,3.63,3.63,0,0,0-.47.64.17.17,0,0,0-.1.14h0l0,.05" transform="translate(-0.04 0)"/><path class="u" d="M18.75,8.81l0-.09,0,.09m0,.14a1,1,0,0,0,0-.14,1,1,0,0,1,0,.14" transform="translate(-0.04 0)"/><path class="w" d="M11.44,4.06h0V4a.91.91,0,0,1,.3-.11l-.19.1h0l0,0,0,0h0" transform="translate(-0.04 0)"/><path class="x" d="M11.42,4.05l0,0h0v0" transform="translate(-0.04 0)"/><path class="y" d="M11.4,4.08s0,0,0,0l0,0,0,0h0l0,0" transform="translate(-0.04 0)"/><path class="z" d="M10.29,5A4.48,4.48,0,0,1,11.36,4s0,0,0,0l-.08,0-.12.08,0,0L11,4.33a4,4,0,0,0-.54.45l-.07.07-.06.06L10.29,5" transform="translate(-0.04 0)"/><path class="aa" d="M18.6,9.3l0-.07,0,.07m-1,1.89a6.2,6.2,0,0,1-2.18-.46,1.55,1.55,0,0,0-.19-.24A5.15,5.15,0,0,0,13.12,9c-.39-.13-.92-.18-1.4-.3a3.18,3.18,0,0,1-1-1.34,3.68,3.68,0,0,1-.21-2.57l-.07.07-.06.06L10.29,5l.07-.07.06-.06.07-.07A4,4,0,0,1,11,4.33l.12-.09,0,0,.12-.08.08,0,0,0h0l0,0,0,0h0l.19-.1h.11a.43.43,0,0,1,.38.23.6.6,0,0,1,0,.63A1.39,1.39,0,0,1,12,5a1.73,1.73,0,0,0-.83,1.62,1,1,0,0,0,.21.61,3.8,3.8,0,0,0,1.33,1.28l.06,0a3.18,3.18,0,0,0,.76.32,3.39,3.39,0,0,0,.72.13.52.52,0,0,0,.56-.5.51.51,0,0,0,0-.35,3.11,3.11,0,0,1,.81.77,1.36,1.36,0,0,0,1,.56h.08A1.12,1.12,0,0,0,17.34,9l0,0a.16.16,0,0,0,.15.12h0a1.77,1.77,0,0,0,.33.19,3.09,3.09,0,0,0,.66.25c-.09.26-.2.51-.31.75l-.13.23,0,.06a3.19,3.19,0,0,1-.38.48l-.11.12" transform="translate(-0.04 0)"/><path class="aa" d="M18.68,9.06l0-.11V9l0,.07" transform="translate(-0.04 0)"/><path class="aa" d="M18.78,8.72l0-.08a2.5,2.5,0,0,0,.06-.38,2.33,2.33,0,0,1-.08.46" transform="translate(-0.04 0)"/><path class="ab" d="M17.37,9l0,0,0-.05V9m1.15.56a3.09,3.09,0,0,1-.66-.25,1.77,1.77,0,0,1-.33-.19c.07,0,.16-.07.15-.15v0a.17.17,0,0,0-.16-.15h-.05a3.63,3.63,0,0,1,.47-.64l.12.13a1.73,1.73,0,0,0,.74.37l0,.08,0,.09a1,1,0,0,1,0,.14l0,.11-.06.17,0,.07a2.41,2.41,0,0,1-.08.25" transform="translate(-0.04 0)"/><path class="ac" d="M16.78,11.79l.08,0c-.29-.1-.61-.07-.85-.26a4.24,4.24,0,0,1-.63-.75,6.2,6.2,0,0,0,2.18.46,3.9,3.9,0,0,1-.38.33l-.25.18-.06,0-.09.06" transform="translate(-0.04 0)"/><polyline class="ad" points="10.24 4.99 10.25 4.98 10.24 4.99"/><path class="ae" d="M10.11,5.21l.09-.12h0L10.29,5h0l0,0c-.06.07-.1.14-.14.18m-.06.1,0-.08,0,.08m-.24.47,0,0,0,0" transform="translate(-0.04 0)"/><path class="ac" d="M11.72,8.69a1.81,1.81,0,0,1-.84-.38,4.58,4.58,0,0,1-1-2.1,1.19,1.19,0,0,0-.1-.32l0-.06v0a.93.93,0,0,0,0,.13.83.83,0,0,0,0,.15l0,.13a2.33,2.33,0,0,0-.05.28s0,.09,0,.13a.49.49,0,0,0,0,.12v0h0v0a.49.49,0,0,1,0-.12s0-.09,0-.13a2.33,2.33,0,0,1,.05-.28l0-.13a.83.83,0,0,1,0-.15.93.93,0,0,1,0-.13v0l0,0,0,0,.06-.13,0-.11L10,5.41h0v0l.05-.07,0-.08h0s.08-.11.14-.18l0,0h0l.07-.07.06-.06.07-.07a3.68,3.68,0,0,0,.21,2.57,3.18,3.18,0,0,0,1,1.34" transform="translate(-0.04 0)"/><path class="af" d="M15.88,12.24h0a5.82,5.82,0,0,0,.9-.45,5,5,0,0,1-.9.45" transform="translate(-0.04 0)"/><path class="ag" d="M15.38,10.73a3.55,3.55,0,0,1-.61-.37A4.44,4.44,0,0,0,14.4,10a1,1,0,0,0-.29-.26l0,0h0a4.53,4.53,0,0,0-2.29-1l0,0c.48.12,1,.17,1.4.3a5.15,5.15,0,0,1,2.07,1.5,1.55,1.55,0,0,1,.19.24" transform="translate(-0.04 0)"/><path class="ah" d="M10.39,8.78a2.38,2.38,0,0,0,0-.39,2.72,2.72,0,0,0-.71-1.51l-.06,0h0v0a.49.49,0,0,1,0-.12s0-.09,0-.13a2.33,2.33,0,0,1,.05-.28l0-.13a.83.83,0,0,1,0-.15.93.93,0,0,1,0-.13v0l0,.06a1.19,1.19,0,0,1,.1.32,4.58,4.58,0,0,0,1,2.1,1.81,1.81,0,0,0,.84.38l0,0-.36,0a3.57,3.57,0,0,0-.46,0l-.55,0m4,1.2-.33-.28,0,0a1,1,0,0,1,.29.26m1.48,2.26a5.51,5.51,0,0,0-1.11-1.88,3.55,3.55,0,0,0,.61.37,4.24,4.24,0,0,0,.63.75c.24.19.56.16.85.26l-.08,0a5.82,5.82,0,0,1-.9.45" transform="translate(-0.04 0)"/><path class="t" d="M10.39,9a2.19,2.19,0,0,1,0,.36h0l0,.12a.51.51,0,0,1,0,.13s0,.1,0,.14l0,.12c0,.22-.11.43-.18.64v0l-.09.25v0a5.49,5.49,0,0,1-.21.51c-.1.21-.21.43-.32.63s-.31.52-.47.77l-.12.19-.14.19A7.89,7.89,0,0,1,6.93,15a1.17,1.17,0,0,1-.35.16l-.36.08a4.77,4.77,0,0,1-1.87-.05,6.31,6.31,0,0,1-2.78-1.54l-.09-.09A4.37,4.37,0,0,1,.17,11.32a3.58,3.58,0,0,1-.11-.73,1.34,1.34,0,0,1,0-.2A5,5,0,0,1,.18,9.05,5.34,5.34,0,0,1,8.51,5.91a7.33,7.33,0,0,1,1.14,1,2.72,2.72,0,0,1,.71,1.51,3.29,3.29,0,0,1,0,.63" transform="translate(-0.04 0)"/><path class="aa" d="M4.28,12.35a4.26,4.26,0,0,1-.5,0,.8.8,0,0,0,.45-.82A2.18,2.18,0,0,1,5,9.62a.89.89,0,0,0,.54.26h.07c.46,0,1-.58,1.43-.78.77-.4,2.26-.56,2.09-1.73a1.49,1.49,0,0,0-.54-.89l-.06-.05,0-.52a7.33,7.33,0,0,1,1.14,1,2.72,2.72,0,0,1,.71,1.51,2.38,2.38,0,0,1,0,.39l-.63.07-.45,0H9.12a4.41,4.41,0,0,0-2.25.9,6,6,0,0,0-2,2.59,4,4,0,0,1-.6,0m-2.8,1.2a4.23,4.23,0,0,1-.66-.76,4.23,4.23,0,0,0,.66.76m2.1,1.38a6.75,6.75,0,0,1-2-1.29,6.75,6.75,0,0,0,2,1.29" transform="translate(-0.04 0)"/><path class="ai" d="M.65,12.53h0a4.46,4.46,0,0,1-.6-2.14,1.34,1.34,0,0,0,0,.2,3.58,3.58,0,0,0,.11.73,4.63,4.63,0,0,0,.48,1.21" transform="translate(-0.04 0)"/><path class="aa" d="M3.17,12.44a4.65,4.65,0,0,1-.75-.08,4.81,4.81,0,0,1-2.25-1,3.58,3.58,0,0,1-.11-.73,3.37,3.37,0,0,0,.38.28,5.7,5.7,0,0,0,2.17,1.21,5.8,5.8,0,0,0,1.17.25,1.45,1.45,0,0,1-.61.11" transform="translate(-0.04 0)"/><path class="aj" d="M4.49,13.61A8.82,8.82,0,0,1,2,13.16a6.56,6.56,0,0,1-1.34-.63,4.63,4.63,0,0,1-.48-1.21,4.81,4.81,0,0,0,2.25,1,4.65,4.65,0,0,0,.75.08,1.45,1.45,0,0,0,.61-.11,4.26,4.26,0,0,0,.5,0,4,4,0,0,0,.6,0,7.47,7.47,0,0,0-.39,1.3" transform="translate(-0.04 0)"/><path class="ak" d="M.82,12.79c-.06-.09-.12-.17-.17-.26h0c0,.09.11.17.17.26m4,2.47a4.71,4.71,0,0,1-1.23-.33,4.92,4.92,0,0,0,.77.25l.46.08" transform="translate(-0.04 0)"/><path class="al" d="M4.35,15.18a4.92,4.92,0,0,1-.77-.25,6.75,6.75,0,0,1-2-1.29l-.09-.09a4.23,4.23,0,0,1-.66-.76c-.06-.09-.12-.17-.17-.26A6.56,6.56,0,0,0,2,13.16a8.82,8.82,0,0,0,2.5.45,7.52,7.52,0,0,0-.14,1.57" transform="translate(-0.04 0)"/><path class="am" d="M4.88,12.31a6,6,0,0,1,2-2.59,4.41,4.41,0,0,1,2.25-.9h.19l.45,0a6.7,6.7,0,0,0-2.1.58,2,2,0,0,0-.53.38L7,10l-.15.17A6.05,6.05,0,0,0,6,11.37a5.83,5.83,0,0,0-.32.72h0a3.78,3.78,0,0,1-.8.21m.53,3a4.22,4.22,0,0,1-.6,0,4.22,4.22,0,0,0,.6,0h0" transform="translate(-0.04 0)"/><path class="an" d="M5.13,13.63l-.64,0a7.47,7.47,0,0,1,.39-1.3,3.78,3.78,0,0,0,.8-.21h0a5.79,5.79,0,0,0-.27,1.09,3.42,3.42,0,0,0,0,.45H5.13" transform="translate(-0.04 0)"/><path class="ao" d="M5.41,15.3a4.22,4.22,0,0,1-.6,0l-.46-.08a7.52,7.52,0,0,1,.14-1.57l.64,0h.26a1.55,1.55,0,0,0,0,.22V14a6.36,6.36,0,0,0,.18,1.28H5.41" transform="translate(-0.04 0)"/><path class="t" d="M16.15,14.26a5.44,5.44,0,0,1-2.63,4.23,6.82,6.82,0,0,1-5.75-.13A5,5,0,0,1,5.38,14,6,6,0,0,1,6.8,10.17l.33-.36a2,2,0,0,1,.53-.38,9.5,9.5,0,0,1,3.28-.69,4.16,4.16,0,0,1,3.11.95,5.51,5.51,0,0,1,2,3,5,5,0,0,1,.14,1.62" transform="translate(-0.04 0)"/><path class="v" d="M9.39,9.43a.1.1,0,1,0,0,.19.1.1,0,0,0,0-.19m-.78,0a.15.15,0,0,0,0,.29.15.15,0,1,0,0-.29m.33.2a.13.13,0,1,0,0,.27.13.13,0,0,0,0-.27m-.71.52a.18.18,0,0,0,0,.36.18.18,0,0,0,0-.36m-.16.61H8c-.52-.06-.53-.65-.37-1.27a9.5,9.5,0,0,1,3.28-.69,3.57,3.57,0,0,1,.46,0,4.4,4.4,0,0,1,2.65,1L14,9.75A1.51,1.51,0,0,1,13,10a2.52,2.52,0,0,1-.48,0c-.51-.09-1-.28-1.49-.34a3,3,0,0,0-.43,0A3.09,3.09,0,0,0,9.09,10c-.26.15-.68.69-1,.69" transform="translate(-0.04 0)"/><path class="an" d="M7,10l.18-.19L7,10M5.7,12.09A5.83,5.83,0,0,1,6,11.37a5.83,5.83,0,0,0-.32.72h0" transform="translate(-0.04 0)"/><path class="ap" d="M5.39,13.63a3.42,3.42,0,0,1,0-.45,5.79,5.79,0,0,1,.27-1.09h0a5.79,5.79,0,0,0-.27,1.09h0a3.42,3.42,0,0,0,0,.45" transform="translate(-0.04 0)"/><path class="aa" d="M6.81,11.09a1,1,0,0,1,0-.46.89.89,0,0,0,0-.46L7,10l.18-.19a1.27,1.27,0,0,1,.28-.23,4.7,4.7,0,0,0-.52,1.17c0,.11-.06.23-.08.34" transform="translate(-0.04 0)"/><path class="aq" d="M9.57,10.59a2.21,2.21,0,0,0,.08-.27h0a2.1,2.1,0,0,1-.13.26M9.1,11.9c-.09-.12-.11-.29.06-.53l.13-.19v0a.46.46,0,0,0,.26.4.45.45,0,0,0,.12.05s.23.15-.23.17H9.28a.48.48,0,0,0-.18.06m3.9.19-.09,0-.08,0,.06,0a.61.61,0,0,0,.12-.16,1.11,1.11,0,0,1,0,.26m-4.54.71a2,2,0,0,1,.19-.28l0,.05h0a1.88,1.88,0,0,1-.16.23m.67.35a1.43,1.43,0,0,1-.45-.21l-.08-.07.23.12.3.16m3.32.46c-.37,0-.72-.06-.68-.29v0a.74.74,0,0,0,0-.12l.19.09,0,0a1.08,1.08,0,0,0,.3,0l.27,0c.24-.05.48-.15.79-.19a1.43,1.43,0,0,1-.08.41,6.64,6.64,0,0,1-.79.06m-2.06,1c-.21,0-.64-.54-.66-.71s.31-.43.22-.73a1.1,1.1,0,0,1-.75.32,2.19,2.19,0,0,1-.7-.16A1.92,1.92,0,0,0,8.32,13l.13-.23.06,0h0v0a3.26,3.26,0,0,0,.71.33.89.89,0,0,0,.35.08,1,1,0,0,0,.54-.18l.07,0-.06,0a.47.47,0,0,0-.17.36c0,.27.27.56.66.81h.07l.19-.06a2.08,2.08,0,0,0,.72-.28c-.2.42-.54.57-1.17.72h0" transform="translate(-0.04 0)"/><path class="ar" d="M13.33,13.14c-.31,0-.56.14-.8.19a1.11,1.11,0,0,1-.57,0l0,0-.19-.09a.74.74,0,0,1,0,.12c.08.53-.05.67-1.14.94-.57-.36-.87-.8-.49-1.17l.06,0-.07,0c-.56.34-.86.12-1.28-.1l-.3-.15-.08,0c.3-.31.39-1,.92-1h.07c.46,0,.23-.17.23-.17a.45.45,0,0,1-.12-.05.46.46,0,0,1-.14-.74A3.22,3.22,0,0,0,9.82,10a1,1,0,0,0,0-.17V9.78s1.24.17,1.41.92a.69.69,0,0,1,0,.25,2.64,2.64,0,0,1,.1-.27.82.82,0,0,1,.77-.37h.23l.37,0a3.37,3.37,0,0,1,.32.87.94.94,0,0,1-.2.84l-.06,0,.08,0a.77.77,0,0,1,.49.41,2.3,2.3,0,0,1-.07.67" transform="translate(-0.04 0)"/><path class="as" d="M11.3,11a.28.28,0,0,0,0-.13h0a.93.93,0,0,1,0,.13" transform="translate(-0.04 0)"/><path class="at" d="M10.52,12.78a1,1,0,0,0,.52.14,1.14,1.14,0,0,0,.4-.08,1,1,0,0,0,.65-.64h0a.86.86,0,0,0,0-.57,1,1,0,0,0-.91-.57,1.14,1.14,0,0,0-.4.08,1.21,1.21,0,0,0-.2.09l0-.07h0l-.11.12a1,1,0,0,0-.41.86.76.76,0,0,0,0,.21,1.42,1.42,0,0,0,.05.22.08.08,0,0,0,.07,0h0a.35.35,0,0,0,0,.08h0l0-.07,0,0a.78.78,0,0,0,.24.2m.82.48a1.46,1.46,0,0,1-.57-.12h0s0,0,0,0a.89.89,0,0,1-.39-.27h0l.09.1a1.23,1.23,0,0,1-.14-1.75,1.31,1.31,0,0,1,.93-.36h.07a.28.28,0,0,1,0,.13.93.93,0,0,0,0-.13,1.74,1.74,0,0,1,.85.3,1.26,1.26,0,0,1,.24.22c.3.39.06,1.13-.21,1.49a1.08,1.08,0,0,1-.88.43" transform="translate(-0.04 0)"/><path class="au" d="M3.46,6.52c0,.12,0,.24-.07.36a.69.69,0,0,0-.85,0,.64.64,0,0,0-.08.82c-.25-.11-.56-.22-.77,0a.57.57,0,0,0-.15.55s0,.07,0,.1.21.24.31.37h0c0-.27.07-.47.34-.54a1,1,0,0,1,.7.12c.11.05.41.26.39.4a9.7,9.7,0,0,1,.23-1.07.61.61,0,0,1,.23-.41.7.7,0,0,1,.35-.06.54.54,0,0,0,.38-.09,1.53,1.53,0,0,0-1-.53" transform="translate(-0.04 0)"/><path class="av" d="M1.67,9.54a.81.81,0,0,1-.43-.26,1.07,1.07,0,0,1-.13-.78,6.85,6.85,0,0,1,.22-1h.11c0-.08.07-.15.15-.16h.25c.17,0,.27-.21.36-.36a.61.61,0,0,1,.24-.21.9.9,0,0,0-.08.74,3.36,3.36,0,0,0-.59-.08c-.1,0-.18,0-.2.05-.2.36-.28,1.07.12,1.35,0,.09-.05.48,0,.48s0,0,0,0a1,1,0,0,0,0-.14v.22a.18.18,0,0,1,0,.13.14.14,0,0,1-.1,0" transform="translate(-0.04 0)"/><path class="aw" d="M3.62,7.19a2.2,2.2,0,0,0-.25,1.25C3,8,2.48,8.2,2.27,7.94l0,0c-.13,0-.4.45-.49.72-.17-.4-.19-1,.13-1s.69.33.69-.1c0-.28-.18-.75.21-.75a2.32,2.32,0,0,1,.7.18.91.91,0,0,1,.07-.38c.17-.13.78.36.92.36s-.28-.6-1.07-.6c-.15,0-.15.09-.13.32a2.87,2.87,0,0,0-.61-.1h0c-.15,0-.42.53-.26.92-.14,0-.72-.15-.79,0-.2.36-.28,1.07.12,1.35,0,.09-.05.48,0,.48s0,0,0,0A2.89,2.89,0,0,1,2.23,8.1a.87.87,0,0,0,.41.14c.43.08.57.41.9.64A3.11,3.11,0,0,1,3.7,7.52C3.84,7,4.61,7.21,5,7.26a1.1,1.1,0,0,0-1.37-.07" transform="translate(-0.04 0)"/><path class="au" d="M14.85,5.41a.43.43,0,0,1,.25-.21.28.28,0,0,1,.26.13,1,1,0,0,1,.09.29,2.66,2.66,0,0,1,.63-.42c.07,0,.19-.07.25,0a.6.6,0,0,1,.14.21.85.85,0,0,1,.15.51s0,.12,0,.12.1-.06.12-.07l.13-.09a3.51,3.51,0,0,0,0,1.12.61.61,0,0,0-.73-.38,1.07,1.07,0,0,0-.68.57,1.43,1.43,0,0,0,0-.77.61.61,0,0,0-.31-.3.3.3,0,0,0-.28,0,.41.41,0,0,1-.19,0c-.26,0,.15-.65.23-.79" transform="translate(-0.04 0)"/><path class="aw" d="M17,5.81s0-.15-.07-.14-.1.06-.13.08-.12.09-.12.16a1.17,1.17,0,0,0-.09-.52c0-.09,0-.25-.1-.32s-.39,0-.54.08a1.74,1.74,0,0,0-.46.3c-.07-.24-.27-.31-.4-.51a1.32,1.32,0,0,1-.58.52,4.36,4.36,0,0,1-.6.23s0,.06,0,.07a1.37,1.37,0,0,0,.69-.16,1.4,1.4,0,0,0-.18.59h0a1.13,1.13,0,0,0-.5.42,0,0,0,0,0,0,0,1.94,1.94,0,0,1,1.09-.44c.23,0,.33.3.37.5a2.25,2.25,0,0,1-.06.69s.06.1.09,0v0h0c.17-.29.34-.72.75-.74s.46.36.64.59c0,0,.09,0,.08,0A.78.78,0,0,0,16.91,7h0a2.52,2.52,0,0,0,0-.73,2.71,2.71,0,0,0,.24.57,0,0,0,0,0,.07,0c0-.08-.2-.67-.26-1m-.69.6h-.1c-.24,0-.55.39-.65.58a2.16,2.16,0,0,0-.24-.92.09.09,0,0,0-.09,0,2.07,2.07,0,0,0-.69.14,2.83,2.83,0,0,1,.58-1,.93.93,0,0,1,.27.63,1.12,1.12,0,0,1,.37-.38c.05,0,.49-.29.54-.23a1.81,1.81,0,0,1,.26.88l-.09.19s.05.08.08,0a1.71,1.71,0,0,0,.21-.26,3.21,3.21,0,0,0,0,.69,1.23,1.23,0,0,0-.47-.36" transform="translate(-0.04 0)"/><path class="ax" d="M12.09,12.19h0a1,1,0,0,1-.65.65,1.09,1.09,0,0,1-.92-.06.86.86,0,0,1-.39-.43,1,1,0,0,1,.64-1.22,1,1,0,0,1,1.31.49.86.86,0,0,1,0,.57" transform="translate(-0.04 0)"/><path class="ay" d="M12.09,12.19h0a1,1,0,0,1-.65.65,1.09,1.09,0,0,1-.92-.06.66.66,0,0,1-.19-.27.85.85,0,0,1,.57-1.07.89.89,0,0,1,1.15.43.69.69,0,0,1,0,.32" transform="translate(-0.04 0)"/><path class="az" d="M12.09,12.2h0m0,0h0m0,0h0" transform="translate(-0.04 0)"/><path class="ba" d="M11.88,12.55a1.38,1.38,0,0,0-1.12-.82l.06-.05a.87.87,0,0,1,.49-.14,1.41,1.41,0,0,1,.49.09h0s0,0,0,0a.66.66,0,0,1,.19.27h0a.75.75,0,0,1,0,.26.13.13,0,0,1,0,.06h0a1,1,0,0,1-.21.35" transform="translate(-0.04 0)"/><path class="v" d="M7.64,7.62a.08.08,0,0,0,0,.16.07.07,0,0,0,.06,0h0a.06.06,0,1,0,0-.12H7.64m-2.53.07A.16.16,0,0,0,5,7.77v0A.14.14,0,0,0,5.1,8l.07,0h0a.15.15,0,0,0,0-.23.16.16,0,0,0-.11,0m.68-.19a.51.51,0,0,1-.09.29c-.33.54-.25,1,.34,1l.24,0a1.81,1.81,0,0,0,.85-.4,1.26,1.26,0,0,0,.36-.67,1.86,1.86,0,0,0,0-.34.14.14,0,0,0,0-.15h0a.14.14,0,0,0-.07-.1,1.21,1.21,0,0,0-.08-.34,1.68,1.68,0,0,0-1.31-1c-.27,0-.51.15-.65.55s.11.61.24.88h0a.18.18,0,0,0,.08.3M5,9.62a1.37,1.37,0,0,1-.16-.18s0-.1,0-.1h0a1,1,0,0,1-.19-.57c0-.56.58-1.24.42-1.8-.11-.38-.39-.73-.17-1.13A1.16,1.16,0,0,1,5.9,5.28a2.58,2.58,0,0,1,1.26.38,13.19,13.19,0,0,1,1.38.77,2.54,2.54,0,0,1-.47,1.9A3.3,3.3,0,0,1,6.8,9a.09.09,0,0,0-.06-.15.09.09,0,0,0,0,.17c-.39.12-.79.21-1.15.34a2.19,2.19,0,0,0-.57.3" transform="translate(-0.04 0)"/><path class="ab" d="M5.57,9.88h0A.89.89,0,0,1,5,9.62a2.19,2.19,0,0,1,.57-.3c.36-.13.76-.22,1.15-.34h0s0,0,.06,0a3.3,3.3,0,0,0,1.27-.63,2.54,2.54,0,0,0,.47-1.9l.06.05a1.49,1.49,0,0,1,.54.89C9.31,8.54,7.82,8.7,7.05,9.1c-.38.2-1,.74-1.43.78h0" transform="translate(-0.04 0)"/><path class="v" d="M15.36,12.75l0,0a.11.11,0,0,0,0,.08.12.12,0,0,0,.1.11h0c.13,0,.16-.2,0-.22h0l0,0h0m.4.95a.87.87,0,0,0-.38-.13,1.36,1.36,0,0,0-.29,0H15A3.79,3.79,0,0,0,14.84,11c-.21-.34-.43-.5-.63-.5h0l-.12-.18a.82.82,0,0,0-.17-.2c.32,0,.64.35.94.59.82.66.73,1.45.88,2.36a2.57,2.57,0,0,1,0,.61m-2.07.71a1.28,1.28,0,0,1-.07-.21c-.22-.86.29-1.73,0-2.57-.15-.4-.54-.74-.26-1.16a1.18,1.18,0,0,1,.17-.2v.09a.54.54,0,0,0,.1.2s0,0,0,0a.64.64,0,0,0,.22.27,1.24,1.24,0,0,0,0,.52,5.06,5.06,0,0,1,0,1.86A1,1,0,0,0,14,14a1.7,1.7,0,0,0-.27.39" transform="translate(-0.04 0)"/><path class="bb" d="M10.65,19.06a5.69,5.69,0,0,1-2.88-.7,5.69,5.69,0,0,0,2.88.7,7.28,7.28,0,0,0,2.75-.52l.12-.05a7.15,7.15,0,0,1-2.87.57" transform="translate(-0.04 0)"/><path class="bb" d="M7.77,18.36A5,5,0,0,1,5.38,14a7,7,0,0,0,.27,1.62,4.68,4.68,0,0,0,2.12,2.72" transform="translate(-0.04 0)"/><path class="bc" d="M5.39,13.63a3.42,3.42,0,0,1,0-.45h0a3.42,3.42,0,0,0,0,.45h0" transform="translate(-0.04 0)"/><path class="bd" d="M5.38,14v-.17a1.55,1.55,0,0,1,0-.22h0a1.55,1.55,0,0,0,0,.22V14" transform="translate(-0.04 0)"/><path class="be" d="M14.43,15.79h0l-.05,0a.12.12,0,0,0,0,.24l.05,0h0a.15.15,0,0,0,0-.3m-.52.45-.05,0h0a.13.13,0,0,0,.07.24.13.13,0,0,0,.07-.24h0l-.05,0m-.39,2.25a3.56,3.56,0,0,0,1-.69,5.85,5.85,0,0,0,1.58-2.89,4.94,4.94,0,0,1-.87,1A4.82,4.82,0,0,1,12,17a5.79,5.79,0,0,1-1.31-.15.58.58,0,0,0,0-.32c-.13-.49-.68-.73-1.09-1a2.2,2.2,0,0,1,.95-.3l.17,0,.12,0a.06.06,0,0,0,0,0v0a.15.15,0,0,0,.27.06c.48.32.7,1,1.32,1l.2,0c.88-.19.8-1,.93-1.62a1.83,1.83,0,0,1,.11-.33c.17.41.56,1,1,1h.12c.51-.12.9-1.15.95-1.58,0,0,0-.06,0-.08.18.12.21.29.39.56a4.46,4.46,0,0,1-.07.51c0,.07,0,.15,0,.22a5.39,5.39,0,0,1-2.52,3.5" transform="translate(-0.04 0)"/><path class="bf" d="M12.08,18.09a8.32,8.32,0,0,1-2.71-.44,7.32,7.32,0,0,1-.75-.3,5.09,5.09,0,0,0,.58,0c.65,0,1.38-.12,1.52-.55A5.79,5.79,0,0,0,12,17a4.82,4.82,0,0,0,3.15-1.11,4.94,4.94,0,0,0,.87-1,5.85,5.85,0,0,1-1.58,2.89,10.77,10.77,0,0,1-2.39.29" transform="translate(-0.04 0)"/><path class="be" d="M6,11.37a6.05,6.05,0,0,1,.78-1.2h0A6.05,6.05,0,0,0,6,11.37m.73,1.41a5.06,5.06,0,0,1,.06-1.69c.09.35.39.53.54,1a3.1,3.1,0,0,1,.11.51,1.44,1.44,0,0,0-.56.14l-.15.07" transform="translate(-0.04 0)"/><path class="bf" d="M5.94,14.48a12.55,12.55,0,0,1-.51-1.3A5.66,5.66,0,0,1,6,11.37a6.05,6.05,0,0,1,.78-1.2.89.89,0,0,1,0,.46,1,1,0,0,0,0,.46,5.06,5.06,0,0,0-.06,1.69,1.6,1.6,0,0,0-.81,1.7" transform="translate(-0.04 0)"/><path class="bg" d="M14.68,15.37c-.43,0-.82-.55-1-1A1.7,1.7,0,0,1,14,14a.55.55,0,0,0,.41.21.52.52,0,0,0,.42-.25.11.11,0,0,0,.09,0,.1.1,0,0,0,0-.19.2.2,0,0,1,0-.08,1.72,1.72,0,0,1,.07-.21h.1a1.36,1.36,0,0,1,.29,0,.87.87,0,0,1,.38.13s0,.05,0,.08c-.05.43-.44,1.46-.95,1.58h-.12" transform="translate(-0.04 0)"/><path class="bh" d="M11.88,18.69A7.88,7.88,0,0,1,8.66,18a7.69,7.69,0,0,1-3-2.37A7,7,0,0,1,5.38,14v-.17a4.91,4.91,0,0,1,0-.67,12.55,12.55,0,0,0,.51,1.3,3.25,3.25,0,0,0,.36,1.09A3.34,3.34,0,0,0,8.24,17.3l.38.05a7.32,7.32,0,0,0,.75.3,8.32,8.32,0,0,0,2.71.44,10.77,10.77,0,0,0,2.39-.29,3.56,3.56,0,0,1-1,.69l-.12.05a7.76,7.76,0,0,1-1.52.15" transform="translate(-0.04 0)"/><path class="bi" d="M11.29,10.7a.15.15,0,0,1-.11-.08,1.5,1.5,0,0,0-.41-.42l.21.14h0a2.7,2.7,0,0,0-.88-.48h0a3.48,3.48,0,0,1,.48.21,3.61,3.61,0,0,0-.7-.25V9.78s1.24.17,1.41.92" transform="translate(-0.04 0)"/><path class="bi" d="M11.4,10.68a.82.82,0,0,1,.77-.37,1.56,1.56,0,0,0-.52.2h0a.19.19,0,0,0-.18.11h0l.15-.1-.17.13-.06,0" transform="translate(-0.04 0)"/><path class="bi" d="M12.71,10.46h0l0,0h0l0,0M12.89,12a4,4,0,0,1,0-.49,4,4,0,0,0-.06-.9,1.81,1.81,0,0,1,.13.35,1.71,1.71,0,0,1-.05.71s0,0,0,0h0a1.31,1.31,0,0,0-.19-1.25s0,0,0,0h0v0h0v0l-.13,0-.14,0,.37,0h0a3.52,3.52,0,0,1,.32.87,2.11,2.11,0,0,1,0,.25.75.75,0,0,1-.22.59" transform="translate(-0.04 0)"/><path class="bi" d="M13,12.13h0a1,1,0,0,1,.27.48,1.34,1.34,0,0,1,0,.49l0,0,0,0a1,1,0,0,0-.32-1m-.42,1.2a1.4,1.4,0,0,1,.61-.24,1.11,1.11,0,0,0,0-.48c0-.22-.2-.36-.26-.55h0a.77.77,0,0,1,.49.41.54.54,0,0,1,0,.08,2.1,2.1,0,0,1-.08.59c-.31,0-.56.14-.8.19" transform="translate(-0.04 0)"/><path class="aa" d="M8.45,12.81h0m0,0h0" transform="translate(-0.04 0)"/><path class="bj" d="M9.36,11.83h0m0,0h0m0,0h0m0,0h0m0,0h0m0,0h0m0,0h0m0,0h0m0,0h0m0,0h0m0,0h0m0,0h0m0,0h0m0,0h0m0,0h0m0,0h0m0,0h0m0,0h0m0,0h0m0,0h0m0,0h0m0,0h0m0,0h0m0,0h0m0,0h0m0,0h0m0,0h0m0,0h0m0,0h0m-.82,1a1.88,1.88,0,0,0,.16-.23,1.88,1.88,0,0,1-.16.23" transform="translate(-0.04 0)"/><path class="bk" d="M8.51,12.83l-.06,0h0a1.88,1.88,0,0,0,.16-.23h0c0-.05.05-.1.08-.14.14-.27.28-.55.58-.59h.16a.53.53,0,0,1-.11.09c-.05.05-.45.45-.66.7l.15-.29h0l-.31.5" transform="translate(-0.04 0)"/><path class="bk" d="M9.55,11.61a.46.46,0,0,1-.26-.4.61.61,0,0,1,.12-.34A3.22,3.22,0,0,0,9.82,10a.57.57,0,0,1,0,.44c-.11.28-.31.46-.29.77,0,.08.07.26.07.33a.15.15,0,0,1,0,.07" transform="translate(-0.04 0)"/><path class="bk" d="M9.57,13.27a.89.89,0,0,1-.35-.08l.1,0h0l-.19,0L8.83,13a2.81,2.81,0,0,0,.83.23.47.47,0,0,0,.3-.1.19.19,0,0,1,.1,0h0a1,1,0,0,1-.54.18" transform="translate(-0.04 0)"/><path class="bk" d="M10.71,14.21c.36-.19,1-.44,1-.68a.2.2,0,0,1,.07-.2.86.86,0,0,1,0,.22c0,.32-.19.46-.9.65a1.6,1.6,0,0,0,.33-.11s0,0,0,0h0a4.42,4.42,0,0,0-.48.15m-.1.06c-.39-.25-.66-.54-.66-.81a.47.47,0,0,1,.17-.36c.08,0,.14.11.07.19-.19.27.22.63.47.9-.1-.09-.2-.16-.29-.25a1.93,1.93,0,0,1-.28-.36h0a1.52,1.52,0,0,0,.59.64h0a0,0,0,0,0,0,0h-.06" transform="translate(-0.04 0)"/><path class="av" d="M14.79,6.42a.34.34,0,0,1,.19,0,.62.62,0,0,1,.2.36.06.06,0,0,0,.11,0,.41.41,0,0,0-.23-.57.45.45,0,0,0-.16,0,.58.58,0,0,0-.45.24.06.06,0,0,0,.05.08l0,0a.34.34,0,0,1,.26-.12m.76,1.21c-.44,0-.61-.73-1.05-.82-.24,0-.38,0-.54-.16h0a2.07,2.07,0,0,1,1-.44h.06a.31.31,0,0,1,.23.14c0,.23.09.46.14.69l-.06.36a.05.05,0,0,0,0,.07s0,0,0,0v0h0c.06-.1.11-.21.18-.32v0s0,.21.06.21,0,0,0,0,.05-.11.06-.18a.55.55,0,0,1,.24-.32.39.39,0,0,1,.18,0,.49.49,0,0,1,.3.12c0,.07,0,.14-.05.22a1.83,1.83,0,0,0,0,.33.82.82,0,0,0-.27-.06l-.12,0c-.14,0-.25.14-.38.19a.34.34,0,0,1-.16,0" transform="translate(-0.04 0)"/><path class="bl" d="M16.75,7.5a.88.88,0,0,1-.27-.06h0a1.83,1.83,0,0,1,0-.33c0-.08,0-.15.05-.22a.91.91,0,0,1,.16.11h0a1.4,1.4,0,0,0,.15.24l0,0s0,0,0,0A.78.78,0,0,0,16.91,7h0a2.07,2.07,0,0,0,.06-.5l0-.12a1.94,1.94,0,0,0,.2.46l0,0h0a.24.24,0,0,1,0,.09.72.72,0,0,1-.38.57.34.34,0,0,1-.14,0" transform="translate(-0.04 0)"/><path class="av" d="M13.94,6.63l0,0c-.11-.17-.22-.51-.07-.69a.74.74,0,0,1,.27-.16,1.36,1.36,0,0,0,.51-.15,1.5,1.5,0,0,0-.17.46,1.37,1.37,0,0,1-.13.2,1.19,1.19,0,0,0-.38.36h0M15.58,7h0" transform="translate(-0.04 0)"/><path class="bm" d="M15.58,7V6.91a.47.47,0,0,1,.13-.11.86.86,0,0,0-.13.17h0" transform="translate(-0.04 0)"/><path class="bn" d="M14.46,6.06a1.5,1.5,0,0,1,.17-.46,1.36,1.36,0,0,1-.51.15c.24-.08.54-.16.56-.27a2,2,0,0,1-.22.58m.66.06.13,0h0l-.13,0M14,6.66h0l0,0h0a1.19,1.19,0,0,1,.38-.36,1.56,1.56,0,0,1-.16.2,3.44,3.44,0,0,1,.69-.28H15l.19,0h0l.06,0,0,.15a.31.31,0,0,0-.23-.14H15a2.07,2.07,0,0,0-1,.44h0m3.27.16,0,0a1.94,1.94,0,0,1-.2-.46l0-.11c0,.24.16.39.22.59h0m-.3.45,0,0A1.4,1.4,0,0,1,16.75,7h0a.07.07,0,0,0,.06,0,.2.2,0,0,0,0-.08c0-.14.06-.29.1-.44a2.07,2.07,0,0,1-.06.5h0a.78.78,0,0,1,.07.25s0,0,0,0m-1.51.2a.05.05,0,0,1,0-.07L15.44,7c0,.07,0,.14,0,.21a.43.43,0,0,1,.1-.34V7h0a.86.86,0,0,1,.13-.17,1,1,0,0,1,.17-.1,1.58,1.58,0,0,0-.41.68l0,0a0,0,0,0,0,0,0A2.42,2.42,0,0,1,15.71,7a.24.24,0,0,0,0,.08c-.07.11-.12.22-.18.32h0v0s0,0,0,0" transform="translate(-0.04 0)"/><path class="bo" d="M18.86,8.26a2.56,2.56,0,0,0,0-.39v0a3.41,3.41,0,0,0-.19-1,3.11,3.11,0,0,1,.19,1.08,2.6,2.6,0,0,1,0,.4" transform="translate(-0.04 0)"/><path class="bp" d="M17.94,8.14a1.21,1.21,0,0,1-.32-.81c0-.34.15-.66.12-1a1.92,1.92,0,0,0-.62-1A1.87,1.87,0,0,0,16,4.57h-.52A.69.69,0,0,1,15,4.43a.54.54,0,0,1-.08-.61,1.19,1.19,0,0,1,.22-.33l.06,0a6.5,6.5,0,0,1,3,2.22,3.71,3.71,0,0,1,.46,1,3.41,3.41,0,0,1,.19,1v0h-.16a1.22,1.22,0,0,0-.46.09,1.17,1.17,0,0,0-.33.24" transform="translate(-0.04 0)"/><path class="bq" d="M18.8,8.64a1.73,1.73,0,0,1-.74-.37l-.12-.13a1.17,1.17,0,0,1,.33-.24,1.22,1.22,0,0,1,.46-.09h.16v0a2.56,2.56,0,0,1,0,.39,2.5,2.5,0,0,1-.06.38" transform="translate(-0.04 0)"/><path class="v" d="M8.61,15.36a.14.14,0,0,0,0,.28.14.14,0,1,0,0-.28m0,.46h0a5.08,5.08,0,0,1-1-1.05,8.3,8.3,0,0,1,0-1,8,8,0,0,0,0-1.2h0a1,1,0,0,1,.83.47,1,1,0,0,1-.16.19l.34.13h0a8.57,8.57,0,0,0,.83,1.85,1.5,1.5,0,0,0,.29.27l0,0a3.39,3.39,0,0,1-.66.27H8.87a.16.16,0,0,0-.11.05H8.6" transform="translate(-0.04 0)"/><path class="ab" d="M8.55,15.81a1,1,0,0,1-.24,0,1,1,0,0,1-.78-1,5.08,5.08,0,0,0,1,1.05" transform="translate(-0.04 0)"/><path class="br" d="M8.5,13.36l-.34-.13A1,1,0,0,0,8.32,13a1.92,1.92,0,0,1,.18.32" transform="translate(-0.04 0)"/><path class="bg" d="M7.53,14.76a.86.86,0,0,0-.07-.1,4.69,4.69,0,0,1-.71-1.88l.15-.07a1.44,1.44,0,0,1,.56-.14,8,8,0,0,1,0,1.2,8.3,8.3,0,0,0,0,1m1.16,1.16-.14-.11h.21a.14.14,0,0,0-.07.11m.89-.22a.12.12,0,0,0-.12.07v0a.15.15,0,0,0,.13.23.16.16,0,0,0,.14-.23l0,0a.12.12,0,0,0-.12-.07m1.14,1.13A5.7,5.7,0,0,1,9,16.1a.19.19,0,0,0,.09-.16.18.18,0,0,0-.12-.17,3.39,3.39,0,0,0,.66-.27l0,0c.41.3,1,.54,1.09,1a.58.58,0,0,1,0,.32" transform="translate(-0.04 0)"/><path class="bs" d="M9.2,17.38a5.09,5.09,0,0,1-.58,0,4.53,4.53,0,0,1-2.28-2c-.09-.21-.24-.52-.4-.88a1.6,1.6,0,0,1,.81-1.7,4.69,4.69,0,0,0,.71,1.88.86.86,0,0,1,.07.1,1,1,0,0,0,.78,1,1,1,0,0,0,.24,0l.14.11v0a.18.18,0,0,0,.18.18l.09,0a5.7,5.7,0,0,0,1.76.73c-.14.43-.87.55-1.52.55" transform="translate(-0.04 0)"/><path class="bt" d="M8.62,17.35l-.38-.05A3.34,3.34,0,0,1,6.3,15.57a3.25,3.25,0,0,1-.36-1.09c.16.36.31.67.4.88a4.53,4.53,0,0,0,2.28,2" transform="translate(-0.04 0)"/><path class="v" d="M2.2,10.93a.16.16,0,0,0,.16.1A.14.14,0,0,0,2.49,11a.16.16,0,0,0-.13-.24H2.27a.22.22,0,0,0-.2-.15.2.2,0,1,0,.13.35m.21.52a3.63,3.63,0,0,1-.88-.13,3.49,3.49,0,0,1-1.09-.45,2.49,2.49,0,0,1-.39-.48c0-.05,0-.1,0-.14a5.32,5.32,0,0,1,.14-1.2,1.24,1.24,0,0,0,.5.54c.53.3,3.3.19,2.54,1.51a.86.86,0,0,1-.81.35" transform="translate(-0.04 0)"/><path class="ab" d="M.44,10.87a3.37,3.37,0,0,1-.38-.28,1.34,1.34,0,0,1,0-.2,2.49,2.49,0,0,0,.39.48" transform="translate(-0.04 0)"/><path class="bu" d="M10.65,19.06a5.69,5.69,0,0,1-2.88-.7,4.68,4.68,0,0,1-2.12-2.72,7.69,7.69,0,0,0,3,2.37,7.88,7.88,0,0,0,3.22.68,7.76,7.76,0,0,0,1.52-.15,7.28,7.28,0,0,1-2.75.52" transform="translate(-0.04 0)"/><path class="v" d="M14.74,8.17l-.1,0a1.39,1.39,0,0,0-.54-.08h-.31a2.37,2.37,0,0,0-.52-1.25.43.43,0,0,0,0,0,.23.23,0,0,0-.16-.2L13,6.31c-.12-.31-.38-.67-.75-.67l-.16,0a.34.34,0,0,0-.24.24c-.24.16-.23.3-.22.58a2.4,2.4,0,0,0,.2.82,2.91,2.91,0,0,0,.21.48,1.87,1.87,0,0,1-.69-.53,1.6,1.6,0,0,1-.21-.6h0a2,2,0,0,1,0-.23,2.69,2.69,0,0,1,.58-1.14L12,5a.85.85,0,0,1,.35-.08l.15,0c1.39.24,1.06,1.91,1.75,2.69.18.19.41.32.52.52" transform="translate(-0.04 0)"/><path class="ab" d="M11.14,6.64A1.73,1.73,0,0,1,12,5l-.23.25a2.69,2.69,0,0,0-.58,1.14,2,2,0,0,0,0,.23m1.54,1.89a3.8,3.8,0,0,1-1.33-1.28,1.87,1.87,0,0,0,.69.53,1.08,1.08,0,0,0,.5.51c.09.14.11.2.14.24M14.22,9a3.39,3.39,0,0,1-.72-.13,3.18,3.18,0,0,1-.76-.32l.21,0a3,3,0,0,0,.36,0,.58.58,0,0,0,.4-.16,1.41,1.41,0,0,0,.08-.43h.31a1.39,1.39,0,0,1,.54.08l.1,0a.51.51,0,0,1,0,.35.52.52,0,0,1-.56.5" transform="translate(-0.04 0)"/><path class="bv" d="M14.23,11.67a1.07,1.07,0,0,0,.07.92c.17.25.32.35.45.35.36,0,.53-.77.14-1.21a.59.59,0,0,0-.4-.25.25.25,0,0,0-.17.06.19.19,0,0,0-.07.06.11.11,0,0,0,0,.07m.39,1.46a.23.23,0,1,0,0,.46.23.23,0,1,0,0-.46M14,14a1,1,0,0,1-.17-.77,5.06,5.06,0,0,0,0-1.86,1.24,1.24,0,0,1,0-.52l0,0,.12,0a.25.25,0,0,0,.22-.37l0,0h0c.2,0,.42.16.63.5A3.79,3.79,0,0,1,15,13.54a1.7,1.7,0,0,0-.63.18.14.14,0,0,0-.13.07A1.49,1.49,0,0,0,14,14" transform="translate(-0.04 0)"/><path class="bw" d="M14.37,14.23A.55.55,0,0,1,14,14a1.49,1.49,0,0,1,.27-.23.15.15,0,0,0,.13.22.15.15,0,0,0,0-.29h0a1.7,1.7,0,0,1,.63-.18,1.72,1.72,0,0,0-.07.21.2.2,0,0,0,0,.08h0a.1.1,0,0,0-.09.15.52.52,0,0,1-.42.25" transform="translate(-0.04 0)"/><path class="bv" d="M6.16,7h0m.29-1.06c-.48,0-.66,1,0,1.11h.1a.38.38,0,0,0,.37-.34A.16.16,0,0,0,7,6.78a.12.12,0,0,0,.08,0,.15.15,0,0,0,0-.21A.17.17,0,0,0,7,6.47H7l-.06,0A.59.59,0,0,0,6.6,6L6.52,6H6.45m.68,1A.11.11,0,0,0,7,7.06v.05a.14.14,0,0,0,0,.13l0,0a.09.09,0,0,0,.07,0,.11.11,0,0,0,.07,0l0,0a.14.14,0,0,0,0-.1h0V7.06A.13.13,0,0,0,7.13,7m-.58.82a.19.19,0,0,0,0,.38.18.18,0,0,0,.17-.11h0l.09,0h0L6.9,8A.1.1,0,0,0,7,8,.22.22,0,0,0,7,7.75a.21.21,0,0,0-.14-.15.15.15,0,0,0-.09,0,.24.24,0,0,0-.24.22h0m-.65.27a.07.07,0,0,0,0,.14.07.07,0,0,0,0-.14M6,8.42a.12.12,0,0,0-.08,0,.1.1,0,0,0,0,0,.14.14,0,1,0,.24,0,.1.1,0,0,0,0,0,.12.12,0,0,0-.08,0m0,.41c-.59,0-.67-.5-.34-1a.51.51,0,0,0,.09-.29h0A.18.18,0,0,0,6,7.2a.19.19,0,0,0-.13-.06.21.21,0,0,0-.13.05c-.13-.27-.36-.52-.24-.88s.38-.55.65-.55a1.68,1.68,0,0,1,1.31,1,1.21,1.21,0,0,1,.08.34l0,0H7.38a.16.16,0,0,0,0,.29.12.12,0,0,0,.08,0,.15.15,0,0,0,.11,0,1.86,1.86,0,0,1,0,.34,1.26,1.26,0,0,1-.36.67,1.81,1.81,0,0,1-.85.4L6,8.83" transform="translate(-0.04 0)"/><path class="ab" d="M12.74,8.57l-.06,0,.06,0" transform="translate(-0.04 0)"/><path class="bv" d="M12.68,7.37a.08.08,0,1,0,0,.15.08.08,0,0,0,0-.15m.13.13s0,0,0,0a.64.64,0,0,1,.22.14s0,0,.05,0a.05.05,0,0,0,0-.05h.08a.41.41,0,0,0,.16,0,.11.11,0,0,0,.06-.09.14.14,0,0,0,0-.28.12.12,0,0,0-.12.08.94.94,0,0,1-.15.06.13.13,0,0,0-.08.2.58.58,0,0,1-.22-.08h0m.51.58h-.05A3.13,3.13,0,0,1,12,7.78a2.91,2.91,0,0,1-.21-.48,2.4,2.4,0,0,1-.2-.82c0-.28,0-.42.22-.58a.34.34,0,0,1,.24-.24l.16,0c.37,0,.63.36.75.67l.12.25h0a.22.22,0,0,0-.21.17.14.14,0,0,0-.11-.06.16.16,0,0,0-.14.08h-.13a.14.14,0,0,0-.14.15.14.14,0,0,0,.14.16h0a.48.48,0,0,0,.18,0l0,0h.05s.05,0,.06,0a.21.21,0,0,0,.09-.1.19.19,0,0,0,.17.09.21.21,0,0,0,.2-.15,2.37,2.37,0,0,1,.52,1.25h-.08l-.39,0" transform="translate(-0.04 0)"/><path class="bx" d="M13.31,8.65a3,3,0,0,1-.36,0l-.21,0-.06,0s0-.1-.14-.24a1.08,1.08,0,0,1-.5-.51,3.13,3.13,0,0,0,1.23.3h.05l.39,0h.08a1.41,1.41,0,0,1-.08.43.58.58,0,0,1-.4.16" transform="translate(-0.04 0)"/><path class="by" d="M11.13,15.35a.91.91,0,0,0-.26-.13.05.05,0,0,1,0-.05.1.1,0,0,1,.1-.08.09.09,0,0,1,.1.08.11.11,0,0,1,0,.09v0a.13.13,0,0,1,0,.06" transform="translate(-0.04 0)"/><path class="bz" d="M11,15.42a.13.13,0,0,1-.14-.13v0a.06.06,0,0,1,0,0,.91.91,0,0,1,.26.13.14.14,0,0,1-.13.07" transform="translate(-0.04 0)"/><path class="by" d="M11.65,15.23a.24.24,0,1,1,.24-.23.24.24,0,0,1-.24.23" transform="translate(-0.04 0)"/><path class="by" d="M12.16,15.81a.12.12,0,0,1,0-.24.12.12,0,1,1,0,.24" transform="translate(-0.04 0)"/><path class="by" d="M12.75,15.05a.12.12,0,1,1,0-.23.12.12,0,0,1,0,.23" transform="translate(-0.04 0)"/><path class="ca" d="M14.68,13.36a.06.06,0,0,0-.06.06c0,.05,0,.08,0,.1h0c.05,0,.05,0,.05-.1a.07.07,0,0,0-.07-.06m-.06.23a.23.23,0,1,1,0-.46.23.23,0,1,1,0,.46" transform="translate(-0.04 0)"/><path class="ca" d="M14.23,11.67a.11.11,0,0,1,0-.07.19.19,0,0,1,.07-.06l-.09.13" transform="translate(-0.04 0)"/><path class="cb" d="M15.39,13h0a.12.12,0,0,1-.1-.11.11.11,0,0,1,0-.08l0,0h0l0,0h0c.12,0,.09.22,0,.22" transform="translate(-0.04 0)"/><path class="cb" d="M8.23,10.46a.18.18,0,0,1,0-.36.18.18,0,0,1,0,.36" transform="translate(-0.04 0)"/><path class="cb" d="M8.61,9.67a.15.15,0,0,1,0-.29.15.15,0,1,1,0,.29" transform="translate(-0.04 0)"/><path class="cb" d="M8.94,9.85a.13.13,0,1,1,0-.27.13.13,0,0,1,0,.27" transform="translate(-0.04 0)"/><path class="cb" d="M9.39,9.62a.1.1,0,1,1,0-.19.1.1,0,0,1,0,.19" transform="translate(-0.04 0)"/><path class="cb" d="M13.27,6.81l-.15-.25a.23.23,0,0,1,.16.2.43.43,0,0,1,0,0" transform="translate(-0.04 0)"/><path class="ca" d="M13.07,7a.19.19,0,0,1-.17-.09h0a.12.12,0,0,0,0-.14.22.22,0,0,1,.21-.17h0l.15.25a.21.21,0,0,1-.2.15" transform="translate(-0.04 0)"/><path class="ca" d="M12.48,7a.14.14,0,0,1-.14-.16.14.14,0,0,1,.14-.15h.13a.11.11,0,0,0,0,.12.19.19,0,0,0,.09.11s0,0,0,0l0,0a.48.48,0,0,1-.18,0h0" transform="translate(-0.04 0)"/><path class="ca" d="M13.2,7.64h-.08a0,0,0,0,0,0-.06h0a.13.13,0,0,1,.08-.2.94.94,0,0,0,.15-.06.12.12,0,0,1,.12-.08.14.14,0,0,1,0,.28.11.11,0,0,1-.06.09.41.41,0,0,1-.16,0" transform="translate(-0.04 0)"/><path class="by" d="M16.58,6.8s0,0,0,0h0l0,0h0" transform="translate(-0.04 0)"/><path class="cb" d="M16.73,7l0,0a.54.54,0,0,1-.09-.12l0,0h0a1,1,0,0,1,.15.2" transform="translate(-0.04 0)"/><path class="cc" d="M16,6.67l0,0a.54.54,0,0,1,.25-.06l.06.06h-.13l-.2,0m.79.33h-.05a1,1,0,0,0-.15-.2l0,0c0-.06-.09-.11-.13-.16a.43.43,0,0,1,.41.34.08.08,0,0,1,0,.07" transform="translate(-0.04 0)"/><path class="cd" d="M15.75,7.32c-.05,0-.06-.2-.06-.21v0a.73.73,0,0,1,.57-.42h.07l.05,0,.13.09h0a0,0,0,0,0,0-.05l0,0s0,0,0,0l0,.09a.49.49,0,0,0-.3-.12.39.39,0,0,0-.18,0,.55.55,0,0,0-.24.32c0,.07,0,.14-.06.18s0,0,0,0" transform="translate(-0.04 0)"/><path class="ce" d="M16.74,7h0a.91.91,0,0,0-.16-.11l0-.09,0,0A.54.54,0,0,0,16.7,7l0,0,0,0h0" transform="translate(-0.04 0)"/><path class="cf" d="M16.75,7l0,0h0m-1.06.07a.24.24,0,0,1,0-.08,1.37,1.37,0,0,1,.22-.27L16,6.67l.2,0h.13v0h-.07a.73.73,0,0,0-.57.42" transform="translate(-0.04 0)"/><path class="by" d="M4,8.15a.2.2,0,0,1-.13-.06.16.16,0,0,1,0-.09h0a.57.57,0,0,1,0-.18.17.17,0,0,1,0-.12A.22.22,0,0,1,4,7.48a.21.21,0,0,1,.15.07.09.09,0,0,1,.08,0,.12.12,0,0,1,.06.14.12.12,0,0,1-.11.09l-.06.06h0a.59.59,0,0,1-.05.19A.13.13,0,0,1,4,8.15" transform="translate(-0.04 0)"/><path class="by" d="M4.55,7.89a.13.13,0,0,1-.14-.13.13.13,0,0,1,.14-.12h0a.19.19,0,0,1,.12.07.09.09,0,0,1,0,.1.16.16,0,0,1-.12.08h0" transform="translate(-0.04 0)"/><path class="by" d="M2.16,9.26a.11.11,0,0,1-.11-.08,2,2,0,0,1,0-.42.16.16,0,0,1,.28-.11.16.16,0,0,0,.1,0h0l.2,0H2.7a.14.14,0,0,1,.15.14.31.31,0,0,1-.34.29.52.52,0,0,1-.21,0,.69.69,0,0,1,0,.13.09.09,0,0,1-.09.06" transform="translate(-0.04 0)"/><path class="ca" d="M6,8.72a.14.14,0,0,1-.12-.21.1.1,0,0,1,0,0,.1.1,0,0,1,.16,0,.1.1,0,0,1,0,0A.14.14,0,0,1,6,8.72" transform="translate(-0.04 0)"/><path class="ca" d="M6.55,8.18a.19.19,0,0,1,0-.38h0a.19.19,0,0,0,0,.08l0,.06a.24.24,0,0,0,.14.12.18.18,0,0,1-.17.11" transform="translate(-0.04 0)"/><path class="cb" d="M5.79,7.5a.18.18,0,0,1-.08-.3h0a.58.58,0,0,1,.08.31" transform="translate(-0.04 0)"/><path class="ca" d="M5.84,7.5h0a.58.58,0,0,0-.08-.31.21.21,0,0,1,.13-.05A.19.19,0,0,1,6,7.2a.18.18,0,0,1-.13.3" transform="translate(-0.04 0)"/><path class="cb" d="M2.36,11a.16.16,0,0,1-.16-.1.2.2,0,1,1-.13-.35.22.22,0,0,1,.2.15h.09a.16.16,0,0,1,.13.24.14.14,0,0,1-.13.08" transform="translate(-0.04 0)"/><path class="cg" d="M9.51,12.82a.16.16,0,0,1-.15-.09s0-.05,0-.06h0a.2.2,0,0,1-.2-.23H9a.07.07,0,0,1,0-.12.56.56,0,0,1,.18-.07l.17,0a.12.12,0,0,1,.1,0c.12,0,.23.13.16.24h0a.34.34,0,0,1,.11.3.18.18,0,0,1-.18.13" transform="translate(-0.04 0)"/><path class="cg" d="M10.67,13.73a.21.21,0,0,1-.19-.09v0l0,0a.35.35,0,0,1,0-.22h0v0a.16.16,0,0,1,.17-.13l.08,0a.31.31,0,0,1,.1.1h.29a.21.21,0,0,1,.16.07.14.14,0,0,1,0,.15c0,.1-.13.11-.23.12l-.29.08h-.05" transform="translate(-0.04 0)"/><path class="cg" d="M10.14,10.86h-.07c-.07,0-.14-.11-.11-.18a.36.36,0,0,1,.21-.19.66.66,0,0,1,.27-.09h0a.16.16,0,0,1,.11.27.55.55,0,0,1-.24.15.67.67,0,0,1-.19,0" transform="translate(-0.04 0)"/><path class="ch" d="M10.49,11.27l.11-.12h0l0,.07-.08,0m-.23,1.33,0-.08,0,.06,0,0m0,0a.08.08,0,0,1-.07,0,1.42,1.42,0,0,1-.05-.22.62.62,0,0,0,.12.26h0" transform="translate(-0.04 0)"/><path class="ci" d="M10.37,11.89a1,1,0,0,1,.94-.54.76.76,0,0,1,.54.19s0,0,0,.06a.89.89,0,0,0-.6-.22h0a1,1,0,0,0-.35.06h0a1,1,0,0,0-.52.44m-.09.69,0-.06a1.24,1.24,0,0,1-.11-.46,1.69,1.69,0,0,1,.37-.79l.08,0a2.09,2.09,0,0,0-.22.71.81.81,0,0,0,0,.51.34.34,0,0,1,0,.1s0,0,0,0" transform="translate(-0.04 0)"/><path class="cj" d="M11.26,11.38h0m-.36.06h0m0,0h0m0,0h0m1,.15a.89.89,0,0,0-.6-.22.89.89,0,0,1,.6.22m-1.56.84a.81.81,0,0,1,0-.51h0l0,0a1,1,0,0,1,.52-.44,1,1,0,0,0-.4.27h.27a1.4,1.4,0,0,0-.37.7h0a.63.63,0,0,1-.07-.22,1.79,1.79,0,0,1,0,.23" transform="translate(-0.04 0)"/><path class="ck" d="M11.26,11.38h0m-.35.06a1,1,0,0,1,.35-.06,1,1,0,0,0-.35.06m0,0h0m0,0h0m0,0h0" transform="translate(-0.04 0)"/><path class="cl" d="M10.69,11.73h-.2a1,1,0,0,1,.4-.27h0a1,1,0,0,1,.35-.06h0a.89.89,0,0,1,.6.22s0,0,0,0h0a1.41,1.41,0,0,0-.49-.09.87.87,0,0,0-.49.14l-.06.05h-.07" transform="translate(-0.04 0)"/><path class="cb" d="M8.61,15.64a.14.14,0,0,1,0-.28.14.14,0,1,1,0,.28" transform="translate(-0.04 0)"/><path class="cb" d="M8.76,15.81a.16.16,0,0,1,.11-.05h.06l-.17,0" transform="translate(-0.04 0)"/><path class="cm" d="M9,16.1l-.27-.18a.14.14,0,0,1,.07-.11l.17,0a.18.18,0,0,1,.12.17A.19.19,0,0,1,9,16.1" transform="translate(-0.04 0)"/><path class="cn" d="M8.87,16.12a.18.18,0,0,1-.18-.18v0L9,16.1l-.09,0" transform="translate(-0.04 0)"/><path class="cm" d="M9.58,16a.15.15,0,0,1-.13-.23v0a.14.14,0,0,1,.24,0l0,0a.16.16,0,0,1-.14.23" transform="translate(-0.04 0)"/><path class="cb" d="M17.14,8.46h0a.2.2,0,1,1,0-.39h0a.22.22,0,0,1,.17.14.2.2,0,0,1-.19.25" transform="translate(-0.04 0)"/><path class="cb" d="M17.46,7.75c-.12,0-.24-.07-.14-.22l0,0a.14.14,0,0,1,.12-.06.16.16,0,0,1,.12.06l0,0c.1.15,0,.22-.14.22" transform="translate(-0.04 0)"/><path class="cd" d="M15.24,6.87a.05.05,0,0,1-.06,0,.62.62,0,0,0-.2-.36.36.36,0,0,0-.45.07l0,0a.06.06,0,0,1-.05-.08.58.58,0,0,1,.45-.24.45.45,0,0,1,.16,0,.41.41,0,0,1,.23.57.05.05,0,0,1,0,0" transform="translate(-0.04 0)"/><path class="co" d="M2.8,7.55h0s0,0-.07-.06a.24.24,0,0,1-.06-.11c0-.08-.07-.17-.11-.25a.14.14,0,0,1,.1-.18A2.6,2.6,0,0,1,3,6.9c.14,0,.27,0,.28.16s-.15.18-.33.18H2.85a.17.17,0,0,1,0,.07.57.57,0,0,1,0,.13s0,0,0,.08,0,0,0,0" transform="translate(-0.04 0)"/><path class="ca" d="M7,6.78a.16.16,0,0,1-.13-.06.65.65,0,0,0,0-.2l.06,0H7a.17.17,0,0,1,.13.08.15.15,0,0,1,0,.21.12.12,0,0,1-.08,0" transform="translate(-0.04 0)"/><path class="ca" d="M7.13,7.29a.09.09,0,0,1-.07,0l0,0a.14.14,0,0,1,0-.13V7.06A.11.11,0,0,1,7.13,7a.13.13,0,0,1,.12.08v.07h0a.14.14,0,0,1,0,.1l0,0a.11.11,0,0,1-.07,0" transform="translate(-0.04 0)"/><path class="cb" d="M5.1,8A.14.14,0,0,1,5,7.79v0a.16.16,0,0,1,.13-.08.16.16,0,0,1,.11,0,.15.15,0,0,1,0,.23h0L5.1,8" transform="translate(-0.04 0)"/><path class="by" d="M4.28,8.85l-.07,0,0,0a.17.17,0,0,1,0-.25.15.15,0,0,1,.11,0,.17.17,0,0,1,.14.08l0,0a.15.15,0,0,1-.14.22" transform="translate(-0.04 0)"/><path class="cb" d="M17.52,8.46a.13.13,0,0,1,0-.26.13.13,0,0,1,0,.26" transform="translate(-0.04 0)"/><path class="cb" d="M17.37,8.92h0a.17.17,0,0,1,.1-.14l-.1.14" transform="translate(-0.04 0)"/><path class="cp" d="M17.52,9.11A.16.16,0,0,1,17.37,9l.16.12h0" transform="translate(-0.04 0)"/><path class="cq" d="M17.53,9.11,17.37,9V8.92l.1-.14h.05a.17.17,0,0,1,.16.15V9c0,.08-.08.15-.15.15" transform="translate(-0.04 0)"/><path class="bz" d="M13.91,16.51a.13.13,0,0,1-.07-.24h0l.05,0,.05,0h0a.13.13,0,0,1-.07.24" transform="translate(-0.04 0)"/><path class="bz" d="M14.43,16.09h0l-.05,0a.12.12,0,0,1,0-.24l.05,0h0a.15.15,0,0,1,0,.3" transform="translate(-0.04 0)"/><path class="cr" d="M14.42,12.22a.13.13,0,0,0,0,.26.13.13,0,1,0,0-.26m.33.72c-.13,0-.28-.1-.45-.35a1.07,1.07,0,0,1-.07-.92.14.14,0,0,0,.14.11.1.1,0,0,0,.11-.08.13.13,0,0,0-.13-.16h0a.25.25,0,0,1,.17-.06.59.59,0,0,1,.4.25c.39.44.22,1.21-.14,1.21" transform="translate(-0.04 0)"/><path class="cs" d="M14.42,12.48a.13.13,0,0,1,0-.26.13.13,0,1,1,0,.26" transform="translate(-0.04 0)"/><path class="cs" d="M14.37,11.78a.14.14,0,0,1-.14-.11l.09-.13h0a.13.13,0,0,1,.13.16.1.1,0,0,1-.11.08" transform="translate(-0.04 0)"/><path class="ct" d="M13.51,10.27a.27.27,0,0,1,.09-.15.25.25,0,0,1,.15,0,.14.14,0,0,1,.1,0l.05,0h-.05a.52.52,0,0,0-.34.13" transform="translate(-0.04 0)"/><path class="cu" d="M13.84,10.87a.64.64,0,0,1-.22-.27s0,0,0,0a.54.54,0,0,1-.1-.2v-.09a.52.52,0,0,1,.34-.13h.05a.82.82,0,0,1,.17.2l.12.18c-.16,0-.29.14-.35.35" transform="translate(-0.04 0)"/><path class="cr" d="M14,10.92l-.12,0,0,0c.06-.21.19-.34.35-.35l0,0a.25.25,0,0,1-.22.37" transform="translate(-0.04 0)"/><path class="cr" d="M6.5,7.06H6.4c-.61-.13-.43-1.11,0-1.11h.07L6.6,6a.59.59,0,0,1,.29.55.15.15,0,0,0,0,.17v0a.38.38,0,0,1-.37.34" transform="translate(-0.04 0)"/><path class="cs" d="M6.87,6.72v0a.15.15,0,0,1,0-.17.65.65,0,0,1,0,.2" transform="translate(-0.04 0)"/><path class="cr" d="M6.77,8.07h0a.2.2,0,0,0-.17-.27.24.24,0,0,1,.24-.22.15.15,0,0,1,.09,0A.21.21,0,0,1,7,7.75.22.22,0,0,1,7,8,.1.1,0,0,1,6.9,8l-.06,0h0l-.09,0" transform="translate(-0.04 0)"/><path class="cs" d="M6.72,8.07A.24.24,0,0,1,6.58,8l0-.06a.19.19,0,0,1,0-.08h0a.2.2,0,0,1,.17.27" transform="translate(-0.04 0)"/><polyline class="cv" points="7.54 7.23 7.54 7.23 7.54 7.23 7.54 7.23"/><path class="cv" d="M7.53,7.39a2.11,2.11,0,0,0,0-.25.14.14,0,0,1,.07.1h0v0s0,0,0,0h0a.14.14,0,0,1,0,.15" transform="translate(-0.04 0)"/><path class="cw" d="M7.42,7.43a.12.12,0,0,1-.08,0,.16.16,0,0,1,0-.29h.09l0,0a2.11,2.11,0,0,1,0,.25.15.15,0,0,1-.11,0" transform="translate(-0.04 0)"/><path class="cx" d="M7.58,7.24h0m0,0v0s0,0,0,0" transform="translate(-0.04 0)"/><path class="cy" d="M10.11,12.34a.76.76,0,0,1,0-.21s0,.08,0,.12,0,.06,0,.09m.17.34a.35.35,0,0,1,0-.08h0l0,.07h0" transform="translate(-0.04 0)"/><path class="cz" d="M10.1,12.25s0-.08,0-.12a.49.49,0,0,1,0-.12h0a.11.11,0,0,0,0,.05,1.11,1.11,0,0,0,0,.19" transform="translate(-0.04 0)"/><path class="da" d="M10.23,12.6a.62.62,0,0,1-.12-.26s0-.06,0-.09l0,.1a1,1,0,0,0,.1.17l0,.08h0" transform="translate(-0.04 0)"/><path class="db" d="M10.23,12.52a1,1,0,0,1-.1-.17l0-.1a1.11,1.11,0,0,1,0-.19,1.24,1.24,0,0,0,.11.46" transform="translate(-0.04 0)"/><path class="dc" d="M10.74,13.13h0a.64.64,0,0,1-.3-.2,1.21,1.21,0,0,0,.3.2" transform="translate(-0.04 0)"/><path class="cy" d="M10.75,13.13h0a1.21,1.21,0,0,1-.3-.2l-.09-.1h0a.89.89,0,0,0,.39.27s0,0,0,0" transform="translate(-0.04 0)"/><path class="dd" d="M14.71,6.19h0c.1,0,.2,0,.3,0h.1a1.22,1.22,0,0,0-.26.06h-.15m.72.31h0c-.05-.07-.08-.22-.13-.29a.36.36,0,0,1,0-.1h0s0,0,0,0a1.22,1.22,0,0,1,.14.36,0,0,0,0,1,0,0" transform="translate(-0.04 0)"/><path class="de" d="M15.27,6.2l-.06,0h0l-.19,0h-.12a1.22,1.22,0,0,1,.26-.06l.13,0a.36.36,0,0,0,0,.1" transform="translate(-0.04 0)"/><path class="dd" d="M15.88,6.7l.29-.26h.06l.17.15h-.14a.05.05,0,0,0,0,0h0c-.06,0-.11,0-.17.1l-.06,0-.07,0" transform="translate(-0.04 0)"/><path class="de" d="M15.49,7.4l0,0a1.58,1.58,0,0,1,.41-.68l.07,0,0,0a.61.61,0,0,0-.21.3,2.42,2.42,0,0,0-.21.39,0,0,0,0,1,0,0" transform="translate(-0.04 0)"/><path class="df" d="M16,6.68l.06,0,0,0h0" transform="translate(-0.04 0)"/><path class="dg" d="M15.71,7a.61.61,0,0,1,.21-.3l0,0h0l-.06.06a1.37,1.37,0,0,0-.22.27" transform="translate(-0.04 0)"/><polyline class="dh" points="16.49 6.75 16.48 6.74 16.48 6.75 16.49 6.75"/><path class="df" d="M16.53,6.75h0a.42.42,0,0,0-.2-.1l-.06-.06h.14s.09.1.13.16" transform="translate(-0.04 0)"/><path class="di" d="M16.52,6.82h0l-.13-.09-.05,0a.37.37,0,0,1,.19.08h0l0,0a0,0,0,0,1,0,.05" transform="translate(-0.04 0)"/><path class="dg" d="M16.52,6.75a.37.37,0,0,0-.19-.08v0a.42.42,0,0,1,.2.1" transform="translate(-0.04 0)"/><path class="dj" d="M3.46,7.57c0-.1,0-.2,0-.31v0l.13,0,0,.07a.14.14,0,0,0-.07.11.29.29,0,0,0,0,.09l0,.09" transform="translate(-0.04 0)"/><path class="dd" d="M3.58,7.28l0-.07a4.38,4.38,0,0,1,.61-.12h0s0,0,0,0l-.41.1a.77.77,0,0,0-.24.06m-.11.89h0c0-.2,0-.4,0-.6l0-.09c0,.11,0,.22,0,.32s0,.25,0,.37" transform="translate(-0.04 0)"/><path class="ct" d="M3,8.41l-.46-.19.09,0A.79.79,0,0,1,3,8.41" transform="translate(-0.04 0)"/><path class="dd" d="M3.29,8.5h0L3,8.41a.79.79,0,0,0-.37-.17l-.09,0-.24-.1a0,0,0,0,1,0,0h0a8.13,8.13,0,0,1,1,.38s0,0,0,0" transform="translate(-0.04 0)"/><path class="dd" d="M3.48,8.4h0a.9.9,0,0,1,0-.28h0a.86.86,0,0,1,0,.28h0" transform="translate(-0.04 0)"/><path class="dc" d="M11.63,10.52h0" transform="translate(-0.04 0)"/><path class="dk" d="M11.48,10.62h0a.19.19,0,0,1,.18-.11h0l-.15.1" transform="translate(-0.04 0)"/><path class="dc" d="M12.66,10.41a.65.65,0,0,1-.2-.05s0,0,0,0h0l.07,0a.29.29,0,0,1,.12.07m.13.19-.08-.14a.39.39,0,0,1,.08.14" transform="translate(-0.04 0)"/><path class="dk" d="M12.88,11.68s0,0,0,0a1.71,1.71,0,0,0,.05-.71,1.81,1.81,0,0,0-.13-.35.39.39,0,0,0-.08-.14l0,0h0a.29.29,0,0,0-.12-.07l.13,0v0h0v0h0s0,0,0,0a1.31,1.31,0,0,1,.19,1.25h0" transform="translate(-0.04 0)"/><path class="dk" d="M13.25,13.13l0,0a1.34,1.34,0,0,0,0-.49,1,1,0,0,0-.27-.48h0a1,1,0,0,1,.32,1l0,0" transform="translate(-0.04 0)"/><path class="dc" d="M10.77,10.2l-.2-.12.2.12" transform="translate(-0.04 0)"/><path class="dk" d="M11,10.34l-.21-.14-.2-.12a3.48,3.48,0,0,0-.48-.21h0a2.7,2.7,0,0,1,.88.48h0" transform="translate(-0.04 0)"/><path class="dl" d="M9.22,13.19a3.26,3.26,0,0,1-.71-.33v0h0l.07,0,.08.07a1.43,1.43,0,0,0,.45.21l.09,0" transform="translate(-0.04 0)"/><path class="dc" d="M8.6,12.87l-.07,0s0-.1.14-.22l0,0a.44.44,0,0,0-.08.15.11.11,0,0,0,0,.07" transform="translate(-0.04 0)"/><path class="dm" d="M8.53,12.84h0l.31-.5h0l-.15.29c-.1.12-.17.21-.14.22" transform="translate(-0.04 0)"/><path class="dm" d="M9.32,13.21l-.1,0-.09,0,.19,0h0" transform="translate(-0.04 0)"/><path class="dl" d="M10.68,14.26h0l.2-.06-.19.06h0" transform="translate(-0.04 0)"/><path class="dc" d="M10.69,14.22l0,0,0,0h0" transform="translate(-0.04 0)"/><path class="dm" d="M10.67,14.26a0,0,0,0,1,0,0h0a1.52,1.52,0,0,1-.59-.64h0a1.93,1.93,0,0,0,.28.36c.09.09.19.16.29.25l0,0h0a4.42,4.42,0,0,1,.48-.15h0s0,0,0,0a1.6,1.6,0,0,1-.33.11l-.2.06" transform="translate(-0.04 0)"/><path class="dd" d="M1.57,8.09c0-.14-.09-.33,0-.45a.24.24,0,0,1,.18-.07h.14L2,7.6h0s0,0,0,0H1.77a.15.15,0,0,0-.09,0c-.19.07-.15.29-.1.44h0" transform="translate(-0.04 0)"/><path class="dd" d="M2.44,7c-.09-.09,0-.21.09-.26a.41.41,0,0,1,.19,0,.65.65,0,0,1,.3.09s0,0,0,0H3a1.09,1.09,0,0,0-.31-.08h0A.25.25,0,0,0,2.44,7h0" transform="translate(-0.04 0)"/><path class="ct" d="M4.8,9.45a.06.06,0,0,1,0-.11.36.36,0,0,0,.07.1h0" transform="translate(-0.04 0)"/><path class="cu" d="M4.85,9.44a.36.36,0,0,1-.07-.1h0c.06,0,.07.06,0,.1" transform="translate(-0.04 0)"/><path class="cu" d="M16.21,5.05,16.34,5h0s0,0,0,0h0a.47.47,0,0,0-.16,0" transform="translate(-0.04 0)"/><path class="dd" d="M16.53,5.45h0c0-.08-.07-.17-.12-.25s0-.13-.1-.14h0s-.11.06-.13.07l-.58.31h0a6.41,6.41,0,0,1,.62-.38.47.47,0,0,1,.16,0h0c.06.15.12.28.17.43h0" transform="translate(-0.04 0)"/><path class="cr" d="M12.75,7h0a.11.11,0,0,0,0-.19l0,0a.09.09,0,0,0-.06,0,.16.16,0,0,1,.14-.08.14.14,0,0,1,.11.06v0a.25.25,0,0,0,0,.11.21.21,0,0,1-.09.1s0,0-.06,0" transform="translate(-0.04 0)"/><path class="cs" d="M12.9,6.87a.25.25,0,0,1,0-.11v0a.12.12,0,0,1,0,.14h0" transform="translate(-0.04 0)"/><path class="cs" d="M12.7,7s0,0,0,0a.19.19,0,0,1-.09-.11.11.11,0,0,1,0-.12.09.09,0,0,1,.06,0l0,0a.11.11,0,0,1,0,.19h0" transform="translate(-0.04 0)"/><path class="cr" d="M12.68,7.52a.08.08,0,1,1,0-.15.08.08,0,0,1,0,.15" transform="translate(-0.04 0)"/><path class="cr" d="M13.07,7.69s0,0-.05,0a.64.64,0,0,0-.22-.14s0,0,0,0h0a.58.58,0,0,0,.22.08.09.09,0,0,0,.08,0h0a.05.05,0,0,1,0,.05" transform="translate(-0.04 0)"/><path class="cs" d="M13.12,7.64h0a.09.09,0,0,1-.08,0h0a0,0,0,0,1,0,.06" transform="translate(-0.04 0)"/><path class="cr" d="M14.23,13.79a.14.14,0,0,1,.13-.07.47.47,0,0,0-.12.07h0" transform="translate(-0.04 0)"/><path class="dn" d="M14.36,14a.15.15,0,0,1-.13-.22h0a.47.47,0,0,1,.12-.07h0a.15.15,0,0,1,0,.29" transform="translate(-0.04 0)"/><path class="do" d="M14.88,14a.11.11,0,0,1-.09,0l.07-.11a.08.08,0,0,1,0,0,.1.1,0,0,1,0,.19" transform="translate(-0.04 0)"/><path class="dn" d="M14.79,14a.1.1,0,0,1,.09-.15h0a.08.08,0,0,0,0,0l-.07.11" transform="translate(-0.04 0)"/><path class="cs" d="M14.68,13.53h0s0,0,0-.1a.06.06,0,0,1,.06-.06.07.07,0,0,1,.07.06c0,.05,0,.08-.05.1h0" transform="translate(-0.04 0)"/><path class="cu" d="M7.64,7.78a.08.08,0,0,1,0-.16h.07a.06.06,0,0,1,0,.12h0a.07.07,0,0,1-.06,0" transform="translate(-0.04 0)"/><path class="cu" d="M6.73,9a.09.09,0,0,1,0-.17A.09.09,0,0,1,6.8,9L6.73,9" transform="translate(-0.04 0)"/><path class="dp" d="M6.74,9h0L6.8,9s0,0-.06,0" transform="translate(-0.04 0)"/><path class="cr" d="M5.9,8.21a.07.07,0,0,1,0-.14.07.07,0,0,1,0,.14" transform="translate(-0.04 0)"/><path class="cu" d="M17.64,6.55h-.08a.09.09,0,0,1,0-.18h.08a.1.1,0,0,1,.09.11c0,.06,0,.11-.09.11" transform="translate(-0.04 0)"/><path class="k" d="M18.12,14.81l-.09,0a.18.18,0,0,1,0-.28.26.26,0,0,1,.16-.07l.08,0a.21.21,0,0,1,.07.22.19.19,0,0,1-.18.13" transform="translate(-0.04 0)"/><path class="k" d="M19.17,14.37h0a.09.09,0,0,1,0-.17h0a.1.1,0,0,1,.1.09.11.11,0,0,1-.1.1" transform="translate(-0.04 0)"/><path class="k" d="M18.17,14.33a.09.09,0,1,1,0-.18.09.09,0,0,1,0,.18" transform="translate(-0.04 0)"/><path class="k" d="M17.94,14.31h-.06a.09.09,0,0,1,0-.16h.06a.1.1,0,1,1,0,.2" transform="translate(-0.04 0)"/><path class="k" d="M18,14c-.06,0-.09-.05-.09-.11a.09.09,0,0,1,.09-.1h0a.11.11,0,0,1,0,.21h0" transform="translate(-0.04 0)"/><path class="k" d="M7.9,2.74l-.05,0h0a.11.11,0,0,1,0-.13v0a.11.11,0,0,1,.11-.08s.11,0,.11.08v0A.14.14,0,0,1,8,2.72H8l-.06,0" transform="translate(-0.04 0)"/><path class="k" d="M7.66,2.35c-.09,0-.19-.08-.13-.19a.14.14,0,0,1,.11-.06.14.14,0,0,1,.13.16.1.1,0,0,1-.11.09" transform="translate(-0.04 0)"/><path class="k" d="M8.13,2.56a.11.11,0,1,1,0-.22.11.11,0,1,1,0,.22" transform="translate(-0.04 0)"/><path class="k" d="M8.42,2.72a.15.15,0,1,1,0-.3l.08,0h0a.14.14,0,0,1,0,.25h0a.12.12,0,0,1-.08,0" transform="translate(-0.04 0)"/><path class="k" d="M9.23,3.1a.12.12,0,0,1,0-.23.12.12,0,0,1,0,.23" transform="translate(-0.04 0)"/><path class="l" d="M13.33,1.86a.11.11,0,1,1,0-.22.11.11,0,0,1,0,.22" transform="translate(-0.04 0)"/></g></svg>