<svg xmlns="http://www.w3.org/2000/svg" xmlns:xlink="http://www.w3.org/1999/xlink" width="256px" height="256px" viewBox="0 0 20.61 22.52"><defs><style>.a{fill:none;}.b{fill:#b3408f;}.c{fill:#a93878;}.d{fill:#80d194;}.e{fill:#f8e2f2;}.f{fill:#f7fbfb;}.g{fill:#a2dda9;}.h{fill:#67b77d;}.i{fill:#933624;}.j{fill:#fdfefe;}.k{fill:#e7018f;}.l{clip-path:url(#a);}.m{fill:#e6ee9c;}.n{fill:#ff1744;}.o{fill:#5d4037;}.p{fill:#558b2f;}</style><clipPath id="a" transform="translate(-0.07)"><rect class="a" y="13.48" width="8.91" height="9.01"/></clipPath></defs><path class="b" d="M20,17.58a4.76,4.76,0,0,1-1,3.14,6.27,6.27,0,0,1-3,1.12,18.73,18.73,0,0,1-3.66.25c-1.21,0-2.42-.11-3.62-.24a6.65,6.65,0,0,1-3.23-.93C4.34,20.13,4.11,18.7,4,17.42a17.75,17.75,0,0,1,.09-4.37A19.77,19.77,0,0,1,4.51,11,10.69,10.69,0,0,1,4.87,9.9a12.57,12.57,0,0,0,.7-1.43L5.88,8c.17.36.39,1,.78,1s.71-.26,1.07-.58.67-.67,1.09-.67.75.41.9.8c.36,1,1.12,1.71,2.08,1.19.44-.24.53-.73.7-1.21.08-.22.34-.77.56-.82s.66.87.78,1.08a1.36,1.36,0,0,0,1.21.82c.45,0,.57-.41.79-.83s.21-1,.47-1.15c.52-.36,1.88,1,2.3,1.22l.2.12a7.21,7.21,0,0,1,.51,1.29A18.07,18.07,0,0,1,19.86,14,22,22,0,0,1,20,17.58" transform="translate(-0.07)"/><path class="c" d="M20,17.58a4.76,4.76,0,0,1-1,3.14,6.38,6.38,0,0,1-3,1.12,18.73,18.73,0,0,1-3.66.25c-1.21,0-2.42-.11-3.62-.24a6.65,6.65,0,0,1-3.23-.93A4.44,4.44,0,0,1,4,17.66,3.56,3.56,0,0,0,5.28,20a6.52,6.52,0,0,0,3.22.94c1.21.13,2.41.22,3.62.24a18.63,18.63,0,0,0,3.66-.26,6.2,6.2,0,0,0,3-1.12c.8-.72,1.28-3.4,1.18-2.19" transform="translate(-0.07)"/><path class="c" d="M18.81,9.82s-1.66-1.47-2.17-1.39c-.31.05-.49,1-.66,1.28s-.48.76-.93.75a1.38,1.38,0,0,1-1.22-.81c-.11-.21-.37-1.08-.73-1-.21.05-.64,1.49-1.4,1.76A1.53,1.53,0,0,1,9.58,9.37c-.14-.39-.27-.76-.76-.76S8,9,7.73,9.27s-.64.64-1.17.57A1.91,1.91,0,0,1,5.43,9l.27-.95c.18.36.42.81.82.87s.71-.27,1.07-.59.67-.67,1.08-.67.76.41.9.81c.36,1,1.12,1.7,2.08,1.18.45-.23.53-.73.71-1.21.08-.22.34-.77.55-.82s.83.72.95.93c.27.48.48,1,1,1s.57-.41.8-.82.2-1,.46-1.16c.53-.36,1.91.93,2.3,1.23.82.62.35,1.05.35,1.05" transform="translate(-0.07)"/><path class="d" d="M18.05,4.94c.62-2.64.54-3.79-1.78-4.09S6.19.06,6,2.16a5.08,5.08,0,0,0,.23,2.78s-2.8,2.82-2.6,3.44C4,9.4,5,8.84,5.68,8.12c0,0,.48,1.8,2.24.18s2,.88,2.51,1.2c.69.44,1.34.46,2.13-1.17S13.77,8.71,14,9a1,1,0,0,0,1.84-.33c.5-1.31,1-1.36,2.34-.13s2.34.21,2.13-.64-2.24-3-2.24-3" transform="translate(-0.07)"/><path class="e" d="M12.11,18.21c-2,.13-5.61-.24-5.68-3a4.27,4.27,0,0,1,1.63-3.27,5.06,5.06,0,0,1,3.5-.86c2.13.14,5.09.74,5.54,3.36.5,3-2.89,3.64-5,3.78" transform="translate(-0.07)"/><path class="f" d="M12.1,18.16c-1.93.13-5.52-.24-5.59-3A4.14,4.14,0,0,1,8.11,12a5,5,0,0,1,3.45-.85c2.1.14,5,.73,5.46,3.32.5,2.91-2.84,3.59-4.92,3.72" transform="translate(-0.07)"/><path class="g" d="M17.27,1.26c0,.36-2.37.66-5.29.66s-5.29-.3-5.29-.66S9.06.59,12,.59s5.29.3,5.29.67" transform="translate(-0.07)"/><path class="h" d="M18.17,5.46c-4,.87-9.42,1.08-10.89.41S6.51,5,6.51,5a12.17,12.17,0,0,0,6,.78c3.2-.46,5.51-.88,5.51-.88l.12.52" transform="translate(-0.07)"/><path class="g" d="M8,1.41c-1.94.51-1.3,2.85-.87,3.76,0,0-3.91,3.51-2.51,3.49,0,0-1.13.54-1-.28s2.46-3.1,2.46-3.1a11.43,11.43,0,0,1-.26-2.62C5.89,1.45,7.45,1,7.87.89s.16.52.16.52" transform="translate(-0.07)"/><path class="h" d="M17.1,1.24c1.07,1,.23,3.87.23,3.87s2.48,2.48,2.44,3.14c-.06.93-.76.63-.76.63s1,.35,1.31-.28S19.17,6.09,18.09,5c0,0,.71-2.06.3-3a1.23,1.23,0,0,0-1.29-.79" transform="translate(-0.07)"/><path class="i" d="M9.13,13.11c-.24.25.39,2.83-.39,2.67-.18,0,.09-.66,0-.81-.32-.5-.64.14-.67.46-.05.49.18,1,.71,1s.9-.66,1-1.21c0-.26.05-2.79-.62-2.12" transform="translate(-0.07)"/><path class="i" d="M8.82,12.24a.32.32,0,1,0,.63,0,.32.32,0,1,0-.63,0" transform="translate(-0.07)"/><path class="i" d="M11.26,13.15c-.67.17-.85,1-.89,1.61,0,.33-.14,1.56.32,1.69s.31-1,.31-1.21v-.09h0A6.84,6.84,0,0,0,12.12,15,6,6,0,0,0,12,16.12a.31.31,0,0,0,.57.09,3.4,3.4,0,0,0,0-2.25,1.15,1.15,0,0,0-1.34-.81M11,14.47c0-.33.16-.64.45-.69s.51.24.59.59A2.2,2.2,0,0,0,11,14.47Z" transform="translate(-0.07)"/><path class="i" d="M14.37,13.8c-.15-.3-.45-.62-.81-.42-.55.3-.71,2.2-.3,2.67s.55-.11.51-.47a3.59,3.59,0,0,1,0-1.46c.13.26.16.74.53.71s.39-.56.64-.73c.34.6,0,1.26.1,1.87,0,.18.09.34.3.34s.35-.41.38-.67a3.39,3.39,0,0,0-.19-1.76c-.29-.58-.83-.53-1.2-.08" transform="translate(-0.07)"/><path class="i" d="M16.74,10.75a.32.32,0,1,0-.63,0,.32.32,0,0,0,.63,0" transform="translate(-0.07)"/><path class="i" d="M18.16,9.91a.32.32,0,1,0-.63,0,.32.32,0,1,0,.63,0" transform="translate(-0.07)"/><path class="i" d="M17.86,11.8a.32.32,0,1,0,.63,0,.32.32,0,1,0-.63,0" transform="translate(-0.07)"/><path class="i" d="M9.7,10.56a4.8,4.8,0,0,0-3.82,4.7c.09,2.41,2.62,3.38,4.56,3.56s4.43-.06,6-1.29a3.56,3.56,0,0,0,.29-5.09C15.13,10.58,12,10.13,9.7,10.56m2.4,7.6c-1.93.13-5.52-.24-5.59-3A4.14,4.14,0,0,1,8.11,12a5,5,0,0,1,3.45-.85c2.1.14,5,.73,5.46,3.32C17.52,17.35,14.18,18,12.1,18.16Z" transform="translate(-0.07)"/><path class="i" d="M19.37,9.43a1,1,0,0,0,1.21-.95c.07-1-1.16-2.35-2-3.29a.3.3,0,0,0-.25-.43l.08-.13a5.47,5.47,0,0,0,.26-1.29,3.1,3.1,0,0,0,0-1.25C18.24.47,16,.38,14.7.28a26.22,26.22,0,0,0-5.24.1C8.07.54,5.75.51,5.61,2.47a5,5,0,0,0,.11,1.27c0,.15.08.51.16.83h0c-.4.1-.24.44,0,.6l0,0C5.27,5.84,4.6,6.33,4.06,7S3,8.43,3.62,9.07a1,1,0,0,0,1.27,0,11.38,11.38,0,0,0-.84,2.33,17.42,17.42,0,0,0-.5,4.88c.06,1.48.2,3.36,1.22,4.49s2.63,1.35,4,1.51a31.32,31.32,0,0,0,5.12.18,10.65,10.65,0,0,0,4.64-1.09c1.25-.72,1.57-2.22,1.7-3.6A24.71,24.71,0,0,0,20,12a10.87,10.87,0,0,0-.64-2.57m-13.12-7a1.12,1.12,0,0,1,.64-.86,7.22,7.22,0,0,1,2.52-.47A27.27,27.27,0,0,1,14.83.94h-.09a7.31,7.31,0,0,1,2.53.51c.79.37.86,1,.71,1.87a10.4,10.4,0,0,0-.25,1.47l-.33.08c-.28.07-.57.16-.79.2-.55.1-1.1.2-1.65.27s-.92.1-1.38.13a5.91,5.91,0,0,0,1.92-1.3c.5-.56.76-2.13-.39-2a4,4,0,0,0-2.27,1.69,6.49,6.49,0,0,0-.64,1A9,9,0,0,0,11.83,4c-.37-.75-1-2-2-1.87s-.93,1.35-.41,2a5.68,5.68,0,0,0,1.71,1.36,23.38,23.38,0,0,1-2.69-.24l-.5-.09c-.26,0-.51-.11-.76-.18S6.75,4.8,6.5,4.7A11.41,11.41,0,0,0,6.25,3,2.74,2.74,0,0,1,6.25,2.38ZM12.82,5a4.48,4.48,0,0,1,.43-.64c.23-.29,1.23-1.61,2-1.56.42.12-.16.86-.27,1A6.38,6.38,0,0,1,12.82,5Zm-1.28-.09A4.62,4.62,0,0,1,9.78,3.57c-.18-.28-.26-.8.23-.76C10.77,3,11.28,4.28,11.54,4.94ZM4.18,8.65C3.25,8.39,5.75,6.17,6,5.87a3.16,3.16,0,0,0,.36-.41,8.35,8.35,0,0,0,1,.26,16.41,16.41,0,0,0,3.12.37l1,0a4.78,4.78,0,0,1-1,1.18c-.16.15-.42.29-.32.56s.33.21.51.12A3.79,3.79,0,0,0,12,6.49c.05-.09.11-.2.17-.33a3.11,3.11,0,0,0,.61.76c.26.23,1.22,1,1.54.68s-.44-.51-1.08-1.13c-.07-.08-.17-.22-.28-.37a27.6,27.6,0,0,0,4.14-.46c.18,0,.61,0,.95-.12a9.24,9.24,0,0,1,1.37,1.6c.23.35.85,1.17.44,1.59s-.74.14-1.13-.11l-.19-.13c-.22-.16-.41-.32-.54-.42-.48-.37-1.17-1-1.81-.7s-.35,1.46-1,1.79c-.77.42-1-.77-1.33-1.2s-1.16-.88-1.52-.13c-.28.58-.22,1.31-.89,1.61s-1.15-.29-1.36-.89S9.59,7.36,8.87,7.4a1.86,1.86,0,0,0-1,.43c-.3.23-.67.78-1,.88-.56.14-.47-.74-.78-1C5.52,7.23,4.8,8.83,4.18,8.65Zm15.48,8.83a4.5,4.5,0,0,1-1,3,6,6,0,0,1-2.88,1.08,17.33,17.33,0,0,1-3.52.25c-1.17,0-2.33-.11-3.49-.23a6.42,6.42,0,0,1-3.11-.9c-1-.76-1.26-2.14-1.4-3.37a16.56,16.56,0,0,1,.09-4.22c.06-.41.25-1.37.42-2,.11-.35.22-.7.35-1.05A10.37,10.37,0,0,0,5.8,8.7l0-.07a1.19,1.19,0,0,0,.8.75c.5.06.92-.39,1.26-.7S8.53,8,8.93,8s.52.47.66.86A1.6,1.6,0,0,0,11.8,10a2.07,2.07,0,0,0,.91-1.12c.07-.21.1-.8.31-.85s.63.85.75,1a1.3,1.3,0,0,0,1.16.79,1.11,1.11,0,0,0,1-.6c.16-.29.17-1.08.42-1.25.5-.34,1.6.87,2,1.12l.19.11a5.91,5.91,0,0,1,.49,1.25A18,18,0,0,1,19.58,14,22.74,22.74,0,0,1,19.66,17.48Z" transform="translate(-0.07)"/><rect class="a" x="2.91" width="17.7" height="22.52"/><path class="j" d="M11.83,11.2a8.43,8.43,0,0,0-1,.06,7.4,7.4,0,0,0-1,.18,6.47,6.47,0,0,0-.91.3,4.84,4.84,0,0,0-.79.39,4.76,4.76,0,0,0-.65.48,3.11,3.11,0,0,0-.48.56,2.53,2.53,0,0,0-.3.59,2.23,2.23,0,0,0-.1.62,2.17,2.17,0,0,0,.1.62,2.41,2.41,0,0,0,.3.6,2.75,2.75,0,0,0,.48.55,4.09,4.09,0,0,0,.65.49,7.26,7.26,0,0,0,.79.39,6.47,6.47,0,0,0,.91.3,7.4,7.4,0,0,0,1,.18,8.62,8.62,0,0,0,2,0,7.4,7.4,0,0,0,1-.18,5.94,5.94,0,0,0,.9-.3,7.44,7.44,0,0,0,.8-.39,4.61,4.61,0,0,0,.65-.49,2.75,2.75,0,0,0,.48-.55A2.08,2.08,0,0,0,17,15a1.88,1.88,0,0,0,.11-.62,1.93,1.93,0,0,0-.11-.62,2.15,2.15,0,0,0-.29-.59,3.11,3.11,0,0,0-.48-.56,5.47,5.47,0,0,0-.65-.48,5,5,0,0,0-.8-.39,5.94,5.94,0,0,0-.9-.3,7.4,7.4,0,0,0-1-.18A8.47,8.47,0,0,0,11.83,11.2Z" transform="translate(-0.07)"/><path class="k" d="M8.48,15.25a0,0,0,0,1,0-.05,3.57,3.57,0,0,1,1.38-1.88.66.66,0,0,1,.2-.06c.11,0,.15,0,.15.14v0a2.19,2.19,0,0,1-.53,1,2.64,2.64,0,0,1-1.15.81ZM8,16.7a.11.11,0,0,0,.09-.05.57.57,0,0,0,.07-.22l.18-.83,0-.08a.08.08,0,0,1,0-.07,1.73,1.73,0,0,1,.32.11l.18.07.17.07a1,1,0,0,0,.33.05,1.24,1.24,0,0,0,.72-.24l.57-.44a.26.26,0,0,0,.09-.09.14.14,0,0,0,0-.07.07.07,0,0,0-.06-.06h0l-.05,0-.29.23-.3.24a1.19,1.19,0,0,1-.69.25l-.21,0a2.11,2.11,0,0,1-.47-.19s0,0,0,0,0,0,0,0l0,0,0,0a3.2,3.2,0,0,0,1.38-1.37,3,3,0,0,0,.12-.32.7.7,0,0,0,0-.29.21.21,0,0,0-.2-.19c-.6,0-1.17.76-1.45,1.28a.17.17,0,0,1,0-.14.56.56,0,0,0,0-.12c.11-.45.23-.9.35-1.35a.26.26,0,0,0,0-.15.07.07,0,0,0,0-.05H9l0,0a.25.25,0,0,0,0,.11l0,.11c-.12.53-.25,1-.4,1.56-.07.24-.13.49-.19.74a4.79,4.79,0,0,1-.24.73,2.14,2.14,0,0,0-.13.62c0,.05,0,.1,0,.14A.09.09,0,0,0,8,16.7Z" transform="translate(-0.07)"/><path class="k" d="M10.72,15.19h0s0,0,0,0c.06-.17.25-.45.43-.47s0,0,.05,0S10.87,15.11,10.72,15.19Zm0,.67c.38,0,1-.56,1.23-.84,0,0,0,0,0-.06s0-.05,0-.08l0,0-.05,0,0,0-.05.05-.2.18-.19.19a1.48,1.48,0,0,1-.64.37c-.1,0-.17,0-.19-.13a.25.25,0,0,1,0-.19s0,0,0-.05a.9.9,0,0,0,.66-.62c0-.13-.06-.21-.17-.21h0c-.3,0-.51.43-.6.69a.53.53,0,0,0,0,.25.42.42,0,0,0,0,.19A.26.26,0,0,0,10.77,15.86Z" transform="translate(-0.07)"/><path class="k" d="M12.12,15.87h0a1.59,1.59,0,0,0,.71-.27,8.47,8.47,0,0,0,.76-.58l0,0,0,0a.11.11,0,0,0,0-.08s0,0-.05,0h0l-.05,0,0,0-.28.22-.28.23a2,2,0,0,1-.73.34h-.07c-.22,0-.31-.12-.25-.36a1.31,1.31,0,0,1,.39-.65.25.25,0,0,1,.16-.08.1.1,0,0,1,.1.11.24.24,0,0,1,0,.2l0,.05a.07.07,0,0,0,0,.06l0,0h0l0,0a.51.51,0,0,0,.11-.39.25.25,0,0,0-.25-.18.28.28,0,0,0-.2.09,1.44,1.44,0,0,0-.47.78.19.19,0,0,0,0,.08A.36.36,0,0,0,12.12,15.87Z" transform="translate(-0.07)"/><path class="k" d="M13.62,15.19h0a0,0,0,0,1,0,0c.06-.17.25-.45.43-.47,0,0,.05,0,.05,0S13.76,15.11,13.62,15.19Zm.05.67c.38,0,1-.56,1.22-.84l0-.06a.07.07,0,0,0,0-.08.05.05,0,0,0,0,0l0,0-.05,0-.06.05-.19.18-.2.19a1.42,1.42,0,0,1-.64.37c-.1,0-.16,0-.18-.13a.26.26,0,0,1,0-.19.07.07,0,0,1,0-.05.88.88,0,0,0,.66-.62c0-.13,0-.21-.16-.21h0c-.29,0-.51.43-.6.69a1,1,0,0,0,0,.25.63.63,0,0,0,0,.19A.27.27,0,0,0,13.67,15.86Z" transform="translate(-0.07)"/><path class="k" d="M15.3,14.11a.11.11,0,0,1,0-.11,5.62,5.62,0,0,1,.38-.78s0,0,.06,0h0s0,0,0,0v0h0l-.15.3c-.11.21-.21.42-.32.62Zm-.45,2.28c.11,0,.29-.19.35-.28l.35-.49.36-.47L16,15a.08.08,0,0,0,0-.07,0,0,0,0,0,0-.06h0s-.09.09-.11.12c-.24.33-.52.73-.78,1.06,0,0-.13.17-.18.17a0,0,0,0,1-.05,0,.74.74,0,0,1,0-.33,3.23,3.23,0,0,1,.3-1.24A6.54,6.54,0,0,0,15.94,13a.09.09,0,0,0,0-.11h0a.11.11,0,0,0-.07,0,5,5,0,0,0-.86,1.72.82.82,0,0,1-.16.34.08.08,0,0,0,0,.09.17.17,0,0,1,0,.18,3.5,3.5,0,0,0-.09.75v.19C14.69,16.25,14.74,16.39,14.85,16.39Z" transform="translate(-0.07)"/><g class="l"><path class="m" d="M8.75,20.64a4.95,4.95,0,0,1-7-7h0Z" transform="translate(-0.07)"/><path class="n" d="M2.42,20a4,4,0,0,1,0-5.66L8.08,20A4,4,0,0,1,2.42,20Z" transform="translate(-0.07)"/><path class="o" d="M3.17,18.7a.35.35,0,0,0,.5.5,2.23,2.23,0,0,0,.25-.75A2.58,2.58,0,0,0,3.17,18.7Z" transform="translate(-0.07)"/><path class="o" d="M2.71,17.45a.35.35,0,0,0-.29.41.35.35,0,0,0,.41.28,3,3,0,0,0,.72-.48A2.89,2.89,0,0,0,2.71,17.45Z" transform="translate(-0.07)"/><path class="o" d="M2.81,16.12a.36.36,0,0,0-.12.7,2.94,2.94,0,0,0,.83-.23A3,3,0,0,0,2.81,16.12Z" transform="translate(-0.07)"/><path class="o" d="M4.92,19.66a.36.36,0,0,1-.41.29.35.35,0,0,1-.28-.41,2.94,2.94,0,0,1,.48-.73A3.36,3.36,0,0,1,4.92,19.66Z" transform="translate(-0.07)"/><path class="o" d="M6.27,19.56A.36.36,0,0,1,6,20a.35.35,0,0,1-.4-.3,3,3,0,0,1,.22-.82A3,3,0,0,1,6.27,19.56Z" transform="translate(-0.07)"/><path class="p" d="M5.25,22.32a5.15,5.15,0,0,0,3.66-1.51l-.33-.34a4.71,4.71,0,1,1-6.66-6.66l-.33-.33a5.18,5.18,0,0,0,3.66,8.84Z" transform="translate(-0.07)"/></g></svg>