<svg xmlns="http://www.w3.org/2000/svg" xmlns:xlink="http://www.w3.org/1999/xlink" width="256px" height="256px" viewBox="0 0 20.63 22.52"><defs><style>.a{fill:none;}.b{fill:#b3408f;}.c{fill:#a93878;}.d{fill:#80d194;}.e{fill:#f8e2f2;}.f{fill:#f7fbfb;}.g{fill:#a2dda9;}.h{fill:#67b77d;}.i{fill:#933624;}.j{fill:#fdfefe;}.k{fill:#e7018f;}.l{clip-path:url(#a);}.m{fill:#313526;}.aa,.ab,.ac,.ad,.ae,.af,.ag,.ah,.ai,.aj,.ak,.al,.am,.an,.ao,.ap,.aq,.ar,.as,.at,.au,.av,.aw,.ax,.ay,.az,.ba,.bb,.bc,.bd,.be,.bf,.bg,.bh,.bi,.bj,.bk,.bl,.bm,.bn,.bo,.bp,.bq,.br,.bs,.bt,.bu,.bv,.bw,.bx,.by,.bz,.ca,.cb,.cc,.cd,.ce,.cf,.cg,.ch,.ci,.cj,.ck,.cl,.cm,.cn,.co,.cp,.cq,.cr,.cs,.ct,.cu,.cv,.cw,.cx,.cy,.cz,.da,.db,.dc,.dd,.de,.df,.dg,.dh,.di,.dj,.dk,.dl,.dm,.dn,.do,.dp,.dq,.dr,.ds,.dt,.du,.dv,.dw,.dx,.dy,.dz,.ea,.eb,.ec,.ed,.ee,.ef,.eg,.eh,.ei,.ej,.ek,.el,.em,.en,.eo,.ep,.eq,.er,.es,.et,.eu,.ev,.ew,.ex,.ey,.ez,.fa,.fb,.fc,.fd,.fe,.ff,.fg,.fh,.fi,.fj,.fk,.fl,.fm,.fn,.fo,.fp,.fq,.fr,.fs,.ft,.fu,.fv,.fw,.fx,.fy,.fz,.ga,.gb,.gc,.gd,.ge,.gf,.gg,.gh,.gi,.gj,.gk,.gl,.gm,.gn,.go,.gp,.gq,.gr,.gs,.gt,.gu,.gv,.gw,.gx,.gy,.gz,.ha,.hb,.hc,.hd,.he,.hf,.hg,.hh,.hi,.hj,.hk,.hl,.hm,.hn,.ho,.hp,.hq,.hr,.hs,.ht,.hu,.hv,.hw,.hx,.hy,.hz,.ia,.ib,.ic,.id,.ie,.if,.ig,.ih,.ii,.ij,.m,.o,.p,.q,.r,.s,.t,.u,.v,.w,.x,.y,.z{fill-rule:evenodd;}.n{clip-path:url(#b);}.o{fill:#91a47f;}.p{fill:#413839;}.q{fill:#f7e1b0;}.r{fill:#85a48a;}.s{fill:#fefbf1;}.t{fill:#494f45;}.u{fill:#465345;}.v{fill:#373f35;}.w{fill:#94827d;}.x{fill:#895020;}.y{fill:#413129;}.z{fill:#e9c58c;}.aa{fill:#d48c4c;}.ab{fill:#a46a2e;}.ac{fill:#3d322a;}.ad{fill:#f1d7ac;}.ae{fill:#95521e;}.af{fill:#ddb57b;}.ag{fill:#b66b30;}.ah{fill:#e2be84;}.ai{fill:#b07e46;}.aj{fill:#e2c691;}.ak{fill:#5f2810;}.al{fill:#bd8d55;}.am{fill:#f7e0aa;}.an{fill:#95a983;}.ao{fill:#3a3e2c;}.ap{fill:#515b47;}.aq{fill:#a1b68f;}.ar{fill:#4a4e3d;}.as{fill:#bbcda9;}.at{fill:#2d372e;}.au{fill:#40493a;}.av{fill:#8f4817;}.aw{fill:#4c2209;}.ax{fill:#bd8a4b;}.ay{fill:#9abcab;}.az{fill:#4b4e47;}.ba{fill:#524147;}.bb{fill:#e8f8d6;}.bc{fill:#b3cca4;}.bd{fill:#a7bd95;}.be{fill:#d8eac3;}.bf{fill:#454232;}.bg{fill:#afb080;}.bh{fill:#b3b88b;}.bi{fill:#d9cb95;}.bj{fill:#949e6d;}.bk{fill:#615951;}.bl{fill:#e0dbbc;}.bm{fill:#6f4449;}.bn{fill:#93b5a3;}.bo{fill:#53463e;}.bp{fill:#403b3a;}.bq{fill:#d6cc96;}.br{fill:#5c533f;}.bs{fill:#f4dca5;}.bt{fill:#eebdc3;}.bu{fill:#dd4956;}.bv{fill:#3f2c30;}.bw{fill:#fffefd;}.bx{fill:#e48590;}.by{fill:#e9a4ab;}.bz{fill:#de5156;}.ca{fill:#dc3034;}.cb{fill:#c50a15;}.cc{fill:#771614;}.cd{fill:#db1d21;}.ce{fill:#544d48;}.cf{fill:#dc363b;}.cg{fill:#bd8849;}.ch{fill:#975d24;}.ci{fill:#e37a82;}.cj{fill:#edb8be;}.ck{fill:#c50813;}.cl{fill:#b00009;}.cm{fill:#aa9080;}.cn{fill:#4e1c05;}.co{fill:#57321b;}.cp{fill:#c1793c;}.cq{fill:#980002;}.cr{fill:#60221a;}.cs{fill:#da1d1e;}.ct{fill:#965d24;}.cu{fill:#68270c;}.cv{fill:#61270a;}.cw{fill:#737865;}.cx{fill:#514938;}.cy{fill:#e7c49e;}.cz{fill:#3e3e37;}.da{fill:#b4c9ad;}.db{fill:#e0f2d5;}.dc{fill:#434740;}.dd{fill:#e6f5e1;}.de{fill:#dceecd;}.df{fill:#585c48;}.dg{fill:#d9ebc8;}.dh{fill:#b7cca6;}.di{fill:#cbdfb7;}.dj{fill:#a6bd95;}.dk{fill:#4f4d43;}.dl{fill:#acc39f;}.dm{fill:#2d3220;}.dn{fill:#bbd0ae;}.do{fill:#9cb08d;}.dp{fill:#a9bf9a;}.dq{fill:#4b4333;}.dr{fill:#e1f1cf;}.ds{fill:#f4d9a6;}.dt{fill:#b5a46c;}.du{fill:#ccdebc;}.dv{fill:#2f3423;}.dw{fill:#95aa85;}.dx{fill:#c7deb4;}.dy{fill:#4d5345;}.dz{fill:#4e5840;}.ea{fill:#cecb99;}.eb{fill:#e7f6d6;}.ec{fill:#6e8e7b;}.ed{fill:#759077;}.ee{fill:#5d705e;}.ef{fill:#f4f0dc;}.eg{fill:#ebcc99;}.eh{fill:#f3e4b9;}.ei{fill:#343229;}.ej{fill:#bfc599;}.ek{fill:#a7a777;}.el{fill:#9e9c6b;}.em{fill:#c6b47f;}.en{fill:#545133;}.eo{fill:#b3bb8d;}.ep{fill:#373225;}.eq{fill:#b1b88c;}.er{fill:#c3d8b4;}.es{fill:#98b092;}.et{fill:#3e3731;}.eu{fill:#e6f3d1;}.ev{fill:#37392b;}.ew{fill:#e3f5d2;}.ex{fill:#e7f9d7;}.ey{fill:#d8e8df;}.ez{fill:#414442;}.fa{fill:#3c342d;}.fb{fill:#a4c6b5;}.fc{fill:#5b3f3c;}.fd{fill:#3f3f36;}.fe{fill:#b5c39c;}.ff{fill:#6c8468;}.fg{fill:#ddf3ce;}.fh{fill:#393b2f;}.fi{fill:#adc19a;}.fj{fill:#586850;}.fk{fill:#a3a678;}.fl{fill:#3e3127;}.fm{fill:#9bc2b2;}.fn{fill:#98baa6;}.fo{fill:#9bbead;}.fp{fill:#5f6862;}.fq{fill:#3f3626;}.fr{fill:#dbdbb2;}.fs{fill:#475246;}.ft{fill:#819b7e;}.fu{fill:#a4af86;}.fv{fill:#7c7b50;}.fw{fill:#98a277;}.fx{fill:#56533b;}.fy{fill:#e8c790;}.fz{fill:#a16f38;}.ga{fill:#c49151;}.gb{fill:#61391d;}.gc{fill:#bc8d4c;}.gd{fill:#eaca96;}.ge{fill:#e6c48f;}.gf{fill:#8a5a26;}.gg{fill:#e9c992;}.gh{fill:#c89a59;}.gi{fill:#52432f;}.gj{fill:#f5dda4;}.gk{fill:#fbf1c8;}.gl{fill:#e7c082;}.gm{fill:#ddbc7c;}.gn{fill:#aec5a4;}.go{fill:#2e2a21;}.gp{fill:#a9c09c;}.gq{fill:#bed3ad;}.gr{fill:#bacca6;}.gs{fill:#e9fbdc;}.gt{fill:#c1d6af;}.gu{fill:#819875;}.gv{fill:#d0e5c1;}.gw{fill:#adc49f;}.gx{fill:#e1f4cf;}.gy{fill:#860000;}.gz{fill:#dc2a41;}.ha{fill:#9daf8b;}.hb{fill:#d0111f;}.hc{fill:#cc0317;}.hd{fill:#d7ebc7;}.he{fill:#9cb48e;}.hf{fill:#99ae8c;}.hg{fill:#e27483;}.hh{fill:#45312d;}.hi{fill:#d91d22;}.hj{fill:#b20e12;}.hk{fill:#df5661;}.hl{fill:#dc383e;}.hm{fill:#ebaebe;}.hn{fill:#f7e3ea;}.ho{fill:#cf1417;}.hp{fill:#910002;}.hq{fill:#e16b89;}.hr{fill:#f8e5f1;}.hs{fill:#601e1c;}.ht{fill:#738161;}.hu{fill:#771716;}.hv{fill:#a6a16e;}.hw{fill:#d3d0a0;}.hx{fill:#858153;}.hy{fill:#dc2e34;}.hz{fill:#c81118;}.ia{fill:#78997f;}.ib{fill:#f4d6dd;}.ic{fill:#df5c65;}.id{fill:#df5f6b;}.ie{fill:#e691a3;}.if{fill:#f9e9ed;}.ig{fill:#de545f;}.ih{fill:#ab030c;}.ii{fill:#e16b7c;}.ij{fill:#4a0a03;}</style><clipPath id="a"><rect class="a" x="12.68" y="17.05" width="1.38" height="0.57"/></clipPath><clipPath id="b"><rect class="a" y="12.1" width="14.06" height="10.41"/></clipPath></defs><path class="b" d="M19.91,17.58a4.76,4.76,0,0,1-1,3.14,6.27,6.27,0,0,1-3,1.12,18.73,18.73,0,0,1-3.66.25c-1.21,0-2.42-.11-3.62-.24a6.65,6.65,0,0,1-3.23-.93c-1.08-.79-1.31-2.22-1.45-3.5A17.28,17.28,0,0,1,4,13.05,19.46,19.46,0,0,1,4.46,11c.11-.37.23-.73.37-1.09a12.57,12.57,0,0,0,.7-1.43L5.83,8c.18.36.4,1,.79,1s.71-.26,1.07-.58.67-.67,1.09-.67.75.41.9.8c.35,1,1.12,1.71,2.07,1.19.45-.24.54-.73.71-1.21.08-.22.34-.77.55-.82.36-.09.66.87.78,1.08A1.36,1.36,0,0,0,15,9.64c.46,0,.57-.41.8-.83s.21-1,.47-1.15c.52-.36,1.88,1,2.29,1.22l.21.12a7.21,7.21,0,0,1,.51,1.29A18.8,18.8,0,0,1,19.82,14a22,22,0,0,1,.09,3.63"/><path class="c" d="M19.91,17.58a4.82,4.82,0,0,1-1,3.14,6.38,6.38,0,0,1-3,1.12,18.73,18.73,0,0,1-3.66.25c-1.21,0-2.42-.11-3.63-.24a6.64,6.64,0,0,1-3.22-.93A4.44,4.44,0,0,1,4,17.66,3.59,3.59,0,0,0,5.23,20a6.56,6.56,0,0,0,3.23.94c1.2.13,2.41.22,3.62.24a18.68,18.68,0,0,0,3.66-.26,6.2,6.2,0,0,0,3-1.12c.8-.72,1.28-3.4,1.18-2.19"/><path class="c" d="M18.77,9.82S17.1,8.35,16.59,8.43c-.31.05-.48,1-.65,1.28s-.48.76-.94.75a1.37,1.37,0,0,1-1.21-.81c-.12-.21-.37-1.08-.73-1s-.64,1.49-1.4,1.76A1.53,1.53,0,0,1,9.54,9.37c-.14-.39-.27-.76-.76-.76S8,9,7.69,9.27s-.65.64-1.17.57A1.88,1.88,0,0,1,5.39,9l.27-.95c.17.36.42.81.82.87s.71-.27,1.06-.59.67-.67,1.09-.67.75.41.9.81c.36,1,1.12,1.7,2.08,1.18.44-.23.53-.73.71-1.21.08-.22.33-.77.55-.82s.83.72,1,.93c.27.48.48,1,1,1s.57-.41.8-.82.2-1,.46-1.16c.52-.36,1.91.93,2.3,1.23.82.62.35,1.05.35,1.05"/><path class="d" d="M18,4.94c.63-2.64.55-3.79-1.77-4.09S6.14.06,6,2.16a5.08,5.08,0,0,0,.23,2.78s-2.8,2.82-2.6,3.44c.34,1,1.33.46,2.05-.26,0,0,.48,1.8,2.24.18s2,.88,2.51,1.2c.69.44,1.34.46,2.13-1.17s1.21.38,1.42.69a1,1,0,0,0,1.84-.33c.49-1.31,1-1.36,2.34-.13s2.34.21,2.13-.64-2.25-3-2.25-3"/><path class="e" d="M12.06,18.21c-2,.13-5.6-.24-5.67-3A4.27,4.27,0,0,1,8,11.93a5,5,0,0,1,3.5-.86c2.13.14,5.09.74,5.53,3.36.51,3-2.88,3.64-5,3.78"/><path class="f" d="M12.06,18.16c-1.93.13-5.52-.24-5.6-3A4.18,4.18,0,0,1,8.07,12a5,5,0,0,1,3.45-.85c2.1.14,5,.73,5.46,3.32.5,2.91-2.85,3.59-4.92,3.72"/><path class="g" d="M17.23,1.26c0,.36-2.37.66-5.29.66s-5.29-.3-5.29-.66S9,.59,11.94.59s5.29.3,5.29.67"/><path class="h" d="M18.13,5.46c-4,.87-9.42,1.08-10.89.41S6.46,5,6.46,5a12.2,12.2,0,0,0,6,.78C15.7,5.36,18,4.94,18,4.94l.13.52"/><path class="g" d="M8,1.41c-1.94.51-1.31,2.85-.88,3.76,0,0-3.91,3.51-2.5,3.49,0,0-1.13.54-1-.28S6,5.28,6,5.28a11.72,11.72,0,0,1-.25-2.62C5.85,1.45,7.41,1,7.83.89s.16.52.16.52"/><path class="h" d="M17.06,1.24c1.07,1,.22,3.87.22,3.87s2.49,2.48,2.45,3.14c-.06.93-.76.63-.76.63s1,.35,1.31-.28S19.13,6.09,18.05,5c0,0,.71-2.06.29-3a1.22,1.22,0,0,0-1.28-.79"/><path class="i" d="M9.09,13.11c-.25.25.38,2.83-.39,2.67-.18,0,.09-.66,0-.81-.32-.5-.64.14-.67.46,0,.49.18,1,.72,1s.9-.66,1-1.21c0-.26,0-2.79-.62-2.12"/><path class="i" d="M8.78,12.24a.31.31,0,1,0,.62,0,.31.31,0,1,0-.62,0"/><path class="i" d="M11.22,13.15c-.68.17-.85,1-.89,1.61,0,.33-.14,1.56.31,1.69.61.17.32-1,.31-1.21v-.09h0A7.07,7.07,0,0,0,12.08,15,5.21,5.21,0,0,0,12,16.12a.31.31,0,0,0,.57.09,3.34,3.34,0,0,0,0-2.25,1.14,1.14,0,0,0-1.33-.81M11,14.47c0-.33.16-.64.44-.69s.52.24.6.59A2.18,2.18,0,0,0,11,14.47Z"/><path class="i" d="M14.32,13.8c-.15-.3-.44-.62-.8-.42-.55.3-.71,2.2-.31,2.67s.56-.11.52-.47a3.59,3.59,0,0,1,0-1.46c.13.26.16.74.53.71s.39-.56.63-.73c.35.6,0,1.26.11,1.87,0,.18.08.34.3.34s.35-.41.38-.67a3.39,3.39,0,0,0-.19-1.76c-.3-.58-.83-.53-1.21-.08"/><path class="i" d="M16.7,10.75a.32.32,0,1,0-.63,0,.32.32,0,0,0,.63,0"/><path class="i" d="M18.12,9.91a.32.32,0,1,0-.63,0,.32.32,0,1,0,.63,0"/><path class="i" d="M17.82,11.8a.32.32,0,1,0,.63,0,.32.32,0,0,0-.63,0"/><path class="i" d="M9.66,10.56a4.78,4.78,0,0,0-3.82,4.7c.08,2.41,2.61,3.38,4.55,3.56s4.44-.06,6-1.29a3.56,3.56,0,0,0,.29-5.09c-1.63-1.86-4.79-2.31-7.06-1.88m2.4,7.6c-1.93.13-5.52-.24-5.6-3A4.18,4.18,0,0,1,8.07,12a5,5,0,0,1,3.45-.85c2.1.14,5,.73,5.46,3.32C17.48,17.35,14.13,18,12.06,18.16Z"/><path class="i" d="M19.32,9.43a1,1,0,0,0,1.22-.95c.07-1-1.16-2.35-2.05-3.29a.31.31,0,0,0-.25-.43l.08-.13a5.47,5.47,0,0,0,.26-1.29,3.29,3.29,0,0,0,0-1.25C18.19.47,15.93.38,14.65.28a26.13,26.13,0,0,0-5.23.1C8,.54,5.71.51,5.57,2.47a5,5,0,0,0,.11,1.27c0,.15.08.51.16.83h0c-.39.1-.23.44,0,.6l0,0C5.22,5.84,4.55,6.33,4,7s-1.1,1.46-.44,2.1a1,1,0,0,0,1.26,0A12.69,12.69,0,0,0,4,11.39a17.05,17.05,0,0,0-.49,4.88c.06,1.48.19,3.36,1.22,4.49s2.62,1.35,4,1.51a31.28,31.28,0,0,0,5.12.18,10.65,10.65,0,0,0,4.64-1.09c1.24-.72,1.56-2.22,1.7-3.6A25.27,25.27,0,0,0,20,12a10.43,10.43,0,0,0-.65-2.57m-13.11-7a1.12,1.12,0,0,1,.64-.86,7.16,7.16,0,0,1,2.51-.47A27.28,27.28,0,0,1,14.78.94H14.7a7.31,7.31,0,0,1,2.53.51c.78.37.86,1,.71,1.87a9.14,9.14,0,0,0-.25,1.47l-.33.08c-.29.07-.57.16-.79.2-.55.1-1.1.2-1.65.27s-.92.1-1.39.13a6,6,0,0,0,1.93-1.3c.5-.56.75-2.13-.4-2A4.05,4.05,0,0,0,12.8,3.87a7.2,7.2,0,0,0-.65,1A5.69,5.69,0,0,0,11.78,4c-.36-.75-1-2-2-1.87s-.93,1.35-.42,2a5.94,5.94,0,0,0,1.71,1.36,23.79,23.79,0,0,1-2.69-.24l-.5-.09L7.13,5C7,4.93,6.7,4.8,6.46,4.7A11.41,11.41,0,0,0,6.21,3,2.74,2.74,0,0,1,6.21,2.38ZM12.78,5a5.42,5.42,0,0,1,.42-.64c.23-.29,1.24-1.61,2-1.56.42.12-.16.86-.28,1A6.24,6.24,0,0,1,12.78,5ZM11.5,4.94A4.62,4.62,0,0,1,9.74,3.57c-.18-.28-.26-.8.23-.76C10.72,3,11.23,4.28,11.5,4.94ZM4.14,8.65C3.21,8.39,5.71,6.17,6,5.87a3.16,3.16,0,0,0,.36-.41,8.35,8.35,0,0,0,1,.26,16.32,16.32,0,0,0,3.12.37l.95,0a4.82,4.82,0,0,1-1,1.18c-.15.15-.41.29-.31.56s.32.21.51.12A3.79,3.79,0,0,0,12,6.49c0-.09.11-.2.16-.33a3.11,3.11,0,0,0,.62.76c.26.23,1.21,1,1.54.68s-.44-.51-1.08-1.13a3.87,3.87,0,0,1-.28-.37,27.9,27.9,0,0,0,4.14-.46c.17,0,.61,0,1-.12a8.84,8.84,0,0,1,1.36,1.6c.24.35.85,1.17.44,1.59s-.73.14-1.12-.11l-.19-.13L18,8.05c-.47-.37-1.17-1-1.8-.7s-.36,1.46-1,1.79c-.78.42-1-.77-1.33-1.2s-1.16-.88-1.53-.13c-.27.58-.21,1.31-.88,1.61s-1.15-.29-1.37-.89S9.55,7.36,8.83,7.4a1.86,1.86,0,0,0-1,.43c-.31.23-.67.78-1,.88-.56.14-.48-.74-.78-1C5.48,7.23,4.75,8.83,4.14,8.65Zm15.48,8.83a4.6,4.6,0,0,1-1,3,6,6,0,0,1-2.88,1.08,17.33,17.33,0,0,1-3.52.25c-1.17,0-2.34-.11-3.5-.23a6.42,6.42,0,0,1-3.11-.9c-1-.76-1.26-2.14-1.39-3.37a17,17,0,0,1,.08-4.22c.07-.41.25-1.37.43-2,.1-.35.22-.7.35-1.05A11.75,11.75,0,0,0,5.76,8.7V8.63a1.19,1.19,0,0,0,.81.75c.5.06.92-.39,1.26-.7S8.49,8,8.89,8s.52.47.66.86A1.6,1.6,0,0,0,11.76,10a2,2,0,0,0,.9-1.12c.08-.21.11-.8.31-.85s.64.85.75,1a1.33,1.33,0,0,0,1.17.79,1.11,1.11,0,0,0,1-.6c.16-.29.16-1.08.42-1.25.5-.34,1.59.87,2,1.12l.2.11A6.5,6.5,0,0,1,19,10.46,17.29,17.29,0,0,1,19.53,14,22.74,22.74,0,0,1,19.62,17.48Z"/><rect class="a" x="2.93" width="17.7" height="22.52"/><path class="j" d="M11.79,11.2a8.72,8.72,0,0,0-1,.06,8.05,8.05,0,0,0-1,.18,6.78,6.78,0,0,0-.9.3,4.84,4.84,0,0,0-.79.39,4.76,4.76,0,0,0-.65.48,3.11,3.11,0,0,0-.48.56,2.53,2.53,0,0,0-.3.59,1.91,1.91,0,0,0-.1.62,1.87,1.87,0,0,0,.1.62,2.41,2.41,0,0,0,.3.6,2.75,2.75,0,0,0,.48.55,4.09,4.09,0,0,0,.65.49,7.26,7.26,0,0,0,.79.39,6.78,6.78,0,0,0,.9.3,8.05,8.05,0,0,0,1,.18,8.7,8.7,0,0,0,2,0,7.71,7.71,0,0,0,1-.18,5.94,5.94,0,0,0,.9-.3,6.46,6.46,0,0,0,.79-.39,3.69,3.69,0,0,0,.65-.49,3.17,3.17,0,0,0,.49-.55,2.08,2.08,0,0,0,.29-.6,1.87,1.87,0,0,0,.1-.62,1.91,1.91,0,0,0-.1-.62,2.15,2.15,0,0,0-.29-.59,3.64,3.64,0,0,0-.49-.56,4.21,4.21,0,0,0-.65-.48,4.47,4.47,0,0,0-.79-.39,5.94,5.94,0,0,0-.9-.3,7.71,7.71,0,0,0-1-.18A8.72,8.72,0,0,0,11.79,11.2Z"/><path class="k" d="M8.44,15.25s0,0,0-.05a3.51,3.51,0,0,1,1.37-1.88.83.83,0,0,1,.21-.06c.1,0,.14,0,.15.14v0a2.19,2.19,0,0,1-.53,1,2.64,2.64,0,0,1-1.15.81Zm-.5,1.45A.11.11,0,0,0,8,16.65a.81.81,0,0,0,.07-.22l.18-.83a.24.24,0,0,0,0-.08.12.12,0,0,1,0-.07,2,2,0,0,1,.32.11l.18.07L9,15.7a1,1,0,0,0,.33.05,1.27,1.27,0,0,0,.72-.24l.57-.44a.26.26,0,0,0,.09-.09.14.14,0,0,0,0-.07.07.07,0,0,0-.06-.06h0l-.05,0a3.11,3.11,0,0,1-.28.23l-.31.24a1.14,1.14,0,0,1-.68.25.83.83,0,0,1-.22,0,2.32,2.32,0,0,1-.47-.19s0,0,0,0a0,0,0,0,1,0,0l.05,0,0,0a3.23,3.23,0,0,0,1.37-1.37,1.24,1.24,0,0,0,.12-.32.57.57,0,0,0,0-.29.21.21,0,0,0-.2-.19c-.61,0-1.17.76-1.45,1.28a.17.17,0,0,1,0-.14.56.56,0,0,0,0-.12c.11-.45.23-.9.35-1.35a.26.26,0,0,0,0-.15.07.07,0,0,0,0-.05H9s0,0,0,0a.54.54,0,0,0-.05.11l0,.11c-.13.53-.25,1-.4,1.56-.08.24-.14.49-.2.74a4.75,4.75,0,0,1-.23.73,2.14,2.14,0,0,0-.13.62.22.22,0,0,0,0,.14A.09.09,0,0,0,7.94,16.7Z"/><path class="k" d="M10.68,15.19h0s0,0,0,0c.07-.17.25-.45.44-.47,0,0,0,0,0,0S10.82,15.11,10.68,15.19Zm.05.67c.38,0,1-.56,1.23-.84L12,15s0-.05,0-.08a.05.05,0,0,0,0,0l0,0-.05,0-.06.05-.19.18-.2.19a1.44,1.44,0,0,1-.63.37c-.11,0-.17,0-.19-.13a.32.32,0,0,1,0-.19.08.08,0,0,1,0-.05.89.89,0,0,0,.65-.62c0-.13,0-.21-.16-.21h0c-.29,0-.5.43-.6.69a1,1,0,0,0,0,.25.65.65,0,0,0,0,.19A.26.26,0,0,0,10.73,15.86Z"/><path class="k" d="M12.08,15.87h0a1.58,1.58,0,0,0,.72-.27,7.13,7.13,0,0,0,.75-.58l0,0s0,0,0,0a.06.06,0,0,0,0-.08,0,0,0,0,0,0,0h0l0,0-.05,0-.28.22-.28.23a2,2,0,0,1-.74.34h-.06c-.22,0-.31-.12-.25-.36a1.24,1.24,0,0,1,.39-.65.22.22,0,0,1,.15-.08c.07,0,.1,0,.11.11a.28.28,0,0,1,0,.2l0,.05a.13.13,0,0,0,0,.06,0,0,0,0,0,0,0h0l.05,0a.51.51,0,0,0,.11-.39.26.26,0,0,0-.25-.18.32.32,0,0,0-.21.09,1.57,1.57,0,0,0-.47.78s0,.05,0,.08A.37.37,0,0,0,12.08,15.87Z"/><path class="k" d="M13.57,15.19h0s0,0,0,0c.06-.17.25-.45.43-.47,0,0,0,0,0,0S13.72,15.11,13.57,15.19Zm0,.67c.38,0,1-.56,1.23-.84,0,0,0,0,0-.06s0-.05,0-.08l0,0-.05,0,0,0-.05.05-.19.18-.2.19a1.48,1.48,0,0,1-.64.37c-.1,0-.16,0-.19-.13a.31.31,0,0,1,0-.19s0,0,0-.05a.9.9,0,0,0,.66-.62.17.17,0,0,0-.17-.21h0c-.29,0-.51.43-.6.69a.53.53,0,0,0,0,.25.42.42,0,0,0,0,.19A.26.26,0,0,0,13.62,15.86Z"/><path class="k" d="M15.25,14.11a.14.14,0,0,1,0-.11,4.68,4.68,0,0,1,.38-.78l0,0h0s0,0,0,0v0h0l-.15.3-.32.62h0Zm-.44,2.28c.11,0,.28-.19.34-.28l.36-.49.36-.47c0-.05.06-.1.08-.14a.08.08,0,0,0,0-.07,0,0,0,0,0,0-.06h0s-.08.09-.1.12L15,16.05s-.14.17-.19.17,0,0-.05,0a.74.74,0,0,1,0-.33,3.23,3.23,0,0,1,.3-1.24A6.9,6.9,0,0,0,15.9,13s0-.09-.05-.11h0l-.08,0a5,5,0,0,0-.85,1.72.82.82,0,0,1-.16.34s0,.06,0,.09,0,.12,0,.18a4.25,4.25,0,0,0-.1.75v.08a.41.41,0,0,0,0,.11C14.64,16.25,14.7,16.39,14.81,16.39Z"/><g class="l"><path class="m" d="M12.72,17.61s0,0,0-.06v0A.7.7,0,0,0,13,17.4l.21-.2.09,0h.09l.16-.09a.28.28,0,0,1,.18,0l.08,0a.44.44,0,0,1,.15,0l.15,0-.18.05-.19,0a2.68,2.68,0,0,0-.48.21,2.43,2.43,0,0,1-.49.21m1-.51h-.12a.26.26,0,0,0-.21,0l-.2.11h0s0,0,0,0l-.11.1-.11.1-.09.05s-.08,0-.09.06a1.4,1.4,0,0,0,.27-.11l.27-.14a1.84,1.84,0,0,1,.56-.19A.1.1,0,0,0,13.77,17.1Z"/></g><g class="n"><path class="o" d="M13.77,17.1a.1.1,0,0,1,.1,0,1.84,1.84,0,0,0-.56.19l-.27.14a1.4,1.4,0,0,1-.27.11s0,0,.09-.06l.09-.05.11-.1.11-.1s0,0,0,0h0l.2-.11a.26.26,0,0,1,.21,0h.12"/><path class="p" d="M12.55,16.84c.11,0,.13-.08.08-.23l.06-.07s.06,0,.08,0l.17.05a.49.49,0,0,1,.17.05l0,.06.23.06a.77.77,0,0,1,.2.13.83.83,0,0,1,.26.19l-.08,0,0,0a.36.36,0,0,0-.13-.11l-.16-.07a.27.27,0,0,0-.17-.12L13,16.7v-.08l-.16,0-.15,0a.18.18,0,0,0,0,.14c0,.07,0,.12,0,.14l-.15.08a.27.27,0,0,1-.17,0l-.1,0s-.06,0-.05-.08a.3.3,0,0,0,0-.12.16.16,0,0,1,0-.11.12.12,0,0,1,0-.09l.09-.05-.1.09a.61.61,0,0,0,0,.16.28.28,0,0,1,0,.15l.16,0a.2.2,0,0,0,.15-.06"/><path class="q" d="M12.24,17l.11-.07a.27.27,0,0,0,.17,0l.15-.08s0-.07,0-.14a.18.18,0,0,1,0-.14l.15,0,.16,0v.08l.21.06a.27.27,0,0,1,.17.12l.16.07a.36.36,0,0,1,.13.11l0,0a.28.28,0,0,0-.18,0l-.16.09h-.09l-.09,0-.21.2a.7.7,0,0,1-.26.13v0s0,0,0,0a.78.78,0,0,1-.22.12.7.7,0,0,1-.25.05.15.15,0,0,0-.08,0,.18.18,0,0,1-.08.06h-.21l-.2,0v.06l-.18,0a1.35,1.35,0,0,1-.36-.09.14.14,0,0,1,.1-.08c.07,0,.1,0,.12-.08l-.12,0h-.13l0-.06a.2.2,0,0,1,.11,0l.1,0a.18.18,0,0,0,.19-.07.22.22,0,0,1,.15-.06.25.25,0,0,1,.16,0,.64.64,0,0,0-.06.14l0,.13s.06.07.12.07h.17c0-.07,0-.1.08-.1v.06l.07-.05L12,17.68v-.13h.3l0-.05a.12.12,0,0,1,.08,0l.09,0a.28.28,0,0,1,0-.09.85.85,0,0,0,.36,0l0-.05a1.32,1.32,0,0,0-.26-.12.66.66,0,0,1-.24-.14h.32a.56.56,0,0,0,.24-.07l-.27,0a.77.77,0,0,1-.27,0L12.24,17"/><path class="r" d="M9.8,17.45H9.75a.51.51,0,0,0,0-.09.16.16,0,0,0,0-.1h0a.19.19,0,0,1,0-.08l.06-.07v.06a.91.91,0,0,0,.13-.22,1.87,1.87,0,0,1,.08-.25l-.09.15a.8.8,0,0,1,0-.16.21.21,0,0,0,0-.15.24.24,0,0,0,.06-.11s0-.06,0-.12a.58.58,0,0,1-.11.15H10l0,.06-.06,0,0-.08.07-.07a.2.2,0,0,0-.13,0l-.11.06a.17.17,0,0,1-.14,0,.11.11,0,0,1-.09-.11l0-.12a.16.16,0,0,1,0-.12.36.36,0,0,1,.08-.12l.11-.08a.08.08,0,0,1,0,0l.05-.07.08-.07.13-.09.15-.06h.07l.05.05h.24a.25.25,0,0,1,.09.13.53.53,0,0,1,0,.16.09.09,0,0,0,0,.06l0,.06a.07.07,0,0,1,0,.11.21.21,0,0,1-.15.06.27.27,0,0,0-.16.05s.05.06.12.11a.21.21,0,0,1,.08.14h-.13l-.13,0-.07-.07-.05-.07s0,.1,0,.16h0s0,.08,0,.11v-.09c0,.09-.06.21-.11.37a1.65,1.65,0,0,1-.16.35h.06l0,.08a.14.14,0,0,0-.08.07.11.11,0,0,0,0,.1m0-1.78-.07.09-.06.05,0,0,.09.13a.6.6,0,0,0,.13.14s0-.11,0-.2a.58.58,0,0,1,.12.14.07.07,0,0,1-.06,0L10,16a.47.47,0,0,0,0,.17.14.14,0,0,1,.05-.08s.05,0,.09,0a.89.89,0,0,1,.08-.13.3.3,0,0,0,.05-.14.14.14,0,0,0,0-.15l-.14-.1-.15.07Zm.43-.07a.22.22,0,0,1,0,.28,1.64,1.64,0,0,0-.07.15.53.53,0,0,0-.06.14h.1a.09.09,0,0,0,.09,0,.3.3,0,0,1,.15,0,.26.26,0,0,0,.14-.06l-.1-.16-.08.09-.1.08a.54.54,0,0,1,.11-.14.23.23,0,0,0,.06-.16.19.19,0,0,0-.09-.15A.2.2,0,0,0,10.28,15.6Zm-.56.27-.2.19a.39.39,0,0,0,0,.14.41.41,0,0,1,0,.15.14.14,0,0,0,.14,0l.14-.07s0,0,.09,0,.06,0,.06-.05a.12.12,0,0,0-.06-.1c-.06,0-.09-.06-.1-.08l-.09-.12Zm.3.79a.22.22,0,0,0,.05-.12v-.12c0,.06,0,.1-.05.12A.24.24,0,0,0,10,16.66Z"/><path class="s" d="M9.72,15.87l0,.07.09.12s0,0,.1.08a.12.12,0,0,1,.06.1s0,.05-.06.05-.09,0-.09,0l-.14.07a.14.14,0,0,1-.14,0,.41.41,0,0,0,0-.15.39.39,0,0,1,0-.14l.2-.19m.56-.27a.2.2,0,0,1,.17,0,.19.19,0,0,1,.09.15.23.23,0,0,1-.06.16.54.54,0,0,0-.11.14l.1-.08.08-.09.1.16a.26.26,0,0,1-.14.06.3.3,0,0,0-.15,0,.09.09,0,0,1-.09,0h-.1a.53.53,0,0,1,.06-.14,1.64,1.64,0,0,1,.07-.15A.22.22,0,0,0,10.28,15.6Zm-.43.07.12-.06.15-.07.14.1a.14.14,0,0,1,0,.15.3.3,0,0,1-.05.14.89.89,0,0,0-.08.13s-.07,0-.09,0a.14.14,0,0,0-.05.08A.47.47,0,0,1,10,16l.05,0a.07.07,0,0,0,.06,0,.58.58,0,0,0-.12-.14c0,.09,0,.16,0,.2A.6.6,0,0,1,9.84,16l-.09-.13,0,0,.06-.05Zm.51.39a.24.24,0,0,0-.1.1A.13.13,0,0,0,10.36,16.06Z"/><path class="t" d="M10.16,16.46h0c0-.06,0-.12,0-.16l.05.07.07.07.13,0h.18a.45.45,0,0,1-.23,0,.27.27,0,0,1-.19-.11v.08M6.87,17.9a.64.64,0,0,1-.31-.24.42.42,0,0,1-.17.1.19.19,0,0,1-.18,0h.14a.4.4,0,0,0,.13,0l.07,0a.05.05,0,0,1,.07,0,.34.34,0,0,0,.12.12A.54.54,0,0,1,6.87,17.9ZM5.23,13.7a.27.27,0,0,1,.12.09.31.31,0,0,1,.07.14l-.1-.11ZM5,14.2,5.25,14a.86.86,0,0,1-.07.1A.3.3,0,0,1,5,14.2Zm-.17.19,0-.05s0,0,0-.05h0a.35.35,0,0,1-.07.12Zm0-.72.14-.15a.74.74,0,0,0,.12-.16.34.34,0,0,1-.07.15l-.11.12Zm-.25,1.2a1.11,1.11,0,0,1,0-.23A.22.22,0,0,1,4.55,14.87Zm.14.22a.5.5,0,0,0,.13-.1l.11-.13H5a.75.75,0,0,1-.17.19,1.42,1.42,0,0,1-.22.13h0Zm.09-1.52a1.44,1.44,0,0,0,.06-.17.47.47,0,0,1,.06-.17,1.52,1.52,0,0,0,0,.19A.27.27,0,0,1,4.78,13.57Zm-.08,1-.1.06.07-.09.1,0A.27.27,0,0,1,4.7,14.56Zm-.35,3.33a.13.13,0,0,1,0-.1l.07-.1a.24.24,0,0,1,.08-.09,1.09,1.09,0,0,1-.08.15ZM4,17.59l0,.06h.15l.13-.05,0,0,0,.05a.48.48,0,0,1-.19.05H3.83l.07-.05A.11.11,0,0,1,4,17.59Zm7.15.46a2,2,0,0,1,.36.33.14.14,0,0,1-.1-.05l-.15-.14-.15-.12Zm-8.5-1.36h0l-.1-.12a.82.82,0,0,1-.09-.19l0,0a.9.9,0,0,0,.18.29l0,0Zm-.48,3.79-.05,0,0,0,.07,0,0-.06.07,0Zm-.22,0,0,0s0,0,0-.06Zm10.47-3.31a.33.33,0,0,1-.13,0h.09a.77.77,0,0,0,.27,0l.27,0a.56.56,0,0,1-.24.07Zm-1.25,0,.11.09.05,0v0l-.07-.05-.07-.06-.06-.1Z"/><path class="u" d="M10,16.66a.24.24,0,0,1,0-.12s0-.06.05-.12v.12a.22.22,0,0,1-.05.12"/><path class="v" d="M9.83,17.48l0,0h0a.11.11,0,0,1,0-.1.14.14,0,0,1,.08-.07s.07-.05.09-.13l-.06.05H9.86a1.65,1.65,0,0,0,.16-.35c.05-.16.09-.28.11-.37v.09a5.08,5.08,0,0,1-.2.58H10a.35.35,0,0,1-.1.15.22.22,0,0,0-.08.17"/><path class="w" d="M10.36,16.06a.13.13,0,0,1-.1.1.24.24,0,0,1,.1-.1"/><path class="x" d="M8.36,16.66a.1.1,0,0,0,.12.09h.08a.1.1,0,0,1,.08,0l0,.06a.32.32,0,0,1-.18.05l-.19,0-.07,0,0,0a.14.14,0,0,1-.11,0l-.1,0a.22.22,0,0,0-.21,0H7.65l-.09,0-.1,0s0,0-.06-.05l-.06,0h.12a.31.31,0,0,0,.1-.05.11.11,0,0,1,.11,0l.11,0,.11,0a.14.14,0,0,0,.11,0l0,0H8a.39.39,0,0,0,0-.09l.19.08.2.06"/><path class="y" d="M7.17,16.47a.41.41,0,0,1-.21,0,.14.14,0,0,0-.11,0,.26.26,0,0,0-.1,0l-.34,0a.38.38,0,0,1-.18-.09h.09a.48.48,0,0,0,.27,0,.92.92,0,0,0,.27-.08.94.94,0,0,0,.34.08h.18l.17,0,.17.07.18,0,0-.06a0,0,0,0,1,.06,0,2.3,2.3,0,0,0,.4.14l.41.11a.26.26,0,0,1,.17.1l.06.08.07.07.22.08.21.11.07.1.07.11h0a.33.33,0,0,1-.14-.2.55.55,0,0,1-.24-.1A.63.63,0,0,0,9,17,.41.41,0,0,0,9,16.9l0,0,0-.05a.09.09,0,0,0-.06,0l-.25-.07-.24-.06-.2-.06L8,16.52a.39.39,0,0,1,0,.09H8l-.17,0a.58.58,0,0,1-.17,0,.58.58,0,0,0-.22-.06H7.17"/><path class="z" d="M9,16.87a.1.1,0,0,0-.08.11v.07a.21.21,0,0,1,0,.06A.44.44,0,0,1,8.71,17a.32.32,0,0,0-.1-.12s0,0,0,0l0-.06a.1.1,0,0,0-.08,0H8.48a.1.1,0,0,1-.12-.09l.24.06.25.07a.09.09,0,0,1,.06,0l0,.05"/><path class="aa" d="M9,16.9A.34.34,0,0,1,9,17a.13.13,0,0,1-.05.09l.06.07H8.91l-.09,0a.21.21,0,0,0,0-.06V17A.1.1,0,0,1,9,16.87l0,0"/><path class="ab" d="M9.73,17.78a.28.28,0,0,1-.11.08,2.57,2.57,0,0,0-.15-.29,1.89,1.89,0,0,0-.2-.27l.05,0-.14-.09a.17.17,0,0,0-.15,0,.49.49,0,0,1,0,.12L9,17.21l-.06-.06H9l-.06-.07A.13.13,0,0,0,9,17a.34.34,0,0,0,0-.09A.41.41,0,0,1,9,17a.63.63,0,0,1,.25.1.55.55,0,0,0,.24.1.33.33,0,0,0,.14.2h.05v0H9.8l-.07,0H9.67l0,.13h0v.11l.1,0"/><path class="ac" d="M7.85,17.53a.61.61,0,0,1-.16.09.45.45,0,0,0-.14.11l0,0v-.07l.18-.1.19-.09a.14.14,0,0,1,.12,0,.37.37,0,0,1,.1.07.53.53,0,0,0,.16,0l.15,0H8.7a.27.27,0,0,0,.24-.1H9.2L9,17.32a.58.58,0,0,1-.15-.11.32.32,0,0,0-.13-.07l-.15,0-.43-.16-.29,0-.28-.07-.08,0h0l.09,0h.09l.22.06a.56.56,0,0,0,.22,0l.07,0,.07,0,.16.07.17.06.08,0,.09,0,.09,0,.06.06.07.05a.49.49,0,0,0,.11.08l.1.08v0l-.08,0H9a.11.11,0,0,0-.09.05.23.23,0,0,1-.13.06H8.61a.73.73,0,0,0-.25,0l-.26,0L8,17.54a.2.2,0,0,0-.13,0"/><path class="ad" d="M9.09,17.47a1,1,0,0,1-.2.11.52.52,0,0,0-.18.13l-.07,0,0-.16h.16a.23.23,0,0,0,.13-.06A.11.11,0,0,1,9,17.47h.1"/><path class="ae" d="M9.65,18.23v-.07h.06A.37.37,0,0,0,9.65,18l-.1-.14-.09-.11a.53.53,0,0,0-.09-.11l-.31,0L9,17.64H9a.22.22,0,0,1,.09-.1.27.27,0,0,1,.13,0l-.07,0,.08,0v0l-.1-.08a.54.54,0,0,1,0-.11l.07.07a1.89,1.89,0,0,1,.2.27,2.57,2.57,0,0,1,.15.29l.05.08.1,0,.09-.09,0,.1-.1,0,.1.07a.91.91,0,0,1-.1.13.23.23,0,0,0,.11,0,.12.12,0,0,1,0-.12.27.27,0,0,1,.12-.07.59.59,0,0,0,0,.13l-.13.2-.11-.09a.16.16,0,0,0-.13-.07"/><path class="af" d="M9.15,17.34A.49.49,0,0,1,9,17.26a.49.49,0,0,0,0-.12.17.17,0,0,1,.15,0l.14.09-.05,0-.07-.07a.54.54,0,0,0,0,.11"/><path class="ag" d="M8.88,17.84l-.13,0a.43.43,0,0,1,0-.1H8.71a.52.52,0,0,1,.18-.13,1,1,0,0,0,.2-.11h.08l.07,0a.27.27,0,0,0-.13,0,.22.22,0,0,0-.09.1H9l.09.06a.2.2,0,0,1-.21,0l0,.11"/><path class="ah" d="M8.65,17.07,8.48,17l-.16-.07.09,0a.1.1,0,0,0,.1.07h.12l0,.1"/><path class="ai" d="M8.25,16.92l.19,0a.32.32,0,0,0,.18-.05s0,0,0,0a.32.32,0,0,1,.1.12.44.44,0,0,0,.11.12l-.09,0-.08,0,0-.1H8.51a.1.1,0,0,1-.1-.07l-.09,0-.07,0"/><path class="aj" d="M7.74,16.83a.22.22,0,0,1,.21,0l.1,0a.14.14,0,0,0,.11,0l0,0a.56.56,0,0,1-.22,0l-.22-.06"/><path class="ak" d="M10.15,18.24a.21.21,0,0,0,.1.08l0,.07h-.06l-.05.11-.11,0s-.08,0-.14,0,0,0,0,0a.34.34,0,0,1-.06-.06l0-.07-.11,0a.12.12,0,0,1-.07-.07.21.21,0,0,1,0-.06.11.11,0,0,0,0-.07L9.48,18l0-.06a.66.66,0,0,0-.17-.23h0l-.15,0a.35.35,0,0,0-.16,0l-.11.1a.11.11,0,0,1-.13,0l0-.08s-.05,0-.09,0a1.06,1.06,0,0,1-.53.05.14.14,0,0,1-.09,0l-.09-.05a.17.17,0,0,0-.18,0,.19.19,0,0,0-.07.08c0,.05,0,.08-.07.09L7.41,18l-.2,0-.15.07-.16,0a.31.31,0,0,0-.15-.1l-.1.06-.11,0,.1-.08A.3.3,0,0,1,6.75,18a.16.16,0,0,0,.12,0A.17.17,0,0,1,7,18a.11.11,0,0,0,.08,0l.07,0v.08s.08-.07.17-.09a.24.24,0,0,0,.14-.12c-.19,0-.36.08-.52.13l-.05-.06a.19.19,0,0,0,.15,0l.15,0,.19,0a.24.24,0,0,0,.15-.1l0,0,.07,0,.08,0c.07,0,.12,0,.15.05L8,17.8a.21.21,0,0,0,.17,0h.24a.57.57,0,0,0,.23-.08l.07,0h.07a.43.43,0,0,0,0,.1.07.07,0,0,0,.05.07.09.09,0,0,0,.08,0l0-.11a.2.2,0,0,0,.21,0l.31,0a.53.53,0,0,1,.09.11l.09.11a.53.53,0,0,1,0,.13h.09a.37.37,0,0,1,.07.12H9.6v0l.06,0a.16.16,0,0,1,.13.07l.11.09.13-.2a.59.59,0,0,1,0-.13.27.27,0,0,0-.12.07.12.12,0,0,0,0,.12.23.23,0,0,1-.11,0,.91.91,0,0,0,.1-.13L9.74,18l.1,0,0-.1,0,0,0,0,0,.05L10,18l.05,0a.34.34,0,0,0,0,.18l.05,0v0m-2.51-.45a.17.17,0,0,0-.08.06.41.41,0,0,0,0,.09.11.11,0,0,0,.11,0A.14.14,0,0,0,7.64,17.79Z"/><path class="al" d="M8.1,17.62l.26,0a.73.73,0,0,1,.25,0l0,.16a.57.57,0,0,1-.23.08H8.17a.11.11,0,0,1-.08-.08.11.11,0,0,1,0-.11h0"/><path class="am" d="M9,17.77a.35.35,0,0,1,.16,0l.15,0a.24.24,0,0,1-.15.07.26.26,0,0,1-.16,0"/><path class="an" d="M10.84,17.07l-.32.12a.67.67,0,0,0-.28.2l-.17.16V17.5a.14.14,0,0,1,0-.06l0-.06v.05a.89.89,0,0,0,.09-.16.64.64,0,0,0,0-.17.34.34,0,0,1,.05-.16.14.14,0,0,1,.14-.08,1.48,1.48,0,0,1,.22-.25l0,0,.09,0-.08.12a.37.37,0,0,1,.07.12h0l0,.05a.2.2,0,0,0-.09,0l-.06.08a.08.08,0,0,0,.08,0,.25.25,0,0,0,.08-.05l.05.05"/><path class="ao" d="M11.22,16.36l-.16.07-.12.08a.25.25,0,0,1-.12.07l0-.08-.13.11a1.48,1.48,0,0,0-.22.25.14.14,0,0,0-.14.08.34.34,0,0,0-.05.16.64.64,0,0,1,0,.17.89.89,0,0,1-.09.16v-.05a.91.91,0,0,0,.06-.16c0-.11.05-.17.05-.18a.35.35,0,0,1,.22-.25l.16-.17a1,1,0,0,1,.18-.15h0l.07,0,.13-.09a1,1,0,0,1,.44-.16v.09l.2-.06.2-.07h.09l-.26.08a.83.83,0,0,1-.27.06V16.3a.7.7,0,0,0-.19.06"/><path class="ap" d="M10.24,17.39h0l-.07.07h.13a.29.29,0,0,1,.14.11l.09.15.08.09a.08.08,0,0,1-.07,0l-.07-.09-.06-.11a.2.2,0,0,0-.2-.1.83.83,0,0,0-.12.25,1.1,1.1,0,0,0,0,.27l0,0a.73.73,0,0,1,.41-.23h0l-.18.08h.19a.84.84,0,0,1,.18,0h-.21a.66.66,0,0,0-.21,0,.51.51,0,0,0-.15.07.29.29,0,0,0-.08.14.34.34,0,0,1,0-.18L10,18l-.06-.08h0v-.05l.06,0a1,1,0,0,0,0-.25l0,.1s0,.07,0,.1a1.09,1.09,0,0,1,0-.17.5.5,0,0,1,.08-.21v.05l.17-.16"/><path class="aq" d="M10.33,17.47H10.2l.07-.07.11-.09a.28.28,0,0,1,.12-.08l.27-.1a1.14,1.14,0,0,1,.28-.07.32.32,0,0,0,0,.14c0,.06,0,.09-.07.1h-.22a.19.19,0,0,0-.19.09l0-.09a.48.48,0,0,1-.13.09l-.13.07.06,0"/><path class="ar" d="M10.84,17.07,11,17h.08v0a1.14,1.14,0,0,0-.28.07l-.27.1a.28.28,0,0,0-.12.08l-.11.09h0a.67.67,0,0,1,.28-.2l.32-.12"/><path class="as" d="M10,17.71a1.09,1.09,0,0,0,0,.17s0-.06,0-.1l0-.1a1,1,0,0,1,0,.25l-.06,0a1.08,1.08,0,0,1,0-.18m1.12.14-.08,0,0,0,.07,0-.18,0a.45.45,0,0,0-.25-.12l-.08-.09-.09-.15a.29.29,0,0,0-.14-.11l-.06,0,.13-.07a.48.48,0,0,0,.13-.09l0,.09a.19.19,0,0,1,.19-.09H11s.07,0,.07-.1a.32.32,0,0,1,0-.14v0H11l.1,0,0,.08.06.1-.06.11h0s0,.09-.06.17a.52.52,0,0,1-.07.15l.13.1,0-.06h.13l.12,0s-.05.06-.12.08A.14.14,0,0,0,11.11,17.85Zm-1.22-.57,0-.08.06-.05C10,17.23,9.93,17.27,9.89,17.28Z"/><path class="at" d="M9.94,16.82l.09-.15a1.87,1.87,0,0,0-.08.25.91.91,0,0,1-.13.22v-.06s0-.07.06-.13l0-.13"/><path class="au" d="M9.75,17.43h0v0a.34.34,0,0,1,0-.15.16.16,0,0,1,0,.1.51.51,0,0,1,0,.09h0"/><path class="av" d="M9.84,17.83a0,0,0,0,1-.06,0l0,0-.1,0v-.11h0l0-.13h.06l.07,0,0,0s0,.05,0,.11,0,.11,0,.12a.14.14,0,0,1,0-.09v-.11a.16.16,0,0,0-.05.11.17.17,0,0,0,0,.11l0,0,.08.06"/><path class="aw" d="M9.88,17.79l0,0-.08-.06,0,0a.17.17,0,0,1,0-.11.16.16,0,0,1,.05-.11v.11a.14.14,0,0,0,0,.09l0,.08"/><path class="ax" d="M9.86,17.88,9.77,18l-.1,0-.05-.08a.28.28,0,0,0,.11-.08l0,0a0,0,0,0,0,.06,0l0,0a.85.85,0,0,1,0,.09l0,0,0,0m.48.9h0l0,0-.09.1-.05-.05,0,0a.23.23,0,0,1-.07-.1.07.07,0,0,1,0-.1v.07h0l.07-.06a.12.12,0,0,0,.07.05Z"/><path class="ay" d="M10.52,17.82l.05,0a.08.08,0,0,0,.07,0,.45.45,0,0,1,.25.12l.18,0L11,18h-.13L11,18l.11.05,0,0,.15.12.15.14a.14.14,0,0,0,.1.05l0,0h0a2.71,2.71,0,0,1,.22.38,2.6,2.6,0,0,1,.15.42h.08a.27.27,0,0,1-.16.08,1.36,1.36,0,0,0-.18-.58,1.33,1.33,0,0,0-.41-.44v0a.93.93,0,0,0-.26-.15L10.61,18a.51.51,0,0,0-.42.07.61.61,0,0,1,0,.12l-.05,0a.29.29,0,0,1,.08-.14.51.51,0,0,1,.15-.07.66.66,0,0,1,.21,0h.21a.84.84,0,0,0-.18,0h-.19l.18-.08h0"/><path class="az" d="M10.61,18a1.65,1.65,0,0,0-.27,0,.28.28,0,0,0-.19.16v0a.61.61,0,0,0,0-.12.51.51,0,0,1,.42-.07"/><path class="ba" d="M12.26,16.44l-.09,0a.1.1,0,0,1-.06-.05l.05-.05,0,0-.13,0h-.13v0a.68.68,0,0,1,.27,0,0,0,0,0,1,0,.06l-.07.05.11.07"/><path class="bb" d="M12.35,16.93l-.11.07c-.06,0-.09.07-.08.16h-.07l0,0a.61.61,0,0,0-.12-.09h-.27l-.14,0,0-.06a.44.44,0,0,0,.16-.06l-.07-.14a.38.38,0,0,1-.13,0l-.11-.07,0,.07a.37.37,0,0,1-.16-.1.11.11,0,0,1,0-.16l0,0v0a.7.7,0,0,1,.19-.06v.08a.83.83,0,0,0,.27-.06l.26-.08h0v0h.13l.13,0,0,0-.05.05a.1.1,0,0,0,.06.05l.09,0h0l-.09.05a.12.12,0,0,0,0,.09.16.16,0,0,0,0,.11.3.3,0,0,1,0,.12s0,.06.05.08l.1,0"/><path class="bc" d="M11,16.43l-.13.09-.07,0h.09l.11,0"/><path class="bd" d="M10.67,16.61l.13-.11,0,.08a.25.25,0,0,0,.12-.07l.12-.08c.08,0,.11.06.08.12a1.19,1.19,0,0,1-.1.17l.1,0h.11a.72.72,0,0,1-.2.17.51.51,0,0,0-.2.17h.05l-.06,0L10.79,17a.25.25,0,0,1-.08.05.08.08,0,0,1-.08,0l.06-.08a.2.2,0,0,1,.09,0l0-.05h0a.37.37,0,0,0-.07-.12l.08-.12-.09,0,0,0"/><path class="be" d="M11,17h-.12a.51.51,0,0,1,.2-.17.72.72,0,0,0,.2-.17h-.11l-.1,0a1.19,1.19,0,0,0,.1-.17c0-.06,0-.11-.08-.12l.16-.07v0l0,0a.11.11,0,0,0,0,.16.37.37,0,0,0,.16.1l0-.07.11.07a.38.38,0,0,0,.13,0l.07.14a.44.44,0,0,1-.16.06l0,.06.14,0h-.41v.1l-.05,0,0,0-.05,0,0-.08L11,17"/><path class="bf" d="M11.74,17.06h-.49v0h.68a.12.12,0,0,1-.09,0h-.1"/><path class="bg" d="M12.05,17.13,12,17.08v.05s0,0,0,.06,0,0,.06,0a.81.81,0,0,1,.11.13l.1.13,0,.05h-.26a.51.51,0,0,1-.12-.09.19.19,0,0,0-.14-.07.52.52,0,0,1-.21,0,.42.42,0,0,1-.18-.11l0-.08s.05,0,.09,0l.09,0c.08,0,.14,0,.18,0a.5.5,0,0,1,0-.13h.1a.12.12,0,0,0,.09,0,.61.61,0,0,1,.12.09"/><path class="bh" d="M11.08,17.64l0,.06-.13-.1a.52.52,0,0,0,.07-.15c0-.08,0-.13.06-.17h0l.06-.11.07.06.07.05s0,.07.05.1l.1.07v.05a.18.18,0,0,1-.19.07l-.1,0a.2.2,0,0,0-.11,0l0,.06"/><path class="bi" d="M11.24,17.13h.1a.18.18,0,0,1,.09,0l0,.08a.42.42,0,0,0,.18.11.52.52,0,0,0,.21,0,.19.19,0,0,1,.14.07.51.51,0,0,0,.12.09h0v.13l.08.06-.07.05v-.06s-.07,0-.08.1h-.17c-.06,0-.11,0-.12-.07l0-.13a.64.64,0,0,1,.06-.14.25.25,0,0,0-.16,0,.22.22,0,0,0-.15.06v-.05l-.1-.07s-.06-.06-.05-.1v0l-.11-.09.05,0"/><path class="bj" d="M11.43,17.18a.18.18,0,0,0-.09,0h-.1v-.06h.49a.5.5,0,0,0,0,.13s-.1,0-.18,0l-.09,0s-.07,0-.09,0"/><path class="bk" d="M11.26,18A.93.93,0,0,0,11,18l0-.05-.07,0,0,0,.08,0a1.35,1.35,0,0,0,.36.09h.09v0l-.16,0h-.15v0m-.1-.09h-.07a.07.07,0,0,0,0,.05h.07S11.18,17.91,11.16,17.9Z"/><path class="bl" d="M11.16,17.9s0,0,0,.05h-.07a.07.07,0,0,1,0-.05h.07"/><path class="bm" d="M11,19.47a1.15,1.15,0,0,0-.1.33,1,1,0,0,0,0,.34l0,0a1.64,1.64,0,0,0,0-.18,1.07,1.07,0,0,1,.07-.45.67.67,0,0,1,.3-.34.55.55,0,0,1,.26,0,.79.79,0,0,1,.25,0c0-.09-.05-.19-.08-.29a.66.66,0,0,0-.07-.15l-.09-.15a.77.77,0,0,0-.15-.19l-.18-.17v0a1.33,1.33,0,0,1,.41.44,1.36,1.36,0,0,1,.18.58.27.27,0,0,0,.16-.08h0v.07a.14.14,0,0,1-.12.09l-.07,0c0-.05-.07-.07-.14-.09a.62.62,0,0,0-.23,0,.4.4,0,0,0-.22.09.66.66,0,0,0-.16.17"/><path class="bn" d="M11.82,18.12h-.05a2.4,2.4,0,0,1,.36.34,1.17,1.17,0,0,1,.26.42.19.19,0,0,1-.1-.08.67.67,0,0,0-.06-.12,1.53,1.53,0,0,0-.33-.35,2.23,2.23,0,0,0-.41-.26l-.09,0a.2.2,0,0,0-.1,0l0,0v0h.15l.16,0v0h-.09l.18,0h0s0,.07,0,.1l.08.05a.12.12,0,0,1,.05.05"/><path class="bo" d="M11.67,17.92h0v-.06l.2,0h.21a.18.18,0,0,0,.08-.06.15.15,0,0,1,.08,0,.7.7,0,0,0,.25-.05.78.78,0,0,0,.22-.12s0,0,0,0v0s0,0,0,.06a.57.57,0,0,1-.24.14l-.27.09a.45.45,0,0,1-.26.08h-.28"/><path class="bp" d="M12.4,18.9l-.15,0a.35.35,0,0,0-.14.06.41.41,0,0,0-.23.22h0a2.6,2.6,0,0,0-.15-.42,2.71,2.71,0,0,0-.22-.38h0a1.48,1.48,0,0,1,.21.35c0,.1.09.23.14.38a.66.66,0,0,1,.19-.18.58.58,0,0,1,.25-.09,1.62,1.62,0,0,0-.43-.52A2.29,2.29,0,0,0,11.3,18a.2.2,0,0,1,.1,0l.09,0a2.23,2.23,0,0,1,.41.26,1.53,1.53,0,0,1,.33.35.67.67,0,0,1,.06.12.19.19,0,0,0,.1.08,1.17,1.17,0,0,0-.26-.42,2.4,2.4,0,0,0-.36-.34h.05a1.33,1.33,0,0,1,.29.25,1.39,1.39,0,0,1,.23.31s0,0,.07.12a.13.13,0,0,0,.09.09h-.1"/><path class="bq" d="M12.24,17l.11.08h-.09a.33.33,0,0,0,.13,0h-.06a.66.66,0,0,0,.24.14,1.32,1.32,0,0,1,.26.12l0,.05a.85.85,0,0,1-.36,0,.28.28,0,0,0,0,.09l-.09,0a.12.12,0,0,0-.08,0l-.1-.13a.81.81,0,0,0-.11-.13s-.05,0-.06,0,0,0,0-.06l.13.09a.23.23,0,0,0,.15.05l-.07-.06-.08-.05h.07c0-.09,0-.14.08-.16"/><path class="br" d="M12.05,17.13l0,0,.08.05.07.06a.23.23,0,0,1-.15-.05L12,17.13v-.05l.09.05"/><path class="bs" d="M12.63,16.61c0,.15,0,.23-.08.23a1.23,1.23,0,0,0,.08-.23"/><path class="bt" d="M11.78,19.66a.17.17,0,0,1-.12,0h.08a.09.09,0,0,0,.06-.06.4.4,0,0,1,.11-.12l.14-.07-.09.12v0l.11-.06.12-.07a.41.41,0,0,1,.14,0c.06,0,.11,0,.13-.05a.58.58,0,0,0-.28,0l0,0h-.1a.43.43,0,0,1,.17,0l.18,0-.15-.06.07-.11a.13.13,0,0,0-.08,0,.15.15,0,0,0-.09,0l0-.05a.11.11,0,0,1,.07,0,1,1,0,0,1,.41.24l-.08.09v0l-.08,0v-.09a.24.24,0,0,0-.17,0l.14.09-.13,0,.11,0,0,0a.31.31,0,0,0-.19,0c-.08,0-.14,0-.18,0a.17.17,0,0,1-.1,0l-.11,0v.11a.19.19,0,0,0-.21,0"/><path class="bu" d="M12.76,19.29h0a1,1,0,0,0-.41-.24.11.11,0,0,0-.07,0l0,.05-.08.06,0,0v-.06a.44.44,0,0,0-.15.1v.08l0,0v-.07h0a.41.41,0,0,1,.23-.22.35.35,0,0,1,.14-.06l.15,0,.11,0a.32.32,0,0,0,.14.15.52.52,0,0,1,.15.13l-.08,0h0a.45.45,0,0,1,.06.12"/><path class="bv" d="M13.08,19.49a.65.65,0,0,0-.17-.27l0,0a.88.88,0,0,0-.33-.24l0,0-.11,0h.1a.67.67,0,0,1,.36.21,1.56,1.56,0,0,1,.16.2.92.92,0,0,1,.14.39,1.13,1.13,0,0,1,0,.41,2.56,2.56,0,0,0,0-.39l-.06-.22"/><path class="bw" d="M12.22,19.11a.15.15,0,0,1,.09,0,.13.13,0,0,1,.08,0l-.07.11.15.06-.18,0a.43.43,0,0,0-.17,0h.1l0,0a.58.58,0,0,1,.28,0s-.07,0-.13.05a.41.41,0,0,0-.14,0l-.12.07-.11.06v0l.09-.12-.14.07a.4.4,0,0,0-.11.12.09.09,0,0,1-.06.06h-.09l-.08-.05-.09-.07a.24.24,0,0,1-.06-.09.12.12,0,0,1,.06-.09l.09-.06,0,.1.1,0,.1,0a.14.14,0,0,0,.12-.09l0,0,.16-.1.08-.06"/><path class="bx" d="M12.75,19.28h0a.33.33,0,0,1,0,.12l-.1.1a.66.66,0,0,0-.2.06l.08.06a.27.27,0,0,1-.13,0H12.3l0,.1,0,0a.22.22,0,0,0-.08-.13.1.1,0,0,0-.14,0,.22.22,0,0,0,0,.13.61.61,0,0,1,0,.15h0a.23.23,0,0,1-.05-.1l0-.1h0l-.15,0a.19.19,0,0,1,.21,0v-.11l.11,0a.17.17,0,0,0,.1,0s.1,0,.18,0a.31.31,0,0,1,.19,0l0,0-.11,0,.13,0-.14-.09a.24.24,0,0,1,.17,0v.09l.08,0v0l.08-.09"/><path class="by" d="M12,19.27v-.08a.44.44,0,0,1,.15-.1v.06l0,0-.16.1"/><path class="bz" d="M11.17,19.8a.53.53,0,0,1-.05-.15,1.57,1.57,0,0,1,0-.16.36.36,0,0,0,0-.09.41.41,0,0,0,0-.1.4.4,0,0,1,.22-.09.62.62,0,0,1,.23,0l0,0h-.18a.18.18,0,0,0-.16.07,2.35,2.35,0,0,0-.07.23.34.34,0,0,1,0,.08.11.11,0,0,1,0,.08.34.34,0,0,0,.17.06l.16,0,0-.18.11,0a.17.17,0,0,0,.12,0l.15,0h0l0,.1a.23.23,0,0,0,.05.1h0a.61.61,0,0,0,0-.15.22.22,0,0,1,0-.13.1.1,0,0,1,.14,0,.22.22,0,0,1,.08.13l0,0,0-.1h.13a.27.27,0,0,0,.13,0l-.08-.06a.66.66,0,0,1,.2-.06l.1-.1a.48.48,0,0,1-.11.15l-.13.14a0,0,0,0,1-.07,0l-.08,0a.29.29,0,0,1,0,.08s0,0-.07,0a.08.08,0,0,0-.08,0l-.07,0,0,.13-.11,0L12,20,12,20l0,.12h-.14l-.19-.16a.28.28,0,0,0-.23,0,.26.26,0,0,0-.11-.07.27.27,0,0,0-.13,0"/><path class="ca" d="M12.51,18.93l0,0a.88.88,0,0,1,.33.24.12.12,0,0,0,.06.12.24.24,0,0,0-.11.13c0,.07-.06.13-.08.16l-.08.09a.27.27,0,0,0-.05.11l-.11,0-.09.07,0,0v0s-.07,0-.09,0a.09.09,0,0,0,0,.1h-.13L12,20l0,.12h-.14a.23.23,0,0,1-.13-.06l0,.05-.09-.07L11.55,20h0a.35.35,0,0,0-.17.06.23.23,0,0,1-.11,0,.1.1,0,0,1,0-.12l-.08,0v0a.27.27,0,0,1,.13,0,.26.26,0,0,1,.11.07.28.28,0,0,1,.23,0l.19.16H12L12,20,12,20l.1,0,.11,0,0-.13.07,0a.08.08,0,0,1,.08,0s.05,0,.07,0a.29.29,0,0,0,0-.08l.08,0a0,0,0,0,0,.07,0l.13-.14a.48.48,0,0,0,.11-.15.33.33,0,0,0,0-.12.45.45,0,0,0-.06-.12h0l.08,0a.52.52,0,0,0-.15-.13.32.32,0,0,1-.14-.15"/><path class="cb" d="M12.88,19.19l0,0a.65.65,0,0,1,.17.27l0,.18a1.41,1.41,0,0,1,0,.18.19.19,0,0,1,0,.07l0-.06,0,.09,0,0-.12,0-.08.06c0-.05,0-.1,0-.13l-.08.07-.06.09s0-.07,0-.08,0-.07,0-.09a.27.27,0,0,1,.05-.11l.08-.09s0-.09.08-.16a.24.24,0,0,1,.11-.13.12.12,0,0,1-.06-.12"/><path class="cc" d="M12.6,21l.14-.09a.63.63,0,0,0,.12-.1L13,20.6a.81.81,0,0,0,.07-.22,1.85,1.85,0,0,0,.06-.26,1.22,1.22,0,0,0,0-.27,1.41,1.41,0,0,0,0-.18l0-.18.06.22a2.56,2.56,0,0,1,0,.39,1.06,1.06,0,0,1-.1.46.91.91,0,0,1-.32.35l-.07.05a.11.11,0,0,1-.08,0"/><path class="cd" d="M12.62,19.8s0,.05,0,.09,0,0,0,.08l-.07.06a.08.08,0,0,1-.08,0h-.12a.45.45,0,0,1-.3.3.52.52,0,0,1-.44,0h-.1l-.11,0v-.09l-.1-.06a.2.2,0,0,0-.11.06.11.11,0,0,0,0,.11h0l0,.06.09,0s0,.05,0,.1a.14.14,0,0,0,0,.09s0,.05,0,.06l.07,0v.05h0l.09.12v-.06a.16.16,0,0,1,.08.06.22.22,0,0,1,0,.08h0l-.05-.05,0,.07,0,0a1.07,1.07,0,0,1-.3-.3,1.46,1.46,0,0,1-.2-.37l0-.05a1,1,0,0,1,0-.34,1.15,1.15,0,0,1,.1-.33h.05a1.64,1.64,0,0,1,0,.18.15.15,0,0,0,.09.14v0l.08,0a.1.1,0,0,0,0,.12.23.23,0,0,0,.11,0,.35.35,0,0,1,.17-.06h0l.08.08.09.07,0-.05a.23.23,0,0,0,.13.06H12L12,20l.12,0h.13a.09.09,0,0,1,0-.1s.05,0,.09,0v0l0,0,.09-.07.11,0"/><path class="ce" d="M10.31,18.46l0,0,0-.06-.05,0h0l0-.07.07,0,.08,0a.73.73,0,0,1,.29.24.69.69,0,0,1,.13.36,1,1,0,0,1,0,.29,1.7,1.7,0,0,1-.09.29s0,.05,0,.07,0,0,0,.08l-.07-.07a.68.68,0,0,0,0-.12v-.12a1.05,1.05,0,0,0,0,.13,1.8,1.8,0,0,0,.09-.41.62.62,0,0,0-.1-.41.86.86,0,0,0-.15-.2.34.34,0,0,0-.22-.1v0"/><path class="cf" d="M11.17,19.8a.15.15,0,0,1-.09-.14,1.64,1.64,0,0,0,0-.18H11a.66.66,0,0,1,.16-.17.41.41,0,0,1,0,.1.36.36,0,0,1,0,.09,1.57,1.57,0,0,0,0,.16.53.53,0,0,0,.05.15"/><path class="cg" d="M10.76,19.8l-.07.08,0,0a.07.07,0,0,1-.08,0l0-.1.06,0,.05,0h.1l0,.06"/><path class="ch" d="M10.81,19.91a.33.33,0,0,0-.14,0v0l.09.05a1.47,1.47,0,0,1-.1.13l.09,0,0-.12,0-.12v0a1,1,0,0,0,0,.26l-.07.07-.11-.09a.17.17,0,0,0-.12-.06v-.07h.05a.23.23,0,0,0-.06-.12l-.08-.09a.31.31,0,0,1-.09-.18.46.46,0,0,0,0-.13.28.28,0,0,1-.06-.13l.1,0,0,0,.12,0a.21.21,0,0,0,0-.12c0-.06,0-.1,0-.13a.61.61,0,0,0,0,.11.53.53,0,0,0,0,.11v.12a.68.68,0,0,1,0,.12l.07.07h-.1l-.05,0-.06,0,0,.1a.07.07,0,0,0,.08,0l0,0,.07-.08.05.11"/><path class="ci" d="M11.66,19.67l-.11,0,0,.18-.16,0a.34.34,0,0,1-.17-.06.11.11,0,0,0,0-.08.34.34,0,0,0,0-.08,2.35,2.35,0,0,1,.07-.23.18.18,0,0,1,.16-.07h.18a.19.19,0,0,1-.09,0l-.1,0c-.09,0-.13.06-.14.13a.88.88,0,0,1,0,.14.1.1,0,0,0,.07.1l.12,0,.12-.06.08.05h0"/><path class="cj" d="M11.57,19.61l-.12.06-.12,0a.1.1,0,0,1-.07-.1.88.88,0,0,0,0-.14c0-.07,0-.11.14-.13l.1,0a.19.19,0,0,0,.09,0l0,0c.07,0,.12,0,.14.09l.07,0-.1,0-.1,0,0-.1-.09.06a.12.12,0,0,0-.06.09.24.24,0,0,0,.06.09l.09.07"/><path class="ck" d="M12.14,20.84a.15.15,0,0,0,.2,0l.11-.05.11,0a.26.26,0,0,0,.14-.1,1.07,1.07,0,0,0,.06-.17l.09-.1a.67.67,0,0,0,.06-.12l.1-.12A.21.21,0,0,0,13,20a.13.13,0,0,1,.05.16l0,.09a.22.22,0,0,0,0,.09.81.81,0,0,1-.07.22l-.14.18,0-.1-.06.05,0,0,0,.08-.22.08a.26.26,0,0,0-.16.15l-.05-.08a1.43,1.43,0,0,1-.75,0l0,0,0-.07.05.05h0a.22.22,0,0,0,0-.08.16.16,0,0,0-.08-.06v.06l-.09-.12h0v-.05l-.07,0s0,0,0-.06a.14.14,0,0,1,0-.09c0-.05,0-.08,0-.1l-.09,0,0-.06h0a.11.11,0,0,1,0-.11.2.2,0,0,1,.11-.06l.1.06v.09l.11,0h.1a.52.52,0,0,0,.44,0,.45.45,0,0,0,.3-.3h.12l-.09.08,0,0a.45.45,0,0,0-.15.14.26.26,0,0,1-.17.1.41.41,0,0,0-.16.05l-.16.05s0,0,0,.05l.08,0,0,0h-.13a.05.05,0,0,1-.07,0,.06.06,0,0,1-.07,0,.28.28,0,0,1-.05-.08l-.08.08.08,0-.08.05.1.06.11,0s0,0,0,.08a.16.16,0,0,0,0,.07.07.07,0,0,0,.06,0l.05,0,.16,0h.16"/><path class="cl" d="M12.49,20a.08.08,0,0,0,.08,0l.07-.06.06-.09.08-.07s0,.08,0,.13l.08-.06.12,0,0,0,0-.09,0,.06a.19.19,0,0,0,0-.07,1.22,1.22,0,0,1,0,.27,1.85,1.85,0,0,1-.06.26.22.22,0,0,1,0-.09l0-.09A.13.13,0,0,0,13,20a.21.21,0,0,1,0,.15l-.1.12a.67.67,0,0,1-.06.12l-.09.1a1.07,1.07,0,0,1-.06.17.26.26,0,0,1-.14.1c.08-.06.13-.12.13-.19a.29.29,0,0,1,.08-.14.5.5,0,0,0,.09-.13,1.32,1.32,0,0,1,.08-.14.24.24,0,0,0,.06-.14h-.08l0-.08h-.06s0,0,0,0l-.12.21a.64.64,0,0,1-.17.16h-.18a.21.21,0,0,0-.13.09l-.12,0v.08s0,0-.06,0l0,0a.1.1,0,0,1-.11,0,.73.73,0,0,1,0,.08.22.22,0,0,0,0,.08.21.21,0,0,0,.15,0,.27.27,0,0,1,.15,0H12l-.16,0-.05,0a.07.07,0,0,1-.06,0,.16.16,0,0,1,0-.07s0-.06,0-.08l-.11,0-.1-.06.08-.05-.08,0,.08-.08a.28.28,0,0,0,.05.08.06.06,0,0,0,.07,0,.05.05,0,0,0,.07,0h.13l0,0-.08,0s0,0,0-.05l.16-.05a.41.41,0,0,1,.16-.05.26.26,0,0,0,.17-.1.45.45,0,0,1,.15-.14l0,0,.09-.08"/><path class="cm" d="M10.93,20.19l-.06,0a1,1,0,0,1,0-.26.27.27,0,0,0,0,.08V20a1.64,1.64,0,0,1,0,.18l0,0,0,.05"/><path class="cn" d="M10.81,19.93l0,.12,0,.12-.09,0a1.47,1.47,0,0,0,.1-.13L10.67,20v0a.33.33,0,0,1,.14,0v0"/><path class="co" d="M11.43,20.86v.06a1.71,1.71,0,0,1-.44-.46l-.1,0,0,0,0-.08a.19.19,0,0,0-.07-.06.79.79,0,0,0,.05.13l.06.12-.06,0a2,2,0,0,1-.11-.2l0,0-.05-.06,0-.07-.1,0s-.07,0-.07-.07l0-.06a.07.07,0,0,0,0-.06l-.14-.07,0-.05,0-.1a.22.22,0,0,0-.07-.09l0,0a2.21,2.21,0,0,1-.13-.23l.06-.05,0,0,0,0a.28.28,0,0,0,.06.13.46.46,0,0,1,0,.13.31.31,0,0,0,.09.18l0,.07.1,0a.23.23,0,0,1,.06.12h-.12v0l.07,0a.17.17,0,0,1,.12.06l.11.09.07-.07.06,0a1.46,1.46,0,0,0,.2.37,1.07,1.07,0,0,0,.3.3"/><path class="cp" d="M10.87,20.62a1.29,1.29,0,0,0-.06-.12.79.79,0,0,1-.05-.13.19.19,0,0,1,.07.06l0,.08,0,0a.44.44,0,0,1,0,.09v0h0"/><path class="cq" d="M12.14,20.84a.27.27,0,0,0-.15,0,.21.21,0,0,1-.15,0,.22.22,0,0,1,0-.08.73.73,0,0,0,0-.08.1.1,0,0,0,.11,0l0,0s0,0,.06,0v-.08l.12,0a.21.21,0,0,1,.13-.09h.18a.64.64,0,0,0,.17-.16l.12-.21s0,0,0,0h.06l0,.08H13a.24.24,0,0,1-.06.14,1.32,1.32,0,0,0-.08.14.5.5,0,0,1-.09.13.29.29,0,0,0-.08.14c0,.07,0,.13-.13.19l-.11,0-.11.05a.15.15,0,0,1-.2,0"/><path class="cr" d="M11.52,20.91a1,1,0,0,0,.38.16,1.13,1.13,0,0,0,.41,0l-.14.06a.24.24,0,0,1-.15,0,1.28,1.28,0,0,1-.58-.21v-.06l0,0,0,0"/><path class="cs" d="M12.86,20.78a.63.63,0,0,1-.12.1L12.6,21l-.14.07a.28.28,0,0,1-.15,0,1.13,1.13,0,0,1-.41,0,1,1,0,0,1-.38-.16,1.43,1.43,0,0,0,.75,0l.05.08a.26.26,0,0,1,.16-.15l.22-.08,0-.08,0,0,.06-.05,0,.1"/><path class="ct" d="M9.66,18.16v.07l-.06,0v0h.06m-.11-.27.1.14H9.56A.53.53,0,0,0,9.55,17.89Zm-.8-.08.13,0a.09.09,0,0,1-.08,0A.07.07,0,0,1,8.75,17.81Zm1.1.65c.06,0,.1,0,.14,0l.11,0,.05-.11h.1l0,.09-.08,0v.09l.06,0a.54.54,0,0,0,0,.15l-.06.05-.07.06h0v-.07a.07.07,0,0,0,0,.1.23.23,0,0,0,.07.1l0,0,.05.05.09-.1c0,.07,0,.12-.13.15l.11.07-.1.12a.19.19,0,0,0,.12,0,.09.09,0,0,1,0-.13l.13-.07a.08.08,0,0,0,0,.07.2.2,0,0,0,0,.07l-.07.1-.07.1-.1-.09a.17.17,0,0,0-.12-.06h0l-.07,0,0,0,.11,0L10.11,19a.74.74,0,0,0-.12-.16,1.87,1.87,0,0,0-.07-.18Zm.73,1.62v.07l-.07,0v0Zm0-.13-.1,0,0-.07Z"/><path class="cu" d="M10.31,18.46a.57.57,0,0,0,0,.32h-.08a.12.12,0,0,1-.07-.05l.06-.05a.54.54,0,0,1,0-.15l-.06,0v-.09l.08,0,0-.09.05,0,0,.06,0,0"/><path class="cv" d="M10.3,19.42l0,0,0,0a.13.13,0,0,1-.06-.05l-.05-.05a.18.18,0,0,0-.13-.06h.06a.17.17,0,0,1,.12.06l.1.09.07-.1.07-.1a.2.2,0,0,1,0-.07.08.08,0,0,1,0-.07l-.13.07a.09.09,0,0,0,0,.13.19.19,0,0,1-.12,0l.1-.12L10.19,19c.09,0,.13-.08.13-.15l0,0a.24.24,0,0,0,.06.11l.05.06,0,0,.06.11-.07,0a1.16,1.16,0,0,1,.06.16h.06v0s0,.07,0,.13a.21.21,0,0,1,0,.12l-.12,0,0,0-.1,0"/><path class="cw" d="M10.62,19.18h-.06A1.16,1.16,0,0,0,10.5,19l.07,0-.06-.11,0,0-.05-.06,0-.07a.19.19,0,0,0,0-.08l.09.18a.45.45,0,0,1,.05.2l0,0v0"/><path class="cx" d="M10.12,19.2H10l0-.07,0,0,0-.07L10,19s0,0,0-.08a.09.09,0,0,0,0-.06l0-.06c0-.05,0-.08,0-.11l-.06-.11a.64.64,0,0,1-.06-.1l.05,0s0,0,0,0l.07.19a1.87,1.87,0,0,1,.07.18A.33.33,0,0,1,10,19h.09l.07.11-.11,0,0,0,.07,0h0"/><path class="cy" d="M10,18.83a.74.74,0,0,1,.12.16H10a.33.33,0,0,0,0-.15"/><path class="cz" d="M5,12.63a1,1,0,0,0,.3-.39l0-.07,0-.07h0s0,0,0,0a.64.64,0,0,1,0,.2c0,.05,0,.12,0,.2a2.69,2.69,0,0,0-.06.69,2.58,2.58,0,0,0,.15.68v0a1.73,1.73,0,0,1-.17-.84,6.63,6.63,0,0,1,.09-.87l0,0v0h0v0a1.88,1.88,0,0,1-.25.37.68.68,0,0,1-.36.24.76.76,0,0,0-.13.18,1.94,1.94,0,0,1-.14.18l0-.08a.66.66,0,0,0-.14.18l-.08.22-.06-.08a.53.53,0,0,0-.09.2.28.28,0,0,0,0,.13s0,.07,0,.14H3.93a.44.44,0,0,0-.08.23s0,.14,0,.25l-.07,0a0,0,0,0,0,0,0,.91.91,0,0,0,0,.38c0,.08,0,.2.08.37H3.68a.75.75,0,0,0,0,.2,2.05,2.05,0,0,0,.08.19.16.16,0,0,1,0,.13.75.75,0,0,0,.07.12h0v0c0,.16-.07.26-.17.29v.11s0,.07,0,.09a.08.08,0,0,1-.09,0l-.09-.06h.16v-.08a.2.2,0,0,0,0-.07A.22.22,0,0,1,3.75,16a.09.09,0,0,0,.07-.09.12.12,0,0,0,0-.1l0-.09a.25.25,0,0,1,0-.08.1.1,0,0,1,0-.09c0-.15-.09-.24-.09-.25a.38.38,0,0,1,0-.26,2.43,2.43,0,0,1-.05-.28,1,1,0,0,1,0-.3.25.25,0,0,1,0-.13.08.08,0,0,1,.12,0,1.7,1.7,0,0,1,0-.28A.26.26,0,0,1,4,13.78a1.1,1.1,0,0,1,.15-.44,0,0,0,0,1,0,0l0,.05.1-.22A.5.5,0,0,1,4.45,13l0,.07.13-.19a.6.6,0,0,1,.16-.16A.21.21,0,0,0,5,12.63"/><path class="da" d="M5.19,13.67l0-.05,0,0a.11.11,0,0,0,0-.08.13.13,0,0,0-.08,0,.18.18,0,0,1,0-.11.35.35,0,0,1,0-.12.43.43,0,0,1,0-.12.76.76,0,0,1,0-.26.62.62,0,0,1,.08-.24l.07,0,.06-.18a.43.43,0,0,0,0-.19v0l0,0a6.63,6.63,0,0,0-.09.87,1.73,1.73,0,0,0,.17.84v0a.52.52,0,0,1,0,.11.45.45,0,0,1-.07-.07h0a.31.31,0,0,0-.07-.14.27.27,0,0,0-.12-.09l0,0"/><path class="db" d="M5.06,13.36a.74.74,0,0,1-.12.16l-.14.15a.3.3,0,0,0-.06.11c0,.06,0,.15,0,.27s0,.2-.06.28a.67.67,0,0,0-.07-.17A1.42,1.42,0,0,1,4.5,14a1,1,0,0,0,0-.22.35.35,0,0,0-.06.26s0,.07,0,.14v0h0a.18.18,0,0,1,0,.06v0h0s0,.08,0,.14a.19.19,0,0,0,.07.13l0,.05a.36.36,0,0,1-.13-.05.28.28,0,0,0-.12,0l0,0,.12,0v0l-.1,0a.2.2,0,0,0,0-.14l0,.07-.06,0a1.09,1.09,0,0,1,0-.17l.1-.07a.15.15,0,0,0-.08-.08c-.06,0-.09-.05-.1-.08l.12,0a.1.1,0,0,1,0,0,.08.08,0,0,1,0-.07h0l.07-.09a.2.2,0,0,0,0-.09l-.12.06v0l0,0-.06.1v-.17a.53.53,0,0,1,.09-.2l.06.08.08-.22A.66.66,0,0,1,4.43,13l0,.08a1.94,1.94,0,0,0,.14-.18.76.76,0,0,1,.13-.18.68.68,0,0,0,.36-.24,1.88,1.88,0,0,0,.25-.37v.12l0,.18a.36.36,0,0,1-.1.15.41.41,0,0,0-.1.26.62.62,0,0,0,0,.15.52.52,0,0,1,0,.14.16.16,0,0,0,0,.1.87.87,0,0,0,0,.11m-.28.21a.27.27,0,0,0,.09-.15,1.52,1.52,0,0,1,0-.19.47.47,0,0,0-.06.17A1.44,1.44,0,0,1,4.78,13.57Z"/><path class="dc" d="M5.09,13.36l0-.11a.38.38,0,0,1,0-.1.52.52,0,0,0,0-.14.62.62,0,0,1,0-.15.41.41,0,0,1,.1-.26.36.36,0,0,0,.1-.15l0-.18a.43.43,0,0,1,0,.19l-.06.18-.07,0a.62.62,0,0,0-.08.24.76.76,0,0,0,0,.26.43.43,0,0,0,0,.12.35.35,0,0,0,0,.12"/><path class="dd" d="M5.25,12.24a1,1,0,0,1-.3.39.78.78,0,0,1,.12-.22.48.48,0,0,1,.18-.17"/><path class="de" d="M5.18,14.12a.86.86,0,0,0,.07-.1L5,14.2,5,14.25l-.06,0s0,0,0,.05l0,.05a.26.26,0,0,1-.11.08.17.17,0,0,1,0-.12l.09-.09.08-.09a.17.17,0,0,0,0-.12,1.07,1.07,0,0,1,0-.18.75.75,0,0,0,0-.17l-.11-.07L5,13.51a.34.34,0,0,0,.07-.15.87.87,0,0,1,0-.11.16.16,0,0,1,0-.1.38.38,0,0,0,0,.1l0,.11a.18.18,0,0,0,0,.11.1.1,0,0,1,0,.09.34.34,0,0,1,0,.11l0,0,.09.12.1.11h0a.78.78,0,0,1,.05.18s0,.09,0,.17a.48.48,0,0,1,0,.24,1.25,1.25,0,0,1-.08.22h.09a1.36,1.36,0,0,1-.22.47l.05,0-.06.11a.34.34,0,0,0-.06.12l.08-.07v.15a.4.4,0,0,1-.28,0,1.24,1.24,0,0,1-.24-.16.79.79,0,0,1,.13-.14l.13-.13a.76.76,0,0,0,.2-.32.3.3,0,0,0-.16,0,.41.41,0,0,0-.14.08h0L4.82,15a.5.5,0,0,1-.13.1h0a.48.48,0,0,1,.11-.15l.13-.15L5,14.7a.33.33,0,0,0,.12-.11,1.29,1.29,0,0,0,.14-.31l-.06-.06v-.07l-.07,0"/><path class="df" d="M5.14,13.47a.13.13,0,0,1,.08,0,.11.11,0,0,1,0,.08l0,0,0,.05a.34.34,0,0,0,0-.11.1.1,0,0,0,0-.09"/><path class="dg" d="M4.58,14.64a1.11,1.11,0,0,0,0,.23.41.41,0,0,0,0,.31h0l0,.08,0,.13a1,1,0,0,1,0,.14h0a1.1,1.1,0,0,0,0-.3A.5.5,0,0,0,4.38,15a1,1,0,0,1-.1-.24,1.08,1.08,0,0,0-.1-.23.27.27,0,0,0-.08.16.29.29,0,0,0,0,.18l0,.1a.13.13,0,0,1,0,.1v0a.83.83,0,0,0,0,.12.24.24,0,0,1,0,.12L4,15.16l-.07.07a.09.09,0,0,0,0,.09.09.09,0,0,1,0,.08l0,.06a2.05,2.05,0,0,1-.08-.19.75.75,0,0,1,0-.2h.06c0-.17-.07-.29-.08-.37a.91.91,0,0,1,0-.38,0,0,0,0,1,0,0l.07,0c0-.11,0-.2,0-.25a.44.44,0,0,1,.08-.23H4c0-.07,0-.11,0-.14a.28.28,0,0,1,0-.13v.17l.06-.1,0,0v0l.12-.06a.2.2,0,0,1,0,.09l-.07.09h0a.08.08,0,0,0,0,.07.1.1,0,0,0,0,0l-.12,0s0,0,.1.08a.15.15,0,0,1,.08.08l-.1.07a1.09,1.09,0,0,0,0,.17l.06,0,0-.07a.2.2,0,0,1,0,.14l.1,0v0l-.12,0,0,0a.28.28,0,0,1,.12,0,.36.36,0,0,0,.13.05l0-.05h.06l0,0,0,.09"/><path class="dh" d="M4.38,15l-.09,0a.29.29,0,0,1,0,.13L4.2,15a.13.13,0,0,0,0-.1l0-.1a.29.29,0,0,1,0-.18.27.27,0,0,1,.08-.16,1.08,1.08,0,0,1,.1.23,1,1,0,0,0,.1.24"/><path class="di" d="M3.93,15.62H3.88a.34.34,0,0,0,0,.09h0a.75.75,0,0,1-.07-.12.16.16,0,0,0,0-.13l0-.06a.09.09,0,0,0,0-.08.09.09,0,0,1,0-.09L4,15.16l.15.13a.24.24,0,0,0,0-.12.83.83,0,0,1,0-.12s0,.08,0,.15a.14.14,0,0,1-.08.12.22.22,0,0,0-.13.12.32.32,0,0,0,0,.17h0"/><path class="dj" d="M4.5,15.54a2.07,2.07,0,0,0,.07.41l-.08,0,0,0a.44.44,0,0,0,.07.2l0,0,0,.08a.19.19,0,0,1-.11-.07,1.18,1.18,0,0,1-.08-.12A.35.35,0,0,0,4.25,16a.19.19,0,0,0-.13-.05,1.26,1.26,0,0,0-.07-.16.87.87,0,0,0-.12-.14H4a.32.32,0,0,1,0-.17.22.22,0,0,1,.13-.12.14.14,0,0,0,.08-.12c0-.07,0-.12,0-.15v0l.1.09a.29.29,0,0,0,0-.13l.09,0a.5.5,0,0,1,.11.28,1.1,1.1,0,0,1,0,.3h0"/><path class="dk" d="M5.43,13.94A.45.45,0,0,0,5.5,14a.24.24,0,0,1,0,.15.51.51,0,0,0,0,.16.5.5,0,0,1,0,.23.31.31,0,0,0,0,.22,1,1,0,0,1-.08.25.83.83,0,0,0-.08.24.41.41,0,0,1,0,.08l0,.08-.08.07a.34.34,0,0,1,.06-.12l.06-.11-.05,0a1.36,1.36,0,0,0,.22-.47H5.44a1.25,1.25,0,0,0,.08-.22.48.48,0,0,0,0-.24c0-.08,0-.14,0-.17a.78.78,0,0,0-.05-.18"/><path class="dl" d="M4.69,15.09l-.12.09a.41.41,0,0,1,0-.31.22.22,0,0,0,0-.23l0-.09,0,0a.61.61,0,0,0,.09-.23,1.59,1.59,0,0,1,0-.24,1.06,1.06,0,0,1,0-.14.57.57,0,0,0,0-.14.3.3,0,0,1,.06-.11l.08,0L5,13.7a.75.75,0,0,1,0,.17,1.07,1.07,0,0,0,0,.18.17.17,0,0,1,0,.12l-.08.09-.09.09a.17.17,0,0,0,0,.12.26.26,0,0,0,.11-.08v0a.35.35,0,0,0,.07-.12h0l.06,0L5,14.2a.3.3,0,0,0,.17-.08l.07,0v.07l.06.06a1.29,1.29,0,0,1-.14.31A.33.33,0,0,1,5,14.7l-.14.09-.13.15a.48.48,0,0,0-.11.15h0m0-.53a.27.27,0,0,0,.07-.08l-.1,0-.07.09Z"/><path class="dm" d="M4.58,14.53a.84.84,0,0,1,0-.2c0-.08,0-.17.06-.28s0-.21,0-.27a.57.57,0,0,1,0,.14,1.06,1.06,0,0,0,0,.14,1.59,1.59,0,0,0,0,.24.61.61,0,0,1-.09.23"/><path class="dn" d="M4.56,14.16l-.12,0a.4.4,0,0,0,0,.11h0v0a.18.18,0,0,0,0-.06h0v0c0-.07,0-.12,0-.14a.35.35,0,0,1,.06-.26,1,1,0,0,1,0,.22,1.42,1.42,0,0,0,.06.21"/><path class="do" d="M4.58,14.53H4.52a.19.19,0,0,1-.07-.13c0-.06,0-.11,0-.14h0a.4.4,0,0,1,0-.11l.12,0a.67.67,0,0,1,.07.17.84.84,0,0,0,0,.2"/><path class="dp" d="M4.8,15.37a1.13,1.13,0,0,0-.07-.15.82.82,0,0,0,0,.38.43.43,0,0,0,.22.3L4.87,16a.31.31,0,0,0-.13.23.88.88,0,0,1-.18-.44c0-.1,0-.26,0-.48l0-.08a1.42,1.42,0,0,0,.22-.13A.75.75,0,0,0,5,14.87a.41.41,0,0,1,.14-.08.3.3,0,0,1,.16,0,.76.76,0,0,1-.2.32l-.13.13a.79.79,0,0,0-.13.14"/><path class="dq" d="M6.2,16.35a.32.32,0,0,1-.2-.08.44.44,0,0,1-.14-.17.19.19,0,0,0,0-.09L5.76,16l-.08,0L5.6,16a.13.13,0,0,1-.07-.11.19.19,0,0,0,0-.11s0,0,0-.06l0-.07a.12.12,0,0,0-.12-.06H5.12a.51.51,0,0,1-.18-.08l-.21-.2a1.62,1.62,0,0,1,0,.18.43.43,0,0,0,.12.28.57.57,0,0,0,.23.15.92.92,0,0,1,0,.09s0,.06,0,.07a.61.61,0,0,1,.24.21l.08,0h.09a.27.27,0,0,1,.11.09c0,.05.09.08.13.08l.09,0v0H5.79l-.06,0h-.2l-.19,0a1.16,1.16,0,0,1-.45-.12l-.09-.08h0v0a.82.82,0,0,0,.42.19,2.24,2.24,0,0,0,.47,0s0,0-.08-.09l-.09-.08a.17.17,0,0,0-.1,0l-.1,0-.11-.12a.55.55,0,0,0-.14-.09s-.06-.08,0-.16L5,15.92l-.1,0h0l.06-.06a.43.43,0,0,1-.22-.3.82.82,0,0,1,0-.38,1.13,1.13,0,0,1,.07.15,1.24,1.24,0,0,0,.24.16.4.4,0,0,0,.28,0s.08,0,.12.09a.33.33,0,0,0,.1.12.53.53,0,0,1,0,.11.08.08,0,0,0,.08.07.15.15,0,0,1,.13,0,.12.12,0,0,1,.1.09l0,.11a.2.2,0,0,0,.08.08l.2.14"/><path class="dr" d="M5.28,15.6a.2.2,0,0,1,0,.14s0,0-.07.11,0,.08-.08.09a.57.57,0,0,1-.23-.15l.09,0,.09,0c.07,0,.1-.07.08-.14h.16"/><path class="ds" d="M5.86,16.1v.07h0a.17.17,0,0,0-.22,0l.09.12a.22.22,0,0,1,0,.14s-.08,0-.13-.08a.27.27,0,0,0-.11-.09H5.42l-.08,0a.61.61,0,0,0-.24-.21s0,0,0-.07a.92.92,0,0,0,0-.09s0,0,.08-.09,0-.1.07-.11a.2.2,0,0,0,0-.14.12.12,0,0,1,.12.06l0,.07s0,0,0,.06a.19.19,0,0,1,0,.11A.13.13,0,0,0,5.6,16l.08,0,.08,0,.06.06a.19.19,0,0,1,0,.09"/><path class="dt" d="M5.12,15.61c0,.07,0,.11-.08.14l-.09,0-.09,0a.43.43,0,0,1-.12-.28l.08,0,0,.1.08-.06a.51.51,0,0,0,.18.08"/><path class="du" d="M4.94,15.53l-.08.06,0-.1-.08,0a1.62,1.62,0,0,0,0-.18l.21.2"/><path class="dv" d="M4.57,16a2.07,2.07,0,0,1-.07-.41,1,1,0,0,0,0-.14l0-.13c0,.22,0,.38,0,.48a.88.88,0,0,0,.18.44A.31.31,0,0,1,4.87,16h0a.38.38,0,0,0-.09.16.23.23,0,0,0,0,.18h0a1,1,0,0,1-.14-.17,1.13,1.13,0,0,1-.09-.2"/><path class="dw" d="M4.57,16a1.13,1.13,0,0,0,.09.2,1,1,0,0,0,.14.17l.09.08v.09a1.09,1.09,0,0,0-.17-.13l-.2-.09,0-.08,0,0a.21.21,0,0,0,.06.1.27.27,0,0,0,.1.06.84.84,0,0,1-.13-.17c0-.09-.08-.15-.1-.19l0,0,.08,0"/><path class="dx" d="M4.81,16.29h0a.23.23,0,0,1,0-.18A.38.38,0,0,1,4.89,16l.1,0a.77.77,0,0,0-.12.17.41.41,0,0,0-.06.2"/><path class="dy" d="M4.66,17.09l0,0-.11,0,0,.05a.65.65,0,0,0,.07-.29,1.33,1.33,0,0,0,0-.3l0,0h0c0-.15,0-.24,0-.25A.57.57,0,0,0,4.24,16s0,0-.1,0a.13.13,0,0,1-.08-.06L4,15.79l-.09-.11,0,.06v0a.34.34,0,0,1,0-.09h.05a.87.87,0,0,1,.12.14,1.26,1.26,0,0,1,.07.16.19.19,0,0,1,.13.05.35.35,0,0,1,.08.11,1.18,1.18,0,0,0,.08.12.19.19,0,0,0,.11.07l.2.09a1.09,1.09,0,0,1,.17.13l.08,0,.09,0H5a1.7,1.7,0,0,1-.3-.17,1,1,0,0,0-.3-.15.29.29,0,0,0,0,.14.18.18,0,0,0,.08.11.53.53,0,0,1,.05.2c0,.05,0,.13,0,.22l.12-.12a.4.4,0,0,1,.13-.11L5,16.66l.11-.05.12,0a.74.74,0,0,0,.21,0l0,.05H5.32a.38.38,0,0,1-.09.09l-.11.06L5,16.87l0,0,.09-.06.12-.06a.41.41,0,0,0,.11-.07H5.19a1.09,1.09,0,0,0-.29.14l-.26.18a.1.1,0,0,0,0,0,.16.16,0,0,0,0,.06l.09,0"/><path class="dz" d="M4.53,16.15a.44.44,0,0,1-.07-.2s.06.1.1.19a.84.84,0,0,0,.13.17.27.27,0,0,1-.1-.06.21.21,0,0,1-.06-.1"/><path class="ea" d="M4.46,17.49h0a.2.2,0,0,0-.06-.14l-.05.07-.07,0,.1-.05,0-.09.07-.05c0-.13,0-.25,0-.37s0-.08,0-.14a.53.53,0,0,1,0-.13l.09-.06h0l0,0a1.33,1.33,0,0,1,0,.3.65.65,0,0,1-.07.29l.06,0s0,0,0,.05l-.06.14a.34.34,0,0,0,0,.14"/><path class="eb" d="M5,16.59h0l-.09,0-.08,0V16.4a1.16,1.16,0,0,0,.45.12l.06,0a.74.74,0,0,0-.22.05l-.12,0,0,0"/><path class="ec" d="M5,16.87l-.23.23a1,1,0,0,0-.19.26s0,0,0,0h0l0,0-.08,0h.13l-.11,0H4.46a.34.34,0,0,1,0-.14l.06-.14s0,0,0-.05l-.06,0,0-.05.11,0a.68.68,0,0,0,0,.13,1,1,0,0,0,.14-.15l.13-.17-.2.16-.09,0a.16.16,0,0,1,0-.06.1.1,0,0,1,0,0l.26-.18a1.09,1.09,0,0,1,.29-.14h.09a.41.41,0,0,1-.11.07l-.12.06L5,16.83l0,0"/><path class="ed" d="M5.73,16.54v.06l.08,0h0a.28.28,0,0,0-.12,0l-.12.07.06-.1-.1,0-.13,0,0,.09-.16.07-.16.09,0-.05.11-.06a.38.38,0,0,0,.09-.09h.09l0-.05a.74.74,0,0,1-.21,0,.74.74,0,0,1,.22-.05l-.06,0,.19,0h.2"/><path class="ee" d="M4.7,17.34a.84.84,0,0,1,.2-.27L5,17l.12-.12.16-.09.16-.07,0-.09.13,0a.16.16,0,0,0,0,.08s0,.05,0,.06l-.17.2-.13.23.16-.11.18-.15a1.5,1.5,0,0,0,.14-.18l-.16.12L5.45,17v0a1.08,1.08,0,0,0,.2-.19.25.25,0,0,1,.23-.08l-.1.11,0,.06a.14.14,0,0,0,0,.11.15.15,0,0,0,0,.11l-.06,0a1.05,1.05,0,0,1,0-.13.19.19,0,0,1,0-.13v0L5.61,17a.75.75,0,0,0-.12.14h0a.17.17,0,0,0,0,.12v.07s0,.05,0,.06v0a.22.22,0,0,1,0-.21.3.3,0,0,0-.15.09.18.18,0,0,0-.09,0l-.06.08a.73.73,0,0,1,.11-.25l.15-.24a.28.28,0,0,0-.17.14.58.58,0,0,1-.16.16A.51.51,0,0,1,5.18,17l.1-.12,0,0a1,1,0,0,0-.16.18l-.14.18v0l.1-.14a.77.77,0,0,0,.1-.15,1.31,1.31,0,0,0-.23.2l-.19.22"/><path class="ef" d="M5.84,16.64l0,0v.06h0a.25.25,0,0,0-.23.08,1.08,1.08,0,0,1-.2.19v0a.54.54,0,0,0,0,.08l-.16.11L5.41,17l.17-.2s0,0,0-.06a.16.16,0,0,1,0-.08l.1,0-.06.1.12-.07a.28.28,0,0,1,.12,0h0"/><path class="eg" d="M3.26,16.16l-.08,0a.16.16,0,0,1,.06-.08.28.28,0,0,1,.08-.06l-.12,0a.33.33,0,0,0,0-.12.44.44,0,0,1,.11.12,1.11,1.11,0,0,0,.11.11A.58.58,0,0,0,3.36,16a.16.16,0,0,1,.09.08c0,.05.06.08.08.09h0l.09.06a.08.08,0,0,0,.09,0s0-.05,0-.09V16c.1,0,.16-.13.17-.29l0-.06.09.11.06.14a.13.13,0,0,0,.08.06c.06,0,.09,0,.1,0a.25.25,0,0,0,0,.19.22.22,0,0,1-.13-.12L4,16.05l-.09.07a.23.23,0,0,0-.07.07.79.79,0,0,0,0,.22.66.66,0,0,1,0,.23s0,0,0,.05l0,0,0,0h0l0,0v-.06a.28.28,0,0,1,0-.11.35.35,0,0,1,0-.12.35.35,0,0,0-.12-.19.56.56,0,0,0-.08.23.31.31,0,0,1-.12-.19.53.53,0,0,0-.09-.21l-.07,0"/><path class="eh" d="M3.18,16.19a.2.2,0,0,1-.07.1L3,16.36a.33.33,0,0,0,0,.14.7.7,0,0,1,0,.14l0,.05-.07-.19a.33.33,0,0,1,0-.19.1.1,0,0,0,.14-.14l-.11.08a.61.61,0,0,1,0-.14A.13.13,0,0,1,3,16l0,0,.08-.13.09.05a.33.33,0,0,1,0,.12l.12,0a.28.28,0,0,0-.08.06.16.16,0,0,0-.06.08"/><path class="ei" d="M3.25,16l-.09-.05L3.08,16l0,0-.17-.17,0,.08a.1.1,0,0,1-.07.06.77.77,0,0,1-.09-.28,1.11,1.11,0,0,0-.09-.29l-.06,0c0-.09-.1-.15-.13-.2a.69.69,0,0,0-.17-.17v.1A.66.66,0,0,0,2,15a.86.86,0,0,0-.24-.11l0,.11-.19-.15a.61.61,0,0,0-.23-.09,1.11,1.11,0,0,1,.16.24.53.53,0,0,1,0,.28.35.35,0,0,0,0,.18l.12.14a.68.68,0,0,1,0,.17.21.21,0,0,1-.05.16.29.29,0,0,0,0,.19,1.88,1.88,0,0,0,.05.2.2.2,0,0,0,0,.08l.07.08a.21.21,0,0,1,.06.17l-.07-.1-.08-.1a.81.81,0,0,1-.1-.3.34.34,0,0,1,.07-.3.23.23,0,0,0,0-.16.75.75,0,0,0-.08-.14,1,1,0,0,1-.09-.14.22.22,0,0,1,0-.16A.48.48,0,0,0,1.5,15a2.24,2.24,0,0,1-.17-.25.7.7,0,0,1,.39.17.33.33,0,0,1,.25,0,.94.94,0,0,1,.2.16l0-.05a.93.93,0,0,1,.31.37s.07,0,.1,0a.87.87,0,0,1,0,.12,1.82,1.82,0,0,1,.05.2.47.47,0,0,0,.06.2.43.43,0,0,0,0-.07l0-.07A.27.27,0,0,1,3,15.9l.1.09s0,0,.05-.07a.09.09,0,0,1,.07,0,.59.59,0,0,1,.17.13.58.58,0,0,1,.11.18,1.11,1.11,0,0,1-.11-.11A.44.44,0,0,0,3.25,16"/><path class="ej" d="M3.16,16.82a.85.85,0,0,0-.09-.14v0a.7.7,0,0,0,0-.14.33.33,0,0,1,0-.14l.09-.07a.2.2,0,0,0,.07-.1l.08,0s0,.05,0,.09,0,.05,0,.1v-.1l0,0v.08L3,16.37l.05,0a.07.07,0,0,0,.06,0v.07h0a.76.76,0,0,0,.08-.11.76.76,0,0,1,.08.11l-.06,0a.25.25,0,0,0,.17,0l0,.05a.76.76,0,0,0,0,.11l0,0v.05l0,0-.06-.1v.07a.23.23,0,0,1,0,.07l-.07,0-.08,0"/><path class="ek" d="M3.94,17a.15.15,0,0,1-.08.14l-.08,0-.09,0-.08,0s-.06,0-.08,0a.48.48,0,0,1-.37-.26l.08,0,.07,0a.23.23,0,0,0,0-.07v-.07l.06.1,0,0v-.05l0,0a.76.76,0,0,1,0-.11l0-.05a.25.25,0,0,1-.17,0l.06,0a.76.76,0,0,0-.08-.11.76.76,0,0,1-.08.11h0v-.07a.07.07,0,0,1-.06,0l-.05,0,.17-.07v-.08l0,0v.1c0-.05,0-.08,0-.1s0-.07,0-.09l.07,0a.53.53,0,0,1,.09.21.31.31,0,0,0,.12.19.56.56,0,0,1,.08-.23.35.35,0,0,1,.12.19.35.35,0,0,0,0,.12.28.28,0,0,0,0,.11.62.62,0,0,0,0,.16c0,.07,0,.1.11.1"/><path class="el" d="M4.06,17.27,4,17.19l-.11-.06A.15.15,0,0,0,3.94,17a.45.45,0,0,1,.11-.2A.75.75,0,0,1,4,17c0,.12,0,.19,0,.19a.5.5,0,0,0,.09-.25.67.67,0,0,0,0-.28l0,0L4,16.58H4a.1.1,0,0,1,0-.1l0-.13s0,0,0-.05h.07l0-.07a.84.84,0,0,1,.18.35.53.53,0,0,0,0,.13c0,.06,0,.11,0,.14l0,.05,0,0-.07.1,0,0,0-.06H4.23a.3.3,0,0,0-.09.18.25.25,0,0,1-.08.18"/><path class="em" d="M4.24,16a.57.57,0,0,1,.12.22s0,.1,0,.25l-.09.06a.84.84,0,0,0-.18-.35l0,.07H4s0,0,0,.05l0,.13a.1.1,0,0,0,0,.1H4l.05.11s0,.06,0,.1a.45.45,0,0,0-.11.2c-.06,0-.09,0-.11-.1a.62.62,0,0,1,0-.16v.06l0,0h0l0,0,0,0s0,0,0-.05a.66.66,0,0,0,0-.23.79.79,0,0,1,0-.22.23.23,0,0,1,.07-.07L4,16.05l.08.05a.22.22,0,0,0,.13.12.25.25,0,0,1,0-.19"/><path class="en" d="M4,16.69l0,0a.67.67,0,0,1,0,.28.5.5,0,0,1-.09.25s0-.07,0-.19a.75.75,0,0,0,0-.2s0-.07,0-.1"/><path class="eo" d="M4.39,16.83c0,.12,0,.24,0,.37l-.07.05,0,.09-.1.05,0,0a.46.46,0,0,1-.07-.07l-.07-.07a.25.25,0,0,0,.08-.18.3.3,0,0,1,.09-.18h.06l0,.06,0,0,.07-.1,0,0,0-.05"/><path class="ep" d="M3.64,17.12l0,0,.09,0,.08,0,.11.06.09.08.07.07a.46.46,0,0,0,.07.07l.12.08.12.07a.3.3,0,0,1-.14,0,.7.7,0,0,1-.14-.08l-.09-.11a.47.47,0,0,0-.11-.1.49.49,0,0,0-.16-.06l-.16,0"/><path class="eq" d="M3.64,17.12l.16,0a.49.49,0,0,1,.16.06.47.47,0,0,1,.11.1l.09.11L4,17.4l-.11,0a.09.09,0,0,1-.08-.06.25.25,0,0,0-.07-.09l-.09-.05-.1-.05h.05"/><path class="er" d="M4.74,18.32s0-.1,0-.18a.81.81,0,0,0,0-.19l.07-.18a.68.68,0,0,0,0-.19A.41.41,0,0,1,5,17.47l0,0a.41.41,0,0,0-.17.05l-.17.08h0v.05l0,0v-.07l-.15,0a.24.24,0,0,0-.08.09l-.07.1s-.06.05-.09,0a.27.27,0,0,0,0-.11l.09-.15h0l-.12,0-.11,0a1.3,1.3,0,0,0-.35-.11,1.53,1.53,0,0,0-.38,0,1,1,0,0,1-.34.05H2.71l0-.07-.12,0h0l0-.1a.38.38,0,0,1,.16,0h.16a.76.76,0,0,0,.26,0,1.17,1.17,0,0,0,.24-.09l-.06,0,.09,0,.09,0,0,0s0,0,.08,0l.08,0,0,0H3.59l.1.05.09.05a.25.25,0,0,1,.07.09.09.09,0,0,0,.08.06l.11,0,.12,0a.7.7,0,0,0,.14.08.3.3,0,0,0,.14,0l-.12-.07-.12-.08,0,0,.07,0,.05-.07a.2.2,0,0,1,.06.14h.16l.11,0H4.56l.08,0,0,0h.08a.35.35,0,0,0,.2-.07l.17-.14a1,1,0,0,1-.09.26,1.34,1.34,0,0,0-.09.26,1.11,1.11,0,0,0-.1.28c0,.06,0,.16-.06.29l0,0"/><path class="es" d="M2.51,18.27v-.05l-.12.05a.27.27,0,0,1-.12,0v.08a.13.13,0,0,1-.1,0v.1H2.05a.11.11,0,0,1,0-.08.17.17,0,0,1,.08-.06l0-.09.07,0v0l.14-.15.15-.14a0,0,0,0,1,.05,0l0,0A2.1,2.1,0,0,0,3,17.78l.35-.17.12,0,.1-.07h0l.15,0a.42.42,0,0,0,.16,0h0l.06,0a.2.2,0,0,0,.18,0l.11,0,.12,0-.1.05,0-.05,0,0a1,1,0,0,0-.25,0,.11.11,0,0,0-.07,0l-.07.05h0l0,0v0l-.13.11-.13.12s0-.06,0-.11l-.06,0,.08-.08.08-.08h0a.37.37,0,0,0-.15-.06.16.16,0,0,0-.15,0l-.27.16a1.08,1.08,0,0,0-.25.19l-.06.07a.17.17,0,0,1-.06.06.09.09,0,0,1-.14,0l-.12.16"/><path class="et" d="M2.36,17.28l.21.06.12,0,0,.07h.34a1,1,0,0,0,.34-.05,1.53,1.53,0,0,1,.38,0,1.3,1.3,0,0,1,.35.11.2.2,0,0,1-.18,0l-.06,0h0l.05-.05a1.25,1.25,0,0,0-.36-.05.45.45,0,0,0-.22,0l-.21,0H2.7a0,0,0,0,1,0,0l0,0-.16,0-.16-.06-.13-.07a.12.12,0,0,1-.06-.12c-.13-.16-.21-.24-.21-.25a.64.64,0,0,1-.15-.28h0a.31.31,0,0,1,.1.05h-.1l.18.25a.73.73,0,0,0,.23.21l-.05.07a.86.86,0,0,0,.19.11"/><path class="eu" d="M3.55,17.41a1.25,1.25,0,0,1,.36.05l-.05.05h0a.52.52,0,0,0-.15-.07l-.16,0"/><path class="ev" d="M3.32,17.06,3,17a.44.44,0,0,1-.24-.19l.07.05a.78.78,0,0,0,.38.16l-.09-.13a1.17,1.17,0,0,1-.08-.13v0a.85.85,0,0,1,.09.14.48.48,0,0,0,.37.26l0,0-.09,0-.09,0"/><path class="ew" d="M2.51,16.57v0l-.14-.09a.24.24,0,0,0-.16,0,1.14,1.14,0,0,0-.3-.21,0,0,0,0,0-.07,0l-.06.05a1.88,1.88,0,0,1-.05-.2.29.29,0,0,1,0-.19h.11a.76.76,0,0,1,0,.11.2.2,0,0,0,.13,0,.17.17,0,0,1,.12.06,1.53,1.53,0,0,1,.13.13.11.11,0,0,0,.15,0l0,0A1.48,1.48,0,0,1,2.27,16a.84.84,0,0,0-.14-.22L2,15.64a.14.14,0,0,1,0-.16.15.15,0,0,0,.14-.05.34.34,0,0,0,.06-.15l-.06-.09v-.1a.69.69,0,0,1,.17.17c0,.05.08.11.13.2l.06,0a1.11,1.11,0,0,1,.09.29.77.77,0,0,0,.09.28.1.1,0,0,0,.07-.06l0-.08L3,16a.13.13,0,0,0-.09.09.61.61,0,0,0,0,.14l.11-.08a.1.1,0,0,1-.14.14.33.33,0,0,0,0,.19l.07.19,0-.05v.08a1.17,1.17,0,0,0,.08.13l.09.13a.78.78,0,0,1-.38-.16.12.12,0,0,0,0-.13.9.9,0,0,1,0-.15.25.25,0,0,0,0-.08v-.09a.5.5,0,0,0-.22.14l.1.07-.09.07a.9.9,0,0,1-.18-.29l0,0a.82.82,0,0,0,.09.19"/><path class="ex" d="M2.57,17.34l-.21-.06.06-.1-.08,0-.08-.05h.21A.24.24,0,0,0,2.66,17L2.48,17s0-.05,0-.07a.09.09,0,0,0,0-.06l-.06-.06a1,1,0,0,1,.21-.08h0l.09,0a.19.19,0,0,1,.07.06A.44.44,0,0,0,3,17l.3.1.06,0a1.17,1.17,0,0,1-.24.09.76.76,0,0,1-.26,0H2.72a.38.38,0,0,0-.16,0l0,.1h0"/><path class="ey" d="M3.33,18.14l0-.11.12-.2.06,0c0,.05,0,.09,0,.11L3.44,18a1.11,1.11,0,0,1-.11.11"/><path class="ez" d="M3.5,17.83a12,12,0,0,0-1,1.18,4.39,4.39,0,0,0-.27.5,2.48,2.48,0,0,0-.2.53.28.28,0,0,1,0,.12l-.06.11a.74.74,0,0,1,0-.12.45.45,0,0,0,0-.1,3.74,3.74,0,0,1,.58-1.19,8.52,8.52,0,0,1,.87-1l0,0"/><path class="fa" d="M.21,18.91h0L.1,19l.12,0a.28.28,0,0,1,.13,0,1.18,1.18,0,0,0,.33.12A1.29,1.29,0,0,0,1,19.2L1,19.29a.67.67,0,0,0,.31-.07A1.15,1.15,0,0,0,1.54,19l.07.07A.44.44,0,0,0,1.85,19,.6.6,0,0,0,2,18.78a1,1,0,0,0,.08-.11l0,0h0c0,.07,0,.08.08.05a.31.31,0,0,0,.09-.11,1,1,0,0,0,.11-.15l.07-.16.12-.16a.09.09,0,0,0,.14,0,.17.17,0,0,0,.06-.06L2.89,18a1.08,1.08,0,0,1,.25-.19l.27-.16a.16.16,0,0,1,.15,0,.37.37,0,0,1,.15.06h0a.28.28,0,0,0-.28,0l-.13.08-.13.08a.31.31,0,0,0-.13.09L2.88,18a.38.38,0,0,1-.27.15,1,1,0,0,0-.09.15l-.09.16a.66.66,0,0,1-.25.25.1.1,0,0,0-.12,0L2,18.91a.79.79,0,0,1-.2.17.27.27,0,0,1-.26,0,.67.67,0,0,1-.55.23l0-.07-.31-.07a.83.83,0,0,1-.29-.11A.69.69,0,0,0,.16,19,.27.27,0,0,1,0,18.92a.47.47,0,0,1,.2,0"/><path class="fb" d="M1.94,20.27,2,20.16a.28.28,0,0,0,0-.12,2.48,2.48,0,0,1,.2-.53,4.39,4.39,0,0,1,.27-.5,12,12,0,0,1,1-1.18l-.12.2,0,.11-.22.24a3.11,3.11,0,0,0-.2.25.64.64,0,0,1-.12.14.38.38,0,0,0-.11.14l-.18.29a1.24,1.24,0,0,0-.16.29l-.15.35a1.45,1.45,0,0,0-.13.36.47.47,0,0,1-.08.19l-.05-.08v0"/><path class="fc" d="M2.11,20.22a.25.25,0,0,0,0,.13c0,.06,0,.1-.07.1s0,0-.05,0,0,0-.05-.06l0-.06.05.08a.47.47,0,0,0,.08-.19,1.45,1.45,0,0,1,.13-.36l.15-.35a1.24,1.24,0,0,1,.16-.29l.18-.29a.38.38,0,0,1,.11-.14.64.64,0,0,0,.12-.14,3.11,3.11,0,0,1,.2-.25l.22-.24A1.11,1.11,0,0,0,3.44,18l.11-.11.13-.12.13-.11v0a5.73,5.73,0,0,0-.56.55c-.14.15-.3.35-.5.6a1.91,1.91,0,0,0-.19.28l-.17.28a3,3,0,0,0-.14.33l-.13.33,0,.06a.06.06,0,0,0,0,.06h0"/><path class="fd" d="M.92,18.87l-.11,0H.69l.09-.05a.3.3,0,0,0-.13,0,.24.24,0,0,0-.11.06l0-.07a.34.34,0,0,0-.17.05H.21l.32-.08a.85.85,0,0,0,.3-.12,4.73,4.73,0,0,0,.79-.56l.24-.2a1.28,1.28,0,0,1,.27-.16,1,1,0,0,1,.48-.1h.25l.25,0a1,1,0,0,1,.21-.07l.23-.07-.1.07-.12,0L3,17.78a2.1,2.1,0,0,1-.35.17l0,0a0,0,0,0,0-.05,0l-.15.14-.14.15-.12,0a.2.2,0,0,0-.1.07,1,1,0,0,1-.24.23.37.37,0,0,1-.31.07l-.21.13a.31.31,0,0,1-.24,0,.06.06,0,0,0-.07,0,.11.11,0,0,0,0,.07m.57-.55a1.64,1.64,0,0,0-.22.15L1,18.62l-.25.16a.4.4,0,0,0,.15,0l.15-.06a.06.06,0,0,0,0,0,0,0,0,0,0,.06,0,.4.4,0,0,0,.16-.08l.15-.11h0l.07-.05v.06a.19.19,0,0,0,.17,0A1.59,1.59,0,0,0,2,18.34l.19-.21v.07a1.05,1.05,0,0,0,.2-.16.65.65,0,0,1,.19-.17s.08,0,.12,0A.9.9,0,0,0,3,17.71H2.68l-.33,0a.32.32,0,0,0-.21.1A.78.78,0,0,0,2,18a.1.1,0,0,1,0-.1.3.3,0,0,1,.06-.09.85.85,0,0,0-.22.13.78.78,0,0,0-.16.2.54.54,0,0,0-.07.12.35.35,0,0,1-.09.11.9.9,0,0,1,.07-.14.42.42,0,0,0,.07-.13.41.41,0,0,0-.1.09Z"/><path class="fe" d="M4.53,17.94l-.09.23c0,.09-.07.17-.09.23l0,0V18.3H4.25a.39.39,0,0,0-.1.14.69.69,0,0,1-.09.15.38.38,0,0,1,0-.1l.07-.14.07-.14.07-.12A.54.54,0,0,1,4.33,18a.15.15,0,0,0-.11.07.43.43,0,0,1-.1.1,1.18,1.18,0,0,1-.13.32.85.85,0,0,0-.13.32l-.06.15a.53.53,0,0,1-.08.15.39.39,0,0,1,0-.21.92.92,0,0,1,.1-.2l.2-.43c.08-.16.16-.29.23-.41s.06,0,.09,0a.13.13,0,0,0,0,.1v0a.38.38,0,0,0,.18,0"/><path class="ff" d="M3.72,19.08l-.06,0V19a6.78,6.78,0,0,1,.45-1H4.05a.3.3,0,0,0,.15-.13,1.15,1.15,0,0,1,.1-.18.27.27,0,0,1,0,.11c-.07.12-.15.25-.23.41l-.2.43a.92.92,0,0,0-.1.2.39.39,0,0,0,0,.21"/><path class="fg" d="M4.22,17.59l-.13.05H3.94l0-.06a1,1,0,0,1,.25,0"/><path class="fh" d="M2.86,19.71l-.14.12L2.61,20l0,.08-.06.07a.85.85,0,0,1,.19-.32.66.66,0,0,1,.3-.2.34.34,0,0,0,0-.11v-.11l0-.07,0-.06c0-.06,0-.11,0-.14a1.35,1.35,0,0,1,.18-.47.17.17,0,0,1,.09-.07.25.25,0,0,0,.09-.07s0-.05.08-.09l.08-.1a.35.35,0,0,1,.2-.17l.12,0L4,18a.11.11,0,0,1,0,.08s0,0-.07,0a.36.36,0,0,0-.19.08,1.08,1.08,0,0,0-.14.15l-.13.16a.42.42,0,0,1-.17.1,1,1,0,0,0-.2.48h.08a.64.64,0,0,1-.06.16s0,.08-.08.14a.08.08,0,0,1,0,.09l0,.11a1.19,1.19,0,0,1,.24,0,.68.68,0,0,1-.21.06.37.37,0,0,0-.2.08"/><path class="fi" d="M3.67,19l0,0v-.12a.21.21,0,0,0-.08.1l0,.12H3.41a.16.16,0,0,0-.08.06h.11l-.12.05,0,0a.1.1,0,0,0,0-.11l-.06,0,0-.05H3.1a1,1,0,0,1,.2-.48.42.42,0,0,0,.17-.1l.13-.16a1.08,1.08,0,0,1,.14-.15.36.36,0,0,1,.19-.08s0,0,.07,0A.11.11,0,0,0,4,18h.1a6.78,6.78,0,0,0-.45,1"/><path class="fj" d="M4.19,18.21l0,0c0,.06-.09.16-.15.3l-.16.3A.85.85,0,0,1,4,18.46a1.18,1.18,0,0,0,.13-.32.43.43,0,0,0,.1-.1A.15.15,0,0,1,4.33,18a.54.54,0,0,0-.07.12l-.07.12"/><path class="fk" d="M4.35,18.4a2,2,0,0,0-.08.21c0,.09-.06.16-.08.21a.46.46,0,0,0-.18.06.35.35,0,0,1-.17.06A1.81,1.81,0,0,0,4,18.72a.84.84,0,0,0,.09-.23.38.38,0,0,0,0,.1.69.69,0,0,0,.09-.15.39.39,0,0,1,.1-.14h.09v.07l0,0"/><path class="fl" d="M3.81,19a.74.74,0,0,0-.17.18,1.3,1.3,0,0,0-.12.21.5.5,0,0,0-.09.24l0,0a.64.64,0,0,1,0-.09s0-.12.11-.26l.1-.25,0,0v.11l.06,0a.53.53,0,0,0,.08-.15l.06-.15.16-.3c.06-.14.12-.24.15-.3l0,0-.07.14-.07.14a.84.84,0,0,1-.09.23,1.81,1.81,0,0,1-.12.22A.35.35,0,0,0,4,18.88a.46.46,0,0,1,.18-.06c0-.05,0-.12.08-.21a2,2,0,0,1,.08-.21c0-.06.05-.14.09-.23l.09-.23,0-.05a.2.2,0,0,1,0,.1l0,.09q-.18.41-.3.75a.11.11,0,0,0,.08,0,.09.09,0,0,0,0-.06c.06-.19.11-.33.14-.42a1.74,1.74,0,0,1,.18-.41.34.34,0,0,1,0,.11l0,.11a.76.76,0,0,0,0,.11l-.09.28-.1.28a.67.67,0,0,1,.25.13v-.09h0a.26.26,0,0,0,.06-.15c0-.09,0-.14,0-.16a0,0,0,0,1,0,0,.74.74,0,0,1,0,.12.69.69,0,0,0,0,.13v.08s0,.06-.05.07l-.15-.09a.49.49,0,0,0-.34,0,.83.83,0,0,0-.3.17"/><path class="fm" d="M5.45,17l.15-.13.16-.12a1.5,1.5,0,0,1-.14.18l-.18.15a.54.54,0,0,1,0-.08"/><path class="fn" d="M4.7,17.34l0,.06h0s0,0,0,0a1,1,0,0,1,.19-.26L5,16.87l.11-.08,0,.05L5,17l-.13.11a.84.84,0,0,0-.2.27"/><path class="fo" d="M5.17,17.35v0a.36.36,0,0,0-.08.12l0,.14a4,4,0,0,0-.23.88h0a.52.52,0,0,0-.07.18c0,.1,0,.16,0,.19v0a.69.69,0,0,1,0-.13.74.74,0,0,0,0-.12,1.06,1.06,0,0,1,0-.14c0-.05,0-.1,0-.13l0,0c0-.13.05-.23.06-.29a1.11,1.11,0,0,1,.1-.28A1.34,1.34,0,0,1,5,17.51a1,1,0,0,0,.09-.26.34.34,0,0,0,0-.09.76.76,0,0,1-.1.12.35.35,0,0,1-.12.1.25.25,0,0,0,0-.07v-.07l0,0v0l.14-.18a1,1,0,0,1,.16-.18l0,0-.1.12a.51.51,0,0,0-.08.13A.58.58,0,0,0,5.26,17a.28.28,0,0,1,.17-.14l-.15.24a.73.73,0,0,0-.11.25"/><path class="fp" d="M4.74,17.46a2,2,0,0,1,.16-.22v.07a.25.25,0,0,1,0,.07.35.35,0,0,0,.12-.1.76.76,0,0,0,.1-.12.34.34,0,0,1,0,.09l-.17.14a.35.35,0,0,1-.2.07"/><path class="fq" d="M4.92,19a.48.48,0,0,0-.21.09h0a2.3,2.3,0,0,1,0-.28c0-.12,0-.21,0-.27A4,4,0,0,1,5,17.63l0-.14a.36.36,0,0,1,.08-.12c0,.05,0,.13-.1.24a1.13,1.13,0,0,0-.07.26l.07,0a.21.21,0,0,0,0-.06l.25-.56.07,0-.15.31c-.06.15-.11.25-.14.31a.31.31,0,0,1-.1.08A.24.24,0,0,0,5,18a1.32,1.32,0,0,0,0,.2l-.05.2c0,.07,0,.11,0,.13a2.08,2.08,0,0,0,0,.22,1.07,1.07,0,0,1,0,.23.29.29,0,0,0,.16,0,.29.29,0,0,0,.1-.12.4.4,0,0,0,.08-.16c0-.05,0-.11,0-.18a.34.34,0,0,0,.06-.15.61.61,0,0,0,0-.24.74.74,0,0,1,0-.25,1.52,1.52,0,0,1,.09-.26.39.39,0,0,1,.15-.23,1.58,1.58,0,0,0-.13.26c0,.08-.06.17-.09.28a.24.24,0,0,0,0,.16.26.26,0,0,1,0,.17c0,.07,0,.18-.07.33a1,1,0,0,1-.13.31v0l0,0,0,0-.12,0"/><path class="fr" d="M5.15,17.87a2.29,2.29,0,0,1-.24.47v.05H4.85l.05-.2A1.32,1.32,0,0,1,5,18a.24.24,0,0,1,.08-.1.31.31,0,0,0,.1-.08c0-.06.08-.16.14-.31l.15-.31-.07,0h0a.3.3,0,0,1,.15-.09.22.22,0,0,0,0,.21.94.94,0,0,0-.14.27.92.92,0,0,1-.13.28c0-.11.06-.2.09-.28a1.58,1.58,0,0,1,.13-.26.39.39,0,0,0-.15.23,1.52,1.52,0,0,0-.09.26h0"/><path class="fs" d="M4.72,17.9v0a.13.13,0,0,0-.05.06l0,.06a.34.34,0,0,0,0-.11.89.89,0,0,1,.06-.2l.1-.19h0a.6.6,0,0,1-.08.08v-.05h0l.17-.08A.41.41,0,0,1,5,17.43l0,0v0a.42.42,0,0,0-.17.2,1.15,1.15,0,0,0-.08.26"/><path class="ft" d="M4.65,17.93a1.74,1.74,0,0,0-.18.41c0,.09-.08.23-.14.42a.09.09,0,0,1,0,.06.11.11,0,0,1-.08,0q.12-.34.3-.75l0-.09a.2.2,0,0,0,0-.1.28.28,0,0,1,0-.12.66.66,0,0,1,.06-.12l0,0a.6.6,0,0,0,.08-.08h0l-.1.19a.89.89,0,0,0-.06.2"/><path class="fu" d="M4.55,18.26a.76.76,0,0,1,0-.11l0-.11,0-.06a.13.13,0,0,1,.05-.06v0c.07,0,.11,0,.13-.12l0-.11a.46.46,0,0,1,0-.09.68.68,0,0,1,0,.19L4.81,18c0,.07-.06.16-.09.29a1.13,1.13,0,0,1-.13.27H4.51a.44.44,0,0,0,0-.13.7.7,0,0,1,0-.13"/><path class="fv" d="M4.81,18a.81.81,0,0,1,0,.19c0,.08,0,.14,0,.18s0,.08,0,.13a1.06,1.06,0,0,0,0,.14,0,0,0,0,0,0,0s0,.07,0,.16a.26.26,0,0,1-.06.15h0V19a.67.67,0,0,0-.25-.13l.1-.28.09-.28a.7.7,0,0,0,0,.13.44.44,0,0,1,0,.13h.08a1.13,1.13,0,0,0,.13-.27c0-.13.07-.22.09-.29"/><path class="fw" d="M5.19,18.34H5.11L5,18.23a1.09,1.09,0,0,0,.12-.36h0a.74.74,0,0,0,0,.25.61.61,0,0,1,0,.24"/><path class="fx" d="M4.91,18.34a2.29,2.29,0,0,0,.24-.47,1.09,1.09,0,0,1-.12.36l-.08.1h0"/><path class="fy" d="M7,16.42a.41.41,0,0,0,.21,0v.1l-.06,0h0l-.14,0s0-.09,0-.14"/><path class="fz" d="M7,16.42s0,.09,0,.14l.14,0a.21.21,0,0,1-.23,0,.52.52,0,0,1-.41.07.21.21,0,0,1,.13-.07.13.13,0,0,1,0-.12.08.08,0,0,1,.11,0l.06,0a.26.26,0,0,1,.1,0,.14.14,0,0,1,.11,0"/><path class="ga" d="M7.17,16.47H7.4a.58.58,0,0,1,.22.06.58.58,0,0,0,.17,0l.17,0,0,0a.14.14,0,0,1-.11,0l-.11,0-.11,0a.11.11,0,0,0-.11,0,.31.31,0,0,1-.1.05H7.34l.06,0s0,0,.06.05H7.38l-.08,0a.17.17,0,0,0-.16,0,.23.23,0,0,1,.12-.12l-.14,0,.06,0v-.1"/><path class="gb" d="M7.46,16.78l.06,0a.31.31,0,0,1-.14,0l-.15,0a.79.79,0,0,1-.32-.08l-.17,0-.18,0a.71.71,0,0,0-.2,0,.48.48,0,0,1-.2.05L6,17a.37.37,0,0,1-.17.11A.59.59,0,0,1,5.91,17l.12-.1.12-.11.1-.06,0,.06a.44.44,0,0,0,.16-.1.52.52,0,0,0,.41-.07.21.21,0,0,0,.23,0h0l.14,0a.23.23,0,0,0-.12.12.17.17,0,0,1,.16,0l.08,0h.08"/><path class="gc" d="M6.32,16.39H6.23a.38.38,0,0,0,.18.09.62.62,0,0,1-.23.07.7.7,0,0,1-.25,0q0,.11.09.15v.09a.49.49,0,0,1,.12-.08l-.06.08L6,16.85h.07L6,16.9l-.09,0V17a.59.59,0,0,0-.08.08.15.15,0,0,1,0-.11.14.14,0,0,1,0-.11l0-.06.1-.11h0v-.06l0,0h0s0,0,0-.06l0-.07h.06v0l-.09,0a.22.22,0,0,0,0-.14l-.09-.12a.17.17,0,0,1,.22,0h0V16.1a.44.44,0,0,0,.14.17.32.32,0,0,0,.2.08.07.07,0,0,1,.06,0l.06,0"/><path class="gd" d="M6,16.21a.2.2,0,0,1-.08-.08l0-.11a.13.13,0,0,1,.09.07.21.21,0,0,1,0,.12"/><path class="ge" d="M5.79,16.5l0,.07s0,0,0,.06l-.08,0v-.06l.06,0"/><path class="gf" d="M6.41,16.47l.34,0-.06,0a.08.08,0,0,0-.11,0,.13.13,0,0,0,0,.12.21.21,0,0,0-.13.07.44.44,0,0,1-.16.1l0-.06-.1.06h0l0,0H6l.07-.08.06-.08a.49.49,0,0,0-.12.08v-.09q-.12,0-.09-.15a.7.7,0,0,0,.25,0,.62.62,0,0,0,.23-.07"/><path class="gg" d="M5.91,17v-.1l.09,0,.08,0,0,0h0L6,16.92l-.12.1"/><path class="gh" d="M6.89,17.92l.05.06c.16-.05.33-.09.52-.13a.24.24,0,0,1-.14.12c-.09,0-.15.05-.17.09V18l-.07,0A.11.11,0,0,1,7,18a.17.17,0,0,0-.12,0,.16.16,0,0,1-.12,0,.3.3,0,0,0-.11.06l-.1.08h0l-.07-.08A.33.33,0,0,1,6.58,18L6.71,18l-.11-.08-.1-.08-.21,0a0,0,0,0,0,0,0,.08.08,0,0,0,0,0,.58.58,0,0,1,0-.14l0,0a.19.19,0,0,0,.18,0,.42.42,0,0,0,.17-.1.64.64,0,0,0,.31.24l0,0"/><path class="gi" d="M6.29,17.85l.21,0,.1.08.11.08L6.58,18a.33.33,0,0,0-.12.05l.07.08h0l-.06-.05,0-.06a.21.21,0,0,0,.12,0l.11,0-.11-.11-.11,0a.15.15,0,0,1-.1,0"/><path class="gj" d="M7.52,16.8h0l.08,0a.46.46,0,0,1-.2,0,.37.37,0,0,1-.18-.08l.15,0a.31.31,0,0,0,.14,0"/><path class="gk" d="M7.85,17.71A.56.56,0,0,0,8,17.62l-.14-.06v0a.2.2,0,0,1,.13,0l.12.08h0a.11.11,0,0,0,0,.11.11.11,0,0,0,.08.08.21.21,0,0,1-.17,0l-.15-.09"/><path class="gl" d="M7.55,17.73a.45.45,0,0,1,.14-.11.61.61,0,0,0,.16-.09v0l.14.06a.56.56,0,0,1-.14.09c0-.06-.08-.07-.15-.05l-.08,0-.07,0"/><path class="gm" d="M7.64,17.79a.14.14,0,0,1,0,.11.11.11,0,0,1-.11,0,.41.41,0,0,1,0-.09.17.17,0,0,1,.08-.06"/><path class="gn" d="M2.21,15.19l.06.09a.34.34,0,0,1-.06.15.15.15,0,0,1-.14.05.14.14,0,0,0,0,.16l.1.16,0,0,.05.09.06.08a.59.59,0,0,1,0,.15.24.24,0,0,0,.09.14.11.11,0,0,1-.15,0,1.53,1.53,0,0,0-.13-.13A.17.17,0,0,0,2,16.08a.2.2,0,0,1-.13,0,.76.76,0,0,0,0-.11H1.76a.21.21,0,0,0,.05-.16.68.68,0,0,0,0-.17l-.12-.14a.35.35,0,0,1,0-.18.53.53,0,0,0,0-.28,1.11,1.11,0,0,0-.16-.24.61.61,0,0,1,.23.09l.19.15,0-.11A.86.86,0,0,1,2,15a.66.66,0,0,1,.18.19"/><path class="go" d="M2.13,15.8a.84.84,0,0,1,.14.22,1.48,1.48,0,0,0,.11.24l0,0a.24.24,0,0,1-.09-.14.59.59,0,0,0,0-.15l-.06-.08-.05-.09,0,0"/><path class="gp" d="M2.26,17.09l.08.05.08,0-.06.1a.86.86,0,0,1-.19-.11l.05-.07A.73.73,0,0,1,2,16.89l-.18-.25h.1a.31.31,0,0,0-.1-.05.71.71,0,0,1,0-.14l.08.1.07.1a.21.21,0,0,0-.06-.17l-.07-.08a.2.2,0,0,1,0-.08l.06-.05a0,0,0,0,1,.07,0,1.14,1.14,0,0,1,.3.21l0,0c0,.05,0,.08,0,.08a.11.11,0,0,0,0,.08.08.08,0,0,0,.07,0h.08l0,.05.06.06a.24.24,0,0,1-.08.11l0,0-.09,0a.2.2,0,0,1-.1,0l0,0"/><path class="gq" d="M2.51,16.57l.1.12a1,1,0,0,0-.21.08l0-.05H2.27a.08.08,0,0,1-.07,0,.11.11,0,0,1,0-.08s0,0,0-.08l0,0a.24.24,0,0,1,.16,0l.14.09v0"/><path class="gr" d="M2.85,16.82l-.07-.05a.19.19,0,0,0-.07-.06l-.09,0h0l0,0,.09-.07-.1-.07a.5.5,0,0,1,.22-.14v.09a.25.25,0,0,1,0,.08.9.9,0,0,0,0,.15.12.12,0,0,1,0,.13"/><path class="gs" d="M1.48,18.53l-.08,0a.82.82,0,0,1,.09-.19l.1-.09a.41.41,0,0,1,.1-.09.42.42,0,0,1-.07.13.9.9,0,0,0-.07.14.35.35,0,0,0,.09-.11.54.54,0,0,1,.07-.12.78.78,0,0,1,.16-.2.85.85,0,0,1,.22-.13.3.3,0,0,0-.06.09A.1.1,0,0,0,2,18a.78.78,0,0,1,.14-.19.32.32,0,0,1,.21-.1l.33,0H3a.9.9,0,0,1-.35.18s-.08-.05-.12,0a.65.65,0,0,0-.19.17,1.05,1.05,0,0,1-.2.16v-.07L2,18.34a1.59,1.59,0,0,1-.22.18.19.19,0,0,1-.17,0v-.06l-.07.05"/><path class="gt" d="M2.46,16.83a.09.09,0,0,1,0,.06s0,0,0,.07l.18.06a.24.24,0,0,1-.19.08H2.26l0,0a.2.2,0,0,0,.1,0l.09,0,0,0a.24.24,0,0,0,.08-.11"/><path class="gu" d="M2.33,18.58l-.17.06h0l0,0v-.06a.08.08,0,0,0-.08,0l0,.09-.1.12a.1.1,0,0,1-.13,0l.09,0s-.07-.06-.15,0a.74.74,0,0,1-.18.07l0-.07a.06.06,0,0,0-.07,0l-.06.06a.14.14,0,0,1-.06.07H1.1l-.18,0a.11.11,0,0,1,0-.07.06.06,0,0,1,.07,0,.31.31,0,0,0,.24,0l.21-.13a.37.37,0,0,0,.31-.07A1,1,0,0,0,2,18.31a.2.2,0,0,1,.1-.07l.12,0v0l-.07,0,0,.09a.17.17,0,0,0-.08.06.11.11,0,0,0,0,.08h.14v-.1a.13.13,0,0,0,.1,0V18.3a.27.27,0,0,0,.12,0l.12-.05v.05l-.07.16a1,1,0,0,1-.11.15"/><path class="gv" d="M2.16,18.64l.17-.06a.31.31,0,0,1-.09.11c-.05,0-.08,0-.08-.05"/><path class="gw" d="M.93,18.88h0l.18,0h.18a.14.14,0,0,0,.06-.07l.06-.06a.06.06,0,0,1,.07,0l0,.07a.74.74,0,0,0,.18-.07c.08,0,.13,0,.15,0l-.09,0a.1.1,0,0,0,.13,0l.1-.12,0-.09a.08.08,0,0,1,.08,0v.06a1,1,0,0,1-.08.11.54.54,0,0,0-.12.11.28.28,0,0,1-.14.09H1.65l-.11-.06a1.32,1.32,0,0,1-.31,0,.49.49,0,0,1-.3-.09"/><path class="gx" d="M.24,18.92H.39a.34.34,0,0,0,.15,0l.1,0,.1,0A.16.16,0,0,0,.84,19l.09-.08a.49.49,0,0,0,.3.09,1.32,1.32,0,0,0,.31,0l.11.06h.11a.28.28,0,0,0,.14-.09A.54.54,0,0,1,2,18.78a.6.6,0,0,1-.17.21.44.44,0,0,1-.24.11L1.54,19a1.15,1.15,0,0,1-.26.19.67.67,0,0,1-.31.07L1,19.2a1.29,1.29,0,0,1-.35-.05A1.18,1.18,0,0,1,.35,19a.28.28,0,0,0-.13,0L.1,19l.14,0"/><path class="gy" d="M3,21.63l0,0A3,3,0,0,0,3.08,21,.85.85,0,0,0,3,20.47a.09.09,0,0,0,0-.1l-.08-.09a.37.37,0,0,0,.23,0,.3.3,0,0,0,.2-.1.12.12,0,0,0,0-.11.16.16,0,0,1,0-.11.18.18,0,0,0,0-.07.12.12,0,0,0,0-.08A.73.73,0,0,0,3,19.8l0,0v-.07H2.86a.37.37,0,0,1,.2-.08.68.68,0,0,0,.21-.06h.16a.64.64,0,0,0,0,.09l0,0a.5.5,0,0,1,.09-.24,1.31,1.31,0,0,0-.07.57.15.15,0,0,0,0-.1.58.58,0,0,0,0-.1A.17.17,0,0,1,3.6,20a.34.34,0,0,1,0,.11.62.62,0,0,0,0,.1.09.09,0,0,0,.08.08h.12c0,.09.11.13.27.13l.15-.05a.22.22,0,0,1,.16,0,.38.38,0,0,1,.18-.08.51.51,0,0,0,.18-.08l.13-.05A.17.17,0,0,0,5,20a.11.11,0,0,0,.12,0s0,0,.09-.09l.06.05a.16.16,0,0,1,.11-.05.19.19,0,0,1,.1,0,.28.28,0,0,1,.07.09.17.17,0,0,1,0,.12.4.4,0,0,1-.13.22l-.09.08-.09.09a1.11,1.11,0,0,1-.23.19l-.28.12a.72.72,0,0,1-.37.07A1.13,1.13,0,0,1,4,20.84a.12.12,0,0,1-.09-.06l-.08-.07,0,0,0,.06a1.31,1.31,0,0,1-.27-.35A1.53,1.53,0,0,1,3.42,20a1.07,1.07,0,0,0,.17.54A1.27,1.27,0,0,0,4,21a.32.32,0,0,0,.08.09l.09.06a.23.23,0,0,1-.1.12l-.13.09-.13.09a.34.34,0,0,0-.09.12.3.3,0,0,1-.2.08.23.23,0,0,1-.19-.09.12.12,0,0,1-.16,0A.24.24,0,0,1,3,21.45a.31.31,0,0,0,0,.18"/><path class="gz" d="M2.76,20.2a.26.26,0,0,1,0-.23.8.8,0,0,1,.13-.21l0,0,0,0,.12,0,.12,0a1.13,1.13,0,0,1,0,.14.11.11,0,0,1-.05.12L3,20.2l-.13.07a.4.4,0,0,0-.15-.07m.15,0L3,20.11a.23.23,0,0,0,.11,0l.1,0a.15.15,0,0,0,0-.1c0-.05,0-.08,0-.1l0,0a.18.18,0,0,0-.2,0V20a.07.07,0,0,0-.07.06.24.24,0,0,1,0,.11S2.89,20.16,2.91,20.16Z"/><path class="ha" d="M3.64,19.05l-.1.25c-.06.14-.1.22-.11.26H3.27a1.19,1.19,0,0,0-.24,0l0-.11a.08.08,0,0,0,0-.09c0-.06.06-.11.08-.14a.64.64,0,0,0,.06-.16l0,.05.06,0a.1.1,0,0,1,0,.11l0,0,.12-.05H3.33a.16.16,0,0,1,.08-.06h.11l0-.12a.21.21,0,0,1,.08-.1v.12"/><path class="hb" d="M2.92,19.78l0,0a.8.8,0,0,0-.13.21.26.26,0,0,0,0,.23.91.91,0,0,0-.26-.06h0l.06-.07,0-.08.11-.15.14-.12h.05v.07"/><path class="hc" d="M2.85,20.28l-.09-.08a.4.4,0,0,1,.15.07L3,20.2l.13-.08A.11.11,0,0,0,3.22,20a1.13,1.13,0,0,0,0-.14l-.12,0L3,19.8a.73.73,0,0,1,.4.06.12.12,0,0,1,0,.08.18.18,0,0,1,0,.07.16.16,0,0,0,0,.11.12.12,0,0,1,0,.11.3.3,0,0,1-.2.1.37.37,0,0,1-.23,0"/><path class="hd" d="M1.47,18.54a.46.46,0,0,0-.31.19,0,0,0,0,1-.06,0,.06.06,0,0,1,0,0l-.15.06a.4.4,0,0,1-.15,0L1,18.62l.24-.15a1.64,1.64,0,0,1,.22-.15.82.82,0,0,0-.09.19l.08,0h0"/><path class="he" d="M1.16,18.73a.46.46,0,0,1,.31-.19l-.15.11a.4.4,0,0,1-.16.08"/><path class="hf" d="M.92,18.87h0L.84,19a.16.16,0,0,1-.1.05l-.1,0-.1,0a.24.24,0,0,1,.11-.06.3.3,0,0,1,.13,0l-.09.05H.81l.11,0"/><path class="hg" d="M2,20.74H2l-.09,0a.18.18,0,0,0-.07.05l-.08,0-.07,0H1.49l-.11-.09v-.11a.18.18,0,0,1,0-.11.14.14,0,0,0,0-.07.2.2,0,0,0,0-.07.41.41,0,0,1,.23-.06l0-.08.16.09v0h0v0l-.13-.09-.15.08a.16.16,0,0,0-.08.13l-.06,0v0a.2.2,0,0,1,.13,0l-.06.06a.11.11,0,0,0,.08.08.14.14,0,0,0,.12,0l0,0a.24.24,0,0,1,.12,0H2l0,0"/><path class="hh" d="M1.85,20.26l-.16-.09h0a.45.45,0,0,0-.42,0,.89.89,0,0,0-.22.16,1,1,0,0,0-.23.37,1.52,1.52,0,0,0-.06.42.11.11,0,0,1,0,.08v0h0c0-.09,0-.19,0-.29a1.3,1.3,0,0,1,.11-.36.69.69,0,0,1,.31-.32.94.94,0,0,1,.42-.11.42.42,0,0,1,.36.2l-.07,0"/><path class="hi" d="M1.69,20.17l0,.08a.41.41,0,0,0-.23.06h0l-.11.05s-.07.05-.07.08a.37.37,0,0,0,0,.12c0,.06,0,.1,0,.12a.31.31,0,0,1,.07-.42.48.48,0,0,1,.42-.09h0"/><path class="hj" d="M2.86,20.58a.13.13,0,0,1,0-.08l0-.07,0,0a.85.85,0,0,1,.11.56,3,3,0,0,1-.15.56,1.21,1.21,0,0,1-.48.57,1.14,1.14,0,0,1-.71.19,1.55,1.55,0,0,1-.66-.43,1.14,1.14,0,0,1-.33-.71.11.11,0,0,0,0-.08,1.52,1.52,0,0,1,.06-.42A1,1,0,0,1,1,20.34a.89.89,0,0,1,.22-.16.45.45,0,0,1,.42,0,.48.48,0,0,0-.42.09.31.31,0,0,0-.07.42h0a.18.18,0,0,0,0,.16.22.22,0,0,0,.1.13v.12a.08.08,0,0,0,.07,0s0,0,0-.07a1.53,1.53,0,0,0,.1.21.23.23,0,0,0,.2-.05.76.76,0,0,1,.13.1.47.47,0,0,0,.15.06l-.11.07,0,0,.12,0v-.09l.18,0v0l.11-.05,0-.05a.17.17,0,0,1,.12,0,.09.09,0,0,0,.11,0h.09A.35.35,0,0,1,2.65,21l0,.11A1.06,1.06,0,0,0,2.79,21a.22.22,0,0,1,.13-.11.22.22,0,0,1,0-.1.22.22,0,0,0,0-.1l-.07-.06a.17.17,0,0,1-.06-.06M1,20.76a.46.46,0,0,1-.07.13.07.07,0,0,1-.12,0,.86.86,0,0,0,0,.13,1.22,1.22,0,0,0,.08.32.94.94,0,0,0,.16.23,1.13,1.13,0,0,0,.22.36,1,1,0,0,0,.34.25.39.39,0,0,0,.2.05,1,1,0,0,0,.21,0A.6.6,0,0,0,2.44,22a.84.84,0,0,0,.26-.43,1.16,1.16,0,0,1,0-.29A.68.68,0,0,1,2.88,21l0,0-.09.13a.57.57,0,0,1-.11.11l-.12,0-.11,0,0,0a.18.18,0,0,1-.07.09l-.09.05a.28.28,0,0,0-.16.14v.1a.09.09,0,0,1,0,.08v.05a.21.21,0,0,1-.19.06.32.32,0,0,1-.17-.11l.16,0a1.42,1.42,0,0,0-.05-.16s0,0,.08,0,0,0,0,0a.07.07,0,0,1,0-.09.18.18,0,0,1,.11,0v-.07a.14.14,0,0,0,0-.06l0,.1a.27.27,0,0,1-.28-.05.83.83,0,0,1-.27-.06l-.26-.08A.34.34,0,0,1,1.09,21a.78.78,0,0,0,0-.14A.37.37,0,0,0,1,20.76Z"/><path class="hk" d="M1.42,20.31a.2.2,0,0,1,0,.07.14.14,0,0,1,0,.07.18.18,0,0,0,0,.11v.11l.11.09-.1-.06-.15.07a.12.12,0,0,1,0-.1s0-.05.06-.07a.71.71,0,0,1,0-.16c0-.06.05-.08.11,0v-.09h0"/><path class="hl" d="M1.49,20.76h.09a.29.29,0,0,0,.2.09l0,0a.18.18,0,0,1,.07-.05l.09,0a.25.25,0,0,0,.21,0,.32.32,0,0,0,.16-.14l.06,0a.49.49,0,0,0-.16.13.41.41,0,0,1-.18.1h.07a.74.74,0,0,1,0,.12l0,.11a.09.09,0,0,1-.11,0,.24.24,0,0,1-.09-.06l-.06.06a.43.43,0,0,1-.1-.1A.19.19,0,0,0,1.61,21v0a1.12,1.12,0,0,0-.22-.17l-.14,0-.06-.12h0s0-.06,0-.12a.37.37,0,0,1,0-.12s0-.06.07-.08l.11-.05v.09c-.06,0-.09,0-.11,0a.71.71,0,0,0,0,.16s-.06,0-.06.07a.12.12,0,0,0,0,.1l.15-.07.1.06"/><path class="hm" d="M1.9,20.37s0,.05.05.06,0,0,.05,0,.08,0,.07-.1v0h.27l.23.08h0l0,0-.08,0a.13.13,0,0,0-.13.07l.1,0c0,.06-.06.08-.15.08l0,.09-.13.06a.12.12,0,0,1-.13,0l0,0h.11l.14-.12a.22.22,0,0,0,.1-.14h.2a.17.17,0,0,0-.1-.07.17.17,0,0,0-.12,0c0-.05-.05-.05-.09,0l0,.06,0,.05,0-.08-.07,0,0,.06-.07,0,0,0a.53.53,0,0,1-.28-.1l0,0,.08.09-.1,0a.12.12,0,0,0,.05.15l0,0,.06,0h0a.24.24,0,0,0-.12,0l0,0a.14.14,0,0,1-.12,0,.11.11,0,0,1-.08-.08l.06-.06a.2.2,0,0,0-.13,0v0l.06,0a.16.16,0,0,1,.08-.13l.15-.08.13.09v0h0l.06.07m0,.07,0-.08s0,0,0,.06Z"/><path class="hn" d="M2,20.71h-.1l-.06,0,0,0a.12.12,0,0,1-.05-.15l.1,0-.08-.09,0,0a.53.53,0,0,0,.28.1l.05,0,0-.05,0-.06s.06,0,.09,0a.17.17,0,0,1,.12,0,.17.17,0,0,1,.1.07h-.2a.22.22,0,0,1-.1.14l-.14.12H2"/><path class="ho" d="M1.82,21.15a.15.15,0,0,0,.13.06.42.42,0,0,0,.14,0v.06h.06a.06.06,0,0,1,0-.07s0,0,.05,0l.06,0s0,0,0-.08a.28.28,0,0,1,.12,0,.14.14,0,0,1,.12,0V21l0,0-.1-.05a.28.28,0,0,1,.13,0v.06a.2.2,0,0,0,.09-.05l.08-.06s.07,0,.1-.07a1.11,1.11,0,0,1,0-.17.17.17,0,0,0,.06.06L3,20.7a.22.22,0,0,1,0,.1.22.22,0,0,0,0,.1.22.22,0,0,0-.13.11,1.06,1.06,0,0,1-.11.13l0-.11a.35.35,0,0,0-.08.15H2.48a.09.09,0,0,1-.11,0,.17.17,0,0,0-.12,0l0,.05-.11.05v0l-.18,0v.09l-.12,0,0,0L2,21.31a.47.47,0,0,1-.15-.06.76.76,0,0,0-.13-.1.23.23,0,0,1-.2.05A1.53,1.53,0,0,1,1.4,21s0,.06,0,.07a.08.08,0,0,1-.07,0V21a.22.22,0,0,1-.1-.13.18.18,0,0,1,0-.16l.06.12.14,0a1.12,1.12,0,0,1,.22.17v0a.19.19,0,0,1,.11.07.43.43,0,0,0,.1.1"/><path class="hp" d="M1,20.76a.37.37,0,0,1,.07.12.78.78,0,0,1,0,.14.34.34,0,0,0,.12.24l.26.08a.83.83,0,0,0,.27.06.27.27,0,0,0,.28.05l0-.1a.14.14,0,0,1,0,.06v.07a.18.18,0,0,0-.11,0,.07.07,0,0,0,0,.09s0,.05,0,0-.07,0-.08,0a1.42,1.42,0,0,1,.05.16l-.16,0a.32.32,0,0,0,.17.11.21.21,0,0,0,.19-.06v-.05a.09.09,0,0,0,0-.08v-.1a.28.28,0,0,1,.16-.14l.09-.05a.18.18,0,0,0,.07-.09l0,0,.11,0,.12,0a.57.57,0,0,0,.11-.11L2.83,21l0,0a.68.68,0,0,0-.13.27,1.16,1.16,0,0,0,0,.29.84.84,0,0,1-.26.43.6.6,0,0,1-.46.18,1,1,0,0,1-.21,0,.39.39,0,0,1-.2-.05,1,1,0,0,1-.34-.25A1.13,1.13,0,0,1,1,21.57a.94.94,0,0,1-.16-.23A1.22,1.22,0,0,1,.77,21a.86.86,0,0,1,0-.13.07.07,0,0,0,.12,0A.46.46,0,0,0,1,20.76"/></g><path class="hq" d="M2.91,20.16s0,0-.05,0a.24.24,0,0,0,0-.11A.07.07,0,0,1,3,20v-.07a.18.18,0,0,1,.2,0l0,0s0,.05,0,.1a.15.15,0,0,1,0,.1l-.1,0a.23.23,0,0,1-.11,0l-.06.05M3.14,20v-.1L3,20l0,.11h.08Z"/><path class="hr" d="M3.14,20l-.09,0H3L3,20l.14,0V20"/><path class="hs" d="M2.94,20.43l-.1-.1a.69.69,0,0,0-.35-.15.84.84,0,0,0-.38,0h0a.3.3,0,0,1,.18-.08h.2a.91.91,0,0,1,.26.06l.09.08.08.09a.09.09,0,0,1,0,.1l0,0"/><path class="ht" d="M.39,18.92a.34.34,0,0,1,.17-.05l0,.07a.34.34,0,0,1-.15,0"/><path class="hu" d="M5.56,20.42l0,0a1.16,1.16,0,0,0,.17-.62.79.79,0,0,0-.23-.59.61.61,0,0,0-.16-.12A.76.76,0,0,0,5.1,19H4.92L5,19a.54.54,0,0,1,.39.13,1,1,0,0,1,.24.34l0,0a1.51,1.51,0,0,1,0,.52,1.48,1.48,0,0,1-.16.49"/><path class="hv" d="M5,18.33a.4.4,0,0,1,.12.1.16.16,0,0,1,0,.15s0,0,0-.09a.36.36,0,0,0,0,.1l-.06,0-.07,0-.07-.08s0-.06,0-.13H4.9v-.05H5"/><path class="hw" d="M5,18.83a2.17,2.17,0,0,0,0-.25.16.16,0,0,0,0-.15.4.4,0,0,0-.12-.1l.08-.1.08.12h.08a.34.34,0,0,1-.06.15c0,.07,0,.13,0,.18a.4.4,0,0,1-.08.16"/><path class="hx" d="M5.08,18.58a2.17,2.17,0,0,1,0,.25.29.29,0,0,1-.1.12.29.29,0,0,1-.16,0,1.07,1.07,0,0,0,0-.23,2.08,2.08,0,0,1,0-.22l.07.08.07,0,.06,0a.36.36,0,0,1,0-.1s0,.06,0,.09"/><path class="hy" d="M5,19H5.1a2.64,2.64,0,0,1,.16.26.48.48,0,0,1,0,.3l-.09.09-.08.09s-.07.05-.15.07a.21.21,0,0,0-.15.07.31.31,0,0,0-.27,0,.3.3,0,0,0-.16-.06.27.27,0,0,1-.16-.05l-.08-.05a.13.13,0,0,1-.06-.07l-.08,0,0-.09a.2.2,0,0,1-.09-.09s0-.06,0-.13a.24.24,0,0,1,.06-.18A.34.34,0,0,0,4,19,.19.19,0,0,1,4.08,19l.11,0,0,.1a.45.45,0,0,0,.14-.1h.16l0,.07-.07,0a.38.38,0,0,1-.18.09.31.31,0,0,0-.14.12.36.36,0,0,1-.13.14v.05a.33.33,0,0,1,.14,0l0,.08L4,19.48a.33.33,0,0,0,.15.05l-.08,0,.07,0,.05-.05,0-.06,0,0a.16.16,0,0,0,.11.1.27.27,0,0,0,.07.08l0-.06v.05a.37.37,0,0,1,.18,0l-.08,0,0,0h.1a.19.19,0,0,0,.09-.05l.06.05a.65.65,0,0,0,0-.14.29.29,0,0,0,.19.07l0,0L5,19.56a.28.28,0,0,0,.09.1,1.21,1.21,0,0,1,0-.14l.08-.13a.11.11,0,0,0,0-.12.3.3,0,0,0-.11-.07l-.1,0a.16.16,0,0,1-.08-.06l0-.05.08.06A.39.39,0,0,1,5,19"/><path class="hz" d="M5.46,19.17a.15.15,0,0,0-.08.17.29.29,0,0,0,.08.19.25.25,0,0,0-.11.13.51.51,0,0,1-.08.14l-.18.06a.67.67,0,0,0-.17.08.15.15,0,0,1-.1,0l-.1,0a.16.16,0,0,1,0,.07.09.09,0,0,1-.07,0H4.4a.72.72,0,0,0-.22,0l.05,0-.07,0L4.09,20a.19.19,0,0,1,0-.11.34.34,0,0,1-.14-.05.26.26,0,0,1-.1-.11,1.36,1.36,0,0,0-.11-.29l-.05.07a.1.1,0,0,1-.07,0,.33.33,0,0,1,0-.17.46.46,0,0,1,.09-.15,1.38,1.38,0,0,1,.06.16l.06-.1a.16.16,0,0,0,0-.12.78.78,0,0,0,0-.16.83.83,0,0,1,.3-.17.49.49,0,0,1,.34,0H4.29a.45.45,0,0,1-.14.1l0-.1-.11,0A.19.19,0,0,0,4,19a.34.34,0,0,1-.08.18.24.24,0,0,0-.06.18c0,.07,0,.12,0,.13a.2.2,0,0,0,.09.09l0,.09.08,0a.13.13,0,0,0,.06.07l.08.05a.27.27,0,0,0,.16.05.3.3,0,0,1,.16.06.31.31,0,0,1,.27,0A.21.21,0,0,1,5,19.8c.08,0,.13,0,.15-.07l.08-.09.09-.09a.48.48,0,0,0,0-.3A2.64,2.64,0,0,0,5.1,19a.76.76,0,0,1,.2.06.61.61,0,0,1,.16.12"/><path class="ia" d="M4.76,19.24h0l-.12,0a.17.17,0,0,1-.12-.13l.07.06a1.34,1.34,0,0,1,0-.21s0,0,.05-.07v-.05s0-.09,0-.19a.52.52,0,0,1,.07-.18h0c0,.06,0,.15,0,.27a2.3,2.3,0,0,0,0,.28h0v0a.11.11,0,0,1,0,.08l-.07,0h.07l0,0h0l0,.06h0"/><path class="ib" d="M4.6,19a1.34,1.34,0,0,0,0,.21l-.07-.06a.17.17,0,0,0,.12.13.4.4,0,0,1-.21,0,.22.22,0,0,0-.13,0l-.13,0a.12.12,0,0,1,0-.1.19.19,0,0,1,0-.1.15.15,0,0,1,.08-.11l.13,0a.28.28,0,0,1,.13,0l0,.09h0l0-.08,0,0"/><path class="ic" d="M4.45,18.9,4.6,19l0,0,0,.08h0l0-.09a.28.28,0,0,0-.13,0l-.13,0a.17.17,0,0,0-.13.08l0,.08L4,19.27l0,0a.33.33,0,0,0-.14,0V19.3A.36.36,0,0,0,4,19.16.31.31,0,0,1,4.17,19,.38.38,0,0,0,4.35,19l.07,0,0-.07"/><path class="id" d="M4.71,19.08A.48.48,0,0,1,4.92,19H5a.39.39,0,0,0,0,.15L5,19.07l0,.05a.16.16,0,0,0,.08.06l.1,0a.1.1,0,0,1-.1,0,.24.24,0,0,1-.09-.06l-.06.07-.15-.12v0"/><path class="ie" d="M4.25,19.05a.15.15,0,0,0-.08.11.19.19,0,0,0,0,.1.12.12,0,0,0,0,.1l.13,0a.22.22,0,0,1,.13,0,.4.4,0,0,0,.21,0l.12,0h0v0H4.66v0a.6.6,0,0,1,.3.07.11.11,0,0,0,.12,0,.11.11,0,0,0,0-.11l-.07,0-.17-.08.06-.07a.24.24,0,0,0,.09.06.1.1,0,0,0,.1,0l.07.09a.12.12,0,0,1,0,.1.24.24,0,0,1-.14.09.33.33,0,0,1-.14-.07.15.15,0,0,0-.14,0,.17.17,0,0,1-.14,0,.17.17,0,0,0-.13,0,.48.48,0,0,0-.14.06l-.13.06a.35.35,0,0,1-.1-.08l-.1-.1,0,0,.07-.06,0-.08a.17.17,0,0,1,.13-.08m-.13.28a.12.12,0,0,0-.06-.09S4.07,19.31,4.12,19.33Z"/><path class="if" d="M4.72,19.11l.15.12.17.08.07,0a.11.11,0,0,1,0,.11.11.11,0,0,1-.12,0,.6.6,0,0,0-.3-.07v0h.08v-.05h0l0-.06h0l0,0H4.64l.07,0a.11.11,0,0,0,0-.08"/><path class="ig" d="M5.12,19.2a.3.3,0,0,1,.11.07.11.11,0,0,1,0,.12l-.08.13a1.21,1.21,0,0,0,0,.14.28.28,0,0,1-.09-.1l-.12.08,0,0a.29.29,0,0,1-.19-.07.65.65,0,0,1,0,.14L4.7,19.7a.19.19,0,0,1-.09.05h-.1l0,0,.08,0a.37.37,0,0,0-.18,0v-.05l0,.06a.27.27,0,0,1-.07-.08.16.16,0,0,1-.11-.1l0,0,0,.06-.05.05-.07,0,.08,0A.33.33,0,0,1,4,19.48l.08-.09,0-.08.1.1a.35.35,0,0,0,.1.08l.13-.06a.48.48,0,0,1,.14-.06.17.17,0,0,1,.13,0,.17.17,0,0,0,.14,0,.15.15,0,0,1,.14,0,.33.33,0,0,0,.14.07.24.24,0,0,0,.14-.09.12.12,0,0,0,0-.1l-.07-.09"/><path class="ih" d="M5.46,19.17a.79.79,0,0,1,.23.59,1.16,1.16,0,0,1-.17.62l0,0-.26.29A1.15,1.15,0,0,1,5,21L4.69,21a.6.6,0,0,1-.29,0A.81.81,0,0,1,4.09,21a.65.65,0,0,1-.26-.17l0-.06,0,0,.08.07a.12.12,0,0,0,.09.06,1.13,1.13,0,0,0,.37.07.72.72,0,0,0,.37-.07L5,20.72a1.11,1.11,0,0,0,.23-.19l.09-.09.09-.08a.4.4,0,0,0,.13-.22.17.17,0,0,0,0-.12.28.28,0,0,0-.07-.09.19.19,0,0,0-.1,0,.16.16,0,0,0-.11.05l-.06-.05q-.08.09-.09.09A.11.11,0,0,1,5,20a.17.17,0,0,1-.1.1l-.13.05a.51.51,0,0,1-.18.08.38.38,0,0,0-.18.08.22.22,0,0,0-.16,0l-.15.05c-.16,0-.25,0-.27-.13H3.72a.09.09,0,0,1-.08-.08.62.62,0,0,1,0-.1.34.34,0,0,0,0-.11.17.17,0,0,0-.11-.15.58.58,0,0,1,0,.1.15.15,0,0,1,0,.1,1.31,1.31,0,0,1,.07-.57,1.3,1.3,0,0,1,.12-.21A.74.74,0,0,1,3.81,19a.78.78,0,0,1,0,.16.16.16,0,0,1,0,.12l-.06.1a1.38,1.38,0,0,0-.06-.16.46.46,0,0,0-.09.15.33.33,0,0,0,0,.17.1.1,0,0,0,.07,0l.05-.07a1.36,1.36,0,0,1,.11.29.26.26,0,0,0,.1.11.34.34,0,0,0,.14.05.19.19,0,0,0,0,.11l.07.09.07,0-.05,0a.72.72,0,0,1,.22,0h.21a.09.09,0,0,0,.07,0,.16.16,0,0,0,0-.07l.1,0a.15.15,0,0,0,.1,0,.67.67,0,0,1,.17-.08l.18-.06a.51.51,0,0,0,.08-.14.25.25,0,0,1,.11-.13.29.29,0,0,1-.08-.19.15.15,0,0,1,.08-.17"/><path class="ii" d="M4.12,19.33s-.07,0-.06-.09a.12.12,0,0,1,.06.09"/><path class="ij" d="M3.83,20.8a.65.65,0,0,0,.26.17A.81.81,0,0,0,4.4,21a.6.6,0,0,0,.29,0L5,21a.89.89,0,0,1,.12.38.87.87,0,0,1-.08.4c0-.11,0-.19,0-.24a.52.52,0,0,0,0-.25l0-.14A.47.47,0,0,0,4.92,21a1.05,1.05,0,0,1-.27.09.68.68,0,0,1-.28,0,.67.67,0,0,1-.14.31.79.79,0,0,1-.25.23l.08-.09.09-.09a.66.66,0,0,0,.12-.17.6.6,0,0,0,.06-.19l-.17,0A.69.69,0,0,1,4,21a1.27,1.27,0,0,1-.4-.4A1.07,1.07,0,0,1,3.42,20a1.53,1.53,0,0,0,.14.41,1.31,1.31,0,0,0,.27.35"/><rect class="a" y="12.1" width="14.06" height="10.41"/></svg>