<svg xmlns="http://www.w3.org/2000/svg" xmlns:xlink="http://www.w3.org/1999/xlink" width="256px" height="256px" viewBox="0 0 21.09 23.26"><defs><style>.a{fill:none;}.b{fill:#b3408f;}.c{fill:#a93878;}.d{fill:#80d194;}.e{fill:#f8e2f2;}.f{fill:#f7fbfb;}.g{fill:#a2dda9;}.h{fill:#67b77d;}.i{fill:#933624;}.j{fill:#fdfefe;}.k{fill:#e7018f;}.l{clip-path:url(#a);}.m{fill:#e43f5a;}.n{fill:#ba1e3c;}.o{fill:#f24c6c;}.p{fill:#fc5979;}.q{fill:#88040e;}.r{fill:#a60715;}.s{fill:#b80a1c;}.t{fill:#c52337;}.u{fill:#a11125;}.v{fill:#dc8e9d;}.w{fill:#da314a;}.x{fill:#aa1322;}.y{fill:#8b0917;}.z{fill:#be4f61;}.aa{fill:#bc1b2d;}.ab{fill:#8f040d;}.ac{fill:#750208;}.ad{fill:#af0c2c;}.ae{fill:#930a15;}.af{fill:#78050e;}.ag{fill:#a20f1c;}.ah{fill:#97061b;}</style><clipPath id="a" transform="translate(-0.02)"><rect class="a" y="14.13" width="8.26" height="9.01"/></clipPath></defs><path class="b" d="M20.39,17.58a4.82,4.82,0,0,1-1,3.14,6.35,6.35,0,0,1-3,1.12,18.67,18.67,0,0,1-3.66.25c-1.21,0-2.42-.11-3.62-.24a6.68,6.68,0,0,1-3.23-.93c-1.08-.79-1.3-2.22-1.45-3.5a17.75,17.75,0,0,1,.09-4.37A19.77,19.77,0,0,1,4.94,11,10.69,10.69,0,0,1,5.3,9.9,11.09,11.09,0,0,0,6,8.47L6.31,8c.17.36.39,1,.79,1s.71-.26,1.06-.58.67-.67,1.09-.67a1,1,0,0,1,.9.8c.36,1,1.12,1.71,2.08,1.19.44-.24.53-.73.71-1.21.08-.22.33-.77.55-.82s.66.87.78,1.08a1.36,1.36,0,0,0,1.21.82c.45,0,.57-.41.79-.83s.21-1,.47-1.15c.52-.36,1.88,1,2.3,1.22l.2.12a6.54,6.54,0,0,1,.51,1.29A18.07,18.07,0,0,1,20.29,14a23.18,23.18,0,0,1,.1,3.63" transform="translate(-0.02)"/><path class="c" d="M20.39,17.58a4.77,4.77,0,0,1-1.05,3.14,6.34,6.34,0,0,1-3,1.12,18.73,18.73,0,0,1-3.66.25c-1.21,0-2.42-.11-3.62-.24a6.68,6.68,0,0,1-3.23-.93,4.44,4.44,0,0,1-1.42-3.26A3.56,3.56,0,0,0,5.71,20a6.52,6.52,0,0,0,3.22.94c1.21.13,2.41.22,3.63.24a18.58,18.58,0,0,0,3.65-.26,6.2,6.2,0,0,0,3-1.12c.8-.72,1.28-3.4,1.19-2.19" transform="translate(-0.02)"/><path class="c" d="M19.24,9.82s-1.66-1.47-2.17-1.39c-.31.05-.49,1-.65,1.28s-.49.76-.94.75a1.37,1.37,0,0,1-1.21-.81c-.12-.21-.37-1.08-.74-1-.21.05-.64,1.49-1.4,1.76A1.52,1.52,0,0,1,10,9.37c-.15-.39-.28-.76-.77-.76s-.79.4-1.09.66-.64.64-1.17.57A1.91,1.91,0,0,1,5.86,9l.27-.95c.18.36.43.81.82.87S7.66,8.65,8,8.33s.67-.67,1.09-.67.75.41.9.81c.35,1,1.11,1.7,2.07,1.18.45-.23.53-.73.71-1.21.08-.22.34-.77.55-.82.36-.09.83.72.95.93.27.48.48,1,1.05,1s.56-.41.79-.82.21-1,.47-1.16c.52-.36,1.9.93,2.29,1.23.82.62.35,1.05.35,1.05" transform="translate(-0.02)"/><path class="d" d="M18.48,4.94C19.1,2.3,19,1.15,16.71.85S6.62.06,6.43,2.16a5.08,5.08,0,0,0,.23,2.78S3.86,7.76,4.07,8.38c.33,1,1.33.46,2-.26,0,0,.48,1.8,2.24.18s2,.88,2.52,1.2c.69.44,1.33.46,2.12-1.17s1.21.38,1.42.69a1,1,0,0,0,1.84-.33c.5-1.31,1-1.36,2.34-.13s2.34.21,2.13-.64-2.24-3-2.24-3" transform="translate(-0.02)"/><path class="e" d="M12.54,18.21c-2,.13-5.61-.24-5.68-3a4.27,4.27,0,0,1,1.63-3.27,5.06,5.06,0,0,1,3.5-.86c2.13.14,5.09.74,5.54,3.36.5,3-2.89,3.64-5,3.78" transform="translate(-0.02)"/><path class="f" d="M12.53,18.16c-1.93.13-5.52-.24-5.59-3A4.18,4.18,0,0,1,8.55,12,5,5,0,0,1,12,11.12c2.1.14,5,.73,5.45,3.32.5,2.91-2.84,3.59-4.92,3.72" transform="translate(-0.02)"/><path class="g" d="M17.7,1.26c0,.36-2.37.66-5.29.66s-5.28-.3-5.28-.66S9.49.59,12.41.59s5.29.3,5.29.67" transform="translate(-0.02)"/><path class="h" d="M18.6,5.46c-4,.87-9.42,1.08-10.89.41S6.94,5,6.94,5a12.17,12.17,0,0,0,6,.78c3.2-.46,5.51-.88,5.51-.88l.12.52" transform="translate(-0.02)"/><path class="g" d="M8.46,1.41c-1.94.51-1.3,2.85-.87,3.76,0,0-3.91,3.51-2.51,3.49,0,0-1.13.54-1-.28s2.45-3.1,2.45-3.1a11.43,11.43,0,0,1-.26-2.62C6.32,1.45,7.88,1,8.3.89s.16.52.16.52" transform="translate(-0.02)"/><path class="h" d="M17.54,1.24c1.06,1,.22,3.87.22,3.87s2.49,2.48,2.44,3.14c-.05.93-.76.63-.76.63s1,.35,1.31-.28S19.6,6.09,18.52,5c0,0,.71-2.06.3-3a1.22,1.22,0,0,0-1.28-.79" transform="translate(-0.02)"/><path class="i" d="M9.56,13.11c-.24.25.39,2.83-.39,2.67-.18,0,.09-.66,0-.81-.32-.5-.64.14-.67.46-.05.49.18,1,.72,1s.89-.66,1-1.21c0-.26,0-2.79-.63-2.12" transform="translate(-0.02)"/><path class="i" d="M9.25,12.24a.32.32,0,1,0,.63,0,.32.32,0,1,0-.63,0" transform="translate(-0.02)"/><path class="i" d="M11.69,13.15c-.67.17-.85,1-.89,1.61,0,.33-.13,1.56.32,1.69.6.17.31-1,.31-1.21v-.09h0A7.07,7.07,0,0,0,12.56,15a4.61,4.61,0,0,0-.11,1.08c.1.31.39.29.56.09A3.34,3.34,0,0,0,13,14a1.15,1.15,0,0,0-1.34-.81m-.24,1.32c.05-.33.16-.64.45-.69s.51.24.59.59A2.2,2.2,0,0,0,11.45,14.47Z" transform="translate(-0.02)"/><path class="i" d="M14.8,13.8c-.15-.3-.45-.62-.81-.42-.55.3-.71,2.2-.3,2.67s.56-.11.51-.47a3.43,3.43,0,0,1,.05-1.46c.12.26.15.74.52.71s.39-.56.64-.73c.34.6,0,1.26.11,1.87,0,.18.08.34.29.34s.35-.41.38-.67A3.39,3.39,0,0,0,16,13.88c-.3-.58-.83-.53-1.21-.08" transform="translate(-0.02)"/><path class="i" d="M17.17,10.75a.32.32,0,1,0-.63,0,.32.32,0,0,0,.63,0" transform="translate(-0.02)"/><path class="i" d="M18.59,9.91a.32.32,0,1,0-.63,0,.32.32,0,1,0,.63,0" transform="translate(-0.02)"/><path class="i" d="M18.29,11.8a.32.32,0,1,0,.63,0,.32.32,0,1,0-.63,0" transform="translate(-0.02)"/><path class="i" d="M10.13,10.56a4.8,4.8,0,0,0-3.82,4.7c.09,2.41,2.62,3.38,4.56,3.56s4.43-.06,6-1.29a3.55,3.55,0,0,0,.29-5.09c-1.63-1.86-4.79-2.31-7.06-1.88m2.4,7.6c-1.93.13-5.52-.24-5.59-3A4.18,4.18,0,0,1,8.55,12,5,5,0,0,1,12,11.12c2.1.14,5,.73,5.45,3.32C18,17.35,14.61,18,12.53,18.16Z" transform="translate(-0.02)"/><path class="i" d="M19.8,9.43A1,1,0,0,0,21,8.48c.08-1-1.16-2.35-2.05-3.29a.3.3,0,0,0-.24-.43l.07-.13a5,5,0,0,0,.26-1.29,3.1,3.1,0,0,0,0-1.25C18.67.47,16.4.38,15.13.28a26.22,26.22,0,0,0-5.24.1C8.5.54,6.19.51,6,2.47a5,5,0,0,0,.11,1.27c0,.15.08.51.17.83h0c-.4.1-.24.44,0,.6l0,0C5.7,5.84,5,6.33,4.49,7s-1.1,1.46-.44,2.1a1,1,0,0,0,1.27,0,12,12,0,0,0-.84,2.33A17.42,17.42,0,0,0,4,16.27c.07,1.48.2,3.36,1.22,4.49s2.63,1.35,4,1.51a31.4,31.4,0,0,0,5.13.18A10.64,10.64,0,0,0,19,21.36c1.25-.72,1.57-2.22,1.7-3.6A24.71,24.71,0,0,0,20.44,12a10.87,10.87,0,0,0-.64-2.57m-13.12-7a1.11,1.11,0,0,1,.65-.86,7.12,7.12,0,0,1,2.51-.47A27.27,27.27,0,0,1,15.26.94h-.09a7.31,7.31,0,0,1,2.53.51c.79.37.86,1,.72,1.87a9.07,9.07,0,0,0-.26,1.47l-.33.08c-.28.07-.57.16-.79.2-.55.1-1.09.2-1.65.27s-.91.1-1.38.13a5.81,5.81,0,0,0,1.92-1.3c.51-.56.76-2.13-.39-2a4,4,0,0,0-2.27,1.69,6.49,6.49,0,0,0-.64,1A9,9,0,0,0,12.26,4c-.37-.75-1-2-2-1.87s-.93,1.35-.41,2a5.68,5.68,0,0,0,1.71,1.36,23.38,23.38,0,0,1-2.69-.24l-.5-.09c-.26,0-.51-.11-.76-.18s-.42-.18-.67-.28A10.12,10.12,0,0,0,6.68,3,2.74,2.74,0,0,1,6.68,2.38ZM13.25,5a4.48,4.48,0,0,1,.43-.64c.23-.29,1.23-1.61,2-1.56.42.12-.16.86-.27,1A6.29,6.29,0,0,1,13.25,5ZM12,4.94a4.62,4.62,0,0,1-1.76-1.37c-.18-.28-.26-.8.23-.76C11.2,3,11.71,4.28,12,4.94ZM4.61,8.65c-.93-.26,1.57-2.48,1.86-2.78a3.16,3.16,0,0,0,.36-.41,8.86,8.86,0,0,0,1,.26A16.41,16.41,0,0,0,11,6.09l.95,0a4.56,4.56,0,0,1-1,1.18c-.16.15-.42.29-.32.56s.33.21.51.12a3.79,3.79,0,0,0,1.29-1.48c.05-.09.11-.2.17-.33a3.11,3.11,0,0,0,.61.76c.26.23,1.22,1,1.55.68s-.45-.51-1.09-1.13a4,4,0,0,1-.27-.37,27.9,27.9,0,0,0,4.14-.46c.17,0,.6,0,.94-.12a9.24,9.24,0,0,1,1.37,1.6c.23.35.85,1.17.44,1.59s-.74.14-1.13-.11L19,8.47c-.22-.16-.41-.32-.54-.42-.48-.37-1.17-1-1.81-.7s-.35,1.46-1,1.79c-.77.42-1-.77-1.32-1.2s-1.17-.88-1.53-.13c-.28.58-.22,1.31-.89,1.61s-1.15-.29-1.36-.89S10,7.36,9.3,7.4a1.86,1.86,0,0,0-1,.43c-.3.23-.67.78-1,.88-.56.14-.47-.74-.78-1C6,7.23,5.23,8.83,4.61,8.65ZM20.1,17.48a4.56,4.56,0,0,1-1,3,6,6,0,0,1-2.88,1.08,17.28,17.28,0,0,1-3.52.25c-1.17,0-2.33-.11-3.49-.23a6.42,6.42,0,0,1-3.11-.9c-1-.76-1.26-2.14-1.4-3.37a16.56,16.56,0,0,1,.09-4.22c.06-.41.25-1.37.42-2,.11-.35.22-.7.36-1.05A11.75,11.75,0,0,0,6.24,8.7V8.63a1.19,1.19,0,0,0,.8.75c.5.06.92-.39,1.27-.7S9,8,9.36,8s.52.47.67.86A1.58,1.58,0,0,0,12.23,10a2.07,2.07,0,0,0,.91-1.12c.07-.21.1-.8.31-.85s.63.85.75,1a1.32,1.32,0,0,0,1.17.79,1.09,1.09,0,0,0,1-.6c.16-.29.17-1.08.42-1.25.5-.34,1.6.87,2,1.12l.19.11a6.52,6.52,0,0,1,.5,1.25A18,18,0,0,1,20,14,22.74,22.74,0,0,1,20.1,17.48Z" transform="translate(-0.02)"/><rect class="a" x="3.39" width="17.7" height="22.52"/><path class="j" d="M12.27,11.2a8.47,8.47,0,0,0-1,.06,7.4,7.4,0,0,0-1,.18,6.47,6.47,0,0,0-.91.3,5.27,5.27,0,0,0-.79.39,4.76,4.76,0,0,0-.65.48,3.11,3.11,0,0,0-.48.56,2.53,2.53,0,0,0-.3.59,2.23,2.23,0,0,0-.1.62,2.17,2.17,0,0,0,.1.62,2.41,2.41,0,0,0,.3.6,2.75,2.75,0,0,0,.48.55,4.09,4.09,0,0,0,.65.49,8.29,8.29,0,0,0,.79.39,6.47,6.47,0,0,0,.91.3,7.4,7.4,0,0,0,1,.18,8.62,8.62,0,0,0,2,0,7.4,7.4,0,0,0,1-.18,6.47,6.47,0,0,0,.91-.3,7.26,7.26,0,0,0,.79-.39,4.09,4.09,0,0,0,.65-.49,2.75,2.75,0,0,0,.48-.55,2.41,2.41,0,0,0,.3-.6,2.17,2.17,0,0,0,.1-.62,2.23,2.23,0,0,0-.1-.62,2.53,2.53,0,0,0-.3-.59,3.11,3.11,0,0,0-.48-.56,4.76,4.76,0,0,0-.65-.48,4.84,4.84,0,0,0-.79-.39,6.47,6.47,0,0,0-.91-.3,7.4,7.4,0,0,0-1-.18A8.43,8.43,0,0,0,12.27,11.2Z" transform="translate(-0.02)"/><path class="k" d="M8.92,15.25s-.05,0,0-.05a3.57,3.57,0,0,1,1.38-1.88.66.66,0,0,1,.2-.06c.11,0,.15,0,.15.14v0a2,2,0,0,1-.53,1,2.64,2.64,0,0,1-1.15.81ZM8.41,16.7a.09.09,0,0,0,.09-.05.44.44,0,0,0,.07-.22l.19-.83a.24.24,0,0,1,0-.08.08.08,0,0,1,0-.07,1.73,1.73,0,0,1,.32.11l.18.07.18.07a.86.86,0,0,0,.32.05,1.24,1.24,0,0,0,.72-.24l.57-.44A.2.2,0,0,0,11.2,15a.14.14,0,0,0,0-.07s0-.06-.06-.06h0l-.05,0-.29.23-.3.24a1.19,1.19,0,0,1-.69.25l-.21,0a2.11,2.11,0,0,1-.47-.19,0,0,0,0,1,0,0l0,0,0,0,0,0a3.2,3.2,0,0,0,1.38-1.37,1.75,1.75,0,0,0,.12-.32.57.57,0,0,0,0-.29.2.2,0,0,0-.2-.19c-.6,0-1.17.76-1.45,1.28a.33.33,0,0,1,0-.14.56.56,0,0,0,0-.12c.11-.45.23-.9.35-1.35a.26.26,0,0,0,0-.15.12.12,0,0,0-.05-.05h0s0,0,0,0a.25.25,0,0,0,0,.11l0,.11c-.12.53-.25,1-.4,1.56-.07.24-.13.49-.19.74a6.18,6.18,0,0,1-.23.73,1.87,1.87,0,0,0-.14.62.65.65,0,0,0,0,.14A.11.11,0,0,0,8.41,16.7Z" transform="translate(-0.02)"/><path class="k" d="M11.15,15.19h0s0,0,0,0c.06-.17.25-.45.43-.47s0,0,.05,0S11.3,15.11,11.15,15.19Zm0,.67c.38,0,1-.56,1.23-.84,0,0,0,0,0-.06s0-.05,0-.08l0,0-.05,0,0,0-.05.05-.19.18-.2.19a1.48,1.48,0,0,1-.64.37c-.1,0-.16,0-.19-.13a.31.31,0,0,1,0-.19s0,0,0-.05a.9.9,0,0,0,.66-.62.17.17,0,0,0-.17-.21h0c-.29,0-.51.43-.6.69a.53.53,0,0,0,0,.25.42.42,0,0,0,0,.19A.26.26,0,0,0,11.2,15.86Z" transform="translate(-0.02)"/><path class="k" d="M12.55,15.87h0a1.59,1.59,0,0,0,.71-.27,8.47,8.47,0,0,0,.76-.58l0,0,0,0a.11.11,0,0,0,0-.08.05.05,0,0,0,0,0h0l0,0,0,0-.29.22a3.11,3.11,0,0,1-.28.23,2,2,0,0,1-.73.34h-.07c-.21,0-.31-.12-.25-.36a1.31,1.31,0,0,1,.39-.65.25.25,0,0,1,.16-.08.1.1,0,0,1,.1.11.24.24,0,0,1,0,.2l0,.05a.07.07,0,0,0,0,.06,0,0,0,0,0,0,0h0l0,0a.51.51,0,0,0,.11-.39.25.25,0,0,0-.25-.18.28.28,0,0,0-.2.09,1.5,1.5,0,0,0-.47.78.19.19,0,0,0,0,.08A.36.36,0,0,0,12.55,15.87Z" transform="translate(-0.02)"/><path class="k" d="M14.05,15.19h0a0,0,0,0,1,0,0c.06-.17.25-.45.43-.47s.05,0,.05,0S14.19,15.11,14.05,15.19Zm0,.67c.38,0,1-.56,1.22-.84a.13.13,0,0,0,0-.06.07.07,0,0,0,0-.08.05.05,0,0,0,0,0l0,0,0,0-.06.05-.19.18-.2.19a1.44,1.44,0,0,1-.63.37c-.11,0-.17,0-.19-.13a.32.32,0,0,1,0-.19.06.06,0,0,1,.05-.05.89.89,0,0,0,.65-.62c0-.13-.05-.21-.16-.21h-.05c-.29,0-.5.43-.6.69a1,1,0,0,0,0,.25.43.43,0,0,0,0,.19A.25.25,0,0,0,14.1,15.86Z" transform="translate(-0.02)"/><path class="k" d="M15.73,14.11a.14.14,0,0,1,0-.11,5.62,5.62,0,0,1,.38-.78s0,0,.06,0h0v0h0l-.15.3c-.11.21-.21.42-.32.62Zm-.45,2.28c.11,0,.29-.19.35-.28s.23-.32.36-.49.23-.32.35-.47l.08-.14a.08.08,0,0,0,0-.07,0,0,0,0,0,0-.06h0s-.09.09-.11.12c-.24.33-.52.73-.78,1.06,0,0-.13.17-.18.17a0,0,0,0,1-.05,0,.62.62,0,0,1,0-.33,3,3,0,0,1,.29-1.24A6.54,6.54,0,0,0,16.37,13a.09.09,0,0,0-.05-.11h0l-.07,0a5.15,5.15,0,0,0-.86,1.72,1,1,0,0,1-.15.34s0,.06,0,.09a.17.17,0,0,1,0,.18,3.5,3.5,0,0,0-.09.75v.19C15.12,16.25,15.17,16.39,15.28,16.39Z" transform="translate(-0.02)"/><g class="l"><path class="m" d="M5.82,14.64a.57.57,0,0,0-.24-.22,1.12,1.12,0,0,0-.24-.13.57.57,0,0,0-.29,0,.55.55,0,0,0-.53.39,1,1,0,0,0-.45-.15,1.3,1.3,0,0,0-1,.39c-.1.11-.11.14-.26.11a1.21,1.21,0,0,0-.75.09.87.87,0,0,0-.44.5,1.11,1.11,0,0,0,0,.36,1,1,0,0,0-.35.22c-.17.16-.11.27-.12.48-.14,0-.28,0-.4.1a.36.36,0,0,0-.13.32c0,.14.12.54.33.53A.67.67,0,0,0,.74,18,1,1,0,0,0,1,18.7a.6.6,0,0,0-.22.42,1.1,1.1,0,0,0,.12.69,1.21,1.21,0,0,0,.3.25c.08,0,.19,0,.2.11s-.08.18-.08.26a.69.69,0,0,0,0,.25c.11.23.39.3.59.41s.07.12,0,.28c-.06.36.41.68.78.61a.5.5,0,0,0,.1.51l.11.13.35.15h.13s0,0,0,0a2.24,2.24,0,0,0,1.47,0q.66-.24,1.32-.51a.76.76,0,0,0,.06-.25,1.63,1.63,0,0,0,.62-.27.81.81,0,0,0,.22-.3c.05-.1.05-.24.09-.33s.17-.09.26-.17a1.05,1.05,0,0,0,.18-.25,1.33,1.33,0,0,0,.16-.7c.32,0,.5-.48.56-.73a.73.73,0,0,0,0-.36c0-.1-.07-.2-.05-.28s.14-.17.18-.27a1.17,1.17,0,0,0,0-.32c0-.21-.05-.51-.32-.55a1,1,0,0,0,.07-.94c-.08-.15-.29-.19-.38-.33s0-.29-.09-.42a.71.71,0,0,0-.43-.34,1,1,0,0,0-1.59-.85" transform="translate(-0.02)"/><path class="n" d="M2,15.92a1,1,0,0,1,.85.05,1.11,1.11,0,0,1,.5.48c.07,0,.1-.19.17-.24A.93.93,0,0,1,3.94,16a.72.72,0,0,1,.5.07,1.27,1.27,0,0,1,.36.33A.7.7,0,0,1,5.24,16a.79.79,0,0,1,.43,0,3.49,3.49,0,0,1,.34.15.38.38,0,0,1,0-.4c.06-.08.32-.28.43-.2-.17.06-.35-.17-.38-.3a.83.83,0,0,1-.27.12.67.67,0,0,1-.52-.06.29.29,0,0,1-.12-.07s0-.09-.08-.08-.13.08-.16.09a.55.55,0,0,1-.22.06.57.57,0,0,1-.41,0s-.08-.1-.12-.1-.09,0-.13.07-.57.35-.69.12c-.11.08-.19.2-.34.24a1.38,1.38,0,0,1-.2,0H2.73s0,0-.06,0-.11.09-.17.12l-.19.07a1.69,1.69,0,0,1-.34.11l0,0" transform="translate(-0.02)"/><path class="m" d="M1.65,15.67c0-.07-.24,0-.32,0a.76.76,0,0,0-.41.13.59.59,0,0,0-.27.69c-.28,0-.5.33-.57.55a1,1,0,0,0,0,.48.83.83,0,0,0,.21.43.65.65,0,0,0-.18.53c0,.27.27.46.35.71s0,.3,0,.45a.88.88,0,0,0,.44.45,1.25,1.25,0,0,0,.51,0c.28,0,.32-.34.34-.55a3.4,3.4,0,0,1,.06-.46A3.89,3.89,0,0,1,2,18.48a2.49,2.49,0,0,0,.09-1.38,3.76,3.76,0,0,1-.13-.48,2.14,2.14,0,0,0-.08-.44,2.8,2.8,0,0,1-.22-.57v.06" transform="translate(-0.02)"/><path class="m" d="M1.17,19.92a1,1,0,0,0,.56,1.37c.35.14.75.05.81-.35a1.14,1.14,0,0,0-.69-1.1.62.62,0,0,0-.73.17l0-.09" transform="translate(-0.02)"/><path class="n" d="M4.82,16.41c0,.46.29,1.11.89,1.06a.6.6,0,0,0,.53-.74.25.25,0,0,0,0,.11c.11-.29.49-.39.77-.44a.93.93,0,0,0-.49.35,1.09,1.09,0,0,0-.08.47.62.62,0,0,0,.51.65c-.09.1-.28.07-.39,0a1.39,1.39,0,0,1-.21-.21c-.06-.06-.14-.11-.2-.18a.62.62,0,0,1-.69.21c-.09,0-.22-.14-.31-.13s-.19.21-.2.3,0,.52-.06.53-.18-.35-.19-.41a.68.68,0,0,1,.1-.41c.06-.13,0-.21,0-.35a2.74,2.74,0,0,1,0-.81h.05" transform="translate(-0.02)"/><path class="n" d="M6.4,17.78a1.26,1.26,0,0,1,.14.74,1,1,0,0,1-.53.59.72.72,0,0,1-.82,0,.38.38,0,0,0,.28.29c.11,0,.4.09.5,0,0,.1,0,.2,0,.3s.13.44.29.46c0-.12-.06-.25-.06-.37a.56.56,0,0,1,.12-.26,2.9,2.9,0,0,0,.06.41,1,1,0,0,0,.55.48c.38.15.9-.29.77-.67a1,1,0,0,1-.36.21.57.57,0,0,1-.5-.19.86.86,0,0,1-.25-.48.83.83,0,0,1,.27-.49c.14-.14.28-.23.48-.13a.41.41,0,0,1,.19.2s0,.16,0,.18.31-.41,0-.47c.19.06.34.16.54.06s.22-.2.17-.32H8.2c.13,0,.13-.17.1-.27s-.1.12-.14.19a.28.28,0,0,1-.23.16c-.14,0-.33,0-.32-.15s.18-.2.28-.27a.58.58,0,0,0,.22-.41c-.14,0-.15.11-.25.19a.78.78,0,0,1-.37.13.88.88,0,0,1-.36,0,1.46,1.46,0,0,0-.3-.07.3.3,0,0,1,.1.23c0,.11-.06.13-.17.13s-.14-.3-.36-.33v0" transform="translate(-0.02)"/><path class="n" d="M6.13,20.51a.67.67,0,0,0-.29.36,1.2,1.2,0,0,0,0,.33c0,.1,0,.23-.1.26h-.2c-.08,0-.12.09-.17.14a.83.83,0,0,1-.38.1.48.48,0,0,1-.41-.24.62.62,0,0,0,.11.19,2.33,2.33,0,0,0,.17.26c.08.1.17.08.17.22a1.6,1.6,0,0,0-.42.14c-.1.06-.29.25-.43.13,0,.1-.11.24-.19.27a.38.38,0,0,1-.21,0,.28.28,0,0,0-.2,0,.49.49,0,0,0,.3.1c.1,0,.2-.06.28-.06a1.7,1.7,0,0,1,0,.22h.14s0-.08,0-.12a.63.63,0,0,1,.34-.41c.07,0,.19-.08.26,0s.09.14.12.2a.53.53,0,0,0,.12.14l.18-.07-.1-.07a.38.38,0,0,1-.1-.35.64.64,0,0,1,.36-.47.55.55,0,0,1,.51.08.65.65,0,0,0,.56.06c.25-.06.25-.24.32-.43a.58.58,0,0,1-.54.3.52.52,0,0,1-.43-.5.82.82,0,0,1,.25-.69,1,1,0,0,1,.66-.17.83.83,0,0,0-.79.13" transform="translate(-0.02)"/><path class="n" d="M6.79,20.38a.71.71,0,0,1,.15.88.62.62,0,0,1-.47.25.78.78,0,0,1-.21,0,.58.58,0,0,0-.26,0c0,.44.63.47.92.22s.14-.34.25-.52.37-.16.48-.34a1,1,0,0,0,.12-.73c-.09,0-.07.25-.1.32a.4.4,0,0,1-.33.24A.45.45,0,0,1,7,20.52s-.17-.18-.2-.18l0,0" transform="translate(-0.02)"/><path class="n" d="M3.4,16.4a1.38,1.38,0,0,0,.16.69.85.85,0,0,0,.72.31c.44,0,.55-.41.51-.76,0,.2.06.4.07.6s-.1.2-.27.22a1.23,1.23,0,0,0-.84.47.89.89,0,0,0-.13.86.68.68,0,0,0,.74.46c.39-.09.53-.64.55-1a2.43,2.43,0,0,0,.22.74,4.13,4.13,0,0,1-.49.32,1.14,1.14,0,0,1-.85.09c-.53-.2-.47-1-.29-1.41a.37.37,0,0,0-.12-.53c0,.07,0,.17-.09.22a.73.73,0,0,1-.35.12.61.61,0,0,1-.5-.13,1.1,1.1,0,0,1-.23-.2s-.07-.1-.11-.14a.68.68,0,0,0,.71.07A.66.66,0,0,0,3.12,17a1.21,1.21,0,0,0,.07-.37s0-.17,0-.19,0,0,.07,0,.06,0,.08,0h0" transform="translate(-0.02)"/><path class="n" d="M7.34,15.47c-.08,0-.1.12-.2.16a1.75,1.75,0,0,1-.33,0,.49.49,0,0,1-.39-.11A.56.56,0,0,1,7,16c0,.18-.06.33-.08.49a.54.54,0,0,1,.52-.1.49.49,0,0,1,.36.42c0-.09,0-.17.09-.16a.36.36,0,0,1,.21.19.91.91,0,0,1,0,.74,1.41,1.41,0,0,0,.14-.44c0-.14.12-.38,0-.52s-.09,0-.13,0-.08.05-.13,0-.1-.23-.15-.32-.1.05-.14.08.21-.51,0-.45,0,.19,0,.23a.21.21,0,0,1-.22.13c-.19,0-.22-.22-.24-.36s.09-.29.09-.45h0" transform="translate(-0.02)"/><path class="o" d="M1.36,15.67a.56.56,0,0,1,0-.44A.59.59,0,0,1,1.86,15c.1,0,.09,0,.17-.08a.68.68,0,0,1,.25-.09.81.81,0,0,1,.53.09A.46.46,0,0,1,3,14.53a.79.79,0,0,1,.58-.12c.09,0,.15,0,.24-.06a.83.83,0,0,1,.35,0,.47.47,0,0,1,.33.43c0-.11-.27-.14-.36-.16a1.62,1.62,0,0,0-.49,0,.93.93,0,0,0-.44.2A.54.54,0,0,0,3,15.2c-.13-.08-.16-.13-.33-.12a1.87,1.87,0,0,0-.4.07c-.23.09-.49.26-.48.52-.1,0-.13-.06-.25-.05l-.26,0h.05" transform="translate(-0.02)"/><path class="n" d="M2,15.92c-.12,0-.3.25-.33.34a2.54,2.54,0,0,0,0,.55s-.07-.14-.12-.2a.45.45,0,0,0-.28-.12,1.67,1.67,0,0,0-.5,0c.47,0,1.05.6.71,1-.17.21-.47.2-.72.24s-.39.05-.36.26a1.86,1.86,0,0,0,.41-.08c.16,0,.3-.16.44-.18s.06.52.18.45,0-.26,0-.33a.35.35,0,0,1,.1-.19A.71.71,0,0,0,2,18c.07,0,.6,0,.59-.09s-.28-.11-.34-.14a.81.81,0,0,1-.38-.35.94.94,0,0,1,.23,0c.16,0,.34,0,.41-.07-.17-.07-.51-.07-.6-.25s0-.1,0-.17a.54.54,0,0,0-.05-.21c-.07-.25.06-.77.39-.8l-.27,0" transform="translate(-0.02)"/><path class="n" d="M2.44,17.86c-.27,0-.47.26-.55.48a1.29,1.29,0,0,0,.13,1,.79.79,0,0,0,.81.34,1.3,1.3,0,0,0,.54-.35.92.92,0,0,0,.5,1.32.74.74,0,0,0,.94-.58.66.66,0,0,0,.49.6c.23.07.61.14.75-.11a.68.68,0,0,1-.54-.08c-.12-.08-.36-.35-.23-.5s.14,0,.21,0a.18.18,0,0,0,.2-.12,3.54,3.54,0,0,0,.25-.52,2.38,2.38,0,0,1-.35.36c-.1.09-.38.26-.53.18S5,19.67,5,19.56s0-.33-.07-.37c-.13.37-.38,1.2-.94,1.14a.5.5,0,0,1-.47-.42c0-.08-.09-.23,0-.3s.23-.05.32,0-.15-.14-.23-.19-.08-.1-.1-.19A1.69,1.69,0,0,1,3.38,19c0-.08,0-.2-.09-.25,0,.31-.09.65-.49.63s-.52-.27-.58-.6-.1-.59.23-.62.88-.09.93-.54c-.07,0-.13.12-.2.16a.63.63,0,0,1-.33.12.8.8,0,0,1-.31,0s-.07-.12-.14-.09l0,.14" transform="translate(-0.02)"/><path class="n" d="M1,17.77c.13,0,.18,0,.22.14a.45.45,0,0,0,.16.27.58.58,0,0,1,.19.56c-.05.23-.31.35-.53.41A.77.77,0,0,1,.49,19c0,.26.39.29.59.28A.83.83,0,0,0,1.63,19c.05.12.28.41.44.34s-.12-.22-.17-.31-.2-.3-.16-.44A1.25,1.25,0,0,1,2,18.27c0-.06.09-.17.16-.21s-.27.17-.34.17a.36.36,0,0,1-.31-.13.94.94,0,0,1-.17-.31c-.05-.1-.31-.09-.29,0v-.06" transform="translate(-0.02)"/><path class="n" d="M1.45,19.1c.12-.05.18.17.19.25s0,.2-.06.3-.4.3-.38.47c0-.12.35-.31.46-.35s.31,0,.36.11c.13-.12.37.08.19.2a.64.64,0,0,1,.2.11s0,.12,0,.17.11.23.07.37a.79.79,0,0,1-.52.49s0,0,0,0c.23,0,.55-.17.59-.41,0,.11.13.2.23.23s.37.06.44,0,0-.07,0-.11.06-.06.1-.09a.23.23,0,0,0,.09-.28c-.12.14-.34.34-.56.29s-.26-.34-.31-.47A.31.31,0,0,1,2.81,20c.12,0,.2,0,.29-.12a.61.61,0,0,0,.13-.31.67.67,0,0,1-.41.26c-.1,0-.44.1-.42-.09.07,0,.34,0,.29-.14a.74.74,0,0,0-.21,0H2.32c0-.06,0-.13,0-.2a.7.7,0,0,1-.3-.06.48.48,0,0,1-.15-.22c0-.12,0-.19-.2-.16s-.16.13-.14.27l0-.14" transform="translate(-0.02)"/><path class="n" d="M2.51,20.87a.47.47,0,0,1,.38.56.85.85,0,0,1-.1.28,2,2,0,0,0-.11.2.56.56,0,0,0,.24-.16.58.58,0,0,0,0,.14c.07,0,0-.09.15-.1a.91.91,0,0,1,.23,0s0,.06,0,.1a.3.3,0,0,0,0,.1h.09a.72.72,0,0,0,.21.59.43.43,0,0,0,.38.15c.1,0,.14-.09,0-.11H3.91c-.06,0-.13,0-.18,0s-.09-.22-.11-.31,0-.4.19-.3c0-.05,0-.09,0-.14S3.91,22,4,22s.07-.06.07-.15,0-.15.13-.18a.4.4,0,0,1,.15,0c.1,0,.1,0,.17.06s.17,0,.19-.15c-.18,0-.34.09-.47-.08.2-.07.4-.12.43-.35s0-.49-.16-.51a.77.77,0,0,1-.62,1c-.35.09-.62-.31-.63-.6,0,0,0,.1,0,.12a.28.28,0,0,1-.22,0,3.09,3.09,0,0,1-.43-.14l-.05,0" transform="translate(-0.02)"/><path class="n" d="M4.86,20.36c-.18,0-.22.29-.24.43a1,1,0,0,0,.13.61c.24.35.87.24,1.11,0,0,.15-.21.3-.33.35a1.65,1.65,0,0,1-.5.1.68.68,0,0,1-.46-.14l-.21-.15c-.07,0-.15,0-.21-.07a1,1,0,0,0,.36-.59c0-.1,0-.21.07-.32a.28.28,0,0,1,.06-.15s.09-.08.09-.12l.13.09" transform="translate(-0.02)"/><path class="p" d="M3.63,16.16c-.25.13-.21.49-.11.7a.72.72,0,0,0,.38.35.56.56,0,0,0,.73-.64c-.06.05-.08.18-.13.25a.35.35,0,0,1-.27.14c0-.08,0-.16,0-.23a.69.69,0,0,0,0-.25c-.09,0-.11.11-.13.23s0,.24-.17.22a.57.57,0,0,1,0-.34c-.07.06-.11.15-.19.21-.13-.09-.36-.59-.1-.66v0" transform="translate(-0.02)"/><path class="p" d="M2.09,15.89s0,0,0,0c-.25.45-.42,1.11.12,1.45a.56.56,0,0,0,.72-.1.87.87,0,0,0,.25-.78c-.1.18-.17.53-.45.52,0-.1.06-.26,0-.36-.07.06-.21.45-.35.37s.07-.4,0-.51c0,.06-.07.28-.12.3s-.17-.23-.18-.3a.83.83,0,0,1,0-.35,1.13,1.13,0,0,1,.12-.21H2.09" transform="translate(-0.02)"/><path class="p" d="M.63,16.49c-.28,0-.39.26-.46.46a.6.6,0,0,0,0,.69A.65.65,0,0,0,1,17.7c.16-.07.52-.13.59-.31s-.18-.51-.38-.62c0,.12.12.24.09.36A.26.26,0,0,1,1,17.3c-.09-.2,0-.4-.08-.59-.26-.07-.12.55-.18.62s-.17-.13-.18-.19.05-.23.05-.35c-.11.06-.08.34-.2.36s-.1-.26-.07-.38a1.13,1.13,0,0,1,.19-.31l.09,0" transform="translate(-0.02)"/><path class="p" d="M.93,17.82a1.55,1.55,0,0,0-.57.09.49.49,0,0,0-.14.64c.05,0,.1-.2.14-.25s.13-.17.19-.17a.86.86,0,0,0,0,.28c0,.05,0,.19.06.21.09-.15.05-.34.23-.46,0,.14,0,.29,0,.43s.12-.35.25-.39a.92.92,0,0,1,.19.48c0,.16-.15.29-.13.44.45,0,.45-.57.4-.86a.77.77,0,0,0-.27-.42.38.38,0,0,0-.49,0l.13,0" transform="translate(-0.02)"/><path class="p" d="M2.35,18.13c-.3,0-.31.52-.17.69s.16,0,.15-.11a.27.27,0,0,1,.08-.29c0,.07,0,.35.17.29s.09-.23.15-.29,0,.29.08.32.13-.19.18-.21a.73.73,0,0,1,0,.33c0,.11-.07.28,0,.38.35,0,.32-.49.26-.73,0-.06,0-.07,0-.13s.07-.07.09-.13a.87.87,0,0,0,0-.36c-.1.05-.13.17-.23.24a.87.87,0,0,1-.36.09.39.39,0,0,1-.26,0,1.31,1.31,0,0,0-.21-.08,0,0,0,0,0,0,0l.09,0" transform="translate(-0.02)"/><path class="p" d="M.6,19.13c-.12.05-.07.38,0,.46.07.25.26.34.46.48.06-.08-.09-.21-.14-.27a.36.36,0,0,0,.42.12.92.92,0,0,1,0-.33.13.13,0,0,1-.14.14c-.12,0-.19-.08-.25-.16s-.11-.19-.05-.24.2,0,.25,0a0,0,0,0,0,0,0,1.37,1.37,0,0,1-.35,0c-.09,0-.16-.1-.25-.07l.09,0" transform="translate(-0.02)"/><path class="p" d="M1.65,19.81c-.28-.08-.46.28-.49.48a.75.75,0,0,0,.57.9c-.15-.16-.45-.43-.24-.64,0,.05.11.26.19.25s0-.22,0-.27,0-.19.06-.14.07.12.13.14A.87.87,0,0,1,2,20.36c.09.07.11.26.14.36s0,.22.09.32.13-.32.13-.42a.48.48,0,0,0-.15-.39c0,.06,0,.23-.12.18s-.11-.26-.14-.34A.27.27,0,0,1,1.72,20s-.05-.14-.13-.12l.06,0" transform="translate(-0.02)"/><path class="p" d="M4.1,17.66a.5.5,0,0,0-.32.28,1,1,0,0,0-.13.64,1,1,0,0,0,.11.28s.08.16.13.16.1-.2.1-.26,0,.16.08.22a.42.42,0,0,0,.34.08.58.58,0,0,0,.35-.53.34.34,0,0,1-.32.18c-.06-.14.1-.3.07-.44-.11.06-.14.22-.25.29a.67.67,0,0,1,0-.42.55.55,0,0,1-.2.25c-.11.05-.12-.07-.12-.16A1,1,0,0,1,4,17.89a1.13,1.13,0,0,0,.08-.24h0" transform="translate(-0.02)"/><path class="n" d="M1.35,15.62c-.17,0-.22.2-.23.32s.09.63.25.33S1.76,16,2,16c.07,0,.21,0,.14-.12s-.24-.08-.29-.21,0-.21.13-.17.07.09.12.12a.33.33,0,0,0,.15.05,1.31,1.31,0,0,0,.28,0,.47.47,0,0,0,.26-.14c.06-.09-.07-.14-.07-.25.24,0-.1-.24,0-.35s.09,0,.13-.06,0,0,.05-.08a.44.44,0,0,1,.26-.16c-.18.24.26.43.45.45a.71.71,0,0,0,.49-.12,1.07,1.07,0,0,0,.16-.14s.06-.13.1-.14.27.56.14.6-.19-.07-.27-.08-.17.06-.25.13a.61.61,0,0,1-.58.16.74.74,0,0,0-.33,0c-.08,0-.12.13-.17.2a.46.46,0,0,0-.11.16s0,.14,0,.15-.2-.07-.24-.07a.35.35,0,0,0-.3,0,1.57,1.57,0,0,0-.58,1,.67.67,0,0,0-.47-.39A1.38,1.38,0,0,0,1,16.47l-.28,0A.59.59,0,0,1,.76,16a1.87,1.87,0,0,1,.33-.3.42.42,0,0,1,.18-.08h.16l-.08,0" transform="translate(-0.02)"/><path class="p" d="M3.53,19.5c-.23.28,0,.77.38.85.51.13.79-.41.79-.82a1.61,1.61,0,0,0-.17.28c0,.05-.15.18-.23.17s0-.21,0-.31a.35.35,0,0,0-.12.15s0,.12-.09.14S4,19.74,4,19.69s-.08.17-.12.19-.1,0-.14-.08a3.88,3.88,0,0,1-.23-.33,0,0,0,0,0,0,0h0" transform="translate(-0.02)"/><path class="p" d="M3.57,20.57c-.36.11-.25.74,0,.9a.6.6,0,0,0,.68,0c.13-.12.37-.66.08-.74-.09.16-.06.36-.21.49S4,21,4,20.92s-.08.27-.15.26,0-.22-.07-.26-.07.21-.13.1,0-.34-.09-.36l.06-.09" transform="translate(-0.02)"/><path class="p" d="M3.5,22.83a.15.15,0,0,1,0-.07c0-.07.06-.15,0-.21l-.09,0a.21.21,0,0,1-.11,0,.45.45,0,0,1-.23-.2c0-.1.08,0,.11-.08s-.11-.12-.11-.19.11,0,.14,0a.07.07,0,0,0,0-.11C3.16,22,3,22,2.92,22s0-.1,0-.15,0,0,0-.08a.08.08,0,0,0-.09-.07c-.11,0-.09.09-.16.11s-.16-.11-.19-.14-.06-.09,0-.15.08-.05.07-.08-.1-.05-.11-.07-.06-.08,0-.16.08-.2,0-.22l0-.06c-.29.05-.55.22-.52.52a.65.65,0,0,0,.69.48.62.62,0,0,0,0,.19.65.65,0,0,0,.08.27l.11.15a3.81,3.81,0,0,0,.66.27" transform="translate(-0.02)"/><path class="p" d="M5.16,17.53a1.18,1.18,0,0,0-.15.84.89.89,0,0,0,.48.72.76.76,0,0,0,.87-.29.88.88,0,0,0,0-.9s0,.1,0,.14a2.48,2.48,0,0,1,0,.27c0,.1-.09.29-.21.34s0-.2,0-.29,0-.22,0-.27,0,.09,0,.13l0,.24c0,.08,0,.26-.15.28a1.1,1.1,0,0,1,0-.36.89.89,0,0,0,0-.23c-.14,0-.09.4-.22.4s0-.37-.07-.42-.11.23-.16.24-.13-.17-.15-.21-.1-.23-.14-.34,0-.16,0-.2l.06-.09" transform="translate(-0.02)"/><path class="p" d="M4.76,20.28a.72.72,0,0,0-.18.63.82.82,0,0,0,.27.59.82.82,0,0,0,.73,0,.74.74,0,0,0,.27-.68.62.62,0,0,1-.45.38c0-.09.2-.26.15-.37s-.15.15-.19.2a.53.53,0,0,1-.22.2.52.52,0,0,1,0-.25c0-.06.06-.15,0-.21L5.07,21A.39.39,0,0,1,5,21.1c-.09.07-.09-.07-.11-.12a3.15,3.15,0,0,1-.09-.42c0-.08,0-.19,0-.25v0" transform="translate(-0.02)"/><path class="p" d="M7.24,18.68c-.21-.15-.48.1-.58.26a.72.72,0,0,0,.11.89.78.78,0,0,0,1.06-.2c.13-.19.25-.53,0-.66a.69.69,0,0,1-.08.4.31.31,0,0,1-.18.16s-.1,0-.15.07,0-.14.06-.2a.45.45,0,0,0,0-.16c-.1.05-.17.29-.32.29s.12-.25.14-.36-.2.15-.3.21-.11,0-.12-.07A.42.42,0,0,1,6.94,19a1.29,1.29,0,0,1,.22-.3h.08" transform="translate(-0.02)"/><path class="p" d="M5.64,16.09c0-.15-.14-.14-.27-.12a.5.5,0,0,0-.38.36,1.22,1.22,0,0,0-.07.68.69.69,0,0,0,.41.44.65.65,0,0,0,.58-.05.75.75,0,0,0,.25-.59s0-.2-.06-.23,0,.09-.06.13a.47.47,0,0,1-.31.38c-.06-.17.06-.34,0-.51-.09.05-.09.23-.12.31s-.09.21-.17.21,0-.41,0-.49-.11.24-.18.24-.09-.2-.08-.25a.89.89,0,0,1,.17-.37c.06-.1.1-.08.19-.13h.09" transform="translate(-0.02)"/><path class="q" d="M4.79,16.34l-.07-.09.09.06s0,0,0,0" transform="translate(-0.02)"/><path class="r" d="M4.52,15.31a.4.4,0,0,1-.24-.07s0,0-.06-.06h0l.08.06.18,0,.08,0H4.52m.94,0a.23.23,0,0,1-.11,0,.28.28,0,0,1,.12,0h0a.19.19,0,0,1,0,.07M3,15.57a.38.38,0,0,1,.11-.11l.11,0h0a.62.62,0,0,1-.21.13H3m-1,.31s0,0,.05-.05l0,0,.05,0-.13,0m.12,0h0l0,0h0m-.08,0H2l.05,0,0,0H2m1.09.23a.31.31,0,0,1-.1,0,1.4,1.4,0,0,0-.62-.19H2.33a.34.34,0,0,1,.14,0h.09l.08,0a.6.6,0,0,0,.14.05h0L3,16l.16.12" transform="translate(-0.02)"/><path class="q" d="M5.2,15.86h0c0-.08.05-.18,0-.24a.09.09,0,0,0-.08,0c-.11,0-.29.14-.38.16a.3.3,0,0,0,0-.13c-.13,0-.27.19-.41.19h0c0-.06,0-.12,0-.18s-.21.06-.32.07c0-.18-.19-.15-.33-.17,0,0,0,0,0,0A.56.56,0,0,0,4,15.31a.43.43,0,0,1,.21-.13s0,.05.06.06a.4.4,0,0,0,.24.07h.06l.06,0s0,.05.07.05h0c.12,0,.21-.17.34-.17h0c0,.11-.1.22-.08.32H5a.41.41,0,0,0,.21-.1l.14-.11a.23.23,0,0,0,.11,0c0,.12-.14.27,0,.28h0a.73.73,0,0,0,.36-.11c.06,0,.17-.17.24-.17h0c.08,0,.06.13,0,.18s-.14.16-.23.21h0a.13.13,0,0,0,0-.08c-.24,0-.42.18-.65.18M2,15.91s0,0,0,0l.13,0v0H2.07v0l-.05,0m1.19,0c-.12-.05-.12-.14-.28-.14H2.84a.94.94,0,0,1,.09-.12L3,15.57H3a.62.62,0,0,0,.21-.13,1.46,1.46,0,0,1,.22,0l.11,0h0l.1,0a.64.64,0,0,1-.18.23l-.08,0c-.06,0-.09-.06-.13-.13a.54.54,0,0,0,0,.28m.19.39a1.91,1.91,0,0,0-.27-.16L3,16a1.19,1.19,0,0,1,.43.28" transform="translate(-0.02)"/><path class="q" d="M2,15.92H2" transform="translate(-0.02)"/><path class="s" d="M2.11,15.92H2l0,0v0h.08v0h0" transform="translate(-0.02)"/><path class="q" d="M2.15,15.92v0l0,0h0v0l-.05,0c.16-.1.37-.07.54-.15a.19.19,0,0,1,.1,0h.15c.11,0,.08-.12.05-.22s-.1-.37,0-.37H3c.15,0,.24.28.28.39s.13-.19.18-.19h0c.06,0,.06.1.07.13a.09.09,0,0,0,.09,0c.14,0,.39-.28.5-.28H4a.15.15,0,0,1,.11,0,.27.27,0,0,1,.15.05l0,0h0a.43.43,0,0,0-.21.13.56.56,0,0,1-.39.17,0,0,0,0,0,0,0l-.09,0-.11,0a1.46,1.46,0,0,0-.22,0h0l-.11,0a.38.38,0,0,0-.11.11l-.06.09a.94.94,0,0,0-.09.12.36.36,0,0,0-.27.12h-.1a.34.34,0,0,0-.14,0H2.15m.63.06a.6.6,0,0,1-.14-.05l.16,0h0" transform="translate(-0.02)"/><path class="q" d="M4.85,16.24a.41.41,0,0,1,.21-.2l-.14.11-.07.09" transform="translate(-0.02)"/><polyline class="r" points="5.74 16.01 5.73 16.01 5.73 16.01 5.74 16.01"/><path class="q" d="M5.83,16l-.07,0h0s0,0-.06-.06l0,0s.06.09.07.14" transform="translate(-0.02)"/><path class="p" d="M5.18,19.07a.32.32,0,0,0-.26.35c0,.12,0,.25.1.33s.07-.06.08-.13.18.13.24.09,0-.15,0-.17.35,0,.28-.17a.35.35,0,0,0-.14,0,.26.26,0,0,1-.21,0c-.07,0-.23-.26-.15-.32h.07" transform="translate(-0.02)"/><path class="p" d="M6.13,22.34A.61.61,0,0,0,6.22,22a.42.42,0,0,1-.34.39c0-.12.16-.29.08-.42-.1.08-.16.41-.33.39s0-.27.06-.4c0,.05-.06.13-.12.16s.14-.42.23-.37l.08,0c-.16-.12-.39,0-.51.15a.71.71,0,0,0-.15.59.27.27,0,0,0,.15.18l.76-.3" transform="translate(-0.02)"/><path class="p" d="M6.8,16.45c-.32,0-.38.52-.32.76a.78.78,0,0,0,.64.61A.77.77,0,0,0,8,17.46a.57.57,0,0,0-.23-.74s0,.08,0,.12a.73.73,0,0,1,.06.21c0,.09,0,.27-.16.31,0-.19.07-.49-.18-.56,0,.1,0,.2,0,.31s0,.25-.11.25c-.06-.17,0-.36-.06-.53-.09.13-.07.33-.21.44s-.16.06-.19,0a3.81,3.81,0,0,1-.13-.45c0-.13.06-.24,0-.36l0,0" transform="translate(-0.02)"/><path class="t" d="M7.69,20.23a.41.41,0,0,0-.07-.15v0h.08a1.11,1.11,0,0,1,0,.17" transform="translate(-0.02)"/><path class="u" d="M7.62,20.08l0,0h0v0" transform="translate(-0.02)"/><path class="v" d="M8.41,19.09a.77.77,0,0,0,0-.15c0-.07,0-.14-.05-.2a.36.36,0,0,1,.06.15.46.46,0,0,1,0,.2" transform="translate(-0.02)"/><path class="t" d="M6.22,17.06a.37.37,0,0,0-.07-.12.62.62,0,0,0,0-.13s0-.2-.06-.23h0s0,.1,0,.14a.14.14,0,0,1,0,.06A.41.41,0,0,0,6,16.66c-.08-.1-.57-.32-.55-.48s.09,0,.15-.08h.09s0,0,0,0h.19l.19.09,0-.08a.58.58,0,0,1,.34.09s0,.05.08.07a1.92,1.92,0,0,1,.11.37.53.53,0,0,0-.23.26.3.3,0,0,1,0-.1h0a.85.85,0,0,1,0,.32m-.15.25v0c0-.06.06-.08.1-.11a.64.64,0,0,1-.1.13h0m2.35.46a.69.69,0,0,1-.2-.13l0,0a.64.64,0,0,1,.15.13l0,0m-.21,1.82a.39.39,0,0,0,0-.14,2.32,2.32,0,0,0,0-.45c0-.18-.08-.21-.19-.33l.17,0a.31.31,0,0,1,.09.11c0,.06,0,.13.05.2a.77.77,0,0,1,0,.15.68.68,0,0,1-.11.33,1,1,0,0,1-.09.17" transform="translate(-0.02)"/><path class="u" d="M6,16.13,5.82,16H6l0,.08" transform="translate(-0.02)"/><path class="u" d="M6.24,16.74h0m-.17.57a.64.64,0,0,0,.1-.13l0-.05a.17.17,0,0,0,0-.07.85.85,0,0,0,0-.32.3.3,0,0,0,0,.1.53.53,0,0,1,.23-.26.37.37,0,0,1,0,.11,1.07,1.07,0,0,0-.06.27l0,.05a.74.74,0,0,1-.36.3" transform="translate(-0.02)"/><path class="w" d="M5.4,16.18s0-.05,0-.07a.35.35,0,0,1,.18-.06s0,0,0,0H5.55c-.06,0-.11,0-.15.08m.75.76-.08-.09L6,16.77a.14.14,0,0,0,0-.06s0-.14,0-.14h0c.05,0,.06.19.06.23a.62.62,0,0,1,0,.13" transform="translate(-0.02)"/><path class="v" d="M8.44,16.88a.53.53,0,0,0-.08-.17.44.44,0,0,0-.25-.31l0,0a.4.4,0,0,1,.27.33c0,.05,0,.09,0,.13" transform="translate(-0.02)"/><path class="t" d="M8.36,16.71a.29.29,0,0,0-.1-.12h0a.07.07,0,0,0-.06,0h0a.63.63,0,0,0-.31-.1.29.29,0,0,0,0-.09.69.69,0,0,1,.24,0,.44.44,0,0,1,.25.31" transform="translate(-0.02)"/><path class="u" d="M7.8,16.45l0-.11h0a.29.29,0,0,1,0,.09H7.8m.46.14-.06-.05h0a.07.07,0,0,1,.06,0h0" transform="translate(-0.02)"/><path class="v" d="M7.76,15.71l0,0,0,0" transform="translate(-0.02)"/><path class="t" d="M6.43,15.81l0,0c0-.08,0-.14.09-.17l.1,0a.64.64,0,0,1-.17.16m1.37,0a.52.52,0,0,0-.1-.11.18.18,0,0,0-.1,0H7.44a.16.16,0,0,1-.09,0s0-.08,0-.12a2.14,2.14,0,0,1,.31.06l.07,0,0,0a.5.5,0,0,1,0,.13" transform="translate(-0.02)"/><path class="u" d="M6.6,15.65l-.1,0,.06,0h.07l0,.07" transform="translate(-0.02)"/><path class="w" d="M6.46,17a1.07,1.07,0,0,1,.06-.27.48.48,0,0,1-.06.27" transform="translate(-0.02)"/><path class="t" d="M3.32,22.62h0a.49.49,0,0,1-.15-.09h0l0,0h.14v0a.33.33,0,0,0,0,.1h0" transform="translate(-0.02)"/><path class="v" d="M1.18,20.8A.52.52,0,0,1,1,20.47c0-.11.06-.24,0-.34A.5.5,0,0,1,.77,20a.34.34,0,0,0,.12.06.64.64,0,0,0,.2,0,.89.89,0,0,0,.09.71" transform="translate(-0.02)"/><path class="t" d="M2.88,19.33c0-.07,0-.14.1-.17a.19.19,0,0,0,0,.08H3s0,0,0,.05l-.16,0m.58.33s0,0,0,0a.06.06,0,0,0,0,0m1.69.24a.15.15,0,0,1-.09,0A.16.16,0,0,1,5,19.71l0,0a.06.06,0,0,0,.05,0s0-.1,0-.15.14.1.21.1h0s0-.15,0-.17a.11.11,0,0,0,.09,0c.1,0,.22-.09.2-.18h.16a.36.36,0,0,1,0,.1,2,2,0,0,1-.21.19.86.86,0,0,1-.44.2M4.31,20h0c0-.11,0-.21,0-.31a.35.35,0,0,0-.12.15s0,.12-.09.14h0C4,20,4,19.74,4,19.69s-.08.17-.12.19h0s-.08-.05-.11-.08a1.1,1.1,0,0,1-.17-.25h0l.18,0v0h.1l.11,0h.06a1.38,1.38,0,0,0,.58-.14A4.13,4.13,0,0,0,5.13,19L5,18.77l.08-.09a.71.71,0,0,0,.39.41.47.47,0,0,0,.17,0l0,.08H5.61a.66.66,0,0,1-.42-.15.38.38,0,0,0,.28.29l.06,0-.06,0-.12,0a.15.15,0,0,1-.09,0c-.07,0-.21-.24-.16-.31l.06,0H5.1a.29.29,0,0,0-.14.13s0,0,0,0a4.09,4.09,0,0,1-.29.71,1.21,1.21,0,0,0,.07-.37,1.61,1.61,0,0,0-.17.28c0,.05-.14.17-.22.17m1.06.4c-.1-.11-.18-.27-.09-.37a.09.09,0,0,1,.08,0h.12a.86.86,0,0,1,0,.23.56.56,0,0,1-.09.17m-.8.2,0,0,0,0h0v0m-2,.14a1.2,1.2,0,0,0-.68-.88l-.16-.05v0h.1a.22.22,0,0,1,.22.13.17.17,0,0,1,.1,0c.11,0,.23.14.09.23a.64.64,0,0,1,.2.11s0,.12,0,.17.11.23.07.36m.08.18h0s0,0,0,0a.09.09,0,0,0,0,0m2.3.19a1,1,0,0,1,0-.11,3.15,3.15,0,0,1-.09-.42,1.15,1.15,0,0,1,0-.18l.06,0-.09-.06h0a.65.65,0,0,0,0-.19.64.64,0,0,0,.23.46H4.91c-.11,0,0,.19,0,.26a.39.39,0,0,1,0,.28m-.86.12C4,21.21,4,21,4,20.92s-.08.26-.14.26h0c-.06,0,0-.22-.07-.26s0,.14-.08.14,0,0,0,0,0-.34-.09-.36l.06-.09-.07,0v0a.79.79,0,0,1-.49.3H2.93c-.16,0-.26-.34-.31-.47A.31.31,0,0,1,2.81,20c.12,0,.2,0,.29-.12a.61.61,0,0,0,.13-.31.67.67,0,0,1-.41.26,1.42,1.42,0,0,1-.25,0c-.1,0-.18,0-.17-.12l.13,0h.3a1.06,1.06,0,0,0,.41-.24l.08,0a.88.88,0,0,0,.55,1.18l.19,0a.79.79,0,0,0,.45-.13.68.68,0,0,1,0,.2.29.29,0,0,1,0,.09,2.31,2.31,0,0,1-.1.28c.07-.19.09-.4-.09-.45-.09.16-.06.36-.21.49a.09.09,0,0,1-.06,0m-.53.22a.67.67,0,0,1-.24-.38s0-.06,0-.1l0-.05a.71.71,0,0,0,.18.53m1.26,0v0h0m-2.06.39c-.06,0-.13-.11-.16-.14s-.06-.09,0-.15.08-.05.07-.08-.1-.05-.11-.07-.06-.08,0-.16.08-.19,0-.22a.41.41,0,0,0,.05-.09l0,0a.33.33,0,0,0,.19.14.44.44,0,0,1,.07.35.85.85,0,0,1-.1.28l-.07.12M4,22l-.16,0h0s0-.09,0-.13.12.09.2.09H4c.09,0,.07-.06.07-.15s0-.15.13-.18a.4.4,0,0,1,.15,0h0c.07,0,.07,0,.14.06h.05l.08,0s0,0-.05.05a1.4,1.4,0,0,1-.41.19A.55.55,0,0,1,4,22m-.71.36H3.15s0,0,0,0-.09-.12-.11-.18h0s.1,0,.13,0a.07.07,0,0,0,0-.11.12.12,0,0,0-.09,0H2.91a.1.1,0,0,1,0-.1H3c.07,0,0-.09.15-.1h.23s0,.06,0,.1a.3.3,0,0,0,0,.1h.09a.59.59,0,0,0,0,.32l-.06,0-.13,0m.38,0v0c0-.11.12-.19,0-.28l0,.05c0-.08,0-.16.12-.16h.07c-.11,0,0,.19,0,.27s0,.12-.12.13" transform="translate(-0.02)"/><path class="t" d="M.92,19.16a.59.59,0,0,1-.26-.07.13.13,0,0,1,.08,0,.49.49,0,0,1,.21.1h0m.77.63h0v0m-.8,0h0m.41.06a.7.7,0,0,1,0-.2.22.22,0,0,0,0-.08.22.22,0,0,0,0,.08.15.15,0,0,1-.13.06h0a.3.3,0,0,1-.24-.16c0-.06-.11-.19-.05-.24s.2,0,.25,0h0a.81.81,0,0,0,.35-.12l0,.08s0-.06,0-.09a.1.1,0,0,0,.05,0l0,0,.06.12a.22.22,0,0,1,0,.1c0,.13,0,.2-.06.3l-.21.18-.07,0M1.12,20h0l0-.07h0L1.12,20m0,.08a.64.64,0,0,1-.2,0A.34.34,0,0,1,.77,20a.78.78,0,0,1-.23-.52.27.27,0,0,0,0,.11c.07.25.26.34.46.48C1.07,20,1,19.9.9,19.83a.36.36,0,0,0,.26.11.43.43,0,0,0,0,.07h0l0,.08" transform="translate(-0.02)"/><path class="t" d="M1.3,19.9v0l.07,0a.46.46,0,0,1-.07.07M1.12,20a.43.43,0,0,1,0-.07h0l0,.07m0,0h0m.15.88a.46.46,0,0,0-.07-.07l0,0a.89.89,0,0,1-.09-.71l0-.08.08-.07h.08a.25.25,0,0,0-.08.19h0A.17.17,0,0,1,1.28,20a.64.64,0,0,0-.12.29.88.88,0,0,0,.11.6m.77.33-.24-.11a.1.1,0,0,0,0,.05H1.68c-.15-.17-.38-.41-.19-.6,0,.05.11.25.19.25h0c.07,0,0-.22,0-.27s0-.15,0-.15h0c.06,0,.07.12.13.14A.87.87,0,0,1,2,20.36c.09.07.11.26.14.36s0,.22.09.32.13-.32.13-.42a.48.48,0,0,0-.15-.39c0,.05,0,.19-.09.19h0c-.08,0-.11-.26-.14-.34A.27.27,0,0,1,1.72,20s-.05-.12-.12-.12h0l.06,0H1.59l0,0h.06l.16.05a1.2,1.2,0,0,1,.68.88h0a1,1,0,0,1-.14.24.61.61,0,0,0-.35.25H2" transform="translate(-0.02)"/><path class="u" d="M5.77,19.41H5.62a0,0,0,0,0,0,0H5.53l-.06,0a.38.38,0,0,1-.28-.29.66.66,0,0,0,.42.15H5.7v0a.56.56,0,0,1,.07.18h0" transform="translate(-0.02)"/><path class="u" d="M4.06,19.49H4a2.69,2.69,0,0,0,1-.71H5l.11.26a4.13,4.13,0,0,1-.49.32,1.38,1.38,0,0,1-.58.14" transform="translate(-0.02)"/><path class="u" d="M3.79,19.57l-.18,0h.18v0m-1.11.15H2.53c.09,0,.19-.05.16-.12h0l.11,0a.47.47,0,0,0,.1-.2l.16,0a.39.39,0,0,0,.2.18,1.06,1.06,0,0,1-.41.24H2.68m1.38,1-.19,0a.88.88,0,0,1-.55-1.18.58.58,0,0,0,.19,0,.36.36,0,0,0,0,.09s0,0,0,0a.64.64,0,0,0,.45.69l.15,0a.64.64,0,0,0,.57-.47,4.09,4.09,0,0,0,.29-.71s0,0,0,0a.38.38,0,0,0,0,.2.47.47,0,0,0,0,.29.16.16,0,0,0,.09.17.15.15,0,0,0,.09,0,.86.86,0,0,0,.44-.2,2,2,0,0,0,.21-.19.26.26,0,0,1,0,.17c-.07.07-.2.05-.26.13a.25.25,0,0,0,0,.15v0H5.36a.09.09,0,0,0-.08,0c-.09.1,0,.26.09.37a.52.52,0,0,1-.21.18H5a.64.64,0,0,1-.23-.46.65.65,0,0,1,0,.19h0l0,0s-.07.08-.09.12a.22.22,0,0,0-.06.14l0,0h0a.79.79,0,0,1-.45.13" transform="translate(-0.02)"/><path class="u" d="M1.48,19.15v0h.05a.1.1,0,0,1-.05,0m-.36.13s0,0,0,0H1l-.24,0a.77.77,0,0,1-.16-.07.28.28,0,0,1,.06-.08.59.59,0,0,0,.26.07H1l.05,0a.45.45,0,0,0,.19.06.48.48,0,0,0,.26-.12l0,0a.81.81,0,0,1-.35.12" transform="translate(-0.02)"/><path class="u" d="M1.55,19.13l0,0h0l.05,0s0,0,0,.06m-.06.11,0-.08,0,0,0,0v0s0,.06,0,.09m-.29.88h0m1.92.95-.13,0L2.73,21l-.12-.07a.09.09,0,0,1,0,0s0,0,0,0l-.08,0,.05,0h0a.41.41,0,0,1-.05.09h0l0-.06-.11,0a1,1,0,0,0,.14-.24h0c0-.13,0-.23-.07-.36s0-.12,0-.17a.64.64,0,0,0-.2-.11c.14-.09,0-.23-.09-.23a.17.17,0,0,0-.1,0,.22.22,0,0,0-.22-.13H1.63l0,0h0a.37.37,0,0,0-.29.2.17.17,0,0,0-.08.12.25.25,0,0,1,.08-.19h0v0a.46.46,0,0,0,.07-.07l.21-.18c.1-.1.09-.17.06-.3a.22.22,0,0,0,0-.1,1,1,0,0,0,.72.4h0a.82.82,0,0,0,.33-.07h0c0,.07-.07.1-.16.12l-.13,0c0,.1.07.12.17.12a1.42,1.42,0,0,0,.25,0,.67.67,0,0,0,.41-.26.61.61,0,0,1-.13.31C3,20,2.93,20,2.81,20a.31.31,0,0,0-.19.41c0,.13.15.44.31.47H3a.79.79,0,0,0,.49-.3v0a.36.36,0,0,0-.16.3l0,.05s0,.06,0,.1a.59.59,0,0,1,0-.13s0,.1,0,.12a.14.14,0,0,1-.09,0m-.3,0a.33.33,0,0,1-.19-.14l.1,0a.31.31,0,0,1,.09.11M2,21.22H2" transform="translate(-0.02)"/><path class="u" d="M4.53,20.77a.68.68,0,0,0,0-.2h0l0,0a1.29,1.29,0,0,1,0,.19m-1.8.2-.1,0,0,0h0l-.05,0,.08,0h0l.12.07m.72,1.35a.59.59,0,0,1,0-.32H3.32a.3.3,0,0,1,0-.1s0-.06,0-.1H3.1c-.1,0-.08.06-.15.1H3s0,0,0-.08a.08.08,0,0,0-.09-.07h0c-.09,0-.07.09-.14.11h0l.07-.12a.85.85,0,0,0,.1-.28.44.44,0,0,0-.07-.35A.31.31,0,0,0,2.73,21l.26.08.13,0a.14.14,0,0,0,.09,0s0-.09,0-.12a.59.59,0,0,0,0,.13.67.67,0,0,0,.24.38l0,0a.63.63,0,0,0,.33.09.55.55,0,0,0,.3-.09,1.09,1.09,0,0,1,.17.05l.19.14h0c-.07,0-.07-.06-.14-.06h0a.4.4,0,0,0-.15,0c-.11,0-.13.08-.13.18s0,.14-.07.15H4c-.08,0-.13-.08-.2-.09s0,.09,0,.13H3.72c-.08,0-.11.08-.12.16a.9.9,0,0,1-.15.18" transform="translate(-0.02)"/><path class="u" d="M4.8,20.38a.09.09,0,0,0,0-.07h0l.09.06-.06,0m-.15,1.34-.08,0h0l-.19-.14a1.09,1.09,0,0,0-.17-.05l0,0a1.05,1.05,0,0,0,.17-.29,2.31,2.31,0,0,0,.1-.28.29.29,0,0,0,0-.09,1.29,1.29,0,0,0,0-.19v0h0a.22.22,0,0,1,.06-.14s.09-.08.09-.12l0,0a.7.7,0,0,0-.18.62.94.94,0,0,0,.19.51v0a.9.9,0,0,1-.13.28" transform="translate(-0.02)"/><path class="w" d="M3,19.24a.19.19,0,0,1,0-.08H3a.29.29,0,0,0,0,.09H3" transform="translate(-0.02)"/><path class="w" d="M1.29,19.67a.22.22,0,0,1,0-.08.22.22,0,0,1,0,.08m-.41.13h0m.14.27c-.2-.14-.39-.23-.46-.48a.27.27,0,0,1,0-.11.58.58,0,0,1,0-.3h0a.77.77,0,0,0,.16.07l.24,0h.11s0,0,0,0h0c-.05,0-.2,0-.25,0s0,.18.05.24a.3.3,0,0,0,.24.16h0a.15.15,0,0,0,.13-.06.7.7,0,0,0,0,.2v.05H1.16a.36.36,0,0,1-.26-.11c.06.07.17.17.12.24" transform="translate(-0.02)"/><path class="w" d="M1.68,21.15l-.09,0a3.05,3.05,0,0,1-.32-.22.88.88,0,0,1-.11-.6A.64.64,0,0,1,1.28,20a.37.37,0,0,1,.29-.2h.08l-.06,0h0c.07,0,.09.08.12.12a.27.27,0,0,0,.21.11c0,.08.06.3.14.34h0c.08,0,.1-.14.09-.19a.48.48,0,0,1,.15.39c0,.1,0,.38-.13.42s-.06-.22-.09-.32-.05-.29-.14-.36a.87.87,0,0,0-.07.17c-.06,0-.07-.12-.13-.14h0c-.05,0,0,.09,0,.15s0,.26,0,.27h0c-.08,0-.16-.2-.19-.25-.19.19,0,.43.19.6" transform="translate(-0.02)"/><path class="t" d="M5.78,17.46a.52.52,0,0,0,.13-.06s0,0,0,0l.11,0h0a.51.51,0,0,1-.29.15m-.14,1.09c-.1,0,0-.37-.07-.42s-.11.23-.16.24h0a.09.09,0,0,1-.06,0,.8.8,0,0,0,.1-.48c0-.08,0-.15-.05-.21l.11.05.21,0h.08l0,0c.09,0,.16,0,.19.13a.62.62,0,0,1,0,.18.75.75,0,0,0-.2.1h0c-.14,0-.09.4-.22.4h0m.22,0v-.2c0,.06.1.12.06.17l-.06,0" transform="translate(-0.02)"/><path class="u" d="M5.71,17.72l-.21,0-.11-.05c0-.07,0-.13,0-.17h.14a.76.76,0,0,0,.21,0,.51.51,0,0,0,.29-.15c0,.08,0,.17,0,.21l-.06,0H5.89l-.09,0a.08.08,0,0,0-.07,0c-.05.07,0,.13.06.17H5.71" transform="translate(-0.02)"/><path class="w" d="M4.06,20.37l-.15,0a.64.64,0,0,1-.45-.69.06.06,0,0,1,0,0,.36.36,0,0,1,0-.09h.07a1.1,1.1,0,0,0,.17.25s.06.08.11.08h0s.08-.15.12-.19,0,.27.06.27h0s.07-.1.09-.14a.35.35,0,0,1,.12-.15c0,.1,0,.2,0,.31h0c.08,0,.18-.12.22-.17a1.61,1.61,0,0,1,.17-.28,1.21,1.21,0,0,1-.07.37.64.64,0,0,1-.57.47" transform="translate(-0.02)"/><path class="w" d="M3.89,21.56a.63.63,0,0,1-.33-.09l0,0a.71.71,0,0,1-.18-.53.36.36,0,0,1,.16-.3l.07,0-.06.09c.06,0,.05.29.09.36s0,0,0,0,.07-.09.08-.14,0,.25.07.26h0c.06,0,.12-.22.14-.26s0,.29.1.29a.09.09,0,0,0,.06,0c.15-.13.12-.33.21-.49.18,0,.16.26.09.45a1.05,1.05,0,0,1-.17.29l0,0a.55.55,0,0,1-.3.09" transform="translate(-0.02)"/><path class="w" d="M2.91,22H2.79l0-.06,0,0,0,0a.12.12,0,0,1-.09,0h0a.12.12,0,0,1,0-.08v.07h0a1.31,1.31,0,0,1-.37-.16c-.1-.07-.16-.09-.17-.22a.47.47,0,0,1,.06-.3l-.13,0H2A.61.61,0,0,1,2.39,21l.11,0,0,.06h0c.05,0,0,.18,0,.22s-.06.09,0,.16.11.06.11.07,0,.06-.07.08-.05.09,0,.15.1.12.16.14h0c.07,0,0-.11.14-.11h0a.08.08,0,0,1,.09.07c0,.05,0,.05,0,.08h0a.1.1,0,0,0,0,.1m.17.17c0-.06,0-.11,0-.15h.09a.12.12,0,0,1,.09,0,.07.07,0,0,1,0,.11s-.09,0-.13,0m-.29.07a.36.36,0,0,1,0-.18.21.21,0,0,1,0,.16v0m.36.14a.16.16,0,0,1-.09-.07.28.28,0,0,1,0-.13c0,.06.15.1.11.18s0,0,0,0m.2.33a.27.27,0,0,1-.2-.16.49.49,0,0,0,.15.09h0l0,.07" transform="translate(-0.02)"/><path class="w" d="M5.66,19.13a.47.47,0,0,1-.17,0,.71.71,0,0,1-.39-.41,1.61,1.61,0,0,0,.24-.34.09.09,0,0,0,.06,0h0s.12-.2.16-.24,0,.42.07.42h0c.13,0,.08-.4.22-.4h0a.13.13,0,0,0-.05.15.41.41,0,0,0,.05.09v.2l-.12,0a.31.31,0,0,0-.21.09c-.07.11,0,.3.13.43" transform="translate(-0.02)"/><path class="w" d="M4.78,21.44v0a.94.94,0,0,1-.19-.51.7.7,0,0,1,.18-.62h0a.09.09,0,0,1,0,.07,1.15,1.15,0,0,0,0,.18,3.15,3.15,0,0,0,.09.42,1,1,0,0,0,0,.11l-.06.14-.07.21" transform="translate(-0.02)"/><path class="w" d="M5.57,17.49H5.43a.32.32,0,0,1,.19-.06L6,17.35s0,0,0,0a.52.52,0,0,1-.13.06.76.76,0,0,1-.21,0" transform="translate(-0.02)"/><path class="t" d="M7,21.1v0H7v0m.07.25,0-.05v0l0,0m-.89.85v0h0l0,0m0,.13v0a.41.41,0,0,1,0-.09s0,.05,0,.07l0,0h0" transform="translate(-0.02)"/><path class="u" d="M6.93,21.61A1,1,0,0,0,7,21.1v0l.14,0v.05l-.14,0a.32.32,0,0,1,.09.17l0,.05a2,2,0,0,1-.16.26" transform="translate(-0.02)"/><path class="t" d="M8,19.89l0,0,0,0a.92.92,0,0,0,.19-.25.61.61,0,0,1-.19.3M7.71,20s0,0,0,0h0v0" transform="translate(-0.02)"/><path class="v" d="M8.37,18.61a1.7,1.7,0,0,0,.15-.22,1.17,1.17,0,0,0,0-.32,1.37,1.37,0,0,0,0-.19.41.41,0,0,1,.09.32.42.42,0,0,1-.18.37l-.08,0" transform="translate(-0.02)"/><path class="t" d="M8.25,18.63a.24.24,0,0,0-.11-.06h0c.25,0,.38-.3.37-.49a.44.44,0,0,0-.09-.31.39.39,0,0,1,.1.08l0,0a1.37,1.37,0,0,1,0,.19,1.17,1.17,0,0,1,0,.32,1.7,1.7,0,0,1-.15.22l-.12,0" transform="translate(-0.02)"/><polyline class="u" points="8.13 18.57 8.12 18.57 8.13 18.57 8.13 18.57"/><path class="v" d="M8.33,17.55l-.09,0a.29.29,0,0,0,.06-.11.75.75,0,0,0,.14-.53h0a.75.75,0,0,1-.11.67" transform="translate(-0.02)"/><path class="t" d="M8.25,17.62h0s-.09,0-.13,0h0a.43.43,0,0,0,.19-.16.29.29,0,0,1-.06.11l.09,0-.08.07" transform="translate(-0.02)"/><polyline class="u" points="8.1 17.57 8.1 17.57 8.1 17.57 8.1 17.57"/><path class="v" d="M7.91,16.19a1.18,1.18,0,0,1,0-.21l0,.09a.24.24,0,0,1,0,.12" transform="translate(-0.02)"/><path class="t" d="M7.73,16.35c0-.05,0-.07.06-.11a.29.29,0,0,0,0-.13,1.27,1.27,0,0,0,0-.26h0l.08.14a1.18,1.18,0,0,0,0,.21.28.28,0,0,1,0,.11h0a.15.15,0,0,0-.1.06h0" transform="translate(-0.02)"/><path class="u" d="M7.74,16.35a.15.15,0,0,1,.1-.06h0l0,0H7.74" transform="translate(-0.02)"/><path class="t" d="M6.49,16.26a.14.14,0,0,1-.09-.05L6.34,16a.19.19,0,0,1,.09-.21c.06.08.16.13.18.23a.24.24,0,0,1-.09.21h0" transform="translate(-0.02)"/><path class="v" d="M7.35,15.14A1,1,0,0,0,7,14.72a.56.56,0,0,1,.31.42" transform="translate(-0.02)"/><path class="t" d="M6.91,15.61l-.14,0H6.63c.1-.41-.24-.71-.59-.88,0-.09.15-.11.3-.11a2.07,2.07,0,0,1,.54.07.76.76,0,0,1,.16.06,1,1,0,0,1,.31.42.47.47,0,0,1,0,.17.54.54,0,0,1,0,.18l0,.08h0s0-.06,0-.09h0l-.07.06a1,1,0,0,1,0-.17.52.52,0,0,0,0-.21.48.48,0,0,0-.17-.23.49.49,0,0,0-.1-.08H7l0,0H7c0,.08,0,.18.09.25a.4.4,0,0,1,.05.38.2.2,0,0,1-.2.12" transform="translate(-0.02)"/><path class="u" d="M7.32,15.48h0m-.06.09s0,0,0,0l.07-.06s0,.06,0,.09h0m-.63,0h0" transform="translate(-0.02)"/><path class="w" d="M5.16,19.07h0m-.06,0h.06l-.06,0m0,.68a.06.06,0,0,1-.05,0l0,0a.47.47,0,0,1,0-.29.38.38,0,0,1,0-.2.29.29,0,0,1,.14-.13c0,.07.09.27.16.31a.15.15,0,0,0,.09,0l.12,0,.06,0h.08a0,0,0,0,1,0,0c0,.09-.1.18-.2.18a.11.11,0,0,1-.09,0s0,.14,0,.17h0c-.07,0-.17-.08-.21-.1s0,.15,0,.15" transform="translate(-0.02)"/><path class="w" d="M6.15,22.25h0v0l.06,0v0l0,.05" transform="translate(-0.02)"/><path class="x" d="M3.48,22.71h0c0-.05.06-.11,0-.16h0l-.09,0a.15.15,0,0,1-.09,0,.33.33,0,0,1,0-.1v0h.09a.37.37,0,0,1,.25.16h0a.38.38,0,0,1-.16,0" transform="translate(-0.02)"/><path class="y" d="M3.64,22.68h0s0,0,0,0" transform="translate(-0.02)"/><path class="x" d="M4.75,22.73l-.11,0a.86.86,0,0,1,.14-.2.29.29,0,0,1,.16,0,.33.33,0,0,1,.17,0,.08.08,0,0,1,0,0l0,.05a.35.35,0,0,1-.15.08.85.85,0,0,1-.26.05" transform="translate(-0.02)"/><path class="y" d="M5.16,22.6l0-.05a.08.08,0,0,0,0,0l.08,0,0,0" transform="translate(-0.02)"/><path class="z" d="M8.3,17.41a1.12,1.12,0,0,0,.06-.7.53.53,0,0,1,.08.17.75.75,0,0,1-.14.53" transform="translate(-0.02)"/><path class="x" d="M6.79,15.67a.54.54,0,0,0-.15-.09h.13l.14,0a.2.2,0,0,0,.2-.12.4.4,0,0,0-.05-.38C7,15,7,14.94,7,14.86h0l0,0H7a.49.49,0,0,1,.1.08.48.48,0,0,1,.17.23.52.52,0,0,1,0,.21,1,1,0,0,0,0,.17.24.24,0,0,1-.11.09,1.75,1.75,0,0,1-.33,0h0m.92.7s.19-.45,0-.45h0c-.06,0,0,.19,0,.23a.2.2,0,0,1-.2.13h0c-.19,0-.22-.22-.24-.36a1,1,0,0,1,.08-.35h0s0,.09,0,.12a.16.16,0,0,0,.09,0H7.6a.18.18,0,0,1,.1,0,.52.52,0,0,1,.1.11h0a1.27,1.27,0,0,1,0,.26.29.29,0,0,1,0,.13s-.06.06-.06.11h0l0,0m-1.2.21a1.92,1.92,0,0,0-.11-.37.14.14,0,0,0,.09.05h0A.24.24,0,0,0,6.61,16c0-.1-.12-.15-.18-.23a.64.64,0,0,0,.17-.16l.15,0h0A.61.61,0,0,1,7,16c0,.17,0,.31-.08.46l-.07,0h0l0,0a.29.29,0,0,0-.13.05l-.16.08m1.52,0H8c-.07,0-.09-.09-.11-.17a.63.63,0,0,1,.31.1.1.1,0,0,0-.07,0,.18.18,0,0,1-.1,0m-2,.69h0m1.32.05c-.06-.17,0-.36-.06-.53-.09.13-.07.33-.21.44a.13.13,0,0,1-.1,0,.09.09,0,0,1-.09-.07,3.81,3.81,0,0,1-.13-.45.92.92,0,0,1,0-.29l.21-.1-.11,0a.51.51,0,0,1,.32-.1.47.47,0,0,1,.17,0,.5.5,0,0,1,.36.41l-.06,0s0,.08,0,.12a.73.73,0,0,1,.06.21c0,.09,0,.27-.16.31,0-.19.07-.49-.18-.56,0,.1,0,.2,0,.31s0,.25-.11.25m-.07.51-.19,0a1.46,1.46,0,0,0-.3-.07l.06.07a.6.6,0,0,1-.41-.62.79.79,0,0,0,.64.6h.14a.72.72,0,0,0,.7-.37.56.56,0,0,0-.17-.7c0-.08,0-.15.06-.15h0a.36.36,0,0,1,.21.19.91.91,0,0,1,0,.74,1.41,1.41,0,0,0,.14-.44c0-.14.11-.37,0-.51a.29.29,0,0,1,.1.12,1.12,1.12,0,0,1-.06.7.43.43,0,0,1-.19.16v0h0c-.13,0-.15.12-.24.19a.78.78,0,0,1-.37.13H7.32m.82.7h0a.25.25,0,0,0,.13-.29h0c.11,0,.11-.17.08-.26s-.1.12-.14.19a.28.28,0,0,1-.23.16H7.81c-.11,0-.2,0-.2-.16s.18-.2.28-.27a.6.6,0,0,0,.22-.38s.09,0,.13,0h0l0,0a.69.69,0,0,0,.2.13.44.44,0,0,1,.09.31c0,.19-.12.49-.37.49m-2.44.64,0-.08h.06a.84.84,0,0,0,.64-.34.88.88,0,0,0,0-.9s0,.1,0,.14a2.48,2.48,0,0,1,0,.27c0,.1-.09.29-.21.34s0-.2,0-.29,0-.22,0-.27,0,.09,0,.13l0,.24c0,.08,0,.26-.15.28a.8.8,0,0,1,0-.15l.06,0s0-.11-.06-.17h0a.89.89,0,0,0,0-.23.75.75,0,0,1,.2-.1.62.62,0,0,0,0-.18c0-.09-.1-.1-.19-.13l0,0a.47.47,0,0,0,.4-.23c.06.07.14.12.2.18a1.39,1.39,0,0,0,.21.21.47.47,0,0,0,.21.06l.11,0a.19.19,0,0,1,0,.08c0,.11-.06.13-.17.13h0c-.21,0-.15-.29-.35-.33v0h0a1.29,1.29,0,0,1,.13.72,1,1,0,0,1-.53.59.81.81,0,0,1-.31.1m.86.06v0a.59.59,0,0,1,0-.13.77.77,0,0,0,0,.15m-.76.24a.36.36,0,0,0,0-.1h.11l-.09.11m1.88.39a.49.49,0,0,0,0-.12.67.67,0,0,0,.14-.15c.13-.19.25-.53,0-.66a.69.69,0,0,1-.08.4.31.31,0,0,1-.18.16s-.1,0-.15.07,0-.14.06-.2a.45.45,0,0,0,0-.16c-.1.05-.17.29-.32.29s.12-.25.14-.36-.2.15-.3.21,0,0-.07,0-.05,0-.05-.11A.42.42,0,0,1,6.94,19a1.29,1.29,0,0,1,.22-.3h.08a.25.25,0,0,0-.14,0,.42.42,0,0,0-.21.06.38.38,0,0,1,.26-.11.37.37,0,0,1,.16,0,.41.41,0,0,1,.19.2s0,.16,0,.18h0c.07,0,.26-.35.07-.45a1,1,0,0,0,.31.08.38.38,0,0,0,.17,0l0,0a.24.24,0,0,1,.11.06l-.17,0c.11.12.18.15.19.33a2.32,2.32,0,0,1,0,.45.39.39,0,0,1,0,.14.92.92,0,0,1-.19.25l0,0H7.89a.78.78,0,0,0-.21,0m0,.16h0a.5.5,0,0,0,0-.13.24.24,0,0,1,0,.08h0s0,0,0,0v0H7.65m-1.82.55a.52.52,0,0,1-.32-.1.79.79,0,0,1-.14-.13.56.56,0,0,0,.09-.17.86.86,0,0,0,0-.23h0a.18.18,0,0,0,.19-.12,5.16,5.16,0,0,0,.24-.47l0,0c0,.1,0,.2,0,.3s.13.44.29.46c0-.12-.06-.25-.06-.37a.56.56,0,0,1,.12-.26,2.9,2.9,0,0,0,.06.41.94.94,0,0,0,.46.44h0a.39.39,0,0,0-.15,0,.91.91,0,0,0-.52.18l-.1.08-.2,0m1.47,0A.47.47,0,0,1,7,20.52l-.15-.14h0a.45.45,0,0,0,.16,0,.7.7,0,0,0,.56-.33.41.41,0,0,1,.07.15,1.24,1.24,0,0,1-.12.3v0a.4.4,0,0,1-.22.09h0m-2.16.63a.52.52,0,0,1,0-.25c0-.06.06-.15,0-.21L5.07,21A.39.39,0,0,1,5,21.1l0,0s0,0,0,0a.39.39,0,0,0,0-.28c0-.07-.11-.22,0-.26H5a.92.92,0,0,0,.26.14,1.52,1.52,0,0,0,.39.06.54.54,0,0,0,.22,0,.34.34,0,0,0-.07.15v0a.66.66,0,0,1-.44.35c0-.09.2-.26.15-.37h0c-.07,0-.13.15-.17.2a.53.53,0,0,1-.22.2m.61.19H5.69A.87.87,0,0,0,5.85,21c0,.07,0,.14,0,.2s0,.16,0,.21a0,0,0,0,0,0-.05.52.52,0,0,1-.11.1m.7.05a.58.58,0,0,1-.19,0,1.38,1.38,0,0,0-.2,0h0a.46.46,0,0,1,0-.2.82.82,0,0,1,.25-.69.88.88,0,0,1,.53-.17h0a.81.81,0,0,1,.23.7H7v0l-.08.16a.62.62,0,0,1-.47.25h0m-1.22.11a.57.57,0,0,1-.45-.18h0l.07.06a.79.79,0,0,0,.42.11h0m.65.7c0-.12.16-.27.08-.4-.09.08-.16.39-.32.39h0c0-.12,0-.27.06-.4,0,.05-.06.13-.12.16s.09-.34.19-.37h0l.08,0h0a.62.62,0,0,1,.24.1l.09.05a.32.32,0,0,1-.06.17,1.41,1.41,0,0,1-.25.29m-1.8.32h0a.11.11,0,0,0,0-.14.08.08,0,0,0-.07,0c-.06,0-.1.07-.14.11s-.2-.05-.21-.16.13,0,.12-.13-.08-.24,0-.27h0L4,22A.55.55,0,0,0,4.19,22a1.4,1.4,0,0,0,.41-.19s0,0,.05-.05l.18.07a.44.44,0,0,0,.08.11c.08.1.17.08.17.22a1.6,1.6,0,0,0-.42.14c-.08,0-.21.17-.33.17a.14.14,0,0,1-.1,0c0,.08-.07.2-.15.25m0,.17a.17.17,0,0,1-.12,0,.91.91,0,0,1,.21-.05s0,0,0,.06l-.11,0" transform="translate(-0.02)"/><path class="y" d="M6.84,16.5v-.06l.07,0v0l0,0,.11,0-.21.1m-.32.19a.37.37,0,0,0,0-.11l.16-.08a.41.41,0,0,0-.15.19m.29,1.25a.47.47,0,0,1-.21-.06,1.39,1.39,0,0,1-.21-.21c-.06-.06-.14-.11-.2-.18a.47.47,0,0,1-.4.23c-.06,0-.11-.1-.06-.17a.08.08,0,0,1,.07,0l.09,0H6l.06,0c.08,0,0-.13,0-.21h0a.74.74,0,0,0,.36-.3l0-.05a1,1,0,0,0,0,.25h0a.6.6,0,0,0,.41.62l0,.08-.11,0" transform="translate(-0.02)"/><path class="y" d="M6.41,17.8h0v0m.65,2.61a.45.45,0,0,1-.16,0h0l-.09,0h0a.94.94,0,0,1-.46-.44,2.9,2.9,0,0,1-.06-.41.56.56,0,0,0-.12.26c0,.12.06.25.06.37-.16,0-.29-.33-.29-.46s.08-.2,0-.3l0,0v-.05l-.05.06H5.78a.56.56,0,0,0-.07-.18v0a.81.81,0,0,0,.31-.1,1,1,0,0,0,.53-.59,1.29,1.29,0,0,0-.13-.72c.2,0,.14.33.35.33h0c.11,0,.17,0,.17-.13a.19.19,0,0,0,0-.08l0-.08-.06-.07a1.46,1.46,0,0,1,.3.07l.19,0h.17a.78.78,0,0,0,.37-.13c.09-.07.11-.19.24-.19h0v0h0a.6.6,0,0,1-.22.38c-.1.07-.28.14-.28.27s.09.16.2.16h.12a.28.28,0,0,0,.23-.16c0-.07.05-.16.14-.19s0,.22-.08.26h0a.25.25,0,0,1-.13.29h0l0,0a.38.38,0,0,1-.17,0,1,1,0,0,1-.31-.08c.19.1,0,.45-.07.45h0s0-.16,0-.18a.41.41,0,0,0-.19-.2.37.37,0,0,0-.16,0,.38.38,0,0,0-.26.11.85.85,0,0,0-.23.24.71.71,0,0,0-.08.18.59.59,0,0,0,0,.13v0a.64.64,0,0,0,.21.56.67.67,0,0,0,.4.14.83.83,0,0,0,.52-.19.49.49,0,0,1,0,.12h0s0,0,0,0a.5.5,0,0,1,0,.13h0l0,0a.7.7,0,0,1-.56.33" transform="translate(-0.02)"/><path class="y" d="M6.92,20.38H6.86l0,0,.09,0M5.38,21.61h0a.46.46,0,0,0,.29-.15h.06a.88.88,0,0,1-.37.15m.38.09h0M4.23,22.77s0,0,0-.06a.91.91,0,0,0-.21.05l0,0H4c.08,0,.12-.07.08-.1s.19-.17.15-.25a.14.14,0,0,0,.1,0c.12,0,.25-.13.33-.17a1.6,1.6,0,0,1,.42-.14c0-.14-.09-.12-.17-.22a.44.44,0,0,1-.08-.11.44.44,0,0,0,.16,0H5a1.65,1.65,0,0,0,.5-.1c.1-.05.31-.16.33-.3s0-.13,0-.21,0-.13,0-.2v-.13a.34.34,0,0,1,.07-.15.25.25,0,0,0,.14-.13H6l.1-.08a.91.91,0,0,1,.52-.18.39.39,0,0,1,.15,0v0a.88.88,0,0,0-.53.17.82.82,0,0,0-.25.69.46.46,0,0,0,0,.2H6a.35.35,0,0,0,.19.3v.11l-.09-.05a.62.62,0,0,0-.24-.1.27.27,0,0,0-.12,0,.58.58,0,0,0-.37.19.78.78,0,0,0-.11.18V22a.6.6,0,0,1-.48.31.32.32,0,0,1-.13,0,1.72,1.72,0,0,0-.22.33.66.66,0,0,1-.21.15" transform="translate(-0.02)"/><path class="y" d="M7,21.08a.81.81,0,0,0-.23-.7h0v0h0l0,0,.15.14a.47.47,0,0,0,.29.12h0a.4.4,0,0,0,.22-.09l-.19.26c-.08.11-.13.09-.26.13a.22.22,0,0,1,0,.11l-.14,0m-.38.7c-.21,0-.3-.14-.5-.22a1.8,1.8,0,0,1,.05.19.35.35,0,0,1-.19-.3h.06a1.38,1.38,0,0,1,.2,0,.58.58,0,0,0,.19,0h0a.62.62,0,0,0,.47-.25L7,21.1a1,1,0,0,1-.09.51l0,.05,0,0a.33.33,0,0,1-.21.09h0" transform="translate(-0.02)"/><path class="y" d="M6.75,15.68l-.15,0,0-.07h0a.54.54,0,0,1,.15.09h0m1.33,1.86a.91.91,0,0,0,0-.74.36.36,0,0,0-.21-.19h0c-.09,0-.07.07-.06.15h0a.5.5,0,0,0-.36-.41.47.47,0,0,0-.17,0,.51.51,0,0,0-.32.1l0,0v0c0-.15.13-.29.08-.46a.61.61,0,0,0-.2-.29h0a1.75,1.75,0,0,0,.33,0,.24.24,0,0,0,.11-.09s0,0,0,0h0a1,1,0,0,0-.08.35c0,.14,0,.34.24.36h0a.2.2,0,0,0,.2-.13s0-.21,0-.23h0c.15,0,0,.43,0,.45l0,0h.09l0,.11h.09c0,.08,0,.15.11.17H8a.18.18,0,0,0,.1,0,.1.1,0,0,1,.07,0l.06.05c.07.14,0,.37,0,.51a1.41,1.41,0,0,1-.14.44" transform="translate(-0.02)"/><path class="y" d="M5.5,20h0v0a.25.25,0,0,1,0-.15c.06-.08.19-.06.26-.13a.26.26,0,0,0,0-.17l.09-.11.05-.06v.05a5.16,5.16,0,0,1-.24.47A.18.18,0,0,1,5.5,20m.19.78a1.52,1.52,0,0,1-.39-.06A.92.92,0,0,1,5,20.56h.12a.52.52,0,0,0,.21-.18.79.79,0,0,0,.14.13.52.52,0,0,0,.32.1l.2,0h0a.25.25,0,0,1-.14.13.54.54,0,0,1-.22,0" transform="translate(-0.02)"/><path class="y" d="M3.81,22h0m.17.74H4l.07-.11h0s0,.08-.08.1H4" transform="translate(-0.02)"/><path class="y" d="M5,21.81a.44.44,0,0,1-.16,0l-.18-.07a.9.9,0,0,0,.13-.28.57.57,0,0,0,.45.18h.15a.88.88,0,0,0,.37-.15.52.52,0,0,0,.11-.1,0,0,0,0,1,0,.05c0,.14-.23.25-.33.3a1.65,1.65,0,0,1-.5.1H5" transform="translate(-0.02)"/><path class="aa" d="M3.47,22.71a.25.25,0,0,1-.12,0l0-.07a.15.15,0,0,0,.09,0l.09,0h0c0,.05,0,.11,0,.16" transform="translate(-0.02)"/><path class="aa" d="M5.86,18.39a.41.41,0,0,1-.05-.09.13.13,0,0,1,.05-.15.89.89,0,0,1,0,.23h0m-.14.75H5.66c-.08-.13-.2-.32-.13-.43a.31.31,0,0,1,.21-.09l.12,0a.8.8,0,0,0,0,.15c.1,0,.13-.2.15-.28l0-.24s0-.11,0-.13,0,.21,0,.27-.06.19,0,.29.18-.24.21-.34a2.48,2.48,0,0,0,0-.27s0-.12,0-.14a.88.88,0,0,1,0,.9.84.84,0,0,1-.64.34" transform="translate(-0.02)"/><path class="aa" d="M5.27,21.61a.79.79,0,0,1-.42-.11l-.07-.06.07-.21.06-.14s0,0,0,0l0,0A.39.39,0,0,0,5.07,21l.11-.15c0,.06,0,.15,0,.21a.52.52,0,0,0,0,.25.53.53,0,0,0,.22-.2c0-.05.1-.2.17-.2h0c0,.11-.1.28-.15.37a.66.66,0,0,0,.44-.35V21a.87.87,0,0,1-.16.45.46.46,0,0,1-.29.15H5.27" transform="translate(-0.02)"/><path class="aa" d="M7.17,20a.67.67,0,0,1-.4-.14.64.64,0,0,1-.21-.56.77.77,0,0,1,0-.15.71.71,0,0,1,.08-.18.85.85,0,0,1,.23-.24.42.42,0,0,1,.21-.06.25.25,0,0,1,.14,0H7.16a1.29,1.29,0,0,0-.22.3.42.42,0,0,0-.05.33c0,.07,0,.11.05.11s0,0,.07,0,.19-.19.3-.21-.19.24-.14.36.22-.24.32-.29a.45.45,0,0,1,0,.16c0,.06-.07.13-.06.2s.1,0,.15-.07a.31.31,0,0,0,.18-.16.69.69,0,0,0,.08-.4c.27.13.15.47,0,.66a.67.67,0,0,1-.14.15.83.83,0,0,1-.52.19" transform="translate(-0.02)"/><path class="aa" d="M6.14,22.24h0l0,0v0m-.56.21a.36.36,0,0,1-.24-.1c-.11-.09-.09-.18-.08-.3a.78.78,0,0,1,.11-.18.58.58,0,0,1,.37-.19.27.27,0,0,1,.12,0h0l-.08,0h0c-.1,0-.29.32-.19.37s.08-.11.12-.16c0,.13-.11.28-.06.4h0c.16,0,.23-.31.32-.39.08.13-.09.28-.08.4l-.09.07a.45.45,0,0,1-.21.06" transform="translate(-0.02)"/><path class="aa" d="M7.26,17.83H7.12a.79.79,0,0,1-.64-.6h0a1,1,0,0,1,0-.25.48.48,0,0,0,.06-.27.41.41,0,0,1,.15-.19.29.29,0,0,1,.13-.05l0,0h0v.06a.92.92,0,0,0,0,.29,3.81,3.81,0,0,0,.13.45.09.09,0,0,0,.09.07.13.13,0,0,0,.1,0c.14-.11.12-.31.21-.44.06.17,0,.36.06.53.08,0,.1-.2.11-.25s0-.21,0-.31c.25.07.13.37.18.56.11,0,.16-.22.16-.31a.73.73,0,0,0-.06-.21s0-.08,0-.12l.06,0h0a.56.56,0,0,1,.17.7.72.72,0,0,1-.7.37" transform="translate(-0.02)"/><path class="w" d="M3.47,16.54a.21.21,0,0,1,0-.11.41.41,0,0,1,0,.11" transform="translate(-0.02)"/><path class="t" d="M3.45,16.42l0-.06h0l0,0s0,0,0-.05a.23.23,0,0,1,.07-.11A.93.93,0,0,1,3.94,16l.16,0a.72.72,0,0,1,.34.09l.07,0a.88.88,0,0,0-.32-.07H4.12a.9.9,0,0,0-.61.21.06.06,0,0,0,0,0,.31.31,0,0,1,.11-.09v0a.14.14,0,0,0-.11.11.36.36,0,0,0-.07.17" transform="translate(-0.02)"/><path class="u" d="M3.45,16.32a.08.08,0,0,1,0-.07.23.23,0,0,1,.11-.11A1.13,1.13,0,0,1,4.11,16h0a.7.7,0,0,1,.56.26,1.06,1.06,0,0,0-.21-.11l-.07,0A.72.72,0,0,0,4.1,16l-.16,0a.93.93,0,0,0-.42.18.23.23,0,0,0-.07.11m0,0,0-.05s0,0,0,0h0" transform="translate(-0.02)"/><path class="w" d="M3.52,16.25a.14.14,0,0,1,.11-.11v0a.31.31,0,0,0-.11.09m-.06.18h0a.36.36,0,0,1,.07-.17.06.06,0,0,1,0,0,.24.24,0,0,0,0,.14" transform="translate(-0.02)"/><path class="t" d="M4.85,16.34h0v0" transform="translate(-0.02)"/><path class="u" d="M4.84,16.34l0,0a.16.16,0,0,0,0-.07s0,.06,0,.08v0" transform="translate(-0.02)"/><path class="t" d="M5.72,16l-.13,0h0a.16.16,0,0,0-.1,0h.09l.18.05h0" transform="translate(-0.02)"/><path class="u" d="M5.76,15.89a0,0,0,0,1,0,0c0-.06.06-.07.12-.1a.45.45,0,0,1-.11.13m-.7.15L5.2,16a.57.57,0,0,1,.18,0,.58.58,0,0,1,.19,0H5.45a1.54,1.54,0,0,0-.3,0l-.09,0" transform="translate(-0.02)"/><path class="w" d="M5.58,16l-.1,0h0a.16.16,0,0,1,.1,0" transform="translate(-0.02)"/><path class="ab" d="M2.64,15.93l-.08,0h0l.07,0M5.75,16,5.57,16l.1,0,.08,0h0M3,16,2.8,16h.05L3,16m.49.34,0,0,0,0s0,0,0,.05" transform="translate(-0.02)"/><path class="ac" d="M3.43,16.35s0,0,0,0A1.19,1.19,0,0,0,3,16L2.85,16h0a.34.34,0,0,0,0-.14s0,0,0,0h.08c.16,0,.16.09.28.14a.54.54,0,0,1,0-.28c0,.07.07.13.13.13l.08,0a.64.64,0,0,0,.18-.23c.14,0,.33,0,.33.17.11,0,.21-.07.32-.07s0,.12,0,.18h0c.14,0,.28-.15.41-.19a.3.3,0,0,1,0,.13c.09,0,.27-.16.38-.16a.09.09,0,0,1,.08,0c.05.06,0,.16,0,.24h0c.23,0,.41-.17.65-.18a.13.13,0,0,1,0,.08c-.06,0-.13,0-.12.1a0,0,0,0,0,0,0l0,0s0,.05.06.06h0l-.08,0-.1,0a.58.58,0,0,0-.19,0,.57.57,0,0,0-.18,0L5.06,16a.41.41,0,0,0-.21.2.16.16,0,0,1,0,.07l-.09-.06A.7.7,0,0,0,4.16,16h0a1.13,1.13,0,0,0-.55.15.23.23,0,0,0-.11.11.08.08,0,0,0,0,.07l0,0" transform="translate(-0.02)"/><path class="ac" d="M2.8,16l-.16,0-.07,0a.36.36,0,0,1,.27-.12s0,0,0,0a.34.34,0,0,1,0,.14h0" transform="translate(-0.02)"/><path class="ac" d="M3.61,15.52l-.1,0h.11s0,0,0,0" transform="translate(-0.02)"/><path class="ac" d="M3.58,15.49h0l.09,0a0,0,0,0,1,0,0h0" transform="translate(-0.02)"/><path class="ad" d="M1.73,21.2c-.3.51.45.52.53.91a.57.57,0,0,0,.38.5,1.09,1.09,0,0,1,.47.23,1.11,1.11,0,0,0,.48.35c.26.08.42,0,.66-.08a.55.55,0,0,1,.28.06.62.62,0,0,0,.27,0c.23,0,.32-.22.51-.31s.41-.08.58-.23a1.66,1.66,0,0,0,.34-.49A1,1,0,0,0,7,21.94a3,3,0,0,0,.22-.28c.08-.09.16-.08.26-.13a1,1,0,0,0,.45-.65c0-.12-.06-.22,0-.33s.13-.2.2-.3.1-.26,0-.35-.26,0-.37,0c.12.15,0,.48-.09.62s-.14.19-.2.28-.13.09-.26.13c.17.19-.1.56-.21.72a.69.69,0,0,1-.32.26.53.53,0,0,1-.21,0H6.24c.06.23-.18.42-.38.5a.57.57,0,0,1-.44,0c-.14-.05-.11-.1-.17-.21,0,.19,0,.33-.24.39s-.44.11-.5-.13c-.15.23-.72.48-.81.06-.08.21-.69.09-.53-.24-.13,0-.25.06-.35-.08a.36.36,0,0,1,0-.4c-.09.14-.46-.07-.56-.13s-.16-.09-.17-.22a.47.47,0,0,1,.06-.3,1,1,0,0,1-.37-.13.1.1,0,0,0,0,.05l0,0" transform="translate(-0.02)"/><path class="v" d="M4.92,23.19a.8.8,0,0,0,.19-.13l0,0c0,.06-.12.09-.22.11m-.26,0-.09,0-.07,0,0,0,.13,0m-.85.05a.23.23,0,0,1-.17-.05h0l.12,0a1.87,1.87,0,0,0,.41-.09.31.31,0,0,1-.09.07.72.72,0,0,1-.27.06" transform="translate(-0.02)"/><path class="x" d="M3.64,22.39a.29.29,0,0,1,0-.09.7.7,0,0,1,0-.16l0-.05c.11.09,0,.17,0,.28v0h0m-.49.13a.27.27,0,0,1,0-.15h.09l.13,0,.06,0a.3.3,0,0,0,0,.08c-.08,0-.14,0-.17.09H3.18l0,0" transform="translate(-0.02)"/><path class="y" d="M3.49,22.4a.3.3,0,0,1,0-.08.9.9,0,0,0,.15-.18.7.7,0,0,0,0,.16.29.29,0,0,0,0,.09H3.49" transform="translate(-0.02)"/><path class="ae" d="M3.83,22.64a.12.12,0,0,1-.1,0,.34.34,0,0,1-.09-.22h0c0,.11.09.12.21.16s.08-.11.14-.11a.08.08,0,0,1,.07,0,.11.11,0,0,1,0,.14H3.83m-.17,0a.37.37,0,0,0-.25-.16H3.32c0-.06.09-.08.17-.09a.64.64,0,0,0,.13.19l.06.05h0m.31.18a.26.26,0,0,1-.22-.1.57.57,0,0,0,.18,0H4a.17.17,0,0,0,.12,0,.4.4,0,0,1-.15,0" transform="translate(-0.02)"/><path class="af" d="M3.66,22.66h0m.27.11a.57.57,0,0,1-.18,0l0-.07a.42.42,0,0,0,.21.08H4l0,0H3.93" transform="translate(-0.02)"/><path class="af" d="M3.93,22.75a.42.42,0,0,1-.21-.08.14.14,0,0,1,0-.06l0,0-.06-.05a.64.64,0,0,1-.13-.19h.15a.34.34,0,0,0,.09.22.12.12,0,0,0,.1,0h.22L4,22.74h0" transform="translate(-0.02)"/><path class="v" d="M5.73,22.5l.19-.07-.06,0-.13,0" transform="translate(-0.02)"/><path class="t" d="M6.22,22.15v-.09h0a.17.17,0,0,1,0,.1m-.5.36.21-.09h0l-.19.07h0" transform="translate(-0.02)"/><path class="w" d="M6.22,22.1v0h0v0" transform="translate(-0.02)"/><path class="x" d="M6.4,22h0l.17,0a.39.39,0,0,1-.15,0m-.17.11a.37.37,0,0,0,0-.11.13.13,0,0,1,0,.06v-.07h0a.28.28,0,0,1,0,.09h0" transform="translate(-0.02)"/><path class="aa" d="M6.22,22.06v0a.13.13,0,0,0,0-.06.37.37,0,0,1,0,.11h0" transform="translate(-0.02)"/><path class="x" d="M6.16,22.14s0-.05,0-.07h0a.2.2,0,0,1,0,.08m0,0s0,0,0-.06v0h0m-.49.35.21-.09h0l-.21.09h0" transform="translate(-0.02)"/><path class="aa" d="M6.15,22.2v-.06a.2.2,0,0,0,0-.08h0v0s0,0,0,.06l-.06,0m0,.07v0h0l0,0" transform="translate(-0.02)"/><path class="ae" d="M4.64,22.71a.22.22,0,0,1-.12-.13.58.58,0,0,1,.23-.18A.51.51,0,0,1,5,22.34H5c.07,0,.08.1.1.16a.33.33,0,0,0-.17,0,.29.29,0,0,0-.16,0,.86.86,0,0,0-.14.2" transform="translate(-0.02)"/><path class="af" d="M4.44,22.62a1.72,1.72,0,0,1,.22-.33.32.32,0,0,0,.13,0A.6.6,0,0,0,5.27,22v.05a.65.65,0,0,0,0,.41v0s0,.05,0,.08l-.08,0c0-.06,0-.13-.1-.16H5a.51.51,0,0,0-.21.06.58.58,0,0,0-.23.18v0a.46.46,0,0,1-.07.07" transform="translate(-0.02)"/><path class="ae" d="M5.88,22.34v0A1.41,1.41,0,0,0,6.13,22a.32.32,0,0,0,.06-.17.69.69,0,0,0,.24.05.62.62,0,0,0,.23,0h0l-.11.05h0l-.17,0H6.21V22s0,0,0,0h0s0,.05,0,.07a.37.37,0,0,1-.28.2m-.17.17.22-.09h0l-.21.09h0" transform="translate(-0.02)"/><path class="af" d="M6.43,21.91a.69.69,0,0,1-.24-.05v-.11a.55.55,0,0,0,.29.08.7.7,0,0,0,.37-.11.75.75,0,0,1-.16.15h0a.62.62,0,0,1-.23,0" transform="translate(-0.02)"/><path class="af" d="M6.48,21.83a.55.55,0,0,1-.29-.08,1.8,1.8,0,0,0-.05-.19c.2.08.29.22.5.22h0a.33.33,0,0,0,.21-.09l0,0a.7.7,0,0,1-.37.11" transform="translate(-0.02)"/><path class="ag" d="M6.2,22.06s0,0,0,0v0h0m-.64.47-.14,0c-.14-.05-.11-.1-.17-.21a.58.58,0,0,1,0,.19v0a.65.65,0,0,1,0-.41c0,.12,0,.21.08.3a.36.36,0,0,0,.24.1.45.45,0,0,0,.21-.06l.09-.07v0a.37.37,0,0,0,.28-.2v.06l0,0h0v0a.62.62,0,0,1-.2.15l-.22.09-.15,0" transform="translate(-0.02)"/><path class="v" d="M6.08,22.5h0a.6.6,0,0,0,.09-.15h0c0,.08,0,.17-.09.17m-3.21.19-.08,0,.08,0" transform="translate(-0.02)"/><path class="t" d="M6.14,22.34h0" transform="translate(-0.02)"/><path class="x" d="M2.92,22a.06.06,0,0,1,0,0h.14l-.13,0m.15.14h0m3.08.18,0,0v0h0m-3.08,0s.05,0,.08,0H3.07" transform="translate(-0.02)"/><path class="aa" d="M3,22.39a.19.19,0,0,1-.17-.1.15.15,0,0,1,0-.07v0a.21.21,0,0,0,0-.16.19.19,0,0,1,0-.07h.12a.06.06,0,0,0,0,0l.13,0c.07,0,.05.09,0,.15h0a.28.28,0,0,0,0,.13.16.16,0,0,0,.09.07s-.07,0-.08,0H3" transform="translate(-0.02)"/><path class="v" d="M6.64,22.13l0,0,0,0" transform="translate(-0.02)"/><path class="aa" d="M2.69,21.93H2.63v-.07a.12.12,0,0,0,0,.08" transform="translate(-0.02)"/><path class="ah" d="M2.77,22c0-.05-.07-.08-.12-.12h0a.13.13,0,0,0,.1,0,.19.19,0,0,0,0,.07m3.45.12h0a.17.17,0,0,0,0-.1.28.28,0,0,0,0-.09H6.4a.39.39,0,0,0,.15,0h0l.11-.05a.75.75,0,0,0,.16-.15l0,0a2.35,2.35,0,0,0,.23-.32c.15.23-.1.57-.31.69l-.12.05,0,0-.18,0H6.22m-3.33.53h0l-.08,0c-.07,0-.13-.11-.21-.16.1,0,.18-.18.21-.28a.15.15,0,0,0,0,.07.19.19,0,0,0,.17.1h.18a.27.27,0,0,0,0,.15s-.08.1-.14.13a.19.19,0,0,1-.12,0m2.41.17a.41.41,0,0,0-.11-.3h0s0,0,0-.08a.58.58,0,0,0,0-.19c.06.11,0,.16.17.21l.14,0,.15,0h0l.13,0,.06,0h0a.62.62,0,0,0,.2-.15l0,0,0,.05,0,0h0a.6.6,0,0,1-.09.15l0,0a.25.25,0,0,1-.22.13h0l-.13,0-.06,0s-.07.1-.1.14,0-.23-.14-.25c0,.13.11.26,0,.38m-1.54.36-.12,0a.47.47,0,0,0,0-.54h0l0,0a.14.14,0,0,0,0,.06l0,.07a.26.26,0,0,0,.22.1.4.4,0,0,0,.15,0h0a.29.29,0,0,0,.25-.13l0-.07a.46.46,0,0,0,.07-.07v0a.22.22,0,0,0,.12.13.28.28,0,0,0,0,.23c.06.1.17.1.28.1h0a.52.52,0,0,1,.18,0,.8.8,0,0,1-.19.13.62.62,0,0,1-.19,0H4.66l-.13,0,0,0c-.11-.06-.19-.16-.29-.22s0,.09,0,.16l0,0a1.87,1.87,0,0,1-.41.09" transform="translate(-0.02)"/></g></svg>