<svg xmlns="http://www.w3.org/2000/svg" xmlns:xlink="http://www.w3.org/1999/xlink" width="256px" height="256px" viewBox="0 0 13.05 16.26"><defs><style>.a{fill:none;}.b{clip-path:url(#a);}.c{fill:#58b835;}.d{fill:#e62138;}.e{fill:#4fa036;}.f{fill:#dd2529;}.g{fill:#f4d1b1;}</style><clipPath id="a" transform="translate(-0.81 0)"><rect class="a" width="14.26" height="16.44"/></clipPath></defs><g class="b"><path class="c" d="M7.28,3.22A3.09,3.09,0,0,0,6.69.46L7.88,0a6.57,6.57,0,0,1-.24,3.24l-.36,0" transform="translate(-0.81 0)"/><path class="d" d="M7.09,3.06S2.77,2.65,1.39,5s-.08,5.52,1.54,7.75S6,16,7.48,16.24s3-1.15,4.61-4.12,2.36-5.54,1.28-7.26-3.6-1.95-6.28-1.8" transform="translate(-0.81 0)"/><path class="e" d="M6.73,2.68a4.72,4.72,0,0,0-3.15-.86L3,1.79s2,1.35,3.69.89" transform="translate(-0.81 0)"/><path class="e" d="M7.77,3A2.89,2.89,0,0,0,5.82,1.48l-.37-.15S6.44,3.07,7.77,3" transform="translate(-0.81 0)"/><path class="e" d="M8.63,2.63a4.91,4.91,0,0,1,3.1-.34l1,.34s-2.63.63-4.11,0" transform="translate(-0.81 0)"/><path class="e" d="M7.5,2.86A3.32,3.32,0,0,1,9.76,1.68l.9,0S8.87,3,7.5,2.86" transform="translate(-0.81 0)"/><path class="c" d="M5.18,3.78A2.56,2.56,0,0,0,3.76,5.27c-.36,1.09,0,1.26,0,1.26A15.55,15.55,0,0,1,6.08,4.87a7.54,7.54,0,0,0,1.26-.69,15.47,15.47,0,0,1,1.59,1c.72.52,1.79,1,1.91,1.38s.42-.57,0-1.38A4.93,4.93,0,0,0,9.71,3.78a7,7,0,0,1,2.74,1.09,1.61,1.61,0,0,0,1.21.62s-.44-2-1.57-2.47a4.49,4.49,0,0,0-3.46-.39,3.59,3.59,0,0,1-1.9.05A5.87,5.87,0,0,0,4,2.43a4.27,4.27,0,0,0-2.5,1.23,8,8,0,0,1,3.69.12" transform="translate(-0.81 0)"/><path class="f" d="M12.09,12.12a13.6,13.6,0,0,0,1.76-5.07c-.09.08-.07.26-.19.52a25.4,25.4,0,0,1-1.93,3.58,4.53,4.53,0,0,1-4,1.86A5.56,5.56,0,0,1,3,11.06,13.54,13.54,0,0,1,.82,7.58a10.34,10.34,0,0,0,2.11,5.17C4.56,15,6,16,7.48,16.24s3-1.15,4.61-4.12" transform="translate(-0.81 0)"/><path class="f" d="M9.59,9.13c0,.28-.11.51-.26.51s-.25-.23-.25-.51.11-.51.25-.51.26.23.26.51" transform="translate(-0.81 0)"/><path class="g" d="M9.48,9c0,.17-.06.32-.15.32S9.19,9.18,9.19,9s.06-.33.14-.33.15.15.15.33" transform="translate(-0.81 0)"/><path class="f" d="M11.19,8.22c.07.27,0,.52-.13.55s-.3-.17-.37-.44,0-.52.13-.55.31.16.37.44" transform="translate(-0.81 0)"/><path class="g" d="M11.06,8.12c0,.17,0,.33-.07.34s-.18-.11-.22-.28,0-.33.07-.35.18.11.22.29" transform="translate(-0.81 0)"/><path class="f" d="M7.32,8.53c0,.28-.16.49-.3.48s-.24-.24-.21-.52S7,8,7.1,8s.24.25.22.53" transform="translate(-0.81 0)"/><path class="g" d="M7.2,8.37c0,.18,0,.33-.13.34s-.15-.14-.16-.32,0-.33.13-.33.15.14.16.31" transform="translate(-0.81 0)"/><path class="f" d="M5.49,8.33c-.07.27-.24.47-.38.43S4.92,8.48,5,8.21s.24-.46.38-.43.18.28.11.55" transform="translate(-0.81 0)"/><path class="g" d="M5.41,8.16c0,.18-.11.32-.19.31s-.13-.16-.11-.34.11-.32.19-.31.13.17.11.34" transform="translate(-0.81 0)"/><path class="f" d="M3.84,7.71c-.08.28-.25.47-.38.43s-.19-.28-.12-.55.25-.46.38-.43.19.28.12.55" transform="translate(-0.81 0)"/><path class="g" d="M3.76,7.55c0,.17-.11.31-.19.3s-.13-.16-.11-.34.11-.31.19-.3.13.16.11.34" transform="translate(-0.81 0)"/><path class="f" d="M2.59,6.1c-.1.26-.3.43-.43.38s-.15-.3,0-.56.3-.43.43-.38.15.3,0,.56" transform="translate(-0.81 0)"/><path class="g" d="M2.53,5.92c0,.18-.14.3-.22.28S2.2,6,2.24,5.85s.15-.3.23-.28.11.18.06.35" transform="translate(-0.81 0)"/><path class="f" d="M1.67,8.12c0,.28-.19.49-.33.47s-.22-.26-.18-.54.19-.48.33-.46.22.25.18.53" transform="translate(-0.81 0)"/><path class="g" d="M1.57,8c0,.18-.07.33-.15.33S1.27,8.14,1.27,8s.07-.32.15-.32.15.14.15.32" transform="translate(-0.81 0)"/><path class="f" d="M2.8,9.22c0,.28-.18.49-.32.47s-.22-.26-.18-.54.18-.49.32-.47.22.26.18.54" transform="translate(-0.81 0)"/><path class="g" d="M2.7,9.06c0,.18-.07.32-.15.32s-.15-.14-.15-.32.07-.33.15-.33.15.15.15.33" transform="translate(-0.81 0)"/><path class="f" d="M4.47,10.35c0,.28-.19.49-.33.47s-.22-.26-.18-.54.19-.48.33-.46.22.25.18.53" transform="translate(-0.81 0)"/><path class="g" d="M4.37,10.19c0,.18-.07.33-.15.33s-.15-.15-.15-.33.07-.32.15-.32.15.14.15.32" transform="translate(-0.81 0)"/><path class="f" d="M6.63,6.33c0,.28-.19.49-.33.47s-.22-.26-.18-.53.19-.49.33-.47.22.26.18.53" transform="translate(-0.81 0)"/><path class="g" d="M6.53,6.18c0,.17-.07.32-.16.32s-.14-.15-.14-.33.07-.32.15-.32.15.15.15.33" transform="translate(-0.81 0)"/><path class="f" d="M9.07,6.61c0,.28-.12.5-.26.5s-.25-.23-.25-.51.12-.51.27-.5.25.23.24.51" transform="translate(-0.81 0)"/><path class="g" d="M9,6.46c0,.18,0,.33-.11.34s-.17-.13-.19-.31,0-.32.11-.33.17.12.19.3" transform="translate(-0.81 0)"/><path class="f" d="M12,5.84c.06.27,0,.52-.14.54s-.3-.17-.36-.44,0-.52.14-.55.3.17.36.45" transform="translate(-0.81 0)"/><path class="g" d="M11.89,5.72c.06.17,0,.33,0,.35s-.19-.09-.25-.25,0-.33,0-.36.19.09.25.26" transform="translate(-0.81 0)"/><path class="f" d="M13,8.47c0,.28-.16.5-.3.49s-.23-.25-.21-.53.16-.49.3-.48.23.25.21.52" transform="translate(-0.81 0)"/><path class="g" d="M12.88,8.32c0,.18-.05.33-.14.33s-.15-.14-.16-.32.05-.32.13-.33.16.14.17.32" transform="translate(-0.81 0)"/><path class="f" d="M12.17,10.17c0,.28-.16.49-.3.48s-.23-.25-.21-.53.16-.49.3-.48.24.25.21.53" transform="translate(-0.81 0)"/><path class="g" d="M12.06,10c0,.18-.05.33-.13.33s-.16-.13-.17-.31.05-.33.14-.33.15.13.16.31" transform="translate(-0.81 0)"/><path class="f" d="M8.27,10.44c0,.28-.16.5-.3.48s-.24-.24-.21-.52.16-.5.3-.49.23.25.21.53" transform="translate(-0.81 0)"/><path class="g" d="M8.16,10.29c0,.17-.06.32-.14.33s-.15-.14-.16-.32S7.91,10,8,10s.16.14.17.32" transform="translate(-0.81 0)"/><path class="f" d="M6.31,11c0,.28-.15.49-.29.48s-.24-.24-.21-.52.16-.5.3-.49.23.25.2.53" transform="translate(-0.81 0)"/><path class="g" d="M6.2,10.86c0,.17,0,.32-.13.33s-.16-.14-.16-.32,0-.33.13-.33.15.14.16.32" transform="translate(-0.81 0)"/><path class="f" d="M5.1,12.35c.05.28,0,.52-.17.54s-.29-.18-.33-.46,0-.52.16-.54.29.19.34.46" transform="translate(-0.81 0)"/><path class="g" d="M5,12.23c.06.17,0,.33,0,.35s-.19-.09-.24-.27,0-.32,0-.35.19.1.24.27" transform="translate(-0.81 0)"/><path class="f" d="M3.37,11.26c0,.28,0,.52-.17.54s-.29-.18-.33-.46,0-.52.16-.54.29.19.34.46" transform="translate(-0.81 0)"/><path class="g" d="M3.22,11.14c.06.17,0,.33,0,.35s-.19-.09-.24-.27,0-.33,0-.35.19.1.24.27" transform="translate(-0.81 0)"/><path class="f" d="M7.66,12.66c0,.28,0,.52-.16.54s-.29-.18-.34-.46,0-.52.16-.54.29.19.34.46" transform="translate(-0.81 0)"/><path class="g" d="M7.51,12.54c.06.17,0,.33,0,.35s-.19-.09-.24-.27,0-.32,0-.35.19.1.24.27" transform="translate(-0.81 0)"/><path class="f" d="M10.46,11.9c0,.28-.13.5-.27.5s-.25-.24-.24-.52.14-.5.28-.5.25.24.23.52" transform="translate(-0.81 0)"/><path class="g" d="M10.34,11.75c0,.18,0,.33-.11.34s-.17-.13-.18-.31,0-.33.12-.34.16.13.17.31" transform="translate(-0.81 0)"/><path class="f" d="M9.33,14.23c0,.28-.13.5-.27.5s-.25-.24-.24-.52.14-.5.28-.5.25.24.23.52" transform="translate(-0.81 0)"/><path class="g" d="M9.22,14.08c0,.18,0,.33-.12.34s-.16-.14-.18-.31,0-.33.12-.34.16.13.18.31" transform="translate(-0.81 0)"/><path class="f" d="M6.73,14.41c0,.28-.06.52-.21.53s-.27-.21-.29-.49.06-.51.2-.52.28.2.3.48" transform="translate(-0.81 0)"/><path class="g" d="M6.6,14.28c0,.18,0,.33-.08.35s-.17-.11-.21-.29,0-.33.07-.35.18.11.22.29" transform="translate(-0.81 0)"/><path class="e" d="M8.8,4.75c-.28-.37-.82-1.09-1.46-.9,0,0-1.48,1.06-2.18,1.58h0a4.63,4.63,0,0,1,.92-.57,7.54,7.54,0,0,0,1.26-.69,15.47,15.47,0,0,1,1.59,1c.29.21.64.42,1,.62h0a9.77,9.77,0,0,1-1.09-1" transform="translate(-0.81 0)"/><path class="e" d="M9.71,3.78l.83.9a4.85,4.85,0,0,0-.83-.9" transform="translate(-0.81 0)"/><path class="e" d="M13.66,5.49v0a2.42,2.42,0,0,1-1.05-.6A2.81,2.81,0,0,0,11.21,4a3.22,3.22,0,0,0-1.5-.17,7,7,0,0,1,2.74,1.09,1.61,1.61,0,0,0,1.21.62" transform="translate(-0.81 0)"/><path class="e" d="M5.18,3.78a4.14,4.14,0,0,0-3.69-.12,8,8,0,0,1,3.69.12" transform="translate(-0.81 0)"/></g></svg>