<svg xmlns="http://www.w3.org/2000/svg" width="256px" height="256px" viewBox="0 0 27.1 17.92"><defs><style>.a,.c,.d{fill:#672b11;}.b{fill:none;}.c,.j{opacity:0.2;}.d{opacity:0.3;}.e{fill:#441f0c;}.f{fill:#f9f7f1;}.g{fill:#efede7;}.h{fill:#fff;}.i,.j{fill:#dad7cf;}</style></defs><path class="a" d="M2.64,9.36a4.11,4.11,0,0,0-.27-.74A1.56,1.56,0,0,1,2.45,7.5s0,0,0,0a1.58,1.58,0,0,0-.2.95,3.32,3.32,0,0,0,.38.94S2.65,9.4,2.64,9.36Z"/><path class="a" d="M2.93,5.09a1.39,1.39,0,0,0-.52,1s0,0,0,0a1.66,1.66,0,0,1,.52-1S3,5.08,2.93,5.09Z"/><path class="a" d="M3.71,3.61s.1,0,.06.06c-.27.17-1.16.82-.85,1.18,0,0,0,.05,0,0C2.27,4.7,3.51,3.73,3.71,3.61Z"/><path class="a" d="M14,14.05A7.73,7.73,0,0,1,6.18,14l-.27-.17A8.09,8.09,0,0,1,4.79,13C0,8.6,2.66,0,10.7.11,17.49.21,21.9,8.88,14,14.05Z"/><rect class="b" width="27.02" height="17.92"/><path class="c" d="M7.63,14.66A7.6,7.6,0,0,0,14,14.05c3.85-2.52,4.77-5.87,3.92-8.66a14.49,14.49,0,0,0-2.22.43C11.64,7,8.08,10.53,7.63,14.66Z"/><path class="d" d="M5.73,11.17a7.79,7.79,0,0,1-.91-9A7.34,7.34,0,0,0,6.18,14a7.73,7.73,0,0,0,7.83.05,14,14,0,0,0,1.25-.93,8.32,8.32,0,0,1-2.22.57A8.54,8.54,0,0,1,5.73,11.17Z"/><path class="c" d="M11.23,6.49c.29.1.38-.37.75-.21s.51.78.73,1A2.48,2.48,0,0,0,14,8.1c.38-.63,0-1.46-.07-2.14,0-.34,0-1.3.58-.92.39.24.45.75,1,.71,0-.25-.09-1.54.08-1.65s.5.27.75.27S16,3.18,15.89,3.1A12.45,12.45,0,0,0,15.07,2a2.79,2.79,0,0,0-1-.71c-.75-.35-2-1-2.72-.19-.18.2-.12.34-.42.38a1.56,1.56,0,0,1-.68-.22C9.94,1,9.45.41,9.22,1a3.82,3.82,0,0,0,.27,1.61c-.33,0-.51-.34-.76-.34-.58,0-.05,2.79.58,3.06s.26-.65.57-.82S10.75,6.11,11,6.34A.52.52,0,0,0,11.23,6.49Z"/><path class="d" d="M11.71,2.06c.17-.09.3-.14.28-.36a1,1,0,0,0-.21-.44C11.52,1,11,1,10.6.91a.9.9,0,0,0-1,.44.5.5,0,0,0,.15.75A2.13,2.13,0,0,0,11.71,2.06Z"/><path class="e" d="M11.33,2c.64-.12.87-.7.29-1A1.71,1.71,0,0,0,10.38.89c-.31.1-.71.36-.62.72.12.53.92.5,1.33.46Z"/><path class="d" d="M12.68,4.24l.14-.1A.27.27,0,0,0,13,3.89c0-.37-.46-.46-.74-.52s-.79-.37-1.06-.14a.65.65,0,0,0-.17.63.7.7,0,0,0,.76.52A1.73,1.73,0,0,0,12.68,4.24Z"/><path class="e" d="M12.83,3.45A1.55,1.55,0,0,0,11.7,3c-.74,0-.73.7-.26,1.07S13.47,4.24,12.83,3.45Z"/><path class="d" d="M14.43,2.08l-.11,0a5.3,5.3,0,0,0-.7-.26c-.32-.08-.8-.1-.77.34,0,.22.3.43.49.52a1.36,1.36,0,0,0,1.27-.05c.08,0,.18-.1.21-.21S14.61,2.12,14.43,2.08Z"/><path class="e" d="M14.35,1.72a1.3,1.3,0,0,0-1.27.07c-.58.45.41.8.89.85C14.87,2.74,15.3,2.08,14.35,1.72Z"/><path class="c" d="M8.76,5.14c-.13.2-.26.38-.35.51a7.46,7.46,0,0,0-.83,2.69c-.06.33-.1.66-.15,1s-.07,1-.28,1.11-.27-.92-.27-1A16.58,16.58,0,0,1,7.22,7a5.89,5.89,0,0,1,2.09-3.2A2.14,2.14,0,0,1,8.76,5.14Z"/><path class="c" d="M12.13,12.14a14.37,14.37,0,0,0,.72-4,4.21,4.21,0,0,0,0-1.46c-.15-.44-.14-.9-.26-1.35a.52.52,0,0,0-.09-.2,2.13,2.13,0,0,0-.15,1.12A15.28,15.28,0,0,1,12.3,8a9.53,9.53,0,0,1-.09,1.19,15.08,15.08,0,0,0-.23,1.5c0,.33-.25,1.37.1,1.57Z"/><path class="c" d="M14.78,10.1A10.13,10.13,0,0,0,15,7a6.91,6.91,0,0,0-.42-1.74,5.64,5.64,0,0,0-.28-.91,3.69,3.69,0,0,0-.48-.64c-.09-.12-.16-.29-.3-.36,0,.32.19.64.28.94s.27.7.41,1a4.15,4.15,0,0,1,.2,1.16c.09.84.19,1.67.24,2.51,0,.24-.09,1.06.06,1.19Z"/><path class="d" d="M5.85,4.78c.05-.17.1-.33.16-.5a6.14,6.14,0,0,1,1.8-2.49,4.51,4.51,0,0,1,.61-.44,4.79,4.79,0,0,1,.71-.19c-.05.13-.32.16-.46.22A4.34,4.34,0,0,0,7.1,2.88,5.51,5.51,0,0,0,6.47,4c-.17.44-.23.91-.4,1.35S5.68,6.46,5.52,7c-.09.3-.24.59-.31.9s0,.6-.1.9C4.89,8.65,4.94,8,5,7.75a3.7,3.7,0,0,1,.38-1.43A6.19,6.19,0,0,0,5.85,4.78Z"/><path class="d" d="M7.4,13.4c.1.36.5.65.43,1.06-.12-.05-.23-.26-.31-.38a5.11,5.11,0,0,1-.68-1.79,7.69,7.69,0,0,1-.27-2.19A3,3,0,0,1,7,8.48a1.81,1.81,0,0,1-.07.95,7.37,7.37,0,0,0-.07,1.33A5.33,5.33,0,0,0,7,12.25c.11.39.31.76.41,1.15Z"/><path class="d" d="M9,11.46c0,.17,0,.33,0,.5,0,.42-.13.82-.15,1.23,0,.19,0,.38,0,.57s.29,1,0,1.06c-.48,0-.32-1.57-.29-1.83a15.93,15.93,0,0,1,.47-2.66c.06-.23.13-.47.2-.71s.21-.48.29-.74,0-.33.09-.45a1.45,1.45,0,0,1-.06.71c-.05.31-.13.61-.2.91s-.15.59-.2.89Z"/><path class="d" d="M3.54,7.82c-.06.51-.06,1-.07,1.52a7.2,7.2,0,0,0,.08,1.54,2.46,2.46,0,0,0,.81,1.29c0-.18-.1-.35-.18-.5A2.5,2.5,0,0,1,4,11.15a11.72,11.72,0,0,1-.13-2.84,8.53,8.53,0,0,1,0-1.24,8.88,8.88,0,0,1,.85-2.75,3.89,3.89,0,0,1,.19-.42c.07-.13.23-.29.23-.44a2.67,2.67,0,0,0-.62.86,5.41,5.41,0,0,0-.73,1.51A14.87,14.87,0,0,0,3.54,7.82Z"/><path class="a" d="M5.31,1.91c-.32,0-.57.21-.81.37s-.44.25-.55.54c0,0,0,.08,0,.05a1.34,1.34,0,0,1,.57-.48A3.65,3.65,0,0,1,5.32,2S5.34,1.92,5.31,1.91Z"/><path class="a" d="M7.65.56a1.59,1.59,0,0,0-1.39.51s0,0,0,0A1.86,1.86,0,0,1,7.66.61S7.67.57,7.65.56Z"/><path class="a" d="M16.87,3.05s0,0,0,0-.28-.32-.43-.46a2.92,2.92,0,0,0-.54-.38s0-.06,0,0C16.32,2.28,16.61,2.71,16.87,3.05Z"/><path class="a" d="M15,1.35c-.32-.1-.45-.37-.71-.53a1.44,1.44,0,0,0-.69-.13s0,0,0,0a2.54,2.54,0,0,1,.55.1,1.25,1.25,0,0,1,.42.37.58.58,0,0,0,.42.2S15,1.36,15,1.35Z"/><path class="a" d="M25.64,14.55a5.9,5.9,0,0,1-.44.58,7.35,7.35,0,0,1-4.11,2.3l-.14,0-.09,0h0a12.7,12.7,0,0,1-1.91.25h-.53a8.47,8.47,0,0,1-1.88-.2c-.23-.05-.46-.11-.68-.18a7.89,7.89,0,0,1-4.94-5.11s15.23-5,15.53-4.16A8.4,8.4,0,0,1,25.64,14.55Z"/><rect class="b" width="27.02" height="17.92"/><path class="c" d="M25.64,14.55a5.9,5.9,0,0,1-.44.58,1,1,0,0,0,0-.14,4.74,4.74,0,0,0-.05-.83,4.84,4.84,0,0,0-.63-1.69c-.11-.19-.22-.27-.19-.51a1.58,1.58,0,0,1,.23-.66c.21-.3.41-.15.51.13a6.12,6.12,0,0,1,.18,1c.06.33.16.65.24,1A3.65,3.65,0,0,1,25.64,14.55Z"/><path class="d" d="M21.09,17.43l-.14,0-.09,0c-.08-.1-.14-.21-.2-.29a7.27,7.27,0,0,0-.61-.74,4.09,4.09,0,0,1-.6-.89c-.09-.18-.48-.59-.32-.77a.51.51,0,0,1,.51-.06c.3.11.38.48.52.73s.27.48.38.73A5.46,5.46,0,0,1,21.09,17.43Z"/><path class="d" d="M16.54,17.55c-.23-.05-.46-.11-.68-.18a12.73,12.73,0,0,1-1.08-1.25,2,2,0,0,1-.39-.55A2.53,2.53,0,0,0,14,15c-.11-.14-.39-.28-.36-.47a.61.61,0,0,1,.62.26c.41.54.79,1.12,1.21,1.67.24.3.5.58.76.86C16.31,17.36,16.43,17.45,16.54,17.55Z"/><path class="d" d="M19,17.74h-.53c-.26-.19-.54-.36-.79-.56a3.17,3.17,0,0,1-1.09-1.52,2,2,0,0,1,.38.33c.42.39.83.84,1.29,1.19C18.44,17.36,18.69,17.58,19,17.74Z"/><path class="d" d="M21,17.46a9.77,9.77,0,0,0,1.89-.6,9.68,9.68,0,0,1-1.19-.15A8.76,8.76,0,0,1,14.79,11c-1.37.42-2.51.79-3.19,1a8.69,8.69,0,0,0,4.26,5.33A9.64,9.64,0,0,0,21,17.46Z"/><path class="e" d="M26.21,7.63a1.75,1.75,0,0,1,.3,1.2c0,.29-.25.41-.46.57a5.24,5.24,0,0,0-.81,1.12,2.67,2.67,0,0,0-.57,1,3.35,3.35,0,0,1-.33,1.21A2.94,2.94,0,0,1,22.79,14a4.28,4.28,0,0,1-.8,0,1.25,1.25,0,0,0-.66.3,4.65,4.65,0,0,1-1.1.53,2.24,2.24,0,0,1-1,.1,7.44,7.44,0,0,0-2.62.08,2.72,2.72,0,0,1-1.26.26,1.64,1.64,0,0,1-.9-.6,3.16,3.16,0,0,0-1-.49,5.61,5.61,0,0,1-1.91-1c-1.27-1.2-.41-3.11.51-4.23a4.47,4.47,0,0,1,1.08-1c.35-.2.74-.1,1.08-.35s.49-.6.78-.84a3,3,0,0,1,1.13-.47A4.51,4.51,0,0,1,18.17,6c.29.07.48.24.81.22.85,0,1.53-.74,2.36-.85a3.83,3.83,0,0,1,.89-.05,9,9,0,0,1,.89.25,4.55,4.55,0,0,1,1.08.35c.32.15.76.15,1,.4s.36.6.57.86S26.07,7.47,26.21,7.63Z"/><path class="f" d="M25.43,9.42a5.35,5.35,0,0,0-.66,1.1c-.13.34-.5.53-.53.92A3.32,3.32,0,0,1,24,12.56a.56.56,0,0,0,0,.08,1.57,1.57,0,0,1-.53.45,2.47,2.47,0,0,1-.39.16,13.59,13.59,0,0,0-2.38.8,5.22,5.22,0,0,1-2.6.42,11.46,11.46,0,0,0-1.17-.06,2.11,2.11,0,0,0-.61.1,2,2,0,0,0-.31.13.92.92,0,0,1-.27.08,1.12,1.12,0,0,1-.69-.23,8.85,8.85,0,0,0-.83-.54c-.52-.23-1-.43-1.53-.7l-.06,0a3.61,3.61,0,0,1-.39-.22,1.47,1.47,0,0,1-.6-.61,2.13,2.13,0,0,1,0-1.51,5.83,5.83,0,0,1,.24-1c.13-.29.35-.4.58-.61l0,0c.12-.11.23-.23.34-.35a2.15,2.15,0,0,1,.87-.65c.27-.09.56-.1.82-.21s.51-.43.78-.63a4.4,4.4,0,0,1,.92-.53,4.12,4.12,0,0,1,2.23-.15,3.14,3.14,0,0,0,2-.45A2,2,0,0,1,22,6.18l.25.06a5.7,5.7,0,0,0,.58.06,5.66,5.66,0,0,1,.92.13,2.58,2.58,0,0,1,.81.45L25,7.2l.06,0a1.27,1.27,0,0,1,.55,1A1.71,1.71,0,0,1,25.43,9.42Z"/><path class="g" d="M17.24,12.51,16,14.64a.92.92,0,0,1-.27.08,1.12,1.12,0,0,1-.69-.23l2-2Z"/><path class="g" d="M25,7.25,22,8.62l-.09-.14,2.67-1.6L25,7.2Z"/><path class="g" d="M15.39,12.05l-2.82,1.17a3.61,3.61,0,0,1-.39-.22Z"/><path class="h" d="M22.83,6.3l-2.07,2h-.22l1.71-2.06a5.7,5.7,0,0,0,.58.06Z"/><path class="h" d="M23.94,12.64a1.57,1.57,0,0,1-.53.45l-2.74-1.21.52-.11Z"/><path class="g" d="M15.56,9.88l-.17.2-3-.79,0,0c.12-.11.23-.23.34-.35Z"/><path class="i" d="M23,9.33a1.16,1.16,0,0,1,.47.79,1.69,1.69,0,0,1-.45.94,2.62,2.62,0,0,1-1.2.57c-1.13.33-2.27.7-3.42.95a4,4,0,0,1-2.21-.09A10,10,0,0,1,14.75,12c-.75-.41-.12-1.22.22-1.67a2.72,2.72,0,0,1,.76-.79,3,3,0,0,1,1.19-.22,2,2,0,0,0,1.13-.51,2.47,2.47,0,0,1,1.48-.74,6.94,6.94,0,0,1,1.93,0c.61.08.65.45,1,.86A3.09,3.09,0,0,0,23,9.33Z"/><path class="j" d="M23,11.06a1.69,1.69,0,0,0,.45-.94A1.16,1.16,0,0,0,23,9.33a3.09,3.09,0,0,1-.57-.44c-.34-.41-.38-.78-1-.86a6.94,6.94,0,0,0-1.93,0,2.76,2.76,0,0,0-.78.23c.21.56.06,1.26.55,1.67.69.67,1.31,1.16,2.05,1.8l.49-.14A2.62,2.62,0,0,0,23,11.06Z"/><path class="a" d="M26.58,9.25s0,0,0,0a3,3,0,0,1,.36.44.84.84,0,0,1,0,.74s0,.06,0,0C27.29,10,27,9.58,26.58,9.25Z"/><path class="a" d="M26.71,9.79s-.06,0,0,0a2.66,2.66,0,0,1,.1,1.53s0,.08.06,0A1.68,1.68,0,0,0,26.71,9.79Z"/><path class="a" d="M25.91,14.51c0-.36-.19-.63-.22-1,0,0-.08-.08-.08,0a2,2,0,0,0,.16.62c.13.41-.22.63-.33,1,0,0,0,.07,0,.05A1.17,1.17,0,0,0,25.91,14.51Z"/><rect class="b" width="27.02" height="17.92"/></svg>