<svg xmlns="http://www.w3.org/2000/svg" width="256px" height="256px" viewBox="0 0 15.71 21.32"><defs><style>.a{fill:#626521;}.b{fill:#5c5f20;}.c{fill:#51521e;}.d{fill:#7a7f24;}.e{fill:#cfe522;}.f{fill:#582145;}.g{fill:#431c34;}.h{fill:#7a2760;}.i{fill:#521f43;}.j{fill:#dda0c6;}.k{fill:#3c1931;}.l{fill:#2e1525;}.m{fill:#517a2b;}.n{fill:#4b7029;}.o{fill:#59872d;}.p{fill:#466727;}</style></defs><path class="a" d="M6.24,4S5.86.71,6.13.23,7.29.13,7.32.51A12.32,12.32,0,0,0,7,3.32c.18,1-.4.83-.78.66"/><path class="b" d="M7.32.51c0-.28-.52-.57-.89-.5.05.08.14.17.26.34.23.33.27.33.08,1A5.44,5.44,0,0,0,6.6,3.38c.11.49.13.72.45.36a1.67,1.67,0,0,0,0-.42A12.32,12.32,0,0,1,7.32.51"/><path class="c" d="M7.32.51A.43.43,0,0,0,7.1.19C7,.24,6.92.3,7,.36a.77.77,0,0,1,.17.7,5.22,5.22,0,0,0-.23,2c0,.28.09.4.15.44l0-.19A12.32,12.32,0,0,1,7.32.51"/><path class="d" d="M6.23.17c-.1.1-.12.16-.14.54a8.42,8.42,0,0,0,0,1.52,4.61,4.61,0,0,0,0-.94A1.52,1.52,0,0,1,6.42.38c.1-.12-.11-.29-.19-.21"/><path class="e" d="M1.42,5.68A2.34,2.34,0,0,0,0,8.31a2.32,2.32,0,0,0,2.87,2c2.06-.51,2-2.85,1.46-3.75a2.33,2.33,0,0,0-2.95-.84"/><path class="f" d="M1.42,5.68A2.34,2.34,0,0,0,0,8.31a2.32,2.32,0,0,0,2.87,2c2.06-.51,2-2.85,1.46-3.75a2.33,2.33,0,0,0-2.95-.84"/><path class="g" d="M4.37,6.52a2.33,2.33,0,0,0-2.95-.84A2.08,2.08,0,0,0,.8,6a1.1,1.1,0,0,0,.62,0,4.51,4.51,0,0,1,1,0A1.7,1.7,0,0,1,3.78,7.61a2.31,2.31,0,0,1-1.44,2.52,4.17,4.17,0,0,0-.57.17,2.34,2.34,0,0,0,1.14,0c2.06-.51,2-2.85,1.46-3.75"/><path class="h" d="M.41,6.47A2.58,2.58,0,0,0,0,8.31a2.63,2.63,0,0,0,1.5,1.92A1.94,1.94,0,0,0,2.72,9.6a2.3,2.3,0,0,0,.64-1.83A1.89,1.89,0,0,0,1.78,6.25a2.77,2.77,0,0,0-1.37.22"/><polyline class="i" points="2.98 9.01 2.98 9.01 2.98 9.01 2.98 9.01"/><path class="j" d="M.55,6.5c.12,0-.23.58-.2,1.27S.7,8.9.57,9,0,8.51,0,7.75A2.15,2.15,0,0,1,.55,6.5"/><path class="e" d="M7.84,6.25A2.33,2.33,0,0,0,6.46,8.88a2.31,2.31,0,0,0,2.86,2c2.07-.51,2-2.85,1.47-3.74a2.32,2.32,0,0,0-2.95-.85"/><path class="f" d="M7.84,6.25A2.33,2.33,0,0,0,6.46,8.88a2.31,2.31,0,0,0,2.86,2c2.07-.51,2-2.85,1.47-3.74a2.32,2.32,0,0,0-2.95-.85"/><path class="g" d="M10.79,7.1a2.32,2.32,0,0,0-2.95-.85,1.81,1.81,0,0,0-.62.36,1.22,1.22,0,0,0,.62,0,4.5,4.5,0,0,1,1,0A1.73,1.73,0,0,1,10.2,8.18,2.31,2.31,0,0,1,8.75,10.7a4,4,0,0,0-.56.17,2.3,2.3,0,0,0,1.13,0c2.07-.51,2-2.85,1.47-3.74"/><path class="h" d="M6.83,7a2.58,2.58,0,0,0-.37,1.84A2.64,2.64,0,0,0,8,10.8a1.92,1.92,0,0,0,1.18-.63,2.27,2.27,0,0,0,.65-1.83A1.89,1.89,0,0,0,8.2,6.82,2.75,2.75,0,0,0,6.83,7"/><path class="j" d="M7,7.07c.13,0-.22.58-.19,1.27S7.11,9.48,7,9.58s-.57-.5-.53-1.26A2.17,2.17,0,0,1,7,7.07"/><path class="e" d="M10.79,7.52a2.35,2.35,0,0,0-1.38,2.64,2.32,2.32,0,0,0,2.86,2c2.07-.52,2-2.85,1.47-3.75a2.32,2.32,0,0,0-3-.85"/><path class="f" d="M10.79,7.52a2.35,2.35,0,0,0-1.38,2.64,2.32,2.32,0,0,0,2.86,2c2.07-.52,2-2.85,1.47-3.75a2.32,2.32,0,0,0-3-.85"/><path class="g" d="M13.74,8.37a2.32,2.32,0,0,0-3-.85,2,2,0,0,0-.62.36,1.12,1.12,0,0,0,.62,0,4.62,4.62,0,0,1,1,0,1.71,1.71,0,0,1,1.38,1.55A2.29,2.29,0,0,1,11.7,12a3.72,3.72,0,0,0-.56.18,2.57,2.57,0,0,0,1.13,0c2.07-.52,2-2.85,1.47-3.75"/><path class="h" d="M9.78,8.32a2.58,2.58,0,0,0-.37,1.84,2.66,2.66,0,0,0,1.49,1.92,2,2,0,0,0,1.18-.64,2.26,2.26,0,0,0,.65-1.82,1.89,1.89,0,0,0-1.58-1.53,2.76,2.76,0,0,0-1.37.23"/><path class="k" d="M12.7,11.27a.91.91,0,0,0-.26-.34l.11-.22c.26-.22.22-.43.22-.69l.27.07h0v0h0V10h0A4.67,4.67,0,0,1,13,9.37l.13-.11c0,.06,0,.13.05.2a2.62,2.62,0,0,1-.45,1.81"/><path class="l" d="M12.37,11.85c.32-.19.39-.39.33-.58a2.62,2.62,0,0,0,.45-1.81c0-.07,0-.14-.05-.2a.68.68,0,0,1,.34-.11.26.26,0,0,1,.23.1,1.8,1.8,0,0,1-.88,2.41,3.7,3.7,0,0,1-.42.19"/><path class="i" d="M12.44,10.93l-.09-.08a1.15,1.15,0,0,0,.2-.14l-.11.22"/><path class="j" d="M9.91,8.34c.13,0-.22.59-.19,1.28s.34,1.13.22,1.23-.57-.5-.53-1.25a2.18,2.18,0,0,1,.5-1.26"/><path class="e" d="M7.84,13.11a2.33,2.33,0,0,0-1.38,2.63,2.31,2.31,0,0,0,2.86,2c2.07-.51,2-2.85,1.47-3.75a2.33,2.33,0,0,0-2.95-.84"/><path class="f" d="M7.84,13.11a2.33,2.33,0,0,0-1.38,2.63,2.31,2.31,0,0,0,2.86,2c2.07-.51,2-2.85,1.47-3.75a2.33,2.33,0,0,0-2.95-.84"/><path class="g" d="M10.79,14a2.33,2.33,0,0,0-2.95-.84,1.79,1.79,0,0,0-.62.35,1.1,1.1,0,0,0,.62,0,4.5,4.5,0,0,1,1,0A1.73,1.73,0,0,1,10.2,15a2.31,2.31,0,0,1-1.45,2.52,4,4,0,0,0-.56.17,2.3,2.3,0,0,0,1.13,0c2.07-.51,2-2.85,1.47-3.75"/><path class="h" d="M6.83,13.9a2.58,2.58,0,0,0-.37,1.84A2.64,2.64,0,0,0,8,17.66,1.87,1.87,0,0,0,9.13,17a2.24,2.24,0,0,0,.65-1.82A1.88,1.88,0,0,0,8.2,13.68a2.75,2.75,0,0,0-1.37.22"/><path class="k" d="M9.75,16.86a.91.91,0,0,0-.26-.35l.12-.21c.36-.31.13-.62.24-1a.74.74,0,0,1,.3-.42c0,.06,0,.12,0,.19a2.65,2.65,0,0,1-.45,1.82"/><path class="l" d="M9.54,17.39v0c.22-.17.27-.34.22-.5A2.65,2.65,0,0,0,10.2,15c0-.07,0-.13,0-.19a.61.61,0,0,1,.34-.12.26.26,0,0,1,.23.1,1.79,1.79,0,0,1-.88,2.41,2.1,2.1,0,0,1-.3.15"/><path class="i" d="M9.49,16.51l-.09-.07.21-.14-.12.21"/><path class="j" d="M7,13.93c.13,0-.22.58-.19,1.27s.34,1.13.22,1.23-.57-.49-.53-1.25A2.17,2.17,0,0,1,7,13.93"/><path class="e" d="M6.66,16.64a2.34,2.34,0,0,0-1.38,2.64,2.31,2.31,0,0,0,2.86,1.95c2.07-.51,2-2.84,1.47-3.74a2.32,2.32,0,0,0-2.95-.85"/><path class="f" d="M6.66,16.64a2.34,2.34,0,0,0-1.38,2.64,2.31,2.31,0,0,0,2.86,1.95c2.07-.51,2-2.84,1.47-3.74a2.32,2.32,0,0,0-2.95-.85"/><path class="g" d="M9.61,17.49a2.32,2.32,0,0,0-2.95-.85A1.81,1.81,0,0,0,6,17a1.12,1.12,0,0,0,.62,0,4.62,4.62,0,0,1,1,0A1.7,1.7,0,0,1,9,18.57a2.3,2.3,0,0,1-1.45,2.52,4.67,4.67,0,0,0-.57.17,2.34,2.34,0,0,0,1.14,0c2.07-.51,2-2.84,1.47-3.74"/><path class="h" d="M5.65,17.44a2.52,2.52,0,0,0-.37,1.84,2.6,2.6,0,0,0,1.49,1.91A1.92,1.92,0,0,0,8,20.56a2.3,2.3,0,0,0,.65-1.83A1.89,1.89,0,0,0,7,17.21a2.76,2.76,0,0,0-1.37.23"/><path class="k" d="M8.56,20.39A.82.82,0,0,0,8.3,20a1.13,1.13,0,0,0,.12-.21c.37-.31.13-.61.25-1a.74.74,0,0,1,.3-.42c0,.06,0,.13,0,.19a2.6,2.6,0,0,1-.46,1.82"/><path class="l" d="M8.24,21c.31-.19.39-.39.32-.58A2.6,2.6,0,0,0,9,18.57c0-.06,0-.13,0-.19a.59.59,0,0,1,.34-.11.29.29,0,0,1,.23.09,1.8,1.8,0,0,1-.88,2.42,3.7,3.7,0,0,1-.42.19"/><path class="i" d="M8.3,20,8.22,20a1.15,1.15,0,0,0,.2-.14A1.13,1.13,0,0,1,8.3,20"/><path class="j" d="M5.78,17.46c.13,0-.22.59-.2,1.28s.35,1.13.23,1.23-.57-.5-.53-1.25a2.18,2.18,0,0,1,.5-1.26"/><path class="e" d="M7.62,5.39A2.36,2.36,0,0,0,9.16,7.94a2.3,2.3,0,0,0,3.13-1.47c.63-2.06-1.39-3.2-2.43-3.2A2.34,2.34,0,0,0,7.62,5.39"/><path class="f" d="M7.62,5.39A2.36,2.36,0,0,0,9.16,7.94a2.3,2.3,0,0,0,3.13-1.47c.63-2.06-1.39-3.2-2.43-3.2A2.34,2.34,0,0,0,7.62,5.39"/><path class="g" d="M9.86,3.27A2.34,2.34,0,0,0,7.62,5.39a1.94,1.94,0,0,0,0,.72c.27-.17.29-.65.84-1.37a1.69,1.69,0,0,1,2-.4,2.3,2.3,0,0,1,1.4,2.55,3.77,3.77,0,0,0-.14.57,2.4,2.4,0,0,0,.55-1c.63-2.06-1.39-3.2-2.43-3.2"/><path class="h" d="M7.78,6.67A2.56,2.56,0,0,0,9.16,7.94a2.64,2.64,0,0,0,2.4-.31,1.93,1.93,0,0,0,.06-1.35A2.23,2.23,0,0,0,10.4,4.79a1.86,1.86,0,0,0-2.11.58,2.94,2.94,0,0,0-.51,1.3"/><path class="l" d="M12.08,5,12,4.85h0a.49.49,0,0,1,0,.11"/><path class="j" d="M7.87,6.57c.08-.11.38.49,1,.82S10,7.67,10,7.83s-.72.24-1.34-.18a2.17,2.17,0,0,1-.81-1.08"/><path class="e" d="M7.1,9.59a2.35,2.35,0,0,0-1.38,2.64,2.32,2.32,0,0,0,2.86,2c2.07-.52,2-2.85,1.47-3.75a2.32,2.32,0,0,0-3-.85"/><path class="f" d="M7.1,9.59a2.35,2.35,0,0,0-1.38,2.64,2.32,2.32,0,0,0,2.86,2c2.07-.52,2-2.85,1.47-3.75a2.32,2.32,0,0,0-3-.85"/><path class="g" d="M10.05,10.44a2.32,2.32,0,0,0-3-.85,2,2,0,0,0-.62.36,1.12,1.12,0,0,0,.62,0,4.62,4.62,0,0,1,1,0,1.68,1.68,0,0,1,1.38,1.54A2.3,2.3,0,0,1,8,14a3.72,3.72,0,0,0-.56.18,2.57,2.57,0,0,0,1.13,0c2.07-.52,2-2.85,1.47-3.75"/><path class="h" d="M6.09,10.39a2.58,2.58,0,0,0-.37,1.84,2.66,2.66,0,0,0,1.49,1.92,2,2,0,0,0,1.18-.64A2.26,2.26,0,0,0,9,11.69a1.89,1.89,0,0,0-1.58-1.53,2.76,2.76,0,0,0-1.37.23"/><path class="k" d="M9,13.34A.91.91,0,0,0,8.75,13l.12-.21c.36-.31.13-.61.24-1a.74.74,0,0,1,.3-.42,1.33,1.33,0,0,1,.05.19A2.64,2.64,0,0,1,9,13.34"/><path class="l" d="M8.68,13.92c.32-.19.39-.39.33-.58a2.64,2.64,0,0,0,.45-1.82,1.33,1.33,0,0,0-.05-.19.71.71,0,0,1,.34-.11.26.26,0,0,1,.23.1,1.8,1.8,0,0,1-.88,2.41,3.7,3.7,0,0,1-.42.19"/><path class="i" d="M8.75,13l-.09-.07a1.91,1.91,0,0,0,.21-.14L8.75,13"/><path class="j" d="M6.22,10.41c.13,0-.22.59-.19,1.28s.35,1.13.22,1.23-.57-.5-.53-1.25a2.18,2.18,0,0,1,.5-1.26"/><path class="e" d="M4.79,13.29a2.36,2.36,0,0,0-1.38,2.64,2.32,2.32,0,0,0,2.87,2c2.06-.52,2-2.85,1.46-3.75a2.32,2.32,0,0,0-2.95-.85"/><path class="f" d="M4.79,13.29a2.36,2.36,0,0,0-1.38,2.64,2.32,2.32,0,0,0,2.87,2c2.06-.52,2-2.85,1.46-3.75a2.32,2.32,0,0,0-2.95-.85"/><path class="g" d="M7.74,14.14a2.32,2.32,0,0,0-2.95-.85,2.1,2.1,0,0,0-.62.36,1.2,1.2,0,0,0,.62,0,4,4,0,0,1,1,0,1.69,1.69,0,0,1,1.38,1.55,2.29,2.29,0,0,1-1.44,2.51,3.93,3.93,0,0,0-.57.18,2.61,2.61,0,0,0,1.14,0c2.06-.52,2-2.85,1.46-3.75"/><path class="h" d="M3.78,14.09a2.58,2.58,0,0,0-.37,1.84,2.65,2.65,0,0,0,1.5,1.92,2,2,0,0,0,1.18-.64,2.29,2.29,0,0,0,.64-1.82,1.89,1.89,0,0,0-1.58-1.53,2.78,2.78,0,0,0-1.37.23"/><path class="k" d="M6.7,17a.89.89,0,0,0-.26-.34l.12-.22c.36-.3.13-.61.24-1A.71.71,0,0,1,7.11,15c0,.07,0,.13,0,.2A2.57,2.57,0,0,1,6.7,17"/><path class="l" d="M6.38,17.62c.31-.19.38-.39.32-.58a2.57,2.57,0,0,0,.45-1.81c0-.07,0-.13,0-.2a.65.65,0,0,1,.34-.11.25.25,0,0,1,.22.1,1.79,1.79,0,0,1-.87,2.41,3.7,3.7,0,0,1-.42.19"/><path class="i" d="M6.44,16.7l-.09-.08a.85.85,0,0,0,.21-.14l-.12.22"/><path class="j" d="M3.92,14.12c.13,0-.23.58-.2,1.27s.35,1.13.22,1.23-.56-.5-.53-1.25a2.11,2.11,0,0,1,.51-1.25"/><path class="m" d="M6.88,3.79c.78,0,.45-.66.22-1.08C6.41,1.47,7.48.83,8,.58s.19.51.19.51A3.64,3.64,0,0,0,10.05,1C10.73.71,11.18.34,11.4.52a3.58,3.58,0,0,0,0,.61,6,6,0,0,1,2,.77c.57.49,1.44,2.27,2.31,2.47a7,7,0,0,1-3.7.48,20.9,20.9,0,0,1,1.32,2.69A.86.86,0,0,0,13,7.38a14.94,14.94,0,0,0,.12,2.72s-4-.94-4.53-1.81-.64-.52-.8.22-.39.75-.39.75-.64-.07-.77-1.1S6.81,6.5,6,6.54,4.2,8.64,3.37,8.48c0,0-1.22-2.36-.39-3.66,0,0-1.12-.19-1.32,0,0,0,1.55-1.94,3.15-1.81s1.17.75,2.07.75"/><path class="n" d="M10.05,6.85c1.41,1.46,2.08.88,1,0S8.62,5.1,9.55,5.29s2.48.32,1.36-.06S8.19,4.54,8.84,4.4A6,6,0,0,1,10,4.35c.7,0,1.25,0,.26-.27C8.65,3.65,7.35,4,8.14,3.54s1.92-1,2.88-.4,1.91,1.66,1.64,1-.62-.8.31-.62,1.54.13.57-.18-.86-.35-1.76-.65a18.46,18.46,0,0,0-2.56-.44c-1-.19-1.76,0-1.11-.46s1-.29,1.58-.51.67-.53,1.09-.42-.29.37,1,.57,1.3.25,1.76.7c.28.27.55.64.67.73a6.27,6.27,0,0,0-.78-1,6,6,0,0,0-2-.77,3.58,3.58,0,0,1,0-.61c-.22-.18-.67.19-1.35.51a3.64,3.64,0,0,1-1.86.06S8.51.32,8,.58s-1.59.89-.9,2.13c.23.42.56,1.08-.22,1.08s-.59-.37-1.24-.6A3.3,3.3,0,0,1,6,3.62c.29.47-.85.47-1.64,2.2s-.56,1.62.15.75,1.37-2.32,2.1-2.3a2.17,2.17,0,0,0,.43,0c.22,0,.14-.1.14.25s-.36,2,0,2.22.22-1.56.71-1.61.76.29,2.18,1.75"/><path class="o" d="M13.05,10c-1.3-2.14-4.93-5.48-5.83-6.28a.59.59,0,0,1-.34.07c-.9,0-.46-.62-2.07-.75S1.66,4.85,1.66,4.85c.2-.22,1.32,0,1.32,0-.83,1.3.39,3.66.39,3.66C4.2,8.64,5.26,6.57,6,6.54s.41.58.54,1.62.77,1.1.77,1.1.23,0,.39-.75.22-1.1.8-.22,4.53,1.81,4.53,1.81a.44.44,0,0,0,0-.1"/><path class="m" d="M10.05,6.85a3.09,3.09,0,0,0,1.22.87c-1.55-1.72-3.44-3.45-4-4h0l0,0h0l-.05,0H6.56l-.07,0h0l-.05,0h0l0,0,0,0,0,0a2.13,2.13,0,0,0-.67-.44A3.3,3.3,0,0,1,6,3.62c.29.47-.85.47-1.64,2.2s-.56,1.62.15.75,1.37-2.32,2.1-2.3a2.17,2.17,0,0,0,.43,0c.22,0,.14-.1.14.25s-.36,2,0,2.22.22-1.56.71-1.61.76.29,2.18,1.75"/><path class="p" d="M12.57,3.19l.13-.06L13,3a3.74,3.74,0,0,1,.74-.15,3.31,3.31,0,0,0-.77,0L12.63,3a2.53,2.53,0,0,0-.36.12l0,0c-.32-.11-.65-.22-1-.31h0l-.29-.07a5.36,5.36,0,0,0-.7-.1l.26-.18a5.3,5.3,0,0,1,.57-.33,5,5,0,0,1,1.26-.44,4.93,4.93,0,0,0-1.26.3l.06-.18a1.55,1.55,0,0,1,.14-.29,1.35,1.35,0,0,0-.2.27,2.15,2.15,0,0,0-.14.26,3.65,3.65,0,0,0-.53.25,5.1,5.1,0,0,0-.53.33,2.8,2.8,0,0,0-.29,0,6.64,6.64,0,0,0-1.33.17c0-.06,0-.12.08-.17a2.8,2.8,0,0,1,.25-.41,3.81,3.81,0,0,1,.69-.7,3.82,3.82,0,0,0-.78.61,3,3,0,0,0-.32.4A1.63,1.63,0,0,0,8,2.8c-.24.07-.48.15-.71.24a1.13,1.13,0,0,1,.11.36,6.84,6.84,0,0,1,.93-.34,7,7,0,0,1,1.29-.22,7.08,7.08,0,0,1,1.3.06l.19,0a12,12,0,0,1,1.29,1,4.62,4.62,0,0,0,.64.51,2.59,2.59,0,0,0,.77.26A2.57,2.57,0,0,1,13,4.36a4.38,4.38,0,0,1-.58-.56c-.19-.19-.4-.38-.6-.55l-.2-.16a4.13,4.13,0,0,1,.5.15c.85.26,1.67.62,2.52.9a7.7,7.7,0,0,0,.94.26l.09,0-.1,0a8.6,8.6,0,0,1-.9-.29c-.72-.27-1.42-.59-2.14-.86"/><path class="p" d="M11.73,8.09a3.34,3.34,0,0,1,.44.17,1.69,1.69,0,0,1,.29.17.91.91,0,0,1,.24.24.78.78,0,0,0-.22-.26,1.46,1.46,0,0,0-.28-.21,4.11,4.11,0,0,0-.6-.28c-.3-.38-.62-.75-.94-1.11C10.13,6.21,9.57,5.63,9,5.07l.23,0a5.43,5.43,0,0,1,.58.13,6.62,6.62,0,0,1,1.11.45,9.65,9.65,0,0,1,2,1.37A10.16,10.16,0,0,0,11.2,5.7h.06l.3,0q.3.06.6.15c-.19-.08-.39-.15-.58-.21l-.31-.08L11,5.56a7,7,0,0,0-1.11-.51,3.78,3.78,0,0,0-.6-.17,3.06,3.06,0,0,0-.54-.07L8,4.1c.5.05,1,.09,1.49.15.18.11.36.22.54.31a3.19,3.19,0,0,0,.59.28,3.92,3.92,0,0,1-.56-.33l-.32-.23c.34,0,.68.09,1,.15a7.6,7.6,0,0,1,1,.24,7.7,7.7,0,0,0-1-.3L9.7,4.15C9,4,8.36,3.92,7.69,3.83l-.33-.29c0,.12-.12.2-.3.24q.33.26.66.54a8.33,8.33,0,0,0-.37,1.06,9,9,0,0,0-.27,1.25A6.61,6.61,0,0,0,7,7.89a3.73,3.73,0,0,0,.28,1.23A3.75,3.75,0,0,1,7.1,7.89a5.67,5.67,0,0,1,.11-1.24A6.21,6.21,0,0,1,7.35,6a2.9,2.9,0,0,0,.06.41,2,2,0,0,0,.1.4A1.46,1.46,0,0,0,7.58,7a.41.41,0,0,0,.14.15A.31.31,0,0,1,7.6,7a.7.7,0,0,1-.06-.19,2.79,2.79,0,0,1-.07-.4q0-.36,0-.72l.09-.27c.11-.32.24-.65.38-1l.85.75.46.43a2.94,2.94,0,0,0-.17.71,3.07,3.07,0,0,0,0,.8,3.39,3.39,0,0,0-.18.39A1.78,1.78,0,0,0,8.81,8,1.48,1.48,0,0,1,9,7.59l.15-.25a3.7,3.7,0,0,0,.54,1.33,3.66,3.66,0,0,1-.44-1.5,2.92,2.92,0,0,1,0-.78,2.78,2.78,0,0,1,.17-.56q.57.54,1.11,1.11l0,0a5.15,5.15,0,0,0,0,.55,5.14,5.14,0,0,0,.06.55A3.29,3.29,0,0,0,11,9.12a3.28,3.28,0,0,1-.21-1.07,5,5,0,0,1,0-.55c0-.1,0-.2,0-.3.48.51.94,1,1.37,1.59a14.33,14.33,0,0,1,.9,1.3h0v0a14.16,14.16,0,0,0-.84-1.33c-.16-.22-.32-.43-.49-.64"/><path class="p" d="M6.4,3.69q-.25.21-.51.45A2.43,2.43,0,0,0,5.52,4a3.73,3.73,0,0,0-.46-.09l-.14-.18a1.37,1.37,0,0,0-.23-.19,1,1,0,0,0-.56-.16,1,1,0,0,1,.52.21l.2.2.06.1A4.62,4.62,0,0,0,4,3.9a6.62,6.62,0,0,0-1.9.62A6.4,6.4,0,0,1,4,4a3.48,3.48,0,0,1,1,0,2.52,2.52,0,0,1,.47.13l.25.11-.11.11-.37.39-.13,0a.44.44,0,0,0-.16.06,3,3,0,0,0-.31.15l-.32.22a3,3,0,0,0-.51-.07,1.7,1.7,0,0,0-.55.08,1.45,1.45,0,0,1,.55,0,2.88,2.88,0,0,1,.4.09l-.11.08a10.43,10.43,0,0,0-1,.93,8.72,8.72,0,0,1,1-.82,6.32,6.32,0,0,1,.56-.33l.22-.09c-.19.24-.37.48-.54.73a7,7,0,0,0-.86,1.68,5.93,5.93,0,0,0-.21.83l0,.07a6.28,6.28,0,0,1,.27-.87A7.07,7.07,0,0,1,4.54,6c.12-.16.24-.31.37-.46l-.13.3a4,4,0,0,0-.21.67,2.31,2.31,0,0,0-.06.69,2.15,2.15,0,0,1,.12-.67,3.52,3.52,0,0,1,.27-.63,5.66,5.66,0,0,1,.34-.59c.11-.16.22-.32.34-.47l.21-.19a12.21,12.21,0,0,1,1.06-.84.88.88,0,0,1-.45-.1"/><path class="n" d="M15.71,4.37a.84.84,0,0,1-.2-.08A6.22,6.22,0,0,1,13,4.67a7.05,7.05,0,0,1-1.7-.56c-.11,0,.1.16.32.49A14.2,14.2,0,0,1,13,7.11c0,.27-.18-.11-.29.08a6.21,6.21,0,0,0,.19,2.27c.09.33.15.51.18.63A14.86,14.86,0,0,1,13,7.38a.86.86,0,0,1,.38.16A20.9,20.9,0,0,0,12,4.85a7,7,0,0,0,3.7-.48"/><path class="e" d="M5.39,7.48A2.33,2.33,0,0,0,2.94,9.14a2.34,2.34,0,0,0,1.6,3.1c2.06.53,3.1-1.55,3.05-2.6a2.34,2.34,0,0,0-2.2-2.16"/><path class="f" d="M5.39,7.48A2.33,2.33,0,0,0,2.94,9.14a2.34,2.34,0,0,0,1.6,3.1c2.06.53,3.1-1.55,3.05-2.6a2.34,2.34,0,0,0-2.2-2.16"/><path class="g" d="M7.59,9.64a2.34,2.34,0,0,0-2.2-2.16,1.87,1.87,0,0,0-.71,0c.18.27.66.27,1.39.79a1.71,1.71,0,0,1,.49,2A2.29,2.29,0,0,1,4.1,11.84a3.14,3.14,0,0,0-.58-.12,2.51,2.51,0,0,0,1,.52c2.06.53,3.1-1.55,3.05-2.6"/><path class="h" d="M4.13,7.7A2.56,2.56,0,0,0,2.94,9.14a2.68,2.68,0,0,0,.41,2.41,2,2,0,0,0,1.34,0c.6-.29,1.21-.59,1.42-1.3a1.88,1.88,0,0,0-.67-2.09A2.78,2.78,0,0,0,4.13,7.7"/><path class="k" d="M5.31,11.7a.85.85,0,0,0-.07-.43l.21-.13c.46-.1.4-.48.7-.79a.7.7,0,0,1,.46-.23,1.05,1.05,0,0,1-.05.19A2.62,2.62,0,0,1,5.31,11.7"/><path class="l" d="M5.43,12.08a2,2,0,0,0-.13-.34.06.06,0,0,1,0,0,2.62,2.62,0,0,0,1.25-1.39,1.05,1.05,0,0,0,.05-.19h.07c.22,0,.42.1.44.26a1.78,1.78,0,0,1-1.69,1.7"/><path class="i" d="M5.24,11.27s0-.07,0-.11l.25,0-.21.13"/><path class="j" d="M4.23,7.79c.11.07-.47.4-.77,1S3.24,10,3.08,10s-.27-.71.12-1.36a2.09,2.09,0,0,1,1-.86"/><path class="e" d="M3,10.51a2.32,2.32,0,0,0-2.15,2,2.33,2.33,0,0,0,2.08,2.79c2.12.19,2.81-2,2.59-3.07A2.33,2.33,0,0,0,3,10.51"/><path class="f" d="M3,10.51a2.32,2.32,0,0,0-2.15,2,2.33,2.33,0,0,0,2.08,2.79c2.12.19,2.81-2,2.59-3.07A2.33,2.33,0,0,0,3,10.51"/><path class="g" d="M5.48,12.27A2.33,2.33,0,0,0,3,10.51a2,2,0,0,0-.7.13c.22.24.69.16,1.51.55a1.72,1.72,0,0,1,.8,1.92A2.29,2.29,0,0,1,2.4,15a3.18,3.18,0,0,0-.59,0,2.46,2.46,0,0,0,1.08.34c2.12.19,2.81-2,2.59-3.07"/><path class="h" d="M1.75,10.93a2.54,2.54,0,0,0-.94,1.62,2.63,2.63,0,0,0,.8,2.3,1.93,1.93,0,0,0,1.32-.21,2.26,2.26,0,0,0,1.19-1.52,1.88,1.88,0,0,0-1-2,2.84,2.84,0,0,0-1.37-.23"/><path class="k" d="M3.56,14.68a.85.85,0,0,0-.13-.41l.18-.17c.44-.17.32-.53.56-.89a.76.76,0,0,1,.42-.3,1.5,1.5,0,0,1,0,.2,2.6,2.6,0,0,1-1,1.57"/><path class="l" d="M3.07,15.12c.36-.08.49-.24.49-.44a2.6,2.6,0,0,0,1-1.57,1.5,1.5,0,0,0,0-.2l.19,0c.17,0,.32.07.35.2a1.78,1.78,0,0,1-1.6,2l-.46,0"/><path class="i" d="M3.43,14.27l-.06-.1.24-.07-.18.17"/><path class="j" d="M1.87,11c.12.06-.4.48-.6,1.14s0,1.18-.18,1.24S.71,12.72,1,12a2.14,2.14,0,0,1,.88-1"/><path class="e" d="M5.35,4.32A2.34,2.34,0,0,0,4,7a2.31,2.31,0,0,0,2.86,2c2.07-.51,2-2.85,1.47-3.75a2.34,2.34,0,0,0-3-.84"/><path class="f" d="M5.35,4.32A2.34,2.34,0,0,0,4,7a2.31,2.31,0,0,0,2.86,2c2.07-.51,2-2.85,1.47-3.75a2.34,2.34,0,0,0-3-.84"/><path class="g" d="M8.31,5.16a2.34,2.34,0,0,0-3-.84,2,2,0,0,0-.62.35,1.12,1.12,0,0,0,.62,0,4.6,4.6,0,0,1,1,0A1.71,1.71,0,0,1,7.71,6.25,2.29,2.29,0,0,1,6.27,8.77a4.17,4.17,0,0,0-.57.17,2.34,2.34,0,0,0,1.14,0c2.07-.51,2-2.85,1.47-3.75"/><path class="h" d="M4.35,5.11A2.53,2.53,0,0,0,4,7,2.62,2.62,0,0,0,5.47,8.87a1.87,1.87,0,0,0,1.18-.64A2.3,2.3,0,0,0,7.3,6.41,1.89,1.89,0,0,0,5.72,4.89a2.75,2.75,0,0,0-1.37.22"/><path class="k" d="M7.26,8.07A.82.82,0,0,0,7,7.72a1.13,1.13,0,0,0,.12-.21c.37-.31.13-.62.25-1a.74.74,0,0,1,.3-.42,1.29,1.29,0,0,1,0,.19,2.6,2.6,0,0,1-.45,1.82"/><path class="l" d="M6.94,8.64c.31-.19.39-.38.32-.57a2.6,2.6,0,0,0,.45-1.82,1.29,1.29,0,0,0,0-.19A.59.59,0,0,1,8,5.94a.26.26,0,0,1,.23.1,1.79,1.79,0,0,1-.88,2.41,3.7,3.7,0,0,1-.42.19"/><path class="i" d="M7,7.72l-.08-.07.2-.14A1.13,1.13,0,0,1,7,7.72"/><path class="j" d="M4.48,5.14c.13,0-.23.58-.2,1.27s.35,1.13.23,1.23S3.94,7.15,4,6.39a2.17,2.17,0,0,1,.5-1.25"/></svg>