<svg xmlns="http://www.w3.org/2000/svg" xmlns:xlink="http://www.w3.org/1999/xlink" width="256px" height="256px" viewBox="0 0 15.95 16.53"><defs><style>.a{fill:none;}.b{clip-path:url(#a);}.c{fill:#ffe8b6;}.d{fill:#ffd983;}.e{fill:#ffcc4d;}.f{fill:#a6d388;}.g{fill:#3e721d;}.h{fill:#c1694f;}</style><clipPath id="a" transform="translate(-0.08 -0.53)"><rect class="a" width="16.51" height="17.05"/></clipPath></defs><g class="b"><path class="c" d="M13.48.63C14.81,0,16,2.56,15,6.91c-.55,2.4-2.48,4.35-4.47,5.8S5,12.22,7,10.29,11,6.91,12,4C12.64,2.12,12.49,1.11,13.48.63Z" transform="translate(-0.08 -0.53)"/><path class="d" d="M15,3.53a11.49,11.49,0,0,1-2,6.28c-1.49,1.93-3.47,2.41-2,.48A14.43,14.43,0,0,0,14,5C14.47,3,15,1.59,15,3.53Z" transform="translate(-0.08 -0.53)"/><path class="e" d="M10.5,9.32A2.8,2.8,0,0,0,9,6.43c-1-.5-5,.48-2,.48,1.49,0,2,1,1,1.93a1.54,1.54,0,0,0-.31.44L7,9.81c-1.13.82-2.9,2-5,3.38-1.49,1-2,1.45-2,1.93,0,1.45,4.46,1.45,7,.48a18,18,0,0,0,5-3.38l2-1.93A2.86,2.86,0,0,0,10.5,9.32Z" transform="translate(-0.08 -0.53)"/><path class="c" d="M10.5,9.32A2.64,2.64,0,0,0,9,5.94a5.55,5.55,0,0,0-5.46.49c-1.49,1-1,1.93-1.49,2.41s.5,1,1.49,0S7.68,6.48,9,6.91C10.5,7.39,10,8.36,10.5,9.32Z" transform="translate(-0.08 -0.53)"/><path class="f" d="M12.49,16.57h-2c-1,0-1.49.48-2,.48s-1-1,0-1A3.76,3.76,0,0,0,11,15.6C11.49,15.12,13.48,16.57,12.49,16.57Z" transform="translate(-0.08 -0.53)"/><path class="g" d="M9,16.57a.48.48,0,0,1-.49.48.47.47,0,0,1-.35-.82.48.48,0,0,1,.35-.14.52.52,0,0,1,.35.14A.48.48,0,0,1,9,16.57Z" transform="translate(-0.08 -0.53)"/><path class="e" d="M15.57,13.19s-2.09,3.38-3.08,3.38h-2c-1,0,0-.48.5-1s2.48,0,2.48-2.89C13.48,11.26,15.57,13.19,15.57,13.19Z" transform="translate(-0.08 -0.53)"/><path class="c" d="M12.49,8.84A3.66,3.66,0,0,1,16,13.19c-.49,2.9-2.48,3.38-3.47,3.38h-1c-1,0-.49-.48,0-1s2,0,2-2.89c0-1.45-2-3.39-3-3.39A5.26,5.26,0,0,1,12.49,8.84Z" transform="translate(-0.08 -0.53)"/><path class="d" d="M8,9.81c1.49,0,2.48.48,1.49,1.45a13.15,13.15,0,0,1-5,2.9c-2,.48-4,.48-2.48-.49S6.91,9.81,8,9.81Z" transform="translate(-0.08 -0.53)"/><path class="h" d="M.57,14.64c.5,0,.5,0,.5.32s0,.64-.5.64S.08,15,.08,15,.08,14.64.57,14.64Z" transform="translate(-0.08 -0.53)"/></g></svg>