<svg xmlns="http://www.w3.org/2000/svg" xmlns:xlink="http://www.w3.org/1999/xlink" width="256px" height="256px" viewBox="0 0 20.07 22.97"><defs><style>.a{fill:none;}.b{clip-path:url(#a);}.c{fill:#b3408f;}.d{fill:#a93878;}.e{fill:#80d194;}.f{fill:#f8e2f2;}.g{fill:#f7fbfb;}.h{fill:#a2dda9;}.i{fill:#67b77d;}.j{fill:#933624;}.k{fill:#fdfefe;}.l{fill:#e7018f;}.m{clip-path:url(#b);}.n{fill:#76596f;}.o{fill:#644560;}.p{fill:#e3dbb6;}.q{fill:#4c2946;}.r{fill:#ebe2c1;}.s{fill:#ea846f;}.t{fill:#e27266;}.u{fill:#d56245;}.v{fill:#d85135;}.w{fill:#e3746f;}.x{fill:#f9b11f;}.y{fill:#ec9f12;}.z{fill:#e44e24;}</style><clipPath id="a" transform="translate(-0.31 -0.19)"><rect class="a" x="2.77" width="17.7" height="22.52"/></clipPath><clipPath id="b" transform="translate(-0.31 -0.19)"><rect class="a" y="13" width="9.72" height="10.38"/></clipPath></defs><g class="b"><path class="c" d="M19.76,17.58a4.77,4.77,0,0,1-1.05,3.14,6.27,6.27,0,0,1-3,1.12,18.73,18.73,0,0,1-3.66.25c-1.21,0-2.42-.11-3.62-.24a6.65,6.65,0,0,1-3.23-.93c-1.08-.79-1.31-2.22-1.45-3.5a17.75,17.75,0,0,1,.09-4.37A19.77,19.77,0,0,1,4.31,11,10.69,10.69,0,0,1,4.67,9.9a12.57,12.57,0,0,0,.7-1.43L5.68,8c.17.36.39,1,.79,1s.71-.26,1.06-.58.67-.67,1.09-.67.75.41.9.8c.36,1,1.12,1.71,2.08,1.19.44-.24.53-.73.7-1.21.09-.22.34-.77.56-.82s.66.87.78,1.08a1.36,1.36,0,0,0,1.21.82c.45,0,.57-.41.79-.83s.21-1,.47-1.15c.52-.36,1.88,1,2.3,1.22l.2.12a6.54,6.54,0,0,1,.51,1.29A18.07,18.07,0,0,1,19.66,14a23.18,23.18,0,0,1,.1,3.63" transform="translate(-0.31 -0.19)"/><path class="d" d="M19.75,17.58a4.71,4.71,0,0,1-1,3.14,6.34,6.34,0,0,1-3,1.12,18.73,18.73,0,0,1-3.66.25c-1.21,0-2.42-.11-3.62-.24a6.65,6.65,0,0,1-3.23-.93A4.44,4.44,0,0,1,3.8,17.66,3.56,3.56,0,0,0,5.08,20a6.52,6.52,0,0,0,3.22.94c1.21.13,2.41.22,3.62.24a18.63,18.63,0,0,0,3.66-.26,6.2,6.2,0,0,0,3-1.12c.8-.72,1.28-3.4,1.18-2.19" transform="translate(-0.31 -0.19)"/><path class="d" d="M18.61,9.82S17,8.35,16.44,8.43c-.31.05-.49,1-.65,1.28s-.49.76-.94.75a1.37,1.37,0,0,1-1.21-.81c-.12-.21-.38-1.08-.74-1s-.64,1.49-1.4,1.76A1.52,1.52,0,0,1,9.39,9.37c-.15-.39-.28-.76-.77-.76s-.8.4-1.09.66-.64.64-1.17.57A1.91,1.91,0,0,1,5.23,9l.27-.95c.18.36.42.81.82.87S7,8.65,7.39,8.33s.67-.67,1.08-.67.76.41.9.81c.36,1,1.12,1.7,2.08,1.18.45-.23.53-.73.71-1.21.08-.22.34-.77.55-.82s.83.72.95.93c.27.48.48,1,1,1s.57-.41.8-.82.21-1,.47-1.16c.52-.36,1.9.93,2.29,1.23.82.62.35,1.05.35,1.05" transform="translate(-0.31 -0.19)"/><path class="e" d="M17.85,4.94c.62-2.64.54-3.79-1.77-4.09S6,.06,5.8,2.16A5.08,5.08,0,0,0,6,4.94s-2.8,2.82-2.6,3.44c.34,1,1.33.46,2.05-.26,0,0,.48,1.8,2.24.18s2,.88,2.52,1.2c.69.44,1.33.46,2.12-1.17s1.21.38,1.42.69a1,1,0,0,0,1.84-.33c.5-1.31,1-1.36,2.34-.13s2.34.21,2.13-.64-2.24-3-2.24-3" transform="translate(-0.31 -0.19)"/><path class="f" d="M11.91,18.21c-2,.13-5.61-.24-5.68-3a4.27,4.27,0,0,1,1.63-3.27,5.06,5.06,0,0,1,3.5-.86c2.13.14,5.09.74,5.54,3.36.5,3-2.89,3.64-5,3.78" transform="translate(-0.31 -0.19)"/><path class="g" d="M11.9,18.16c-1.93.13-5.52-.24-5.59-3A4.2,4.2,0,0,1,7.91,12a5,5,0,0,1,3.46-.85c2.09.14,5,.73,5.45,3.32.5,2.91-2.84,3.59-4.92,3.72" transform="translate(-0.31 -0.19)"/><path class="h" d="M17.07,1.26c0,.36-2.37.66-5.29.66s-5.29-.3-5.29-.66S8.86.59,11.78.59s5.29.3,5.29.67" transform="translate(-0.31 -0.19)"/><path class="i" d="M18,5.46c-4,.87-9.42,1.08-10.89.41S6.31,5,6.31,5a12.17,12.17,0,0,0,6,.78c3.2-.46,5.51-.88,5.51-.88l.12.52" transform="translate(-0.31 -0.19)"/><path class="h" d="M7.83,1.41C5.89,1.92,6.53,4.26,7,5.17c0,0-3.91,3.51-2.51,3.49,0,0-1.13.54-1-.28s2.46-3.1,2.46-3.1a11.43,11.43,0,0,1-.26-2.62C5.69,1.45,7.25,1,7.67.89s.16.52.16.52" transform="translate(-0.31 -0.19)"/><path class="i" d="M16.91,1.24c1.06,1,.22,3.87.22,3.87s2.49,2.48,2.44,3.14c-.05.93-.76.63-.76.63s1,.35,1.31-.28S19,6.09,17.89,5c0,0,.71-2.06.3-3a1.22,1.22,0,0,0-1.28-.79" transform="translate(-0.31 -0.19)"/><path class="j" d="M8.93,13.11c-.24.25.39,2.83-.39,2.67-.18,0,.09-.66,0-.81-.32-.5-.64.14-.67.46,0,.49.18,1,.71,1s.9-.66,1-1.21c0-.26,0-2.79-.62-2.12" transform="translate(-0.31 -0.19)"/><path class="j" d="M8.62,12.24a.32.32,0,1,0,.63,0,.32.32,0,1,0-.63,0" transform="translate(-0.31 -0.19)"/><path class="j" d="M11.06,13.15c-.67.17-.85,1-.89,1.61,0,.33-.14,1.56.32,1.69s.31-1,.31-1.21v-.09h0a6.83,6.83,0,0,0,1.1-.11,5.17,5.17,0,0,0-.1,1.08c.1.31.39.29.56.09a3.34,3.34,0,0,0,0-2.25,1.15,1.15,0,0,0-1.34-.81m-.24,1.32c0-.33.16-.64.45-.69s.51.24.59.59A2.2,2.2,0,0,0,10.82,14.47Z" transform="translate(-0.31 -0.19)"/><path class="j" d="M14.17,13.8c-.15-.3-.45-.62-.81-.42-.55.3-.71,2.2-.3,2.67s.56-.11.51-.47a3.43,3.43,0,0,1,0-1.46c.12.26.15.74.52.71s.39-.56.64-.73c.34.6,0,1.26.1,1.87,0,.18.09.34.3.34s.35-.41.38-.67a3.39,3.39,0,0,0-.19-1.76c-.29-.58-.83-.53-1.2-.08" transform="translate(-0.31 -0.19)"/><path class="j" d="M16.54,10.75a.32.32,0,1,0-.63,0,.32.32,0,0,0,.63,0" transform="translate(-0.31 -0.19)"/><path class="j" d="M18,9.91a.32.32,0,1,0-.63,0,.32.32,0,1,0,.63,0" transform="translate(-0.31 -0.19)"/><path class="j" d="M17.66,11.8a.32.32,0,1,0,.63,0,.32.32,0,1,0-.63,0" transform="translate(-0.31 -0.19)"/><path class="j" d="M9.5,10.56a4.8,4.8,0,0,0-3.82,4.7c.09,2.41,2.62,3.38,4.56,3.56s4.43-.06,6-1.29a3.55,3.55,0,0,0,.29-5.09c-1.63-1.86-4.79-2.31-7.06-1.88m2.4,7.6c-1.93.13-5.52-.24-5.59-3A4.2,4.2,0,0,1,7.91,12a5,5,0,0,1,3.46-.85c2.09.14,5,.73,5.45,3.32C17.32,17.35,14,18,11.9,18.16Z" transform="translate(-0.31 -0.19)"/><path class="j" d="M19.17,9.43a1,1,0,0,0,1.21-.95c.07-1-1.16-2.35-2.05-3.29a.3.3,0,0,0-.25-.43l.08-.13a5,5,0,0,0,.26-1.29,3.1,3.1,0,0,0,0-1.25C18,.47,15.77.38,14.5.28a26.22,26.22,0,0,0-5.24.1C7.87.54,5.55.51,5.41,2.47a5,5,0,0,0,.11,1.27c0,.15.08.51.16.83h0c-.4.1-.24.44,0,.6l0,0C5.07,5.84,4.4,6.33,3.86,7s-1.1,1.46-.44,2.1a1,1,0,0,0,1.27,0,11.38,11.38,0,0,0-.84,2.33,17.42,17.42,0,0,0-.5,4.88c.07,1.48.2,3.36,1.22,4.49s2.63,1.35,4,1.51a31.4,31.4,0,0,0,5.13.18,10.64,10.64,0,0,0,4.63-1.09c1.25-.72,1.57-2.22,1.7-3.6A24.71,24.71,0,0,0,19.81,12a10.87,10.87,0,0,0-.64-2.57m-13.12-7a1.12,1.12,0,0,1,.64-.86,7.22,7.22,0,0,1,2.52-.47A27.27,27.27,0,0,1,14.63.94h-.09a7.31,7.31,0,0,1,2.53.51c.79.37.86,1,.71,1.87a10.4,10.4,0,0,0-.25,1.47l-.33.08c-.28.07-.57.16-.79.2-.55.1-1.09.2-1.65.27s-.91.1-1.38.13a5.81,5.81,0,0,0,1.92-1.3c.51-.56.76-2.13-.39-2a4,4,0,0,0-2.27,1.69,6.49,6.49,0,0,0-.64,1A9,9,0,0,0,11.63,4c-.37-.75-1-2-2-1.87s-.93,1.35-.41,2a5.68,5.68,0,0,0,1.71,1.36,23.38,23.38,0,0,1-2.69-.24l-.5-.09c-.26,0-.51-.11-.76-.18S6.55,4.8,6.3,4.7A11.41,11.41,0,0,0,6.05,3,2.74,2.74,0,0,1,6.05,2.38ZM12.62,5a4.48,4.48,0,0,1,.43-.64c.23-.29,1.23-1.61,2-1.56.42.12-.16.86-.27,1A6.29,6.29,0,0,1,12.62,5Zm-1.28-.09A4.62,4.62,0,0,1,9.58,3.57c-.18-.28-.26-.8.23-.76C10.57,3,11.08,4.28,11.34,4.94ZM4,8.65c-.93-.26,1.57-2.48,1.86-2.78a3.16,3.16,0,0,0,.36-.41,8.35,8.35,0,0,0,1,.26,16.41,16.41,0,0,0,3.12.37l.95,0a4.56,4.56,0,0,1-1,1.18c-.16.15-.42.29-.32.56s.33.21.51.12A3.79,3.79,0,0,0,11.8,6.49c0-.09.11-.2.17-.33a3.11,3.11,0,0,0,.61.76c.26.23,1.22,1,1.55.68S13.68,7.09,13,6.47a4,4,0,0,1-.27-.37,27.9,27.9,0,0,0,4.14-.46c.17,0,.6,0,.94-.12a9.24,9.24,0,0,1,1.37,1.6c.23.35.85,1.17.44,1.59s-.74.14-1.13-.11l-.19-.13c-.22-.16-.41-.32-.54-.42-.48-.37-1.17-1-1.81-.7s-.35,1.46-1,1.79-1-.77-1.32-1.2-1.17-.88-1.53-.13c-.28.58-.22,1.31-.89,1.61s-1.15-.29-1.36-.89S9.39,7.36,8.67,7.4a1.86,1.86,0,0,0-1,.43c-.3.23-.67.78-1,.88-.56.14-.47-.74-.78-1C5.32,7.23,4.6,8.83,4,8.65Zm15.48,8.83a4.5,4.5,0,0,1-1,3,6,6,0,0,1-2.88,1.08,17.28,17.28,0,0,1-3.52.25c-1.17,0-2.33-.11-3.49-.23a6.42,6.42,0,0,1-3.11-.9c-1-.76-1.26-2.14-1.4-3.37a16.56,16.56,0,0,1,.09-4.22c.06-.41.25-1.37.42-2,.11-.35.22-.7.36-1.05A11.66,11.66,0,0,0,5.6,8.7l0-.07a1.19,1.19,0,0,0,.8.75c.5.06.92-.39,1.26-.7S8.33,8,8.73,8s.52.47.67.86A1.58,1.58,0,0,0,11.6,10a2.07,2.07,0,0,0,.91-1.12c.07-.21.1-.8.31-.85s.63.85.75,1a1.31,1.31,0,0,0,1.17.79,1.1,1.1,0,0,0,1-.6c.16-.29.17-1.08.42-1.25.5-.34,1.6.87,2,1.12l.19.11a5.91,5.91,0,0,1,.49,1.25A18,18,0,0,1,19.38,14,21.54,21.54,0,0,1,19.46,17.48Z" transform="translate(-0.31 -0.19)"/></g><path class="k" d="M11.63,11.2a8.43,8.43,0,0,0-1,.06,7.4,7.4,0,0,0-1,.18,6.47,6.47,0,0,0-.91.3,5.27,5.27,0,0,0-.79.39,4.76,4.76,0,0,0-.65.48,3.11,3.11,0,0,0-.48.56,2.53,2.53,0,0,0-.3.59,2.23,2.23,0,0,0-.1.62,2.17,2.17,0,0,0,.1.62,2.41,2.41,0,0,0,.3.6,2.75,2.75,0,0,0,.48.55,4.09,4.09,0,0,0,.65.49,8.29,8.29,0,0,0,.79.39,6.47,6.47,0,0,0,.91.3,7.4,7.4,0,0,0,1,.18,8.62,8.62,0,0,0,2,0,7.4,7.4,0,0,0,1-.18,6.47,6.47,0,0,0,.91-.3,8.29,8.29,0,0,0,.79-.39,4.09,4.09,0,0,0,.65-.49,2.75,2.75,0,0,0,.48-.55,2.41,2.41,0,0,0,.3-.6,2.17,2.17,0,0,0,.1-.62,2.23,2.23,0,0,0-.1-.62,2.53,2.53,0,0,0-.3-.59,3.11,3.11,0,0,0-.48-.56,4.76,4.76,0,0,0-.65-.48,5.27,5.27,0,0,0-.79-.39,6.47,6.47,0,0,0-.91-.3,7.4,7.4,0,0,0-1-.18A8.47,8.47,0,0,0,11.63,11.2Z" transform="translate(-0.31 -0.19)"/><path class="l" d="M8.29,15.25s0,0,0-.05a3.57,3.57,0,0,1,1.38-1.88.66.66,0,0,1,.2-.06c.11,0,.15,0,.15.14v0a2.1,2.1,0,0,1-.53,1,2.64,2.64,0,0,1-1.15.81ZM7.78,16.7a.11.11,0,0,0,.09-.05.44.44,0,0,0,.07-.22l.19-.83a.24.24,0,0,1,0-.08.08.08,0,0,1,0-.07,1.73,1.73,0,0,1,.32.11l.18.07.18.07a.86.86,0,0,0,.32.05,1.24,1.24,0,0,0,.72-.24l.57-.44a.26.26,0,0,0,.09-.09.14.14,0,0,0,0-.07.07.07,0,0,0-.06-.06h0l0,0-.29.23-.3.24a1.19,1.19,0,0,1-.69.25l-.21,0a2.11,2.11,0,0,1-.47-.19,0,0,0,0,1,0,0l0,0,.05,0,0,0A3.2,3.2,0,0,0,10,13.92a1.75,1.75,0,0,0,.12-.32.57.57,0,0,0,0-.29.2.2,0,0,0-.2-.19c-.6,0-1.17.76-1.45,1.28a.33.33,0,0,1,0-.14.56.56,0,0,0,0-.12c.11-.45.23-.9.35-1.35a.26.26,0,0,0,0-.15.12.12,0,0,0,0-.05h0l0,0a.25.25,0,0,0,0,.11l0,.11c-.12.53-.25,1-.4,1.56-.07.24-.13.49-.19.74a4.79,4.79,0,0,1-.24.73,2.14,2.14,0,0,0-.13.62.65.65,0,0,0,0,.14A.11.11,0,0,0,7.78,16.7Z" transform="translate(-0.31 -0.19)"/><path class="l" d="M10.52,15.19h0s0,0,0,0c.06-.17.25-.45.43-.47,0,0,0,0,.05,0S10.67,15.11,10.52,15.19Zm.05.67c.38,0,1-.56,1.23-.84,0,0,0,0,0-.06s0-.05,0-.08l0,0,0,0-.05,0,0,.05-.19.18-.2.19a1.48,1.48,0,0,1-.64.37c-.1,0-.16,0-.19-.13a.31.31,0,0,1,0-.19s0,0,0-.05a.9.9,0,0,0,.66-.62c0-.13-.06-.21-.17-.21h0c-.29,0-.51.43-.6.69a.53.53,0,0,0,0,.25.42.42,0,0,0,0,.19A.26.26,0,0,0,10.57,15.86Z" transform="translate(-0.31 -0.19)"/><path class="l" d="M11.92,15.87h0a1.59,1.59,0,0,0,.71-.27,8.47,8.47,0,0,0,.76-.58l0,0,0,0a.11.11,0,0,0,0-.08.05.05,0,0,0-.05,0h0l-.05,0-.05,0-.28.22-.28.23a2,2,0,0,1-.73.34h-.07c-.22,0-.31-.12-.25-.36a1.31,1.31,0,0,1,.39-.65.25.25,0,0,1,.16-.08.1.1,0,0,1,.1.11.24.24,0,0,1,0,.2l0,.05a.07.07,0,0,0,0,.06l0,0h0l0,0a.51.51,0,0,0,.11-.39.25.25,0,0,0-.25-.18.28.28,0,0,0-.2.09,1.44,1.44,0,0,0-.47.78.19.19,0,0,0,0,.08A.36.36,0,0,0,11.92,15.87Z" transform="translate(-0.31 -0.19)"/><path class="l" d="M13.42,15.19h0a0,0,0,0,1,0,0c.06-.17.25-.45.43-.47,0,0,0,0,0,0S13.56,15.11,13.42,15.19Zm.05.67c.38,0,1-.56,1.22-.84l.05-.06a.07.07,0,0,0,0-.08l0,0,0,0-.05,0-.06.05-.19.18-.2.19a1.44,1.44,0,0,1-.63.37c-.11,0-.17,0-.19-.13a.26.26,0,0,1,0-.19.06.06,0,0,1,0-.05.89.89,0,0,0,.65-.62c0-.13-.05-.21-.16-.21h-.05c-.29,0-.51.43-.6.69a1,1,0,0,0,0,.25.63.63,0,0,0,0,.19A.27.27,0,0,0,13.47,15.86Z" transform="translate(-0.31 -0.19)"/><path class="l" d="M15.1,14.11a.14.14,0,0,1,0-.11,5.62,5.62,0,0,1,.38-.78s0,0,.06,0h0v0h0l-.15.3c-.11.21-.21.42-.32.62Zm-.45,2.28c.11,0,.29-.19.35-.28s.23-.32.36-.49.23-.32.35-.47l.08-.14a.08.08,0,0,0,0-.07,0,0,0,0,0,0-.06h0s-.09.09-.11.12c-.24.33-.52.73-.78,1.06,0,0-.13.17-.18.17a0,0,0,0,1,0,0,.62.62,0,0,1,0-.33,3,3,0,0,1,.29-1.24A6.54,6.54,0,0,0,15.74,13a.09.09,0,0,0-.05-.11h0a.11.11,0,0,0-.07,0,5.15,5.15,0,0,0-.86,1.72,1,1,0,0,1-.15.34s0,.06,0,.09a.17.17,0,0,1,0,.18,3.5,3.5,0,0,0-.09.75v.19C14.49,16.25,14.54,16.39,14.65,16.39Z" transform="translate(-0.31 -0.19)"/><g class="m"><path class="n" d="M9.46,18.38A5,5,0,0,0,9,16.92a4.73,4.73,0,0,0-1.63-1.78c-.72-.48-1.6-.62-2.32-1.08a1.34,1.34,0,0,1-.55-.58c-.1-.21-.06-.48-.36-.32s-.18.18-.33.3c-.46.37-.57-.05-.57.42a2.93,2.93,0,0,1-.74,1.17C.68,16.67,0,18.32.43,20.2A4.06,4.06,0,0,0,3,22.92a6.17,6.17,0,0,0,3.91-.2,3.84,3.84,0,0,0,1.2-.63A3.56,3.56,0,0,0,9.46,18.38Z" transform="translate(-0.31 -0.19)"/><path class="o" d="M8.45,20.8a3.71,3.71,0,0,1-1.2.62,6,6,0,0,1-3.91.2A4.06,4.06,0,0,1,.77,18.9a5,5,0,0,1-.1-1.49A4.5,4.5,0,0,0,.44,20.2,4.07,4.07,0,0,0,3,22.92a6.2,6.2,0,0,0,3.92-.2,4,4,0,0,0,1.2-.63,3.37,3.37,0,0,0,1.41-2.57A3.66,3.66,0,0,1,8.45,20.8Z" transform="translate(-0.31 -0.19)"/><path class="p" d="M8.81,16.9a4.69,4.69,0,0,0-1.59-1.69c-.71-.44-1.55-.57-2.25-1a1.31,1.31,0,0,1-.53-.54c-.1-.2-.07-.46-.35-.31s-.18.18-.32.29c-.44.38-.46-.14-.44.38,0,.79-.65,1.47-1,2.12a4.72,4.72,0,0,0,.37,5.12,3.88,3.88,0,0,0,5.42.62A3.41,3.41,0,0,0,9.32,18.3,4.89,4.89,0,0,0,8.81,16.9Z" transform="translate(-0.31 -0.19)"/><path class="q" d="M4.92,22.94C3,22.94,1,22,.59,20a4.46,4.46,0,0,1,.52-3.05,11.42,11.42,0,0,1,1.69-2,20.54,20.54,0,0,0-1.44,2,4.44,4.44,0,0,0-.48,2.88C1.22,21.75,3.14,22.71,4.92,22.94Z" transform="translate(-0.31 -0.19)"/><path class="q" d="M1.65,17a5.4,5.4,0,0,0,0,3.28,4.64,4.64,0,0,0,2,2.23A3.62,3.62,0,0,1,1.3,20.32,4.14,4.14,0,0,1,1.65,17Z" transform="translate(-0.31 -0.19)"/><path class="r" d="M3.67,15.05a2.42,2.42,0,0,1,.58-.87c.15-.12.09-.3.09-.47s-.2-.17-.25-.05c-.17.37-.54.2-.57.69-.06.71-.7,1.16-1,1.73A4.72,4.72,0,0,0,2,19.36s.08,0,.07,0a5.54,5.54,0,0,1,.15-1.9c0-.22.11-.45.18-.67a1.55,1.55,0,0,1,0,.21c0,.1.17.07.17,0,0-.5,0-.73.38-1.07A2.36,2.36,0,0,0,3.67,15.05Z" transform="translate(-0.31 -0.19)"/><path class="r" d="M4.68,14.42c.23.11.45.38.69.46.41.14.81.34,1.23.5a2.74,2.74,0,0,1,1.18.79,7.19,7.19,0,0,1,.51.59,6.65,6.65,0,0,0,.33.58.08.08,0,0,0,.14-.05,2,2,0,0,0-.67-1.19,3.8,3.8,0,0,0-.82-.73,9.33,9.33,0,0,0-1.52-.58,9.66,9.66,0,0,0-1-.46S4.64,14.39,4.68,14.42Z" transform="translate(-0.31 -0.19)"/><path class="r" d="M8.65,20.82c-.35.16-.45.55-.8.7A3.84,3.84,0,0,1,6.13,22a5.18,5.18,0,0,1-1.95-.27c-.24-.1-.46-.21-.7-.33,0,0-.26-.16-.26-.17s-.08,0-.09,0v0a.08.08,0,0,0,0,.05,4.46,4.46,0,0,0,.94.67,4.75,4.75,0,0,0,1.49.34,4,4,0,0,0,1.9-.27,6.54,6.54,0,0,0,.79-.41A2.09,2.09,0,0,0,8.77,21,.09.09,0,0,0,8.65,20.82Z" transform="translate(-0.31 -0.19)"/><path class="s" d="M6.59,22c-.14-.17-.37,0-.62,0a3.68,3.68,0,0,1-1,0,3.76,3.76,0,0,1-1.39-.77c-.74-.49-.66-.87-.87-1.45a6.17,6.17,0,0,1-.3-.75,2.72,2.72,0,0,1,0-1.47c.08-.23.25-.41.34-.63s.09-.54.2-.8c.2-.49.92-.52,1.14-1,.13-.28.28-.36.57-.15s.76,0,1.1,0a2.23,2.23,0,0,1,1,.48c.26.18.39.15.75.35a2.8,2.8,0,0,1,.94,1.15,3.3,3.3,0,0,1,.43.86,2.45,2.45,0,0,0,.2.92c.13.42.11,1.32-.33,1.59-.19.11-.12.32-.26.51s-.32.29-.44.46-.67.36-.7.46S7.05,22.51,6.59,22Z" transform="translate(-0.31 -0.19)"/><path class="t" d="M4,15.7c0,.08-.26.15-.49.33s-.26.12-.18.56,0,.35-.18.56-.28.12-.31.5-.25.26,0,.61.61.16.52.56-.06.48-.11.74a1,1,0,0,0,.11.73c.13.16.44.23.51.46s.29.49.57.41.49.2.91.28.72-.31.9-.33.39.61.49.51.36-.51.47-.56.54-.08.49-.15.13-.58.31-.62.57-.3.39-.51.23-.32.2-.48-.31-.29-.39-.64.31-.2.13-.64-.31-.8-.46-.8.13-.13-.08-.43-.33-1-.72-.43-.57.2-.65,0-.08-.71-.44-.66-.44-.06-.62,0-.2-.4-.4-.22S4.21,14.94,4,15.7Z" transform="translate(-0.31 -0.19)"/><path class="u" d="M8.32,20a.54.54,0,0,0,0-.15h.1C8.46,19.91,8.4,20,8.32,20Zm-.1-.58v0l0,0A.36.36,0,0,0,8,19.36a.37.37,0,0,0,.05-.11.44.44,0,0,0-.1-.41.32.32,0,0,0,0-.14l.09-.07c.11.14.23.25.34.39a.34.34,0,0,0,0,.1h0a.36.36,0,0,0-.11-.1c-.06-.05-.17,0-.16.1A.66.66,0,0,0,8.22,19.38Zm-.48,1.3-.1-.11a.67.67,0,0,0,.08-.44.23.23,0,0,0,.07.07A.6.6,0,0,1,7.74,20.68Zm-.67.48a.34.34,0,0,0,0-.1h.06Zm-.32-.38,0,0v0ZM6,21.84a.61.61,0,0,0-.23-.15.36.36,0,0,0-.17,0,.75.75,0,0,0,.33-.39.53.53,0,0,0,.11.21A3.41,3.41,0,0,0,6,21.84ZM4.56,21.5l0,0a.7.7,0,0,0,.14-.08.53.53,0,0,0,.13.27A1,1,0,0,1,4.56,21.5Zm-.12-.63a2,2,0,0,1,.35,0,1,1,0,0,0-.1.21l-.09.08C4.36,21.08,4.31,21,4.44,20.87Zm-.13-.22a.7.7,0,0,0-.35.12.37.37,0,0,1-.32-.11h0a.63.63,0,0,0,.45-.24,1.15,1.15,0,0,0,.31.11ZM3.23,17.59a.79.79,0,0,0,.31.13.84.84,0,0,0-.15.18l-.13,0H3.19a.53.53,0,0,1-.08-.22Zm.34-1,.06.06c0,.07-.06.17-.11.29H3.41l0,0C3.45,16.73,3.52,16.63,3.57,16.55Zm.86-.47a.13.13,0,0,0,.07.06l-.07.11-.09-.09A.73.73,0,0,1,4.43,16.08Zm1.86-.16a.36.36,0,0,0-.11.1h0v0a.41.41,0,0,0,.09-.19A.75.75,0,0,1,6.29,15.92Zm.33-.08.07.06h0l-.12,0,0-.1Zm.65.24h0l0,0h0Zm-.54,3c.14-.08.27-.16.29-.32s0,0,0,0a.47.47,0,0,0,.1-.2,1,1,0,0,1,.07.22L7,18.9c-.08.07,0,.17.08.19H7l0,.07a.76.76,0,0,0-.3,0C6.62,19.13,6.58,19.13,6.73,19ZM5.61,21.34h0v0Zm-.1-.79a.12.12,0,0,0,0-.14l.11,0,0,0a.53.53,0,0,0-.18.24h0Zm-1.22-.49.2.18a.42.42,0,0,0,0,.16l-.23-.14A.36.36,0,0,0,4.29,20.06Zm-.57-2.6a1,1,0,0,1-.29,0,1.06,1.06,0,0,0,.15-.15A1.14,1.14,0,0,0,3.72,17.46Zm1.11-1.23v0a.65.65,0,0,1-.19.18.31.31,0,0,1,.12-.23.87.87,0,0,1,.09-.11S4.83,16.18,4.83,16.23Zm.34-.13s0,0,0-.06l.09,0a.49.49,0,0,1,0,.11l-.14,0Zm2.65.6s-.05-.09-.08-.14a2,2,0,0,1,.13.18A.1.1,0,0,1,7.82,16.7Zm0,.95.06,0,.07,0-.09.08h0A.81.81,0,0,1,7.83,17.65Zm.07-.46a.49.49,0,0,0,0,.11.06.06,0,0,0,0,0,.06.06,0,0,0-.06,0,.54.54,0,0,0,.1-.16Zm-.22.95a0,0,0,0,0,0,0l.08.05v0A.18.18,0,0,0,7.68,18.14Zm-.41-.45a.44.44,0,0,0,.17-.19h.11l.09.05a.74.74,0,0,0,0,.41A.94.94,0,0,0,7.27,17.69Zm-.62.89h0s0-.11,0-.16A.36.36,0,0,0,7,18.29a.32.32,0,0,1,.14.16l-.06,0A.33.33,0,0,0,6.65,18.58Zm-.08.24h.12l-.14.08A.24.24,0,0,1,6.57,18.82Zm-.05-1.34h0a.25.25,0,0,0,0,.14.26.26,0,0,0,.3.12l0,0,0,0a.48.48,0,0,1,0,.17L6.78,18a.36.36,0,0,0-.26-.27A.53.53,0,0,0,6.52,17.48Zm.89-.68a.34.34,0,0,0,0-.1l.12.07Zm-1.06.35c0-.15,0-.3,0-.43h.07l0,0a1.1,1.1,0,0,0,.12.29A.26.26,0,0,0,6.35,17.15Zm-.26,2.27a.87.87,0,0,0,.26-.18h0l0,.05,0,0c0,.06,0,.13,0,.19A.29.29,0,0,1,6.09,19.42ZM5,20.28a.27.27,0,0,0,.23,0,.6.6,0,0,0,.11.06.7.7,0,0,1-.54.12A.39.39,0,0,0,5,20.28Zm-.75-.7a.39.39,0,0,1,.25.12q.11.19.15.3l-.07.05h0l-.21-.19A.61.61,0,0,1,4.27,19.58ZM4,19.76H4L4,19.69l.07.11h0A.11.11,0,0,0,4,19.76Zm-.3-.17a.28.28,0,0,0,0,.09h0a.19.19,0,0,0-.07-.08v0A.35.35,0,0,0,3.68,19.59Zm.06-1.53a.08.08,0,0,0,0,0,.21.21,0,0,0,0-.06l0-.12A.34.34,0,0,0,3.74,18.06Zm.33.36a.64.64,0,0,0-.35,0h0a.51.51,0,0,1,.13-.12A1.4,1.4,0,0,1,4.07,18.42Zm.18.65-.09.05h0A.5.5,0,0,0,4.23,19,.24.24,0,0,0,4.25,19.07Zm.36-.6,0,0a.22.22,0,0,1,.1.22s0,0,0,.06a.38.38,0,0,0-.09-.15A.17.17,0,0,0,4.61,18.47Zm.8-1.77,0,0H5.26s0,0,0,0Zm0-.36h.13c0,.06,0,.11,0,.16v0l-.24,0A.64.64,0,0,0,5.44,16.34Zm0-.64,0,0v.12a.31.31,0,0,0,0-.1Zm.53,1a.71.71,0,0,0-.09-.07v-.05a.18.18,0,0,1,.1,0v.13Zm.15,2.44a.27.27,0,0,1-.08.07l-.07,0v0ZM5,17.78H5l0,0H5c.17-.15.26-.05.32.11a.82.82,0,0,0-.25.3h-.1A.27.27,0,0,0,5,18a.08.08,0,0,1,0,0A.11.11,0,0,0,5,17.78Zm1-.78a.19.19,0,0,0,.1-.13.06.06,0,0,0,0,0,1.05,1.05,0,0,1,0,.24l-.09,0A.1.1,0,0,0,6.06,17Zm-.32-1.1a.25.25,0,0,1,0-.19.93.93,0,0,1,.11.19V16a.3.3,0,0,1-.08.08A.77.77,0,0,1,5.74,15.9ZM4.25,17.15a.37.37,0,0,0,.21,0v0a.68.68,0,0,0-.2,0ZM5.41,18.3a.19.19,0,0,0-.18,0,.39.39,0,0,1,.13-.17h0a.11.11,0,0,0,.07.15h0a.55.55,0,0,0,.12.26.08.08,0,0,0,0,.05h0c-.24,0-.18,0-.11-.16A.11.11,0,0,0,5.41,18.3Zm.08.61.06-.08h0l0,.12a.2.2,0,0,0,.09.09v.06a.12.12,0,0,0,0,.1v.07a.37.37,0,0,1-.18-.08A.28.28,0,0,0,5.49,18.91Zm1.79-.35a.69.69,0,0,0-.17-.1.31.31,0,0,0-.06-.28v0h.15v0a.31.31,0,0,0,.15.22,1,1,0,0,0,0,.1A.25.25,0,0,0,7.28,18.56ZM7.06,20,7.19,20l.09.11h0l-.15.05A.54.54,0,0,0,7.06,20Zm.57-1.32a.31.31,0,0,0-.2.16.43.43,0,0,0,0-.11,1,1,0,0,0,.17-.3.17.17,0,0,0,.06-.06,1,1,0,0,1,.12.16Zm-.2.32h0v0c.17.22.34.17.45,0a.48.48,0,0,1-.12.33h0l-.15-.07A.49.49,0,0,0,7.43,19ZM7,16.53s0,0,0,0l0,0,0,.06a.79.79,0,0,1-.23.28l0,0a.32.32,0,0,1,0-.24A.51.51,0,0,0,7,16.55Zm-1.4,4.78a.38.38,0,0,0,.06-.18.13.13,0,0,0,0-.06h0l0,0A.33.33,0,0,1,5.63,21.31Zm1.45-.74H7l0,0S7.07,20.56,7.08,20.57ZM2.9,17.5l-.13.15a.18.18,0,0,1,.15-.19Zm5.93,2a.66.66,0,0,0-.1-.42.37.37,0,0,0,0-.45l0,0,0-.06a.8.8,0,0,0-.33-.87,1.11,1.11,0,0,0,0-.17.78.78,0,0,0,0-.41c.09-.14.15-.29.06-.42-.23-.33-.81-.45-1-.78,0,0,0,0,0,0l0-.07c-.06-.08-.23,0-.19.06v0h0l-.07.06a1.27,1.27,0,0,0-.82-.48A1.07,1.07,0,0,0,6,15.26c-.19-.06-.31,0-.38,0a.52.52,0,0,0-.45.1c-.25-.46-1.22-.25-1.1.35a.13.13,0,0,0,.25-.05c-.06-.3.3-.28.44-.27v.06a.61.61,0,0,0-.36.36h0L4.17,16C4.08,16,4,15.9,4,15.91a.11.11,0,0,0,0-.22.54.54,0,0,0-.59.35.3.3,0,0,0,0,.13.58.58,0,0,0-.17.06.35.35,0,0,0-.23.21v0a.52.52,0,0,0-.08.19,1,1,0,0,0,.06.56c-.32.13-.69.5-.37.75a.49.49,0,0,0,.05.46c-.15.11-.23.26-.07.42a.39.39,0,0,0,.1.08.62.62,0,0,0,.17.28.37.37,0,0,0,.1.7c0,.13,0,.27.21.38l0,0a0,0,0,0,1,0,0,.27.27,0,0,0,.16.2.6.6,0,0,0,.06.19.48.48,0,0,0,.48.29A.58.58,0,0,0,4,21.2a.29.29,0,0,0,.1.25.4.4,0,0,0,.2.09A1.25,1.25,0,0,0,5,22a1.7,1.7,0,0,0,.51-.07c.3-.08.28.13.47.16s.32-.18.34-.44a.24.24,0,0,0,.19-.1.4.4,0,0,0,.15,0c.27.16.67.17.79-.14a.69.69,0,0,0,0-.47l0-.06h0c.55.12.66-.2.57-.55a.35.35,0,0,0,.28-.1c.11-.09.35-.27.33-.44l.14,0a.11.11,0,0,0,.06-.11A.2.2,0,0,0,8.83,19.49Z" transform="translate(-0.31 -0.19)"/><path class="v" d="M5.49,20.66a.62.62,0,0,1-.11-.17l.06-.17.17.08.24.05C5.8,20.67,5.69,20.88,5.49,20.66ZM5,20.36a1.36,1.36,0,0,1,0-.6v-.08l.12-.06a.75.75,0,0,0,.07.33,1.55,1.55,0,0,0,0,.43Zm-1.12-1.5a.14.14,0,0,1,0,.06C3.78,18.92,3.75,18.91,3.85,18.86Zm-.12-1.05a.31.31,0,0,1,0-.1.54.54,0,0,0,.2,0h.15l.22.21a.25.25,0,0,0,0,.07,1.16,1.16,0,0,0-.35.25A.87.87,0,0,1,3.73,17.81Zm2-1.46-.11-.06a1.05,1.05,0,0,0-.32-.09C5.45,16.2,5.69,16.23,5.73,16.35Zm1.65,3.19.09,0v.08Zm-3.3-.77.17-.06.09,0,.13,0h0l-.16.05-.21,0S4.09,18.81,4.08,18.77Zm.42-.42a.14.14,0,0,0,0,.06l-.33.07,0,0,0-.08a1.64,1.64,0,0,1,.22-.14Zm.33-2a1.21,1.21,0,0,0,0,.18c-.16-.06-.1-.14,0-.21Zm.34.24h0l-.07,0a.2.2,0,0,1,.3-.12.76.76,0,0,1,.18.06A1.24,1.24,0,0,0,5.17,16.56Zm1.14.34,0,0-.17,0a.39.39,0,0,0,0-.18l.28.08A.56.56,0,0,1,6.31,16.9Zm.43-.24,0,.05,0,0-.06,0a.21.21,0,0,0,0-.06Zm.63,2.65a.64.64,0,0,0,0-.2s0,0,0,.09v0A.22.22,0,0,1,7.37,19.31Zm-2.75-.22a2.09,2.09,0,0,1,.2-.22l.1-.05h.13l0,0a1.22,1.22,0,0,0-.15.41.5.5,0,0,0-.21,0l-.16,0Zm1-2.41L5.54,17,5.42,17a.3.3,0,0,0,.16-.13.11.11,0,0,0,0-.14h.11Zm1,.24a.29.29,0,0,0,0,.09l-.12.11a.08.08,0,0,0,0,0,1.74,1.74,0,0,0,.11-.18Zm.48.46a.27.27,0,0,0,.07-.08l0,.08Zm.32.94-.12,0a.54.54,0,0,0,.07-.13s0,0,0,.05ZM5.49,19.83l.16.06-.09.05,0,0,0,0A.13.13,0,0,1,5.49,19.83ZM5.19,19l-.08.12,0,0a.82.82,0,0,1,.12-.25S5.19,19,5.19,19ZM5,17.16l-.06.06a1.1,1.1,0,0,0-.49.21h-.1l0-.35A1.58,1.58,0,0,1,5,17.16Zm1.89.57c0-.12.07-.15.13-.11A.63.63,0,0,0,6.87,17.73Zm.17,1-.17,0a.13.13,0,0,1,0-.06,2.43,2.43,0,0,0,.27,0Zm-2.28-1a.15.15,0,0,0,0,.09l-.17,0C4.53,17.8,4.52,17.72,4.76,17.78Zm.34-.4h.2v0a.73.73,0,0,0-.42.14h0a.41.41,0,0,0,.11-.07l.1-.09Zm.65,2.1a1.37,1.37,0,0,0,.2-.13.65.65,0,0,0,.06.29l-.24-.14Zm.33-.64a.14.14,0,0,1,0,.06l-.15,0h0l.13,0Zm-.28-.58,0,0a.73.73,0,0,1,.24.22,1.34,1.34,0,0,0-.35,0,.46.46,0,0,0,.08-.19Zm.49-.11,0,0-.11.15h0l-.06-.05A.47.47,0,0,0,6.29,18.15ZM5,18.24l0,0a.49.49,0,0,0,.22-.08c.06.05.07.12,0,.23h0Zm2.8,0a.38.38,0,0,1-.11.14,1,1,0,0,0,0-.35,1.09,1.09,0,0,0,0-.18C7.88,17.9,7.92,18,7.75,18.23Zm.32-.64c-.05-.26-.35-.28-.58-.17,0,0,0-.07,0-.11s-.11-.26-.17-.39a.42.42,0,0,0-.19-.32l-.21-.33s-.1-.07-.14,0a.73.73,0,0,0-.17.18H6.52a1,1,0,0,0-.56.08H6c0-.21,0-.38-.23-.43a1.53,1.53,0,0,0-1.13.09.42.42,0,0,0-.34.39l-.12.11c-.26.07-.49.23-.46.48-.15.2-.23.38-.11.5a.87.87,0,0,0,.3.84.42.42,0,0,0,0,.16h0a.71.71,0,0,0-.27.2.11.11,0,0,0,0,.13.47.47,0,0,0,.45.17l.09.1a.43.43,0,0,0,0,.5.29.29,0,0,0,.29.12.64.64,0,0,0,.35,0,1.21,1.21,0,0,0,.29.88.21.21,0,0,0,.26,0,.57.57,0,0,0,.31.28c.3.1.47-.18.54-.46a.05.05,0,0,0,0,0,.1.1,0,0,0,.1,0c.23,0,.38-.29.43-.57a.75.75,0,0,0,.38-.1.43.43,0,0,0,.26.18.32.32,0,0,0,.34.12c.12,0,.14-.27.1-.35a.33.33,0,0,0-.06-.1,3,3,0,0,0,0-.41h0a.59.59,0,0,0,.06-.2.7.7,0,0,0-.11-.47.25.25,0,0,1,0-.07A1,1,0,0,0,8.07,17.59Z" transform="translate(-0.31 -0.19)"/><path class="w" d="M3.43,16.52l.14,0c.06,0,.06-.1,0-.1l-.14,0h0S3.38,16.52,3.43,16.52Z" transform="translate(-0.31 -0.19)"/><path class="w" d="M3.64,18.63h0S3.65,18.65,3.64,18.63Z" transform="translate(-0.31 -0.19)"/><path class="w" d="M4,18.61c0-.05-.06,0-.08,0-.15.2,0,.5,0,.72s.16.06.15,0S4,19.09,4,19,4,18.73,4,18.61Z" transform="translate(-0.31 -0.19)"/><path class="w" d="M4.42,21.06a.68.68,0,0,1,0-.4c0-.08-.08-.12-.11-.05-.13.24-.13.74.22.79a.06.06,0,0,0,.06-.07C4.55,21.23,4.46,21.16,4.42,21.06Z" transform="translate(-0.31 -0.19)"/><path class="w" d="M4.05,21.08a0,0,0,0,0,0,0s0-.06,0-.07H4a.07.07,0,0,0,0-.11l.07-.11c0-.05,0-.09-.07-.07a.08.08,0,0,0-.12,0,.24.24,0,0,0-.07.21l0,0a.15.15,0,0,1,0-.07.09.09,0,0,0,0-.11.09.09,0,0,0-.11,0,.25.25,0,0,0-.06.18.15.15,0,0,0,.16.14.14.14,0,0,0,0,.06.15.15,0,0,0,.09.06.14.14,0,0,0,.15.05s0-.05,0-.07Z" transform="translate(-0.31 -0.19)"/><path class="w" d="M6.32,20.37a.2.2,0,0,0,0,.08c.14.13.24-.09.25-.21l.1-.1c0-.05,0-.11-.09-.06a.64.64,0,0,1-.15.13h0c0-.09,0-.17,0-.26a0,0,0,0,0-.08,0s0,.08,0,.12a.88.88,0,0,0-.4-.45.06.06,0,0,0-.06,0h0c-.09,0-.13.13,0,.17s.51.41.36.63c0,0,0,.07,0,.06A.16.16,0,0,0,6.32,20.37Z" transform="translate(-0.31 -0.19)"/><path class="w" d="M6.05,20.5H6s0,0,0,0-.11,0-.15.05a0,0,0,0,0,0,.07c.06,0,.11,0,.17,0h.29s0,0,0-.05A.6.6,0,0,0,6.05,20.5Z" transform="translate(-0.31 -0.19)"/><path class="w" d="M7,21.64a.38.38,0,0,1-.18.09.91.91,0,0,1-.23,0,0,0,0,0,0,0,.07c.09.22.44.09.57,0S7,21.57,7,21.64Z" transform="translate(-0.31 -0.19)"/><path class="w" d="M6.93,19.69l-.06.07c0,.07,0,.16.11.12l.06,0s0,0,0,0S7,19.63,6.93,19.69Z" transform="translate(-0.31 -0.19)"/><path class="w" d="M8.77,18.94a.63.63,0,0,0,0-.27.75.75,0,0,1,0,.16A.14.14,0,0,1,8.77,18.94Zm-.42,1.19a.66.66,0,0,0,0-.14c0-.15-.05-.39-.21-.47l.17-.13c0-.05,0-.13-.06-.08l-.16.1h0l0,0H8v0s0,0,0,0a.08.08,0,0,0,0,.06l-.07,0a2,2,0,0,0-.39-.31L7.24,19a.25.25,0,0,0,.21-.09.86.86,0,0,0,.14-.13.75.75,0,0,0,.07.12s0,0,0,0,0,.26.09.3a.06.06,0,0,0,.09,0c0-.08,0-.16,0-.24A.49.49,0,0,1,8,18.83a.26.26,0,0,0,.1.07.23.23,0,0,0,0,.18.32.32,0,0,0,.24.14s.05,0,0,0h0a1.14,1.14,0,0,1,.17.53h0l0,.09S8.45,20,8.35,20.13Zm-.74.22,0,0a.35.35,0,0,0-.15.11,0,0,0,0,0,0,.05.11.11,0,0,0-.11,0s0,.1,0,.09,0,.17,0,.27a1,1,0,0,1-.25-.11S7,20.65,7,20.59s0-.05,0-.07c0-.26-.14-.53-.19-.78a0,0,0,0,0,0,0l.07-.06L7,19.56H7s.06,0,0-.06h0l.24-.15h0l.19.12a.07.07,0,0,0,.1,0l.14.12,0,.06a.85.85,0,0,0-.09.22l-.19.1a.16.16,0,0,1,0-.07c0-.13,0-.25,0-.37s-.11-.11-.13,0a.89.89,0,0,0-.07.36.34.34,0,0,0,0,.17,0,0,0,0,0,0,.07h0l-.11.08,0,0h0s-.09.05-.07.11.16.05.22,0a.54.54,0,0,1,.12-.09.06.06,0,0,0,0-.07.05.05,0,0,0,0-.07h0l.11-.05C7.58,20.15,7.6,20.25,7.61,20.35ZM7,19.22s0-.08,0,0h0l-.05-.1s0,0,0-.06a1.44,1.44,0,0,0,.25.18s0,0,0,0l0,0L7,19.4A.17.17,0,0,1,7,19.22Zm-.5.13,0-.05.14-.18a.18.18,0,0,0,.07-.05l.07.09A.62.62,0,0,1,6.5,19.35Zm-.19-.24h.05a.1.1,0,0,0,0,0v0l-.06.09Zm-.54-.38a.76.76,0,0,0-.09.28.06.06,0,0,0-.07,0,1.71,1.71,0,0,0-.21.26h0c0-.06-.05-.12-.08-.07a2.55,2.55,0,0,1-.31.47H5a.57.57,0,0,1,0-.14.49.49,0,0,0,0-.16,0,0,0,0,0-.06,0v.11a.88.88,0,0,1-.05-.15c0-.06,0-.12,0-.18l.08,0c.06,0,0-.09,0-.08l0,0a1.48,1.48,0,0,1,0-.21c0-.06,0-.08-.1-.08s-.12-.16-.18-.24-.06-.1,0-.15,0,.05.07.07a.08.08,0,0,0,.08,0s0,0,0-.06h0a.08.08,0,0,1,0-.05.17.17,0,0,1,.06-.06l.07.07h0s0,0,.08,0a1.7,1.7,0,0,1,0,.55,0,0,0,0,0,.06,0,.21.21,0,0,0,.19.18s0,0,0-.05-.07-.11-.07-.17a.13.13,0,0,1,0-.06s0,0,0,0A.08.08,0,0,0,5,18.65a.85.85,0,0,0,0-.39.53.53,0,0,0,.28,0s0,0,0,.07a.63.63,0,0,0-.09.42.05.05,0,0,0,.09,0,.94.94,0,0,0,.1-.28,1.17,1.17,0,0,1,.09-.24s0,0,0,0l.31-.11s0,0,0,0,0,0,0,0a1,1,0,0,0-.51-.59l0-.06.1-.21a.47.47,0,0,0,.09.22.41.41,0,0,0,.11.07.94.94,0,0,0,0,.16s0,0,0,0a.31.31,0,0,0,0,.08c0,.12.22.1.39,0a2.39,2.39,0,0,0,.13.21,1.13,1.13,0,0,0,.11.22s.08,0,.08,0a.91.91,0,0,0-.18-.47l.15-.06h0a.71.71,0,0,0,0,.14.11.11,0,0,0,.17.09.8.8,0,0,0-.07.2.06.06,0,0,0,0,.1v.06a.1.1,0,0,0,.07.08s0,0,.06,0h0a.71.71,0,0,0,.26.13h.08a1.53,1.53,0,0,1-.19.3.45.45,0,0,1,0-.2c0-.1-.17-.12-.17,0a1,1,0,0,0,.07.34l0,0s0,0,0-.06v0a.08.08,0,0,0,0-.09h0v-.06a.78.78,0,0,1,0-.22c0-.1-.14-.12-.16,0a.63.63,0,0,0,0,.24h0a.44.44,0,0,0-.17.06.43.43,0,0,1,0-.25.08.08,0,0,0,.06,0s0,0,0-.06h0c0-.07-.08-.15-.13-.08v0h0a.26.26,0,0,0,0-.15.37.37,0,0,0,0-.18s0,0,0,0l0,.08h0c-.19,0-.34.16-.41.3a.79.79,0,0,0,0,.62s.09.05.09,0c0-.25,0-.49.16-.71s.1-.08.17,0a.32.32,0,0,0,0,.17v0A2.2,2.2,0,0,0,5.77,18.73ZM5.26,20.4s-.33-.09-.28-.15a.08.08,0,0,0-.07-.14.08.08,0,0,0-.07,0s0-.08.06-.07A.08.08,0,0,0,5,19.93h.16a0,0,0,0,0,0,0h.16s0-.05,0-.06a.53.53,0,0,0-.26,0,1.64,1.64,0,0,0,.2-.29s.06.08.1.05h0a.78.78,0,0,0,.09.6.35.35,0,0,0,.05.24s0,0,0,0h0a0,0,0,0,0,0,0h0c-.11-.08-.13,0-.14,0Zm-.08.37h0a.31.31,0,0,1,0,.1.2.2,0,0,1,0,.08C5.05,20.9,5.12,20.82,5.18,20.77ZM4.36,19.6a.85.85,0,0,1,.09-.22c.06-.1-.09-.2-.15-.1a.84.84,0,0,0-.13.53H3.92l0,0h0l0,0a.08.08,0,0,0,0-.1s0,0,0-.05-.14-.2-.2-.08l0,.09a2,2,0,0,1-.19-.12.21.21,0,0,1-.1-.22c.06.11.18.27.26.13a0,0,0,0,0,0-.05.87.87,0,0,1-.08-.1.34.34,0,0,1-.05-.14.42.42,0,0,1,.1-.33.09.09,0,0,0-.06-.15h0v0a.39.39,0,0,1,.08-.1l0,0a.07.07,0,0,0,0-.13l0,0c.11-.12-.08-.27-.19-.16a1.81,1.81,0,0,0-.29.33s0,0,0,0a.37.37,0,0,0-.19.2.08.08,0,0,0,0,.08c.07.07.12,0,.17,0l.06-.07a.21.21,0,0,0,.1.06v0s0,0,.06,0a.72.72,0,0,0-.06.29.06.06,0,0,0-.09,0l-.23.15a.34.34,0,0,0-.14.22A.85.85,0,0,1,2.86,19a1.33,1.33,0,0,0,.35.19.05.05,0,0,0,0-.09c-.11-.12-.25-.22-.37-.33v-.09A2.05,2.05,0,0,1,3,18.33v.09a0,0,0,0,0,.07,0,1.33,1.33,0,0,0,.11-.32.09.09,0,0,0,0-.09l0,0a2.35,2.35,0,0,0,0-.26l.1.06.22.18a.13.13,0,0,0,.08.13.16.16,0,0,0,.19-.05,0,0,0,0,0,0-.07,0,0,0,0,0,0,0l0,0h0l.06-.1A1.57,1.57,0,0,1,4,17.6a2.09,2.09,0,0,0,0,.56.25.25,0,0,0,.35.13.25.25,0,0,0,0,.17.34.34,0,0,0,.07.15l-.06,0a.56.56,0,0,1,0-.08,1.29,1.29,0,0,0-.16-.18s-.13,0-.08.09a1.71,1.71,0,0,0,.11.14.64.64,0,0,0,.08.14.14.14,0,0,0,.22,0,.64.64,0,0,0,.19.17,0,0,0,0,0,0,0V19a1.22,1.22,0,0,1-.31-.25,0,0,0,0,0-.06,0A.76.76,0,0,0,4.4,19a0,0,0,0,0,0,.05L4.28,19a.07.07,0,1,0-.07.12.34.34,0,0,0,.26,0c.08.16.12.34.2.5a.7.7,0,0,1-.3-.08Zm-.3.63h0A1,1,0,0,1,4,20H4c.08,0,.18,0,.25-.1a.42.42,0,0,0,.08.12Zm-.48.17s0,0,0,0h0a.68.68,0,0,0,.07-.2,1.19,1.19,0,0,0,0-.46l.1,0,0,.05a.18.18,0,0,0,0,.21.13.13,0,0,0,.09,0,.83.83,0,0,0,.17.27l0,0h0l-.06.08Zm-.32-1h0a.77.77,0,0,1,.13-.12v.1h0l0,0Zm-.72-1.05c0-.05-.08-.18-.12-.2s.15-.06.09-.12h0s.08,0,.05-.06l-.16-.21c0-.08,0-.15.05-.21a.16.16,0,0,0,.1.08c0,.15.19.28.32.36a1.67,1.67,0,0,0-.1.29,2.29,2.29,0,0,0-.08.28A1.84,1.84,0,0,1,2.54,18.39Zm.08-.87,0,0,0,.05h0ZM3,17.13c0-.07,0-.19,0-.25L3,17a.83.83,0,0,0,.21.36l-.14,0A.18.18,0,0,1,3,17.32l.08-.08a0,0,0,0,0,0,0l-.06,0A.43.43,0,0,1,3,17.13Zm.21-.27a.46.46,0,0,0,.2,0c.11,0,0,.27-.05.29s0,0,0,0l0,0a.76.76,0,0,1-.15-.28.64.64,0,0,1,0-.09A.06.06,0,0,0,3.17,16.86Zm-.46.76a.24.24,0,0,1,.06-.08.59.59,0,0,0,0,.14c0,.07.12.05.11,0v-.05c.09-.13.13-.12.12,0a1.22,1.22,0,0,1,0,.27s-.06.05-.09.09S2.67,17.71,2.71,17.62Zm2.81.26c.05.07.1.15.15.21l-.2,0h0A.35.35,0,0,0,5.52,17.88Zm.37-.62a.17.17,0,0,0,0,.07.41.41,0,0,0-.11.07h0a.22.22,0,0,0,0-.08v0A.28.28,0,0,0,5.89,17.26Zm-.33.08a.29.29,0,0,1-.06-.28l0,0h0s0,.06,0,.08a.21.21,0,0,0,.05.15s0,.08,0,.11Zm.31.33s0-.08,0-.1A.18.18,0,0,1,6,17.49l0,.07a.32.32,0,0,0,.09.08Zm1.26,1.2h0a.14.14,0,0,0,0,.09l-.06,0Zm-.2-.17,0,0a.2.2,0,0,0,0,.09.16.16,0,0,0-.09,0Zm-.28-.65,0-.11a1.29,1.29,0,0,1,.3.37v0H6.9a.58.58,0,0,1-.28-.12A.45.45,0,0,1,6.65,18.05Zm-.11-.18h0a.05.05,0,0,0,0,0v0a0,0,0,0,0,0,0l0,0Zm-.29,1.06a.27.27,0,0,1,.1-.06.11.11,0,0,1,0,.05H6.25Zm.61-1.05a.25.25,0,0,0,.19,0,0,0,0,0,0,0-.08c-.06,0-.16,0-.15-.11a1.13,1.13,0,0,0,.35.09c0,.12,0,.2.19.17a0,0,0,0,0,0-.07c-.11-.1-.05-.33,0-.56a.64.64,0,0,0,.26.1.42.42,0,0,0,.06.31h0c-.05,0-.09.06-.08.13s0,.05,0,.06.19,0,.26-.08l0,.12a.42.42,0,0,0,0,.12L8,18.14c-.06,0-.14.07-.15.14l-.12-.14,0,0C7.87,18,7.75,18,7.69,18l0,0s-.12.05-.09.1l-.1.13c-.06.08-.13.18-.09.28s.15,0,.15,0a.34.34,0,0,1,.09-.19l0-.06a4,4,0,0,1,.29.39.08.08,0,0,0-.1,0,1,1,0,0,0-.13.18.37.37,0,0,1-.07-.12l0,0s.12-.12.09-.18-.1,0-.15,0a.17.17,0,0,0-.09.14.65.65,0,0,1-.16.13.39.39,0,0,1-.1.08h0c0-.05,0-.1,0-.15s0-.06-.07,0l0,.05a.54.54,0,0,1-.1-.16V18.5a.31.31,0,0,0,.12-.05s0-.07,0-.08h0a.33.33,0,0,1,.16-.13.07.07,0,1,0,0-.14.48.48,0,0,0-.16.08.13.13,0,0,0,0-.06s-.06-.05-.08,0l-.17-.17Zm0-.41h0Zm0-.75A.82.82,0,0,1,7,16.55l0,0v.06s.06.05.08,0,0,0,0,0a.65.65,0,0,0,.18,0h0a1,1,0,0,0,0,.16l0-.06a.06.06,0,0,0-.11.06,1.1,1.1,0,0,0,.13.23v0a0,0,0,0,0,.07,0l.12.12a1.76,1.76,0,0,0-.15.44l-.15-.08L7,17.55c0-.05.09-.1.13-.09a.06.06,0,0,0,0-.12.19.19,0,0,0-.13,0s0-.05-.06-.05a.29.29,0,0,0-.16,0,.78.78,0,0,1,0-.16h0s.07,0,.06-.05l0-.09A.82.82,0,0,1,7,16.78a.06.06,0,0,0-.1-.08.1.1,0,0,1,0,.05Zm.08-.34c-.05,0,0-.11,0-.17a.31.31,0,0,1,.06.13Zm.65.51-.11.2-.1-.1a1.21,1.21,0,0,0,0-.18A.8.8,0,0,0,7.59,16.89Zm.77.74h0a.43.43,0,0,0,0,.11l0-.06h0Zm.05.75s0,0,0,0l0,.09-.05,0a.11.11,0,0,0,0,.11.09.09,0,0,0,.1,0h0a1.49,1.49,0,0,1,.08.43h-.1l0-.08a1.07,1.07,0,0,0-.21-.22.07.07,0,0,0-.06,0l0,0a2.92,2.92,0,0,0-.24-.37c.06,0,.11-.07.16-.1l.08,0A.6.6,0,0,0,8.41,18.38ZM6,21a.28.28,0,0,0-.1.12.29.29,0,0,0-.14,0,.56.56,0,0,0,0-.12s0,0,0,0A.88.88,0,0,0,6,21Zm.23,0,.09,0a1.06,1.06,0,0,0,0,.35l-.1-.07s-.11-.07-.06-.1A.09.09,0,0,0,6,21a.05.05,0,0,0,0,0A.13.13,0,0,0,6.18,21ZM5.7,16.29v0l0,0Zm.56-.55a.31.31,0,0,1,.11-.09c0,.09,0,.16-.13.23h0S6.23,15.79,6.26,15.74Zm0-.21h0a.48.48,0,0,0-.18.17s0,0,0,0,0-.09,0-.14S6.17,15.5,6.25,15.53Zm-1.2.34.18,0C5.14,15.92,5.1,15.94,5.05,15.87Zm-.46-.18.06,0H4.59Zm-.38.3c-.06,0-.29.18-.24-.09a.34.34,0,0,1,.23-.29.2.2,0,0,0,.08.18.41.41,0,0,0,.13.08A2.12,2.12,0,0,1,4.21,16Zm-.07.61a.35.35,0,0,1-.16.08.07.07,0,0,1-.08,0L4,16.44a.54.54,0,0,0,.07-.13A.19.19,0,0,1,4.14,16.6Zm-.59-.38.08,0a.2.2,0,0,0,0,.11A.6.6,0,0,1,3.55,16.22Zm5.27,2.35-.1-.12h0a.56.56,0,0,0,.13-.32c0-.05-.09-.07-.09,0a.51.51,0,0,1-.16.23h0l0-.05c0-.05-.08,0-.1,0a1.88,1.88,0,0,0-.12-.18l.06,0c.07,0,0-.12-.05-.1l-.07,0a.48.48,0,0,1-.08-.28l0,0a.27.27,0,0,1,.08.07,0,0,0,0,0,.07,0s.08,0,.08,0a.42.42,0,0,1,0-.12s0-.05,0-.07a.1.1,0,0,0-.13-.1.35.35,0,0,0-.14.06,0,0,0,0,0-.07,0s0,0,0,0a.24.24,0,0,0-.15,0,.29.29,0,0,1,0-.09c.09,0,.16-.09.18-.17a1,1,0,0,0,0-.16l.07,0c.07,0,0-.17-.07-.14h0a1,1,0,0,1,0-.3c0-.06-.07-.09-.09,0a1,1,0,0,0-.06.41.58.58,0,0,0-.21.2,1.67,1.67,0,0,1-.23-.12l.13-.25a.67.67,0,0,0,.28,0s0-.06,0-.06l-.2,0,0-.06c0-.07,0-.12.06-.16s0-.13-.09-.09-.14.12-.14.21a.09.09,0,0,1,0,.05l-.06,0-.07-.05v0c0-.12.07-.36.19-.43s0-.13-.06-.1-.19.23-.24.36l0,.06s-.06,0-.07,0l-.14,0a.33.33,0,0,0,0-.14.39.39,0,0,1,.1-.08c.06-.05,0-.17-.08-.12l-.06.06,0-.06a.58.58,0,0,0-.1-.12.22.22,0,0,1,.1-.11c.08,0,0-.15,0-.14a.34.34,0,0,0-.18.13.28.28,0,0,0-.22-.11c-.06,0,0,.11,0,.11s.08.08.09.09l0,0a.8.8,0,0,0,0,.21c0,.07,0,.21.09.24-.14.18-.24.39-.14.55a1.42,1.42,0,0,0-.08.45s0,0,0-.05a.06.06,0,0,0-.07-.06l0-.08A.53.53,0,0,0,6.37,17a.8.8,0,0,1,.09-.43c0-.07-.06-.12-.11-.09s0-.12.06-.19a.76.76,0,0,0,.28.05s.06-.07,0-.09a.67.67,0,0,0-.21-.1l-.06,0a.12.12,0,0,0-.1,0h0a.09.09,0,0,0,0-.09v0a.26.26,0,0,0,.09-.36.26.26,0,0,1,.15,0c.08,0,.09-.11,0-.13a.48.48,0,0,0-.27,0,.06.06,0,0,0,0-.1.31.31,0,0,0-.19,0,.22.22,0,0,0-.19.12c0,.12-.07.39.12.4H6s0,.06,0,.08v0L6,16a.07.07,0,0,0-.1,0,1.15,1.15,0,0,0-.23.1,2.68,2.68,0,0,0-.21-.39h0a.09.09,0,0,0,0-.06c-.09-.16-.15-.31-.09-.37s0-.1-.06-.07-.07.26,0,.39v0a3.93,3.93,0,0,0-.4.11h0v0a1.3,1.3,0,0,1-.3-.32c0-.12.26-.19.32-.2a.06.06,0,1,0,0-.12c-.15,0-.43.06-.48.23a.27.27,0,0,0,0,.2H4.29a.34.34,0,0,0-.41.12.56.56,0,0,0-.09.5.39.39,0,0,0,.08.1l-.06,0c-.05,0-.08,0-.07,0v-.1c0-.06-.11-.05-.11,0H3.5a.18.18,0,0,1,0-.1c0-.17.18-.3.32-.31s.06-.11,0-.11a.47.47,0,0,0-.44.33c-.08.2.12.38.29.45a0,0,0,0,0,0-.06h0c.1,0,.19,0,.28-.05a1,1,0,0,1-.11.14l-.05.08a.05.05,0,0,0-.08,0c-.05.09,0,.22.1.28a.33.33,0,0,0,.32,0,.47.47,0,0,0,.15.51s.09,0,.08,0a1.55,1.55,0,0,1-.07-.48,1.08,1.08,0,0,1,.2-.45c0-.07-.07-.14-.11-.07l-.08.11v0a.33.33,0,0,0-.17-.14.84.84,0,0,0,.41-.33h.11s0,0,0,0h0V16a.08.08,0,0,1,0,0s-.07,0-.11,0,0,0,0,0a.12.12,0,0,0,.17.07A.25.25,0,0,0,4.87,16a.28.28,0,0,0,0-.09h.06c0,.11,0,.25.18.21a.64.64,0,0,0,.3-.24.43.43,0,0,0,0,.07,1.17,1.17,0,0,1,.09.24l-.21.12a1.4,1.4,0,0,1,.1-.16c0-.06,0-.11-.09-.06s-.18.3-.29.44H5a.55.55,0,0,0-.12.19s0,0,0,0,0,0,.07,0,.08,0,.11-.09a2.08,2.08,0,0,0,.21-.21l.27-.18a1.09,1.09,0,0,0,0,.17s0,0,.06,0a.06.06,0,0,0,0,0,.06.06,0,0,0,.06,0c.12-.06.24-.21.35-.28l.05,0a.25.25,0,0,0,.11.12,2.66,2.66,0,0,0-.1.38.3.3,0,0,0,0,.28.71.71,0,0,0,0,.35s.07,0,.08,0,0,0,0-.06a2.44,2.44,0,0,1,0,.26v.1a.37.37,0,0,1-.26-.12,0,0,0,0,1,0,0s0-.14-.06-.13H6a.69.69,0,0,1,0-.1l.11-.09a0,0,0,1,0,0-.05.7.7,0,0,0-.14,0s-.06,0-.06,0H5.81A1.3,1.3,0,0,1,5.89,17c0-.05,0-.1-.08-.09l0,0a1.51,1.51,0,0,1,.28-.15c.08,0,0-.17,0-.13l-.18.09H5.84a.4.4,0,0,0-.12.1l-.07,0-.08.06,0-.07c0-.05,0-.08-.07,0a1.24,1.24,0,0,0-.1.2h0l-.57-.12s0-.12-.07-.11-.1.19,0,.25a1.15,1.15,0,0,0,.5.1l0,0s0,.06,0,.06a2.26,2.26,0,0,0-.2.28l-.18-.07s-.07,0,0,.06a1,1,0,0,0,.16.12c0,.11,0,.21.09.25a.07.07,0,1,0,0-.12,0,0,0,0,1,0-.05l.15.1.09.08a0,0,0,0,0,0,0c.05,0,0,.19-.11.32h0c-.05,0,0-.12,0-.17s0,0,0,0a.19.19,0,0,0,0,.18H5.11c-.18,0-.24-.18-.24-.33s0-.15,0-.17a.06.06,0,0,0-.07-.1c-.11.05-.12.24-.08.4l0,0-.05,0a1.59,1.59,0,0,0-.13-.13.13.13,0,0,0,.06-.07,2,2,0,0,0,.2-.31.07.07,0,0,0,0-.1A1.89,1.89,0,0,1,4.6,17c0-.23.17-.42.32-.57s0-.13-.06-.11a.08.08,0,0,0-.07,0,.36.36,0,0,0-.17.07s-.12.1-.09.17,0,.06.07.05a.79.79,0,0,0-.14.37.47.47,0,0,0,.17.41,1.77,1.77,0,0,1-.16.22l-.08.09h0a.07.07,0,0,0-.06,0l-.08,0s-.06.09,0,.12a1.28,1.28,0,0,1,.26.26.31.31,0,0,0,.06.13s0,0,0,0l-.09.08s0,0,0,0c-.32,0-.31-.2-.3-.4a1.12,1.12,0,0,0,0-.32,0,0,0,0,0-.09,0,.09.09,0,0,0-.12,0,3.27,3.27,0,0,0-.3.35.53.53,0,0,0-.13-.13l-.15-.11-.06-.06s.11,0,.12,0a.08.08,0,0,0,.07-.05.05.05,0,0,0,0,0,.08.08,0,0,0,.08,0h0a.26.26,0,0,0,.32,0s0-.07,0-.09a.18.18,0,0,0-.09,0s-.05,0-.07,0l0,0a.34.34,0,0,1,.24-.16c.1,0,.11-.17,0-.17a.63.63,0,0,0-.3.1.42.42,0,0,0,0-.16.25.25,0,0,0-.07-.2c-.08-.09-.19-.06-.3-.05a.3.3,0,0,0,0-.13c0-.06-.07-.06-.1,0a.84.84,0,0,0-.12.23c0-.07,0-.15,0-.17s0-.1,0-.08S3,16.68,3,16.8H3c-.11.07-.1.23-.11.35a.4.4,0,0,0,0,.15l-.11.09a.06.06,0,0,0-.08-.07.35.35,0,0,0-.22.14h0a.07.07,0,0,0-.12,0,.31.31,0,0,0,.06.54H2.33a.08.08,0,0,0-.06,0c-.08.18.11.42.21.55a1.37,1.37,0,0,0,.2.22.68.68,0,0,0,.24.71.06.06,0,0,0,.07,0H3c0,.05.06.08.11.1a.26.26,0,0,0-.07.15c0,.18.19.31.35.27a.07.07,0,0,0,0-.07c0-.06-.19-.12-.16-.2s.1-.11.17-.15h0a.09.09,0,0,0,.11.05h0a1.2,1.2,0,0,1,0,.42c0,.07-.06.16-.08.24a.07.07,0,0,0,0,.07s0,0,0,.06a0,0,0,0,1,0,0h0c-.09-.07-.21-.11-.3-.17A.4.4,0,0,1,2.87,20c0-.11-.16-.12-.16,0a.5.5,0,0,0,0,.21c0,.07.09.12.13.19a.67.67,0,0,0,.37.2.07.07,0,0,0,0,.05c0,.05,0,.08.06.1s.12,0,.18-.07l.08-.09a1,1,0,0,0,.29,0,.08.08,0,0,0,.11,0l.08,0H4l0,0,.12-.12.24-.22,0,0,.05,0a0,0,0,0,0,0-.06,1.5,1.5,0,0,0-.11-.13.15.15,0,0,1,0-.11,1.67,1.67,0,0,0,.3.08s0,.05,0,.05h0a.71.71,0,0,0-.09.28.52.52,0,0,0,.2.5l-.12,0c-.07,0-.14.11-.21.1s0,0,0,0,0,.18.16.15a.55.55,0,0,0,.14-.09.52.52,0,0,1,.2-.06A.29.29,0,0,0,5,21a0,0,0,0,0,0,.09l0,0s-.09,0-.13,0a0,0,0,0,0,0,0c0,.06.06.12.13.14a.08.08,0,0,0-.07.09.34.34,0,0,0,.12.28.89.89,0,0,0,.34.16s.07,0,0-.06a1.14,1.14,0,0,0-.19-.19L5,21.46s0-.08,0-.12a.1.1,0,0,0-.07-.08l.07,0a.19.19,0,0,0,0,.07c0,.08.16,0,.16,0a.38.38,0,0,1,0-.1H5.3c.09,0,.09-.13,0-.13H5.24l0-.06a.64.64,0,0,0,.07-.27c0-.14-.17-.08-.25,0-.06-.1-.14-.17-.2-.26a.42.42,0,0,0,.14.09.65.65,0,0,0,.39.05v0a.83.83,0,0,0,.16.21l.09.08a.06.06,0,0,0-.06,0c0,.1-.09.16-.08.27a.08.08,0,0,0,.11.07c.18,0,.24.06.21.18a.43.43,0,0,1,0,.12c-.09.17-.14.12-.24,0a0,0,0,0,0-.07,0c0,.09,0,.24.18.24s.22-.12.27-.23a.54.54,0,0,0,0-.21l.08.07a1,1,0,0,0,.78.19s.05-.06,0-.08a2.73,2.73,0,0,0-.43-.16.29.29,0,0,1,0-.1.54.54,0,0,1,0-.18,1.24,1.24,0,0,0,0-.27,0,0,0,0,0,0,0v-.06c0-.06-.1,0-.11,0a.13.13,0,0,1,0,.06l-.07,0-.07,0-.09,0s0,0,0,0H6a1,1,0,0,0-.25-.2.7.7,0,0,1-.21-.25l0,0,0,0a.18.18,0,0,0,.16,0,.05.05,0,0,0,0-.06v0l0,0c0-.06-.07-.09-.09-.14a.25.25,0,0,1,0-.12A.07.07,0,0,0,5.64,20a1.05,1.05,0,0,0,0-.19.92.92,0,0,1,0-.33c0-.07-.06-.1-.11-.08l0,0a1.16,1.16,0,0,1,.2-.25.44.44,0,0,0,.28.29c.06,0,.1-.08,0-.11-.36-.16-.17-.5,0-.78a.62.62,0,0,0,0,.38s0,0,0,0a0,0,0,0,0,0,0,.23.23,0,0,0-.1,0,.16.16,0,0,0-.08.15.13.13,0,0,0,.13.1.05.05,0,0,0,0-.06s0,0,.09-.06v0a1.13,1.13,0,0,0,.22.27.83.83,0,0,0-.18.13.07.07,0,0,0,.07.11,1.11,1.11,0,0,0,.3-.12.08.08,0,0,0,0-.05,0,0,0,0,0,0,0,.82.82,0,0,0,.26-.22l.06,0a.22.22,0,0,0,0,.14s0,0,0,0l-.08.06a2.18,2.18,0,0,0-.4.34,0,0,0,0,0,0,.07.52.52,0,0,0,.26-.12c0,.16,0,.31.08.47s0,.08,0,.12l0,0a.38.38,0,0,0-.15.43l0,.06a.93.93,0,0,0,0,.13s-.1,0-.11,0a.15.15,0,0,0,0,.18l0,0a.19.19,0,0,0,.1.19c.1,0,.18-.1.08-.15h0a0,0,0,0,0,0-.08h0a1.76,1.76,0,0,1,0-.23.34.34,0,0,0,.24,0S7.07,21,7,21s-.13-.09-.19-.14a.15.15,0,0,1,0-.23.85.85,0,0,0,.09.22s.07,0,.09,0l0,0a1,1,0,0,0,.15.11h0a1.09,1.09,0,0,0-.13.17.29.29,0,0,1-.14.13c-.11,0,0,.2.06.16A.53.53,0,0,0,7.26,21l.15,0h0l0,0c-.08.08-.21.2-.18.32a.22.22,0,0,0,.28.12.06.06,0,0,0,0-.08l-.06,0s-.1,0-.08-.06h0s0,0,0,0c.19,0,.16-.36.15-.5a.36.36,0,0,0-.07-.22c.13,0,.26-.07.34-.15A.69.69,0,0,0,8,20.08c0-.08-.1-.12-.12,0a.82.82,0,0,1-.16.25,1.82,1.82,0,0,1,0-.33h0a.49.49,0,0,0,.17-.31c.08-.05.16,0,.24.09l0,.06a0,0,0,0,0,0,0c0,.14-.08.39,0,.5a.25.25,0,0,0,0,.07,0,0,0,0,0,0,0l0,.05s0,0,0,0,0,.05,0,.08-.06.05-.07,0a.06.06,0,0,0-.09.06h0l0,0a0,0,0,0,0,0,.06.12.12,0,0,0,.1,0L7.91,21c0,.07.08.09.1,0a2.45,2.45,0,0,0,.08-.29h0l0,0a1.79,1.79,0,0,0,.25-.23.18.18,0,0,0,.16,0,0,0,0,0,0,0-.07l-.11,0,0,0a.75.75,0,0,1,.07-.12,2.21,2.21,0,0,0,.16-.35.53.53,0,0,0,.06-.68A.37.37,0,0,0,8.91,19,.45.45,0,0,0,8.82,18.57Z" transform="translate(-0.31 -0.19)"/><path class="w" d="M5.8,16s.09,0,.09,0a1.71,1.71,0,0,0-.13-.38c0-.08-.09-.17,0-.25s.15,0,.19,0,.11-.07,0-.1-.35-.09-.41.12a.63.63,0,0,0,.09.35A.73.73,0,0,0,5.8,16Z" transform="translate(-0.31 -0.19)"/><path class="w" d="M4,21Z" transform="translate(-0.31 -0.19)"/><path class="w" d="M2.64,19.17a0,0,0,0,0-.08,0,1.18,1.18,0,0,0,.06.74s.07,0,.07,0a.83.83,0,0,0,0-.27A3.39,3.39,0,0,1,2.64,19.17Z" transform="translate(-0.31 -0.19)"/><path class="x" d="M6.42,18c0,.08,0,.15-.11.15s-.1-.07-.1-.15,0-.15.1-.15S6.42,17.94,6.42,18Z" transform="translate(-0.31 -0.19)"/><path class="y" d="M6.38,17.91h0c0,.08,0,.15-.1.15a.1.1,0,0,1-.07,0c0,.08,0,.14.1.14s.11-.07.11-.15A.18.18,0,0,0,6.38,17.91Z" transform="translate(-0.31 -0.19)"/><path class="x" d="M3.57,17.55c.09,0,.16.05.16.11s-.07.1-.16.1-.15-.05-.15-.1S3.49,17.55,3.57,17.55Z" transform="translate(-0.31 -0.19)"/><path class="y" d="M3.46,17.59h0c.08,0,.15.05.15.11s0,0,0,.06a.14.14,0,0,0,.15-.1c0-.06-.07-.1-.16-.11A.21.21,0,0,0,3.46,17.59Z" transform="translate(-0.31 -0.19)"/><path class="x" d="M6,19.05c-.07,0-.11-.11-.09-.16a.13.13,0,0,1,.18,0c.08,0,.12.11.09.16S6.09,19.08,6,19.05Z" transform="translate(-0.31 -0.19)"/><path class="y" d="M6.13,19.06h0C6.05,19,6,19,6,18.9a.08.08,0,0,1,.07,0A.11.11,0,1,0,6,19,.18.18,0,0,0,6.13,19.06Z" transform="translate(-0.31 -0.19)"/><path class="x" d="M6.44,20.49a.13.13,0,0,1,0-.17c.06,0,.12,0,.15.11s0,.16-.06.17S6.46,20.57,6.44,20.49Z" transform="translate(-0.31 -0.19)"/><path class="y" d="M6.51,20.59h0a.14.14,0,0,1,.06-.17.11.11,0,0,1,.08,0c0-.07-.09-.12-.15-.1a.13.13,0,0,0,0,.17A.15.15,0,0,0,6.51,20.59Z" transform="translate(-0.31 -0.19)"/><path class="x" d="M6.1,18.13c0,.08,0,.16-.07.17s-.12,0-.14-.12A.13.13,0,0,1,6,18S6.08,18.05,6.1,18.13Z" transform="translate(-0.31 -0.19)"/><path class="y" d="M6,18H6c0,.08,0,.16-.07.17a.08.08,0,0,1-.08,0c0,.08.09.13.14.11s.09-.09.07-.17A.18.18,0,0,0,6,18Z" transform="translate(-0.31 -0.19)"/><path class="x" d="M5.75,16.39a.13.13,0,0,1-.07.16c-.06,0-.12,0-.14-.12s0-.16.07-.17S5.73,16.31,5.75,16.39Z" transform="translate(-0.31 -0.19)"/><path class="y" d="M5.69,16.28h0c0,.08,0,.16-.07.17a.12.12,0,0,1-.08,0c0,.07.08.13.14.11a.13.13,0,0,0,.07-.16A.23.23,0,0,0,5.69,16.28Z" transform="translate(-0.31 -0.19)"/><path class="x" d="M5,18.13c0-.08.08-.14.13-.13s.09.09.08.17-.08.14-.14.12S5,18.21,5,18.13Z" transform="translate(-0.31 -0.19)"/><path class="y" d="M5,18.25H5c0-.08.08-.14.14-.13l.06.05c0-.08,0-.15-.08-.16s-.11.05-.13.13A.25.25,0,0,0,5,18.25Z" transform="translate(-0.31 -0.19)"/><path class="x" d="M5.41,19.8a.12.12,0,0,1,.08-.16s.11.05.12.13a.13.13,0,0,1-.07.16C5.48,19.94,5.42,19.88,5.41,19.8Z" transform="translate(-0.31 -0.19)"/><path class="y" d="M5.46,19.91h0c0-.08,0-.15.08-.16a.06.06,0,0,1,.07,0c0-.08-.07-.13-.12-.12a.12.12,0,0,0-.08.16A.23.23,0,0,0,5.46,19.91Z" transform="translate(-0.31 -0.19)"/><path class="x" d="M5.08,19.19c0,.07.06.15,0,.18s-.12,0-.18-.05a.13.13,0,0,1,0-.18S5,19.13,5.08,19.19Z" transform="translate(-0.31 -0.19)"/><path class="y" d="M5,19.13H5c0,.07.06.15,0,.19a.08.08,0,0,1-.07,0c0,.06.13.08.17,0s0-.11,0-.18A.17.17,0,0,0,5,19.13Z" transform="translate(-0.31 -0.19)"/><path class="x" d="M4.17,18.81c.08,0,.13.09.11.14s-.1.08-.18.05S4,18.91,4,18.86,4.09,18.78,4.17,18.81Z" transform="translate(-0.31 -0.19)"/><path class="y" d="M4.05,18.8h0c.08,0,.13.09.11.14a.08.08,0,0,1,0,.05A.12.12,0,0,0,4.28,19c0-.05,0-.12-.11-.14A.17.17,0,0,0,4.05,18.8Z" transform="translate(-0.31 -0.19)"/><path class="x" d="M4.52,19.72a.13.13,0,0,1,0-.18c.05,0,.12,0,.17.07s0,.15,0,.18A.13.13,0,0,1,4.52,19.72Z" transform="translate(-0.31 -0.19)"/><path class="y" d="M4.61,19.8h0c-.05-.07-.05-.15,0-.18a.11.11,0,0,1,.08,0c-.05-.06-.12-.09-.17-.06a.13.13,0,0,0,0,.18A.17.17,0,0,0,4.61,19.8Z" transform="translate(-0.31 -0.19)"/><path class="x" d="M3.72,19.44a.13.13,0,0,1,.14.11c0,.06-.07.1-.16.09s-.15-.05-.14-.11S3.63,19.43,3.72,19.44Z" transform="translate(-0.31 -0.19)"/><path class="y" d="M3.6,19.47h0c.08,0,.15.05.14.11a.06.06,0,0,1,0,.06c.08,0,.15,0,.15-.09a.13.13,0,0,0-.14-.11A.16.16,0,0,0,3.6,19.47Z" transform="translate(-0.31 -0.19)"/><path class="x" d="M4.16,20.83c0-.08,0-.16,0-.18s.12,0,.15.1,0,.16,0,.18S4.19,20.91,4.16,20.83Z" transform="translate(-0.31 -0.19)"/><path class="y" d="M4.24,20.92h0a.13.13,0,0,1,0-.17.08.08,0,0,1,.08,0c0-.08-.1-.12-.15-.1s-.07.1,0,.18A.24.24,0,0,0,4.24,20.92Z" transform="translate(-0.31 -0.19)"/><path class="x" d="M7,20.62a.13.13,0,0,1-.16-.09c0-.06.06-.11.14-.12s.16,0,.16.09S7,20.61,7,20.62Z" transform="translate(-0.31 -0.19)"/><path class="y" d="M7.07,20.57h0c-.09,0-.16,0-.17-.09a.11.11,0,0,1,0-.07c-.08,0-.14.07-.13.12a.13.13,0,0,0,.16.09A.33.33,0,0,0,7.07,20.57Z" transform="translate(-0.31 -0.19)"/><path class="x" d="M8.17,17.85c0,.07-.11.12-.16.1a.14.14,0,0,1,0-.18.14.14,0,0,1,.16-.1S8.2,17.77,8.17,17.85Z" transform="translate(-0.31 -0.19)"/><path class="y" d="M8.17,17.73h0c0,.07-.1.12-.15.1s0,0,0-.06A.13.13,0,0,0,8,18c.05,0,.12,0,.16-.1A.17.17,0,0,0,8.17,17.73Z" transform="translate(-0.31 -0.19)"/><path class="x" d="M8.42,19.39c0-.08,0-.16,0-.18s.12,0,.15.1a.12.12,0,0,1,0,.17C8.52,19.51,8.45,19.46,8.42,19.39Z" transform="translate(-0.31 -0.19)"/><path class="y" d="M8.5,19.48h0c0-.08,0-.16,0-.18a.11.11,0,0,1,.08,0,.13.13,0,0,0-.15-.09c-.06,0-.07.1,0,.18A.24.24,0,0,0,8.5,19.48Z" transform="translate(-0.31 -0.19)"/><path class="x" d="M7.48,19c.08,0,.14.07.13.12s-.09.09-.17.08-.14-.07-.13-.13S7.39,19,7.48,19Z" transform="translate(-0.31 -0.19)"/><path class="y" d="M7.36,19h0c.09,0,.15.08.14.13a.1.1,0,0,1,0,.06c.08,0,.15,0,.16-.08S7.56,19,7.48,19A.23.23,0,0,0,7.36,19Z" transform="translate(-0.31 -0.19)"/><path class="x" d="M7.21,18.7c0,.06.07.14,0,.18a.13.13,0,0,1-.18,0c-.06-.06-.08-.14,0-.18A.15.15,0,0,1,7.21,18.7Z" transform="translate(-0.31 -0.19)"/><path class="y" d="M7.1,18.65h0c.06.06.08.14,0,.18a.11.11,0,0,1-.08,0,.14.14,0,0,0,.18,0s0-.12,0-.18A.21.21,0,0,0,7.1,18.65Z" transform="translate(-0.31 -0.19)"/><path class="x" d="M7.3,18.59a.13.13,0,0,1-.11.14c-.06,0-.1-.06-.1-.14s0-.15.1-.15S7.3,18.5,7.3,18.59Z" transform="translate(-0.31 -0.19)"/><path class="y" d="M7.26,18.47h0c0,.08,0,.15-.11.15a.07.07,0,0,1-.06,0c0,.08,0,.14.1.14a.13.13,0,0,0,.11-.14A.21.21,0,0,0,7.26,18.47Z" transform="translate(-0.31 -0.19)"/><path class="x" d="M6.31,19.06a.13.13,0,0,1,.18,0c0,.05,0,.13-.08.17s-.16,0-.19,0A.15.15,0,0,1,6.31,19.06Z" transform="translate(-0.31 -0.19)"/><path class="y" d="M6.22,19.15h0c.07,0,.16,0,.18,0a0,0,0,0,1,0,.07c.07,0,.11-.11.08-.16a.13.13,0,0,0-.18,0Z" transform="translate(-0.31 -0.19)"/><path class="x" d="M6.71,18.75c0,.08-.11.12-.17.09s-.06-.1,0-.18a.14.14,0,0,1,.16-.09A.14.14,0,0,1,6.71,18.75Z" transform="translate(-0.31 -0.19)"/><path class="y" d="M6.72,18.64h0c0,.08-.11.12-.16.09s0,0,0-.06,0,.15,0,.17.13,0,.17-.09A.14.14,0,0,0,6.72,18.64Z" transform="translate(-0.31 -0.19)"/><path class="x" d="M6.49,19.12A.15.15,0,0,1,6.62,19s.09.09.08.17-.07.14-.13.13S6.48,19.2,6.49,19.12Z" transform="translate(-0.31 -0.19)"/><path class="y" d="M6.51,19.23h0a.14.14,0,0,1,.13-.14l.06.05A.14.14,0,0,0,6.62,19a.15.15,0,0,0-.13.14A.14.14,0,0,0,6.51,19.23Z" transform="translate(-0.31 -0.19)"/><path class="x" d="M6.93,18.21c0,.08-.08.14-.14.13a.13.13,0,0,1-.07-.17c0-.08.08-.14.14-.13A.14.14,0,0,1,6.93,18.21Z" transform="translate(-0.31 -0.19)"/><path class="y" d="M6.92,18.09h0c0,.08-.08.14-.13.12a.07.07,0,0,1-.06,0,.13.13,0,0,0,.07.16c.06,0,.12-.05.14-.13A.25.25,0,0,0,6.92,18.09Z" transform="translate(-0.31 -0.19)"/><path class="x" d="M7,16.37c0,.09-.06.15-.11.14s-.1-.07-.1-.15.06-.15.12-.14S7,16.29,7,16.37Z" transform="translate(-0.31 -0.19)"/><path class="y" d="M6.93,16.26h0a.13.13,0,0,1-.11.14l-.07,0c0,.07,0,.14.1.14s.11-.05.11-.14A.14.14,0,0,0,6.93,16.26Z" transform="translate(-0.31 -0.19)"/><path class="x" d="M7.55,17.72c0-.07,0-.16,0-.18a.13.13,0,0,1,.17.07c0,.08,0,.16,0,.19A.14.14,0,0,1,7.55,17.72Z" transform="translate(-0.31 -0.19)"/><path class="y" d="M7.64,17.8h0a.13.13,0,0,1,0-.18h.08c-.05-.07-.12-.1-.17-.07s0,.1,0,.18A.18.18,0,0,0,7.64,17.8Z" transform="translate(-0.31 -0.19)"/><path class="x" d="M7.92,20.33A.13.13,0,0,1,8,20.17c.06,0,.12,0,.13.13s0,.15-.07.16S7.93,20.42,7.92,20.33Z" transform="translate(-0.31 -0.19)"/><path class="y" d="M8,20.44H8a.15.15,0,0,1,.08-.17.11.11,0,0,1,.07,0c0-.08-.07-.13-.13-.12a.13.13,0,0,0-.07.16A.17.17,0,0,0,8,20.44Z" transform="translate(-0.31 -0.19)"/><path class="x" d="M7.12,21.06c.06-.06.14-.08.18,0s0,.12,0,.18a.13.13,0,0,1-.18,0A.12.12,0,0,1,7.12,21.06Z" transform="translate(-0.31 -0.19)"/><path class="y" d="M7.07,21.16h0a.15.15,0,0,1,.19,0,.19.19,0,0,1,0,.08.16.16,0,0,0,0-.18.15.15,0,0,0-.19,0A.16.16,0,0,0,7.07,21.16Z" transform="translate(-0.31 -0.19)"/><path class="x" d="M6.37,20.8c.08,0,.13.1.11.15a.12.12,0,0,1-.17.05c-.08,0-.13-.09-.11-.15S6.29,20.78,6.37,20.8Z" transform="translate(-0.31 -0.19)"/><path class="y" d="M6.25,20.8h0c.08,0,.13.09.11.14s0,0-.06.05A.13.13,0,0,0,6.48,21c0-.05,0-.12-.11-.15A.24.24,0,0,0,6.25,20.8Z" transform="translate(-0.31 -0.19)"/><path class="x" d="M5.79,20.68c.08,0,.14.08.13.13s-.09.09-.17.07-.14-.08-.13-.13S5.71,20.66,5.79,20.68Z" transform="translate(-0.31 -0.19)"/><path class="y" d="M5.67,20.69h0c.08,0,.14.08.13.14a.12.12,0,0,1,0,.05c.07,0,.15,0,.16-.07s0-.11-.13-.13A.16.16,0,0,0,5.67,20.69Z" transform="translate(-0.31 -0.19)"/><path class="x" d="M6,21.46c0-.08,0-.16,0-.18s.12,0,.15.11a.12.12,0,0,1,0,.17C6.06,21.58,6,21.54,6,21.46Z" transform="translate(-0.31 -0.19)"/><path class="y" d="M6,21.55H6c0-.07,0-.15,0-.17a.08.08,0,0,1,.08,0c0-.08-.1-.12-.15-.1s-.08.1,0,.18A.24.24,0,0,0,6,21.55Z" transform="translate(-0.31 -0.19)"/><path class="x" d="M5.21,19.9a.13.13,0,0,1,0,.18c-.05,0-.12,0-.16-.08a.13.13,0,0,1,0-.18S5.17,19.83,5.21,19.9Z" transform="translate(-0.31 -0.19)"/><path class="y" d="M5.12,19.82h0a.13.13,0,0,1,0,.18H5c0,.06.11.1.16.07a.13.13,0,0,0,0-.18A.14.14,0,0,0,5.12,19.82Z" transform="translate(-0.31 -0.19)"/><path class="x" d="M5.79,18c0,.08-.09.13-.15.12A.14.14,0,0,1,5.58,18c0-.08.09-.13.15-.12A.14.14,0,0,1,5.79,18Z" transform="translate(-0.31 -0.19)"/><path class="y" d="M5.78,17.91h0c0,.08-.09.13-.14.12A.1.1,0,0,1,5.58,18a.13.13,0,0,0,.06.16c.06,0,.12,0,.15-.12A.17.17,0,0,0,5.78,17.91Z" transform="translate(-0.31 -0.19)"/><path class="x" d="M5.42,16.73c0,.08,0,.16-.06.17s-.12,0-.15-.11a.15.15,0,0,1,.06-.18C5.33,16.6,5.39,16.65,5.42,16.73Z" transform="translate(-0.31 -0.19)"/><path class="y" d="M5.35,16.63h0c0,.08,0,.15-.06.17a.09.09,0,0,1-.07,0c0,.07.08.12.14.1s.08-.09.06-.17A.26.26,0,0,0,5.35,16.63Z" transform="translate(-0.31 -0.19)"/><path class="x" d="M4.77,16.46c.08,0,.12.1.1.15a.14.14,0,0,1-.18.05c-.07,0-.12-.1-.1-.15S4.69,16.43,4.77,16.46Z" transform="translate(-0.31 -0.19)"/><path class="y" d="M4.65,16.46h0c.08,0,.13.1.11.15a.1.1,0,0,1-.06.05c.08,0,.15,0,.17-.05s0-.12-.1-.15A.24.24,0,0,0,4.65,16.46Z" transform="translate(-0.31 -0.19)"/><path class="x" d="M5.37,18.21c0-.07,0-.16,0-.18s.13,0,.16.08,0,.16,0,.18S5.41,18.28,5.37,18.21Z" transform="translate(-0.31 -0.19)"/><path class="y" d="M5.46,18.29h0a.13.13,0,0,1,0-.18.11.11,0,0,1,.08,0c0-.06-.11-.1-.16-.07s-.06.11,0,.18A.14.14,0,0,0,5.46,18.29Z" transform="translate(-0.31 -0.19)"/><path class="x" d="M5,18.55a.13.13,0,0,1,.18-.05.14.14,0,0,1,0,.18c-.06.06-.14.09-.18.05A.13.13,0,0,1,5,18.55Z" transform="translate(-0.31 -0.19)"/><path class="y" d="M4.91,18.66h0a.15.15,0,0,1,.18,0,.11.11,0,0,1,0,.08c0-.07.06-.14,0-.18a.13.13,0,0,0-.18.05A.16.16,0,0,0,4.91,18.66Z" transform="translate(-0.31 -0.19)"/><path class="x" d="M4.93,17.39a.13.13,0,0,1,0,.17c-.06,0-.12,0-.15-.11s0-.16.06-.18S4.91,17.31,4.93,17.39Z" transform="translate(-0.31 -0.19)"/><path class="y" d="M4.86,17.29h0c0,.08,0,.15-.06.17a.09.09,0,0,1-.07,0c0,.07.08.12.14.1a.13.13,0,0,0,0-.17A.15.15,0,0,0,4.86,17.29Z" transform="translate(-0.31 -0.19)"/><path class="x" d="M4.59,17.81c0-.08.1-.12.15-.1s.08.1,0,.18a.15.15,0,0,1-.16.1S4.56,17.89,4.59,17.81Z" transform="translate(-0.31 -0.19)"/><path class="y" d="M4.58,17.93h0c0-.07.09-.12.15-.1a.1.1,0,0,1,0,.06c0-.08,0-.15,0-.17s-.12,0-.15.1A.17.17,0,0,0,4.58,17.93Z" transform="translate(-0.31 -0.19)"/><path class="x" d="M4.44,17.79c.09,0,.15.05.15.11s-.06.1-.15.1-.15,0-.15-.1S4.36,17.79,4.44,17.79Z" transform="translate(-0.31 -0.19)"/><path class="y" d="M4.33,17.83h0c.08,0,.15.05.15.11s0,0,0,.06.14-.05.14-.1-.06-.1-.15-.1A.18.18,0,0,0,4.33,17.83Z" transform="translate(-0.31 -0.19)"/><path class="x" d="M5.6,17.42c-.08,0-.16,0-.18,0s0-.12.1-.15.16,0,.18,0S5.68,17.39,5.6,17.42Z" transform="translate(-0.31 -0.19)"/><path class="y" d="M5.69,17.34h0a.15.15,0,0,1-.18,0,.11.11,0,0,1,0-.08.13.13,0,0,0-.09.15c0,.05.1.07.18,0A.24.24,0,0,0,5.69,17.34Z" transform="translate(-0.31 -0.19)"/><path class="x" d="M5.78,17.56c-.07,0-.1-.13-.06-.17s.11-.05.18,0,.1.12.06.17S5.85,17.61,5.78,17.56Z" transform="translate(-0.31 -0.19)"/><path class="y" d="M5.9,17.59h0c-.07-.05-.1-.13-.06-.17s0,0,.06,0-.14,0-.17,0,0,.12.06.17A.18.18,0,0,0,5.9,17.59Z" transform="translate(-0.31 -0.19)"/><path class="x" d="M6.73,17.32c-.08,0-.16,0-.18,0s0-.12.11-.15.16,0,.18.05S6.81,17.3,6.73,17.32Z" transform="translate(-0.31 -0.19)"/><path class="y" d="M6.82,17.25h0c-.08,0-.16,0-.18,0a.08.08,0,0,1,0-.08c-.08,0-.12.1-.1.15s.1.07.18,0A.13.13,0,0,0,6.82,17.25Z" transform="translate(-0.31 -0.19)"/><path class="x" d="M6.81,16.84a.15.15,0,0,1,0,.19A.16.16,0,0,1,6.64,17a.14.14,0,0,1,0-.19C6.69,16.75,6.76,16.78,6.81,16.84Z" transform="translate(-0.31 -0.19)"/><path class="y" d="M6.71,16.77h0c0,.07,0,.15,0,.18a.06.06,0,0,1-.07,0c0,.06.12.09.17.06a.15.15,0,0,0,0-.19A.18.18,0,0,0,6.71,16.77Z" transform="translate(-0.31 -0.19)"/><path class="x" d="M6.23,15.41a.13.13,0,0,1-.06.17s-.12,0-.14-.11a.14.14,0,0,1,0-.18C6.14,15.28,6.2,15.33,6.23,15.41Z" transform="translate(-0.31 -0.19)"/><path class="y" d="M6.16,15.31h0a.13.13,0,0,1-.06.17.07.07,0,0,1-.07,0c0,.08.09.13.14.11a.13.13,0,0,0,.06-.17A.2.2,0,0,0,6.16,15.31Z" transform="translate(-0.31 -0.19)"/><path class="x" d="M5,15.61a.15.15,0,0,1,.18.06c0,.06,0,.12-.12.14s-.16,0-.18-.06S4.94,15.63,5,15.61Z" transform="translate(-0.31 -0.19)"/><path class="y" d="M4.92,15.68h0c.08,0,.16,0,.17.07a.07.07,0,0,1,0,.07c.08,0,.13-.08.12-.14A.15.15,0,0,0,5,15.61.18.18,0,0,0,4.92,15.68Z" transform="translate(-0.31 -0.19)"/><path class="x" d="M4.94,15.42a.14.14,0,0,1,0,.19.13.13,0,0,1-.17-.07.14.14,0,0,1,0-.18A.16.16,0,0,1,4.94,15.42Z" transform="translate(-0.31 -0.19)"/><path class="y" d="M4.84,15.35h0c0,.07,0,.15,0,.18a.08.08,0,0,1-.08,0c.05.06.12.09.17.06a.14.14,0,0,0,0-.19A.3.3,0,0,0,4.84,15.35Z" transform="translate(-0.31 -0.19)"/><path class="x" d="M4.16,16.09c.06-.06.14-.08.18-.05a.13.13,0,0,1,0,.18c-.06.07-.14.09-.18.05S4.11,16.15,4.16,16.09Z" transform="translate(-0.31 -0.19)"/><path class="y" d="M4.12,16.2h0c.06-.07.14-.09.18-.05a.08.08,0,0,1,0,.07.13.13,0,0,0,0-.18s-.12,0-.18.05A.3.3,0,0,0,4.12,16.2Z" transform="translate(-0.31 -0.19)"/><path class="x" d="M4.65,16.91c-.05-.07-.05-.15,0-.18s.12,0,.17.06,0,.15,0,.18S4.7,17,4.65,16.91Z" transform="translate(-0.31 -0.19)"/><path class="y" d="M4.75,17h0a.13.13,0,0,1,0-.18h.08a.14.14,0,0,0-.17-.05c-.05,0-.05.11,0,.18A.17.17,0,0,0,4.75,17Z" transform="translate(-0.31 -0.19)"/><path class="x" d="M4.05,17.69a.13.13,0,0,1,.17-.08.12.12,0,0,1,0,.18c0,.07-.11.11-.16.08A.13.13,0,0,1,4.05,17.69Z" transform="translate(-0.31 -0.19)"/><path class="y" d="M4,17.8H4a.13.13,0,0,1,.17-.07.09.09,0,0,1,0,.06c0-.07,0-.14,0-.17a.13.13,0,0,0-.17.08A.15.15,0,0,0,4,17.8Z" transform="translate(-0.31 -0.19)"/><path class="x" d="M3.89,16.87a.13.13,0,0,1,0,.18c-.05,0-.13,0-.16-.09a.13.13,0,0,1,0-.18S3.85,16.8,3.89,16.87Z" transform="translate(-0.31 -0.19)"/><path class="y" d="M3.81,16.78h0c0,.08,0,.16,0,.18a.11.11,0,0,1-.08,0,.14.14,0,0,0,.16.08.13.13,0,0,0,0-.18A.24.24,0,0,0,3.81,16.78Z" transform="translate(-0.31 -0.19)"/><path class="x" d="M3,17.23c.07,0,.16,0,.18,0s0,.12-.09.16-.16,0-.18,0S2.91,17.27,3,17.23Z" transform="translate(-0.31 -0.19)"/><path class="y" d="M2.9,17.31h0c.07,0,.16,0,.18,0a.09.09,0,0,1,0,.07.12.12,0,0,0,.08-.15c0-.05-.11-.06-.18,0A.24.24,0,0,0,2.9,17.31Z" transform="translate(-0.31 -0.19)"/><path class="x" d="M3.1,19.16c0-.08,0-.15.09-.16a.13.13,0,0,1,.12.14.14.14,0,0,1-.08.16C3.17,19.31,3.11,19.24,3.1,19.16Z" transform="translate(-0.31 -0.19)"/><path class="y" d="M3.16,19.27h0a.13.13,0,0,1,.09-.16.09.09,0,0,1,.07,0A.13.13,0,0,0,3.19,19s-.09.08-.09.16A.17.17,0,0,0,3.16,19.27Z" transform="translate(-0.31 -0.19)"/><path class="x" d="M3.42,20c0-.08,0-.16,0-.18a.14.14,0,0,1,.16.1c0,.08,0,.16-.05.18S3.45,20,3.42,20Z" transform="translate(-0.31 -0.19)"/><path class="y" d="M3.5,20.06h0c0-.08,0-.16,0-.18h.07a.13.13,0,0,0-.15-.09s-.07.1,0,.18A.24.24,0,0,0,3.5,20.06Z" transform="translate(-0.31 -0.19)"/><path class="x" d="M3.68,18.49c0,.08-.06.15-.12.14s-.1-.07-.09-.15.06-.15.11-.14S3.68,18.41,3.68,18.49Z" transform="translate(-0.31 -0.19)"/><path class="y" d="M3.65,18.38h0c0,.09-.06.15-.12.15s0,0-.06-.05,0,.15.09.15.11-.06.12-.14A.2.2,0,0,0,3.65,18.38Z" transform="translate(-0.31 -0.19)"/><path class="x" d="M5.47,18a.15.15,0,0,1-.18-.07c0-.05,0-.11.12-.13s.16,0,.18.06S5.55,17.93,5.47,18Z" transform="translate(-0.31 -0.19)"/><path class="y" d="M5.57,17.88h0c-.08,0-.16,0-.17-.07a.07.07,0,0,1,0-.07c-.08,0-.13.08-.12.13a.15.15,0,0,0,.18.07A.18.18,0,0,0,5.57,17.88Z" transform="translate(-0.31 -0.19)"/><path class="x" d="M5.67,18.8a.14.14,0,0,1,0-.18.14.14,0,0,1,.16.1.13.13,0,0,1,0,.18A.14.14,0,0,1,5.67,18.8Z" transform="translate(-0.31 -0.19)"/><path class="y" d="M5.75,18.89h0a.13.13,0,0,1,0-.18.11.11,0,0,1,.08,0c0-.07-.1-.11-.15-.09a.13.13,0,0,0,0,.18A.24.24,0,0,0,5.75,18.89Z" transform="translate(-0.31 -0.19)"/><path class="x" d="M5.9,18.65a.14.14,0,0,1-.19,0s0-.12,0-.18a.11.11,0,1,1,.15.15Z" transform="translate(-0.31 -0.19)"/><path class="y" d="M6,18.54H6a.16.16,0,0,1-.19,0,.19.19,0,0,1,0-.07.14.14,0,0,0,0,.17.16.16,0,0,0,.19,0A.18.18,0,0,0,6,18.54Z" transform="translate(-0.31 -0.19)"/><path class="x" d="M5.54,18.94c0-.06.13-.09.17-.06s0,.12,0,.18-.12.1-.17.06S5.49,19,5.54,18.94Z" transform="translate(-0.31 -0.19)"/><path class="y" d="M5.5,19.06h0c0-.07.13-.09.17-.06a.08.08,0,0,1,0,.07c0-.07,0-.15,0-.18a.16.16,0,0,0-.18.06A.19.19,0,0,0,5.5,19.06Z" transform="translate(-0.31 -0.19)"/><path class="x" d="M5.5,18.64a.13.13,0,0,1,0,.18s-.12,0-.17-.05-.07-.14,0-.18S5.44,18.57,5.5,18.64Z" transform="translate(-0.31 -0.19)"/><path class="y" d="M5.39,18.57h0c0,.06.06.15,0,.18a.11.11,0,0,1-.08,0,.13.13,0,0,0,.17,0,.13.13,0,0,0,0-.18A.19.19,0,0,0,5.39,18.57Z" transform="translate(-0.31 -0.19)"/><path class="x" d="M6.1,18.74c-.08,0-.16,0-.16-.09s.06-.11.14-.12.16,0,.16.1S6.18,18.73,6.1,18.74Z" transform="translate(-0.31 -0.19)"/><path class="y" d="M6.21,18.69h0A.15.15,0,0,1,6,18.6a.13.13,0,0,1,0-.07c-.08,0-.14.06-.14.12s.08.09.16.09A.13.13,0,0,0,6.21,18.69Z" transform="translate(-0.31 -0.19)"/><path class="x" d="M6.53,17.76a.15.15,0,0,1-.17.09.13.13,0,0,1,0-.18.14.14,0,0,1,.16-.09A.14.14,0,0,1,6.53,17.76Z" transform="translate(-0.31 -0.19)"/><path class="y" d="M6.54,17.64h0c0,.07-.11.11-.16.09s0,0,0-.06,0,.15,0,.17a.15.15,0,0,0,.17-.09A.17.17,0,0,0,6.54,17.64Z" transform="translate(-0.31 -0.19)"/><path class="x" d="M6.68,18.52c0-.08,0-.16,0-.18s.12,0,.16.08,0,.16,0,.18S6.72,18.59,6.68,18.52Z" transform="translate(-0.31 -0.19)"/><path class="y" d="M6.77,18.6h0a.14.14,0,0,1,0-.18.08.08,0,0,1,.08,0c0-.07-.11-.11-.16-.08s-.07.1,0,.18A.14.14,0,0,0,6.77,18.6Z" transform="translate(-0.31 -0.19)"/><path class="x" d="M6.61,18c0,.06,0,.15,0,.18s-.12,0-.17-.07a.13.13,0,0,1,0-.18A.13.13,0,0,1,6.61,18Z" transform="translate(-0.31 -0.19)"/><path class="y" d="M6.52,17.89h0c.05.07.05.15,0,.18a.06.06,0,0,1-.07,0c0,.06.12.09.16.06s0-.12,0-.18A.17.17,0,0,0,6.52,17.89Z" transform="translate(-0.31 -0.19)"/><path class="x" d="M6.42,16.87a.13.13,0,0,1-.09.16c-.06,0-.11-.06-.12-.14s0-.16.09-.16S6.41,16.79,6.42,16.87Z" transform="translate(-0.31 -0.19)"/><path class="y" d="M6.37,16.76h0a.15.15,0,0,1-.1.16.11.11,0,0,1-.07,0,.14.14,0,0,0,.12.13.13.13,0,0,0,.09-.16A.14.14,0,0,0,6.37,16.76Z" transform="translate(-0.31 -0.19)"/><path class="x" d="M6.9,17.78a.12.12,0,0,1,0-.18s.12,0,.17.07,0,.15,0,.18A.13.13,0,0,1,6.9,17.78Z" transform="translate(-0.31 -0.19)"/><path class="y" d="M7,17.85H7c0-.07,0-.15,0-.18a.08.08,0,0,1,.08,0c0-.06-.12-.09-.16-.06a.12.12,0,0,0,0,.18A.15.15,0,0,0,7,17.85Z" transform="translate(-0.31 -0.19)"/><path class="x" d="M6.62,19.4c0-.08.06-.14.12-.13a.12.12,0,0,1,.08.16c0,.08-.06.14-.12.14S6.6,19.49,6.62,19.4Z" transform="translate(-0.31 -0.19)"/><path class="y" d="M6.64,19.52h0c0-.08.07-.14.12-.13a.1.1,0,0,1,.07,0c0-.07,0-.14-.09-.15s-.11.05-.12.13A.16.16,0,0,0,6.64,19.52Z" transform="translate(-0.31 -0.19)"/><path class="x" d="M5.3,19.34a.15.15,0,0,1,.16.1s-.06.1-.15.11-.15,0-.15-.09S5.22,19.35,5.3,19.34Z" transform="translate(-0.31 -0.19)"/><path class="y" d="M5.19,19.39h0c.08,0,.15,0,.15.09s0,.05,0,.07.14-.06.14-.11a.15.15,0,0,0-.16-.1A.16.16,0,0,0,5.19,19.39Z" transform="translate(-0.31 -0.19)"/><path class="x" d="M6.33,20.26c-.06-.05-.09-.13,0-.18a.13.13,0,0,1,.18,0c.07,0,.09.13.06.17S6.4,20.31,6.33,20.26Z" transform="translate(-0.31 -0.19)"/><path class="y" d="M6.45,20.3h0c-.07-.06-.09-.13-.05-.18a.08.08,0,0,1,.07,0,.14.14,0,0,0-.18,0c0,.05,0,.13,0,.18A.19.19,0,0,0,6.45,20.3Z" transform="translate(-0.31 -0.19)"/><path class="x" d="M8.13,18.61a.11.11,0,1,1,0-.18C8.21,18.47,8.19,18.55,8.13,18.61Z" transform="translate(-0.31 -0.19)"/><path class="y" d="M8.19,18.5h0a.13.13,0,0,1-.18,0,.06.06,0,0,1,0-.07c-.06.06-.07.13,0,.17a.13.13,0,0,0,.18,0A.24.24,0,0,0,8.19,18.5Z" transform="translate(-0.31 -0.19)"/><path class="x" d="M8.73,19.1c-.07-.05-.1-.13-.06-.18s.11,0,.18,0,.1.13.06.17S8.79,19.15,8.73,19.1Z" transform="translate(-0.31 -0.19)"/><path class="y" d="M8.84,19.13h0c-.06-.05-.09-.13-.06-.17l.07,0a.13.13,0,0,0-.17,0s0,.13.06.18A.15.15,0,0,0,8.84,19.13Z" transform="translate(-0.31 -0.19)"/><path class="x" d="M8.72,19.19c-.08,0-.15-.05-.15-.11s.07-.1.15-.1.15.05.15.1S8.81,19.19,8.72,19.19Z" transform="translate(-0.31 -0.19)"/><path class="y" d="M8.84,19.15h0c-.09,0-.15,0-.15-.1a.09.09,0,0,1,0-.07c-.08,0-.14.05-.14.1s.07.11.15.11A.21.21,0,0,0,8.84,19.15Z" transform="translate(-0.31 -0.19)"/><path class="x" d="M8.51,18.74a.13.13,0,0,1,.07.17c0,.05-.12.05-.19,0a.12.12,0,0,1-.06-.17S8.44,18.69,8.51,18.74Z" transform="translate(-0.31 -0.19)"/><path class="y" d="M8.39,18.71h0c.07.05.1.12.07.17s0,0-.07,0a.15.15,0,0,0,.18,0,.13.13,0,0,0-.07-.17A.14.14,0,0,0,8.39,18.71Z" transform="translate(-0.31 -0.19)"/><path class="z" d="M4.54,17.72l0,0a0,0,0,0,0,.06,0,.17.17,0,0,0,.1-.17,2.73,2.73,0,0,0,0-.4v0l.14-.05a0,0,0,0,0,0-.07,1.63,1.63,0,0,0-.3.07.58.58,0,0,0-.13-.2A.49.49,0,0,0,4,16.7a0,0,0,0,0,0,.08.65.65,0,0,1,.28.24.42.42,0,0,1,.08.12h0c-.06,0-.07.11,0,.1h.1a.25.25,0,0,0,0,.07,0,0,0,0,0,.06,0,.22.22,0,0,0,0-.08l.06,0h0c0,.14,0,.27,0,.41s0,0,0,0A.11.11,0,0,0,4.54,17.72Z" transform="translate(-0.31 -0.19)"/><path class="z" d="M3.87,17.73c0-.08-.14-.09-.14,0s0,.42.2.44c0,0,.09,0,.06-.08a.36.36,0,0,1-.11-.16A1.34,1.34,0,0,1,3.87,17.73Z" transform="translate(-0.31 -0.19)"/><path class="z" d="M4.74,17.72a1.27,1.27,0,0,1,0,.34.83.83,0,0,0-.07.34s.05.07.08,0c.2-.14.22-.53.2-.75S4.73,17.61,4.74,17.72Z" transform="translate(-0.31 -0.19)"/><path class="z" d="M4.34,18a.57.57,0,0,0-.25.43s0,.06.06,0a.47.47,0,0,0,.13-.15.34.34,0,0,1,.15-.18A.08.08,0,0,0,4.34,18Z" transform="translate(-0.31 -0.19)"/><path class="z" d="M6.6,18.12s0,0,0,0l0,0a.06.06,0,0,0,.08-.05.37.37,0,0,0-.05-.18.58.58,0,0,1-.08-.22c0-.11-.2-.1-.18,0a.77.77,0,0,0,.18.4.06.06,0,0,0-.07.06.28.28,0,0,1-.09.19.64.64,0,0,1-.18.1s0,0,0,0a.3.3,0,0,0,.24-.07A.42.42,0,0,0,6.6,18.12Z" transform="translate(-0.31 -0.19)"/><path class="z" d="M5.07,19.5a.05.05,0,0,0-.1,0,.85.85,0,0,1-.23.52.64.64,0,0,1,0-.68c.06-.08-.07-.17-.13-.09a.71.71,0,0,0,0,.9l0,.05c-.08.07-.17.13-.25.21a.61.61,0,0,1,0-.23c0-.06,0-.11-.06-.15a.13.13,0,0,0-.09,0c-.14,0-.12-.23-.12-.33s0-.4,0-.41a0,0,0,0,0,0-.08c-.17,0-.18.72-.11.83a.17.17,0,0,0,.16.12c.17,0,0,.15,0,.28a.48.48,0,0,0,.38.45.06.06,0,0,0,.06-.08c-.06-.09-.12-.16-.16-.23a1.61,1.61,0,0,0,.36-.33.06.06,0,0,0,0-.06l0,0A.87.87,0,0,0,5.07,19.5Z" transform="translate(-0.31 -0.19)"/><path class="z" d="M7.94,18.51s.06,0,0-.06a.38.38,0,0,0-.26-.16.33.33,0,0,0-.17,0l-.12-.17a.06.06,0,0,0-.09.07l.08.12-.1,0c-.05,0,0,.1,0,.09l.13,0a.29.29,0,0,1,0,.09.13.13,0,0,1,0,.06,1.81,1.81,0,0,0-.23,0,1.75,1.75,0,0,1-.33-.05.11.11,0,0,1,.08,0c.06,0,.07-.11,0-.12s-.27.05-.39.11a.22.22,0,0,0-.13.12.13.13,0,0,0,.08.18.07.07,0,0,0,.1-.08s0,0,0,0l.08,0,.06,0h0a.31.31,0,0,0,.14.09s0,0,0,0,0,.08.1.08a.07.07,0,0,0,.07-.07l.17,0,0,.05s0,.07,0,.06a.44.44,0,0,0,.19-.1l.06,0a0,0,0,0,0,0-.08h0a.24.24,0,0,0,0-.08.19.19,0,0,0,0-.13h.08A2.77,2.77,0,0,0,7.94,18.51Z" transform="translate(-0.31 -0.19)"/><path class="z" d="M5.86,19.51a1.76,1.76,0,0,0,0,.46.38.38,0,0,1-.15-.3,3.49,3.49,0,0,1,0-.44.46.46,0,0,0,.09.17.19.19,0,0,0,.07.06Zm2.5-.63a.22.22,0,0,0,0-.35.29.29,0,0,0,.12-.31.84.84,0,0,0-.27-.38l.06-.06a.06.06,0,1,0-.05-.1l-.08,0v-.08a1.7,1.7,0,0,0-.06-.31.05.05,0,0,0,0,0s0-.05,0-.07a.42.42,0,0,0-.12,0,.08.08,0,0,0-.07,0h0a.1.1,0,0,0-.1.06.09.09,0,0,0,0,.11.3.3,0,0,0,.3,0c0,.09,0,.17,0,.25s0,.15,0,.22l0,0c-.06.06-.15.11-.19.19a0,0,0,0,0,0,.06c.12,0,.21-.09.3-.18l.05.07c.06.07.36.42.06.48a.06.06,0,0,0,0,.11c.08.1.05.16,0,.2h0l-.2.1a.93.93,0,0,0,.14-.36s-.06-.05-.08,0a.63.63,0,0,0-.14.24l-.15.37c0,.05.06.08.08,0A1.62,1.62,0,0,1,8,19s0,0,0,0A.64.64,0,0,0,8.25,19c.07.11.14.22,0,.31s-.26.06-.36.14,0,.05,0,.07h0a.44.44,0,0,0-.1-.19A1,1,0,0,0,7,19C7,19,7,19,7,19a.93.93,0,0,1,.49.23.37.37,0,0,1,.15.18s0,0,0,0c0,.39-.72.19-.65-.13,0-.07-.1-.12-.12,0a.34.34,0,0,0,0,.33l-.07,0c-.08,0-.15.07-.07.11a.46.46,0,0,1,.23.34v.05A1.73,1.73,0,0,1,6.71,20c-.12-.08-.11-.25-.11-.38s0-.33,0-.5-.13-.09-.14,0a2.58,2.58,0,0,1,0,.38l-.27-.07c-.13,0-.43-.32-.16-.41,0,0,0-.09,0-.08a.21.21,0,0,0-.16.1v-.08a.08.08,0,0,0-.15,0,1,1,0,0,1,0,.24.08.08,0,0,0,0,.05v0a2.07,2.07,0,0,0-.07.49h0l-.16.07a.08.08,0,0,0-.1,0,.21.21,0,0,0-.06.1.3.3,0,0,0-.08.08s0,.06,0,.05l0,0a1.09,1.09,0,0,0,0,.18.48.48,0,0,0,.09.25c.12.21-.19.22-.31.24s0,0,0,.06a.44.44,0,0,0,.37,0,.21.21,0,0,0-.08.21c0,.08.1.13.16.16a.47.47,0,0,0,.4,0s0-.07,0-.09l-.07,0a1.86,1.86,0,0,0,.48-.4s0-.11-.07-.07-.38.29-.55.44h0c-.06,0-.2,0-.13-.13s0-.12-.07-.11a.39.39,0,0,0,.08-.1c0-.09,0-.21-.06-.29a.74.74,0,0,1,0-.37l.21-.11a.37.37,0,0,0,.32.32,1.27,1.27,0,0,0,0,.34.05.05,0,0,0,.1,0,1.35,1.35,0,0,0,0-.29h0a0,0,0,0,0,0-.08l0,0,0-.49a.06.06,0,0,0,0-.06,1,1,0,0,0,.34.06.62.62,0,0,0,.19.55.57.57,0,0,0,.19.1.13.13,0,0,0,0,.17.22.22,0,0,0,.19,0,.18.18,0,0,0,0,.12c0,.09.16,0,.17,0h0v-.05a.68.68,0,0,1,0-.14s0,0,0-.05h.07s0-.08,0-.1h0a.57.57,0,0,0-.14-.42.48.48,0,0,0,.68-.14.37.37,0,0,0,0,.11.2.2,0,0,0,0,.19c0,.15.22.32.12.46s-.37.14-.52.24a.17.17,0,0,1,0-.07c0-.06-.12-.06-.12,0a.49.49,0,0,1,0,.21.44.44,0,0,1-.12.15,2.29,2.29,0,0,1-.27.14,0,0,0,0,0,0,.07.47.47,0,0,0,.53-.3.3.3,0,0,0,0-.13h0a1,1,0,0,0,.58-.19.31.31,0,0,0,.11-.26c0-.12-.12-.27-.11-.38v0a.09.09,0,0,1,0-.07.08.08,0,0,0,0-.11.63.63,0,0,0,.3,0,.06.06,0,0,0,0-.11.51.51,0,0,0-.17,0l-.09,0a.64.64,0,0,0,.41-.15.27.27,0,0,0,.09-.24A.42.42,0,0,0,8.36,18.88Z" transform="translate(-0.31 -0.19)"/><path class="z" d="M6.29,20.06c-.21-.06-.16.27-.11.37s.42.42.63.27a.06.06,0,0,0,0-.1,2,2,0,0,1-.24-.05.46.46,0,0,1-.18-.13.34.34,0,0,1-.06-.12c0-.05,0-.1-.05-.11A.07.07,0,1,0,6.29,20.06Z" transform="translate(-0.31 -0.19)"/><path class="z" d="M7.83,17.65c-.15,0-.31,0-.46,0a1.1,1.1,0,0,1-.31,0l0,0H7s-.05,0,0,0a0,0,0,0,0,0-.06l-.06,0s0,0,0,0,.19.16.28.18a1.12,1.12,0,0,0,.7,0S7.86,17.65,7.83,17.65Z" transform="translate(-0.31 -0.19)"/><path class="z" d="M6.72,20.78a1,1,0,0,0-.11.4.05.05,0,0,0,.1,0c0-.14.07-.26.08-.4S6.73,20.75,6.72,20.78Z" transform="translate(-0.31 -0.19)"/><path class="z" d="M6.61,17.51c-.08.11,0,.22.08.31a.73.73,0,0,0,.43.3,0,0,0,0,0,0-.08c-.08-.07-.19-.12-.27-.19s-.23-.21-.19-.27A.06.06,0,0,0,6.61,17.51Z" transform="translate(-0.31 -0.19)"/><path class="z" d="M3.07,19.15a.26.26,0,0,1,0-.21.64.64,0,0,1,.19-.3c0-.05,0-.14-.09-.09s-.49.65-.1.79c0,0,.08,0,.06-.06S3.09,19.19,3.07,19.15Z" transform="translate(-0.31 -0.19)"/><path class="z" d="M4.14,18.63c.15-.11.13.11.12.17A.39.39,0,0,1,4.2,19a.08.08,0,0,0,0,.09h0s0,0,0,0h0l0-.05A.11.11,0,0,0,4.4,19a1.31,1.31,0,0,0,.56.12H5v0s0,.05.07,0a.19.19,0,0,0,.12-.1c0,.08-.06.14-.09.15a.08.08,0,0,0,0,.05c0,.13.11.11.16.06l0-.07a.59.59,0,0,0,.05-.23c0-.09,0-.24-.09-.27v0a.64.64,0,0,0-.14-.54s-.09,0-.06.06a.45.45,0,0,1,.06.36,1.64,1.64,0,0,1,0,.23.65.65,0,0,1-.22-.11c-.08-.07-.18.08-.09.14A.58.58,0,0,0,5,19s0,.06,0,.06H5A1.13,1.13,0,0,0,4.76,19a1.27,1.27,0,0,1-.24-.07l.08-.05c.07,0,0-.15,0-.11a.49.49,0,0,0-.15.09.39.39,0,0,0,0-.24s0,0,.07,0,.22,0,.33,0,0,0,0-.05a.61.61,0,0,0-.18-.05c-.06,0-.18,0-.2-.07a.06.06,0,0,0-.11,0l0,0c-.12-.05-.25.06-.33.13l-.19.21a1,1,0,0,0-.19.22h0l0,0a.17.17,0,0,0-.08.23c0,.06.16,0,.15,0v0h0l0,0s0,0,0,0l.09,0a.08.08,0,0,0,0-.14l.09-.11A1.41,1.41,0,0,1,4.14,18.63Z" transform="translate(-0.31 -0.19)"/><path class="z" d="M3.48,19.82c-.13-.1-.13-.15,0-.31s-.08-.15-.13-.08-.17.23-.11.37a.38.38,0,0,0,.36.22.05.05,0,0,0,0-.09A1.27,1.27,0,0,0,3.48,19.82Z" transform="translate(-0.31 -0.19)"/><path class="z" d="M3.51,18.31s.05,0,.05,0a.38.38,0,0,0,.23.06,0,0,0,0,0,0-.09.33.33,0,0,0-.1-.06.05.05,0,0,0-.05-.07c-.07,0-.13,0-.16.06v0L3.3,18a.63.63,0,0,1-.16-.3.05.05,0,0,0,0-.09h0a.09.09,0,0,0-.08.05A.62.62,0,0,0,3.51,18.31Z" transform="translate(-0.31 -0.19)"/><path class="z" d="M3.48,17.24s.07,0,0-.06a.53.53,0,0,1-.08-.41.6.6,0,0,1,.23-.35c.07,0,0-.13-.05-.1C3.36,16.45,3.07,17.12,3.48,17.24Z" transform="translate(-0.31 -0.19)"/><path class="z" d="M4.75,16.69h0Z" transform="translate(-0.31 -0.19)"/><path class="z" d="M5,16a.19.19,0,0,1,.09,0l.11.07a1.27,1.27,0,0,0,.19.13s.06,0,.05-.05A.28.28,0,0,0,5.33,16l-.13-.08a.29.29,0,0,0-.13,0C5,15.89,5,16,5,16Z" transform="translate(-0.31 -0.19)"/><path class="z" d="M3.67,17.24a.55.55,0,0,0,.48.1s0-.07,0-.09A.44.44,0,0,0,4,17.18l-.15-.06c-.12-.06,0-.19,0-.28a.06.06,0,0,0,0-.09.38.38,0,0,1,.12-.1L4,16.59v0a.05.05,0,0,0,.09,0,.76.76,0,0,0,.18-.25,1.28,1.28,0,0,0,.16.28c.08.11.21.24.35.12a.07.07,0,0,0-.06-.12h0s-.08-.05-.11-.07a1.17,1.17,0,0,1-.22-.37h0a1.77,1.77,0,0,0,.08-.31s0-.09,0-.1h0a.06.06,0,0,0-.07,0,3.33,3.33,0,0,1-.16.4,1.08,1.08,0,0,0-.15.28c-.11,0-.28.1-.32.21v0C3.61,16.92,3.51,17.09,3.67,17.24Z" transform="translate(-0.31 -0.19)"/><path class="z" d="M5,15.72a2.07,2.07,0,0,0,.64.2s0,0,0-.06a2,2,0,0,0-.63-.22S5,15.7,5,15.72Z" transform="translate(-0.31 -0.19)"/><path class="z" d="M6.51,16.32l-.29.39a.8.8,0,0,0-.18.34.06.06,0,0,0,.09.06c.13-.08.18-.25.25-.38s.12-.24.19-.36S6.54,16.28,6.51,16.32Z" transform="translate(-0.31 -0.19)"/><path class="z" d="M5.71,16.6c.09,0,.08-.13,0-.14a.28.28,0,0,0-.18,0l0,0a.56.56,0,0,0-.37-.19.06.06,0,0,0,0,.12.31.31,0,0,1,.2.11h-.1s0,0,0,0h.14l0,.05v0a.23.23,0,0,0,.14.31h0l0,0s.08,0,.08,0a.49.49,0,0,0-.06-.29A.17.17,0,0,1,5.71,16.6Z" transform="translate(-0.31 -0.19)"/><path class="z" d="M5.8,15.82a.44.44,0,0,0,.19.1.06.06,0,0,0,.08.07.74.74,0,0,1,.33,0c.07,0,.12.11.2.14s.06,0,.06-.05a.33.33,0,0,0-.23-.24.46.46,0,0,0-.26,0L6,15.77a.53.53,0,0,1-.1-.06l0,0s0-.08-.09-.07a.11.11,0,0,0-.07.11.08.08,0,0,0,0,.06S5.81,15.83,5.8,15.82Z" transform="translate(-0.31 -0.19)"/><path class="z" d="M6.63,16.6c0,.09.08.13.14.18A.33.33,0,0,0,7,16.9s.06,0,0-.06a.27.27,0,0,0-.1-.11.71.71,0,0,0-.14-.1s0,0,0,0S6.63,16.54,6.63,16.6Z" transform="translate(-0.31 -0.19)"/><path class="z" d="M7,17.43a.34.34,0,0,0,.28-.19c.07-.13,0-.28.07-.41a.07.07,0,0,0-.13-.06,1,1,0,0,0-.06.29c0,.15-.12.19-.2.3A0,0,0,0,0,7,17.43Z" transform="translate(-0.31 -0.19)"/><path class="z" d="M6.12,16.45c.12-.06.25-.1.37-.17s0-.13,0-.1l-.38.16a1,1,0,0,0-.29.14s0,.07,0,.07S6,16.5,6.12,16.45Z" transform="translate(-0.31 -0.19)"/><path class="z" d="M7.08,16.6c0,.08.11.1.14,0s0,0,0,0l.07,0,.16.05.13.05c.08,0,.08.13.1.2s0,.05.07,0a.22.22,0,0,0,0-.28.45.45,0,0,0-.24-.14C7.44,16.54,7.1,16.41,7.08,16.6Z" transform="translate(-0.31 -0.19)"/><path class="z" d="M6.94,16.56A1,1,0,0,0,7,16.33c0-.06,0-.2.09-.21s.08-.14,0-.14a.22.22,0,0,0-.24.18.55.55,0,0,0,0,.4S6.92,16.59,6.94,16.56Z" transform="translate(-0.31 -0.19)"/><path class="z" d="M6.55,17.41l-.25-.06,0,0h0c0-.06,0-.13.11-.16s0-.17-.08-.13-.11.11-.15.17l0,0s0,0,0,0a.07.07,0,0,0,0,.11.32.32,0,0,0,0,.14.05.05,0,0,0,.09,0,.61.61,0,0,0,.07-.1,1,1,0,0,0,.37,0S6.59,17.42,6.55,17.41Z" transform="translate(-0.31 -0.19)"/><path class="z" d="M5.83,18.14c-.1-.12-.33-.24-.3-.4a0,0,0,0,0,0,0l0-.05a.08.08,0,0,0-.12-.09l0,.05h0l-.11,0c-.07,0-.06-.12,0-.16s0-.13-.07-.1a.21.21,0,0,0-.08.31.4.4,0,0,0,.22.12.29.29,0,0,0,0,.13.07.07,0,0,0,0,.07c0,.14,0,.37.19.4,0,0,0,0,0,0h0a.05.05,0,0,0,0,0h.09a0,0,0,0,0,.05,0h0a0,0,0,0,0,0-.06h0a.06.06,0,0,0-.06,0H5.59l0,0a.5.5,0,0,1,0-.13.13.13,0,0,1,0-.06.47.47,0,0,0,.28.14S5.86,18.17,5.83,18.14Z" transform="translate(-0.31 -0.19)"/><path class="z" d="M6.16,17.9a.55.55,0,0,0,0,.26.28.28,0,0,0,0,.2.06.06,0,0,0,.09,0c.09-.11,0-.28.06-.4S6.2,17.81,6.16,17.9Z" transform="translate(-0.31 -0.19)"/><path class="z" d="M6.08,18.67c0,.09,0,.18.07.27s.07,0,.07,0a.44.44,0,0,0,0-.23,1.44,1.44,0,0,0-.19-.37c0-.06-.13,0-.11.05S6,18.57,6.08,18.67Z" transform="translate(-0.31 -0.19)"/><path class="z" d="M5.84,21.33a.48.48,0,0,1-.21.07.06.06,0,0,0,0,.12.35.35,0,0,0,.3-.11C6,21.36,5.9,21.28,5.84,21.33Z" transform="translate(-0.31 -0.19)"/><path class="z" d="M6.33,21c0-.1-.17,0-.15.06a.64.64,0,0,0,.08.14l0,.08a.17.17,0,0,1,0,.12,0,0,0,0,0,0,0c.11,0,.15-.11.12-.2S6.36,21.06,6.33,21Z" transform="translate(-0.31 -0.19)"/><path class="z" d="M4.76,20.73a.18.18,0,0,0-.14,0,.36.36,0,0,0,0,.11c0,.08,0,.18.09.21a.06.06,0,0,0,.07,0s0-.19,0-.2A.06.06,0,1,0,4.76,20.73Z" transform="translate(-0.31 -0.19)"/></g></svg>