<svg xmlns="http://www.w3.org/2000/svg" width="256px" height="256px" viewBox="0 0 9.76 27.02"><defs><style>.a{fill:#fff;}.b{fill:#e7018f;}.c{fill:none;}</style></defs><polyline class="a" points="5.93 6.02 3.82 6.02 4.48 0.21 5.27 0.21 5.93 6.02"/><path class="b" d="M5.93,6V5.81H4.07L4.68.43h.39l.64,5.62.22,0V6l.22,0L5.48.19A.21.21,0,0,0,5.27,0H4.48a.21.21,0,0,0-.21.19L3.6,6a.27.27,0,0,0,.06.17.24.24,0,0,0,.16.07H5.93a.24.24,0,0,0,.16-.07A.27.27,0,0,0,6.15,6L5.93,6"/><path class="a" d="M8.58,7.27a.41.41,0,0,1-.41.41H1.58a.41.41,0,0,1-.41-.41V6.06a.41.41,0,0,1,.41-.4H8.17a.41.41,0,0,1,.41.4V7.27"/><path class="b" d="M8.58,7.27H8.36a.18.18,0,0,1-.06.14.19.19,0,0,1-.13,0H1.58a.19.19,0,0,1-.13,0,.18.18,0,0,1-.06-.14V6.06a.18.18,0,0,1,.06-.13.19.19,0,0,1,.13,0H8.17a.19.19,0,0,1,.13,0,.18.18,0,0,1,.06.13V7.27h.43V6.06a.6.6,0,0,0-.18-.43.6.6,0,0,0-.44-.19H1.58a.6.6,0,0,0-.44.19A.6.6,0,0,0,1,6.06V7.27a.61.61,0,0,0,.62.62H8.17a.61.61,0,0,0,.62-.62H8.58"/><path class="b" d="M9.53,26.21a.54.54,0,0,1-.48.59H.7a.54.54,0,0,1-.48-.59V8.12a.55.55,0,0,1,.48-.6H9.05a.55.55,0,0,1,.48.6V26.21"/><path class="b" d="M9.53,26.21H9.31a.5.5,0,0,1-.09.29l-.09.07-.08,0H.7l-.08,0a.32.32,0,0,1-.13-.13.52.52,0,0,1,0-.23V8.12a.5.5,0,0,1,.09-.29l.09-.07.08,0H9.05l.08,0a.32.32,0,0,1,.13.13.52.52,0,0,1,.05.23V26.21h.44V8.12a.9.9,0,0,0-.19-.56.79.79,0,0,0-.22-.18.59.59,0,0,0-.29-.07H.7a.59.59,0,0,0-.29.07.79.79,0,0,0-.3.3A.93.93,0,0,0,0,8.12V26.21a.87.87,0,0,0,.19.55A.67.67,0,0,0,.41,27,.73.73,0,0,0,.7,27H9.05A.73.73,0,0,0,9.34,27a.75.75,0,0,0,.3-.31.89.89,0,0,0,.11-.43H9.53"/><polyline class="a" points="9.53 19.93 0.22 19.93 0.22 13.51 9.53 13.51 9.53 19.93"/><path class="b" d="M9.53,19.93v-.22H.44v-6H9.31v6.2h.22v0h.22V13.51a.2.2,0,0,0-.06-.15.24.24,0,0,0-.16-.07H.22a.24.24,0,0,0-.16.07.2.2,0,0,0-.06.15v6.42a.22.22,0,0,0,.06.15.23.23,0,0,0,.16.06H9.53a.23.23,0,0,0,.16-.06.22.22,0,0,0,.06-.15H9.53"/><rect class="c" width="9.76" height="27.02"/><path class="b" d="M1.65,18.61l0,0a.1.1,0,0,1,0-.09c.08-.23.56-.53.8-.66a1.44,1.44,0,0,1-.59.71l-.11.06Zm0,.15.11,0a2,2,0,0,0,.85-.93.49.49,0,0,1,.23-.24l.45-.23.43-.23.06,0,.07,0s0,0,0,0,0,0,0,0a.05.05,0,0,0,0,0h0l0,0-.06,0-.74.38a.1.1,0,0,1,0,0l-.07,0h0a.11.11,0,0,1,0-.08s0,0,0-.08a.39.39,0,0,0-.4-.44,1.14,1.14,0,0,0-.27,0l-.25.05-.25.05-.13,0-.13,0H1.29a.34.34,0,0,1-.35-.32.9.9,0,0,1,0-.43,2.75,2.75,0,0,1,1.18-1.59,1.23,1.23,0,0,1,.61-.2c.24,0,.44.1.44.36s-.34.93-.66,1h0s0,0,0,.08,0,0,.08,0A.64.64,0,0,0,3,15.68a2.19,2.19,0,0,0,.35-.7.47.47,0,0,0,0-.21c0-.32-.28-.46-.58-.46a1.36,1.36,0,0,0-.75.26A2.93,2.93,0,0,0,.83,16.19a1.15,1.15,0,0,0,0,.58.47.47,0,0,0,.49.36,2,2,0,0,0,.35-.05L1.91,17,2.16,17l.18,0a.27.27,0,0,1,.29.34.4.4,0,0,1-.16.32l-.21.13-.21.12a1.86,1.86,0,0,0-.59.56.23.23,0,0,0,0,.27A.18.18,0,0,0,1.64,18.76Z"/><path class="b" d="M3.65,17.45h0A1.06,1.06,0,0,1,4,16.86a.24.24,0,0,1,.13-.07.13.13,0,0,1,.08,0s0,0,0,.08l0,0a3.4,3.4,0,0,1-.48.52Zm0,.2a.4.4,0,0,0,.22-.12,5.08,5.08,0,0,0,.39-.41l0-.06a.16.16,0,0,1,.08,0,1.68,1.68,0,0,0-.07.44c0,.1.05.16.14.16h0A2.28,2.28,0,0,0,5.24,17l0,0a0,0,0,0,1,0,0,.08.08,0,0,0,0-.09H5.19l-.05,0a.1.1,0,0,1,0,0L5,17.1l-.14.12a1,1,0,0,1-.2.15l-.15.07h0s0,0,0-.05a2.56,2.56,0,0,1,.27-.85.3.3,0,0,1,0-.08l0-.07a.09.09,0,0,0,0-.11h0a.09.09,0,0,0-.06,0,.1.1,0,0,0,0,.05s0,.05,0,.06l-.09.13a1.47,1.47,0,0,1-.1.13s0,0-.05,0l0,0a.23.23,0,0,0-.17-.07.27.27,0,0,0-.18.07.3.3,0,0,0-.08.08,1.2,1.2,0,0,0-.35.73C3.49,17.61,3.53,17.65,3.6,17.65Z"/><path class="b" d="M5.64,16.14a.11.11,0,0,1,0-.11A5,5,0,0,1,6,15.26s0,0,.06,0h0l-.15.3c-.11.21-.21.42-.32.62Zm-.45,2.28c.11,0,.29-.19.35-.28s.23-.32.36-.49.23-.32.35-.47L6.33,17a.08.08,0,0,0,0-.07,0,0,0,0,0,0-.06h0S6.2,17,6.18,17c-.24.33-.52.73-.78,1.06,0,0-.13.17-.18.17a0,0,0,0,1,0,0,.66.66,0,0,1,0-.34,3.09,3.09,0,0,1,.29-1.24A6.54,6.54,0,0,0,6.28,15a.09.09,0,0,0,0-.11h0a.11.11,0,0,0-.07,0,5.25,5.25,0,0,0-.86,1.72,1,1,0,0,1-.15.34s0,.06,0,.09,0,.12,0,.19A3.35,3.35,0,0,0,5,18v.18C5,18.28,5.08,18.42,5.19,18.42Z"/><path class="b" d="M6.43,17.9h0a1.57,1.57,0,0,0,.72-.26,7.21,7.21,0,0,0,.75-.59l0,0a0,0,0,0,0,0,0s0-.07,0-.09a.09.09,0,0,0,0,0l0,0,0,0,0,0-.28.22-.28.23a2,2,0,0,1-.74.34H6.43c-.22,0-.31-.12-.25-.36a1.24,1.24,0,0,1,.39-.65.22.22,0,0,1,.15-.08c.06,0,.1,0,.11.11a.24.24,0,0,1,0,.2.08.08,0,0,1,0,.05.13.13,0,0,0,0,.06s0,0,0,0h0l0,0A.5.5,0,0,0,7,16.7a.25.25,0,0,0-.25-.17.31.31,0,0,0-.21.08,1.57,1.57,0,0,0-.47.78s0,.05,0,.09A.37.37,0,0,0,6.43,17.9Z"/><path class="b" d="M8.57,16.44s.08,0,.08-.09,0-.06-.08-.06-.07.05-.07.09S8.55,16.44,8.57,16.44Zm-.38,0c.05,0,.07,0,.07-.09a.07.07,0,0,0-.07-.06c-.07,0-.08.05-.08.09S8.16,16.44,8.19,16.44Zm-.27.78h0s0,0,0,0,.25-.44.43-.47c0,0,0,0,0,0S8.07,17.14,7.92,17.22Zm0,.68c.38,0,1-.57,1.23-.85,0,0,0,0,0-.05a.08.08,0,0,0,0-.09H9.14L9.09,17s0,0-.05.05l-.19.18-.2.19a1.48,1.48,0,0,1-.64.37c-.1,0-.16,0-.19-.12a.35.35,0,0,1,0-.2s0,0,0-.05a.9.9,0,0,0,.66-.62c0-.13-.06-.21-.17-.21h0c-.29,0-.51.43-.6.69a.53.53,0,0,0,0,.25.42.42,0,0,0,0,.19A.26.26,0,0,0,8,17.9Z"/></svg>